<?xml version="1.0" encoding="utf-8"?>
<!DOCTYPE svg PUBLIC "-//W3C//DTD SVG 1.0//EN" "http://www.w3.org/TR/2001/REC-SVG-20010904/DTD/svg10.dtd">
<svg version="1.0" xmlns="http://www.w3.org/2000/svg" width="1924px" height="1924px" viewBox="0 0 1924 1924" preserveAspectRatio="xMidYMid meet">
 <g fill="#2c4046">
  <path d="M914.5 1668.3 c-28.4 -0.9 -67.4 -5.2 -97.1 -10.8 -134.5 -25.4 -255.4 -88.7 -350.4 -183.5 -80.5 -80.3 -136.5 -173.8 -169.5 -283 -30.7 -101.6 -36.3 -215.3 -15.9 -319 31.7 -160.8 120.1 -303.6 249.6 -403.2 54.6 -42.1 124 -79.2 190.3 -101.8 51.6 -17.6 88.3 -25.5 159.5 -34.6 16.3 -2.1 71.9 -3 95.5 -1.5 153 9.4 297 70.2 412.4 174 6.4 5.7 11.9 10.8 12.2 11.3 0.3 0.6 0.9 0.3 1.2 -0.6 1.1 -2.9 2.7 -1.6 2.7 2.2 0 3.5 -1.3 5 -22.6 26.9 -21.4 22.1 -22.8 23.3 -26.3 23.3 -3.3 0 -3.7 -0.2 -3.6 -2.7 0 -5.6 -44.3 -42.3 -79.5 -65.7 -23.9 -15.9 -35 -22.5 -58.4 -34.6 -33.8 -17.5 -66.6 -30.9 -100.5 -41.1 -56.9 -17.2 -110.4 -24.9 -173.4 -25 -40.2 0 -72.4 2.4 -103.7 7.7 -159.3 27.1 -302.7 118.8 -394.2 251.9 -83.4 121.4 -119.1 267.9 -101.3 415.1 3.2 26.3 6.3 43 13.1 70.4 22.2 89.8 63.2 170.4 124 243.5 13.9 16.8 57.2 60.1 73.9 73.9 45 37.3 92 66.4 145.5 89.9 61.4 27 134.6 44.2 207 48.8 17.2 1.1 72.1 0.7 82.5 -0.6 2.2 -0.2 10.5 -1.2 18.5 -2 98.5 -10.6 197.4 -48.2 279.5 -106.4 82.9 -58.7 147.6 -134.6 192.5 -225.6 32.9 -66.8 51 -130.6 59.7 -211 2.4 -22.7 2.5 -88.2 0 -111.1 -3.6 -34 -8.2 -60.6 -15.7 -90.4 -19.4 -77.3 -53.6 -149.3 -101 -213 -14.7 -19.7 -18 -23.5 -20.1 -23.2 -1.4 0.2 -1.9 -0.3 -1.9 -2 0 -1.6 3.7 -6 12.6 -14.8 6.9 -6.9 17.3 -17.6 23.1 -23.7 7.7 -8.3 11.2 -11.3 12.9 -11.3 1.3 0 2.4 0.6 2.4 1.3 0 0.7 2.8 4.8 6.3 9.2 37 46.8 60.7 83.9 83.7 131 58.3 119.6 80 257.8 60.9 389 -25.4 175.3 -120.4 334.3 -263.4 441.1 -101.3 75.7 -223.8 121.1 -351.7 130.4 -14.7 1.1 -54.5 1.8 -71.3 1.3z"/>
  <path d="M911.5 1438.9 c-71.8 -4.3 -143.3 -27.3 -202.2 -64.9 -92.1 -58.9 -157 -149.3 -182.7 -254.7 -8.2 -33.4 -11.9 -64.4 -11.9 -99.8 -0.1 -46.8 6.6 -87.5 21.8 -133 31.3 -93.7 93.5 -172 177 -222.6 14.4 -8.7 55.2 -29.5 68.5 -34.8 49.3 -19.9 109.7 -30.4 164.5 -28.8 23.2 0.8 34.1 1.8 55.5 5.3 73.2 11.9 143.3 44.4 203 93.8 4.7 3.9 8.8 7.5 9.1 7.9 0.3 0.5 0.9 0.2 1.2 -0.7 1.1 -2.9 2.7 -1.6 2.7 2.2 0 3.6 -1.1 5 -22.6 27 -22.1 22.7 -22.7 23.2 -26.6 23.2 -3.6 0 -3.9 -0.2 -2.7 -1.6 1.1 -1.3 1 -1.8 -0.7 -3.2 -17.8 -14.5 -24.4 -19.4 -35.6 -26.9 -47.1 -31.5 -98.6 -50.5 -155.8 -57.5 -14.1 -1.7 -64 -1.7 -78.5 0 -26.9 3.3 -54.1 9.5 -77 17.7 -7.1 2.5 -17.3 6.1 -22.5 7.9 -20.7 7.2 -50.4 24.5 -75.6 44.2 -10.7 8.3 -32.9 28 -37.9 33.6 -21.8 24.1 -28.9 33 -41.2 51.3 -49.6 74.3 -69.1 165.7 -54.2 254.5 6.3 37.2 20.5 78 38.6 110.5 45.3 81 118.2 140.5 204.2 166.4 97.4 29.4 199.5 17.3 284.1 -33.4 40.8 -24.5 78.2 -58.7 104.7 -95.6 35.9 -50.2 57.1 -103.8 64.8 -164 2.3 -17.7 3.1 -53.2 1.6 -71.4 -4 -48.3 -18.6 -97.4 -41.7 -140 -9.9 -18.1 -27 -43.5 -29.4 -43.5 -5 0 -1.8 -4.5 17.4 -23.9 10.6 -10.8 21 -21.5 23.1 -23.8 3.6 -4.1 8.5 -5.9 8.5 -3.1 0 0.6 3.7 6.3 8.3 12.7 12.5 17.3 17.7 25.4 26.3 40.2 46.9 81.3 65.4 177.5 51.9 269.6 -16.3 110.2 -73.6 207.2 -162.5 275 -77.3 58.9 -178.8 89.9 -275.5 84.2z"/>
 </g>
 <g fill="#acecfc">
  <path d="M936.5 1062.3 c-13.5 -5.5 -20.7 -16.1 -21.3 -31.6 -0.8 -17.7 2.3 -22.6 35.3 -56.2 14.1 -14.3 52.5 -53.5 75.3 -76.8 10.6 -10.9 19.7 -19.5 20.1 -19.2 0.5 0.2 28 -27.2 61.1 -61 33.1 -33.8 60.8 -61.5 61.5 -61.5 1.8 0 46.5 -46 46.5 -47.9 0 -0.8 10.9 -12.5 24.3 -26 56.6 -57.2 113.7 -115.9 113.7 -116.9 0 -0.6 0.8 -0.8 1.8 -0.5 1.4 0.3 7.6 -5.4 24.3 -22.6 12.3 -12.7 22.6 -23.9 22.8 -24.9 0.2 -0.9 11.7 -13.3 25.7 -27.4 14 -14.1 25.8 -26.6 26.2 -27.8 0.4 -1.2 0.5 -5.4 0 -9.3 -0.4 -4 -1.6 -19.3 -2.8 -34.2 -1.1 -14.8 -2.7 -35.1 -3.5 -45 -0.8 -9.9 -1.9 -29.2 -2.5 -43 -0.6 -13.7 -2 -39.6 -3.1 -57.5 -2.9 -44.8 -2.1 -58.6 4.4 -71.8 11 -22.6 37.8 -22.7 48.2 0 7 15.4 15.2 67.3 18 114.3 2.9 48.6 5.4 79.3 6.6 80 0.4 0.3 8.1 -7.2 17.1 -16.6 15.8 -16.6 16.3 -17.2 16.3 -21.2 -0.1 -6.4 -9.1 -60.9 -13.5 -81.2 -4.9 -23 -6.6 -33.8 -8.4 -55.5 -3.8 -43.1 -4.8 -62.8 -4.3 -79.5 0.6 -16.4 2.7 -30.7 4.6 -31.3 0.6 -0.2 0.7 -1 0.4 -1.8 -0.3 -0.8 0 -1.4 0.7 -1.4 0.6 0 0.8 -0.5 0.5 -1 -0.3 -0.5 -0.1 -1 0.5 -1 0.6 0 0.8 -0.4 0.5 -1 -0.3 -0.5 -0.1 -1 0.5 -1 0.6 0 0.8 -0.4 0.5 -1 -0.3 -0.5 -0.1 -1 0.4 -1 0.6 0 1 -0.3 0.9 -0.7 -0.3 -1 7.1 -8.3 8.3 -8.3 0.5 0 0.9 -0.4 0.9 -0.9 0 -0.5 2.1 -1.4 4.6 -1.9 12.7 -2.7 23.9 7.6 28.9 26.7 2.1 8.3 12.8 70.6 15.5 90.1 2.9 21.5 5.4 35.6 10.1 55.8 2.2 9.5 4.8 21.8 5.8 27.3 1 5.5 2.2 10.3 2.6 10.7 0.3 0.4 10 -9 21.5 -20.8 24.6 -25.3 22.2 -18.1 18.5 -56 -1.4 -14 -3 -35.4 -3.6 -47.5 -1.1 -23.8 -0.4 -85 1.2 -102.5 1.3 -13.9 3.7 -28.3 5 -29 0.5 -0.4 0.7 -1.4 0.3 -2.3 -0.4 -1 -0.1 -1.7 0.6 -1.7 0.7 0 1 -0.7 0.6 -1.5 -0.3 -0.8 -0.1 -1.5 0.5 -1.5 0.6 0 0.9 -0.7 0.5 -1.5 -0.3 -0.8 -0.1 -1.5 0.5 -1.5 0.6 0 0.9 -0.7 0.5 -1.5 -0.3 -0.8 0 -1.5 0.6 -1.5 0.6 0 0.9 -0.3 0.6 -0.6 -0.3 -0.3 0.5 -1.7 1.8 -3.1 1.3 -1.4 2.2 -2.9 1.9 -3.3 -1.3 -2 8.7 -7 14 -7 11.6 0 19.4 11.1 23.5 33.5 3.8 20.3 9.1 65.9 11.5 99 1.4 18.7 3.5 42.5 4.8 52.9 2.3 18.6 2.4 19 5.2 21 11.9 8.6 16.6 16 17.3 27.9 0.4 6.3 0 8.9 -1.8 13.8 -1.2 3.3 -1.9 6.3 -1.6 6.6 0.3 0.3 7.2 -0.1 15.3 -1 8.2 -0.9 21.1 -1.9 28.8 -2.2 7.7 -0.3 23.2 -1.2 34.5 -2 24.1 -1.6 83.7 -3 86.8 -2 2.2 0.6 2.2 1 2.2 23.5 l0 22.8 -3.2 1.1 c-4.8 1.5 -30.4 7.8 -36.8 9 -21.3 4.1 -68.3 11.3 -82 12.7 -9.1 0.8 -25.7 3.1 -37 5 -37.5 6.4 -39 6.6 -50.5 6.1 -8 -0.3 -12.7 -1 -17.4 -2.7 l-6.4 -2.3 -7.1 7.4 -7.1 7.4 34.5 0.6 c101 1.9 158.6 7.9 176.3 18.2 11.9 7 14.8 19.8 6.5 29.2 -4.1 4.7 -8.2 7.1 -17.4 10 -25.9 8.2 -53.8 10.1 -166.4 11 -76.8 0.5 -77.2 0.5 -88.3 -5.1 l-5.1 -2.5 -18 18 c-9.9 9.9 -17.7 18.4 -17.3 18.8 0.4 0.4 19.3 0.6 42 0.4 22.7 -0.1 50.9 0.3 62.7 0.8 11.8 0.6 31.2 1.6 43 2.1 46.5 2.3 60.1 5 70.4 14 5.8 5.1 8 10.3 8 18.5 0 5.3 -0.5 8 -2.2 11 -6.5 12 -16.1 16 -44.2 18.5 -11.6 1 -94.5 2.5 -202.5 3.5 l-45.9 0.5 -5.4 5.2 c-2.9 2.9 -12.6 12.9 -21.5 22.1 -15.2 15.9 -16 17 -14.7 19 1.2 2 1.2 2.1 -0.4 0.7 -1.6 -1.3 -2.3 -0.8 -7.9 5 -12.1 12.9 -42 43 -42.7 43 -0.4 0 -7.1 6.6 -15.1 14.8 -7.9 8.1 -33.9 34.7 -57.8 59.2 -72 73.6 -64.7 65.7 -63.2 68.3 1.3 2.1 1.3 2.1 -0.3 0.7 -1.7 -1.3 -2.2 -1 -5.9 3 -8.1 9 -43.3 44.5 -45 45.5 -3 1.7 -115.7 117.4 -115.7 118.8 0 0.7 0.5 1.8 1.2 2.5 0.9 0.9 -0.6 2.9 -6.8 8.9 -4.4 4.3 -23.9 24.2 -43.4 44.1 -76.8 78.7 -75.1 77.1 -85.1 79.8 -7.3 1.9 -21.3 1.7 -26.4 -0.3z"/>
 </g>
 <g fill="#ffec0f">
  <path d="M941 1187.9 c-13.5 -0.8 -18.6 -1.8 -33.5 -6.6 -11.3 -3.6 -32.5 -13.1 -32.5 -14.5 0 -0.4 -0.6 -0.8 -1.3 -0.8 -3.2 0 -27.6 -19 -37.2 -29.2 -7.4 -7.7 -17.5 -20 -17.5 -21.4 0 -0.4 -0.7 -1.6 -1.7 -2.6 -2 -2.3 -3.1 -4.1 -8.8 -15.6 -13.2 -26.6 -18.2 -50.3 -17.2 -81.7 1.1 -36 9 -58.9 32.9 -94.9 6 -8.9 27.2 -29.8 33.2 -32.6 0.6 -0.3 3.8 -2.3 7.1 -4.5 15.8 -10.3 37.9 -20.9 50.2 -24.1 38 -9.6 80.4 -5.8 113.8 10.2 4.4 2.1 8.2 3.9 8.5 3.9 0.3 0 2.9 1.5 5.9 3.3 l5.3 3.3 -2.3 2.7 c-1.3 1.5 -9.9 10.4 -19 19.7 -19 19.5 -58.7 60 -73.4 75 -26.1 26.7 -30.3 31.8 -33.6 40.9 -2.5 7.3 -2.1 16.6 1.2 23.6 6.6 14.2 21.8 21.5 37.1 18 11.2 -2.6 10.1 -1.5 86.8 -80.1 47.8 -49.1 51 -52.1 52.7 -50.7 0.8 0.6 3.4 5.1 5.8 9.9 2.4 4.8 4.8 9.5 5.3 10.6 0.5 1 1.7 3.2 2.6 5 2.9 5.5 8.4 23.3 10.8 34.8 1.9 9.4 2.2 14 2.2 32 0 22.4 -0.9 29.4 -6 47.9 -2.5 9 -11.2 29.7 -14.6 34.9 -1 1.5 -2.7 4 -3.8 5.7 -1.1 1.6 -2 3.2 -2 3.5 0 0.6 -6.3 9 -8.2 10.9 -0.7 0.7 -2.6 3 -4.3 5 -1.6 2.1 -6.1 6.9 -10 10.7 -3.8 3.7 -8.1 7.9 -9.5 9.3 -1.4 1.4 -2.9 2.6 -3.2 2.6 -0.4 0 -2.2 1.4 -4 3 -1.8 1.7 -3.8 3 -4.6 3 -0.7 0 -1.5 0.7 -1.8 1.5 -0.7 1.7 -8.6 6.5 -10.8 6.5 -0.8 0 -1.9 0.6 -2.3 1.4 -1 1.8 -16.7 9.4 -25.3 12.3 -22.1 7.5 -43.1 9.9 -73 8.2z"/>
 </g>
</svg>