<?xml version="1.0" encoding="utf-8"?>
<!DOCTYPE svg PUBLIC "-//W3C//DTD SVG 1.0//EN" "http://www.w3.org/TR/2001/REC-SVG-20010904/DTD/svg10.dtd">
<svg version="1.0" xmlns="http://www.w3.org/2000/svg" width="1924px" height="1924px" viewBox="0 0 1924 1924" preserveAspectRatio="xMidYMid meet">
 <g fill="#2b4046">
  <path d="M610 1629.1 c0 -4.4 1 -5.1 7 -5.1 6 0 7 0.7 7 5.1 l0 3.9 -7 0 -7 0 0 -3.9z"/>
  <path d="M561 1631.1 c-5.7 -1.6 -2.3 -14.8 4.6 -18 4.1 -1.8 10.1 -1.4 12.5 1 2.7 2.7 2.2 8.6 -1.1 14.2 -2.1 3.6 -2.3 3.7 -7.8 3.6 -3.2 -0.1 -6.8 -0.4 -8.2 -0.8z"/>
  <path d="M658.6 1629.3 c-0.3 -1 -2.1 -8.5 -4.1 -16.7 -5.6 -23.5 -5.8 -30.7 -0.9 -36.5 4.6 -5.5 17.2 -5.1 21.2 0.7 4 5.6 14.2 38.2 14.2 45.4 l0 4.4 -4.7 1.2 c-6.7 1.6 -17.1 3.2 -21.5 3.2 -2.6 0 -3.8 -0.5 -4.2 -1.7z"/>
  <path d="M501 1618.3 c-3.1 -0.6 -4 -1.9 -4 -6 0 -4.1 3 -6.3 8.7 -6.3 5 0 7.3 2 7.3 6.1 0 6.5 -2.8 7.9 -12 6.2z"/>
  <path d="M719 1609.7 c0 -9.4 1 -10.7 8.6 -10.7 4.9 0 5.5 0.2 6.4 2.6 0.6 1.4 1 4.9 1 7.9 l0 5.3 -3.7 0.6 c-2.1 0.3 -5.7 0.9 -8 1.2 l-4.3 0.7 0 -7.6z"/>
  <path d="M464.8 1605.8 c-3.6 -0.9 -3.8 -1.2 -3.8 -5 0 -7.3 4.4 -12.8 10.2 -12.8 6.4 0 7.8 1.3 7.8 7.2 0 3.4 -0.7 6.2 -2.1 8.4 -2.3 3.7 -4.8 4.2 -12.1 2.2z"/>
  <path d="M756 1597.7 c0 -7.6 1.8 -9.7 8.4 -9.7 6.3 0 8.6 1.9 8.6 7.2 0 3.3 -0.3 3.7 -5.1 5.7 -2.9 1.1 -6.7 2.1 -8.5 2.1 l-3.4 0 0 -5.3z"/>
  <path d="M801 1573.6 c0 -9.1 0.3 -9.6 6 -9.6 6 0 8 2 8 8.1 0 4.1 -0.3 4.5 -3.9 6.2 -2 0.9 -5.2 1.7 -6.9 1.7 l-3.2 0 0 -6.4z"/>
  <path d="M407.3 1575.8 c-2.6 -1.6 -3.3 -2.6 -3.3 -5.3 0 -3.3 3.9 -9.2 8.3 -12.7 2.6 -2.1 12.6 -2.5 14.5 -0.6 0.7 0.7 1.2 3.3 1.2 5.8 0 4.2 -0.4 5 -5.3 9.8 -4.4 4.3 -5.8 5.2 -8.7 5.1 -1.9 0 -5 -1 -6.7 -2.1z"/>
  <path d="M839.2 1552.7 c-4.1 -4.9 -6.8 -19.6 -4.4 -23.5 1.3 -1.9 7.5 -2.6 11.6 -1.2 2.8 0.9 4.4 2.4 6.6 6.3 2.8 4.9 4.1 12.7 2.2 12.7 -0.5 0 -2.7 1.6 -4.9 3.5 -4.3 3.7 -9.1 4.6 -11.1 2.2z"/>
  <path d="M350.4 1531.6 c-4.5 -2.5 -5.4 -3.8 -5.4 -8.2 0 -4 0.3 -4.5 4.3 -6.9 4.8 -2.7 13.3 -3.5 15.5 -1.3 0.7 0.7 1.2 3.5 1.2 6.3 0 4.8 -0.3 5.4 -3.9 8.3 -4.2 3.4 -7.9 3.9 -11.7 1.8z"/>
  <path d="M878.6 1505.1 c-4 -8.5 -5.4 -16.1 -3.7 -20.3 1 -2.6 1.5 -2.8 6.4 -2.8 6.5 0 8.3 1.6 12.7 11.2 4 9 3.9 11.8 -0.7 16.3 -2.8 2.7 -4.4 3.5 -7.3 3.5 -3.6 0 -3.7 -0.1 -7.4 -7.9z"/>
  <path d="M307 1484.8 c-3.2 -3.4 -2.7 -8.3 1.3 -12.3 4 -4 7.6 -5.1 12.6 -3.9 3.5 0.9 3.6 1.1 3.9 6 0.3 4.9 0.2 5.2 -4.2 8.7 -5.3 4.4 -10.3 5 -13.6 1.5z"/>
  <path d="M926 1447.9 c0 -8.9 0.8 -9.9 8 -9.9 l6 0 0 4.4 c0 2.4 -0.4 4.6 -0.8 4.8 -0.4 0.2 -1.8 1.8 -3.1 3.6 -1.9 2.7 -2.9 3.2 -6.2 3.2 l-3.9 0 0 -6.1z"/>
  <path d="M281.2 1446 c-1.5 -1.5 -2.2 -3.3 -2.2 -5.9 0 -4.4 1 -5.1 7.1 -5.1 6.3 0 7.9 1.3 7.9 6.5 0 3.4 -0.5 4.7 -1.9 5.5 -3.2 1.7 -8.5 1.2 -10.9 -1z"/>
  <path d="M263.5 1413 c-2 -4 -2 -11.6 0.1 -12.4 2.8 -1.1 14 -0.6 15.2 0.6 0.7 0.7 1.2 3.4 1.2 6 0 4.8 0 4.9 -4.6 6.8 -6.7 2.9 -10 2.6 -11.9 -1z"/>
  <path d="M951.2 1406.8 c-0.7 -0.7 -1.2 -3.6 -1.2 -6.5 0 -6 1.7 -7.6 7.3 -7.1 2.9 0.3 3.2 0.7 3.5 3.8 0.2 1.9 -0.1 5.2 -0.8 7.3 -1 3.3 -1.4 3.7 -4.3 3.7 -1.8 0 -3.8 -0.5 -4.5 -1.2z"/>
  <path d="M247.1 1368.2 c-0.5 -0.9 -1.2 -3.5 -1.6 -5.7 -0.4 -2.2 -1.2 -4.5 -1.7 -5.2 -0.5 -0.6 -1.2 -4.5 -1.5 -8.6 l-0.6 -7.5 3.4 -1 c11.7 -3.8 24.4 -6.2 32.2 -6.2 8 0 8.7 0.2 11.6 2.9 2.9 2.7 3.1 3.4 3.1 9.9 0 8.4 -1.4 10.6 -8.5 13.1 -2.8 1 -9.8 3.7 -15.8 6 -11.9 4.6 -18.9 5.4 -20.6 2.3z"/>
  <path d="M968.2 1337.7 c-3.2 -3.4 -3.1 -11.9 0 -14.1 2.9 -2 10.2 -2.1 11.8 -0.1 1.2 1.4 0.8 9.8 -0.6 14.8 -0.8 2.7 -8.4 2.3 -11.2 -0.6z"/>
  <path d="M237.6 1326.8 c-1.1 -3.8 -2.6 -12.3 -2.6 -14.5 l0 -2.5 9.8 0.7 c8.9 0.6 10.3 0.5 14 -1.4 4.5 -2.3 9.2 -2.7 12.3 -1.1 1.5 0.8 1.9 2.1 1.9 6 0 4.4 -0.4 5.1 -3.7 8 -2.1 1.7 -6 3.7 -8.7 4.5 -6.3 1.9 -22.5 2 -23 0.3z"/>
  <path d="M591.3 1303.2 c-10.2 -3.7 -20.8 -13.4 -26 -23.9 -2.4 -5 -2.8 -6.9 -2.7 -14.8 0 -6.5 0.5 -9.9 1.7 -12.2 0.9 -1.8 1.7 -4.2 1.7 -5.5 0 -2.9 3.4 -9.4 6.9 -13.1 5.5 -6 14.3 -8.7 28.2 -8.7 l9.5 0 4 -7.7 c3.4 -6.7 27.8 -46.5 49.9 -81.8 9.5 -15.1 32.1 -51 37.5 -59.5 2.6 -4.1 12.3 -19.4 21.5 -34 9.2 -14.6 19.3 -30.5 22.5 -35.5 3.2 -4.9 5.7 -9.1 5.5 -9.3 -0.1 -0.1 -4.4 1.3 -9.4 3.3 -7.5 2.8 -10.6 3.5 -16.6 3.5 -8 0 -11.2 -1.6 -14 -7 -3.2 -6.3 -1 -17.3 4.2 -20.7 3.7 -2.5 35 -14.2 55.8 -21 8.2 -2.7 18.3 -3.6 23.8 -2 2.4 0.7 2.7 0.5 2.7 -1.6 0 -4.4 6.6 -7.8 12.5 -6.3 2.2 0.6 2.5 1.1 2.5 5.5 0 5.6 -2.6 9.8 -6.5 10.3 l-2.5 0.3 2.5 3.6 c2.2 3 2.8 5.6 4 15.5 1.9 16.7 3.9 54.4 3.1 58.8 -0.4 2.2 -2.1 5 -4.2 7.1 -3.3 3.3 -3.8 3.5 -10.2 3.5 -12 0 -15.6 -3.9 -16.7 -17.8 -0.3 -4.8 -0.9 -10.9 -1.3 -13.6 l-0.7 -4.9 -14.1 22.4 c-7.8 12.3 -20.6 32.5 -28.4 44.9 -7.8 12.4 -15.2 24.1 -16.5 26 -1.2 1.9 -12.3 19.3 -24.5 38.5 -29.5 46.3 -52.5 81.7 -57.4 88.5 l-4.1 5.5 2.7 5.5 c11.4 23 4.9 46.5 -15.8 56.6 -7.5 3.7 -23 4.5 -31.1 1.6z m19.5 -30.5 c1.7 -1.7 3.2 -3.9 3.2 -4.9 0 -2.8 -3.7 -9.6 -5.9 -10.8 -4.5 -2.3 -12.6 0 -15.6 4.6 -1.5 2.3 -1.5 2.7 0.6 5.5 2.9 4.1 10.9 9.8 12.8 9.2 0.9 -0.3 3.1 -2 4.9 -3.6z"/>
  <path d="M241.3 1278.1 c-4.5 -0.3 -8.4 -0.8 -8.6 -1.1 -0.3 -0.3 -0.8 -4 -1.2 -8.2 l-0.7 -7.8 4.2 0 c3.6 0 10.1 0.9 32.8 4.6 3.1 0.5 3.2 0.6 3.2 5.8 0 5.2 -0.1 5.5 -3.1 6.5 -3.3 1.1 -12.3 1.2 -26.6 0.2z"/>
  <path d="M976.7 1273.3 c-1.2 -1.1 -0.8 -11.8 0.5 -13.1 0.7 -0.7 2.7 -1.2 4.5 -1.2 l3.3 0 0 7.5 0 7.5 -3.8 0 c-2.1 0 -4.2 -0.3 -4.5 -0.7z"/>
  <path d="M972 1222.1 c-1.6 -3.1 -1.2 -11.7 0.6 -13.5 2.1 -2.1 8 -2.1 8.8 0 0.3 0.9 0.9 4.7 1.2 8.5 l0.7 6.9 -5.1 0 c-4 0 -5.3 -0.4 -6.2 -1.9z"/>
  <path d="M235.6 1220.4 c-1 -1 -1.6 -3.3 -1.6 -6.4 0 -7.3 1.6 -8.1 19.3 -8.7 17.3 -0.7 18.7 -0.2 18.7 6.1 0 2.5 -0.6 4.8 -1.4 5.5 -1.5 1.2 -24.4 5.1 -30.2 5.1 -1.8 0 -4 -0.7 -4.8 -1.6z"/>
  <path d="M933.3 1183.4 c-4 -0.9 -6.3 -5.1 -6.3 -11.5 0 -8.1 2.3 -10.5 18.2 -18.4 10.1 -5.1 13.9 -6.5 17.3 -6.5 4 0 4.5 0.3 5.1 2.8 0.3 1.5 1.7 5.9 3 9.9 1.3 3.9 2.4 9.1 2.4 11.5 l0 4.4 -11.7 3.8 c-11.4 3.7 -22.2 5.2 -28 4z"/>
  <path d="M254.3 1162.9 c-11.6 -4.5 -11.9 -5.1 -8.7 -13.6 1.5 -3.9 2 -4.3 4.9 -4.3 1.8 0 7.3 1.9 12.2 4.1 4.8 2.3 10.6 4.5 12.8 4.8 4 0.6 4 0.6 4.3 5.6 0.4 6.3 -1.1 7.5 -9.2 7.4 -4.7 0 -8.5 -1 -16.3 -4z"/>
  <path d="M936 1132.3 c-2.4 -0.9 -3 -2.5 -3 -7.5 0 -6.6 2.6 -8.2 13.4 -8.3 l8.1 0 0 5.5 0 5.5 -5.4 2.8 c-5.2 2.5 -9.7 3.3 -13.1 2z"/>
  <path d="M279 1107.5 c-0.8 -0.2 -4.1 -0.7 -7.2 -1 l-5.8 -0.6 0 -3.9 c0 -2.2 1 -5.5 2.2 -7.6 l2.1 -3.6 5.6 0.6 c3.1 0.3 7.9 0.9 10.7 1.2 3.7 0.5 5.9 0.2 8.2 -1 1.8 -0.9 5.5 -1.6 8.7 -1.6 l5.5 0 0 4.8 c0 5.5 -2 8 -8.1 10.6 -3.4 1.4 -18.8 2.9 -21.9 2.1z"/>
  <path d="M918.6 1094.4 c-1.1 -2.8 -0.6 -9.1 0.8 -10.3 2.4 -2 12.8 -5.1 17.3 -5.1 l4.3 0 0 4.5 c0 4.3 -0.2 4.5 -5.9 8.5 -5 3.3 -6.8 4 -10.9 4 -3.6 0 -5.2 -0.4 -5.6 -1.6z"/>
  <path d="M901.4 1065.6 c-0.3 -0.7 -0.4 -3.5 -0.2 -6.2 0.3 -4.2 0.7 -5 3.5 -6.6 3.5 -2.1 11.9 -3.4 15.7 -2.4 2.3 0.6 2.6 1.1 2.6 5.1 0 4.2 -0.3 4.7 -4.7 8 -4.2 3 -5.6 3.5 -10.6 3.5 -4 0 -5.9 -0.4 -6.3 -1.4z"/>
  <path d="M311.9 1045.2 c-4.9 -2.5 -5.4 -3.1 -5.7 -6.5 -0.2 -2.6 0.3 -4.6 1.8 -6.7 1.8 -2.5 2.8 -3 6.3 -3 2.6 0 5.1 0.8 6.7 2 1.6 1.2 4.1 2 6.7 2 4.9 0 7.3 2 7.3 6 0 4.2 -0.9 5.9 -4.1 7.5 -4.7 2.5 -12.9 1.9 -19 -1.3z"/>
  <path d="M200 1041 c-2.5 -2.2 -7.5 -7.1 -11.2 -10.7 -6.3 -6.2 -6.8 -7.1 -6.8 -11 l0 -4.3 4.1 0 c2.6 0 5 0.7 6.7 2.1 l2.6 2 0.8 -2 c0.4 -1.3 1.6 -2.1 3 -2.1 2.2 0 2.3 -0.4 2.3 -6.2 l0 -6.3 5 -0.5 5 -0.5 -5.2 -3.8 c-2.8 -2.1 -6.5 -5.3 -8.2 -7.3 -2.6 -2.9 -3.1 -4.3 -3.1 -8.8 0 -4 0.4 -5.5 1.6 -6 2.7 -1 8.3 -0.7 11.7 0.7 3.6 1.6 31.1 25.7 32.1 28.2 0.9 2.5 0.7 6.4 -0.4 8.6 -2 3.6 -11.3 2.1 -17.5 -3 -1.1 -0.9 0.2 0.8 2.8 3.7 4.2 4.6 4.8 5.7 4.5 9 -0.3 3.5 -0.5 3.7 -4.3 4.2 l-4 0.5 0 4.5 c0 4.5 0 4.5 -3.7 4.8 -3.7 0.3 -3.8 0.4 -3.8 4.3 l0 3.9 -4.7 0 c-4.2 0 -5.4 -0.6 -9.3 -4z"/>
  <path d="M873.7 1029.3 c-0.4 -0.3 -0.7 -3 -0.7 -5.9 0 -5 0.2 -5.5 3.7 -7.9 4.1 -2.7 11.9 -3.5 14.1 -1.3 0.7 0.7 1.2 3 1.1 5.3 0 3.5 -0.5 4.4 -4.1 7.3 -3.2 2.6 -4.9 3.2 -8.7 3.2 -2.6 0 -5.1 -0.3 -5.4 -0.7z"/>
  <path d="M241 989.9 c-13 -8.9 -25.7 -18.8 -28.5 -22 -2.2 -2.7 -2.5 -4 -2.3 -8.3 l0.3 -5.1 5.3 -0.3 c4.2 -0.2 6.2 0.2 9.5 2.2 4.8 2.8 32.8 26 34 28.2 0.5 0.8 0.7 3.3 0.5 5.7 l-0.3 4.2 -5.5 0.3 c-5.2 0.3 -5.9 0 -13 -4.9z"/>
  <path d="M359.8 990.9 c-2.5 -1.4 -2.4 -8 0 -10.2 2.1 -2 13.1 -2.4 16.3 -0.7 2.4 1.3 2.6 8.1 0.3 10.4 -1.8 1.9 -13.8 2.2 -16.6 0.5z"/>
  <path d="M835.4 990.6 c-0.3 -0.7 -0.4 -3.5 -0.2 -6.2 0.3 -4.5 0.6 -5 4.3 -7.1 2.9 -1.7 5.3 -2.2 8.5 -2.1 l4.5 0.3 0.3 4.4 c0.3 3.9 -0.1 4.8 -3.4 8.2 -3.4 3.5 -4.3 3.9 -8.6 3.9 -3.2 0 -5 -0.5 -5.4 -1.4z"/>
  <path d="M399.3 960.4 c-0.7 -0.3 -1.3 -2.3 -1.3 -4.4 0 -4.9 3.2 -7.2 9.3 -6.8 l4.2 0.3 0 5.5 0 5.5 -5.5 0.2 c-3 0.1 -6.1 -0.1 -6.7 -0.3z"/>
  <path d="M766 940.6 c0 -4.4 0.5 -6 2.6 -8.6 2.3 -2.7 3.2 -3.1 6.8 -2.8 l4.1 0.3 0.3 4.6 c0.2 3.3 -0.3 5.6 -1.8 8.3 -2.1 3.4 -2.5 3.6 -7.1 3.6 l-4.9 0 0 -5.4z"/>
  <path d="M445.2 942.4 c-4.8 -3.3 -7 -12.7 -3.6 -15.5 0.9 -0.7 4.2 -1.5 7.5 -1.7 4.8 -0.4 5.9 -0.2 5.9 1.1 0 0.9 1.1 2.9 2.5 4.5 2.9 3.5 3.4 9.2 0.9 11.6 -2 2.1 -10.2 2.1 -13.2 0z"/>
  <path d="M534.1 930.1 c-2.7 -2.7 -4.2 -5.2 -4.6 -7.8 -0.4 -2.1 -1.3 -6.9 -2.1 -10.8 -2 -9.8 -1.8 -11.4 0.9 -11.9 19.1 -4.1 28.1 -4.7 29.1 -1.9 0.4 0.9 0.9 6.4 1.2 12.2 0.6 11.6 -0.7 17.4 -4.8 21.8 -1.8 2 -3.2 2.3 -9 2.3 -6.6 0 -6.9 -0.1 -10.7 -3.9z"/>
  <path d="M286.5 924.9 c-6.9 -8.6 -7.8 -10.6 -7.3 -16 0.3 -3.1 0.6 -3.4 4 -3.7 l3.8 -0.3 -2 -2.7 c-2.4 -3.2 -3.5 -8.9 -2.6 -12.6 0.6 -2.4 1.1 -2.6 6.1 -2.6 2.9 0 5.7 0.5 6 1 0.3 0.6 1.1 1 1.7 1 0.7 0 0 -1.2 -1.4 -2.7 -5.7 -6.1 -7.8 -10.4 -7.8 -15.7 0 -2.9 0.5 -5.7 1.2 -6.4 0.7 -0.7 3.2 -1.2 5.7 -1.2 4.1 0 4.9 0.4 8.8 4.8 2.3 2.6 9.6 12.1 16.3 21.1 11.8 15.9 12.1 16.5 11.8 21 l-0.3 4.6 -5.1 0.3 -5.2 0.3 -7.5 -8.3 c-4.1 -4.6 -8.7 -9.6 -10.2 -11.3 -1.5 -1.6 0.4 1.1 4.1 6 3.7 5 7.6 10 8.6 11.1 1.5 1.6 1.8 3.4 1.6 7 l-0.3 4.9 -4.7 0.3 c-4.2 0.3 -5.1 -0.1 -8.7 -3.4 -4.3 -3.8 -5.4 -3.6 -2.1 0.6 1.2 1.6 2 4.1 2 6.8 l0 4.2 -5 0 -4.9 0 -6.6 -8.1z"/>
  <path d="M719.6 925.4 c-1.3 -3.3 -0.5 -10 1.4 -13.2 1.9 -3.1 2.3 -3.3 7.3 -3 l5.2 0.3 -0.1 6.5 c-0.1 9.4 -1.2 11 -7.8 11 -4 0 -5.5 -0.4 -6 -1.6z"/>
  <path d="M672.6 907.9 c-1.9 -1.5 -2.6 -3 -2.6 -5.5 l0 -3.4 6.8 0 c4 0.1 7.4 0.6 8.5 1.4 2 1.5 2.3 6.6 0.5 8.4 -2 2 -10.2 1.5 -13.2 -0.9z"/>
  <path d="M620.2 906.8 c-1.6 -1.6 -1.6 -13.9 0.1 -16.2 1 -1.3 2.4 -1.7 6.2 -1.4 l5 0.3 0.3 7.8 c0.2 5 -0.1 8.4 -0.9 9.3 -1.4 1.7 -9 1.9 -10.7 0.2z"/>
  <path d="M330.9 898.3 c-4.3 -3.9 -21.6 -23.9 -28.2 -32.6 -3.1 -4 -3.7 -5.7 -3.7 -9.6 0 -2.6 0.5 -5.2 1.2 -5.9 0.7 -0.7 3.4 -1.2 6.1 -1.2 5.7 0 6.8 1 18.1 15.9 l7.1 9.5 0.3 -4.1 c0.4 -5.5 1.9 -6.5 8.9 -6.1 l5.8 0.3 5.2 7.5 c4.7 6.8 5.2 8 5.3 13.1 0 3 -0.5 6 -1.2 6.7 -0.7 0.7 -3.4 1.2 -6 1.2 -4.6 0 -4.8 0.1 -4.8 2.9 0 7.1 -7.5 8.3 -14.1 2.4z"/>
  <path d="M468.2 832.4 c-1.3 -0.8 -4.3 -5.1 -6.9 -9.5 -4.6 -7.9 -6.3 -9.7 -4.3 -4.5 0.5 1.5 1 5.2 1 8.2 l0 5.4 -5 0 -5.1 0 -10.5 -21.2 c-7.5 -15.4 -10.6 -22.7 -11 -26.4 -0.9 -6.9 0.6 -9.4 5.4 -9.4 4.5 0 5.1 0.4 8.5 5.5 l2.7 4 0 -4.7 c0 -5.4 1.5 -6.8 7.5 -6.8 4.9 0 7.1 1.3 9.6 5.8 1.1 2 1.7 2.8 1.3 1.7 -0.4 -1.1 -0.9 -5.2 -1.2 -9.2 -0.4 -6.8 -0.3 -7.2 2.2 -8.8 3.3 -2.2 10 -1.5 12.7 1.2 1 1 3.2 4.3 4.9 7.3 1.8 3 2.8 4.6 2.4 3.5 -0.4 -1.1 -1 -5.1 -1.2 -8.8 -0.4 -8 0.8 -9.6 7.3 -9.7 7.9 0 9.6 2.3 23 32.5 7.3 16.3 10 23.4 10.3 27.4 0.5 6.2 -0.2 7.1 -6.4 7.1 -6.1 0 -7.2 -1.6 -25.8 -35.2 -4 -7.3 -5.5 -8.9 -3.3 -3.5 0.8 1.7 2.7 6.1 4.2 9.7 1.5 3.6 4.3 9.6 6.1 13.4 3.6 7.1 4.5 14.1 2.2 16.4 -0.7 0.7 -3.6 1.2 -6.5 1.2 -6.8 0 -8 -1.3 -18.3 -19.9 -4.4 -8 -8 -14.3 -8 -13.9 0 0.4 3.2 7.7 7 16.4 5.5 12.3 7 16.7 7 20.4 0 3.4 -0.4 5 -1.6 5.4 -2.9 1.1 -7.9 0.6 -10.2 -1z"/>
  <path d="M548.5 808 c-1 -1.1 -4.5 -7.1 -7.6 -13.3 -6.4 -12.4 -7.5 -13.3 -2.9 -2.5 3.1 7.3 3.8 13.6 1.8 15.6 -0.7 0.7 -3.6 1.2 -6.5 1.2 -5.3 0 -5.4 -0.1 -8.4 -4.7 -1.7 -2.7 -6.7 -12.2 -11.2 -21.2 -7.6 -15.2 -8.2 -17 -8.5 -23.6 -0.3 -5.7 -0.1 -7.5 1.3 -8.8 2.2 -2.3 11.2 -2.3 13.7 0 1.7 1.5 1.8 1.4 1.8 -3.3 0 -2.8 0.5 -5.5 1.2 -6.2 0.7 -0.7 3.8 -1.2 6.9 -1.2 5.2 0 6 0.3 8.4 3.1 3.7 4.5 7.1 11.7 15.5 32.9 7.7 19.4 9.8 29.1 7 32.5 -1.9 2.3 -10.2 2 -12.5 -0.5z"/>
  <path d="M414 767.2 c0 -5.3 3.8 -8.6 18.5 -16.5 6.6 -3.5 19.2 -10.4 28 -15.3 13.9 -7.7 18.7 -9.8 37.5 -16.1 11.8 -3.9 27.4 -9.4 34.5 -12.1 7.2 -2.7 17.1 -6.2 22 -7.7 13.9 -4.1 13.2 -3 11.2 -18.7 -1 -7.3 -2.6 -16.8 -3.7 -21.2 -3.5 -13.9 -2.5 -17.6 4.7 -17.6 7.5 0.1 8.3 1.1 15.7 20.2 5.9 15.5 7.1 20.7 7.1 32.3 0 11.3 -1.3 14.7 -6.7 18.9 -3.6 2.7 -61.6 22.4 -75.8 25.7 -12.7 3 -26.8 7.5 -38.8 12.3 -15.2 6.2 -33.7 13.9 -40.5 17 -3.2 1.4 -7.5 2.6 -9.7 2.6 -4 0 -4 0 -4 -3.8z"/>
 </g>
 <g fill="#00b4f1">
  <path d="M1397.3 1755.5 c-53.7 -6.8 -94.5 -25.4 -126.9 -57.9 -23.9 -24.1 -37.6 -54.2 -43.6 -96.1 -1.9 -13.5 -1.6 -47.5 0.6 -61.4 3.7 -24.2 10.2 -44.3 22.1 -68.6 15.4 -31.5 36.1 -59.6 72 -98 37.5 -40.1 51.8 -56 65.5 -73 20.6 -25.7 35 -51.1 47 -83 11.4 -30.2 19.3 -72 22 -116.5 2.7 -43.6 7.5 -66.9 19.5 -94.3 11.7 -26.6 35.8 -54 100 -113.9 32.9 -30.8 51.6 -51.7 72.3 -80.9 22.6 -31.9 42.1 -71.6 49.6 -100.9 5.3 -20.6 6.7 -31.8 7.3 -58 0.4 -19.7 0.1 -26.8 -1.7 -44 -2.6 -25.4 -3.7 -62.5 -2.1 -72.9 1.1 -6.7 2.7 -12.3 7.4 -24.6 0.8 -2.2 2.7 -11 4.3 -19.5 3.5 -19.4 3.9 -42.3 1 -53 -2.4 -8.8 -7.5 -18.3 -14.2 -26.3 -11 -13 -20.8 -17.2 -34.6 -14.9 -11.4 2 -19.3 6.2 -27.9 14.8 l-7.3 7.3 2.2 6.3 c1.2 3.5 2.4 8.1 2.8 10.4 l0.6 4.1 -5 2.1 c-3.5 1.5 -7.1 2.2 -11.6 2.2 l-6.6 0 0 -3.4 c0 -5.9 -0.6 -6.6 -5.8 -5.9 -6.3 0.7 -8.9 -1.4 -10.5 -8.7 l-1.2 -5.5 -4.9 -0.9 -4.9 -0.9 0.6 -8.1 c0.2 -4.4 1.1 -9.3 1.7 -10.8 1.7 -3.5 4.8 -3.6 14.2 -0.6 6.5 2.1 6.9 2.1 10.3 0.5 2 -0.9 4.2 -1.7 5.1 -1.7 0.8 0 4.6 -2.9 8.3 -6.4 10.6 -10 21.5 -14.7 38.1 -16.6 11.2 -1.3 20.6 0.1 29.5 4.4 18.5 8.9 36.4 32 42.7 55.1 1.8 6.9 2.1 10.7 2.2 27 0 17 -0.3 21.1 -3.3 38.5 -3 18 -3.2 20.8 -2.8 35.5 0.7 22.2 2.6 28.7 18.7 64.1 30.6 66.9 32.9 99 11.3 153.9 -11.1 28.2 -32.1 68 -50.8 96 -5.1 7.7 -18.8 25.9 -30.4 40.4 -30.9 38.8 -39.9 52.1 -48.7 72.1 -10.7 24.5 -14.8 42.8 -14.7 67 0 34.8 7 61.7 33.8 130.5 14.3 36.6 18.5 48.9 23 66.7 5.4 22 6.7 31.8 7.2 57.4 0.8 34.2 -1.2 51.5 -12.7 109.9 -11.7 59.4 -12.5 67.9 -14 134.2 -1.4 60.8 -2.6 77.4 -7.6 101.6 -5.9 28.2 -17.3 50.7 -35.2 69.8 -10.8 11.6 -21.3 19 -38.7 27.4 -32 15.6 -48.2 19.8 -99.5 26.1 -26.7 3.2 -58.8 4 -75.7 1.9z m68.7 -26.1 c49 -5.3 68.8 -10.3 97.5 -24.6 30.6 -15.3 48.5 -38.4 57.5 -74.3 5.4 -21.4 7.5 -47 8.5 -105.5 1.1 -60.1 2.5 -74.4 13 -128.1 10.6 -54.1 12.9 -70.1 14.1 -96.7 1.2 -26.8 -3 -56.5 -11.7 -83.7 -2.2 -7.1 -10.3 -29 -17.9 -48.5 -19.2 -49.5 -26.7 -73.4 -32.2 -102.5 -2 -10.4 -2.3 -15.2 -2.2 -35.5 0 -20.6 0.3 -24.8 2.3 -34 6.6 -30.8 19.5 -58.7 40 -87 4.2 -5.8 15.9 -20.8 26.1 -33.5 22.3 -27.9 28.4 -36.3 40.8 -57 20.5 -34.3 39.5 -75.6 45.7 -99.5 3.3 -12.8 4.5 -33.7 2.5 -45.8 -2.2 -14.2 -13.8 -47.6 -21 -60.9 l-2 -3.8 0.7 10.5 c1.3 17.3 0.6 52.2 -1.2 66.4 -1.7 13.5 -6.6 34.6 -11 48 -8.8 26.8 -29.7 66.3 -50.3 95 -10.2 14.2 -29.7 37.8 -42.3 51.3 -6.8 7.3 -24.3 24.4 -38.9 38.1 -52.9 49.8 -73.3 72.7 -84 94 -11.9 23.8 -16.7 45.5 -19.5 88.7 -4.5 68.7 -16.1 116.4 -39.2 161.2 -18.1 35.1 -35.3 56.9 -97.1 122.8 -21.5 22.9 -35.4 38.8 -45.4 52.1 -16.2 21.3 -32.3 50.8 -39.8 72.9 -6.8 19.8 -9.1 33 -9.7 55.5 -0.6 21 0.4 33.7 3.9 49.9 7 32.7 21.6 56.9 46.3 76.8 24.5 19.7 51.1 31.1 87.7 37.4 24.6 4.2 41.9 4.3 78.8 0.3z"/>
  <path d="M600.5 1718.4 c-87.7 -4 -169.6 -31.2 -242 -80.5 -63.9 -43.5 -117.5 -105.8 -151.9 -176.4 -61 -125 -61.7 -269.3 -2.2 -395.8 3.1 -6.5 5.6 -12 5.6 -12.3 0 -0.2 -1.9 -1.3 -4.1 -2.5 -2.3 -1.1 -10.9 -8.7 -19.3 -16.7 -8.3 -8.1 -19.5 -18.6 -24.7 -23.4 -10.7 -9.7 -13.3 -13.9 -13.1 -21.1 0.2 -9.6 9.2 -22.6 24.1 -34.6 25.6 -20.8 34 -23.7 47.6 -16.6 8.9 4.6 16.7 10.3 30.8 22.4 6.4 5.5 12.1 10.1 12.6 10.1 0.4 0 5.2 -5 10.6 -11.1 l9.8 -11 -2.3 -4.2 c-1.3 -2.3 -6.8 -11.6 -12.3 -20.7 -25.7 -42.4 -26.4 -44.2 -21.2 -54.6 4.9 -9.7 24.7 -29.9 42 -42.8 15.2 -11.4 20.4 -11.3 32.7 0.2 7.2 6.8 24.2 26.2 37.7 43 4.1 5 7.9 9.2 8.3 9.2 0.5 0 7.3 -3.6 15.1 -7.9 14.1 -7.8 32 -16.1 35 -16.1 0.8 0 2.6 -1.9 4 -4.3 1.7 -2.9 4.2 -5.2 7.6 -7.1 2.8 -1.5 5.1 -3.1 5.1 -3.6 0 -0.5 -3.6 -11.3 -8.1 -24.2 -4.4 -12.8 -9.6 -28 -11.6 -33.7 l-3.6 -10.4 -8.3 0.7 c-4.6 0.4 -13.8 2.2 -20.3 4.1 -17.3 4.8 -20.1 5.1 -25.3 2.6 -5.5 -2.6 -6.8 -5 -11.3 -20.1 -16.1 -54.2 -16.1 -53.9 -7.4 -63.4 5.6 -6.1 18.3 -13.2 32.9 -18.4 4.7 -1.6 14.4 -5.3 21.5 -8.2 7.2 -2.9 20.7 -7.8 30 -11 9.4 -3.2 20.1 -7 23.9 -8.4 19.8 -7.5 60.2 -16.7 104.8 -23.8 l13.7 -2.2 4.8 2 c3.8 1.6 5.4 3 8 7.3 4 6.8 11.9 25.4 19 45.1 6.8 18.8 7.7 25.9 4.3 31.6 -3.1 4.9 -10.1 8 -21.5 9.3 -11.8 1.4 -18.2 3.1 -23.8 6.4 l-4.6 2.8 2 5.2 c1.2 2.8 5 13.1 8.4 22.7 3.4 9.6 9.1 24.4 12.7 32.8 l6.5 15.4 35.9 0.2 c37.8 0.3 46.7 1 77.4 6.2 96.5 16.3 190 67 256.3 138.9 99.2 107.7 141.2 251.5 115.1 394.5 -12.3 67.4 -41.3 134.2 -82.2 189.4 -77.2 104.2 -196.4 171.3 -325.2 183 -17.6 1.6 -46.4 2.5 -59.5 2z m20.5 -89.4 c0 -0.5 -0.4 -1 -1 -1 -0.5 0 -1 -0.4 -1 -1 0 -0.6 3.6 -1 8.8 -1 8.5 0 25 -1.4 30.5 -2.6 1.9 -0.4 2.7 -0.2 2.7 0.8 0.1 3.7 1.4 4 10.9 2.4 5.1 -0.8 9.9 -2 10.6 -2.6 0.8 -0.7 1.9 -0.9 2.5 -0.5 0.6 0.4 1 -0.4 1 -1.9 0 -2 0.6 -2.7 2.8 -3.2 3.4 -0.7 29.1 -7.3 31.5 -8 1.2 -0.4 1.7 0 1.7 1.5 0 1.8 0.3 1.9 2.6 1.1 1.4 -0.6 3.6 -1 5 -1 2 0 2.4 -0.5 2.4 -2.8 0 -2.7 0.6 -3.1 8.8 -6.2 19.2 -7.4 18.2 -7.1 18.2 -4.9 0 2.3 -0.2 2.3 5.6 -0.2 6 -2.5 6 -2.5 4.4 -4.4 -0.7 -0.9 -1.1 -1.7 -0.9 -1.9 0.2 -0.2 5.4 -2.9 11.4 -6 6.1 -3.1 13.9 -7.2 17.5 -9.1 6.2 -3.2 6.5 -3.3 6.8 -1.4 0.2 1.1 0.7 1.8 1 1.6 0.4 -0.2 2.2 -1 4 -1.7 3.2 -1.5 4.1 -3.7 2.1 -5.7 -0.7 -0.7 0.1 -1.7 2.8 -3.4 2.1 -1.3 8.3 -5.5 13.8 -9.4 11.5 -8.2 12.9 -8.9 14.5 -6.9 1.1 1.2 1.7 1 4.6 -1.5 1.8 -1.6 4 -3.4 5 -3.9 1.4 -0.8 1.4 -1.3 0.4 -3.2 -1.2 -2.2 -0.9 -2.7 3.1 -6.3 2.4 -2.2 9.9 -9.4 16.6 -16 9.5 -9.3 12.4 -11.6 12.9 -10.3 0.9 2.3 1.6 2 5.7 -1.9 3.3 -3.2 3.5 -3.8 2.5 -6 -1 -2.1 -0.8 -3 0.8 -4.9 8 -10 24.1 -31.9 29 -39.7 4.6 -7.4 6 -8.9 6.2 -7.1 0.5 3 1.7 2.8 4.3 -1 1.3 -1.8 2.7 -3.4 3.1 -3.6 1.4 -0.6 0.8 -3.2 -0.7 -3.2 -0.8 0 -1.5 -0.8 -1.5 -1.9 0 -2 16.8 -37.1 17.8 -37.1 0.3 0 1.3 0.7 2.3 1.6 1.6 1.4 1.8 1.3 2.9 -2 1.3 -3.9 0.7 -5.8 -1.5 -4.9 -2.2 0.8 -1.9 -0.7 3.5 -16.6 2.7 -8 6.7 -21.4 8.8 -29.7 3.4 -13.7 3.9 -15 5.5 -14 2.2 1.4 3.7 -0.6 3.7 -5.1 0 -1.8 0.1 -3.6 0.3 -4 0.1 -0.5 -0.8 -1.2 -2.1 -1.8 -1.8 -0.8 -2.2 -1.5 -1.8 -3.5 1.7 -7.6 3.7 -25.3 4.3 -38.3 0.4 -10.3 0.9 -14.5 1.7 -13.7 1.9 1.9 2.6 1 2.6 -3.7 0 -4.4 -0.1 -4.5 -1.8 -2.9 -1.8 1.6 -1.9 1.1 -2.5 -13.1 -0.4 -8.2 -1 -18.1 -1.3 -22 -0.7 -7 -0.6 -7.3 1.5 -7.3 1.9 0 2.1 -0.4 1.5 -4.2 -1 -6.2 -1.7 -7.3 -3.6 -5.5 -1.3 1.3 -1.8 -0.4 -4.8 -14.7 -4.4 -21.5 -4.6 -23.6 -2.6 -23.6 2.2 0 2 -1.9 -0.8 -10.3 -1.3 -4 -2.7 -8.5 -3 -10 -0.6 -2.5 -1 -2.8 -3.2 -2.3 -2 0.5 -2.7 0.3 -3.1 -1.3 -0.3 -1.1 -2.4 -6.7 -4.7 -12.5 -3.6 -8.9 -4.1 -10.8 -2.9 -11.8 2.2 -1.8 1.2 -5.3 -1.7 -5.6 -2.2 -0.2 -3.6 -2.4 -9.9 -14.9 l-7.4 -14.6 3.2 -2.6 c4.2 -3.5 4.2 -5.6 -0.1 -4.6 -6.4 1.4 -6.4 1.4 -13.2 -9.3 -3.6 -5.7 -6.6 -10.8 -6.6 -11.4 0 -0.6 1.1 -1.9 2.5 -3 4.8 -3.7 1.8 -6.8 -4.8 -5 l-3.3 0.9 -8.6 -11.1 c-4.8 -6.1 -10.4 -13 -12.6 -15.4 l-3.9 -4.3 2.3 -1.8 c2.8 -2.2 3 -3.4 0.8 -5.2 -1.2 -1 -2.2 -1 -4.6 -0.1 -3 1.1 -3.2 1 -13.7 -9.1 -5.8 -5.6 -13.5 -12.8 -17.1 -15.9 l-6.4 -5.7 2.3 -2.5 c1.5 -1.6 2.1 -3.1 1.7 -4.2 -0.6 -1.7 -1.5 -1.6 -7.2 0.7 -3 1.2 -3.4 1.1 -8 -2.8 -6.6 -5.4 -26.4 -19.3 -27.6 -19.3 -0.5 0 0 -1.2 1.1 -2.6 4.7 -6 0 -9.4 -5.6 -4.2 l-2.2 2 -12.3 -6.8 c-14.7 -8.1 -13.4 -7.2 -12 -8.6 1.5 -1.5 1.6 -4.5 0.1 -5.4 -0.6 -0.3 -2.4 0.7 -4 2.2 -1.9 1.8 -3.3 2.5 -3.7 1.8 -0.8 -1.2 -20.8 -10.2 -31.3 -14.1 -6.8 -2.5 -6.8 -2.5 -6.6 -6.1 0.3 -4.7 -2.7 -5.7 -5.8 -1.9 l-2 2.6 -15.5 -4.5 c-8.5 -2.5 -17.7 -4.8 -20.3 -5.1 -3.3 -0.4 -4.5 -0.9 -3.8 -1.6 1.6 -1.6 -1.9 -3.6 -6.3 -3.7 -3.3 0 -3.7 0.2 -2.6 1.5 1.1 1.3 0.8 1.5 -1.9 1.5 -1.7 0 -3.1 -0.4 -3.1 -0.9 0 -0.9 -16 -3.6 -28.2 -4.7 -5.6 -0.5 -7.8 -0.3 -7.8 0.5 0 0.6 -0.9 1.1 -1.9 1.1 -1.6 0 -2 -0.8 -2.3 -4.2 -0.3 -3.6 -0.7 -4.4 -2.6 -4.6 -1.8 -0.3 -2.6 0.3 -3.4 2.5 l-1.1 2.8 -20.1 0.1 c-21.4 0.1 -42.2 1.9 -44.5 3.7 -1 0.9 -1.6 0.7 -2.6 -0.6 -1.4 -1.9 -4.1 -1.9 -15.4 0.3 -10 1.9 -10.1 1.9 -9.5 3.5 0.5 1.1 -0.1 1.5 -2.4 1.5 -10.8 0 -72.2 20.4 -72.2 24 0 0.5 -0.7 1 -1.5 1 -0.8 0 -1.5 -0.7 -1.5 -1.6 0 -1.3 -0.7 -1.5 -3.2 -1 -4 0.8 -6 2.5 -5.4 4.5 0.4 1.2 -0.9 2.2 -5.1 4 -3.1 1.4 -10.9 5.5 -17.4 9.2 -6.7 3.9 -12.5 6.6 -13.6 6.3 -1 -0.2 -2.9 0.5 -4.3 1.6 -2.3 1.9 -2.4 2.1 -0.7 3.1 2.5 1.5 2.1 2.9 -0.9 2.9 -2.8 0 -9.1 4.2 -23.3 15.4 -5.6 4.4 -9.3 6.6 -11.1 6.6 -1.5 0 -3.5 0.9 -4.6 2.1 -1.8 2 -1.8 2.2 -0.1 3.4 2.2 1.6 2.2 2.5 -0.1 2.5 -4.7 0 -44.2 38.3 -44.2 42.9 0 1.2 -0.3 1.2 -1.2 0.3 -1.9 -1.9 -3.5 -1.4 -5.9 1.9 -2.2 3.1 -2.2 3.2 -0.4 4.6 1.9 1.3 1.9 1.4 -0.2 2.8 -2.8 2 -12.7 16.6 -24.2 35.8 -6.8 11.5 -10.1 16.1 -11.2 15.9 -1 -0.2 -2.5 1.1 -3.8 3.3 -2.5 4.3 -2.6 5.5 -0.6 5.5 0.8 0 1.5 0.5 1.5 1 0 0.6 -0.4 1 -0.9 1 -1.6 0 -15.3 31.9 -17.6 41.2 -0.4 1.5 -1.2 2.5 -1.9 2.2 -0.8 -0.3 -1.9 1.1 -2.8 3.5 -1.5 3.8 -1.5 4.1 0.3 4.6 1.9 0.6 2.7 3.5 1 3.5 -0.9 0 -7.1 24.3 -9.1 35.9 -0.6 3.6 -0.9 8 -0.5 9.9 0.5 2.8 0.2 3.7 -1.4 4.9 -2.7 1.8 -2.7 4.7 0.1 7.3 1.7 1.5 1.8 2 0.6 2 -1.1 0 -1.7 1.5 -2.2 5.8 -0.9 8.2 -1 35.7 -0.2 37.1 0.4 0.7 0 1.1 -1.2 1.1 -1.7 0 -1.9 0.5 -1.4 4.8 0.3 2.6 1.2 5.2 2 5.8 0.9 0.7 1.3 1.8 0.9 2.8 -0.9 2.3 2 29.7 3.3 31 1.7 1.7 1.2 4.6 -0.8 4.6 -1.7 0 -1.7 0.5 -0.8 5.3 0.6 3 1.8 6.1 2.7 7 0.9 0.9 2 3.7 2.4 6.3 0.9 6.1 1.4 7.4 3.1 7.4 2.2 0 1.6 3.8 -0.7 4.5 -1.9 0.6 -2 1.2 -1.4 5.3 0.4 2.6 1 5.2 1.5 5.7 0.4 0.6 1.1 2.8 1.5 5 0.9 5 2.2 7.5 3.9 7.5 0.7 0 2.3 2.8 3.6 6.3 5.4 15 10.2 26.7 11.1 26.7 1.5 0 1 3 -0.6 3.6 -1.9 0.8 -1.9 2.7 0 6.5 1.2 2.3 2 2.7 3.2 2.1 1.3 -0.8 2.6 1 7.3 10.2 3.2 6.2 6.5 11.2 7.4 11.4 2.3 0.5 2 3.9 -0.4 4.7 -1.1 0.3 -2 1 -2 1.5 0 1.6 4.4 5.1 5.7 4.6 0.8 -0.4 2.8 1.8 5.1 5.5 7 11.4 16.3 23.9 17.8 23.9 1.3 0 1.2 0.5 -0.5 2.6 -1.7 2.1 -1.8 2.9 -0.8 4.5 1.4 2.3 3.7 3.3 5 2 0.6 -0.6 3.8 2.5 8.5 8.2 4.2 5.1 12.2 13.8 17.7 19.4 8.1 8.2 9.7 10.3 8.5 11.1 -1.2 0.8 -1.2 1.4 -0.4 2.8 1.6 2.7 6.7 5.3 8.1 4.2 0.8 -0.7 3.7 1.3 9.5 6.3 14.8 12.8 39.7 30.9 42.5 30.9 1.1 0 1 0.5 -0.2 2.4 -1.5 2.3 -1.5 2.4 2.1 4.5 3.2 1.9 3.9 2 5.3 0.7 1.4 -1.2 2.5 -0.9 9.1 3.1 9.9 5.8 37.4 19.3 39.4 19.3 1.3 0 1.5 0.4 0.6 1.9 -1.4 2.8 -1.2 4.4 0.5 3.7 0.8 -0.3 1.5 -0.1 1.5 0.5 0 0.6 0.5 0.7 1 0.4 0.6 -0.4 1.7 -0.2 2.5 0.5 1 0.9 1.6 0.7 2.4 -0.7 0.9 -1.7 1.7 -1.5 13.3 2.5 6.8 2.3 13.1 4.2 14.1 4.2 1.8 0 2.3 1.5 0.7 2.5 -1.5 0.9 0.1 3.7 1.8 3 0.8 -0.3 2.1 0 2.9 0.7 1.2 1 1.8 0.8 3.2 -1.1 1.4 -1.9 2.2 -2.1 3.7 -1.3 2.7 1.4 25.9 6.7 38.5 8.8 9.4 1.6 10.5 2 10.5 3.8 -0.1 1.7 0.8 2.3 4.8 3 4.4 0.9 5 0.8 6.5 -1.2 1.6 -2.2 1.7 -2.2 17.6 -1.2 8.8 0.5 18 1 20.5 1.1 2.5 0 3.9 0.3 3.3 0.6 -2.7 1 -1.1 2.3 2.7 2.3 2.2 0 4 -0.4 4 -1z m-410 -588.5 c0 -2.3 -10.7 -13.1 -17.8 -18.1 -14.7 -10.3 -8.9 -1 9.8 15.6 4.6 4.1 8 5.1 8 2.5z m7.5 -7.5 c0.7 -1.1 -8.6 -10.1 -13.6 -13.4 -5.7 -3.6 -8.2 0.9 -3.1 5.6 7.7 7.2 15 10.6 16.7 7.8z m8.1 -10.1 c0.4 -0.7 -2.9 -4.6 -8.1 -9.6 -7.1 -6.8 -9.3 -8.3 -11.4 -8.1 -1.9 0.2 -2.7 0.9 -2.9 2.9 -0.3 2.9 0.5 3.8 10.7 10.8 7.5 5.1 10.4 6.1 11.7 4z m10.2 -12.6 c0.5 -1 0.7 -2.4 0.5 -3.1 -0.8 -2.2 -28.7 -26.5 -32.1 -27.9 -6.9 -2.9 -9.6 1.7 -4.6 7.7 2.9 3.4 25.1 20.8 29.9 23.3 3.9 2.1 5.2 2.1 6.3 0z m19.8 -19.7 c0.3 -0.8 0.2 -2.1 -0.3 -3 -1.2 -2.2 -29.2 -25.4 -34 -28.3 -4.9 -2.9 -8.7 -2.8 -9.1 0.3 -0.4 3 3.6 7.3 14.1 15.3 21.6 16.2 27.8 19.5 29.3 15.7z m43.4 -61.6 c0 -0.8 -7.3 -12.7 -11.5 -18.7 -3.2 -4.5 -8 -1.9 -5.4 2.9 2.7 5.2 13.1 16.8 15 16.8 1 0 1.9 -0.4 1.9 -1z m13.8 -9.2 c0.3 -1.8 -15.1 -22.6 -20.1 -27 -3.4 -3.1 -7.2 -3.6 -8.1 -1.3 -1 2.8 1.8 7.6 8.9 15.4 12.6 13.8 18.4 17.6 19.3 12.9z m14 -9.9 c0.3 -1.4 -17.6 -26.5 -27.4 -38.6 -3.8 -4.7 -6.8 -6.1 -8.9 -4.3 -3.7 3.1 -1.3 7.7 12.4 23.4 15.8 18.3 19.3 21.7 21.5 21.4 1.1 -0.2 2.2 -1 2.4 -1.9z m13.6 -13.4 c0.5 -1.3 -23.8 -34.5 -30.1 -41.2 -1.7 -1.8 -4 -3.3 -5.1 -3.3 -2.7 0 -4.5 2.5 -3.8 5.3 0.7 2.8 24.2 31.3 30.9 37.4 4.5 4.2 6.9 4.7 8.1 1.8z m11.4 -7.7 c2.3 -2.3 1.1 -6.3 -4.1 -13.8 -4.1 -5.9 -5.8 -7.6 -8 -7.8 -3.5 -0.4 -5.7 1.3 -5.7 4.6 0 2.7 4.8 11.2 8.8 15.5 2.7 2.9 6.9 3.6 9 1.5z m122.6 -58.4 c2.5 -1 2 -3.4 -3.3 -15.1 -2.7 -5.9 -6.6 -14.8 -8.7 -19.8 -7.4 -17.3 -10.5 -21.1 -15.4 -18.5 -1.9 1 -2.2 1.8 -1.7 5.3 1 7.5 20.2 43.8 24.9 47.1 2.6 1.9 2.2 1.8 4.2 1z m-20.7 -5.1 c-0.6 -4.8 -12.7 -34.1 -16.9 -41 -1.8 -2.9 -3.9 -5.5 -4.7 -5.8 -2.2 -0.8 -4.2 2.3 -3.5 5.4 0.3 1.4 5.2 12.2 10.9 23.9 8.8 17.9 10.8 21.2 12.6 21.2 1.9 0 2.1 -0.4 1.6 -3.7z m41.6 -5.5 c0.9 -1.3 0.3 -3.2 -2.2 -8.5 -1.9 -3.7 -5.5 -11.7 -8.1 -17.8 -11.2 -26.1 -15.4 -31.7 -21 -27.8 -4.5 3.2 -1.6 11.6 12.6 37.4 8.7 15.7 11.5 19.1 15.1 18.7 1.4 -0.2 3.1 -1.1 3.6 -2z m21.6 -0.7 c2 -1.3 1.1 -4 -9.6 -28.1 -10.5 -23.5 -13 -28.1 -16.8 -30.6 -3.7 -2.4 -7.5 -0.3 -7.5 4.1 0 5.1 1.5 8.1 20.8 42 4.7 8.3 8.8 13.5 10.6 13.5 0.6 0 1.7 -0.4 2.5 -0.9z m40.1 -13.6 c2 -2.4 0.8 -6.9 -7.1 -26.7 -11.3 -28.8 -15.4 -35.8 -20.9 -35.8 -4.1 0 -5.3 2.2 -4.8 8.2 0.4 4 3 10 11.8 27.2 6.2 12.2 12.3 23.6 13.7 25.4 2.6 3.5 5.3 4.1 7.3 1.7z m-21 -1 c1 -1.2 0.3 -3.7 -3.5 -13.2 -2.6 -6.5 -6.3 -16 -8.1 -21.1 -5.2 -14.2 -7.8 -18.2 -12 -18.2 -3.9 0 -5.7 2.8 -5.1 7.8 0.5 4.4 13.5 32 19.6 41.5 3.2 5 6.6 6.2 9.1 3.2z m-112.3 -39.1 c6.8 -3.1 25.3 -10.8 40.5 -17 12 -4.8 26.1 -9.3 38.8 -12.3 14.2 -3.3 72.2 -23 75.8 -25.7 4.9 -3.8 6.6 -7.8 6.6 -15.9 0 -8.7 -1.5 -14.9 -7 -29.3 -5.8 -15 -7.9 -18.8 -10.5 -19.5 -2.3 -0.6 -5.9 0.7 -5.9 2.2 0 0.5 0.9 4.4 1.9 8.7 2.5 9.8 6.3 37.6 5.6 39.6 -0.9 2.2 -3.3 3.2 -18.5 8.2 -7.4 2.4 -18.7 6.4 -25 8.9 -6.3 2.4 -19.5 7 -29.2 10.2 -14.8 4.8 -20.3 7.2 -33 14.2 -8.4 4.7 -21.1 11.7 -28.3 15.5 -11.7 6.2 -19.5 11.8 -19.5 14 0 1.3 1.6 0.9 7.7 -1.8z"/>
 </g>
 <g fill="#9ad4e3">
  <path d="M585.7 1629 c-6.5 -0.5 -12.1 -1 -12.3 -1.3 -1.2 -1.2 1.8 -4.8 3.4 -4.2 0.9 0.3 8.9 0.9 17.9 1.2 14.8 0.6 16.3 0.5 16.3 -1 0 -2.3 8.5 -2.4 10.6 -0.2 2.1 2 13.8 1.6 34.6 -1.1 4.7 -0.6 4.8 -0.6 4.8 2 0 1.5 -0.6 2.6 -1.3 2.6 -0.8 0 -6 0.4 -11.8 1 -18.9 1.7 -26.3 1.8 -27.7 0.3 -1.7 -1.7 -4.7 -1.7 -6.6 0.2 -1.6 1.7 -7.4 1.8 -27.9 0.5z"/>
  <path d="M543.9 1624 c-9.1 -1.8 -23.2 -4.9 -31.2 -7.1 -3.2 -0.8 -3.8 -1.4 -3.4 -3 0.3 -1.2 -0.3 -2.7 -1.6 -3.9 l-2.1 -2 3.7 0 c3 0 3.7 0.4 3.7 1.9 0 1.6 1.9 2.4 12.8 5 7 1.7 17.1 3.8 22.5 4.8 10.1 1.7 10.7 1.7 12 -2 0.1 -0.5 1.5 -0.7 3 -0.5 l2.6 0.3 -2.7 4.2 c-3.2 5 -4.2 5.2 -19.3 2.3z"/>
  <path d="M686 1621.4 c0 -0.7 -0.3 -1.9 -0.6 -2.8 -0.5 -1.2 0 -1.6 1.7 -1.6 1.3 0 8.4 -1.6 15.8 -3.5 15.6 -4.1 19.1 -4.4 19.1 -1.6 0 1.5 -2 2.4 -11.7 4.9 -20.4 5.4 -24.3 6.1 -24.3 4.6z"/>
  <path d="M496.2 1612 c-1.8 -0.4 -8 -2.4 -13.7 -4.5 -9.5 -3.4 -10.4 -3.9 -9.4 -5.6 1.4 -2.6 2.9 -2.4 15.2 2.1 6 2.2 11.7 4 12.8 4 2.4 0 2.4 1.2 0.2 3.2 -1.3 1 -2.8 1.3 -5.1 0.8z"/>
  <path d="M731.4 1606.3 c-0.7 -3.1 -1.4 -3.9 -3.6 -4.1 -1.7 -0.2 -3.3 0.5 -4.7 1.9 l-2.1 2.3 0 -4.7 0 -4.7 5 0 c4.6 0 5 0.2 5 2.4 0 3.9 4.6 4.1 14 0.4 4.4 -1.7 8 -3.5 8 -4 0 -0.4 0.7 -0.8 1.5 -0.8 0.8 0 1.5 -0.9 1.5 -2 0 -1.1 0.5 -2 1 -2 0.6 0 1 -1.1 1 -2.5 0 -2.4 0.3 -2.5 5.5 -2.5 4.2 0 5.5 0.3 5.5 1.5 0 0.8 0.2 1.5 0.5 1.5 0.9 0 14.7 -7.1 21.7 -11.1 7.2 -4.2 12.8 -5.2 12.8 -2.1 0 0.9 -1 2.2 -2.3 2.8 -11 5.5 -30.3 15.9 -30.5 16.6 -0.2 0.5 -1.3 -0.3 -2.4 -1.7 -3.7 -4.8 -9.8 -1.9 -9.8 4.7 0 1.6 -0.5 2.8 -1.2 2.8 -0.7 0 -5.7 1.8 -11.2 3.9 -15.1 5.8 -14.1 5.7 -15.2 1.4z"/>
  <path d="M461.5 1599.2 c-4.5 -1 -43.7 -21 -46.4 -23.7 -0.2 -0.3 0.4 -1.4 1.5 -2.5 1.9 -1.8 2 -1.8 7.9 1.7 7 4.2 36 18.7 39.3 19.7 1.2 0.4 2.2 1.1 2.2 1.5 0 1.7 -2.7 3.7 -4.5 3.3z"/>
  <path d="M652 1579.6 c0 -1.8 0.7 -3.9 1.5 -4.6 0.8 -0.7 1.5 -1.9 1.5 -2.6 0 -1.1 1.7 -1.4 7.1 -1.4 7.8 0 9.9 1.2 9.9 5.5 0 2.5 -0.1 2.5 -2.5 0.9 -1.3 -0.9 -4.1 -1.6 -6.2 -1.6 -3.1 0 -4.4 0.7 -6.9 3.6 -1.7 2 -3.4 3.6 -3.8 3.6 -0.3 0 -0.6 -1.5 -0.6 -3.4z"/>
  <path d="M809.8 1568.5 c-3.5 -3 -3.5 -3.5 0 -3.5 2.7 0 14.6 -7.4 24.2 -15 4.4 -3.5 5.8 -3.7 7.6 -1.2 1.6 2.1 1.7 3.2 0.3 3.2 -0.5 0 -5.6 3.3 -11.2 7.3 -9.8 7 -17 11.7 -17.8 11.7 -0.2 0 -1.6 -1.2 -3.1 -2.5z"/>
  <path d="M403.4 1568 c-7.2 -3.7 -31.2 -21.7 -43.2 -32.5 -5.3 -4.8 -5.3 -4.8 -3.4 -6.8 2 -1.9 2 -1.9 9.4 4.4 13 11.3 39.2 30.9 43 32.1 0.8 0.3 0.8 1 -0.3 2.6 l-1.5 2.1 -4 -1.9z"/>
  <path d="M413 1557.5 l0 -3.5 6 0 6 0 0 3.7 c0 2.9 -0.3 3.4 -1.2 2.5 -1.5 -1.5 -6.4 -1.6 -7.3 -0.2 -1.5 2.4 -3.5 0.9 -3.5 -2.5z"/>
  <path d="M851.3 1539.7 c-1 -2 0.3 -3.5 14.2 -17 9.3 -8.9 16.1 -14.7 17.3 -14.7 4.7 0 2.8 3.1 -8.6 14.3 -10.4 10.2 -20.8 19.7 -21.6 19.7 -0.2 0 -0.7 -1 -1.3 -2.3z"/>
  <path d="M848.2 1534.2 c-0.1 -0.7 -1.6 -1.9 -3.4 -2.6 -3.3 -1.4 -5.7 -1.1 -7 0.8 -0.4 0.6 -0.8 -0.3 -0.8 -2 0 -2.4 0.5 -3.3 2.3 -3.8 6.5 -1.7 10.1 0.4 9.4 5.6 -0.2 1.8 -0.5 2.7 -0.5 2z"/>
  <path d="M341.8 1518.3 c-5.6 -5.3 -27.7 -30 -28.5 -32.1 -0.3 -0.7 0.2 -2.1 1.2 -3.2 1.6 -1.8 1.9 -1.5 9.3 7.3 4.3 5 11.3 12.9 15.8 17.6 l8.1 8.5 3.1 -1.3 c1.8 -0.8 3.2 -1.7 3.2 -2.2 0 -0.5 1.6 -0.9 3.5 -0.9 3.1 0 3.5 0.3 3.5 2.5 0 1.9 -0.5 2.5 -2.3 2.5 -1.3 0 -4.4 1.4 -7 3 l-4.8 3 -5.1 -4.7z"/>
  <path d="M892.2 1499.2 c-1 -2.9 -0.7 -3.5 7.5 -13.9 8.8 -11.1 24.3 -33.5 24.3 -35.2 0 -0.9 2.3 -2.1 4 -2.1 0.4 0 1 0.9 1.3 2.1 0.4 1.5 -1.1 4.7 -5 10.8 -5.3 8.2 -21.9 30.7 -28.1 38 l-2.9 3.4 -1.1 -3.1z"/>
  <path d="M886.1 1487.9 c-1.9 -2.4 -3 -3 -5.3 -2.7 -2.5 0.4 -2.8 0.2 -2.8 -2.4 0 -2.6 0.3 -2.8 4 -2.8 2.7 0 4 0.4 4 1.4 0 0.7 0.9 1.6 2 1.9 1.5 0.4 2 1.4 2 4.1 0 4.3 -0.8 4.4 -3.9 0.5z"/>
  <path d="M301.2 1470.2 c-6.2 -8.6 -15.2 -22.8 -15.2 -24.2 0 -0.5 0.5 -1 1 -1 0.6 0 1.9 -0.9 3 -2 l2 -2 0 2.8 c0 2.9 14.1 25.1 18.1 28.5 1.8 1.4 1.9 2 0.9 3.2 -2.4 2.9 -4.8 1.6 -9.8 -5.3z"/>
  <path d="M926 1444.6 c0 -5.6 1.2 -8.6 3.5 -8.6 1.2 0 2.9 -0.8 3.8 -1.8 1.8 -2 15.7 -30.4 15.7 -32.1 0 -1.7 3.1 -1.3 4.5 0.5 0.9 1.3 -0.5 4.9 -7.9 20 -8.6 17.6 -9.1 18.4 -11.9 18.4 -2.3 0 -3.1 0.6 -4 3 -1.4 3.6 -3.7 4 -3.7 0.6z"/>
  <path d="M283 1438.1 c0 -0.5 -0.7 -1.1 -1.6 -1.3 -0.9 -0.2 -4.2 -5.3 -7.6 -11.8 -5.4 -10.6 -5.7 -11.6 -4.1 -12.7 0.9 -0.7 2 -1.3 2.4 -1.3 1.1 0 12.9 23.1 12.9 25.2 0 0.9 -0.4 2 -1 2.3 -0.5 0.3 -1 0.2 -1 -0.4z"/>
  <path d="M276.5 1405.8 c-0.8 -1.9 -1.8 -2.3 -6 -2.4 -2.7 -0.1 -5.5 -0.2 -6.1 -0.3 -1.2 -0.1 -4.2 -6.9 -10 -23 -4.1 -11.2 -4.2 -13.1 -1.1 -13.1 2 0 2.6 1 4.5 6.8 1.2 3.7 3.7 10.5 5.6 15.2 l3.4 8.5 4.7 0.3 c5.8 0.4 8.5 2.6 8.5 6.9 0 3.8 -2 4.4 -3.5 1.1z"/>
  <path d="M954 1393.9 c0 -1.8 2.4 -10.6 5.4 -19.8 2.9 -9.1 6.6 -21.9 8.1 -28.4 2.7 -11.3 2.9 -11.7 4.6 -10.1 1.1 1 1.9 2.5 1.9 3.5 0 6.5 -14.9 55.6 -17.3 57.1 -2.1 1.4 -2.7 0.8 -2.7 -2.3z"/>
  <path d="M289 1344.4 c0 -0.9 -1.4 -2.9 -3.1 -4.5 -2.7 -2.5 -3.9 -2.9 -8.8 -2.9 -3.1 0 -11.3 1.5 -18.3 3.3 -7.1 1.8 -12.8 3 -12.8 2.5 0 -0.4 -0.7 -0.8 -1.5 -0.8 -0.8 0 -1.7 -1 -2 -2.2 -3.3 -14.6 -3.3 -15.7 -0.1 -15.1 2 0.4 2.5 1.3 3.1 5.2 1.1 7.8 0.8 7.7 13.6 4.6 12.2 -2.9 26.8 -3.3 27.7 -0.7 0.2 0.6 1 1.2 1.8 1.2 0.8 0 1.4 0.9 1.4 2 0 1.1 0.5 2 1 2 0.6 0 1 1.6 1 3.5 0 2.4 -0.5 3.5 -1.5 3.5 -0.8 0 -1.5 -0.7 -1.5 -1.6z"/>
  <path d="M969 1324.9 c0 -1.9 0.5 -2.9 1.4 -2.9 0.8 0 1.7 -0.8 2 -1.7 1 -3.2 3.5 -26.6 4.2 -38.8 0.4 -6.6 0.8 -12.3 1.1 -12.7 0.2 -0.4 1.1 0 2.1 1 1.5 1.5 1.6 3.2 1.1 15.2 -0.7 12.6 -2.2 28.1 -3.5 35.7 -0.5 2.5 -1.5 3.6 -4.5 5.1 l-3.9 1.9 0 -2.8z"/>
  <path d="M240 1312.7 c-3 -1.5 -3.5 -3.7 -5.1 -22.5 -1 -11.3 -1 -14.5 0 -15.5 2 -1.9 4.1 2 4.1 7.6 0 7.4 2.1 24 3.2 25.5 0.6 0.6 2.1 1.2 3.4 1.2 1.9 0 2.4 0.5 2.4 2.5 0 2.1 -0.5 2.5 -2.7 2.5 -1.6 0 -3.9 -0.6 -5.3 -1.3z"/>
  <path d="M255 1312 c0 -1.1 0.5 -2 1 -2 0.6 0 1 -0.7 1 -1.5 0 -1.2 1.3 -1.5 5.5 -1.5 4.9 0 5.5 0.2 5.5 2.1 0 1.1 -0.4 1.7 -1 1.4 -0.5 -0.3 -2.7 0.3 -4.9 1.5 -5.1 2.5 -7.1 2.6 -7.1 0z"/>
  <path d="M580.4 1297.5 c-0.4 -0.8 -1.2 -1.5 -1.9 -1.5 -0.7 0 -3.2 -1.9 -5.5 -4.2 -3.4 -3.4 -4.4 -5.2 -4.8 -8.5 -0.6 -5.3 0.9 -5.6 3.8 -0.8 2.2 3.5 13.7 14.5 15.2 14.5 0.4 0 0.8 0.5 0.8 1 0 1.6 -7 1.2 -7.6 -0.5z"/>
  <path d="M598.3 1277.7 c-1.8 -1.2 -3.3 -2.5 -3.3 -2.8 0 -0.3 4.1 -0.9 9.2 -1.3 8.9 -0.7 11.7 -1.4 9.1 -2.3 -1.8 -0.6 -1.6 -6.1 0.1 -7.9 2.1 -2 3.3 -1.7 4 0.9 1.2 4.5 0.5 6.9 -3.2 10.8 -4.8 5.2 -10.8 6.2 -15.9 2.6z"/>
  <path d="M245.9 1265.7 c-11.3 -1.9 -11.7 -2 -12.2 -4.6 -0.4 -1.9 0.7 -40.4 1.3 -44.8 0.1 -0.8 1.8 0 4 1.6 2 1.6 2.2 2.2 1.1 3.5 -0.9 1.1 -1.3 6.5 -1.4 19.8 l-0.2 18.2 11.8 2 c11.1 1.8 11.7 2 11.7 4.2 0 2.9 -0.1 2.9 -16.1 0.1z"/>
  <path d="M976.1 1246.3 c-0.6 -9.8 -1.4 -19.9 -1.8 -22.5 l-0.6 -4.7 2.6 1.2 c2.3 1.1 2.7 2 3.3 8.7 0.5 4.1 0.8 13.6 0.9 21 0 11.4 -0.2 13.5 -1.6 13.8 -1.3 0.2 -1.7 -2.3 -2.8 -17.5z"/>
  <path d="M632.2 1242.4 l-2.4 -3.6 3.3 -3.4 c1.8 -1.9 3.4 -3.2 3.7 -3 0.6 0.7 -1 13.6 -1.7 13.6 -0.3 0 -1.7 -1.6 -2.9 -3.6z"/>
  <path d="M569 1238.6 l0 -5.4 4 -0.7 c2.5 -0.4 4 -1.2 4 -2.1 0 -0.8 0.5 -1.4 1 -1.4 0.6 0 1 -0.6 1 -1.3 0 -2.3 6.9 -3.8 19.8 -4.4 8.7 -0.4 12.2 -0.3 12.2 0.6 0 0.6 0.9 1.1 2.1 1.1 1.5 0 1.9 0.4 1.5 1.6 -0.3 0.9 -0.6 1.7 -0.6 1.8 0 0.1 -3.9 0 -8.6 -0.2 -16.3 -0.9 -28.2 3.8 -33 13.1 -2.2 4.2 -3.4 3.2 -3.4 -2.7z"/>
  <path d="M972.6 1211.9 c-0.2 -1.3 -1 -5.3 -1.6 -8.9 -0.6 -3.6 -2.3 -11.4 -3.7 -17.4 -2.1 -9 -2.3 -11 -1.2 -11.7 0.8 -0.5 1.9 -0.9 2.5 -0.9 1.1 0 4.1 11.7 7 27.7 1.6 9 1.6 9.2 -0.4 11.4 l-2.1 2.2 -0.5 -2.4z"/>
  <path d="M237.2 1209.4 c-1.1 -1.2 -1.1 -3.3 0.2 -12.3 2 -13.6 8.3 -39.3 9.8 -40.2 0.7 -0.4 2 -0.3 3 0.2 1.9 1 2.4 3.5 0.9 4.1 -0.9 0.3 -7.5 27.1 -8.6 34.8 -0.4 2.5 -0.9 5.3 -1.1 6.3 -0.4 1.4 0.1 1.7 3 1.7 4.3 0 6.6 0.8 6.6 2.5 0 1.6 -2.2 2.5 -6.1 2.5 -1.7 0 -3.8 0.4 -4.7 0.9 -1.2 0.6 -2.1 0.4 -3 -0.5z"/>
  <path d="M930.3 1182.8 c-2.7 -1.3 -3.3 -3.5 -3.3 -13.5 0 -8.2 0 -8.3 2.5 -8.3 1.8 0 2.5 -0.5 2.5 -1.9 0 -1.4 1 -2 4.6 -2.5 10.2 -1.4 11 -0.2 3 4.2 -6.3 3.6 -9.6 7.4 -9.6 11.2 0 3.9 3.3 7.7 7.5 8.4 2.1 0.4 3.5 1.3 3.5 2.1 0 1.8 -7.2 2 -10.7 0.3z"/>
  <path d="M948 1153.6 c0 -1.6 0.7 -2.7 2 -3.1 1.1 -0.3 2 -1.1 2 -1.7 0 -0.6 0.8 -1.6 1.7 -2.3 1.6 -1.2 1.4 -1.9 -1.7 -10 -3.3 -8.6 -3.4 -11.2 -0.3 -12.2 0.6 -0.2 3 4.5 5.2 10.4 2.3 5.9 4.6 11.6 5.2 12.6 0.6 1.1 0.9 2 0.7 2.1 -0.6 0.5 -14 6.6 -14.4 6.6 -0.2 0 -0.4 -1.1 -0.4 -2.4z"/>
  <path d="M254.2 1149.7 c-4 -2 -4.3 -2.5 -3.9 -5.2 0.7 -4.3 7.2 -21.3 12.5 -32.8 4 -8.6 4.7 -9.7 6.6 -9.1 1.2 0.4 2.3 0.8 2.5 1 0.2 0.2 -1.4 4.3 -3.7 9.1 -2.3 4.9 -6.1 14 -8.6 20.3 l-4.5 11.5 2.9 1.4 c2.1 1 3 2.2 3 3.8 0 2.8 -1.2 2.8 -6.8 0z"/>
  <path d="M934.6 1123.3 c-0.3 -0.3 -0.6 -2.1 -0.6 -3.9 0 -3 0.3 -3.3 4 -3.9 2.2 -0.4 4 -1.1 4 -1.7 0 -0.5 -2.5 -5.8 -5.5 -11.7 -3 -5.9 -5.5 -11.2 -5.5 -11.7 0 -0.5 0.9 -1.5 1.9 -2.1 1.8 -1.2 2.5 -0.2 9 12.7 3.9 7.6 7.1 14.7 7.1 15.8 0 1.6 -0.9 2.1 -4.4 2.6 -2.5 0.4 -5.6 1.6 -6.9 2.6 -1.3 1.1 -2.7 1.6 -3.1 1.3z"/>
  <path d="M277.2 1094.8 c-3.5 -0.7 -4.2 -1.3 -3.7 -2.6 1.2 -3.3 21.7 -36.9 27.3 -44.7 3.1 -4.4 6.4 -8.1 7.2 -8.3 0.9 -0.1 2.4 0.4 3.5 1.3 1.8 1.4 1.9 1.6 0.3 2.5 -0.9 0.6 -4.1 4.5 -7.1 8.8 -5.6 8 -23.7 37.4 -23.7 38.6 0 0.3 1.1 0.6 2.5 0.6 2 0 2.5 0.5 2.5 2.5 0 2.8 -1.3 3 -8.8 1.3z"/>
  <path d="M289 1093.5 c0 -2.3 0.4 -2.5 4.4 -2.5 2.5 0 4.8 0.5 5.2 1.2 1 1.6 -2.5 3.8 -6.3 3.8 -2.9 0 -3.3 -0.3 -3.3 -2.5z"/>
  <path d="M919.7 1088.3 c-0.4 -0.3 -0.7 -2.1 -0.7 -4 0 -2.9 0.3 -3.3 2.5 -3.3 1.4 0 2.5 -0.3 2.5 -0.7 0 -0.5 -2.3 -4.3 -5 -8.6 -5.5 -8.5 -5.9 -10.1 -3.2 -11.6 1.6 -0.8 2.8 0.5 8.7 10 3.8 6 7.2 10.9 7.7 10.9 0.4 0 0.8 0.4 0.8 0.9 0 0.5 -2.1 1.6 -4.7 2.5 -2.5 0.9 -5.4 2.3 -6.3 3.1 -0.9 0.8 -2 1.2 -2.3 0.8z"/>
  <path d="M906.7 1054.1 c-0.7 -2.4 -21.6 -28.1 -22.9 -28.1 -0.6 0 -0.3 -0.9 0.7 -2 1 -1.1 2.4 -2 3 -2 1.2 0 11.6 12.2 21.7 25.5 l4.6 6.1 -3.3 1 c-2.8 0.9 -3.4 0.8 -3.8 -0.5z"/>
  <path d="M791 1050 c0 -0.5 -0.9 -1 -2 -1 -1.1 0 -2 -0.7 -2 -1.5 0 -0.8 -0.4 -1.5 -1 -1.5 -0.5 0 -1 -1.6 -1 -3.5 0 -1.9 0.3 -3.5 0.6 -3.5 0.4 0 2.1 1.6 3.8 3.6 2.7 3.1 3.9 3.7 8.2 4.1 4.8 0.5 5.3 0.3 8.8 -3.1 2 -2 3.6 -4.3 3.6 -5.1 0 -0.8 0.7 -1.5 1.5 -1.5 1 0 1.5 1 1.5 3.1 0 3.8 -1.6 6.9 -3.5 6.9 -0.8 0 -1.5 0.5 -1.5 1 0 0.6 -1.1 1 -2.5 1 -1.4 0 -2.5 0.5 -2.5 1 0 0.6 -2.7 1 -6 1 -3.3 0 -6 -0.4 -6 -1z"/>
  <path d="M316.2 1032.8 c-0.7 -0.7 -1.2 -1.9 -1.2 -2.8 0 -2.6 22.2 -26.3 32.8 -35 9.7 -8.1 13.6 -9.7 14.9 -6.3 0.4 1 0.1 1.9 -0.6 2.1 -4.7 1.6 -32.3 28.4 -41.7 40.5 -2.5 3.1 -2.6 3.1 -4.2 1.5z"/>
  <path d="M779 1022.5 c0 -1.9 0.5 -3.5 1 -3.5 0.6 0 1 -0.9 1 -2 0 -2.4 2.5 -2.7 3.4 -0.4 0.3 0.9 0.6 3.3 0.6 5.5 0 3.7 -0.2 3.9 -3 3.9 -2.8 0 -3 -0.3 -3 -3.5z"/>
  <path d="M868 1009 c-5.2 -5.3 -12.6 -12.4 -16.5 -15.8 -6.9 -6.2 -7 -6.2 -5 -8.2 2 -1.9 2 -1.9 9.5 4.6 8.6 7.6 27 25.4 27 26.2 0 0.8 -3.4 3.1 -4.5 3 -0.5 -0.1 -5.3 -4.5 -10.5 -9.8z"/>
  <path d="M780.1 1007 c1.3 -2.2 2.6 -4 3.1 -4 0.4 0 0.8 1.8 0.8 4 0 3.8 -0.2 4 -3.1 4 l-3 0 2.2 -4z"/>
  <path d="M715 1001.1 c0 -1.3 -0.9 -2 -3 -2.4 -2.5 -0.6 -3 -1.1 -3 -3.6 0 -6.7 2.8 -8.2 4.9 -2.6 0.7 1.9 2.8 4.8 4.7 6.3 1.9 1.5 3.4 3 3.4 3.5 0 0.4 -1.6 0.7 -3.5 0.7 -2.8 0 -3.5 -0.4 -3.5 -1.9z"/>
  <path d="M751.2 993.8 c0.5 -1.3 9.8 -5.3 9.8 -4.2 0 0.2 -0.7 1.6 -1.6 2.9 -1.2 1.9 -2.5 2.5 -5.1 2.5 -2.3 0 -3.3 -0.4 -3.1 -1.2z"/>
  <path d="M711.6 983.8 c-1.2 -4.7 -0.7 -8 1.4 -8.5 1.1 -0.3 2 -0.9 2 -1.3 0 -1 8 -4 10.8 -4 1.2 0 2.2 -0.4 2.2 -1 0 -0.5 1.8 -1.3 4 -1.6 2.2 -0.4 4 -1 4 -1.5 0 -0.4 1.7 -1.1 3.7 -1.5 2.1 -0.4 4.3 -1.3 5 -2 0.7 -0.7 3.2 -1.5 5.5 -1.9 2.4 -0.4 4.5 -1.1 4.8 -1.5 0.3 -0.4 5.6 -2.4 11.7 -4.4 8.8 -2.8 12.7 -3.6 17.8 -3.4 3.5 0.1 6.7 -0.1 7.1 -0.4 0.3 -0.4 -3.5 -2.8 -8.5 -5.5 -8.8 -4.8 -9 -5 -7.5 -7.1 1.8 -2.6 1 -2.8 17.7 6.6 6.9 3.8 9.5 5.8 8.8 6.5 -1.5 1.5 -1.4 5.4 0.2 6.4 1.9 1.2 3.7 6 3.7 9.6 l-0.1 3.2 -2.9 -3.5 c-1.7 -1.9 -3 -4 -3 -4.7 0 -0.7 -1.8 -2.5 -4.1 -4 -7.6 -5 -15.1 -3.3 -59.5 13.5 -16.7 6.4 -18.9 7.5 -21.1 11.2 -2.1 3.6 -2.9 3.7 -3.7 0.8z"/>
  <path d="M832.5 977.7 c-3.3 -2.6 -10.8 -8.1 -16.7 -12.1 -10.2 -6.9 -10.7 -7.4 -9 -9 1 -0.9 2.3 -1.6 2.9 -1.6 0.6 0 5.9 3.4 11.9 7.7 9.2 6.4 13 9.3 21.6 16.2 0.4 0.4 -0.5 1.3 -2 2.2 -2.6 1.5 -2.8 1.4 -8.7 -3.4z"/>
  <path d="M367 980.3 c0 -1.1 4.6 -5.3 11.1 -10.3 16.1 -12.4 19.2 -14.2 22.3 -13.4 2.5 0.6 3.7 3.4 1.5 3.4 -1.3 0 -12.5 7.9 -22.6 16.2 -7.5 6 -12.3 7.6 -12.3 4.1z"/>
  <path d="M407.8 952.9 c-1 -1 -1.8 -2.1 -1.8 -2.4 0 -0.7 16.4 -10.2 26.3 -15.1 l9.1 -4.6 1.8 2.2 1.8 2.2 -6.2 3 c-9.3 4.4 -27.8 15 -27.8 16 0 1.3 -1.4 0.8 -3.2 -1.3z"/>
  <path d="M760.5 934 c-14.5 -7 -26.8 -11.6 -27.2 -10.2 -0.3 0.6 -2 1.2 -3.9 1.2 l-3.4 0 2 -2 c1.1 -1.1 2 -2.8 2 -3.8 0 -1 0.3 -2.1 0.6 -2.5 1.2 -1.2 39 14.3 40.6 16.6 0.6 1 -1.2 4.8 -2.2 4.6 -0.3 0 -4.1 -1.8 -8.5 -3.9z"/>
  <path d="M452 928.5 c0 -2.2 1 -3 6.8 -5.6 10.1 -4.6 36.9 -13.4 52.7 -17.4 15.9 -4 17.1 -4.1 17.9 -1.9 1.3 3.4 0.7 4.3 -3.2 4.2 -9.1 -0.1 -65 17.8 -69.6 22.3 -2 1.9 -4.6 1 -4.6 -1.6z"/>
  <path d="M719.8 918.2 c-0.3 -0.9 -23.2 -7.6 -32.4 -9.5 l-6.2 -1.2 1.9 -2.4 c1.8 -2.2 2.1 -2.2 7.1 -1.1 7 1.7 33.2 9.1 33.7 9.6 0.2 0.2 -0.1 1.5 -0.7 2.9 -1.1 2.5 -2.7 3.3 -3.4 1.7z"/>
  <path d="M556 914.6 c0 -1.8 -0.3 -4.8 -0.6 -6.5 -0.6 -2.6 -0.4 -3.1 1.4 -3.1 2.1 0 3.2 3.3 3.2 9.6 0 2.7 -0.4 3.4 -2 3.4 -1.6 0 -2 -0.7 -2 -3.4z"/>
  <path d="M660.5 903.4 c-3.8 -0.7 -12.5 -1.8 -19.3 -2.5 -11.6 -1.2 -12.2 -1.4 -11.6 -3.3 0.4 -1.2 0.8 -2.2 0.9 -2.4 0.3 -0.4 18.7 1.7 30.5 3.4 8.9 1.3 10.8 1.9 12.3 4 l1.8 2.4 -3.8 -0.1 c-2.1 -0.1 -6.9 -0.8 -10.8 -1.5z"/>
  <path d="M554.6 901.4 c-0.4 -1.5 -0.3 -3 0.1 -3.5 2.1 -2 51.2 -4.8 61.6 -3.5 l5.7 0.7 0 4 c0 3.2 -0.3 3.9 -2 3.9 -1.1 0 -2 -0.7 -2 -1.5 0 -2.5 -4.5 -2.8 -26.9 -2.1 -23.5 0.7 -32.3 1.7 -32.9 3.4 -0.7 2.2 -3 1.2 -3.6 -1.4z"/>
  <path d="M1348.5 892 c-52 -5.3 -101 -25.2 -141.5 -57.6 -10.9 -8.8 -29.6 -27.5 -38.4 -38.4 -36.3 -45.5 -56.3 -98.6 -58.3 -154.7 -0.6 -16.9 -0.5 -17.3 1.4 -17.3 1.2 0 2.3 0.7 2.7 1.5 0.3 0.8 1.5 1.5 2.6 1.5 3.1 0 7 4.4 7 7.9 0 7.5 13.5 37.1 22 48.4 6.1 8 15.7 16.7 27.7 25.3 10.1 7.2 34.7 20.2 44.3 23.3 6.2 2.1 27.2 7.1 27.7 6.6 0.2 -0.1 -2.7 -4.6 -6.3 -10 -8.7 -13 -14.7 -25.3 -19.4 -39.4 -7.6 -22.7 -10.2 -44.8 -8.2 -68.4 1.5 -17.3 3.2 -25.7 8.2 -40.8 14.3 -43.2 45.1 -76.3 88.2 -95 l10.8 -4.6 -16.3 -8.8 c-36.5 -19.8 -43.9 -27.2 -42.4 -42.5 1.5 -16 27.1 -78.7 37.5 -91.8 l1.8 -2.3 9.9 4.2 c5.5 2.3 10.1 4.3 10.3 4.4 0.2 0.1 -2.9 5.1 -6.8 11.1 -3.9 6 -10.2 17 -13.9 24.4 -3.7 7.4 -10.4 20.6 -14.9 29.3 -8.7 16.8 -10 21.6 -6.4 25.1 2.5 2.5 16.2 11 20.2 12.6 1.9 0.7 4 1.7 4.5 2 0.6 0.4 4.8 2.8 9.5 5.2 4.7 2.5 11.1 6.1 14.4 8.1 3.2 2 8.2 4.4 11 5.3 2.8 0.9 9 3.4 13.8 5.6 14.8 6.7 18 6.3 23.3 -2.9 1.6 -2.6 4.5 -6.8 6.5 -9.3 4.6 -5.6 23.7 -34.1 32.2 -48 20.1 -32.8 23 -37.1 24.6 -36.6 19.4 5.4 25.9 8.2 22.5 9.8 -0.5 0.2 -2.6 3 -4.7 6.3 -2.2 3.3 -6.7 9.6 -10.1 14 -3.4 4.4 -10.5 14.4 -15.8 22.2 -5.3 7.9 -15.2 21.3 -22.1 29.8 -6.9 8.6 -12.6 15.8 -12.6 16 0 0.3 1.2 0.5 2.6 0.5 4.7 0 22.6 4.1 33.4 7.5 17.5 5.7 32.1 14 47.2 27 4.9 4.1 7.3 5.5 9.7 5.5 7.1 0 13.5 5.2 24.1 19.5 15.6 21.1 25.3 44.9 30.6 75.5 1.4 8 2.7 14.6 2.9 14.8 0.5 0.6 10.4 -17 15.9 -28.3 9.4 -19.1 14.7 -37 18.1 -60.4 2.5 -16.7 1.8 -23.5 -3.3 -35.3 -5.1 -12 -5.8 -20.2 -1.9 -25.9 3 -4.5 6.6 -5 8.9 -1.2 1 1.5 2.6 3.9 3.7 5.2 l1.9 2.5 5.1 -3.3 c10.4 -6.7 16.7 -17 17.8 -29.4 l0.6 -5.7 5.1 0 c3.3 0 7 -0.9 10.4 -2.5 6.7 -3.1 7.2 -3.1 7.2 0 0 1.7 -0.8 2.9 -2.4 3.6 -2.2 1 -2.3 1.8 -2.9 12.2 -1.3 21.9 -4.6 27.6 -24.7 42.8 l-3.5 2.7 4.2 7.8 c12.7 24 22 52.8 26.9 83.1 2.1 13.5 3 49 1.4 63.9 -4.4 43.1 -18.8 83.9 -42 118.7 -11.7 17.6 -20.1 27.9 -34 41.7 -40.6 40.6 -90.2 65.5 -149 74.5 -12.4 1.9 -47.5 2.8 -60.5 1.5z"/>
  <path d="M1147.4 494.4 c1.1 -1.6 3.1 -4.6 4.4 -6.7 1.4 -2 2.3 -3.9 2.1 -4.1 -0.8 -0.7 -17.3 -8.8 -39.8 -19.6 -73.6 -35.1 -154.2 -73.9 -234.6 -113 -9.9 -4.8 -19 -9.8 -20.3 -11.2 -4.7 -5.2 -3.3 -17.8 2 -17.8 4 0.1 14.3 4.3 52.8 22 20.6 9.5 53.5 24.2 73 32.7 51.7 22.6 76 33.7 107.5 49.3 15.4 7.6 36.4 17.9 46.7 22.9 18 8.7 18.7 9.2 21.4 13.7 2.5 4.3 2.8 5.8 2.8 13.4 0 13.6 -4.2 19.5 -14.7 20.7 l-5.1 0.6 1.8 -2.9z"/>
  <path d="M1584.1 412.8 c0.1 -10.1 1.7 -14.2 5.7 -14.6 l3.1 -0.3 -2.1 4.2 c-1.7 3.5 -2.4 8.2 -2.8 17.2 0 0.4 -0.9 0.7 -2 0.7 -1.8 0 -2 -0.6 -1.9 -7.2z"/>
 </g>
 <g fill="#abecfd">
  <path d="M593.6 1627.8 c-10.3 -0.4 -19.1 -0.9 -19.4 -1.2 -0.2 -0.3 0.2 -2 1.1 -3.8 1.8 -3.6 0.9 -6.3 -2.2 -7.3 -3.3 -1 -7.6 1.8 -11 7.3 -1.6 2.7 -13.8 1.2 -39.3 -4.9 -10.8 -2.6 -12.8 -3.4 -12.8 -5 0 -2.8 -3.7 -4.4 -6.9 -2.8 -1.4 0.7 -3.7 1.1 -5 1 -2.1 -0.3 -24 -7.8 -25 -8.7 -0.1 -0.1 0.4 -1.3 1.3 -2.6 2.4 -3.4 2 -6.6 -0.9 -8 -2.2 -1 -2.9 -0.8 -5 1.2 -1.4 1.3 -2.7 3.1 -3 4.1 -0.5 1.6 -1 1.7 -4.3 0.5 -8.2 -2.9 -45.2 -22.2 -45.2 -23.6 0 -0.3 2 -2.6 4.5 -5 5 -4.9 5.4 -6.4 2.6 -9.7 -1.8 -2.2 -7.9 -3.4 -6.6 -1.3 0.3 0.5 -1.5 3 -4 5.6 -2.5 2.6 -4.5 5.1 -4.5 5.6 0 0.5 -0.6 0.4 -1.2 -0.2 -0.7 -0.5 -6.2 -4.4 -12.3 -8.6 -11.4 -7.9 -32.3 -24.4 -36.3 -28.7 l-2.3 -2.5 3.6 -2.8 c4.2 -3.2 4.6 -7.2 0.8 -8.9 -1.3 -0.5 -2.3 -1.4 -2.3 -2 0 -0.6 -0.3 -0.6 -0.8 0 -1.4 2.1 -7.7 5 -9.9 4.7 -3.2 -0.5 -33.3 -33 -33.3 -36 0 -0.6 1.8 -2.5 4 -4.2 4.5 -3.5 5.2 -6.6 1.8 -7.9 -2.5 -0.9 -6.5 0.6 -8.7 3.3 -2.2 2.7 -4.6 0.3 -14.7 -15 -9.6 -14.4 -9.7 -14.5 -7.6 -16 1.2 -0.8 2.2 -2.1 2.2 -2.9 0 -1.8 -3.5 -3.7 -5.8 -3.3 -0.9 0.2 -2.4 -0.6 -3.3 -1.7 -2 -2.4 -11.9 -22 -11.9 -23.5 0 -0.5 1.6 -1.6 3.5 -2.4 6.1 -2.6 3.9 -8.8 -3.3 -9.4 -2 -0.1 -3.2 0.3 -3.2 1 0 0.7 -0.8 0.4 -1.9 -0.7 -2.4 -2.6 -14.1 -33.1 -13 -33.9 0.5 -0.3 21.2 -8.1 28.4 -10.7 6.1 -2.2 8.5 -5 8.5 -9.9 0 -4.4 -2 -8.8 -3.8 -8.2 -0.6 0.2 -1.2 -0.3 -1.2 -1.2 0 -1 -0.6 -1.3 -1.5 -1 -0.9 0.4 -1.5 0 -1.5 -0.7 0 -1 -0.2 -1.1 -0.8 -0.2 -0.8 1.2 -6.2 1.3 -6.2 0.1 0 -0.5 -0.7 -0.8 -1.5 -0.8 -0.8 0 -1.5 0.5 -1.5 1 0 0.6 -1.1 0.8 -2.5 0.4 -2 -0.5 -2.5 -0.2 -2.6 1.2 0 1.1 -0.3 1.4 -0.6 0.7 -0.7 -1.9 -3.3 -1.6 -3.4 0.5 0 1 -0.3 1.2 -0.6 0.5 -0.5 -1.5 -3.3 -1.8 -3.3 -0.4 0 0.5 -0.9 0.7 -2 0.4 -1.2 -0.3 -2 0 -2 0.6 0 0.7 -0.4 1 -1 0.6 -1.6 -1 -6 0.7 -6 2.3 0 1.3 -0.3 1.2 -1.5 -0.5 -1.6 -2.3 -4.7 -15.2 -3.9 -16.5 0.3 -0.4 2.9 -0.8 5.8 -0.8 7.1 0 14.3 -2.3 18.9 -6 5.8 -4.9 4.5 -8.6 -3 -8.8 -2.3 0 -3 0.3 -2.7 1.3 0.4 0.9 -0.9 1.6 -4.3 2.3 -5.1 1.1 -11.3 0.6 -11.3 -0.9 0 -0.5 -1 -0.7 -2.3 -0.4 -4 1 -5.1 -3.6 -7.2 -30.8 -0.6 -7.7 -0.6 -7.8 1.7 -7.3 1.3 0.3 7.1 0.8 13.1 1.1 12.7 0.8 17.7 -0.4 17.7 -4 0 -2.3 -2.2 -3.5 -6.7 -3.5 -1.3 0 -2.3 -0.4 -2.3 -0.9 0 -0.4 -1.1 -0.6 -2.5 -0.3 -1.4 0.2 -2.5 0 -2.5 -0.5 0 -0.5 -1.4 -0.8 -3 -0.5 -1.7 0.2 -3 0 -3 -0.5 0 -0.5 -1.3 -0.8 -3 -0.5 -1.6 0.2 -3 0 -3 -0.5 0 -0.6 -1.2 -0.8 -2.6 -0.5 -1.6 0.3 -3 -0.1 -3.5 -0.9 -1 -1.6 -1 -27.9 0 -37.9 0.6 -6.2 0.7 -6.5 3.1 -6.4 4.3 0.3 27.1 -3.5 28.6 -4.7 0.8 -0.6 1.4 -1.7 1.4 -2.5 0 -2.6 -4.1 -3.6 -13.6 -3.2 -5.2 0.1 -9.4 0 -9.4 -0.4 0 -1.5 -3.8 -0.8 -4.4 0.8 -0.5 1.4 -0.8 1.4 -2.1 0 -0.8 -0.8 -1.5 -2.7 -1.5 -4.3 0 -7.2 8.4 -45.4 10.2 -46.1 0.4 -0.2 0.6 -0.7 0.3 -1.2 -0.3 -0.4 4 1 9.5 3.1 5.6 2.2 11.3 3.9 12.8 3.9 6.3 0 8.7 -6.2 2.7 -6.8 -3.2 -0.3 -14.2 -4.9 -16.3 -6.9 -0.6 -0.6 -2.1 -1.4 -3.1 -1.8 -1.1 -0.3 -2.2 -1.2 -2.5 -2 -0.8 -2.1 5.7 -19.7 13.1 -35.8 l3.7 -7.8 6.5 0.8 c9.3 1 18.5 0.6 22.9 -1.2 4.7 -2 8.2 -5.3 8.2 -7.8 0 -1.7 -0.5 -1.8 -3.7 -1.2 -2.1 0.3 -5.3 0.6 -7.1 0.6 -1.7 0 -3.2 0.5 -3.2 1 0 0.5 -2 0.9 -4.5 0.9 -2.5 0 -4.5 -0.4 -4.5 -0.9 0 -0.4 -1.1 -0.6 -2.5 -0.3 -1.4 0.2 -2.5 0 -2.5 -0.7 0 -0.5 -0.7 -0.8 -1.5 -0.5 -2.9 1.1 -1.4 -2 9.1 -19.5 12 -19.8 21 -33 23 -33.8 0.8 -0.3 3.7 0.7 6.6 2.1 2.8 1.4 6.3 2.6 7.5 2.6 3.1 0 7.9 -2.5 8.6 -4.4 1 -2.5 -2 -4.6 -5.3 -4 -3.5 0.7 -10 -2.9 -10 -5.5 0 -2.4 22 -26.2 32.1 -34.7 10.4 -8.7 12.3 -9.8 14.8 -8.4 3 1.5 8.7 1.2 10.6 -0.6 2.2 -2.2 1.5 -3.7 -2.3 -4.9 -1.8 -0.5 -3.2 -1.3 -3.2 -1.8 0 -1.1 4 -4.4 17.9 -15 l11.6 -8.7 5.5 0.2 5.5 0.3 -0.2 -3.6 c-0.2 -3.6 -0.2 -3.6 10.5 -9.7 21.5 -12.1 24.1 -13 26 -8.8 1.6 3.5 5.7 6 8.6 5.2 3.6 -0.9 4 -3.4 1.1 -6.8 -1.4 -1.7 -2.5 -3.8 -2.3 -4.7 1 -5.6 72.8 -28.5 76.8 -24.5 0.6 0.6 1.7 4.7 2.5 9.3 2 11.5 6.5 17.1 13.8 17.1 4.5 0 7.4 -3.2 9.8 -11 1.5 -5 1.7 -7 0.9 -9.9 -0.5 -2 -1 -5.3 -1 -7.3 0 -4.5 -0.2 -4.4 16 -5.8 13.4 -1.1 47 -1.3 48.6 -0.2 0.6 0.4 1.5 2 2.1 3.6 1.2 3.9 3.6 5.4 5.7 3.7 0.9 -0.8 1.6 -2.4 1.6 -3.8 0 -1.3 0.8 -2.7 1.7 -3 1.9 -0.8 22.2 1.2 33.6 3.2 5.5 0.9 8.6 2.1 10.8 3.9 3.4 2.9 5.5 3.2 8.2 1.2 1.6 -1.2 3.5 -0.9 14.5 2 27.2 7.2 25.4 6.4 24.7 10 -0.7 4.2 0.3 6.4 3 6.4 2.6 0 4.5 -2 4.8 -4.8 0.1 -1.9 0.3 -1.9 6.5 0.4 8.2 3.1 16.7 6.7 26.5 11.2 6.1 2.7 7.6 3.9 7.1 5.1 -0.4 0.9 -0.9 2.8 -1.2 4.4 -0.6 4 3.2 3.8 5.3 -0.3 1.8 -3.5 0.7 -3.9 17.6 5.6 9.1 5.2 9.5 5.5 9.1 8.4 -0.5 3.6 1.8 4.9 5.3 3 2 -1.1 3 -0.7 10.1 4.1 9.4 6.2 18.8 13.3 22.6 16.7 2.7 2.5 2.7 2.6 0.7 4 -1.3 0.9 -1.9 2.3 -1.7 4 0.4 3.7 3.4 4 6.7 0.8 l2.7 -2.6 12.5 11.3 c13 11.9 20.9 20 20.9 21.6 0 0.5 -1.2 1.6 -2.6 2.5 -1.8 1.3 -2.4 2.4 -2.2 4.4 0.4 3.5 3.2 4 6.9 1.3 1.5 -1.2 3.3 -2.1 3.8 -2.1 1.7 0 23.1 27.4 23.1 29.5 0 1.2 -1.3 2.7 -3.1 3.7 -2.4 1.4 -3 2.3 -2.7 4.5 0.4 3.7 4.6 4.3 8.9 1.2 2.6 -1.8 3.3 -2 4 -0.8 13.4 21.1 14 22.3 11.8 23.1 -1.1 0.4 -3.2 0.5 -4.6 0.2 -1.9 -0.5 -2.4 -0.4 -1.9 0.5 0.4 0.7 0.2 1.8 -0.4 2.6 -1.7 2 -0.3 5.5 2.2 5.5 1.1 0 3.2 -0.8 4.6 -1.8 1.5 -1 3.2 -2.2 3.9 -2.6 0.8 -0.4 3.6 4.1 8.3 13.6 5.8 11.4 6.9 14.4 5.6 14.6 -0.9 0.2 -1.6 0.7 -1.6 1.2 0 0.4 -0.9 0.6 -2 0.3 -1.1 -0.3 -2 -0.1 -2 0.5 0 0.6 -1 0.8 -2.2 0.4 -1.5 -0.3 -1.9 -0.2 -1.4 0.7 0.4 0.6 0.2 1.8 -0.4 2.6 -1.7 2 -0.4 6.2 2 6.8 1.2 0.3 4.3 -0.6 7.3 -2.1 l5.3 -2.7 4.3 11.4 c4.2 10.9 4.3 11.5 2.5 12.8 -1 0.7 -2.2 1.3 -2.7 1.3 -0.5 0 -0.7 0.6 -0.5 1.2 0.6 1.7 -15.7 9.8 -18.2 9.1 -1.3 -0.3 -1.8 0 -1.7 1.4 0.2 1.3 -0.6 1.9 -2.7 2.1 -2.2 0.3 -2.6 0.6 -1.5 1.2 1.1 0.7 1.1 1.2 0.1 2.2 -1.3 1.3 -1.6 5.8 -0.6 9.4 1.4 5.3 10.9 5.3 26.6 0.1 l10.8 -3.5 1.1 4.2 c2.3 8.6 5.8 26.4 5.9 30.2 0.1 2.1 -0.2 5.3 -0.5 7.1 -0.5 2.3 -0.2 3.6 1.2 5 2 2 2 2.1 3.7 25.8 0.7 9.4 0.9 17.4 0.4 18 -1 1.2 -1.1 6.2 0 6.9 1.3 0.8 -2.5 46.3 -4.4 52.9 -0.3 0.9 -1.1 1.7 -1.8 1.7 -1.8 0 -4.6 3.3 -4.6 5.5 0 1 1 2.9 2.1 4.2 l2.2 2.2 -2.8 11.8 c-4 17.1 -13.9 47.4 -15.9 48.5 -1.9 1.1 -2.1 4.9 -0.3 6.7 1 1 0.9 1.1 -0.5 0.6 -1.1 -0.4 -1.8 -0.2 -1.8 0.4 0 1.7 -12.7 28 -15.3 31.8 -1.7 2.5 -2.7 3.1 -4.5 2.6 -1.7 -0.4 -2.1 -0.2 -1.6 1 0.3 0.8 0.1 1.8 -0.5 2.2 -0.6 0.3 -1.1 2.6 -1.1 5.1 0 2.4 -0.4 4.4 -1 4.4 -0.5 0 -1 0.5 -1 1.1 0 3.1 -31.2 45.7 -33.6 45.9 -0.6 0 -2.1 -2.3 -3.5 -5.2 -1.3 -2.9 -3.6 -6.5 -5.2 -8 l-2.7 -2.9 -2.2 2.1 c-3.2 3 -2.7 7.7 2.1 17.6 2.2 4.6 3.5 8.4 2.9 8.4 -0.5 0 -7.8 6.5 -16 14.5 -8.2 8 -15.6 14.5 -16.3 14.5 -0.8 0 -1.6 -0.9 -2 -1.9 -0.3 -1.1 -2 -3.5 -3.8 -5.4 -2.8 -3 -3.5 -3.3 -5.7 -2.5 -1.3 0.5 -2.8 1.4 -3.2 2.1 -1.4 2.1 -0.7 7.1 1.6 12.2 l2.2 5 -6 4.6 c-7.8 5.9 -20.6 14.4 -22.8 15.2 -1 0.3 -1.8 0.2 -1.8 -0.3 0 -0.5 -1.2 -1.3 -2.6 -1.6 -3.2 -0.8 -4.4 0.7 -4.4 5.9 0 2.7 -0.4 3.7 -1.6 3.7 -0.8 0 -4.6 1.7 -8.2 3.9 -3.7 2.1 -10.8 5.9 -15.9 8.5 l-9.2 4.6 -2 -2.5 c-1.3 -1.7 -2.1 -2.1 -2.4 -1.3 -0.4 1 -0.6 1 -0.6 0 -0.1 -1.9 -5.1 4.2 -5.1 6.2 0 0.9 -0.7 1.6 -1.5 1.6 -0.8 0 -1.5 0.4 -1.5 0.9 0 0.4 -5 2.8 -11.2 5.1 -10.7 4.2 -11.2 4.2 -12.4 2.4 -3 -4.4 -5 -6.4 -6.4 -6.4 -1.8 0 -4 5.3 -4 9.6 l0 2.9 -17.2 4.2 c-18.5 4.6 -19.2 4.6 -20.3 -1 -0.4 -1.8 -3 -10.1 -5.7 -18.5 -4.2 -12.8 -5.6 -15.9 -8.7 -19 -2.9 -3 -4.4 -3.8 -7.9 -4 -3 -0.2 -4.1 0.1 -3.7 0.9 0.4 0.6 -0.2 1.7 -1.2 2.4 -2.7 1.9 -4.6 8.8 -3.8 13.9 0.4 2.2 2.2 10.6 4.1 18.5 1.9 7.9 3.3 14.6 3 14.8 -0.8 0.9 -13.6 2.3 -26.6 2.9 -11.8 0.6 -13.8 0.5 -15.2 -1 -2 -2 -4.8 -2.1 -4.8 -0.2 0 0.8 -0.3 1.6 -0.7 1.8 -0.5 0.2 -9.3 0 -19.7 -0.4z m24.6 -328.6 c10.9 -4.9 19.7 -15.5 21.9 -26.5 1.5 -7.3 -0.4 -15.9 -6 -27 -2.9 -5.8 -3.6 -8 -2.6 -8.3 1.9 -0.8 22.5 -32 63.5 -96.4 11.7 -18.4 22.7 -35.7 24.5 -38.5 1.8 -2.7 8.6 -13.5 15.2 -24 47.4 -75.1 44.9 -71.4 47.3 -70.8 1.6 0.4 2 1.4 2.1 5.2 0.1 2.5 0.2 5.5 0.3 6.6 0 1.1 -0.6 2.3 -1.4 2.7 -1.3 0.6 -1.3 0.7 0.1 0.7 1.3 0.1 1.8 1.6 2.4 6.9 0.7 7.2 2.4 13.2 3.7 13.2 0.4 0 0.8 0.7 0.8 1.5 0 0.9 1 1.5 2.6 1.5 1.6 0 2.3 0.4 1.8 1.2 -1.2 1.9 7.1 0.3 11.1 -2.2 5.3 -3.3 5.8 -6.7 4.5 -29.4 -1.8 -31 -3.3 -42.4 -6.7 -48.7 -1.5 -3 -3.1 -5.6 -3.4 -5.9 -0.3 -0.3 -0.8 -1.3 -1.2 -2.2 -0.4 -1 -1.2 -1.5 -2.1 -1.2 -0.8 0.3 -2.4 -0.4 -3.5 -1.5 -1.1 -1.1 -2.2 -1.7 -2.5 -1.3 -0.5 0.9 -5.5 0.7 -8 -0.4 -1.3 -0.5 -2.1 -0.3 -2.4 0.4 -0.2 0.7 -0.8 1 -1.3 0.6 -1.6 -0.9 -20.9 5.9 -20.9 7.4 0 0.9 -0.6 1.2 -1.6 0.8 -2.5 -1 -9.4 1.2 -9.4 3 0 1.1 -0.6 1.4 -1.6 1 -2.6 -1 -6.6 0.4 -5.9 2.1 0.4 1.2 0 1.4 -1.7 1 -3.4 -0.9 -7 0.3 -6.3 2 0.4 1.2 0 1.4 -2.1 0.9 -1.5 -0.4 -4.4 0 -7 1 -3.7 1.4 -4.2 1.9 -3.2 3.2 1.1 1.3 1 1.4 -0.9 0.8 -2.6 -0.8 -5.2 0.2 -3.4 1.3 0.8 0.6 0.7 1.8 -0.5 4.6 -0.9 2.1 -1.4 5.1 -1.2 6.7 0.3 1.6 0 2.8 -0.6 2.8 -0.6 0 0.3 0.9 2 1.9 1.8 1.1 3.4 2.5 3.6 3.1 0.2 0.7 2.7 1.5 5.6 1.8 4.5 0.4 7 -0.2 17.5 -4.1 6.7 -2.5 13.4 -4.9 15 -5.3 4.6 -1.1 4.2 -0.2 -7.4 18.1 -3.1 5 -13.2 20.9 -22.4 35.5 -9.2 14.6 -18.9 29.9 -21.5 34 -2.6 4.1 -10.7 17 -18 28.5 -41 65 -65 104.2 -69.5 113.2 -3.7 7.5 -4.2 8.1 -6.5 7.6 -1.4 -0.4 -2.6 -1 -2.8 -1.5 -0.5 -1.1 -3.2 -1.1 -3.2 0.1 0 0.4 -2.3 0.4 -5.1 -0.2 -4.5 -0.9 -5.3 -0.8 -6.1 0.8 -0.8 1.3 -1.2 1.4 -1.8 0.5 -1.2 -1.9 -10.3 0.7 -9.6 2.6 0.3 0.8 0.1 1.4 -0.5 1.4 -0.6 0 -2.2 0.9 -3.6 2 -1.4 1.1 -3.5 2 -4.7 2 -1.4 0 -1.7 0.3 -0.8 0.8 0.9 0.6 0.6 2 -1.3 5.8 -1.4 2.7 -2.5 5.9 -2.5 7.2 0 1.3 -0.7 3.7 -1.6 5.4 -2.7 5.2 -2.2 14.7 1.1 21.5 1.6 3.2 3.3 6.1 3.9 6.5 0.6 0.4 0.8 1 0.5 1.3 -0.6 0.6 5.5 7.1 8.8 9.2 3.7 2.6 9.9 5.7 13.8 7 5.4 1.7 17.1 1 22.7 -1.5z"/>
  <path d="M601 1277.9 c0 -0.6 -0.4 -0.8 -0.8 -0.5 -2.5 1.5 -13.2 -9.3 -13.2 -13.3 0 -2.1 3.2 -6.8 5.9 -8.7 1.2 -0.9 5.1 -2 8.7 -2.5 5.4 -0.8 6.9 -0.6 9 0.8 4.6 2.9 8.1 12.4 5.2 13.6 -0.8 0.3 -0.5 0.6 0.5 0.6 1.4 0.1 1.7 0.6 1.2 2.4 -1.1 3.4 -4.4 6.5 -6.4 6 -1 -0.2 -2.4 0.1 -3.2 0.9 -1.7 1.6 -6.9 2.1 -6.9 0.7z"/>
  <path d="M1380 892.1 c0 -0.8 8.2 -3.1 11 -3.1 1.6 0 1.1 2.7 -0.6 3.4 -2.5 0.9 -10.4 0.7 -10.4 -0.3z"/>
  <path d="M1242 741.5 c-24.3 -4.9 -30.1 -6.8 -49 -16.6 -21.6 -11.2 -39.7 -25.2 -50 -38.6 -8.5 -11.3 -22 -40.9 -22 -48.4 0 -3.5 -3.9 -7.9 -6.9 -7.9 -1.1 0 -2.5 -0.9 -3.1 -1.9 -1.4 -2.8 -1.3 -13.5 0.5 -28.4 3.7 -31.9 12.5 -60.3 28.1 -90.8 6.9 -13.5 7.9 -14.8 10.7 -15.5 7.6 -1.6 11.9 -8 11.9 -17.5 0 -4.6 -0.6 -6.9 -2.7 -10.4 -2.5 -4.4 -3.5 -5 -21.3 -13.6 -10.3 -5 -31.3 -15.3 -46.7 -22.9 -31.5 -15.6 -55.8 -26.7 -107.5 -49.3 -19.5 -8.5 -52.4 -23.2 -73 -32.7 -20.6 -9.5 -40.9 -18.4 -45 -19.8 -4.1 -1.4 -7.7 -2.7 -7.8 -2.8 -0.7 -0.4 34.8 -79.8 48.7 -108.8 3.9 -8.2 8 -17.7 9 -21.2 4.2 -13.5 9.3 -20.8 17.3 -24.8 6 -3 9.6 -3.2 16.1 -1 9 3 15.8 11.8 20.6 26.6 1.3 3.8 2.7 6.8 3.2 6.8 2.7 0 19.4 6.8 199.4 80.7 115.3 47.3 129.9 53.4 130.3 53.8 0.2 0.2 -1.5 3 -3.8 6.4 -6.7 9.7 -22.4 44.9 -28.9 64.7 -7.2 22 -7.5 23.3 -6.2 28.2 2.5 9.1 12.5 16.8 44.8 34.3 10.5 5.7 18.9 10.7 18.5 11 -0.4 0.4 -5 2.3 -10.2 4.4 -38.5 15 -68 41.6 -86.1 77.6 -4.7 9.5 -11.1 28.1 -13.3 39.1 -8.6 42.1 0.1 85.9 24.1 122.3 3.3 5 7.6 11 9.6 13.3 3.6 4.2 4.5 6.3 3 6.1 -0.5 0 -6 -1.1 -12.3 -2.4z"/>
  <path d="M1543.1 629.9 c-0.4 -1.3 -1.8 -8.2 -3 -15.4 -5.3 -31.6 -15.2 -56.5 -31.1 -78 -10.6 -14.3 -17 -19.5 -24.1 -19.5 -2.4 0 -4.7 -1.2 -8.8 -4.8 -22.2 -19.2 -43.6 -28.9 -75.6 -34.3 -6.6 -1.2 -12.2 -2.2 -12.4 -2.4 -0.2 -0.2 0.7 -1.7 2 -3.3 20.8 -25.5 28.7 -35.7 36.6 -47.4 5.2 -7.7 12.9 -18.7 17.3 -24.3 4.3 -5.7 8.9 -12.2 10.2 -14.4 1.3 -2.3 3.1 -4.1 4 -4.1 2.8 0 21.4 7.7 33.9 14.1 13.8 7 26 14.6 37 22.9 4.4 3.3 8.4 6 8.8 6 0.4 0 2.2 -2.2 4 -4.9 6.2 -9.7 17.4 -17.7 28.6 -20.7 4.1 -1.1 20.5 -2 20.5 -1.1 0 0.1 -0.9 2.6 -2 5.5 -1.1 2.9 -2 7.6 -2 10.7 l0 5.5 -3.2 0 c-9.9 0.1 -19.5 5.2 -26.2 13.9 l-3.8 5.1 9.5 10.2 c5.3 5.7 11.9 13.2 14.7 16.8 4.8 6 5 6.5 3.1 7.2 -2.9 1 -6.1 6.6 -6.1 10.6 0 1.8 1.9 7.6 4.2 13 3.9 8.9 4.3 10.5 4.6 19.9 0.6 16.4 -3.9 42.2 -10.8 61.8 -5.4 15.3 -22.8 48.6 -27.4 52.4 -1.3 1.1 -1.7 1 -2.5 -1z"/>
  <path d="M1622.3 480.2 c-0.8 -0.5 -0.6 -2.2 0.8 -6.4 2.3 -7 3.9 -17.1 3.9 -25.9 0 -6.1 0.2 -6.7 2.5 -7.7 4.9 -2.3 5.5 -1.7 5.5 5.1 0 8 -2.9 19.7 -7 27.9 -3.7 7.4 -4.1 8 -5.7 7z"/>
 </g>
</svg>