<?xml version="1.0" encoding="utf-8"?>
<!DOCTYPE svg PUBLIC "-//W3C//DTD SVG 1.0//EN" "http://www.w3.org/TR/2001/REC-SVG-20010904/DTD/svg10.dtd">
<svg version="1.0" xmlns="http://www.w3.org/2000/svg" width="1924px" height="1924px" viewBox="0 0 1924 1924" preserveAspectRatio="xMidYMid meet">
 <g fill="#2b3f44">
  <path d="M891 1388.6 c0 -1.9 0.4 -3.7 0.9 -4 0.5 -0.3 15.1 -0.3 32.5 0.1 l31.6 0.6 0 3.4 0 3.3 -32.5 0 -32.5 0 0 -3.4z"/>
  <path d="M1068.3 1363.8 c-1.3 -0.6 -2.3 -1.9 -2.3 -3 0 -1 -0.7 -1.8 -1.5 -1.8 -1 0 -1.5 -1 -1.5 -3 0 -3.4 0.5 -3.7 2.6 -1.5 0.9 0.8 1.2 1.5 0.8 1.5 -0.3 0 -0.1 0.7 0.6 1.5 0.7 0.9 1.9 1.4 2.7 1.1 0.7 -0.3 1.3 -0.1 1.3 0.4 0 0.5 1.6 1.4 3.5 2.1 4.7 1.7 4.6 3.9 -0.2 3.8 -2.1 0 -4.8 -0.5 -6 -1.1z"/>
  <path d="M389 1204.5 c0 -0.8 0.7 -1.5 1.5 -1.5 0.9 0 1.2 -0.6 0.9 -1.5 -0.4 -0.9 0 -1.5 1 -1.5 0.9 0 1.6 0.5 1.6 1.2 0 0.6 0.8 0.3 1.9 -0.8 1 -1 1.7 -2.1 1.5 -2.3 -0.4 -0.4 2.2 -3.1 3 -3.1 0.8 0 0.8 4.4 0 6.4 -0.3 0.9 -1.2 1.6 -1.9 1.6 -0.7 0 -1.5 0.7 -1.9 1.5 -0.3 0.9 -1.9 1.5 -4.1 1.5 -2.4 0 -3.5 -0.4 -3.5 -1.5z"/>
  <path d="M616 1189.9 c-11.4 -4.2 -27.9 -9.6 -31.3 -10.4 -1.5 -0.3 -3.5 -1.3 -4.5 -2.3 -4 -4.1 -11.8 -13.5 -12.6 -15.3 -0.5 -1 -1.5 -1.9 -2.3 -1.9 -1.8 0 -1.6 -1 0.5 -2.6 1.2 -0.9 1.4 -1.7 0.7 -2.7 -1.1 -1.6 -18.9 -25.4 -20.5 -27.4 -0.8 -1 -6.8 -9.9 -9.5 -14.1 -0.5 -0.9 -1.3 -2.1 -1.8 -2.6 -2.7 -3.8 -5.7 -8.8 -5.7 -9.6 0 -0.6 -0.4 -1 -0.8 -1 -0.5 0 -1.4 -1 -2 -2.2 -0.6 -1.3 -2.3 -4.1 -3.6 -6.3 -1.4 -2.2 -3.1 -5.1 -3.9 -6.5 -0.7 -1.4 -2.8 -4.9 -4.5 -7.7 -1.7 -2.9 -2.9 -5.3 -2.6 -5.3 0.3 0 -0.2 -0.7 -1 -1.6 -0.9 -0.8 -1.6 -2.2 -1.6 -3 0 -0.8 -0.3 -1.4 -0.8 -1.4 -0.4 0 -1.8 -2.4 -3.2 -5.2 -1.4 -2.9 -2.9 -5.7 -3.3 -6.3 -0.5 -0.5 -4.1 -7.5 -8.1 -15.5 -5.5 -11.2 -7.6 -14.6 -9.2 -14.8 -2.3 -0.3 -5 -5.6 -15.5 -30.4 -5 -12 -5.5 -12.8 -8.1 -12.8 -4.2 0 -3.6 -2.8 0.8 -3.6 3.1 -0.6 3.5 -1 2.9 -2.8 -0.4 -1.1 -0.9 -3.2 -1.2 -4.6 -0.3 -1.4 -1 -2.7 -1.4 -3 -0.5 -0.3 -1 -1.5 -1.2 -2.5 -0.2 -1.1 -0.8 -3 -1.5 -4.2 -0.7 -1.2 -1.2 -3 -1.2 -4 0 -1.1 -0.5 -2.4 -1.1 -3 -0.6 -0.6 -1.2 -1.7 -1.3 -2.4 -0.2 -0.8 -0.8 -2.7 -1.4 -4.2 -0.7 -1.6 -1.2 -3.7 -1.2 -4.8 0 -1 -0.4 -1.9 -1 -1.9 -0.5 0 -1 -0.8 -1 -1.8 0 -1.1 -0.7 -3.3 -1.6 -5.1 -0.9 -1.7 -1.7 -3.8 -1.8 -4.6 -0.1 -0.8 -0.5 -1.8 -0.9 -2.1 -0.4 -0.4 -0.7 -2 -0.7 -3.6 0 -1.5 -0.4 -2.8 -1 -2.8 -0.5 0 -1 -1.3 -1 -3 0 -1.6 -0.4 -3 -0.9 -3 -0.8 0 -2.3 -4.4 -2.5 -7.2 -0.1 -0.3 -0.4 -1 -0.8 -1.4 -0.5 -0.4 -0.8 -2 -0.8 -3.6 0 -1.5 -0.4 -2.8 -1 -2.8 -0.5 0 -1 -1.3 -1 -2.9 0 -1.6 -0.5 -3.1 -1.1 -3.3 -0.6 -0.2 -1.1 -1.6 -1.1 -3.1 0 -1.5 -0.4 -2.7 -0.9 -2.7 -0.5 0 -0.9 -1.1 -0.9 -2.3 0 -1.3 -0.7 -3.9 -1.6 -5.7 -0.9 -1.7 -1.6 -4.3 -1.6 -5.6 0 -1.3 -0.4 -2.4 -0.9 -2.4 -0.5 0 -0.9 -1.3 -0.9 -2.9 0 -1.7 -0.4 -3.3 -1 -3.6 -0.5 -0.3 -1 -2.2 -1 -4.1 0 -1.9 -0.4 -3.4 -1 -3.4 -0.5 0 -1 -1.6 -1 -3.5 0 -1.9 -0.4 -3.5 -1 -3.5 -0.5 0 -1 -1.6 -1 -3.5 0 -1.9 -0.4 -3.5 -1 -3.5 -0.5 0 -1 -1.5 -1 -3.4 0 -1.9 -0.5 -3.8 -1 -4.1 -0.5 -0.3 -1 -1.9 -1 -3.4 0 -1.5 -0.4 -3.1 -0.9 -3.6 -0.9 -1.1 -4.5 -15 -4.4 -17.5 0 -0.8 -0.4 -2.1 -0.9 -2.7 -0.6 -0.7 -1 -2.8 -1 -4.8 0 -1.9 -0.4 -3.5 -0.9 -3.5 -0.5 0 -0.9 -1.8 -0.9 -4 0 -2.2 -0.4 -4 -1 -4 -0.5 0 -1 -1.5 -1 -3.4 0 -1.9 -0.4 -3.7 -0.9 -4 -0.9 -0.6 -2.6 -9.3 -2.2 -11 0.1 -0.4 -0.3 -1.4 -0.9 -2.1 -0.6 -0.8 -1.2 -2.9 -1.2 -4.7 0 -1.8 -0.4 -3.7 -0.8 -4.3 -1 -1.2 -2.4 -9.4 -2.1 -11.7 0.1 -0.9 -0.3 -1.9 -0.9 -2.3 -0.5 -0.3 -1 -2.4 -1 -4.5 0 -2.1 -0.4 -4.1 -0.9 -4.4 -0.9 -0.6 -2.6 -9.3 -2.2 -11 0.1 -0.4 -0.3 -1.4 -1 -2.2 -0.6 -0.7 -1.1 -2.9 -1.1 -4.9 0 -1.9 -0.4 -3.5 -0.8 -3.5 -0.5 0 -1 -1 -1.2 -2.2 -0.2 -1.3 -1 1.9 -1.7 7 -0.8 5 -1.7 9.2 -2 9.2 -0.3 0 -0.5 2 -0.3 4.5 0.2 2.5 0 4.5 -0.4 4.5 -0.5 0 -0.9 7.4 -0.9 16.5 0 9.1 0.4 16.5 0.8 16.5 0.5 0 0.7 2.7 0.5 6 -0.1 3.3 0.1 6 0.5 6 0.5 0 0.7 2.3 0.5 5 -0.1 2.8 0.1 5 0.6 5 0.4 0 0.6 2 0.4 4.5 -0.2 2.5 0 4.6 0.4 4.7 0.4 0.2 0.9 3.7 1.2 7.8 0.2 4.1 0.7 8.3 1.1 9.3 0.4 0.9 0.5 2.6 0.2 3.7 -0.3 1.1 -0.2 2 0.2 2 0.9 0 3.2 16 2.5 17.1 -0.3 0.5 0 0.9 0.7 0.9 0.7 0 0.9 1 0.7 2.5 -0.3 1.4 -0.2 2.5 0.2 2.5 0.8 0 2.5 9.8 2.4 13.3 0 0.9 0.4 1.7 0.9 1.7 0.5 0 0.7 1.1 0.5 2.5 -0.3 1.3 -0.2 2.6 0.3 2.7 0.4 0.2 0.9 2.1 1.1 4.3 0.2 2.2 0.5 4.2 0.9 4.5 0.9 0.9 2.9 11.1 2.3 12.1 -0.3 0.5 0 0.9 0.7 0.9 0.6 0 0.9 0.8 0.6 2 -0.3 1.1 -0.1 2 0.5 2 0.6 0 0.8 0.9 0.5 2 -0.3 1 -0.2 2 0.2 2.2 0.7 0.3 8.4 27.4 8.5 30.1 0 0.9 0.3 1.7 0.6 1.7 0.6 0 3.4 9.5 3.5 11.5 0 0.6 0.2 1.2 0.5 1.5 0.5 0.5 7.1 20.7 7.4 22.5 0 0.6 0.4 1.2 0.7 1.5 0.3 0.3 1.4 3 2.5 6 1.3 3.8 2.7 5.9 4.5 6.7 1.7 0.8 3.2 2.9 4.4 6 2.7 7.4 9.9 24.1 13.4 31.2 3.5 7.2 3.8 9.1 1.6 9.1 -2 0 -1.9 0.2 1 5.9 1.3 2.7 2.1 5.1 1.8 5.5 -0.4 0.3 -0.1 0.6 0.6 0.6 0.7 0 1 0.4 0.7 0.9 -0.4 0.5 -0.3 1.1 0.1 1.3 0.5 0.1 3.5 5.9 6.8 12.8 3.3 6.9 6.3 12.7 6.8 12.8 0.4 0.2 0.5 0.8 0.1 1.3 -0.3 0.5 -0.1 0.9 0.4 0.9 0.5 0 1.9 2.4 3.3 5.3 1.3 2.8 2.9 5.8 3.6 6.5 0.6 0.6 1.5 2.2 1.9 3.5 0.4 1.2 1 2.4 1.3 2.7 1 0.8 8.1 13 8.1 14 0 0.5 0.3 1 0.8 1.2 1 0.4 6.2 8.6 6.2 9.8 0 0.5 0.5 1 1 1 0.6 0 1 0.7 1 1.5 0 0.8 0.5 1.5 1 1.5 0.6 0 1 0.7 1 1.5 0 0.8 0.5 1.5 1 1.5 0.6 0 1 0.7 1 1.5 0 0.8 0.3 1.5 0.8 1.5 0.4 0 2 2.1 3.7 4.8 1.6 2.6 3.4 5.2 4 5.8 0.5 0.6 1.7 2.2 2.5 3.4 0.8 1.2 2 2.8 2.5 3.4 0.6 0.6 2.4 2.9 4 5.1 4.8 6.4 9.8 11.4 12 11.8 1.1 0.2 3.3 0.9 4.8 1.5 1.6 0.7 3.3 1.2 3.8 1.2 0.6 0 0.9 0.8 0.7 1.8 -0.1 0.9 0.5 2.8 1.5 4.2 0.9 1.3 1.7 3.9 1.7 5.6 0 2.9 -0.4 3.4 -3.7 4.4 -2.1 0.7 -7.1 3 -11.1 5.1 -10.8 5.7 -11.5 5.5 -20.1 -4.8 -4 -4.9 -11.1 -13.9 -15.8 -20 -8.7 -11.6 -11.4 -14.3 -14.5 -14.3 -2.5 0 -2.3 -2.6 0.2 -3.3 1.1 -0.3 2 -0.1 2 0.4 0 0.5 0.7 0.9 1.5 0.9 2.9 0 1.5 -4.2 -4 -12.2 -3 -4.4 -5.5 -8.2 -5.5 -8.5 0 -0.3 -1 -1.9 -2.2 -3.6 -2.8 -3.8 -4.4 -6.5 -5.7 -9.4 -0.6 -1.2 -2.2 -4.1 -3.8 -6.5 -4.2 -6.6 -27.8 -52.7 -27.6 -53.8 0.1 -0.3 -1.3 -3.2 -3 -6.5 -2.2 -4.1 -3.9 -6.1 -5.3 -6.3 -2.4 -0.3 -2.2 0.1 -13.5 -27.5 -6 -14.9 -6.7 -17.1 -5.4 -18.4 0.8 -0.8 1.5 -1.5 1.5 -1.7 0 -0.1 -1.6 -4.9 -3.5 -10.7 -2 -5.7 -5.2 -15.8 -7.1 -22.4 -2 -6.6 -4 -12.5 -4.5 -13.1 -0.5 -0.6 -0.6 -1.3 -0.4 -1.6 0.3 -0.3 0 -1.8 -0.6 -3.4 -0.7 -1.6 -1.2 -3.2 -1.1 -3.6 0.1 -0.4 -0.3 -2 -1 -3.5 -0.6 -1.5 -1.2 -3.5 -1.3 -4.3 -0.6 -4.5 -2.9 -13 -3.6 -13 -0.4 0 -0.5 -0.9 -0.2 -2 0.3 -1.2 0 -2 -0.6 -2 -0.7 0 -0.9 -0.4 -0.6 -1 0.5 -0.9 -0.7 -7.2 -2.2 -11 -0.3 -0.8 -0.6 -2.4 -0.7 -3.5 -0.5 -5.1 -5.1 -27 -5.8 -27.3 -0.5 -0.2 -0.6 -0.8 -0.3 -1.2 0.6 -0.9 -1.1 -12.9 -2.2 -16 -0.2 -0.8 -0.7 -4.1 -0.9 -7.4 -0.3 -3.2 -0.8 -6.4 -1.1 -7 -0.4 -0.6 -0.6 -2.3 -0.4 -3.8 0.1 -1.5 -0.1 -3.3 -0.5 -4 -0.4 -0.7 -0.7 -2.9 -0.5 -5 0.1 -2.1 0 -4.2 -0.4 -4.8 -1.1 -1.9 -2 -22.8 -1.9 -47 0.1 -21.6 0.3 -24.4 2.7 -35.3 3.4 -14.7 9.3 -36.2 11.2 -40.4 0.8 -1.7 1.5 -3.3 1.5 -3.6 0 -0.2 -3.9 -3.3 -8.7 -6.8 -18.4 -13.2 -32.8 -29.7 -66.2 -75.9 -16.1 -22.3 -16.5 -22.8 -31.3 -35.7 -22.4 -19.7 -28.5 -25.4 -36.5 -34.3 -4.2 -4.7 -12.4 -13.7 -18.3 -20 -5.8 -6.3 -12.9 -14 -15.6 -17 -4.9 -5.5 -33.3 -42.5 -39.1 -51 -8 -11.7 -23.7 -45.5 -30.7 -65.8 -7.6 -22.2 -9.2 -35.5 -6 -51 1.5 -7.5 8.9 -25.2 10.6 -25.2 0.4 0 0.7 -0.4 0.6 -0.9 -0.5 -1.7 8.3 -14 14.6 -20.4 15.4 -15.8 31.7 -24.1 55.3 -28.2 27.8 -4.8 50.3 1.6 78 22.4 30.8 23.1 53.6 61.9 71.7 122.1 10 33.2 34.3 103 39.6 113.5 2.7 5.5 10.1 18.8 16.5 29.5 21.3 36.1 40.5 76.5 40.5 85.3 0 3.7 3 6.7 7 7.1 1.9 0.2 4.2 0.6 5 0.9 1.9 0.8 20 5 22 5.2 0.9 0 2 0.4 2.5 0.7 0.6 0.3 3.7 1.3 7 2.3 16.6 4.7 56.6 23.2 72.5 33.5 0.8 0.5 3.1 1.9 5 3 22.8 13.2 60.3 40.5 84.8 61.8 13.1 11.4 49.6 47.8 59.2 59.1 3 3.5 6 6.9 6.5 7.5 7.2 8 26.2 31.6 35.9 44.6 3.1 4.1 6.3 8.4 7.1 9.5 0.9 1.1 2.6 3.7 3.7 5.8 1.2 2 2.5 3.7 3 3.7 0.4 0 0.8 0.7 0.8 1.5 0 0.8 0.5 1.5 1 1.5 0.6 0 1 0.7 1 1.5 0 0.8 0.5 1.5 1 1.5 0.6 0 1 0.7 1 1.5 0 0.8 0.5 1.5 1 1.5 0.6 0 1 0.5 1 1.1 0 0.6 1.1 2.5 2.5 4.3 1.4 1.8 2.5 3.8 2.5 4.4 0 0.7 0.4 1.2 1 1.2 0.5 0 1.2 1.1 1.6 2.5 0.3 1.4 0.9 2.5 1.3 2.5 0.3 0 2.2 3 4.1 6.8 1.9 3.7 3.8 6.9 4.1 7.2 1.3 1 12.9 25 12.2 25 -0.5 0 -0.3 0.4 0.2 0.8 0.6 0.4 2 2.8 3.2 5.5 1.6 3.2 2.9 4.7 4.2 4.7 1.5 0 2.6 1.8 4.9 7.8 3 7.7 9.2 27 11.2 35 0.9 3.5 1.5 4.2 3.5 4.2 3.9 0 3.1 2.8 -1 3.6 -3.4 0.6 -3.5 0.7 -3.3 5 0.2 2.4 0.6 4.4 0.9 4.4 0.8 0 3.1 12.9 2.4 14 -0.3 0.4 -0.1 1 0.4 1.2 0.6 0.1 1.1 2.8 1.3 5.8 0.2 3 0.6 5.7 1 6 0.4 0.4 1 4.1 1.2 8.3 0.3 4.2 0.8 8.1 1.1 8.7 0.4 0.6 0.5 3 0.4 5.3 -0.2 2.4 0.1 4.8 0.5 5.5 0.4 0.7 0.7 4.7 0.7 9 0 4.2 0.2 13.7 0.5 21 0.3 7.9 0.1 13.2 -0.4 13.2 -0.6 0 -0.7 2.7 -0.4 6.5 0.3 4 0.1 6.5 -0.5 6.5 -0.6 0 -0.8 1.1 -0.6 2.4 0.4 1.8 1.4 2.7 3.4 3.1 2.9 0.7 4.1 3.5 1.5 3.5 -0.9 0 -1.9 2.9 -3.1 9.4 -0.9 5.2 -2.2 9.9 -2.8 10.4 -0.7 0.4 -4.8 1.6 -9.2 2.6 -7.1 1.6 -13.3 4.3 -31.7 13.9 -2.1 1 -3.8 2.3 -3.8 2.7 0 0.5 -1.4 2.2 -3.1 3.9 -2.2 2.2 -4 3.1 -6.3 3.1 -3.2 0 -3.4 -0.2 -7.6 -10.2 -6.3 -15.1 -23.2 -49.8 -24.2 -49.8 -0.4 0 -0.8 -0.9 -0.8 -2 0 -1.3 0.5 -1.7 1.4 -1.4 1.1 0.4 1.3 0 0.9 -1.8 -0.3 -1.3 -1 -2.8 -1.4 -3.4 -0.5 -0.6 -0.6 -1.4 -0.2 -1.7 0.3 -0.4 0.1 -0.7 -0.5 -0.7 -1 0 -2.8 -4 -2.3 -4.9 0.2 -0.2 -0.1 -0.7 -0.6 -1 -0.5 -0.3 -1.7 -1.9 -2.5 -3.6 -0.9 -1.6 -2.8 -5.2 -4.2 -8 -1.4 -2.7 -3.1 -5.7 -3.6 -6.5 -0.6 -0.8 -1.8 -2.9 -2.8 -4.6 -0.9 -1.7 -4.3 -7.5 -7.5 -13 -3.2 -5.4 -6.6 -11.2 -7.5 -12.9 -0.9 -1.6 -2.3 -3.5 -2.9 -4.3 -0.7 -0.7 -1.3 -2 -1.3 -2.8 0 -0.8 -0.4 -1.4 -0.8 -1.4 -0.5 0 -1.4 -1 -2 -2.2 -0.6 -1.3 -2.3 -4.1 -3.7 -6.3 -1.4 -2.2 -2.8 -4.7 -3.2 -5.5 -0.3 -0.8 -0.9 -1.7 -1.2 -2 -0.9 -0.7 -6.1 -8.9 -6.1 -9.5 0 -0.3 -1.6 -2.7 -3.5 -5.4 -1.9 -2.6 -3.5 -5.3 -3.5 -5.9 0 -0.6 -1.5 -1.4 -3.4 -1.8 -2.9 -0.5 -4.2 -1.7 -8.4 -8.2 -5.7 -8.7 -14.4 -21.4 -15.2 -22.2 -0.3 -0.3 -2.7 -3.5 -5.3 -7.2 -2.6 -3.7 -5.5 -7.2 -6.5 -7.8 -1.6 -0.9 -1.6 -1.1 0.1 -2.4 0.9 -0.7 1.7 -1.7 1.7 -2.2 0 -0.8 -6.8 -11.3 -8 -12.4 -0.4 -0.3 -5.3 -6.6 -11 -14 -33.9 -44 -106.9 -133.1 -132.9 -162.3 -27.1 -30.4 -69.5 -71.7 -73.7 -71.7 -2.8 0 -8.3 3.4 -8.8 5.4 -0.9 3.3 -0.7 6.6 0.4 6.6 0.6 0 1 1.3 1 2.9 0 1.7 0.4 3.2 0.9 3.5 0.5 0.3 1.2 2.2 1.5 4.1 0.4 1.9 1.1 3.5 1.6 3.5 0.6 0 1 0.6 1 1.4 0 1.8 10 21.9 11.4 22.8 0.6 0.4 0.7 0.8 0.3 0.8 -0.5 0 0 1.2 1.1 2.8 1.1 1.5 2.3 3.7 2.6 5 0.4 1.2 1.1 2.2 1.6 2.2 0.4 0 1.1 1.1 1.4 2.4 0.3 1.4 1.2 3.1 1.9 3.8 0.6 0.7 2 2.9 2.9 4.8 1 1.9 2.9 5.3 4.3 7.5 1.4 2.2 3 5.2 3.6 6.8 0.6 1.5 1.5 2.7 2.1 2.7 0.5 0 0.7 0.4 0.4 0.9 -0.4 0.5 -0.3 1.1 0.1 1.3 0.5 0.1 1.9 2.6 3.2 5.3 1.4 2.8 2.7 5.2 3.1 5.5 0.3 0.3 1.7 2.9 3 5.8 1.4 2.8 2.8 5.2 3.2 5.2 0.5 0 0.8 0.9 0.8 1.9 0 1.1 0.7 2.7 1.6 3.5 0.8 0.9 1.3 1.6 0.9 1.6 -0.3 0 0.2 1.2 1.2 2.8 1 1.5 3 5.1 4.3 8 1.3 2.8 2.7 5.2 3.2 5.2 0.5 0 0.6 0.5 0.3 1 -0.3 0.6 -0.3 1 0.2 1 0.4 0 1.9 2.5 3.2 5.5 1.4 3 2.9 5.5 3.4 5.5 0.4 0 0.6 0.4 0.3 0.9 -0.3 0.5 0.2 1.9 1.2 3.2 1 1.3 2.9 4.8 4.2 7.7 1.4 2.8 2.8 5.2 3.3 5.2 0.4 0 0.6 0.4 0.3 0.8 -0.3 0.5 0.2 2 1.2 3.3 0.9 1.3 2.9 4.9 4.5 7.9 4.8 9.6 8.5 16.5 9.4 17.5 0.7 0.9 2.9 4.9 7.7 14.3 1 2 2.1 3.9 2.5 4.2 0.3 0.3 1.7 2.8 3 5.5 1.4 2.8 2.7 5.2 3 5.5 0.3 0.3 1.7 2.8 3 5.5 1.4 2.8 2.7 5.2 3 5.5 0.4 0.3 1.7 2.9 3.1 5.9 1.4 3 3 5.9 3.5 6.5 0.6 0.6 2.8 4.7 4.9 9.1 2.2 4.4 4.4 8.3 5 8.7 0.6 0.4 0.7 0.8 0.2 0.8 -0.5 0 -0.1 0.9 0.9 2 1.1 1.2 2.5 1.8 3.6 1.5 1.3 -0.5 3 1.8 7.9 11.2 3.5 6.5 7.5 14.1 9 16.8 1.5 2.8 4 7.4 5.6 10.3 1.5 2.8 3.2 5.2 3.6 5.2 1.5 0 0.8 2.2 -1.3 3.9 -2 1.6 -2 1.7 -0.1 4.1 1.1 1.4 2.2 3.5 2.6 4.7 0.4 1.3 1.3 2.9 1.9 3.5 0.7 0.7 2 2.9 2.9 4.8 1 1.9 2.9 5.3 4.3 7.5 1.3 2.2 3.1 5.4 4 7 0.8 1.7 2.4 4.4 3.5 6 1.1 1.7 2.5 4.1 3 5.5 0.6 1.3 1.4 2.7 1.8 3 1 0.7 3.9 5.9 5.3 9.3 0.6 1.5 1.5 2.7 1.9 2.7 0.4 0 1.1 1.1 1.4 2.5 0.4 1.4 1.1 2.5 1.6 2.5 0.6 0 1 0.6 1 1.3 0 0.7 1.5 3.5 3.3 6.2 1.8 2.8 4.5 7.3 6.1 10 1.6 2.8 3.2 5.2 3.5 5.5 0.4 0.3 1.5 2.2 2.6 4.3 1.1 2.1 2.7 4.6 3.5 5.6 2 2.2 3.8 5.1 4.9 7.6 1 2.4 4.1 5.2 4.1 3.8 0 -0.5 1.6 -1 3.6 -1.1 3.5 -0.1 3.6 0 3.1 2.7 -0.5 2.4 1.2 5.5 11.3 20.6 10 14.8 12 18.3 12 21.4 0 3.1 -0.5 4 -2.5 4.9 -1.4 0.7 -3.1 1.2 -3.6 1.2 -0.6 0 -4.2 1.6 -8 3.5 -6.8 3.4 -11.2 4.3 -13.5 2.7 -1.6 -1 -28.4 -41.7 -28.4 -43.1 0 -0.6 -1.3 -1.1 -3 -1.1 -3.7 0 -3.8 -0.8 -0.4 -3.5 l2.6 -2.1 -2.6 -4.9 c-3.5 -6.4 -4.9 -8.9 -5.7 -9.5 -0.6 -0.5 -6.2 -9.9 -8.8 -14.8 -0.8 -1.5 -2 -3.3 -2.8 -4 -0.7 -0.7 -1.3 -2 -1.3 -2.8 0 -0.8 -0.4 -1.4 -0.9 -1.4 -0.5 0 -1.3 -1 -1.7 -2.2 -0.4 -1.3 -1 -2.5 -1.4 -2.8 -1.2 -0.9 -22 -36.6 -22 -37.8 0 -0.7 -0.4 -1.2 -0.9 -1.2 -0.5 0 -1.4 -1.5 -2.2 -3.2 -0.7 -1.8 -1.6 -3.5 -1.9 -3.8 -0.4 -0.3 -1.7 -2.7 -3.1 -5.5 -1.3 -2.7 -3 -5.6 -3.6 -6.3 -0.7 -0.7 -1.3 -1.8 -1.3 -2.4 0 -2 -5.1 -7.8 -6.8 -7.8 -1.1 0 -2.8 -2 -4.5 -5.2 -12.9 -24.8 -18.9 -35.7 -20.7 -37.7 -1.9 -2.1 -2 -2.5 -0.6 -3.3 0.9 -0.5 1.6 -1.5 1.6 -2.3 0 -1.6 -6.9 -16.1 -9.3 -19.5 -0.9 -1.3 -1.4 -2.7 -1.1 -3.2 0.3 -0.4 0.1 -0.8 -0.3 -0.8 -0.5 0 -1.9 -2.4 -3.3 -5.2 -1.3 -2.9 -3 -5.9 -3.7 -6.6 -0.7 -0.7 -1.3 -1.8 -1.3 -2.3 0 -0.6 -1.1 -2.6 -2.5 -4.6 -1.3 -2 -2.2 -4 -1.9 -4.5 0.3 -0.4 0.1 -0.8 -0.5 -0.8 -0.5 0 -1.3 -1 -1.7 -2.2 -0.3 -1.3 -1.5 -3.5 -2.6 -5 -1.1 -1.6 -1.6 -2.8 -1.1 -2.8 0.4 0 0.3 -0.4 -0.3 -0.8 -0.6 -0.4 -2.1 -2.9 -3.5 -5.7 -1.3 -2.7 -2.7 -5.2 -3 -5.5 -0.3 -0.3 -2.3 -4.1 -4.5 -8.5 -2.1 -4.4 -4.2 -8.2 -4.5 -8.5 -1.2 -1 -3.9 -7 -3.2 -7 0.5 0 0.3 -0.4 -0.3 -0.8 -0.6 -0.4 -2.1 -2.9 -3.5 -5.7 -1.3 -2.7 -3 -5.6 -3.6 -6.3 -1.2 -1.2 -1.5 -2.1 -1.2 -3.8 0 -0.4 -0.3 -1 -0.8 -1.3 -0.5 -0.3 -2 -2.8 -3.4 -5.6 -1.3 -2.7 -2.7 -5.2 -3 -5.5 -0.4 -0.3 -1.8 -3 -3.2 -6 -1.5 -3 -3.5 -6.8 -4.6 -8.4 -1.1 -1.7 -1.8 -3.3 -1.5 -3.8 0.3 -0.4 0.1 -0.8 -0.3 -0.8 -0.5 0 -1.9 -2.4 -3.3 -5.2 -1.3 -2.9 -3.2 -6.5 -4.2 -7.9 -0.9 -1.4 -1.5 -2.9 -1.1 -3.3 0.3 -0.3 0.1 -0.6 -0.5 -0.6 -0.6 0 -1.4 -1 -1.8 -2.2 -0.3 -1.3 -1.5 -3.5 -2.5 -4.9 -1 -1.4 -1.6 -2.9 -1.2 -3.3 0.3 -0.3 0.2 -0.6 -0.4 -0.6 -0.6 0 -1.6 -1.2 -2.2 -2.7 -0.7 -1.6 -2.5 -5 -4.1 -7.8 -1.7 -2.7 -3.8 -6.6 -4.8 -8.5 -0.9 -1.9 -2 -3.7 -2.3 -4 -0.4 -0.3 -1.9 -3.2 -3.5 -6.5 -1.5 -3.3 -3.4 -6.6 -4.1 -7.3 -0.7 -0.8 -1.1 -1.8 -0.8 -2.3 0.4 -0.5 0.1 -0.9 -0.6 -0.9 -0.7 0 -1 -0.3 -0.6 -0.6 0.3 -0.4 -0.1 -1.3 -0.9 -2.1 -0.8 -0.8 -1.2 -1.9 -0.9 -2.4 0.4 -0.5 0.1 -0.9 -0.5 -0.9 -0.6 0 -0.9 -0.4 -0.6 -0.9 0.3 -0.5 -0.1 -1.2 -1 -1.5 -1.4 -0.6 -1.6 -0.1 -1 3.6 0.4 2.4 1.1 4.7 1.7 5.3 0.5 0.5 0.9 2.6 0.9 4.7 0 2.1 0.4 3.8 0.9 3.8 0.5 0 0.9 1.6 0.9 3.6 0 2 0.4 3.9 1 4.3 0.5 0.3 0.9 2.1 1 4 0 1.9 0.7 3.8 1.4 4.2 0.7 0.4 1 1.1 0.6 1.4 -0.3 0.3 0 3.2 0.8 6.3 0.8 3.1 1.7 7.1 2 8.7 0.3 1.7 1 3.4 1.5 4 0.5 0.5 0.9 2.4 0.9 4.2 0 1.8 0.4 3.3 0.9 3.3 0.5 0 0.9 1.6 0.9 3.6 0 2 0.6 4 1.2 4.4 0.7 0.5 1 1.5 0.7 2.3 -0.3 0.8 0 2.5 0.7 3.8 0.6 1.3 1.3 3.7 1.4 5.3 0.1 1.6 0.7 3.5 1.3 4.2 0.6 0.7 0.8 1.7 0.5 2.2 -0.3 0.5 0.2 2.1 0.9 3.6 0.8 1.6 1.3 3.1 1 3.5 -0.2 0.4 0.3 2 1 3.5 0.8 1.6 1.3 3.1 1 3.5 -0.2 0.4 0.3 2 1 3.5 0.8 1.6 1.3 3.1 1 3.5 -0.2 0.4 0.3 2 1 3.5 0.8 1.6 1.3 3.1 1 3.5 -0.2 0.4 0.3 2 1.1 3.5 0.7 1.6 1.4 3.9 1.4 5.2 0 1.3 0.5 2.4 1 2.4 0.6 0 1 1.3 1 2.9 0 1.7 0.5 3.3 1 3.6 0.6 0.3 1 1.9 1 3.6 0 1.6 0.4 2.9 0.9 2.9 0.5 0 0.9 1 0.9 2.3 0 1.2 0.6 3.6 1.3 5.2 0.6 1.7 1.4 3.9 1.6 5 0.2 1.1 0.8 2.2 1.3 2.3 0.6 0.2 1 1.7 1 3.3 0 1.6 0.5 2.9 1 2.9 0.6 0 1 1.4 1 3 0 1.7 0.4 3 0.9 3 0.4 0 1.1 1.9 1.4 4.2 0.3 2.4 1.1 4.4 1.6 4.6 0.6 0.2 1.1 1.4 1.1 2.7 0 1.3 0.5 2.7 1 3 0.6 0.3 1 1.6 1 2.9 0 1.2 0.3 2.6 0.8 3 0.4 0.4 0.7 1.1 0.8 1.4 0.1 1.1 1.5 4.5 2.5 6.4 0.5 1 0.9 2.7 0.9 3.8 0 1.1 0.5 2 1 2 0.6 0 1 1 1 2.3 0 1.3 0.7 3.2 1.5 4.3 0.8 1 1.5 2.9 1.5 4.2 0 1.2 0.5 2.2 1 2.2 0.6 0 1 1 1 2.3 0.1 3.3 4.4 10.2 6.6 10.5 1.9 0.3 2.7 1.5 5.9 9.7 0.9 2.2 2 4.9 2.5 6 0.5 1.1 1.8 4 2.9 6.5 6.2 14.2 10.1 22 11.1 22 1.8 0 1.1 1.6 -1.4 2.9 l-2.4 1.3 6.6 13.2 c3.6 7.2 7.1 13.4 7.6 13.8 0.6 0.4 0.7 0.8 0.3 0.8 -0.5 0 0 1.2 1.1 2.8 1.1 1.5 2.3 3.7 2.6 5 0.4 1.2 1.1 2.2 1.6 2.2 0.5 0 1.4 1.6 2 3.5 0.6 1.9 1.5 3.5 2 3.5 0.4 0 1.1 1.1 1.4 2.5 0.4 1.4 1.1 2.5 1.6 2.5 0.6 0 1 0.6 1 1.3 0 0.7 1.7 3.9 3.8 7.2 2.1 3.3 5.4 8.4 7.2 11.3 1.8 3 3.8 5.9 4.4 6.5 0.6 0.7 1.7 2.4 2.5 4 0.8 1.5 1.8 2.7 2.3 2.7 0.4 0 0.8 0.5 0.8 1 0 0.8 10.6 16.1 14.2 20.5 0.4 0.5 3.4 4.4 6.6 8.5 7.5 9.6 8.6 10.5 10.4 8.7 0.8 -0.8 2.4 -1.8 3.7 -2.2 2.2 -0.7 2.3 -0.5 1.9 2.6 -0.4 2.4 0.1 3.9 1.7 5.8 13 15 27.8 31.4 31.3 34.4 1.5 1.5 2.2 3.2 2.2 5.9 0 3.6 -0.1 3.8 -3.2 3.8 -1.8 0 -7.1 -1.4 -11.8 -3.1z m208.9 -74.9 c-0.1 -2.5 0.2 -5.2 0.5 -6.1 1.1 -2.5 -0.7 -51 -1.9 -53 -0.4 -0.5 -0.8 -4.1 -1 -8 -0.3 -3.9 -0.8 -7.6 -1.2 -8.2 -0.4 -0.7 -0.6 -2.4 -0.4 -3.9 0.1 -1.6 -0.1 -2.8 -0.6 -2.8 -0.4 0 -0.9 -1.8 -1 -4 0 -2.2 -0.4 -4.8 -0.8 -5.8 -0.4 -0.9 -0.9 -3.2 -1.1 -5 -0.2 -1.8 -0.7 -3.8 -1.1 -4.5 -0.4 -0.6 -0.6 -2 -0.5 -2.9 0.2 -1 -0.1 -1.8 -0.6 -1.8 -0.6 0 -0.8 -0.9 -0.5 -2 0.3 -1.2 0 -2 -0.6 -2 -0.7 0 -0.9 -0.5 -0.6 -1 0.8 -1.3 -1.4 -4.2 -2.6 -3.5 -0.4 0.3 -2 0.3 -3.4 -0.1 -2.7 -0.7 -3.5 -3.4 -1 -3.4 0.8 0 1.5 -0.4 1.5 -0.8 0 -1.6 -8.8 -26.9 -12 -34.5 -1.8 -4.3 -3.9 -8.1 -4.6 -8.4 -1.8 -0.7 -1.8 -3.3 0 -3.3 0.8 0 1.6 -0.8 1.8 -1.7 0.4 -1.7 -4.8 -12.8 -11.1 -23.8 -1.6 -2.7 -3.6 -6.3 -4.5 -8 -0.9 -1.6 -2.5 -4.3 -3.6 -6 -1.1 -1.6 -2.3 -3.7 -2.7 -4.5 -0.7 -1.4 -12.3 -18.8 -19.6 -29.3 -5.2 -7.4 -27.3 -34.8 -41.5 -51.4 -21.2 -24.8 -54.6 -57.4 -78.5 -76.6 -18.1 -14.6 -50 -36.6 -70.2 -48.5 -10.1 -6 -39.8 -21.3 -41 -21.2 -0.3 0 -1.9 -0.7 -3.5 -1.5 -1.6 -0.8 -3.1 -1.4 -3.3 -1.3 -0.2 0.2 -1.5 -0.5 -3 -1.5 -1.5 -0.9 -2.7 -1.5 -2.7 -1.3 0 0.3 -1.6 -0.2 -3.5 -1 -6.7 -2.8 -5.8 -1.3 3.5 5.4 43 31 55.8 41.7 102.4 85.7 14 13.2 39.7 40.3 53.1 56 10 11.6 31.9 39.7 42.9 55 4.8 6.6 9.4 12.8 10.2 13.8 0.8 0.9 1.4 1.9 1.4 2.1 0 0.9 12.3 19.1 13.2 19.4 0.4 0.2 0.8 0.8 0.8 1.4 0 1 7.7 13.8 8.9 14.8 0.9 0.7 3.9 6.1 5.2 9.3 0.6 1.5 1.5 2.7 2 2.7 0.5 0 0.9 0.6 0.9 1.3 0 0.8 0.9 2.4 2 3.7 1.1 1.3 2 2.9 2 3.5 0 1.8 2.7 3.8 5.3 3.9 1.8 0.1 4 3.8 13.7 23.3 8.4 16.9 12 23.2 13.3 23.3 2.9 0 1.9 2.8 -1.3 3.5 -2.7 0.6 -4.4 3.5 -2 3.5 0.6 0 1 0.9 1 1.9 0 1.1 0.5 2.3 1 2.6 0.6 0.4 0.8 1 0.6 1.4 -0.3 0.4 0.3 2.1 1.3 3.8 1 1.6 2.2 4.4 2.6 6.1 0.3 1.8 1.1 3.2 1.6 3.2 0.5 0 0.9 1.1 0.9 2.5 0 1.4 0.4 2.5 0.9 2.5 0.5 0 1.1 1.8 1.5 4 0.3 2.2 1.1 4 1.6 4 0.6 0 1 1.1 1 2.4 0 1.4 0.5 2.8 1 3.1 0.6 0.3 1 1.6 1 2.9 0 1.2 0.3 2.6 0.8 3 0.4 0.4 0.8 1.2 0.8 1.7 0.1 0.5 0.2 1 0.3 1.2 0.2 0.1 0.5 1.3 0.7 2.7 0.3 1.4 0.9 2.7 1.4 2.8 0.6 0.2 1 1.9 1 3.8 0 1.9 0.5 3.4 1 3.4 0.6 0 1 1.6 1 3.5 0 1.9 0.5 3.5 1 3.5 0.6 0 1 1.6 1 3.5 0 1.9 0.5 3.5 1 3.5 0.6 0 1 1.8 1 4 0 2.2 0.5 4 1 4 0.6 0 1 0.6 0.9 1.3 -0.4 2.2 1.3 11.7 2.1 11.7 0.4 0 0.8 1.8 0.8 4.1 0.1 2.2 0.6 4.6 1.2 5.3 0.5 0.8 0.8 2.1 0.4 3 -0.3 0.9 -0.2 2.2 0.4 2.9 0.6 0.7 1.2 3.5 1.4 6.2 0.3 4.7 0.5 5 3.3 5.5 2.7 0.5 3.1 0.2 3.7 -2.5 0.5 -1.6 0.7 -5 0.7 -7.5z m-29.9 -0.3 c0 -2.4 -0.4 -4.7 -1 -5.3 -0.5 -0.5 -1.1 -2.4 -1.3 -4.2 -0.2 -1.8 -0.6 -3.5 -1 -3.8 -0.3 -0.3 -0.3 -1.3 0 -2.1 0.3 -0.8 0 -1.8 -0.7 -2.3 -0.6 -0.4 -1.2 -2.4 -1.2 -4.4 0 -2 -0.4 -3.6 -0.9 -3.6 -0.5 0 -0.9 -1.6 -0.9 -3.5 0 -1.9 -0.4 -3.5 -1 -3.5 -0.5 0 -1 -1.5 -1 -3.4 0 -1.9 -0.5 -3.6 -1.1 -3.8 -0.6 -0.2 -1.1 -1.6 -1.1 -3.1 0 -1.5 -0.4 -2.7 -0.8 -2.7 -0.8 0 -2.4 -5.8 -2.1 -7.4 0.1 -0.5 -0.3 -1.2 -0.9 -1.6 -0.6 -0.4 -1.2 -1.8 -1.3 -3.1 0 -1.3 -0.5 -2.6 -0.9 -2.9 -0.4 -0.3 -1 -1.7 -1.2 -3 -0.2 -1.4 -0.5 -2.7 -0.6 -3 -0.2 -0.3 -0.2 -0.8 -0.1 -1.2 0 -0.5 -0.3 -0.8 -0.9 -0.8 -0.5 0 -1 -1.1 -1 -2.5 0 -1.4 -0.4 -2.5 -0.9 -2.5 -0.5 0 -1.3 -1.5 -1.7 -3.2 -0.3 -1.8 -1.3 -4.3 -2.1 -5.5 -0.8 -1.2 -1.5 -2.6 -1.5 -3 -0.1 -1.2 -1.8 -5.4 -3.9 -9.4 -1 -2 -1.6 -3.9 -1.2 -4.3 0.3 -0.3 0.1 -0.6 -0.5 -0.6 -0.7 0 -1.2 -0.7 -1.2 -1.5 0 -3 -5.4 -11.5 -7.8 -12.3 -1.8 -0.6 -4.3 -4.6 -10.6 -16.7 -12.9 -25.2 -16.2 -30.5 -19.1 -30.5 -3.6 0 -3.1 -2.7 0.5 -3.5 1.7 -0.4 3 -0.9 3 -1.1 0 -1.2 -4.3 -8.7 -8.9 -15.7 -2.8 -4.2 -5.1 -7.9 -5.1 -8.2 0 -0.2 -2.5 -4 -5.5 -8.4 -3 -4.4 -5.5 -8.2 -5.5 -8.5 0 -0.3 -0.6 -1.4 -1.4 -2.3 -0.8 -1 -5.4 -7.2 -10.2 -13.8 -10.9 -15.1 -29.4 -38.9 -39.1 -50.3 -22.9 -26.8 -64 -67.6 -102.3 -101.3 -20 -17.6 -92.5 -69 -95.1 -67.3 -0.5 0.3 2.4 3.2 6.4 6.6 10.4 8.8 52.3 51 66.3 66.8 35.5 40.1 129.7 157.2 153.9 191.4 1.1 1.6 2.6 3.4 3.3 4.1 0.6 0.8 1.2 1.7 1.2 2 0 0.4 1.4 2.4 3 4.5 2.2 2.8 3.5 3.7 5.1 3.3 1.2 -0.4 2.5 0.1 3.4 1.3 1.6 2.1 22.4 33.3 26.8 40.2 1.5 2.3 3.2 4.2 3.7 4.2 1.8 0 1 2.8 -0.9 3.3 -2.2 0.5 -1.9 3.8 0.5 5.8 0.8 0.6 1.4 1.5 1.4 2 0 1 5 9 6.1 9.9 0.3 0.3 0.9 1.5 1.3 2.8 0.4 1.2 1.1 2.2 1.6 2.2 0.4 0 1.3 1.2 1.9 2.8 0.6 1.5 2 4.1 3.1 5.7 1.1 1.7 2.4 3.9 3 5 0.5 1.1 2.1 3.8 3.5 6 1.4 2.2 3 5.2 3.6 6.8 0.6 1.5 1.5 2.7 2 2.7 0.5 0 0.9 0.6 0.9 1.4 0 0.8 0.7 2.2 1.6 3 0.8 0.9 1.2 1.6 0.7 1.6 -0.4 0 -0.3 0.4 0.2 0.8 0.6 0.4 2 2.7 3.3 5.2 1.3 2.5 3.6 7 5.2 10 1.6 3 3.3 6 3.9 6.7 0.6 0.7 1.1 1.9 1.1 2.7 0 0.8 0.6 2.1 1.3 2.8 0.6 0.7 4.5 7.9 8.5 16 6.4 12.8 7.7 14.7 10 15.1 1.5 0.2 3 0.5 3.5 0.6 0.4 0 0.7 -1.8 0.7 -4.2z"/>
  <path d="M399 1187 c-0.8 -1.2 -2.9 -3.1 -4.7 -4.3 -1.7 -1.2 -3 -2.4 -2.8 -2.7 0.2 -0.3 -1.6 -0.5 -4 -0.5 -2.4 0 -4.1 0.3 -3.9 0.6 0.2 0.4 -0.3 1 -1.2 1.3 -1 0.4 -1.3 0.2 -0.8 -0.7 0.4 -0.6 -0.5 -0.1 -1.9 1.2 -2.9 2.6 -3.5 3.7 -1.4 2.5 0.6 -0.4 0.2 0.3 -1 1.5 -2.9 2.8 -3.3 2.7 -3.3 -1 0 -2.2 0.5 -3.2 1.9 -3.6 1.1 -0.3 2.1 -1.3 2.4 -2.3 0.5 -1.9 6.1 -4 10.9 -4 6.7 0 12.8 5 12.8 10.5 0 4 -0.9 4.4 -3 1.5z"/>
  <path d="M1548 1172.5 c0 -0.8 -0.9 -1.5 -1.9 -1.5 -1.1 0 -2.6 -0.6 -3.3 -1.4 -0.8 -0.7 -2.4 -1.7 -3.6 -2 -3 -1 -3.2 -5.7 -0.2 -4.9 1.1 0.3 2 1 2 1.7 0 0.6 0.5 0.4 1 -0.4 0.8 -1.3 1 -1.2 1 0.3 0 0.9 0.7 1.7 1.5 1.7 0.8 0 1.5 0.6 1.5 1.3 0 0.8 0.4 0.7 1 -0.3 0.8 -1.3 1 -1.2 1 0.3 0 1 0.8 2.1 1.8 2.4 1.8 0.7 4.2 2.8 4.2 3.7 0 0.3 -1.3 0.6 -3 0.6 -2 0 -3 -0.5 -3 -1.5z"/>
  <path d="M1709.2 1171 c-1.2 -1.2 -2.2 -2.7 -2.2 -3.4 0 -0.8 -0.9 -1.6 -2 -1.9 -1.5 -0.4 -2 -1.4 -2 -4.1 0 -2 0.3 -3.6 0.8 -3.6 0.4 0 2 1.9 3.5 4.2 1.5 2.3 2.7 3.6 2.7 2.9 0 -1.8 2.6 0.3 4.2 3.3 1.1 2 1 2 -0.8 0.6 -1.2 -0.9 -1 -0.4 0.5 1.3 l2.4 2.7 -2.4 0 c-1.4 0 -3.5 -0.9 -4.7 -2z"/>
  <path d="M1528 1159.9 c0 -1.4 0.5 -1.9 1.4 -1.6 0.8 0.3 1.7 0.1 2 -0.6 0.2 -0.7 0.5 -0.4 0.5 0.6 0.1 0.9 0.6 1.7 1.1 1.7 0.6 0 1 0.5 1 1 0 0.6 -1.3 1 -3 1 -2.4 0 -3 -0.4 -3 -2.1z"/>
  <path d="M1517.3 1156.7 c-2.5 -0.8 -3.3 -1.7 -3.3 -3.4 0 -2.5 0.7 -2.8 3 -1.3 0.9 0.6 1.7 0.5 2.2 -0.3 0.5 -0.8 0.8 -0.5 0.8 0.8 0 1.7 0.2 1.7 1 0.5 0.8 -1.3 1 -1.2 1 0.4 0 1.1 0.3 1.7 0.6 1.3 0.6 -0.6 3.4 1.6 3.4 2.7 0 0.9 -5.1 0.4 -8.7 -0.7z"/>
  <path d="M1604.2 1096.8 c-0.7 -0.7 -1.2 -2.3 -1.2 -3.6 0 -2.1 0.2 -2.2 1.5 -1.2 0.9 0.7 1.5 0.8 1.5 0.2 0 -0.5 1.4 0.3 3 1.8 1.7 1.5 3 3.1 3 3.4 0 1.1 -6.6 0.6 -7.8 -0.6z"/>
  <path d="M1275.8 893.3 c-1.5 -1.6 -3.2 -4.1 -3.7 -5.6 -1.4 -3.7 -1.4 -27 0 -43.3 2.2 -24.7 1.8 -27.1 -5.9 -35.6 -7.6 -8.4 -17.8 -14.4 -35.3 -20.6 -14.3 -5.1 -16.2 -6.1 -14.9 -7.7 0.8 -1 0.6 -1.7 -1.2 -2.9 -3.1 -2.2 -3.4 -2.1 -7.1 2.1 -1.8 2 -4.5 4.5 -6.2 5.5 -1.6 1 -2.4 1.8 -1.6 1.8 0.8 0 1.1 0.6 0.7 1.5 -0.3 0.8 -0.2 1.5 0.3 1.5 0.9 0 3.1 8.8 3.2 13.3 0.1 1.8 0.3 2.4 0.6 1.5 0.2 -1 1 -1.8 1.7 -1.8 0.9 0 1.5 2.6 2 8.8 0.3 4.8 1.1 13.1 1.8 18.4 1.2 9.5 1.1 10.1 -2 23.5 -1.8 7.6 -3.2 14.6 -3.2 15.6 0 0.9 -0.4 1.7 -1 1.7 -0.5 0 -1 1.1 -1 2.5 0 1.8 -0.5 2.5 -2 2.5 -1.8 0 -1.9 -0.3 -1 -2 0.6 -1.2 0.9 -3.3 0.7 -4.8 -0.4 -2.5 -0.4 -2.5 -0.6 0.4 -0.1 2.8 -0.5 3.2 -3.3 3.7 -4.8 0.7 -9.1 -3.6 -10.8 -11.1 -0.7 -3.1 -1.5 -6.1 -1.8 -6.6 -0.2 -0.4 -0.6 -2.8 -0.8 -5.3 -0.2 -2.4 -0.7 -4.9 -1.1 -5.6 -0.4 -0.7 -0.6 -2.4 -0.4 -3.9 0.1 -1.6 -0.1 -2.8 -0.6 -2.8 -0.5 0 -0.7 -1.6 -0.5 -3.5 0.2 -1.9 0 -3.5 -0.5 -3.5 -0.5 0 -0.7 -1.6 -0.5 -3.5 0.2 -1.9 0.1 -4.2 -0.2 -5.2 -0.4 -0.9 -0.8 -5.5 -1.1 -10.2 -0.2 -4.8 -1.3 -11.5 -2.4 -15.2 l-2.1 -6.7 -6.3 -0.4 c-3.4 -0.3 -6.5 -0.1 -6.8 0.4 -0.6 0.9 -8.4 0.7 -25.9 -0.5 -14.8 -0.9 -17.8 -1.9 -25.8 -8.5 -4.6 -3.7 -11 -12.6 -11.7 -16.1 -0.2 -1.2 -0.7 -2.7 -1.2 -3.4 -0.4 -0.6 -0.9 -2.3 -1.1 -3.7 -0.2 -1.3 -0.6 -2.7 -1 -3 -0.4 -0.3 -0.8 -1.8 -1 -3.5 -0.2 -1.6 -0.7 -3.2 -1 -3.5 -0.4 -0.3 -0.8 -2.3 -1 -4.5 -0.2 -2.2 -0.8 -4.2 -1.3 -4.3 -0.5 -0.2 -0.7 -0.7 -0.4 -1.2 0.5 -0.8 -1.2 -14.8 -2.2 -17.9 -0.6 -2.3 -0.5 -45.5 0.2 -47.3 0.4 -0.9 0.5 -5.5 0.3 -10.2 -0.2 -4.7 0.1 -8.6 0.5 -8.6 0.4 0 0.8 -3.5 0.8 -7.7 0 -4.3 0.3 -10.5 0.5 -13.8 0.9 -9.6 0 -10.8 -9 -12.2 -4.1 -0.7 -9 -2 -10.8 -2.9 -7.2 -3.6 -15.4 -11.8 -16.2 -16.1 -0.2 -1 -0.9 -3.8 -1.6 -6.3 -1.3 -4.5 -2.9 -27.8 -2.9 -42.3 0 -4.2 -0.3 -8.3 -0.7 -8.9 -0.4 -0.7 -0.7 -3.1 -0.5 -5.4 0.1 -2.3 -0.2 -4.5 -0.7 -4.8 -0.6 -0.3 -0.8 -1.5 -0.5 -2.5 1.1 -4.1 -3.9 -18 -10 -27.6 -5.2 -8.4 -9.9 -15.1 -15.1 -21.7 -7.6 -9.5 -24.9 -32.1 -31.5 -40.9 -2.7 -3.7 -6.2 -9.5 -7.9 -13 -3.6 -7.4 -6.5 -16.9 -5.2 -16.9 0.5 0 1.2 -0.9 1.5 -2.1 0.4 -1.2 1.4 -2.9 2.2 -3.9 3.1 -3.8 15 -15 15.8 -15 1.1 0 10.5 -6.4 10.5 -7.1 0 -0.5 0.5 -0.9 1.2 -0.9 1.7 0 16.8 -9.1 16.8 -10.1 0 -0.5 0.9 -0.9 2 -0.9 1 0 2.3 -0.6 2.7 -1.2 0.4 -0.7 2.5 -2.1 4.6 -3 2 -1 3.7 -2.2 3.7 -2.8 0 -0.5 0.7 -1 1.5 -1 0.8 0 1.5 -0.4 1.5 -0.8 0 -0.4 1.6 -1.4 3.6 -2.1 1.9 -0.7 3.8 -1.9 4.1 -2.7 0.3 -0.8 1.2 -1.4 2 -1.4 0.8 0 1.1 -0.4 0.8 -1 -0.3 -0.5 0.3 -1 1.4 -1 1.1 0 2.6 -0.6 3.3 -1.3 0.7 -0.7 2.8 -1.9 4.6 -2.6 1.8 -0.8 3.6 -1.9 4 -2.5 0.4 -0.6 3.3 -2.4 6.6 -4.1 3.2 -1.6 6.1 -3.6 6.3 -4.3 0.3 -0.6 1.4 -1.2 2.4 -1.2 1.1 0 2.2 -0.7 2.5 -1.5 0.4 -0.8 1.5 -1.5 2.5 -1.5 1.1 0 2.2 -0.7 2.5 -1.5 0.4 -0.8 1.5 -1.5 2.5 -1.5 1.1 0 2.2 -0.7 2.5 -1.5 0.4 -0.8 1.5 -1.5 2.5 -1.5 1.1 0 2.2 -0.7 2.5 -1.5 0.4 -0.8 1.5 -1.5 2.5 -1.5 1.1 0 2.2 -0.7 2.5 -1.5 0.4 -0.8 1.5 -1.5 2.5 -1.5 1.1 0 2.2 -0.7 2.5 -1.5 0.4 -0.8 1.2 -1.5 2 -1.5 1.6 0 9.7 -4.9 10.2 -6.1 0.2 -0.5 1.2 -0.9 2.3 -0.9 1.1 0 2.2 -0.7 2.5 -1.5 0.4 -0.8 1.5 -1.5 2.5 -1.5 1.1 0 2.2 -0.7 2.5 -1.5 0.4 -0.8 1.4 -1.5 2.3 -1.5 1 0 2.7 -0.9 3.9 -2 1.2 -1.1 2.8 -2 3.7 -2 0.9 0 1.8 -0.7 2.1 -1.5 0.4 -0.8 1.5 -1.5 2.5 -1.5 1.1 0 2.2 -0.7 2.5 -1.5 0.4 -0.8 1.4 -1.5 2.3 -1.5 1 0 2.7 -0.9 3.9 -2 1.2 -1.1 2.8 -2 3.7 -2 0.9 0 1.8 -0.7 2.1 -1.5 0.4 -0.8 1.4 -1.5 2.3 -1.5 1 0 2.7 -0.9 3.9 -2 1.2 -1.1 2.7 -2 3.5 -2 0.7 0 2.3 -0.9 3.5 -2 1.2 -1.1 2.7 -2 3.5 -2 0.7 0 2.2 -0.8 3.3 -1.8 1.1 -1 3.1 -2.2 4.5 -2.5 1.3 -0.3 3.4 -1.5 4.6 -2.7 1.2 -1.1 2.7 -2 3.4 -2 1.6 0 8.9 -4.2 8.9 -5.2 0 -0.4 0.7 -0.8 1.6 -0.8 1.8 0 8.7 -3.9 9.2 -5.2 0.2 -0.4 1.1 -0.8 1.9 -0.8 1.8 0 9.3 -4.1 9.3 -5.1 0 -0.3 1.2 -0.9 2.8 -1.2 1.5 -0.3 3.6 -1.4 4.7 -2.5 1.2 -1 3.2 -2.2 4.5 -2.5 1.4 -0.4 3.8 -1.8 5.4 -3.2 1.6 -1.4 3.7 -2.5 4.8 -2.5 1 0 2.8 -1 3.9 -2.1 1.2 -1.2 3.6 -2.5 5.3 -3 1.8 -0.5 4.2 -1.8 5.4 -2.9 1.1 -1.1 2.6 -2 3.3 -2 1.6 0 8.9 -4.2 8.9 -5.2 0 -0.4 0.7 -0.8 1.5 -0.8 1.9 0 17.4 -8.4 20.5 -11 1.3 -1.1 3 -2 3.8 -2 1.9 0 9.2 -4.1 9.2 -5.2 0 -0.4 0.7 -0.8 1.6 -0.8 2 0 9.4 -4.1 9.4 -5.2 0 -0.4 0.8 -0.8 1.8 -0.8 1.8 0 7.6 -3.2 9.9 -5.6 0.8 -0.8 2.1 -1.4 2.8 -1.4 1.9 0 20.5 -10.1 20.5 -11.2 0 -0.4 0.7 -0.8 1.6 -0.8 1.9 0 9.4 -4 9.4 -5.1 0 -0.3 1.2 -0.9 2.8 -1.2 1.5 -0.3 4 -1.8 5.6 -3.2 1.6 -1.4 3.7 -2.5 4.6 -2.5 0.9 0 2.5 -0.8 3.6 -1.8 1.1 -1 3.1 -2.2 4.5 -2.5 1.3 -0.3 3.4 -1.5 4.6 -2.7 1.2 -1.1 2.8 -2 3.6 -2 0.7 0 2.3 -0.9 3.5 -2 1.2 -1.1 2.8 -2 3.6 -2 0.8 0 2.7 -1.1 4.2 -2.5 1.5 -1.4 3.4 -2.5 4.4 -2.5 0.9 0 2.5 -0.8 3.6 -1.8 1.1 -1 3.1 -2.2 4.5 -2.5 1.3 -0.3 3.4 -1.5 4.6 -2.7 1.2 -1.1 2.9 -2 3.8 -2 0.8 0 2.3 -0.8 3.4 -1.9 1 -1 2.9 -2.1 4.2 -2.4 1.4 -0.3 3.4 -1.5 4.6 -2.7 1.2 -1.1 2.8 -2 3.6 -2 0.7 0 2.3 -0.9 3.5 -2 1.2 -1.1 2.7 -2 3.5 -2 0.7 0 2.3 -0.9 3.5 -2 1.2 -1.1 2.7 -2 3.5 -2 0.7 0 2.3 -0.9 3.5 -2 1.2 -1.1 2.8 -2 3.7 -2 0.8 0 2.4 -0.9 3.5 -2 1.1 -1.1 2.7 -2 3.4 -2 0.8 0 2.7 -1.1 4.2 -2.5 1.5 -1.4 3.4 -2.5 4.4 -2.5 0.9 0 2.6 -0.9 3.8 -2 1.2 -1.1 2.7 -2 3.5 -2 0.7 0 2.3 -0.9 3.5 -2 1.2 -1.1 2.7 -2 3.5 -2 0.7 0 2.3 -0.9 3.5 -2 1.2 -1.1 2.7 -2 3.5 -2 0.7 0 2.3 -0.9 3.5 -2 1.2 -1.1 2.7 -2 3.5 -2 0.7 0 2.3 -0.9 3.5 -2 1.2 -1.1 2.7 -2 3.5 -2 0.7 0 2.3 -0.9 3.5 -2 1.2 -1.1 2.7 -2 3.5 -2 0.7 0 2.3 -0.9 3.5 -2 1.2 -1.1 2.8 -2 3.7 -2 0.9 0 1.8 -0.7 2.1 -1.5 0.4 -0.8 1.4 -1.5 2.3 -1.5 1 0 2.7 -0.9 3.9 -2 1.2 -1.1 2.8 -2 3.6 -2 0.8 0 1.9 -0.6 2.3 -1.4 0.4 -0.8 1.7 -1.6 2.8 -1.8 1.1 -0.2 1.9 -1 1.7 -1.6 -0.1 -0.7 0.7 -1.2 1.7 -1.2 2.3 0 14.1 -6.8 14.1 -8.1 0 -0.5 0.9 -0.9 2 -0.9 1.1 0 2.9 -0.9 4.1 -2.1 1.1 -1.1 2.8 -1.8 3.7 -1.5 0.9 0.3 4.1 0.6 7.1 0.7 4.6 0.2 6.2 0.9 11.2 4.7 3.2 2.4 6.8 5.5 7.9 6.9 1.1 1.4 4.1 4.9 6.7 7.8 5.9 6.4 8.7 9.7 13.8 16 2.1 2.8 4.2 5.2 4.5 5.5 0.8 0.7 9.1 11.1 11.5 14.4 1.1 1.5 3.2 4.2 4.7 5.9 1.5 1.8 2.8 3.5 2.8 3.8 0 0.3 0.9 1.7 2 3 3.2 3.9 3.4 4.2 7 9.4 1.9 2.8 3.8 5.2 4.1 5.5 0.3 0.3 1.8 2.3 3.2 4.5 1.5 2.2 3.9 5.8 5.3 8 1.5 2.2 3 4.2 3.4 4.5 0.4 0.3 2 2.5 3.5 5 1.5 2.5 3.1 4.7 3.5 5 0.4 0.3 3.4 4.6 6.6 9.5 3.2 5 6.2 9.1 6.6 9.3 0.4 0.2 0.8 1 0.8 1.8 0 0.8 0.5 1.4 1 1.4 0.6 0 1 0.7 1 1.5 0 0.8 0.5 1.5 1 1.5 0.6 0 1 0.6 1 1.4 0 0.8 0.4 1.6 0.8 1.8 1.2 0.4 27.2 39.5 27.2 40.8 0 0.5 0.5 1 1 1 0.6 0 1 0.4 1 1 0 0.5 2 3.8 4.5 7.3 2.5 3.6 4.5 7 4.5 7.6 0 0.6 0.5 1.1 1 1.1 0.6 0 1 0.7 1 1.5 0 0.8 0.5 1.5 1 1.5 0.6 0 1 0.4 1 0.9 0 0.5 2.5 4.5 5.5 8.9 3 4.4 5.5 8.5 5.5 9.1 0 0.6 0.5 1.1 1 1.1 0.6 0 1 0.7 1 1.5 0 0.8 0.5 1.5 1 1.5 0.6 0 1 0.7 1 1.5 0 0.8 0.5 1.5 1 1.5 0.6 0 1 0.7 1 1.5 0 0.8 0.5 1.5 1 1.5 0.6 0 1 0.7 1 1.5 0 0.8 0.5 1.5 1 1.5 0.6 0 1 0.7 1 1.5 0 0.8 0.5 1.5 1 1.5 0.6 0 1 0.4 1 0.9 0 0.5 2.5 4.5 5.5 8.9 3 4.4 5.5 8.5 5.5 9.1 0 0.6 0.5 1.1 1 1.1 0.6 0 1 0.7 1 1.5 0 0.8 0.5 1.5 1 1.5 0.6 0 1 0.4 1 0.9 0 0.5 2.9 5.2 6.5 10.4 3.6 5.2 6.5 10 6.5 10.6 0 0.6 0.5 1.1 1 1.1 0.6 0 1 0.7 1 1.5 0 0.8 0.5 1.5 1 1.5 0.6 0 1 0.4 1 0.9 0 0.9 16.5 25.9 19 28.8 0.5 0.7 1 1.7 1 2.3 0 0.5 0.4 1 0.8 1 0.4 0 2.1 2.2 3.7 5 1.7 2.7 3.3 5 3.8 5 0.4 0 0.7 0.5 0.7 1 0 0.6 0.9 2 2 3.2 1.1 1.2 2.6 3.4 3.2 5 0.7 1.5 1.7 2.8 2.1 2.8 0.5 0 0.6 0.4 0.3 0.9 -0.4 0.5 -0.1 1.1 0.4 1.3 0.6 0.2 1.2 1.6 1.4 3.1 0.1 1.5 0.6 3 0.9 3.4 1 1 0.8 5.3 -0.2 5.3 -0.5 0 -0.7 0.9 -0.4 1.9 0.6 2.3 -3.5 10.1 -5.2 10.1 -0.6 0 -1.2 0.8 -1.2 1.7 0 0.9 -1.5 2.9 -3.3 4.3 -3.9 2.9 -7.7 6.7 -14.3 14.3 -2.6 3.1 -6.1 6.1 -7.7 6.9 -1.7 0.7 -3 1.8 -3 2.4 0 1.6 -6.6 7.3 -9.7 8.5 -1.3 0.5 -2.2 1.3 -1.9 1.8 0.7 1 -11.3 12.1 -13 12.1 -0.6 0 -2.3 1.7 -3.7 3.8 -2.8 4.2 -12.7 13.2 -14.6 13.2 -0.6 0 -1.6 1.1 -2.2 2.4 -1.5 3.3 -38.5 39.5 -41.5 40.6 -1.3 0.5 -2.3 1.4 -2.2 1.9 0.4 1.2 -12 13.1 -13.8 13.1 -0.8 0 -1.4 0.6 -1.4 1.4 0 1.7 -7.8 8.6 -9.7 8.6 -0.7 0 -1.3 0.6 -1.3 1.4 0 1.8 -6.6 7.6 -8.7 7.6 -0.9 0 -1.3 0.3 -1 0.7 1.1 1 -4.4 6.3 -6.5 6.3 -1 0 -1.8 0.6 -1.8 1.3 0 1.9 -4.3 5.7 -6.4 5.7 -0.9 0 -1.5 0.4 -1.2 0.9 0.4 0.5 -0.9 2.1 -2.6 3.6 -1.8 1.4 -4.8 3.9 -6.5 5.5 -1.8 1.7 -4 3 -4.9 3 -1 0 -1.4 0.3 -1.1 0.7 1.1 1 -3.4 5.3 -5.6 5.3 -1.1 0 -1.7 0.3 -1.4 0.7 1.1 1 -3.4 5.3 -5.6 5.3 -1.1 0 -1.7 0.3 -1.4 0.7 1.1 1.1 -4.5 6.3 -6.7 6.3 -1 0 -1.6 0.3 -1.3 0.7 1.1 1 -3.4 5.3 -5.6 5.3 -1.1 0 -1.7 0.3 -1.4 0.7 1.1 1 -3.4 5.3 -5.6 5.3 -1.1 0 -1.7 0.3 -1.4 0.7 1.1 1.1 -4.5 6.3 -6.7 6.3 -1 0 -1.6 0.3 -1.3 0.7 1.1 1 -3.4 5.3 -5.5 5.3 -1.1 0 -1.7 0.4 -1.4 0.9 0.8 1.2 -5 6.1 -7.1 6.1 -0.9 0 -1.3 0.3 -1 0.7 1.1 1 -3.4 5.3 -5.5 5.3 -1.1 0 -1.7 0.4 -1.4 0.9 0.8 1.2 -5 6.1 -7.1 6.1 -0.9 0 -1.3 0.3 -1 0.7 1.1 1 -3.4 5.3 -5.5 5.3 -1.1 0 -1.7 0.4 -1.4 0.9 0.4 0.5 -0.9 2.1 -2.6 3.6 -1.8 1.4 -5 4.2 -7 6 -2 1.9 -4.5 3.5 -5.4 3.5 -1 0 -1.4 0.3 -1.1 0.7 1.1 1.1 -4.5 6.3 -6.7 6.3 -1 0 -1.6 0.3 -1.3 0.7 1.1 1.1 -4.5 6.3 -6.7 6.3 -1 0 -1.6 0.3 -1.3 0.7 1.1 1.1 -4.5 6.3 -6.7 6.3 -1 0 -1.6 0.3 -1.3 0.7 1.1 1 -3.4 5.3 -5.6 5.3 -1.1 0 -1.7 0.3 -1.4 0.7 1.1 1 -3.4 5.3 -5.6 5.3 -1.1 0 -1.7 0.3 -1.4 0.7 1.1 1 -3.4 5.3 -5.6 5.3 -1.1 0 -1.7 0.3 -1.4 0.7 1.1 1 -2.4 4.3 -4.6 4.3 -1.1 0 -1.7 0.3 -1.4 0.7 1.1 1 -2.4 4.3 -4.6 4.3 -1.1 0 -1.7 0.3 -1.4 0.7 1.1 1 -2.4 4.3 -4.5 4.3 -1.1 0 -1.7 0.4 -1.4 0.9 0.8 1.2 -7.8 8.1 -10 8.1 -0.9 0 -1.4 0.3 -1.1 0.7 1.1 1 -1.3 3.3 -3.5 3.3 -1 0 -1.7 0.4 -1.4 0.9 0.6 0.9 -7.5 8.1 -9.1 8.1 -0.4 0 -1.4 0.9 -2.1 2 -0.7 1.1 -1.8 2 -2.5 2 -0.7 0 -1.8 0.9 -2.5 2 -0.7 1.1 -1.9 2 -2.7 2 -0.8 0 -1.5 0.4 -1.5 0.9 0 1.4 -11.7 10.1 -13.6 10.1 -0.9 0 -1.4 0.3 -1.1 0.7 1.1 1 -1.4 3.3 -3.6 3.3 -1.1 0 -1.7 0.3 -1.4 0.7 1.1 1 -1.4 3.3 -3.6 3.3 -1.1 0 -1.7 0.3 -1.4 0.7 1.1 1 -1.3 3.3 -3.5 3.3 -1 0 -1.7 0.4 -1.4 0.9 0.6 0.9 -12.5 12.1 -14.1 12.1 -0.5 0 -1.4 0.9 -2.1 2 -0.7 1.1 -2.1 2 -3.3 2 -1.1 0 -1.8 0.4 -1.5 0.9 0.7 1.1 -7.7 8.1 -9.9 8.1 -0.9 0 -1.4 0.4 -1.1 0.9 0.8 1.2 -7.8 8.1 -10 8.1 -0.9 0 -1.4 0.3 -1.1 0.7 1.1 1 -2.4 4.3 -4.6 4.3 -1.1 0 -1.7 0.3 -1.4 0.7 1.1 1 -2.4 4.3 -4.6 4.3 -1.1 0 -1.7 0.3 -1.4 0.7 1.1 1 -2.4 4.3 -4.6 4.3 -1.1 0 -1.7 0.3 -1.4 0.7 1.1 1 -3.4 5.3 -5.5 5.3 -1.1 0 -1.7 0.4 -1.4 0.9 0.8 1.2 -5 6.1 -7.1 6.1 -0.9 0 -1.3 0.3 -1 0.7 1.1 1 -4.4 6.3 -6.5 6.3 -1 0 -1.8 0.7 -1.8 1.4 0 1.7 -6 6.6 -8 6.6 -0.7 0 -1 0.3 -0.7 0.7 1.1 1 -4.4 6.3 -6.5 6.3 -1.1 0 -1.7 0.4 -1.4 0.9 0.8 1.2 -5 6.1 -7.1 6.1 -0.9 0 -1.3 0.3 -1 0.7 1.1 1 -2.4 4.3 -4.5 4.3 -1.1 0 -1.6 0.5 -1.3 1 0.3 0.6 0 1 -0.8 1 -0.8 0 -2 0.7 -2.7 1.5 -0.8 1 -3.1 1.5 -6.6 1.5 -4.1 0 -5.4 0.4 -5.4 1.5 0 2.3 -2.4 1.8 -5.2 -1.2z m25.6 -42 c2 -2.1 5.4 -5.2 7.4 -6.9 7.3 -6.2 12.6 -10.9 15.8 -14.1 1.8 -1.8 3.7 -3.3 4.2 -3.3 0.6 0 2.2 -1.3 3.5 -3 1.4 -1.6 3 -3 3.6 -3 0.5 0 1.8 -1.1 2.9 -2.5 1.1 -1.4 2.5 -2.5 3 -2.5 0.6 0 1.9 -1.1 3 -2.5 1.1 -1.4 2.5 -2.5 3 -2.5 0.6 0 1.9 -1.1 3 -2.5 1.1 -1.4 2.5 -2.5 3 -2.5 0.6 0 1.9 -1.1 3 -2.5 1.1 -1.4 2.5 -2.5 3.1 -2.5 0.6 0 1.6 -0.9 2.3 -2 0.7 -1.1 1.8 -2 2.5 -2 0.6 0 2 -1.1 3.1 -2.5 1.1 -1.4 2.5 -2.5 3.1 -2.5 0.6 0 1.6 -0.9 2.3 -2 0.7 -1.1 1.7 -2 2.3 -2 0.6 0 3.2 -2 5.9 -4.5 2.7 -2.5 5.3 -4.5 5.8 -4.5 0.4 0 1.3 -0.9 2 -2 0.7 -1.1 1.8 -2 2.5 -2 0.7 0 1.8 -0.9 2.5 -2 0.7 -1.1 1.8 -2 2.5 -2 0.7 0 1.8 -0.9 2.5 -2 0.7 -1.1 1.8 -2 2.5 -2 0.7 0 1.8 -0.9 2.5 -2 0.7 -1.1 1.8 -2 2.5 -2 0.7 0 1.8 -0.9 2.5 -2 0.7 -1.1 1.8 -2 2.5 -2 0.7 0 1.8 -0.9 2.5 -2 0.7 -1.1 1.8 -2 2.5 -2 0.7 0 1.8 -0.9 2.5 -2 0.7 -1.1 1.8 -2 2.5 -2 0.7 0 1.8 -0.9 2.5 -2 0.7 -1.1 1.8 -2 2.5 -2 0.7 0 1.8 -0.9 2.5 -2 0.7 -1.1 1.8 -2 2.4 -2 0.6 0 3 -1.8 5.4 -4 2.4 -2.2 4.7 -4 5.2 -4 0.4 0 1.3 -0.9 2 -2 0.7 -1.1 1.8 -2 2.5 -2 0.7 0 1.8 -0.9 2.5 -2 0.7 -1.1 1.8 -2 2.5 -2 0.6 0 2 -1.1 3.1 -2.5 1.1 -1.4 2.5 -2.5 3.1 -2.5 0.6 0 1.6 -0.9 2.3 -2 0.7 -1.1 1.8 -2 2.5 -2 0.6 0 2 -1.1 3.1 -2.5 1.1 -1.4 2.5 -2.5 3 -2.5 0.6 0 1.9 -1.1 3 -2.5 1.1 -1.4 2.4 -2.5 3 -2.5 0.6 0 2.2 -1.3 3.5 -3 1.4 -1.6 3 -3 3.6 -3 0.5 0 1.8 -1.1 2.9 -2.5 1.1 -1.4 2.4 -2.5 3 -2.5 0.6 0 2.2 -1.3 3.5 -3 1.4 -1.6 3 -3 3.6 -3 0.6 0 2.3 -1.6 3.8 -3.5 1.5 -1.9 3.3 -3.5 4 -3.5 0.7 0 2.4 -1.6 3.9 -3.5 1.4 -1.9 3.2 -3.5 4 -3.5 0.7 0 2.6 -1.6 4.1 -3.5 1.5 -1.9 3.3 -3.5 4 -3.5 0.7 0 2.5 -1.6 4 -3.5 1.5 -1.9 3.3 -3.5 3.9 -3.5 0.7 0 2.6 -1.6 4.3 -3.5 1.7 -1.9 3.4 -3.5 3.8 -3.5 0.7 0 2.2 -1.3 10.8 -9.7 1.9 -1.8 3.8 -3.3 4.3 -3.3 0.6 0 2.2 -1.3 3.5 -3 1.4 -1.6 2.9 -3 3.4 -3 0.7 0 2.2 -1.3 10.8 -9.7 1.9 -1.8 3.8 -3.3 4.4 -3.3 0.6 0 2.3 -1.6 3.8 -3.5 1.5 -1.9 3.3 -3.5 4 -3.5 0.6 0 2.3 -1.3 3.6 -3 1.4 -1.6 3 -3 3.5 -3 0.6 0 2.4 -1.6 4.1 -3.5 1.7 -1.9 3.5 -3.5 4 -3.5 0.5 0 2.1 -1.3 3.4 -3 1.4 -1.6 3 -3 3.5 -3 0.6 0 2.2 -1.3 3.5 -3 1.4 -1.6 3 -3 3.5 -3 0.6 0 2.2 -1.3 3.5 -3 1.4 -1.6 3 -3 3.5 -3 0.6 0 2.2 -1.3 3.5 -3 1.4 -1.6 3 -3 3.5 -3 0.6 0 2.4 -1.6 4.1 -3.5 1.7 -1.9 3.5 -3.5 4 -3.5 0.5 0 2.1 -1.3 3.4 -3 1.4 -1.6 3 -3 3.5 -3 0.6 0 2.4 -1.6 4.1 -3.5 1.7 -1.9 3.4 -3.5 3.8 -3.5 0.8 0 3.2 -2.2 13.4 -12.4 2.6 -2.5 5 -4.6 5.5 -4.6 0.5 0 2.9 -2.2 5.4 -4.8 2.5 -2.6 6.1 -5.8 8 -7.3 1.9 -1.4 6 -5.5 9 -9.2 3 -3.6 6 -6.6 6.6 -6.6 0.5 -0.1 10.7 -9.5 22.5 -21 22.5 -21.9 34.7 -33.6 45.6 -43.6 14.1 -12.8 18.2 -16.7 28.6 -26.9 5.9 -5.7 10.7 -10.7 10.7 -11.1 0 -0.4 -1.5 -2.7 -3.2 -5.2 -8.2 -11.4 -31.8 -46.2 -31.8 -46.9 0 -0.3 -3.8 -6.1 -8.5 -12.9 -4.7 -6.8 -8.5 -12.6 -8.5 -13 0 -0.4 -3.8 -6.2 -8.5 -13 -4.7 -6.8 -8.5 -12.6 -8.5 -13 0 -0.4 -4.7 -7.6 -10.5 -16.1 -5.8 -8.5 -10.5 -15.7 -10.5 -16 0 -0.3 -2.9 -4.8 -6.5 -9.9 -3.6 -5.2 -6.5 -9.6 -6.5 -9.9 0 -0.8 -51.5 -77.1 -58.8 -87 -1.2 -1.7 -3.3 -4.7 -4.7 -6.6 -1.4 -1.9 -3.5 -4.9 -4.7 -6.6 -1.3 -1.8 -4 -5.6 -6 -8.5 -7.3 -10.5 -36.2 -46.2 -45.2 -55.6 l-4 -4.3 -3.4 2 c-1.8 1.1 -4.3 2 -5.4 2 -1.2 0 -1.8 0.3 -1.4 0.7 0.9 0.9 -7.9 6.3 -10.4 6.3 -1.1 0 -1.9 0.5 -1.8 1.2 0.2 0.7 -1 1.5 -2.7 1.9 -1.6 0.4 -2.5 0.7 -2 0.8 1.8 0.2 -8.4 6.1 -10.7 6.1 -1.2 0 -1.8 0.3 -1.5 0.7 1 1 -2.5 3.2 -5.2 3.3 -1.3 0 -2.1 0.3 -1.8 0.7 1 1 -2.5 3.2 -5.2 3.3 -1.3 0 -2.1 0.3 -1.8 0.7 1 1 -2.5 3.2 -5.2 3.3 -1.3 0 -2.1 0.3 -1.8 0.7 1 1 -2.5 3.2 -5.2 3.3 -1.3 0 -2.1 0.3 -1.8 0.7 1 1 -2.5 3.2 -5.2 3.3 -1.3 0 -2.1 0.3 -1.8 0.7 1 0.9 -2.5 3.2 -5.1 3.3 -1.2 0 -2.1 0.5 -2 1.2 0.2 0.6 -1 1.6 -2.7 2.2 -1.6 0.6 -3.2 1.3 -3.5 1.6 -1.6 1.7 -6.2 4 -8.1 4 -1.2 0 -1.9 0.3 -1.6 0.7 1.1 1 -4.5 4.3 -7.2 4.3 -1.3 0 -2.1 0.3 -1.8 0.7 1 1 -2.5 3.2 -5.2 3.3 -1.3 0 -2.1 0.3 -1.8 0.7 1.1 1 -4.5 4.3 -7.2 4.3 -1.3 0 -2.1 0.3 -1.8 0.7 1 1 -2.5 3.2 -5.2 3.3 -1.3 0 -2.1 0.3 -1.8 0.7 1.1 1 -4.5 4.3 -7.2 4.3 -1.3 0 -2.1 0.3 -1.8 0.7 1.1 1 -4.5 4.3 -7.2 4.3 -1.3 0 -2.1 0.3 -1.8 0.7 0.9 0.9 -4.2 3.9 -8.1 4.8 -1.8 0.3 -3 1 -2.8 1.4 0.7 1.1 -12.2 8.1 -14.7 8.1 -1.1 0 -1.7 0.3 -1.4 0.7 1.1 1 -4.5 4.3 -7.2 4.3 -1.3 0 -2.1 0.3 -1.8 0.7 1.1 1 -4.5 4.3 -7.2 4.3 -1.3 0 -2.1 0.3 -1.8 0.7 1 0.9 -6.4 5.2 -9.1 5.3 -1.3 0 -2.1 0.4 -1.8 0.9 0.7 1.1 -8.6 6.1 -11.5 6.1 -1.2 0 -1.9 0.3 -1.6 0.7 1 1 -8.4 6.3 -11.2 6.3 -1.3 0 -2.1 0.3 -1.8 0.7 1 1 -8.4 6.3 -11.2 6.3 -1.3 0 -2.1 0.3 -1.8 0.7 1 1 -8.4 6.3 -11.2 6.3 -1.3 0 -2.1 0.3 -1.8 0.7 1 1 -8.4 6.3 -11.2 6.3 -1.3 0 -2.1 0.3 -1.7 0.7 1 1 -10.5 7.3 -13.3 7.3 -1.3 0 -2.1 0.3 -1.8 0.7 1 1 -8.4 6.3 -11.2 6.3 -1.3 0 -2.1 0.3 -1.8 0.7 1 1 -6.4 5.2 -9.2 5.3 -1.3 0 -2.1 0.3 -1.8 0.7 1 1 -6.4 5.2 -9.2 5.3 -1.3 0 -2.1 0.3 -1.8 0.7 1 0.9 -6.4 5.2 -9.1 5.3 -1.3 0 -2.1 0.4 -1.8 0.8 0.7 1.2 -6.6 5.2 -9.5 5.2 -1.2 0 -1.9 0.3 -1.6 0.7 1 0.9 -6.4 5.2 -9.1 5.3 -1.3 0 -2.1 0.4 -1.8 0.9 0.7 1.1 -8.6 6.1 -11.5 6.1 -1.2 0 -1.9 0.3 -1.6 0.7 1 1 -8.4 6.3 -11.1 6.3 -1.3 0 -2.1 0.4 -1.7 1 0.7 1.2 -4.6 4 -7.6 4 -1.2 0 -1.9 0.3 -1.6 0.7 1.1 1 -4.5 4.3 -7.2 4.3 -1.3 0 -2.1 0.3 -1.8 0.7 1 1 -2.5 3.2 -5.2 3.3 -1.3 0 -2.1 0.3 -1.8 0.7 1 1 -2.5 3.2 -5.2 3.3 -1.3 0 -2.1 0.3 -1.8 0.7 1 1 -2.5 3.2 -5.2 3.3 -1.3 0 -2.1 0.3 -1.7 0.7 0.9 1 -8 6.3 -10.6 6.3 -1.2 0 -1.8 0.3 -1.4 0.7 0.9 1 -8 6.3 -10.6 6.3 -1.2 0 -1.8 0.3 -1.4 0.7 0.9 1 -8 6.3 -10.6 6.3 -1.2 0 -1.8 0.3 -1.4 0.7 0.9 1 -8 6.3 -10.6 6.3 -1.2 0 -1.8 0.3 -1.4 0.7 0.9 0.9 -7.9 6.3 -10.4 6.3 -1.1 0 -1.9 0.6 -1.7 1.3 0.1 0.7 -1 1.3 -2.6 1.5 -1.5 0.2 -2.5 0.7 -2.3 1.1 0.6 1 -16.5 11.1 -18.8 11.1 -0.9 0 -1.5 0.4 -1.2 0.9 0.7 1.1 -12.3 9.1 -14.8 9.1 -0.9 0 -1.4 0.5 -1.1 1 0.3 0.6 0.1 1 -0.4 1 -0.6 0 -2 0.9 -3.1 2 -1.1 1.1 -3.4 2.3 -5 2.7 -1.6 0.3 -2.7 0.9 -2.5 1.4 0.7 1 -4.7 3.9 -7 3.9 -0.9 0 -1.4 0.4 -1.1 0.9 0.3 0.5 -4.9 4.1 -11.7 8.1 -9.8 5.9 -18.8 11.7 -22.7 14.8 -0.3 0.2 0.4 0.8 1.5 1.4 2.5 1.4 37.7 35.6 42 40.9 3.8 4.6 9.5 13.4 9.5 14.7 0 0.6 0.4 1.2 0.9 1.2 0.5 0 1.3 1 1.7 2.3 0.4 1.2 1 2.4 1.3 2.7 2.6 1.9 13.4 22.8 12.5 24.2 -0.3 0.4 -0.1 0.8 0.4 0.8 1 0 3.2 10.1 3.3 15 0.6 16.9 0.8 20.8 1.4 22.3 0.4 0.9 0.5 2.9 0.3 4.2 -0.3 1.4 -0.1 2.5 0.3 2.5 0.5 0 0.9 1 0.9 2.3 0.1 6.1 6.7 12.9 18 18.5 7.7 3.9 13.1 7.5 15.8 10.7 3.4 3.9 6.2 8.7 5.6 9.7 -0.3 0.4 0 0.8 0.6 0.8 0.7 0 1 0.7 0.6 1.5 -0.3 0.8 -0.2 1.5 0.3 1.5 1.1 0 3.5 14.5 2.7 15.9 -0.4 0.6 -0.3 1.1 0.2 1.1 0.5 0 1 7 1 16.5 0 9.1 -0.3 16.5 -0.6 16.5 -0.4 0 -0.5 2.2 -0.4 5 0.2 2.7 0 5 -0.5 5 -0.5 0 -0.7 1.8 -0.5 4 0.2 2.2 0 4 -0.5 4 -0.5 0 -0.7 1.6 -0.5 3.5 0.2 1.9 0 3.5 -0.5 3.5 -0.5 0 -0.7 1.8 -0.5 4 0.2 2.2 0 4 -0.5 4 -0.4 0 -0.7 2 -0.5 4.5 0.2 2.5 0 4.5 -0.4 4.5 -0.5 0 -0.7 2.5 -0.6 5.5 0.2 3 0 5.5 -0.6 5.5 -0.5 0 -0.8 2 -0.8 4.5 0.1 2.5 0.4 4.5 0.7 4.5 0.3 0 0.9 2.4 1.2 5.3 1.1 8.6 1.2 9.2 1.7 9.7 0.3 0.3 1.4 2.4 2.4 4.8 2 4.3 8.3 11.2 12.7 13.7 13.5 7.9 24.7 11.2 43.6 13 17.2 1.6 22.1 3.2 28.9 9.5 2.3 2.1 7.3 5.4 11.1 7.3 7.5 3.8 21.3 9 21.3 8.1 0 -0.4 0.6 -0.2 1.3 0.3 0.6 0.5 5 2.5 9.7 4.3 14.5 5.8 27.8 16.3 32.7 25.9 1 2 2.1 3.8 2.5 4.1 1.3 1 4.9 13.5 4.5 15.7 -0.2 1.3 0 2.3 0.5 2.3 0.6 0 0.8 5.5 0.6 13.4 -0.2 7.9 0.1 13.7 0.7 14.4 1.8 2 4.1 1.2 7.9 -2.5z m-97.5 -74 c2 -1.4 3.8 -2.8 4.1 -3 0.8 -0.7 -2.4 -2.3 -4.7 -2.3 -1.3 0 -2.3 0.6 -2.3 1.4 0 0.7 -0.9 1.6 -1.9 1.9 -1.4 0.3 -1.8 1.1 -1.4 2.6 0.7 2.8 1.9 2.7 6.2 -0.6z m-6.9 -8.9 c0.6 -1.5 0.3 -2.4 -1 -3.2 -2.5 -1.5 -6.5 1.5 -5.4 4.1 0.9 2.5 5.4 1.9 6.4 -0.9z m-37.5 -4.8 c2.9 -1.5 2.6 -2 -2.3 -3.1 -2.5 -0.5 -3.8 -0.3 -5.3 1.1 -1 0.9 -1.9 2.1 -1.9 2.6 0 1.3 6.5 0.9 9.5 -0.6z m-18.9 -2.2 c3.4 -2.6 4.5 -5.4 2.2 -5.4 -1.3 0.1 -8.8 6.5 -8.8 7.5 0 1.3 3.5 0.2 6.6 -2.1z m-8.6 -9.6 c0 -0.5 -0.7 -1.1 -1.6 -1.5 -2.1 -0.8 -7.9 5.8 -6.1 6.9 1.1 0.7 7.7 -3.8 7.7 -5.4z"/>
  <path d="M1399.5 713 c-0.3 -0.5 -1.1 -0.7 -1.9 -0.4 -0.7 0.3 -2.6 -0.1 -4.2 -0.7 -1.6 -0.7 -3.4 -1.3 -4.1 -1.5 -2.8 -0.5 -13.4 -7.7 -15.9 -10.7 -5 -5.9 -9.7 -17.5 -10.2 -25.3 -1 -14.8 6.7 -18.5 11.3 -5.4 0.8 2.4 1.6 5.8 1.8 7.7 0.1 1.8 0.5 3.3 0.9 3.3 0.3 0 0.9 1.4 1.3 3 0.4 1.7 1.1 3 1.6 3 0.5 0 0.9 0.6 0.9 1.4 0 2.3 7.8 8.3 12.8 10 7 2.4 12.5 2.1 16.1 -1 3.1 -2.6 4.3 -7.6 2.1 -8.9 -0.6 -0.4 -0.8 -1.1 -0.4 -1.6 0.3 -0.5 0 -1.6 -0.6 -2.4 -0.7 -0.8 -0.9 -1.5 -0.5 -1.5 0.4 0 0.2 -0.7 -0.5 -1.5 -0.7 -0.8 -0.9 -1.5 -0.5 -1.5 0.4 0 0.2 -0.7 -0.5 -1.5 -0.7 -0.8 -0.9 -1.5 -0.5 -1.5 0.4 0 0 -1.1 -0.9 -2.5 -0.9 -1.4 -1.4 -2.5 -1.1 -2.5 0.3 0 -0.1 -1.3 -1 -3 -0.8 -1.6 -1.6 -3.3 -1.6 -3.7 -0.1 -0.5 -0.6 -1.7 -1.2 -2.8 -0.6 -1.1 -1.2 -2.2 -1.2 -2.5 -0.5 -2.8 -1.8 -7.7 -2.3 -8.4 -0.8 -1.4 -0.2 -15.7 0.9 -20.1 1.1 -4.3 4.5 -11.6 6.9 -14.9 2.7 -3.7 10.9 -11.6 11.9 -11.6 0.6 0 1.1 -0.4 1.1 -1 0 -0.5 0.7 -1 1.5 -1 1.5 0 4.7 -1.5 7.5 -3.6 1.8 -1.4 1.8 -1.4 14.5 -1.8 6 -0.3 10.5 0 11.2 0.6 0.7 0.6 1.3 0.7 1.3 0.3 0 -0.4 0.6 -0.3 1.3 0.3 0.6 0.6 1.5 1.1 2 1.1 2.4 0.2 12.2 5.9 16.3 9.6 5.2 4.5 12.7 14.6 12.7 17.1 0 0.8 0.4 1.4 0.8 1.4 0.4 0 1.1 1.5 1.5 3.3 1 4.1 0.9 3.9 2 6.2 1.3 3 1.1 22.8 -0.2 23.2 -0.7 0.2 -1 1.2 -0.7 2.2 0.8 3 -2.8 6.3 -7.1 6.5 -4.3 0.2 -6.6 -1.4 -6.7 -4.7 -0.5 -14 -1 -18 -2.8 -23.1 -2.4 -6.9 -3.8 -9.2 -8.9 -14.8 -3.3 -3.7 -13.8 -10 -17.2 -10.3 -0.8 -0.1 -3.2 -0.5 -5.2 -0.9 -2.2 -0.4 -3.8 -0.3 -3.8 0.2 0 0.5 -1 1.2 -2.2 1.5 -5.2 1.2 -9.5 3.4 -12.4 6.5 -1.7 1.7 -3.6 3.2 -4.2 3.2 -0.6 0 -0.9 0.6 -0.6 1.4 0.3 0.8 -0.3 2.3 -1.3 3.3 -1 1 -1.7 2.6 -1.5 3.6 0.2 0.9 0 1.7 -0.5 1.7 -0.4 0 -0.8 2.5 -0.8 5.5 0 3 0.4 5.5 0.9 5.5 0.4 0 0.6 0.9 0.3 2 -0.3 1.1 -0.1 2 0.3 2 0.8 0 2.3 5.2 2 6.6 -0.1 0.4 0.3 1 1 1.4 0.6 0.4 1.2 1.7 1.3 2.8 0.1 1.2 0.4 2.2 0.8 2.2 0.8 0 2.4 5.9 2.1 7.3 -0.1 0.4 0.3 0.7 0.9 0.7 0.6 0 0.9 0.6 0.6 1.4 -0.3 0.7 -0.2 1.7 0.3 2.2 2.2 2.4 3.9 18.4 1.9 18.4 -0.5 0 -0.7 0.5 -0.4 1.1 1.3 2 -0.5 5.8 -4.8 10.4 -2.4 2.5 -5.2 4.5 -6.4 4.5 -1.1 0 -2.4 0.7 -2.7 1.6 -0.4 1 -1.3 1.3 -2.5 0.9 -1.1 -0.3 -2.2 -0.1 -2.6 0.5 -0.8 1.3 -9.2 1.3 -10 0z"/>
  <path d="M1339.1 637 c-12.2 -6.8 -25.7 -20.8 -28.2 -29 -1.2 -4 -1.2 -4.2 1.9 -7.2 l3.1 -3.1 6.8 4.1 c3.7 2.3 10.4 7.8 14.7 12.2 4.3 4.4 8.6 8 9.4 8 0.9 0 3.9 -2.4 6.7 -5.2 2.8 -2.9 7.1 -6.9 9.5 -8.9 l4.4 -3.7 -7.3 -7.8 c-8.8 -9.4 -10.9 -13.2 -9.5 -17.2 1.5 -4.3 5.6 -4.5 13.4 -0.4 3.6 1.9 8.5 5.3 11 7.6 5 4.7 7.8 5 10.7 1.2 1 -1.3 2.4 -2.5 3 -2.7 1.2 -0.4 13.1 -10.9 20 -17.6 1.9 -1.8 3.6 -3.3 3.8 -3.3 1.1 0 8 -5.7 8.2 -6.8 0.2 -0.6 -0.8 -1.9 -2.1 -2.7 -1.4 -0.9 -5 -4.8 -8.1 -8.6 -4.9 -6.1 -5.6 -7.6 -5.3 -10.7 0.3 -3.7 0.3 -3.7 5.2 -4 6.5 -0.4 13.6 3.1 21.2 10.6 8 7.8 10.4 11.1 10.4 14.5 0 5.3 -5.6 13.7 -9.2 13.7 -1 0 -1.8 0.7 -1.8 1.5 0 0.9 -0.7 1.8 -1.6 2.2 -0.9 0.3 -3 1.9 -4.7 3.4 -1.7 1.6 -3.9 2.9 -4.9 2.9 -1 0 -1.7 0.5 -1.5 1.1 0.1 0.6 -0.7 1.6 -1.8 2.2 -1.1 0.7 -2.4 1.8 -2.8 2.5 -0.4 0.6 -1.7 1.2 -2.7 1.2 -1.1 0 -1.9 0.5 -1.7 1.2 0.1 0.6 -0.8 1.4 -2.1 1.7 -1.3 0.3 -2.2 1 -2 1.5 0.2 0.5 -0.6 1.4 -1.7 2 -1.1 0.6 -2.6 1.9 -3.3 2.9 -0.7 0.9 -2.2 1.7 -3.2 1.7 -1 0 -2.2 0.9 -2.5 2.1 -0.4 1.1 -2.1 2.7 -3.8 3.4 -1.8 0.7 -3 1.7 -2.8 2.2 0.3 0.4 -1.2 1.9 -3.2 3.3 -2 1.4 -4.4 3.5 -5.2 4.8 -0.9 1.2 -2.2 2.2 -3 2.2 -0.8 0 -1.9 0.9 -2.5 2 -0.6 1.1 -1.9 2 -3 2 -1 0 -2.2 0.9 -2.5 2.1 -0.4 1.1 -2.1 2.7 -3.8 3.4 -1.8 0.8 -2.8 1.4 -2.3 1.5 1.8 0 -3.7 5 -5.6 5 -1 0 -1.7 0.5 -1.5 1.2 0.2 1 -1.2 1.9 -7.5 5 -2.6 1.2 -4.9 0.9 -8.7 -1.2z"/>
  <path d="M1557.8 595.4 c-0.5 -0.4 -6.6 -1.3 -11 -1.5 -1 0 -2 -0.4 -2.3 -1 -0.4 -0.5 -1.3 -0.9 -2.1 -0.9 -2.2 0 -9.7 -6 -13.3 -10.6 -8 -10.4 -8.2 -28.2 -0.4 -34.1 3.2 -2.4 3.4 -2.5 5.8 -0.9 1.4 0.9 2.3 2.1 2 2.6 -0.4 0.6 -0.1 1 0.4 1 0.6 0 1.1 2 1.1 4.4 0 2.4 0.8 6.7 1.7 9.6 3.2 10.1 13.9 15.6 22 11.4 4.1 -2.1 7.3 -4.9 7.3 -6.4 0 -0.5 0.4 -1 0.8 -1 0.5 0 1.5 -1.9 2.3 -4.2 1.1 -3.3 1.4 -10.5 1.4 -29.5 0 -13.9 0.3 -25.3 0.6 -25.3 0.3 0 0.9 -2.4 1.3 -5.2 0.6 -5.2 1.9 -9.3 4.7 -15.3 1.8 -3.9 10.8 -16.5 11.8 -16.5 0.4 0 2.3 -1.4 4.2 -3.1 4.6 -4.1 12.7 -8.1 15 -7.4 1.1 0.4 1.9 0.2 1.9 -0.3 0 -1.7 13 -0.2 20.8 2.4 8.9 3 13.2 5.9 17 11.7 1.5 2.3 3.1 4.5 3.7 4.9 0.7 0.5 0.7 0.8 0 0.8 -0.5 0 -0.4 0.4 0.4 0.9 0.8 0.5 1.4 2.3 1.5 4 0 1.7 0.4 3.1 0.9 3.1 0.4 0 0.7 2 0.7 4.5 0 2.5 -0.4 4.5 -0.8 4.5 -0.4 0 -0.6 1.6 -0.4 3.5 0.2 1.9 0 3.5 -0.4 3.5 -0.5 0 -0.9 1.9 -1 4.1 0 2.9 -0.6 4.6 -1.9 5.5 -1 0.8 -1.5 1.4 -1.1 1.4 0.5 0 0.3 0.7 -0.4 1.5 -1.8 2.1 -6.4 1.9 -8.5 -0.5 -1.1 -1.2 -1.9 -4 -2.2 -7.2 -0.2 -2.9 -0.6 -6.4 -1 -7.8 -0.3 -1.4 -0.5 -2.9 -0.4 -3.4 0.5 -2.3 -3.3 -9.8 -6.4 -12.5 -3.5 -3 -11.3 -5.3 -17 -4.9 -3.3 0.2 -12.1 6.3 -14.5 9.9 -0.8 1.2 -2.4 3.3 -3.5 4.4 -1.1 1.2 -2.1 2.8 -2.2 3.6 -0.1 0.8 -0.6 3.8 -1.2 6.8 -0.6 2.9 -1.1 7.1 -1.1 9.2 0 2.2 -0.3 3.9 -0.7 3.9 -0.5 0 -0.7 9 -0.6 20 0.1 11 -0.2 20 -0.6 20 -0.5 0 -0.6 1 -0.4 2.3 0.5 2.6 -3.4 13.7 -4.8 13.7 -0.6 0 -0.7 0.5 -0.4 1 0.3 0.6 0.2 1 -0.4 1 -0.6 0 -0.8 0.6 -0.5 1.3 0.5 1.3 -4.1 6.7 -5.7 6.7 -0.5 0 -0.9 0.6 -0.9 1.4 0 1.7 -7.3 6.6 -9.9 6.6 -1.1 0 -2.3 0.5 -2.7 1.1 -0.3 0.6 -1.7 0.8 -3.1 0.4 -1.4 -0.3 -3.1 -0.1 -3.7 0.4 -0.7 0.6 -1.5 0.8 -1.8 0.5z"/>
  <path d="M1298 578.1 c-11.6 -3.5 -19.1 -14.9 -15.9 -23.9 1.5 -4.3 5.2 -5.3 7.9 -2.2 1.1 1.3 2 2.7 2 3.1 0 3.9 10.6 9.3 13.5 6.9 0.8 -0.7 1.9 -0.9 2.5 -0.5 0.6 0.4 1.7 0.1 2.5 -0.5 0.8 -0.6 1.9 -0.9 2.4 -0.6 1.2 0.8 8.5 -2.1 13 -5.1 1.9 -1.3 4.2 -2.3 5.3 -2.3 1 0 2.1 -0.7 2.4 -1.5 0.4 -0.8 1.2 -1.5 2 -1.5 0.8 0 1.4 -0.4 1.4 -1 0 -0.5 0.5 -1 1.1 -1 1.3 0 12.9 -8 12.9 -8.9 0 -0.3 1.2 -1.2 2.8 -1.8 8 -3.6 27.2 -23.7 27.2 -28.5 0 -2.2 -14 -7.6 -17.8 -6.9 -0.8 0.1 -2 -0.3 -2.8 -1 -0.8 -0.6 -1.4 -0.8 -1.4 -0.4 0 0.5 -0.8 0.1 -1.9 -0.9 -2.3 -2.1 -1.7 -6.3 1.5 -9.3 2.1 -1.9 3.2 -2.1 12.1 -1.8 13.1 0.4 17.4 1.8 22.3 7.3 2.2 2.4 3.7 4.8 3.4 5.3 -0.3 0.5 0 0.9 0.7 0.9 0.6 0 0.9 0.8 0.6 2 -0.3 1.1 -0.1 2 0.4 2 0.5 0 0.9 0.9 0.9 2 0 1.1 -0.4 2 -0.9 2 -0.4 0 -0.6 1.1 -0.4 2.3 0.3 1.3 -0.2 3 -0.9 3.8 -0.8 0.8 -1.3 2 -1 2.7 0.2 0.6 -0.3 1.5 -1.2 1.8 -0.9 0.3 -1.3 1 -1 1.5 0.6 1 0 1.8 -7 9.5 -2.8 3 -5.7 5.4 -6.6 5.4 -0.9 0 -2.2 1.1 -2.8 2.5 -0.7 1.6 -2 2.5 -3.3 2.5 -1.2 0 -1.9 0.3 -1.6 0.7 1.1 1 -1.3 3.3 -3.4 3.3 -1.1 0 -1.9 0.7 -1.9 1.6 0 0.9 -0.9 1.8 -1.9 2.1 -1.1 0.3 -2.2 1.1 -2.5 1.9 -0.3 0.8 -1.5 1.4 -2.6 1.4 -1.1 0 -1.9 0.6 -1.7 1.2 0.1 0.7 -0.8 1.4 -2.1 1.6 -1.2 0.2 -2 0.8 -1.7 1.3 0.4 0.5 -0.5 1.3 -1.9 1.9 -1.4 0.5 -2.6 1.3 -2.6 1.7 0 1.2 -8.1 6 -11.2 6.8 -1.6 0.4 -2.5 1.1 -2.2 1.6 0.3 0.5 -0.6 0.9 -2 0.9 -1.3 0 -2.6 0.5 -2.8 1.1 -0.2 0.7 -1.9 1.3 -3.7 1.4 -1.9 0.2 -3.7 0.8 -4 1.4 -1.1 1.7 -10.7 4.2 -13.6 3.5 -1.5 -0.4 -2.5 -0.2 -2.5 0.5 0 1.2 -6.1 1.3 -10 0.2z"/>
  <path d="M1255.6 528.3 c-0.3 -0.4 -1.7 -0.8 -2.9 -1 -6.7 -1 -20.6 -14.4 -24 -23.1 -2.2 -5.6 -2.4 -14.7 -0.4 -19.4 1.5 -3.5 8.8 -11.4 12.6 -13.6 1.2 -0.7 4 -2.2 6.2 -3.4 2.1 -1.1 4.1 -2.3 4.4 -2.7 0.5 -0.9 7.3 -1.5 14 -1.3 7.1 0.3 8.1 0.6 16.9 4.8 2.8 1.3 5.5 2.4 6.1 2.4 0.6 0 1.7 -1.7 2.4 -3.7 1.6 -4.5 9.2 -20.6 10 -21.3 1 -0.8 3.1 -4.4 3.7 -6.2 0.4 -1 1 -1.8 1.4 -1.8 0.5 0 1.3 -1.2 2 -2.7 1.5 -3.7 4 -8.1 6.8 -12 1.2 -1.7 2.2 -3.6 2.2 -4.2 0 -0.6 0.5 -1.1 1 -1.1 0.6 0 1 -0.7 1 -1.5 0 -0.8 0.5 -1.5 1 -1.5 0.6 0 1 -0.5 1 -1 0 -0.6 0.5 -1.6 1 -2.3 4.9 -5.6 8.9 -9.6 10.7 -10.5 3.2 -1.8 7.8 -1.4 9.6 0.6 1.8 1.9 2.4 8.2 0.8 8.2 -0.5 0 -0.7 0.9 -0.4 2 0.3 1.2 -0.1 2.2 -1.1 2.6 -0.9 0.3 -1.3 1 -1.1 1.5 0.6 0.8 -2.7 8 -4.6 10.3 -2.2 2.6 -11.9 17.9 -11.9 18.7 0 0.5 -0.7 0.9 -1.6 0.9 -0.8 0 -1.3 0.4 -1 0.9 0.7 1 -9 16.1 -10.4 16.1 -0.5 0 -0.7 0.6 -0.4 1.3 0.3 0.8 -0.2 2 -1.1 2.7 -0.8 0.7 -1.5 1.9 -1.5 2.6 0 0.8 -0.7 1.4 -1.5 1.4 -0.9 0 -1.2 0.6 -0.9 1.5 0.4 1 0 1.5 -1.1 1.5 -0.9 0 -1.3 0.5 -1 1 0.4 0.6 0.1 1.8 -0.6 2.6 -0.9 1.1 -0.9 1.8 0 2.7 1.3 1.3 6.5 -1.1 10.7 -5 1.4 -1.3 2.9 -2.3 3.5 -2.3 0.5 0 0.9 -0.4 0.9 -1 0 -0.5 0.7 -1 1.5 -1 0.8 0 1.5 -0.4 1.5 -1 0 -0.5 0.6 -1 1.4 -1 0.7 0 2.5 -1.1 4 -2.5 1.5 -1.4 3.1 -2.5 3.7 -2.5 0.5 0 0.9 -0.4 0.9 -1 0 -0.5 0.6 -1 1.4 -1 0.7 0 2.4 -1 3.8 -2.2 1.3 -1.3 3.6 -2.9 5.1 -3.7 1.5 -0.8 4.2 -2.7 5.9 -4.3 1.7 -1.5 3.8 -2.8 4.5 -2.8 0.8 0 3.2 -0.9 5.4 -2 4.8 -2.5 10.2 -2.8 12.3 -0.8 0.8 0.9 1.2 1.8 0.9 2.2 -0.4 0.3 -0.1 0.6 0.5 0.6 1.3 0 1.6 3.9 0.4 5.5 -0.4 0.6 -1.5 1.5 -2.6 2 -1 0.6 -1.7 1.3 -1.5 1.5 0.8 1 -5.5 7 -7.3 7 -1 0 -1.7 0.6 -1.5 1.2 0.1 0.7 -0.8 1.4 -2.1 1.6 -1.2 0.2 -2 0.8 -1.7 1.3 0.4 0.5 -0.1 1.2 -1 1.6 -1 0.3 -2.9 1.7 -4.3 2.9 -1.4 1.3 -3.1 2.4 -3.8 2.4 -0.8 0 -1.4 0.5 -1.4 1 0 0.6 -0.9 1 -2.1 1 -1.1 0 -1.7 0.5 -1.4 1 0.3 0.6 -0.3 1 -1.5 1 -1.2 0 -1.8 0.5 -1.5 1 0.3 0.6 -0.3 1 -1.5 1 -1.2 0 -1.9 0.4 -1.6 0.9 0.6 0.9 -6.5 6.1 -8.3 6.1 -0.5 0 -1.1 0.4 -1.3 0.8 -0.4 1.2 -9.5 7.2 -10.7 7.2 -0.6 0 -1.1 0.5 -1.1 1 0 0.6 -1.2 1.6 -2.7 2.3 -1.6 0.6 -3.7 2 -4.7 2.9 -1.1 1 -2.8 1.8 -3.8 1.8 -1.1 0 -1.6 0.5 -1.3 1 0.3 0.6 -0.3 1 -1.5 1 -1.2 0 -1.8 0.4 -1.5 1.1 0.4 0.6 -0.2 1.3 -1.4 1.6 -1.2 0.3 -2.1 0.9 -2.1 1.4 0 0.5 -0.6 0.9 -1.4 0.9 -0.8 0 -1.6 0.7 -2 1.5 -0.3 0.8 -1.2 1.5 -2.1 1.5 -0.8 0 -1.5 0.4 -1.5 0.9 0 0.8 -11.3 8.7 -15.5 10.8 -1.1 0.6 -2.5 0.8 -3.2 0.6 -0.6 -0.2 -1.4 0.1 -1.8 0.6 -0.7 1.2 -9.8 1.5 -10.9 0.4z m9.6 -16.5 c1.6 -1.3 4.3 -3.5 6 -5 1.6 -1.6 3.3 -2.8 3.8 -2.8 0.5 0 1.7 -1.1 2.8 -2.5 1.1 -1.4 2.4 -2.5 2.9 -2.5 0.5 0 2.6 -1.6 4.7 -3.5 2.1 -1.9 4.2 -3.5 4.7 -3.5 0.4 0 1.1 -0.5 1.4 -1 0.5 -0.8 -6.5 -4.9 -9.7 -5.6 -0.5 -0.1 -0.9 -0.2 -1 -0.3 -0.2 -0.2 -1.3 -0.4 -2.6 -0.7 -1.3 -0.2 -3.3 -0.9 -4.5 -1.6 -1.2 -0.6 -3.8 -1.3 -5.7 -1.5 -1.9 -0.1 -5.4 -0.5 -7.7 -0.8 -2.4 -0.2 -4.3 -0.1 -4.3 0.4 0 0.4 -2.2 2.2 -4.9 3.9 -4.6 3 -10.3 10.2 -8.1 10.2 0.6 0 1 1.1 1 2.5 0 1.4 0.5 2.5 1 2.5 0.6 0 1 0.6 1 1.3 0 2.5 12.2 12.6 15.3 12.7 0.5 0 2.2 -1 3.9 -2.2z"/>
  <path d="M1496.2 510.9 c-1.3 -0.5 -5 -2.7 -8.2 -5 -7.3 -5.1 -12.7 -12.6 -13.7 -18.9 -0.2 -1.4 -0.6 -3.2 -1 -4 -1.5 -3.7 1.8 -15.8 6.5 -23.3 4.5 -7.4 24.3 -27.7 27 -27.7 0.4 0 2.2 -1.3 4 -3 1.8 -1.6 3.7 -3 4.3 -3 0.5 0 0.9 -0.4 0.9 -1 0 -0.5 0.6 -1 1.3 -1 0.8 0 2.2 -0.9 3.2 -2 1 -1.1 2.4 -2 3.2 -2 0.7 0 1.3 -0.4 1.3 -1 0 -0.5 0.7 -1 1.5 -1 0.8 0 1.5 -0.4 1.5 -1 0 -0.5 0.6 -1 1.4 -1 0.8 0 2.1 -0.6 2.8 -1.2 0.7 -0.7 3 -2.2 5.1 -3.2 2 -1.1 3.7 -2.3 3.7 -2.8 0 -0.4 0.7 -0.8 1.5 -0.8 0.8 0 1.5 -0.4 1.5 -1 0 -0.5 0.7 -1 1.5 -1 0.9 0 1.8 -0.7 2.1 -1.5 0.4 -0.8 1.2 -1.5 1.9 -1.5 0.7 0 1.5 -0.3 1.7 -0.7 0.2 -0.5 2.5 -1.9 5.1 -3.3 2.7 -1.4 5.6 -3.2 6.6 -4.1 2.4 -2.3 6.2 -4.2 6.9 -3.5 0.3 0.3 1.6 -0.1 3 -1 1.3 -0.8 2.6 -1.3 2.9 -1 0.4 0.3 1.1 0.2 1.7 -0.4 1.7 -1.3 8.5 0.5 10.7 2.9 1 1.1 1.9 2.9 1.9 4 0 2.1 -3.7 6.9 -8.7 11.4 -1.8 1.6 -3.3 3.2 -3.3 3.6 0 0.3 1.6 1.5 3.6 2.6 3.7 2 10.4 9.3 10.4 11.4 0 0.6 0.5 1.1 1.1 1.1 0.5 0 0.8 0.4 0.4 0.9 -0.3 0.5 -0.1 1.2 0.5 1.6 0.6 0.4 0.8 1.1 0.5 1.6 -0.4 0.5 -0.1 0.9 0.5 0.9 0.7 0 1 0.7 0.6 1.5 -0.3 0.8 -0.1 1.5 0.5 1.5 0.7 0 0.9 1.2 0.7 3 -0.3 1.7 -0.1 3 0.4 3 0.4 0 0.8 1.1 0.8 2.5 0 1.4 -0.4 2.5 -0.9 2.5 -0.4 0 -0.6 1.1 -0.3 2.5 0.2 1.5 0 2.5 -0.7 2.5 -0.7 0 -1 0.4 -0.7 0.9 0.9 1.3 -1.7 7.1 -3.2 7.1 -0.7 0 -1 0.4 -0.7 1 0.6 1 -7.1 9 -8.7 9 -0.4 0 -0.8 0.4 -0.8 0.9 0 0.5 -2.8 2.4 -6.2 4.1 -3.5 1.7 -7.4 3.7 -8.8 4.5 -1.4 0.8 -3.5 1.2 -4.7 0.9 -1.4 -0.4 -2.3 -0.2 -2.3 0.6 0 1.7 -13.1 0.6 -18.5 -1.6 -6.1 -2.4 -13.6 -8.7 -17.2 -14.6 -2.1 -3.4 -3.9 -6.5 -3.9 -7 -0.1 -0.4 -0.3 -1.1 -0.4 -1.5 -0.1 -0.5 -0.2 -1.6 -0.1 -2.5 0.1 -1 -0.3 -1.8 -0.9 -1.8 -0.6 0 -0.8 -0.4 -0.5 -1 1.3 -2.1 -1.5 -0.9 -4.7 2 -1.8 1.7 -4 3 -5 3 -1 0 -1.8 0.5 -1.8 1 0 1.4 -10.7 12 -12 12 -0.6 0 -0.8 0.5 -0.5 1 0.3 0.6 0 1.3 -0.9 1.6 -0.8 0.3 -1.2 1.2 -1 1.9 0.3 0.7 -0.3 2.2 -1.3 3.2 -1.1 1.1 -1.8 2.4 -1.5 3.1 0.2 0.6 -0.2 2 -0.8 3.1 -0.7 1.4 -0.7 2.1 0 2.1 0.5 0 1 0.6 1 1.4 0 1.9 3.6 9.7 5.7 12.3 1 1.1 4 3.5 6.7 5.2 3.5 2.2 5.1 3.9 5.3 5.6 0.3 2 -0.1 2.5 -1.7 2.5 -1.1 0 -2 0.5 -2 1 0 1.2 -4.7 1.2 -7.8 -0.1z m59.8 -50.8 c0 -0.5 1.3 -0.9 2.8 -0.9 2.9 0.1 9.2 -3 9.2 -4.4 0 -0.4 0.5 -0.8 1.2 -0.8 0.6 0 2.9 -1.9 5.1 -4.2 3.7 -3.9 3.9 -4.4 3.4 -9.1 -0.2 -2.7 -0.8 -5.2 -1.4 -5.6 -0.5 -0.3 -1.9 -2.2 -3 -4.1 -1.2 -1.9 -3.9 -5.2 -6.1 -7.3 -3.2 -3.1 -4.4 -3.7 -6.5 -3.1 -1.5 0.3 -2.4 1 -2.1 1.5 0.3 0.5 -0.2 0.9 -1 0.9 -0.9 0 -1.6 0.5 -1.6 1 0 0.6 -0.7 1 -1.5 1 -0.8 0 -1.5 0.4 -1.5 1 0 0.5 -1.8 1.5 -4 2.1 -2.1 0.7 -3.7 1.6 -3.4 2 0.2 0.4 -1.4 1.3 -3.6 2 -2.2 0.7 -3.8 1.4 -3.6 1.6 0.2 0.3 -0.5 1.4 -1.6 2.5 -1.5 1.5 -1.7 2.2 -0.7 3.4 0.6 0.7 0.9 2.3 0.6 3.4 -0.3 1.1 -0.2 2 0.3 2 0.4 0 1.1 1.5 1.4 3.4 0.7 3.8 8.8 12.1 11 11.3 0.7 -0.3 1.9 -0.1 2.7 0.4 1.8 1.1 3.9 1.1 3.9 0z"/>
  <path d="M1216.5 456.3 c-7.1 -3.7 -12.8 -9 -16.1 -14.9 -6.5 -11.6 -3 -19.2 7 -15 2 0.8 6.1 3.8 9.1 6.7 6.1 5.7 8.9 6.1 11.9 1.4 0.9 -1.4 2.2 -2.5 2.9 -2.5 0.6 0 3.2 -1.8 5.6 -4 2.4 -2.2 4.7 -4 5 -4 0.4 0 2.4 -1.6 4.5 -3.5 2.1 -1.9 4.2 -3.5 4.6 -3.5 0.4 0 1 -0.7 1.4 -1.5 0.3 -0.8 0.2 -1.5 -0.3 -1.5 -0.8 0 -2.2 -2.3 -5.7 -9.5 -0.8 -1.6 -1.8 -3.6 -2.3 -4.4 -0.4 -0.9 0 -3.1 1.1 -5.3 3 -6.2 8 -5.2 17.5 3.6 l6 5.6 4.4 -3.2 c2.4 -1.7 4.6 -3.5 4.7 -4 0.2 -0.4 1 -0.8 1.8 -0.8 0.8 0 1.7 -0.7 2 -1.5 0.4 -0.8 1.2 -1.5 1.9 -1.5 0.6 0 2.3 -1.1 3.7 -2.4 1.4 -1.2 3.3 -2.6 4.2 -2.9 0.9 -0.4 1.6 -1.1 1.6 -1.7 0 -0.5 0.7 -1 1.5 -1 0.8 0 1.5 -0.4 1.5 -1 0 -0.5 0.7 -1 1.5 -1 0.9 0 1.8 -0.6 2.1 -1.4 0.3 -0.8 1.6 -1.7 3 -2 3 -0.8 3 -1.9 0.2 -5.9 -2.2 -3 -6 -10.4 -6.2 -11.9 -0.1 -0.3 -0.4 -0.9 -0.7 -1.3 -1.3 -1.3 0.8 -6 3.2 -7.4 4.3 -2.4 7.7 -0.6 17.2 8.9 4.9 4.9 8.6 9.4 8.3 9.9 -0.4 0.5 -0.2 1.2 0.4 1.6 1.3 0.8 1.3 9.5 -0.1 9.5 -0.5 0 -0.7 0.5 -0.4 1 0.3 0.6 0.1 1 -0.5 1 -0.6 0 -0.8 0.4 -0.5 1 0.5 0.8 -1.8 3.4 -8.6 9.6 -0.9 0.8 -2.1 1.4 -2.7 1.4 -0.7 0 -1.2 0.4 -1.2 0.8 0 0.5 -1.2 1.5 -2.7 2.3 -1.5 0.8 -3.8 2.4 -5.1 3.7 -1.4 1.2 -3.1 2.2 -3.8 2.2 -0.8 0 -1.4 0.5 -1.4 1 0 0.6 -0.9 1 -2.1 1 -1.1 0 -1.7 0.5 -1.4 1 0.3 0.6 -0.3 1 -1.5 1 -1.2 0 -1.9 0.4 -1.6 0.9 0.7 1.1 -3.7 4.1 -5.9 4.1 -0.9 0 -1.3 0.5 -1 1.1 0.4 0.6 -0.2 1.3 -1.4 1.6 -1.2 0.3 -2.1 0.9 -2.1 1.4 0 0.5 -0.9 0.9 -2.1 0.9 -1.2 0 -1.7 0.4 -1.4 1.1 0.4 0.6 -0.2 1.3 -1.4 1.6 -1.2 0.3 -2.1 0.9 -2.1 1.4 0 0.5 -0.9 0.9 -2 0.9 -1.1 0 -1.9 0.5 -1.7 1 0.1 0.6 -1.1 1.8 -2.8 2.8 -1.6 0.9 -3.1 2 -3.3 2.5 -0.2 0.4 -1.3 0.7 -2.3 0.7 -1.1 0 -1.8 0.4 -1.5 0.9 0.7 1 -6.7 6.1 -8.9 6.1 -0.8 0 -1.4 0.5 -1.2 1 0.1 0.6 -1.1 1.8 -2.8 2.8 -1.6 0.9 -3.1 2 -3.3 2.5 -0.2 0.4 -1 0.7 -1.8 0.7 -0.8 0 -1.4 0.5 -1.4 1 0 0.6 -0.9 1 -2.1 1 -1.1 0 -1.7 0.4 -1.4 1 0.3 0.5 -0.7 1.6 -2.2 2.2 -1.5 0.7 -3.7 2.1 -4.7 3 -2.1 1.9 -2.9 2.1 -5.8 1.9 -1 -0.1 -1.8 0.3 -1.8 0.8 0 1.6 -3 1.3 -6.5 -0.6z"/>
  <path d="M1449.4 442.9 c-2.7 -3 -1.8 -5.7 3.4 -10.6 2.5 -2.4 4.7 -4.3 4.9 -4.3 0.4 0 4.1 -3 6.5 -5.2 1 -1 2.3 -1.8 2.8 -1.8 0.6 0 1 -0.4 1 -1 0 -0.5 1.6 -1.6 3.5 -2.5 1.9 -0.9 4.5 -2.7 5.8 -3.9 1.4 -1.3 3.2 -2.6 4.1 -2.9 0.9 -0.4 1.6 -1.1 1.6 -1.7 0 -0.5 0.5 -1 1 -1 1.2 0 1.7 -0.4 7.5 -5.5 2.2 -1.9 4.5 -3.5 5 -3.5 0.6 0 2.5 -1.6 4.4 -3.5 1.9 -1.9 3.8 -3.5 4.4 -3.5 2.3 0 19.7 -18 21.8 -22.5 2.6 -5.5 2.4 -6 -2.1 -8 -3.2 -1.4 -4.5 -1.6 -6.3 -0.7 -2.7 1.4 -8.7 2.7 -10.6 2.3 -0.8 -0.1 -1.7 0.2 -2 0.7 -1 1.6 -16.3 9.2 -18.4 9.2 -1.1 0 -1.7 0.3 -1.4 0.7 0.6 0.6 -5.4 5.3 -6.8 5.3 -0.4 0 -1.3 0.7 -2.1 1.5 -0.9 0.8 -2.4 1.5 -3.5 1.5 -1.1 0 -1.7 0.5 -1.4 1 0.3 0.6 -0.3 1 -1.5 1 -1.2 0 -1.8 0.5 -1.5 1 0.3 0.6 0.1 1 -0.5 1 -0.6 0 -2 0.9 -3.2 2 -1.2 1.1 -3 2 -4 2 -1 0 -1.7 0.5 -1.5 1.2 0.1 0.6 -0.8 1.4 -2.1 1.7 -1.3 0.3 -2.2 1 -2 1.4 0.4 1 -8 6.7 -9.9 6.7 -0.7 0 -1.3 0.5 -1.3 1 0 0.6 -0.9 1 -2.1 1 -1.1 0 -1.8 0.4 -1.5 0.9 0.4 0.5 -1.5 1.9 -4 3.2 -4.3 2.1 -4.8 2.1 -7.3 0.6 -1.5 -0.9 -2.5 -2.4 -2.4 -3.6 0 -1.2 0.1 -2.9 0.2 -3.9 0.1 -1.9 4.7 -8 8.6 -11.4 6.3 -5.6 7.4 -6.6 8.9 -7.1 0.9 -0.4 1.6 -1.1 1.6 -1.7 0 -0.5 0.6 -1 1.4 -1 0.7 0 2.5 -1.1 4 -2.5 1.5 -1.4 3.1 -2.5 3.7 -2.5 0.5 0 0.9 -0.4 0.9 -1 0 -0.5 0.7 -1 1.5 -1 0.8 0 2.3 -0.8 3.3 -1.8 1 -1 3.2 -2.4 5 -3.1 1.7 -0.7 4.2 -2.3 5.5 -3.5 1.3 -1.1 4 -2.9 6 -3.8 2 -1 3.7 -2.2 3.7 -2.8 0 -0.5 0.6 -1 1.3 -1 0.7 0 2.9 -0.8 5 -1.9 2 -1 5.4 -2.6 7.4 -3.5 2.1 -0.9 4.5 -2 5.3 -2.5 2.1 -1.2 10.5 -3.8 16.5 -5.1 3.6 -0.8 6.8 -0.8 11.9 0.1 6.4 1 7.3 1.5 12.3 6.5 3 3 5.2 5.8 4.8 6.4 -0.3 0.5 -0.1 1 0.4 1 0.7 0 1.1 2.3 1.1 5.5 0 3 -0.4 5.5 -0.9 5.5 -0.5 0 -0.7 0.8 -0.4 1.9 0.2 1 -0.2 2.4 -1 3.2 -0.7 0.8 -1.2 2 -0.9 2.7 0.2 0.6 -0.3 1.5 -1.2 1.8 -0.9 0.3 -1.4 1 -1.1 1.5 0.8 1.1 -1.7 4.9 -3.2 4.9 -0.7 0 -1 0.6 -0.8 1.3 0.3 0.6 -1.3 2.5 -3.5 4.1 -2.2 1.6 -3.8 3.2 -3.5 3.4 0.3 0.3 -0.5 1 -1.8 1.6 -1.2 0.7 -3.1 2.6 -4.2 4.4 -1.1 1.7 -3.2 3.7 -4.7 4.4 -1.6 0.7 -2.8 1.8 -2.8 2.5 0 0.6 -0.9 1.4 -1.9 1.8 -1.1 0.3 -2.2 1.2 -2.5 2 -0.3 0.8 -1.2 1.5 -2.1 1.5 -0.9 0 -2.9 1.6 -4.6 3.5 -1.7 1.9 -3.8 3.5 -4.6 3.5 -0.7 0 -2.4 1.1 -3.7 2.5 -1.3 1.4 -3.1 2.5 -4 2.5 -1 0 -1.4 0.5 -1.1 1 0.3 0.6 -0.3 1 -1.5 1 -1.2 0 -1.9 0.4 -1.6 0.9 0.4 0.5 -0.7 1.2 -2.4 1.6 -1.6 0.4 -2.8 1.2 -2.7 1.8 0.1 0.7 -1 1.3 -2.6 1.5 -1.5 0.2 -2.5 0.7 -2.2 1.2 0.3 0.5 -0.6 1.2 -2 1.6 -1.4 0.3 -2.5 1 -2.5 1.4 0 0.5 -2.4 2.1 -5.2 3.6 -2.9 1.5 -6.9 3.5 -8.8 4.5 -4.8 2.6 -10.2 2.5 -12.6 -0.2z"/>
  <path d="M1191.6 409.3 c-0.4 -0.5 -1.2 -0.8 -1.6 -0.8 -4 0 -21.2 -20 -30.5 -35.6 -0.6 -0.9 -2.3 -3.5 -3.8 -5.6 -1.5 -2.2 -2.9 -4.8 -3.1 -5.9 -0.2 -1 -0.9 -3.2 -1.5 -4.7 -3.1 -7.9 0.1 -14.6 6.8 -14.1 3.9 0.3 7.3 3.3 14.4 12.7 4.4 5.9 5.3 6.6 6.3 5.3 0.6 -0.9 1.5 -1.6 2 -1.6 0.5 0 2.4 -1.3 4.2 -3 1.8 -1.6 3.5 -3 3.7 -3 1 0 10.5 -6.4 10.5 -7 0 -0.4 1.1 -1.1 2.5 -1.4 1.4 -0.4 3.3 -1.4 4.3 -2.4 1 -0.9 3.4 -2.5 5.5 -3.4 2 -1 3.7 -2.2 3.7 -2.8 0 -0.5 0.7 -1 1.5 -1 0.8 0 1.5 -0.4 1.5 -1 0 -0.5 0.6 -1 1.4 -1 0.8 0 1.6 -0.3 1.8 -0.7 0.2 -0.5 2 -1.6 4 -2.7 2 -1 4.6 -2.7 5.6 -3.6 1 -1 2.8 -2.1 4 -2.4 1.2 -0.4 2.2 -1.2 2.2 -1.7 0 -0.5 0.9 -0.9 2 -0.9 1.1 0 2.3 -0.7 2.6 -1.5 0.4 -0.8 1.4 -1.5 2.5 -1.5 1 0 2.2 -0.6 2.6 -1.2 0.4 -0.7 2.5 -2.1 4.6 -3 2 -1 3.7 -2.2 3.7 -2.8 0 -0.5 0.7 -1 1.5 -1 0.8 0 1.5 -0.4 1.5 -1 0 -0.5 0.5 -1 1.1 -1 1 0 9.9 -5.7 10.9 -7 0.3 -0.4 1.5 -1 2.8 -1.4 1.2 -0.4 2.2 -1.1 2.2 -1.5 0 -1 3.8 -2.5 10.5 -4.1 2.8 -0.7 5.6 -1.4 6.3 -1.6 2.3 -0.7 7.2 5.1 7.2 8.5 0 3 -5.5 10.1 -7.9 10.1 -0.6 0 -1.1 0.5 -1.1 1 0 0.6 -0.9 1 -2.1 1 -1.1 0 -1.7 0.5 -1.4 1 0.3 0.6 -0.3 1 -1.5 1 -1.2 0 -1.8 0.5 -1.5 1 0.3 0.6 -0.3 1 -1.5 1 -1.2 0 -1.9 0.4 -1.6 0.9 0.4 0.5 -0.7 1.5 -2.4 2.3 -1.6 0.7 -3 1.6 -3 2 0 0.5 -0.7 0.8 -1.5 0.8 -0.8 0 -1.5 0.5 -1.5 1 0 0.6 -0.5 1 -1.1 1 -0.6 0 -1.7 0.7 -2.5 1.5 -0.9 0.8 -2.4 1.5 -3.5 1.5 -1 0 -1.8 0.6 -1.6 1.3 0.1 0.7 -1 1.3 -2.6 1.5 -1.5 0.2 -2.5 0.7 -2.2 1.2 0.6 1 -6.5 5 -9 5 -0.8 0 -1.4 0.6 -1.2 1.3 0.1 0.7 -1 1.3 -2.6 1.5 -1.5 0.2 -2.5 0.7 -2.2 1.2 0.6 1 -4.6 4 -7 4 -0.9 0 -1.3 0.5 -1 1 0.3 0.6 -0.3 1 -1.5 1 -1.2 0 -1.8 0.5 -1.5 1 0.3 0.6 -0.1 1 -0.9 1 -0.9 0 -1.6 0.5 -1.6 1 0 0.6 -1.7 1.8 -3.7 2.8 -2.1 0.9 -4.2 2.3 -4.6 3 -0.4 0.6 -1.9 1.2 -3.3 1.2 -1.4 0 -2.2 0.4 -1.9 1 0.3 0.5 -0.6 1.2 -2 1.6 -1.4 0.3 -2.5 0.9 -2.5 1.3 0 0.3 -2.1 1.8 -4.7 3.1 -2.6 1.4 -5.7 3.3 -6.8 4.3 -1.1 1 -3.2 2.1 -4.7 2.4 -1.5 0.3 -2.5 0.9 -2.3 1.4 0.3 0.4 -0.8 1.5 -2.4 2.4 -1.6 0.8 -3.2 1.9 -3.5 2.3 -0.3 0.5 1.7 4.2 4.4 8.3 2.8 4.1 5 8 5 8.7 0 0.6 0.5 1.2 1.1 1.2 0.5 0 0.8 0.4 0.4 0.9 -0.3 0.5 -0.1 1.2 0.4 1.6 1.7 1 0.6 9.6 -1.4 11.1 -2.1 1.5 -4.8 1.8 -5.9 0.7z"/>
  <path d="M1419.8 372.5 c-0.3 -0.4 -2.4 -0.8 -4.6 -0.9 -4.9 -0.4 -13 -5.3 -17.1 -10.5 -7.2 -9.1 -9.1 -23.5 -4 -29.9 1.9 -2.5 3 -3 5.3 -2.6 3 0.5 6.9 4 6.1 5.4 -0.3 0.5 0 1 0.5 1.2 0.6 0.2 1.2 1.3 1.3 2.6 0 1.2 0.5 2.2 1 2.2 0.4 0 0.6 0.4 0.2 0.9 -0.3 0.5 1.5 3.1 3.9 5.8 l4.5 4.8 7 -0.1 c3.9 -0.1 7.8 -0.7 8.6 -1.4 0.8 -0.6 1.8 -0.9 2.3 -0.6 1.3 0.8 11 -2.2 14.8 -4.5 1.7 -1 4 -1.9 5 -1.9 1.1 0 3.9 -1.4 6.3 -3 2.4 -1.7 5.1 -3 6 -3 0.9 0 2.9 -1.1 4.5 -2.5 1.6 -1.4 3.4 -2.5 4 -2.5 1.3 0 5.6 -3.5 12.4 -10 5.2 -5 8.2 -10.3 8.9 -16 0.5 -3.4 0.2 -3.9 -3.8 -7.1 -5.5 -4.2 -8.5 -6 -11.5 -6.5 -1.3 -0.2 -3.6 -0.9 -5.1 -1.5 -1.6 -0.6 -5 -1.3 -7.8 -1.5 -7.5 -0.6 -9.5 -2 -9.5 -6.4 0 -3.2 0.5 -3.9 3.9 -5.8 2.1 -1.2 5 -2.2 6.4 -2.2 1.4 0 2.9 -0.4 3.2 -1 1.5 -2.5 17.6 0.1 26.3 4.3 7 3.3 17.1 13.7 16.4 17 -0.1 0.4 0.2 0.7 0.7 0.7 1.4 0 1.1 13.2 -0.5 18.3 -0.9 2.6 -1.9 4.7 -2.2 4.7 -0.4 0 -0.8 1.1 -0.8 2.4 -0.3 3.7 -11.2 17.6 -13.9 17.6 -0.6 0 -1.8 1.1 -2.5 2.5 -0.7 1.4 -1.9 2.5 -2.6 2.5 -0.6 0 -1.4 0.7 -1.8 1.5 -0.3 0.8 -1 1.5 -1.6 1.5 -0.6 0 -2.1 0.9 -3.3 2.1 -1.2 1.1 -3.4 2.3 -4.9 2.6 -1.5 0.3 -2.6 0.9 -2.3 1.2 0.6 1.1 -15.3 9.1 -18 9.1 -1.2 0 -2.5 0.6 -2.8 1.3 -0.2 0.7 -3.2 1.8 -6.6 2.5 -3.3 0.7 -6.1 1.7 -6.1 2.1 0 1.2 -8.5 3.2 -10.5 2.5 -0.9 -0.4 -2 -0.2 -2.4 0.3 -0.7 1.1 -12.4 2.7 -13.3 1.8z"/>
  <path d="M1376 302.3 c-0.8 -0.2 -2.2 -0.7 -3 -1 -0.8 -0.4 -1.8 -0.7 -2.1 -0.7 -1.4 -0.2 -7.6 -5.1 -9.2 -7.3 -1.1 -1.3 -2.1 -3.9 -2.4 -5.6 -0.2 -1.8 -0.8 -3.6 -1.2 -4 -0.9 -0.9 0.9 -10.3 2.8 -15 1.7 -4.3 9 -13.7 10.7 -13.7 0.8 0 1.7 -0.7 2 -1.5 0.4 -0.8 1 -1.5 1.5 -1.5 0.5 0 3.1 -1.1 5.8 -2.3 l4.8 -2.4 5.9 1.9 c3.3 1 6.4 2 6.9 2.1 0.6 0.2 2.1 0.9 3.5 1.7 1.4 0.7 2.7 1.3 3 1.3 2.1 -0.2 18.7 8.1 21.6 10.8 1.9 1.7 2.3 1.8 3.6 0.6 0.8 -0.8 2.4 -1.8 3.6 -2.1 1.2 -0.4 2.2 -1.2 2.2 -1.7 0 -0.5 0.5 -0.9 1.1 -0.9 1.9 0 11.1 -10.1 10.5 -11.6 -0.3 -0.8 -0.1 -1.4 0.4 -1.4 1.3 0 3.4 -10.5 2.5 -12.7 -0.5 -1 -0.8 -2.1 -0.7 -2.5 0.1 -0.4 -2.3 -3.2 -5.4 -6.1 -4.3 -4.2 -9 -7.2 -21 -13.3 -9.3 -4.6 -16.2 -8.7 -17.1 -10.1 -2.1 -3.1 -0.6 -8.3 2.7 -10.1 3.1 -1.6 13.6 -1 19 1.1 1.8 0.6 9.3 3.1 10 3.2 3.3 0.6 13.1 6.8 18.3 11.6 6.6 6 14.4 17 13.2 18.8 -0.3 0.5 -0.1 1.2 0.5 1.6 2.1 1.3 0.2 21.5 -2.1 21.5 -0.4 0 -0.6 0.7 -0.3 1.5 0.4 0.8 0.1 1.5 -0.6 1.5 -0.6 0 -0.8 0.5 -0.5 1.1 1 1.5 -1.5 6.9 -3.1 6.9 -0.8 0 -1.1 0.6 -0.8 1.5 0.4 1 0 1.5 -1.1 1.5 -0.9 0 -1.4 0.4 -1 0.9 0.7 1.2 -7.4 9.1 -9.2 9.1 -0.7 0 -1.2 0.6 -1 1.2 0.1 0.7 -0.8 1.4 -2 1.6 -1.3 0.2 -2.3 1 -2.3 1.8 0 0.8 -1.3 1.7 -3 2 -1.6 0.4 -2.7 1 -2.5 1.5 0.3 0.4 -1.3 1.3 -3.5 2 -2.2 0.7 -3.8 1.4 -3.5 1.7 0.9 0.9 -3 3.1 -5.4 3.2 -1.3 0 -2.1 0.3 -1.8 0.6 1.2 1.2 -14.6 8.7 -18 8.6 -1.8 -0.1 -3.3 0.3 -3.3 0.7 0 0.5 -0.9 0.7 -2 0.4 -1.2 -0.3 -2 0 -2 0.7 0 0.8 -1 0.9 -3 0.5 -1.9 -0.4 -3 -0.3 -3 0.4 0 1.1 -15.9 1.5 -19 0.4z m14 -20.4 c0 -0.7 1.1 -0.8 3 -0.4 2 0.4 3 0.3 3 -0.5 0 -0.6 0.8 -1 1.8 -0.9 0.9 0.2 2.7 -0.3 4 -1 1.3 -0.7 3 -1 3.7 -0.7 0.7 0.2 2 -0.3 2.9 -1.3 1.9 -2.1 0.9 -3.4 -3.8 -4.5 -1.7 -0.4 -4.6 -1.4 -6.5 -2.3 -2 -0.9 -4.5 -1.8 -5.5 -2 -1.1 -0.2 -2.5 -0.8 -3.2 -1.4 -1.4 -1.2 -9.5 -0.3 -9.1 1 0.3 0.9 -3.5 8.3 -4.8 9.4 -0.6 0.6 -0.6 1 0.3 1.4 0.6 0.2 1.2 1.1 1.2 1.8 0 1.8 1.6 2.3 7.8 2.4 3.1 0.1 5.2 -0.3 5.2 -1z"/>
 </g>
 <g fill="#acebf8">
  <path d="M814.9 1391.6 c-0.3 -0.3 -17.2 -0.8 -37.5 -1 -39 -0.4 -51.6 -1.3 -94.4 -6.7 -32.5 -4.1 -41.8 -5.7 -87 -14.8 -57.1 -11.5 -66.5 -13.5 -97 -20.7 -42.4 -10 -61.1 -14.9 -81.1 -21.3 -10.1 -3.3 -26.8 -8.4 -37.1 -11.5 -16.8 -5 -45.5 -14.9 -50.4 -17.4 -1.1 -0.5 -3.9 -1.8 -6.4 -3 -24.7 -11.3 -56.7 -28.7 -82 -44.7 -14.9 -9.4 -22 -14.1 -39.7 -26.2 -16 -10.9 -20.2 -14.3 -20.3 -16 0 -1.5 0.5 -2.1 1.4 -1.7 0.8 0.3 2.3 -1.5 4.2 -5.3 6 -11.9 20.4 -23.4 38.7 -30.8 16.8 -6.8 25.1 -8.7 37.2 -8.8 13 0 22.4 1.7 44 7.9 11.3 3.2 17.2 4.4 20 4.1 2.2 -0.3 11.9 -3.8 21.5 -8 48.9 -20.9 75.4 -27.7 107.7 -27.7 11.8 0 28.6 2.3 31.1 4.3 0.7 0.5 5 6 9.6 12.1 4.7 6.1 11.6 15 15.6 19.7 l7.1 8.6 8.2 -4.1 c4.5 -2.3 9.5 -4.6 11.2 -5.1 l3 -1 -4.5 -5 c-2.4 -2.8 -5.3 -6 -6.3 -7.2 l-1.9 -2.1 7.3 1.9 c10.6 2.8 17.6 2.5 25.3 -1 l6.3 -2.8 1.4 2.2 c1.4 2.3 9.7 12.2 13.1 15.7 1 1 3 2 4.5 2.3 3.4 0.7 19.6 6.1 31.3 10.3 4.6 1.7 8.7 2.9 8.9 2.6 0.3 -0.3 -0.6 -1.5 -1.9 -2.8 -4.5 -4.2 -23.3 -25 -31.8 -35.1 -1.4 -1.6 -3.4 -4 -4.4 -5.1 l-2 -2.2 9.9 -5.5 c9.9 -5.5 25.4 -12.2 31.2 -13.3 2.6 -0.5 3.2 -0.3 4 1.7 1.1 3 27 42.2 28.4 43 0.5 0.4 4 -0.8 7.8 -2.7 3.7 -1.9 7.2 -3.4 7.8 -3.4 1.6 0 6.1 -2.2 6.1 -3 0 -0.4 -6.3 -10.1 -14 -21.6 l-14 -20.9 2.9 -1.2 c8.2 -3.4 37.7 -7.1 62.1 -7.7 15.4 -0.4 40.3 1.2 42.9 2.9 1.6 0.9 16.6 31.7 23.6 48 2.5 6 4.7 11.1 4.9 11.3 0.5 0.4 6.6 -5.8 6.6 -6.8 0 -0.4 1.7 -1.7 3.8 -2.7 23.1 -12 26.9 -13.5 36.2 -15 1.9 -0.3 4 -0.9 4.7 -1.5 0.6 -0.5 1.9 -5.2 2.9 -10.5 l1.7 -9.6 5.6 0.6 c7.6 0.8 16.8 4.1 34.6 12.5 26.4 12.3 38.1 15.1 49.1 11.6 3.2 -1 12.2 -5.6 19.9 -10.3 36.5 -22 58.5 -29.4 87.8 -29.3 11.2 0 13.7 -0.2 13.7 -1.4 0 -0.8 0.7 -1.4 1.6 -1.4 1.5 0 1.6 0.9 1.1 6.9 -0.7 8.9 -4.7 18 -12.4 28.5 -11.5 15.8 -17.3 27.5 -17.3 34.6 0 14 20.4 25.6 39.4 22.3 6.5 -1.1 18 -6.2 30.1 -13.4 9.5 -5.6 14.2 -6.9 26.5 -7.5 11.6 -0.6 17.8 0.6 34 6.5 16.6 6.1 30.5 7.4 48 4.6 16.7 -2.8 24.8 -10.1 28.6 -26.1 1.8 -7.9 1.5 -13.6 -1.7 -26.9 -2.6 -11 -2.1 -16.1 2.2 -25.2 5.4 -11.3 8.2 -15.3 10.5 -15.3 1.7 0 2.1 0.5 1.7 2 -0.4 1.6 0 2 1.8 2 2.2 0 6.3 0.8 30.4 6.1 5 1.1 15.8 4 24 6.4 22.6 6.4 18.9 6.3 51.5 1.5 18.4 -2.8 38.9 -3 51.5 -0.6 15.9 3 60.8 16 73.4 21.2 16.4 6.8 61.5 30.3 70.3 36.6 21.9 15.9 29.5 24.5 32.5 37.5 1.2 5 2.1 6.9 3 6.6 2.4 -1 1.4 3.3 -1.2 4.7 -1.4 0.7 -2.5 1.7 -2.5 2.2 0 0.4 -0.7 0.8 -1.5 0.8 -0.8 0 -1.5 0.5 -1.5 1 0 0.6 -0.7 1 -1.5 1 -0.8 0 -1.5 0.5 -1.5 1 0 0.6 -0.7 1 -1.5 1 -0.8 0 -1.5 0.4 -1.5 1 0 0.5 -1.1 1.2 -2.5 1.6 -1.4 0.3 -2.5 1 -2.5 1.4 0 0.5 -1.3 1.1 -3 1.5 -1.6 0.4 -3 1 -3 1.5 0 0.5 -1 1.2 -2.2 1.6 -1.2 0.3 -3.2 1.7 -4.5 3 -1.3 1.3 -3 2.4 -3.8 2.4 -0.8 0 -1.5 0.3 -1.5 0.8 0 0.7 -3 2.5 -6.2 3.8 -1 0.3 -1.8 1 -1.8 1.5 0 0.5 -0.7 0.9 -1.5 0.9 -0.8 0 -1.5 0.4 -1.5 0.9 0 0.5 -1.2 1.2 -2.7 1.6 -1.5 0.3 -3.4 1.5 -4.4 2.6 -0.9 1 -3.1 2.4 -4.8 3 -1.7 0.6 -3.1 1.5 -3.1 1.9 0 0.5 -1.6 1.4 -3.5 2 -1.9 0.6 -3.5 1.5 -3.5 1.9 0 0.7 -3.9 2.8 -10.7 5.6 -2.4 1 -4.3 2.1 -4.3 2.4 0 0.7 -4.1 2.9 -10.7 5.6 -2.4 1 -4.3 2.1 -4.3 2.4 0 0.8 -5.9 3.7 -17 8.5 -4.7 2.1 -11.3 5.5 -14.8 7.7 -3.5 2.1 -7.1 3.9 -8.1 3.9 -1 0 -2.4 0.7 -3.1 1.5 -0.7 0.8 -2.1 1.5 -3.1 1.5 -1.1 0 -2.7 0.4 -3.7 0.9 -0.9 0.5 -2.8 1.4 -4.2 2 -1.4 0.6 -3.2 1.5 -4 1.9 -4 2.3 -6.1 3.2 -7.5 3.2 -0.8 0 -2.4 0.5 -3.5 1 -1.1 0.6 -2.9 1.5 -4 2 -1.1 0.6 -2.6 1 -3.4 1 -0.7 0 -1.9 0.7 -2.6 1.5 -0.7 0.8 -2.7 1.5 -4.5 1.5 -2 0 -3.5 0.6 -3.9 1.5 -0.3 0.8 -1.6 1.5 -3 1.5 -2.9 0 -33.6 10.2 -39.1 13 -2.1 1.1 -5.4 2 -7.3 2 -1.8 0 -5.2 0.9 -7.4 2 -2.3 1.1 -5.1 2 -6.3 2 -1.1 0 -3.7 0.9 -5.8 2 -2 1.1 -4.9 2 -6.4 2 -1.6 0 -3.7 0.7 -4.7 1.5 -1.1 0.8 -3.4 1.5 -5.2 1.5 -1.8 0 -3.6 0.5 -3.9 1 -0.3 0.6 -1.9 1 -3.5 1 -1.6 0 -3.2 0.5 -3.5 1 -0.3 0.6 -1.9 1 -3.5 1 -1.6 0 -3.1 0.4 -3.4 0.9 -0.4 0.5 -2.5 1.2 -4.9 1.6 -2.3 0.3 -5.1 1 -6.2 1.5 -2.6 1.2 -15.8 4.5 -28.1 7 -9.3 1.9 -63.6 10.9 -78.4 12.9 -31.8 4.4 -102.7 10.7 -147.5 13.1 -11 0.6 -27.4 1.5 -36.5 2.1 -9.1 0.6 -35.6 1.2 -59 1.4 -23.4 0.2 -60.7 0.7 -83 1.1 -22.3 0.3 -40.8 0.4 -41.1 0z m109.6 -3.7 c-17.9 -0.5 -29.4 -0.4 -29.9 0.2 -0.6 0.5 10.2 0.8 29 0.7 l29.9 -0.1 -29 -0.8z m157.8 -27.4 c4.9 -2.4 7.2 -6.2 7.1 -11.8 0 -3.8 -0.6 -5.3 -2.8 -7.6 -3.8 -4 -7.8 -5.5 -12.2 -4.6 -10.9 2 -13.8 17 -4.5 23.2 4 2.7 8 2.9 12.4 0.8z m-272.1 -19.1 c3.5 -1.8 4.6 -2.6 9.1 -7.1 6.1 -6 8.8 -10.3 8.9 -14 0.2 -6.6 -9.9 -17.2 -18.8 -19.8 -6.4 -1.9 -7.9 -1.9 -14.7 -0.1 -6.7 1.8 -11.5 6.1 -15.2 13.9 -2.6 5.4 -2.7 6.1 -1.5 10 0.6 2.3 1.7 4.8 2.3 5.6 2.2 2.6 8.5 6 13.8 7.4 3 0.8 7 2.4 8.9 3.5 4.2 2.6 3.4 2.6 7.2 0.6z m398.3 -40.4 c3.6 -2.2 6.5 -6 6.5 -8.6 0 -4.5 -8.8 -11.3 -14.7 -11.4 -3.2 0 -8.7 5.3 -10.1 9.7 -1.2 4.1 -0.1 6.9 4.2 10.5 2.9 2.4 10 2.3 14.1 -0.2z m-191.6 -19.3 c6.9 -2.4 14.2 -8 16.7 -12.9 3.8 -7.3 1.4 -15.5 -8.1 -27.7 -2.9 -3.7 -6.2 -9.4 -7.4 -12.5 -3.6 -9.8 -6.9 -15.2 -12.7 -21.6 -6.2 -6.6 -10.4 -9.2 -18 -11.1 -2.6 -0.7 -6.3 -2.3 -8.1 -3.5 -6.7 -4.5 -13.1 -4 -23.3 2.1 -3 1.7 -9.3 5.4 -14 8 -22.5 12.7 -32.3 26.5 -27.6 38.8 3.5 9.2 16.8 18.7 26 18.7 7.1 0 17.3 1.8 21 3.7 1.7 0.8 6.7 4.1 11.1 7.3 19.2 13.8 28.7 16.1 44.4 10.7z m-457.7 -1.1 c2.7 -1.4 5.6 -2.6 6.3 -2.6 2.6 0 11.1 -8.8 12.4 -12.8 1.8 -5.4 0.4 -9.4 -5.9 -16.4 -6.8 -7.7 -13.5 -11.8 -20.3 -12.5 -4.8 -0.5 -6.2 -0.2 -11.6 2.7 -4.8 2.6 -7 4.6 -10.1 9.2 -6.2 9.4 -7.4 16.1 -4.1 22.6 2.4 4.8 5.8 7.8 11.8 10.8 6.2 3.2 14.2 2.8 21.5 -1z m566.8 -13.6 c11.1 -5.7 12.1 -20.9 1.9 -27.7 -3.3 -2.2 -4.7 -2.5 -9.9 -2.1 -9.1 0.7 -14.8 5.7 -15.7 14.1 -1.5 13 11.8 21.8 23.7 15.7z m-745.2 -5.6 c9.6 -7.4 7.5 -22.2 -3.7 -25.4 -5.6 -1.6 -12.5 2 -15.7 8.2 -6.3 12.1 8.7 25.3 19.4 17.2z m-56.9 -7.8 c10.8 -5.6 13.3 -18.9 5 -26.8 -6.9 -6.6 -16.7 -6 -23.3 1.3 -9.7 10.6 -2.6 26.7 11.7 26.9 2.1 0 5.1 -0.7 6.6 -1.4z m1001.6 -8.9 c3.9 -1.8 8.5 -7.1 9.1 -10.3 1 -5.6 -4 -12.4 -11.2 -14.9 -3.1 -1.1 -4.4 -1 -8.1 0.2 -2.4 0.8 -6 1.3 -8.1 1.1 -5.2 -0.7 -9.2 2.2 -9.2 6.5 0 2.6 1.3 4.7 6.8 10.5 8.3 9 13.2 10.6 20.7 6.9z m-562.8 -22.3 c9.9 -5 14.6 -14.5 10.8 -21.8 -0.8 -1.5 -1.5 -3.4 -1.5 -4.1 0 -2.4 -8.2 -11.5 -12.8 -14.2 -3.4 -2 -5.9 -2.7 -10.1 -2.7 -6 -0.1 -14.8 2.1 -16.9 4.1 -0.7 0.7 -2.2 1.3 -3.3 1.3 -1 0 -1.9 0.7 -1.9 1.5 0 0.8 -0.7 1.5 -1.5 1.5 -0.9 0 -3.3 2.8 -5.5 6.3 -7.1 11 -5 17.5 8.1 25.2 12.5 7.3 23.9 8.3 34.6 2.9z m-367.9 -21 c7.6 -5.3 6.5 -17.7 -2 -21.7 -6.9 -3.3 -16.8 2.2 -16.8 9.4 0 4 2.6 9.5 5.8 11.9 3 2.4 9.8 2.7 13 0.4z m1071.7 -6.4 c0.7 0 2.6 -1.4 4.3 -3.1 5.3 -5.4 5 -11.1 -0.9 -17 -3.2 -3.2 -4.6 -3.9 -7.8 -3.9 -9.7 0 -15.3 12 -9.3 19.8 1.9 2.5 8.9 5.4 11 4.7 0.8 -0.3 1.9 -0.5 2.7 -0.5z m-143.3 -28 c7.4 -6.1 5.7 -13.9 -3.9 -18.7 -4.7 -2.3 -5.6 -2.4 -8.4 -1.3 -3.2 1.4 -7.2 6 -8.3 9.6 -0.5 1.6 0.3 3 3.1 5.7 9.3 8.8 11.7 9.5 17.5 4.7z"/>
  <path d="M1057.5 1181.3 c-1.1 -0.2 -3 -0.6 -4.2 -0.9 -1.9 -0.3 -2.3 -1.1 -2.3 -4 0 -5.6 1.5 -7.4 5.9 -7.4 2.2 0 4.4 0.6 5.1 1.5 0.7 0.9 3.2 2 5.6 2.6 4.1 1.1 4.4 1.4 4.4 4.4 0 2.1 -0.6 3.5 -1.6 3.9 -1.7 0.7 -9.7 0.6 -12.9 -0.1z"/>
  <path d="M1082 1145 c0 -1.7 0.7 -4.4 1.5 -6 1.3 -2.4 2.2 -3 5 -3 3.9 0 5.5 2 5.5 6.8 0 2.5 -0.6 3.2 -3.1 4.1 -1.8 0.6 -4.5 1.1 -6 1.1 -2.6 0 -2.9 -0.4 -2.9 -3z"/>
  <path d="M819.7 1135.8 c-0.3 -3.5 -0.9 -7 -1.2 -7.9 -0.4 -1.2 0.1 -1.8 2 -2.1 1.4 -0.3 2.8 -0.2 3 0.2 0.5 0.9 -1.5 13 -2.5 14.9 -0.4 0.7 -1 -1.6 -1.3 -5.1z"/>
  <path d="M794 1130.4 c-2.5 -5.4 -4.6 -10.3 -4.8 -11.1 -0.4 -1.6 1.9 -1.7 5.2 -0.2 2.1 1 2.6 2.2 3.6 9.4 0.7 4.6 1 9.1 0.8 9.9 -0.1 0.9 -2.3 -2.7 -4.8 -8z"/>
 </g>
 <g fill="#00b3f0">
  <path d="M496.5 1864.9 c-18 -1.4 -33 -3.8 -50.3 -7.9 -61.2 -14.8 -102.5 -33.2 -109.4 -48.7 -2.3 -5.2 -1.6 -8.4 2.4 -11.8 3.5 -3 6 -3.6 25.8 -7 20.7 -3.5 24.6 -4.7 37.3 -11.4 27.9 -14.5 59.3 -44 76.8 -72.1 10.9 -17.6 19.9 -39.5 20.2 -49.6 l0.2 -4.7 -16 -6.3 c-42 -16.7 -89.9 -45.6 -150.5 -90.8 -58.8 -43.9 -81.2 -65.7 -130.3 -127.1 -26.4 -32.9 -35.3 -46.8 -53.2 -82.5 -3.7 -7.4 -9.9 -19.3 -13.8 -26.5 -6 -11.1 -8.6 -17.7 -17.8 -45.5 -12.2 -37 -15.1 -49.6 -17.1 -74.5 -3.3 -42 -0.6 -59.3 10.7 -68.8 1.8 -1.5 5.4 -5.6 7.9 -9 5.5 -7.8 29.3 -30.9 39.9 -38.9 10.5 -7.8 17.5 -11.6 41.2 -22.4 31.5 -14.3 51.8 -22.8 79.9 -33.3 46.8 -17.6 77.7 -27.1 110.6 -34.1 8 -1.7 15.4 -3.3 16.6 -3.5 1.8 -0.4 2.5 0.6 4.9 6.8 1.5 3.9 5.7 14.1 9.3 22.5 3.5 8.4 6.2 15.5 6 15.7 -0.3 0.3 -6.9 1.8 -14.9 3.4 -56.5 11.5 -96.5 24.8 -184 61.1 -29.7 12.3 -38 16.7 -50.6 26.4 -10.6 8.1 -38.6 32.3 -39.1 33.7 -0.2 0.5 1.4 3.1 3.5 5.7 2.1 2.6 5.2 6.7 6.7 9.2 1.6 2.5 5.6 8.3 9 12.8 5.3 7.3 7.5 9.3 16.6 15.3 5.8 3.8 19.5 13 30.5 20.4 17.5 11.9 24.8 16.7 39.5 26 20.6 13 40.2 24.1 61 34.5 21.9 10.9 22.8 11.3 23.2 10.9 0.2 -0.2 2 0.7 4.1 1.9 2 1.3 3.7 2 3.7 1.7 0 -0.4 0.7 -0.2 1.5 0.5 0.8 0.7 1.5 1 1.5 0.6 0 -0.4 1 0 2.3 0.9 1.2 0.8 3.4 1.7 4.7 1.9 1.4 0.2 2.6 0.5 2.8 0.7 0.1 0.1 0.5 0.2 1 0.4 0.4 0.1 2.4 0.9 4.4 1.8 2.1 1 4.5 1.9 5.5 2.1 1 0.1 2.5 0.6 3.3 0.9 3.4 1.5 10.2 3.6 10.8 3.5 0.4 -0.1 2.1 0.4 3.7 1.1 1.7 0.7 3.9 1.4 5 1.5 1.1 0.2 3.3 0.8 4.8 1.5 1.5 0.6 3.1 1 3.5 1 0.4 -0.1 1 0 1.5 0.1 0.4 0.1 1 0.3 1.5 0.5 0.4 0.1 2.1 0.7 3.7 1.4 1.7 0.7 4.1 1.4 5.5 1.6 1.4 0.2 2.6 0.4 2.8 0.6 0.1 0.1 0.5 0.2 1 0.4 0.4 0.1 1.5 0.5 2.4 0.9 0.9 0.4 2.2 0.9 3 1 0.7 0.2 2 0.6 2.8 0.9 3 1.3 13.2 4.6 13.8 4.6 0.4 -0.1 1 0 1.5 0.1 0.4 0.1 1 0.3 1.5 0.5 0.4 0.1 2 0.7 3.5 1.3 1.5 0.7 3.1 1.1 3.5 1 0.4 -0.1 2 0.4 3.5 1 1.6 0.7 3.2 1 3.7 0.7 0.5 -0.3 1.2 0 1.5 0.6 0.4 0.5 1.3 0.8 2.1 0.5 0.7 -0.3 1.6 -0.1 2 0.5 0.3 0.6 1.2 0.8 2 0.5 0.7 -0.3 1.6 -0.1 2 0.5 0.3 0.6 1.2 0.8 2 0.5 0.7 -0.3 1.6 -0.1 2 0.5 0.3 0.6 1.2 0.8 2 0.5 0.7 -0.3 1.6 -0.1 2 0.5 0.3 0.6 1.2 0.8 2 0.5 0.7 -0.3 1.6 -0.1 2 0.5 0.3 0.6 1.2 0.8 2 0.5 0.7 -0.3 1.6 -0.1 2 0.5 0.3 0.6 1.2 0.8 1.9 0.5 0.7 -0.2 1.7 0 2.2 0.5 0.5 0.5 2.5 1.1 4.5 1.3 1.9 0.2 4 0.6 4.7 1 0.7 0.5 1.5 0.5 1.8 0.2 0.3 -0.3 1.2 -0.1 2 0.6 0.7 0.6 1.6 0.8 2 0.5 0.3 -0.4 1.2 -0.2 1.9 0.3 0.6 0.6 2.8 1.2 4.6 1.4 1.9 0.2 4 0.6 4.7 1 0.7 0.5 1.5 0.5 1.8 0.2 0.3 -0.3 1.2 -0.1 2 0.6 0.7 0.6 1.6 0.8 2 0.5 0.3 -0.4 1.1 -0.3 1.7 0.2 1.6 1.2 10.6 3.2 11.6 2.6 0.5 -0.3 1.2 0 1.5 0.6 0.4 0.5 1.3 0.8 2.1 0.5 0.7 -0.3 1.6 -0.1 2 0.5 0.3 0.5 1.3 0.9 2.2 0.7 1 -0.1 2.3 0.1 2.9 0.5 0.7 0.4 2.7 0.9 4.5 1.1 1.8 0.2 4.1 0.7 5 1.1 0.9 0.4 2.1 0.4 2.7 0.1 0.5 -0.4 1.3 -0.2 1.6 0.4 0.4 0.6 1.4 1 2.3 0.9 1 -0.1 2.5 0.1 3.5 0.6 1 0.4 2.1 0.5 2.4 0.1 0.3 -0.3 1.2 -0.1 1.9 0.4 0.6 0.6 2.7 1.2 4.5 1.4 1.9 0.2 4.1 0.7 5 1 0.9 0.4 2 0.6 2.5 0.5 0.5 -0.1 1.6 0 2.4 0.4 2.8 1.1 12.3 2.7 12.8 2.2 0.3 -0.3 1.1 0 1.8 0.6 0.8 0.6 2 0.9 2.9 0.6 0.8 -0.4 1.7 -0.1 2.1 0.4 0.3 0.6 1.5 0.9 2.5 0.6 1 -0.3 2.2 -0.1 2.5 0.5 0.3 0.5 1.5 0.8 2.5 0.5 1 -0.3 2.2 -0.1 2.5 0.5 0.3 0.5 1.5 0.8 2.5 0.5 1 -0.3 2.2 -0.1 2.5 0.5 0.3 0.5 1.5 0.8 2.5 0.5 1 -0.3 2.2 -0.1 2.5 0.5 0.3 0.5 1.3 0.7 2.1 0.4 0.9 -0.4 2.2 -0.1 2.9 0.5 0.7 0.6 1.8 0.8 2.4 0.4 0.6 -0.4 1.7 -0.1 2.5 0.5 0.8 0.6 1.9 0.9 2.4 0.6 0.5 -0.4 1.3 -0.1 1.6 0.5 0.4 0.6 1.8 0.8 3 0.5 1.3 -0.3 2.7 -0.1 3.1 0.5 0.3 0.6 1.5 0.9 2.5 0.6 1 -0.3 2.2 -0.1 2.5 0.5 0.3 0.5 1.5 0.8 2.5 0.5 1 -0.3 2.2 -0.1 2.5 0.5 0.3 0.5 1.6 0.8 2.7 0.7 1.2 -0.1 3 0.1 4 0.6 0.9 0.4 2.4 0.5 3.2 0.2 0.8 -0.4 1.7 -0.1 2.1 0.4 0.3 0.6 1.9 0.8 3.5 0.5 1.5 -0.3 3.1 -0.1 3.5 0.5 0.3 0.6 1.9 0.8 3.5 0.5 1.6 -0.3 3.1 -0.1 3.5 0.5 0.4 0.7 2.1 0.9 4 0.6 1.9 -0.3 3.7 -0.1 4 0.5 0.4 0.6 2.1 0.8 4 0.5 1.9 -0.3 3.6 -0.1 4 0.4 0.3 0.6 1.8 0.9 3.2 0.8 1.5 -0.1 3.5 0.2 4.5 0.6 0.9 0.4 2.8 0.4 4.1 0.1 1.4 -0.3 2.8 -0.1 3.2 0.5 0.4 0.7 2.2 0.9 4.5 0.6 2.2 -0.3 4.2 -0.1 4.5 0.5 0.3 0.5 2.2 0.8 4.3 0.7 2 -0.1 4.4 0.2 5.4 0.6 1 0.4 3.6 0.5 5.7 0.2 2.3 -0.3 4.3 -0.1 4.6 0.5 0.4 0.6 2.8 0.8 6 0.5 3.2 -0.3 5.6 -0.1 6 0.5 0.3 0.5 3.8 0.9 7.8 0.7 3.9 -0.1 7.9 0.2 8.9 0.6 0.9 0.4 15.2 0.5 31.7 0.2 16.4 -0.2 30.2 -0.2 30.5 0.2 1.1 1 135.5 1.1 135.5 0 0 -0.5 5.6 -0.9 13.3 -0.9 12.9 0 29.4 -0.8 62.7 -3.1 9.1 -0.6 19.5 -1 23.3 -0.9 4 0.1 6.7 -0.3 6.7 -0.9 0 -0.7 2.3 -0.8 6.5 -0.4 4.5 0.4 6.5 0.2 6.5 -0.5 0 -0.8 2 -0.9 6.5 -0.5 4.4 0.4 6.5 0.2 6.5 -0.5 0 -0.7 2.3 -0.9 7 -0.5 5 0.4 7 0.3 7 -0.6 0 -0.8 1.6 -0.9 5.5 -0.5 4 0.5 5.5 0.3 5.5 -0.6 0 -0.9 1.3 -1 5 -0.5 3.5 0.5 5 0.3 5 -0.5 0 -0.8 1.4 -0.9 4.5 -0.4 3 0.4 4.5 0.3 4.5 -0.5 0 -0.7 1.5 -0.9 4.4 -0.5 2.7 0.4 4.6 0.2 5 -0.5 0.5 -0.7 2.2 -0.9 4.7 -0.5 2.6 0.5 3.9 0.3 3.9 -0.5 0 -0.8 1.5 -1 5 -0.5 3.7 0.5 5 0.3 5 -0.6 0 -0.9 1.2 -1 4.4 -0.6 2.9 0.5 4.7 0.3 5.1 -0.4 0.5 -0.7 2.1 -0.9 4.6 -0.5 2.7 0.5 3.9 0.3 3.9 -0.5 0 -0.9 1.1 -1 3.5 -0.6 2.4 0.5 3.5 0.3 3.5 -0.5 0 -0.7 1.1 -0.9 3.5 -0.5 2.4 0.5 3.5 0.3 3.5 -0.5 0 -0.7 1.1 -0.9 3.4 -0.5 2 0.4 3.7 0.2 4.1 -0.4 0.3 -0.5 1.7 -0.7 3.1 -0.4 1.5 0.4 2.4 0.2 2.4 -0.6 0 -0.8 1 -0.9 3 -0.5 2 0.4 3 0.3 3 -0.5 0 -0.8 1 -0.9 3 -0.5 2 0.4 3 0.3 3 -0.5 0 -0.9 1 -1.1 3 -0.6 1.9 0.3 3 0.1 3 -0.5 0 -0.7 1.1 -0.9 3 -0.5 1.8 0.3 3 0.1 3 -0.5 0 -0.7 1.1 -0.8 3 -0.4 2 0.4 3 0.3 3 -0.5 0 -0.8 1.1 -1 3.4 -0.6 2 0.4 3.7 0.2 4.1 -0.4 0.3 -0.5 1.7 -0.7 3 -0.4 1.2 0.3 2.6 0.1 3 -0.6 0.4 -0.6 1.5 -0.8 2.5 -0.5 1 0.3 2.1 0.1 2.5 -0.5 0.4 -0.6 1.5 -0.8 2.6 -0.5 1.1 0.4 1.9 0.2 1.9 -0.5 0 -0.8 0.9 -1 2.5 -0.6 1.6 0.4 2.5 0.2 2.5 -0.5 0 -0.7 0.9 -0.9 2.4 -0.5 1.4 0.3 2.8 0.1 3.1 -0.5 0.4 -0.6 1.3 -0.8 2.1 -0.5 0.7 0.3 1.6 0.1 2 -0.5 0.3 -0.6 1.2 -0.8 2 -0.5 0.7 0.3 1.6 0.1 2 -0.5 0.3 -0.6 1.2 -0.8 2 -0.5 0.7 0.3 1.6 0.1 2 -0.5 0.3 -0.6 1.2 -0.8 2 -0.5 0.7 0.3 1.6 0.1 1.9 -0.5 0.4 -0.5 1.2 -0.8 1.8 -0.7 0.7 0.1 2.2 -0.4 3.5 -1.1 1.3 -0.7 3 -1 3.7 -0.7 0.8 0.3 1.7 0.1 2 -0.5 0.4 -0.5 1.2 -0.8 1.8 -0.7 0.7 0.1 2.2 -0.3 3.5 -1 1.2 -0.7 2.8 -1.2 3.5 -1 0.6 0.1 2.2 -0.3 3.5 -1 1.2 -0.7 2.8 -1.2 3.5 -1 0.6 0.1 2.2 -0.4 3.5 -1.1 1.3 -0.7 3 -1 3.9 -0.7 0.8 0.4 3.1 -0.3 4.9 -1.5 1.9 -1.1 4.1 -1.8 4.9 -1.5 0.8 0.3 3.7 -0.6 6.5 -2 2.7 -1.4 5.5 -2.4 6.2 -2.3 0.7 0.2 3.1 -0.5 5.3 -1.5 2.2 -1 5.9 -1.9 8.3 -2.1 2.4 -0.2 5.3 -1 6.5 -1.8 3 -1.9 35.4 -12.7 38.3 -12.7 1.3 0 2.7 -0.7 3.1 -1.5 0.5 -0.8 2.3 -1.6 4.1 -1.8 1.8 -0.2 3.8 -0.9 4.4 -1.5 0.7 -0.7 2 -1.2 2.9 -1.2 1 0 2.1 -0.4 2.4 -1 0.3 -0.5 1.4 -1 2.4 -1 1 0 2.4 -0.7 3.2 -1.6 0.7 -0.8 2.1 -1.3 3 -1.1 1 0.3 2.4 -0.2 3 -0.9 0.7 -0.8 1.7 -1.3 2.3 -1.1 0.6 0.2 2.2 -0.4 3.5 -1.4 1.3 -1.1 3 -1.9 3.8 -1.9 0.7 0 2.5 -0.7 3.9 -1.6 1.3 -0.9 2.7 -1.4 3.1 -1 0.4 0.3 1.5 -0.1 2.5 -1.1 1 -0.9 2.6 -1.7 3.6 -1.8 0.9 0 4.9 -2 8.7 -4.2 3.9 -2.3 10.4 -5.6 14.5 -7.4 10.3 -4.3 15.9 -7.2 15.5 -7.9 -0.2 -0.3 1.8 -1.4 4.3 -2.4 6.7 -2.6 11.1 -4.9 10.7 -5.6 -0.2 -0.3 1.8 -1.4 4.3 -2.4 6.9 -2.7 11.1 -4.9 10.7 -5.6 -0.3 -0.4 1.4 -1.2 3.6 -1.9 2.2 -0.7 3.7 -1.6 3.4 -2.1 -0.3 -0.4 0.9 -1.1 2.5 -1.5 1.7 -0.4 4.2 -1.7 5.5 -3 1.3 -1.4 3.5 -2.7 4.9 -3.1 1.4 -0.3 2.6 -1 2.6 -1.5 0 -0.5 0.7 -0.9 1.6 -0.9 0.8 0 1.2 -0.4 0.9 -1 -0.3 -0.5 0.3 -1 1.3 -1 1.1 0 2.5 -0.7 3.2 -1.5 0.7 -0.8 1.9 -1.5 2.6 -1.5 0.8 0 1.4 -0.4 1.4 -1 0 -0.5 0.7 -1 1.5 -1 0.8 0 2.5 -1.1 3.8 -2.4 1.3 -1.3 3.3 -2.7 4.5 -3 1.2 -0.4 2.2 -1.1 2.2 -1.6 0 -0.5 1.4 -1.1 3 -1.5 1.7 -0.4 2.8 -1.1 2.4 -1.6 -0.3 -0.5 0.4 -0.9 1.5 -0.9 1.1 0 2.6 -0.7 3.5 -1.5 0.8 -0.8 1.9 -1.5 2.5 -1.5 0.6 0 1.1 -0.4 1.1 -1 0 -0.5 0.7 -1 1.5 -1 0.8 0 1.5 -0.4 1.5 -1 0 -0.5 0.7 -1 1.5 -1 0.8 0 1.5 -0.4 1.5 -0.9 0 -0.5 1.7 -1.7 3.8 -2.7 6.9 -3.3 23.9 -15 38.1 -26.3 7.8 -6.2 14.1 -11.5 14.1 -11.7 0 -0.7 -13.6 -9.2 -33.4 -20.9 -80.1 -47.2 -127.8 -69.3 -181.8 -84.4 -35.3 -9.8 -142.5 -35.1 -149 -35.1 -1 0 -1.8 0.7 -1.8 1.5 0 0.8 -0.6 1.5 -1.3 1.5 -1 0 -1.7 -3.5 -2.6 -12.8 -0.7 -7 -1.6 -16.3 -2.1 -20.7 -1.1 -9.6 -1.2 -21.1 -0.4 -25.4 0.7 -3.1 3.4 -4.4 3.4 -1.6 0 0.8 0.4 1.5 1 1.5 7.7 0 111.3 23 156 34.6 30.1 7.8 69.9 21.4 98.2 33.5 17.6 7.5 55.9 26.7 70.8 35.4 6.3 3.7 13.3 7.7 15.5 8.9 2.2 1.3 14.1 8.2 26.5 15.6 44.6 26.4 60.9 37.9 67.9 48 2.4 3.6 6 8.1 7.9 10 7.2 7.4 10.7 19.1 9.7 33 -1.9 26.3 -7.7 45.6 -23.2 76.4 -10.7 21.4 -24.7 42.3 -58.8 88.1 -23.5 31.6 -31.8 41.4 -56.5 66.8 -29.1 29.9 -48.1 46.3 -86.1 74.3 -46 34 -92.2 62.6 -132.8 82.6 -69.3 33.9 -133.4 58.3 -220.2 83.7 -76.9 22.5 -120.4 30.8 -195.3 37.3 -21.4 1.9 -32.3 2.2 -73.8 2.3 -26.8 0 -48.9 0.2 -49.1 0.5 -0.3 0.3 -3.3 4.1 -6.8 8.5 -9.3 11.8 -30 33.6 -42.8 45 -31.2 27.9 -66.6 49.6 -113.4 69.6 -53.2 22.8 -109.7 32.2 -167.2 27.8z m33 -43 c34.1 -3.1 78.5 -13.2 112 -25.5 14.4 -5.3 40 -17.9 54.2 -26.7 21.3 -13.3 42.5 -30.1 63.3 -50.3 7.9 -7.8 13.8 -12.5 19 -15.4 4.1 -2.3 10 -6.2 13.1 -8.6 7.9 -6 24.5 -14.5 36.9 -18.7 31.3 -10.6 43 -13.5 81 -19.7 3 -0.5 17.4 -1.9 32 -3 65.1 -5.1 113.8 -14 180 -33 121.8 -34.9 204.8 -70 281.5 -119 26 -16.6 71.3 -49.4 89 -64.4 26 -22.1 57.7 -53.7 76.3 -75.8 10.8 -12.9 39.9 -53 56.4 -77.8 15.8 -23.6 25.8 -42.6 31.6 -59.5 2.9 -8.5 5.3 -22.5 3.8 -22.5 -0.4 0 -6 3.8 -12.5 8.4 -19.8 14 -58.6 39.3 -75.6 49.1 -8.8 5.1 -21.4 12.4 -28 16.2 -18.7 10.9 -66.1 35.3 -89.1 45.8 -27.5 12.7 -42.1 18.4 -76.9 29.8 -60.2 19.9 -99.7 30.3 -140.5 37.1 -53.1 8.8 -65.5 10.2 -122 14.1 -20.1 1.4 -45 3.2 -55.5 4 -19.2 1.5 -39.7 2.4 -98 4.6 -36.5 1.4 -189 0.6 -214 -1.1 -55.8 -3.8 -107 -12.1 -181 -29.4 -155.3 -36.4 -203.2 -50.5 -266 -78.3 -19.7 -8.7 -34.5 -16 -43 -21.1 -6.7 -4 -32.5 -21.6 -48 -32.8 -5.5 -3.9 -16.1 -11 -23.5 -15.6 -7.5 -4.7 -19.3 -12.7 -26.4 -17.7 -7 -5.1 -13 -9 -13.3 -8.7 -1 0.9 4.8 19 11.2 35.1 3.5 8.8 7.9 20.6 9.9 26.2 4.3 12.4 4.6 13.1 18.1 36.8 31.1 54.6 31.3 54.9 49.4 76.9 6.4 7.7 15.5 18.8 20.2 24.6 32 39.1 49 55.7 89.4 87.1 23.6 18.4 66.6 48.2 91.5 63.6 4.1 2.6 19.4 12.4 34 21.8 14.6 9.5 30.1 19.2 34.5 21.6 7.1 3.9 17.3 11.3 20 14.5 1.5 1.7 12.3 16.4 17.3 23.3 6.1 8.5 7.9 13.2 9.5 25.1 1.6 11.8 1.2 14.6 -4.2 28.3 -19.9 50.1 -65.9 93.5 -118.3 111.5 -6.4 2.3 -15.5 4.8 -20.3 5.8 -4.7 0.9 -8.2 2 -7.8 2.4 1.2 1.1 14.8 4.8 25.3 6.9 26.3 5.4 70.1 7 103.5 4z"/>
  <path d="M800 1343.8 c-1.9 -1.1 -5.9 -2.7 -8.9 -3.5 -8.6 -2.3 -14.6 -6.7 -15.6 -11.4 -0.4 -1.6 -1 -2.9 -1.3 -2.9 -0.8 0 -1 -9.2 -0.2 -10 0.9 -0.9 4.4 -8.4 4.5 -9.5 0 -0.5 1.2 -1.9 2.6 -3 1.4 -1.1 2.6 -2.4 2.5 -2.9 -0.1 -1.1 3.8 -2.7 7.8 -3.2 1.7 -0.2 3.2 -0.8 3.5 -1.2 0.7 -1 12.2 -0.8 13.8 0.1 0.5 0.3 2.2 0.8 3.7 1.1 8.4 1.5 19.7 14.3 19.5 22.1 -0.1 5.9 -3.3 11.8 -9.6 17.9 -9.3 8.9 -15.4 10.7 -22.3 6.4z"/>
  <path d="M542 1286.9 c-8.4 -1.5 -15.7 -6.5 -19.2 -13.3 -1.2 -2.2 -2.1 -5.1 -1.9 -6.3 0.1 -1.3 -0.2 -2.3 -0.8 -2.3 -0.6 0 -1.1 -0.7 -1.1 -1.5 0 -0.8 0.5 -1.5 1 -1.5 0.6 0 1 -0.8 1 -1.7 0 -3.9 2.2 -9.4 6 -15.1 3.1 -4.7 5.3 -6.6 10.2 -9.2 5.4 -2.9 7.2 -3.3 12.8 -3.2 3.6 0 6.5 0.2 6.5 0.2 0 0.1 0.8 0.3 1.8 0.5 5.8 1.1 19.5 13.5 22.3 20.2 1.8 4.2 1.8 11.2 -0.1 15.6 -1.5 3.6 -9.8 11.7 -12 11.7 -0.7 0 -3.5 1.1 -6.2 2.5 -5.3 2.8 -14.9 4.4 -20.3 3.4z"/>
  <path d="M735.8 1227.5 c-6.7 -2.2 -16 -7.8 -19.7 -12 -3.1 -3.6 -3.5 -4.5 -3.2 -7.7 0.1 -1 -0.1 -1.8 -0.6 -1.8 -0.4 0 -0.8 -1.3 -0.8 -3 0 -1.6 0.3 -3 0.8 -3 0.4 0 0.7 -0.6 0.7 -1.2 0 -2.3 7.9 -13.8 9.5 -13.8 0.8 0 1.5 -0.6 1.5 -1.4 0 -0.7 1.4 -1.6 3.1 -2 1.7 -0.3 2.8 -1 2.5 -1.5 -0.6 -0.9 2.4 -2.4 4 -1.9 1.5 0.3 7.4 -1.3 7.4 -2.1 0 -0.5 3 -0.7 6.8 -0.5 3.7 0.1 6.7 0.3 6.7 0.4 0 0.1 0.8 0.3 1.8 0.5 3.8 0.7 10.7 5.7 14.6 10.6 2.3 2.8 4.2 5.6 4.2 6 0.2 1.4 0.5 2.2 1.7 5.2 0.7 1.6 1.2 5.5 1.2 8.7 0 8.1 -4.2 14.3 -12.5 18.5 -5.1 2.6 -7.2 3 -15.5 3.2 -6.4 0.2 -11 -0.2 -14.2 -1.2z"/>
  <path d="M773.5 1173.3 c-1.1 -0.3 -3.1 -1 -4.5 -1.6 -1.4 -0.6 -3.1 -0.9 -3.7 -0.8 -0.7 0.1 -1.3 -0.3 -1.3 -0.9 0 -1.3 -0.1 -1.3 7.5 0.6 3.6 0.9 6.5 2 6.5 2.5 0 1 -1.2 1 -4.5 0.2z"/>
  <path d="M798.2 1164.9 c0.2 -0.6 1.4 -1.6 2.7 -2 2.7 -1.1 1.9 0.6 -1.1 2.2 -1.6 0.8 -1.9 0.8 -1.6 -0.2z"/>
  <path d="M451.4 1027.8 c-3.5 -5.5 -18.4 -40.8 -18.4 -43.4 0 -0.7 2.1 -1.7 4.8 -2.2 11.9 -2.7 20 -4.1 24.1 -4.4 l4.3 -0.3 8.5 19.5 c4.6 10.7 9.1 21 9.9 22.8 1.7 3.9 3 3.4 -14.7 6.2 -7.5 1.1 -14.5 2.3 -15.6 2.6 -1.2 0.3 -2.4 0 -2.9 -0.8z"/>
  <path d="M506 1011.5 c-7.9 -17.2 -11 -24.2 -11 -24.9 0 -0.3 -1.1 -3 -2.5 -6 -2.2 -4.8 -3 -7.6 -2.2 -7.6 0.1 0 11.2 -1.6 24.7 -3.5 l24.5 -3.5 1.5 2.2 c0.8 1.1 4.2 7.3 7.6 13.7 3.3 6.4 8.2 15.5 10.7 20.2 2.6 4.8 4.7 9.1 4.7 9.6 0 0.5 -11.1 2.4 -24.7 4.2 -13.7 1.8 -25.8 3.5 -27 3.8 -2 0.5 -2.7 -0.4 -6.3 -8.2z"/>
  <path d="M1075.4 1010.5 c0.3 -0.8 0.1 -1.5 -0.3 -1.5 -0.5 0 -12.5 -1.1 -26.8 -2.5 -43.5 -4.1 -98.9 -6.5 -153.4 -6.5 -15.2 0 -34.4 -0.3 -42.7 -0.7 l-15.2 -0.6 -1.1 -4.1 c-2.1 -8.3 -8.2 -27.3 -11.5 -36 -1.9 -4.8 -3.4 -9 -3.4 -9.2 0 -1.5 174.6 0.3 195 2.1 3 0.2 9.3 0.7 14 1 14 1 40.2 3.4 61.8 5.6 16.2 1.7 20.5 1.9 21.7 0.9 1.3 -1.1 1.5 -0.8 1.5 1.7 0 2.3 -1.5 4.8 -6.1 9.9 -8.5 9.6 -17.4 21.7 -23.9 32.3 -4.4 7.2 -6 9 -7.9 9.1 -1.7 0 -2.2 -0.4 -1.7 -1.5z"/>
  <path d="M591.1 1009.1 c-1 -0.7 -2.6 -3.4 -10.2 -17.7 -2.9 -5.5 -7.4 -13.9 -10.1 -18.8 -2.6 -4.9 -4.6 -9.2 -4.3 -9.5 0.8 -0.7 31 -3.8 55.5 -5.6 11.8 -0.8 26.2 -1.9 32 -2.4 5.7 -0.5 10.8 -0.7 11.2 -0.5 0.4 0.3 2.9 3.5 5.5 7.2 2.6 3.7 5 6.9 5.3 7.2 3.1 2.9 21.1 31.2 20.4 32 -0.5 0.4 -20.9 2.2 -45.4 4 -24.5 1.7 -47.8 3.5 -51.7 3.9 -4 0.4 -7.7 0.5 -8.2 0.2z"/>
  <path d="M720.3 996.8 c-1.5 -2.4 -7.9 -12.1 -14.2 -21.6 -14 -20.8 -14.7 -22 -14.1 -22.6 0.3 -0.2 8.7 -0.8 18.6 -1.2 l18.1 -0.7 4.9 8.4 c5 8.4 21.4 40.2 21.4 41.3 0 0.3 -7.2 0.6 -16 0.6 l-16 0 -2.7 -4.2z"/>
  <path d="M770.6 979.7 c-5.5 -11.1 -11 -21.9 -12.3 -23.9 -1.3 -2.1 -2.3 -4.2 -2.3 -4.7 0 -0.6 8 -1 19.5 -1.1 l19.4 -0.1 1.6 3.2 c4.4 8.5 16.7 44.5 15.8 46.2 -0.2 0.4 -7.5 0.7 -16.1 0.7 l-15.7 -0.1 -9.9 -20.2z"/>
 </g>
 <g fill="#ffec0f">
  <path d="M1191.5 1304.2 c-3.5 -2.9 -5.5 -6.5 -5.5 -9.8 0 -7.7 4.7 -14.7 11 -16.4 5.3 -1.4 13.5 1.2 17.7 5.7 2.8 2.9 3.3 4.2 3.3 8.4 0 5.7 -1.8 9 -6.5 11.9 -4.3 2.7 -16.9 2.8 -20 0.2z"/>
  <path d="M994.2 1287 c-5.9 -1.3 -15.1 -6.1 -24.7 -13 -4.4 -3.2 -9.4 -6.5 -11.1 -7.3 -3.7 -1.9 -13.9 -3.7 -21 -3.7 -6.4 0 -13 -3.3 -19.6 -9.8 -6.3 -6.1 -8.2 -11.2 -7.6 -20.2 0.9 -12.7 9.4 -22.6 28.8 -33.5 4.7 -2.6 11 -6.3 14 -8 11.5 -6.8 23.8 -7.3 31 -1.1 0.8 0.7 3.7 1.9 6.4 2.5 7.6 1.9 11.8 4.5 18 11.1 5.8 6.4 9.1 11.8 12.7 21.6 1.2 3.1 4.5 8.8 7.4 12.5 8 10.4 10 15.1 9.9 23.4 0 8.3 -1.6 11.7 -7.7 17.1 -8 7 -24.9 10.9 -36.5 8.4z"/>
  <path d="M1311.3 1249 c-4.1 -1.3 -15.6 -13.9 -16.5 -18.3 -1.9 -8.6 2.5 -14 10.9 -13.6 2.7 0.2 6.5 -0.3 8.6 -1 7.6 -2.6 16.6 0.7 21.5 7.9 2 3 2.3 4.4 2 9.7 -0.3 5.3 -0.9 6.8 -3.3 9.4 -1.7 1.7 -4.2 3.7 -5.7 4.5 -3.5 1.8 -13.4 2.6 -17.5 1.4z"/>
  <path d="M1050.5 1202.6 c-9.9 -2.5 -18.3 -8.5 -21.1 -15.2 -2 -4.7 -1.7 -14.5 0.5 -20.8 2.2 -6.4 7.4 -15.1 15.4 -26.2 3.2 -4.4 7.2 -11 8.9 -14.8 3.2 -7.2 3.1 -7.1 5.8 -49.6 2 -31.7 4.7 -44.6 12.6 -60 10.5 -20.4 26.6 -42.3 44.4 -60.1 11.1 -11.2 38.2 -34.6 54 -46.8 12.5 -9.7 16.4 -13.4 21.2 -20.4 4.9 -7.2 8.3 -14.8 9.3 -20.7 0.4 -2.5 2 -10 3.6 -16.8 2.9 -12.1 2.9 -12.4 1.5 -22.5 -0.8 -5.6 -1.3 -15.6 -1.2 -22.2 0.3 -14.4 1.8 -18.8 8.1 -24 l4.3 -3.5 7.4 2.8 c4 1.6 11.3 4.4 16.2 6.3 14.5 5.4 27 14.6 32.4 23.8 2.4 4 2.7 5.6 2.6 13.1 0 4.7 -0.5 14.6 -1.2 21.9 -1.5 16.7 -1.5 34 -0.1 37.8 0.5 1.5 2.2 4 3.6 5.5 2.6 2.7 2.6 2.8 1.9 14.5 -1.1 18.8 -2.4 28.3 -7.3 52.3 -5.3 26.5 -5.9 38 -2.9 62.5 3.5 28.6 -0.2 45.1 -16 72 -11.2 19.2 -14 24.5 -15.8 29.8 -1.6 4.6 -1.5 5.3 0.5 13.5 6.3 26.1 1.4 45.9 -13.6 54.7 -8.4 5 -35.2 7 -51.2 4 -4.3 -0.8 -11.7 -2.9 -16.3 -4.6 -15.2 -5.5 -22.7 -7.1 -31 -6.5 -9.6 0.7 -14.8 2.4 -23.5 7.5 -10.3 6.1 -22.4 11.8 -27.5 13 -6 1.4 -19.3 1.2 -25.5 -0.3z m17.3 -24.5 c1 -0.6 0 -1.2 -3.1 -1.9 -2.4 -0.7 -5 -1.8 -5.7 -2.7 -1.7 -2 -2.7 -1.9 -4 0.6 -1.4 2.6 -1 3 3.7 3.9 5.4 1.1 7.6 1.1 9.1 0.1z m22.2 -37.2 c-1.4 -2.5 -1.7 -2.4 -3.5 1 l-1.5 3 3 -1 c2.5 -0.9 2.8 -1.4 2 -3z"/>
  <path d="M1309 1170.9 c-7.7 -6.2 -10 -9.1 -10 -12.8 0 -8 6.8 -15.1 14.5 -15.1 5.7 0 13.7 4.2 16 8.3 1.3 2.6 1.7 4.8 1.3 9.2 -0.4 5.3 -0.9 6.2 -4.3 9.2 -3.4 2.9 -4.5 3.3 -9.4 3.3 -4.1 -0.1 -6.3 -0.6 -8.1 -2.1z"/>
 </g>
</svg>