<?xml version="1.0" encoding="utf-8"?>
<!DOCTYPE svg PUBLIC "-//W3C//DTD SVG 1.0//EN" "http://www.w3.org/TR/2001/REC-SVG-20010904/DTD/svg10.dtd">
<svg version="1.0" xmlns="http://www.w3.org/2000/svg" width="1924px" height="1924px" viewBox="0 0 1924 1924" preserveAspectRatio="xMidYMid meet">
 <g fill="#2b3f45">
  <path d="M851 1742.4 c-0.8 -0.1 -3.6 -0.6 -6.2 -0.9 -8.4 -1.1 -13.9 -7.6 -11.8 -14 2.4 -7.4 2.5 -7.4 55.5 -10 62.2 -3 86.2 -5.7 113 -12.5 41 -10.4 80.6 -29.8 111.1 -54.2 27.1 -21.7 64.3 -64.1 82.7 -94.3 15.6 -25.8 32.5 -66.7 37.7 -92 10.9 -51.7 6 -118.4 -12.6 -174.3 -4.6 -13.8 -30.4 -78.7 -52 -130.5 -14.2 -34.1 -19.3 -48.6 -22.8 -64.2 -5 -22.5 -5.5 -37 -2 -60.4 5.6 -37.7 28.7 -86.9 56.3 -120.1 3.9 -4.6 6.9 -8.5 6.7 -8.7 -0.1 -0.1 -4.2 -1.4 -9.2 -2.8 -10.5 -3.1 -29.8 -12.2 -40.4 -19.2 -4.1 -2.8 -9.8 -7.4 -12.5 -10.4 -23.2 -24.8 -27.7 -55.2 -16.5 -111 5.6 -27.7 13.3 -51.7 33.1 -102.1 18.2 -46.6 28.2 -76.2 35.9 -106.2 12.7 -49.9 16.8 -80.4 14.9 -112.6 -2.4 -41.1 -8.9 -68.4 -23.5 -97.5 -15.6 -31.5 -33.9 -51.3 -67.7 -73.6 -15 -9.9 -26.1 -16 -40.6 -22.2 -58.1 -24.6 -138.8 -37.7 -201.3 -32.6 -7.5 0.6 -15.8 0.8 -18.4 0.4 -12.4 -1.8 -14.4 -15.5 -3 -20.9 11.3 -5.3 63.9 -6.8 97.6 -2.8 89.9 10.9 151.1 33.2 202 73.9 43.6 34.7 69.8 85.5 77.6 150.3 2.5 20.6 2.5 58.9 0.1 76.5 -2.7 18.6 -7 39.8 -13.2 64 -8.6 33.6 -17.4 59.5 -38.4 112.8 -24.8 62.9 -32 87 -36.6 123 -4 30.9 0.1 49.5 14.1 64.7 8.7 9.3 26.6 18.8 47.9 25.5 19.5 6.1 25.7 9.9 27.6 16.7 1.6 6.1 -0.3 10.1 -9.5 19.8 -19.7 20.8 -36.2 47.6 -48.4 78.6 -9.3 23.7 -12.8 43.3 -11.9 66.7 0.8 22.9 5.1 37.4 24.7 84.7 16.7 40.1 41.6 101.8 47.4 117.2 16.7 44.7 24.9 91.6 24.9 142.8 0 48.2 -10.8 89.6 -36.5 140.2 -19.6 38.8 -62.1 90.3 -98.3 119.3 -44.3 35.5 -101.4 59.4 -160.2 66.9 -29 3.8 -108.8 7.9 -117.3 6z"/>
  <path d="M622 1635.4 c-22.8 -6.1 -46.9 -26.1 -54.5 -45.3 -1.2 -3.1 -2.6 -6.5 -3 -7.6 -2.1 -4.9 -1.6 -5.3 5.9 -5.9 28.5 -2.4 117.4 -6.8 126.6 -6.4 7.5 0.3 7.2 -0.7 3.6 13.2 -4.1 15.6 -8.5 23.6 -19.1 34.1 -9.6 9.7 -18.6 15.1 -29.5 18 -7 1.9 -22.8 1.8 -30 -0.1z"/>
  <path d="M798.7 1625.5 c-3.7 -0.8 -10.2 -2.9 -14.5 -4.7 -17.8 -7.7 -27.5 -17.1 -37.2 -36 -3.5 -6.8 -6.6 -12.5 -7 -12.8 -0.4 -0.3 -0.7 -1.3 -0.7 -2.2 0 -1.5 1 -1.8 7.1 -1.8 8.5 0 47.8 -1.6 77.6 -3 18.4 -1 39.4 -2.8 53.1 -4.7 4.2 -0.6 5.8 1 3.7 3.5 -0.8 0.9 -2.2 3.8 -3.2 6.3 -4.2 11.6 -15.1 25.7 -30.1 39.1 -10.9 9.7 -20.3 15.1 -29.4 16.8 -6.8 1.3 -10.9 1.2 -19.4 -0.5z"/>
  <path d="M1358.8 1118.1 c-8.2 -2.6 -13.5 -6.1 -19.9 -12.8 -9.1 -9.5 -13.3 -19.8 -13.3 -32.8 0.1 -14.8 5.9 -28.1 17.3 -39.4 15.2 -15.2 35.1 -18.3 53.4 -8.4 13.1 7.2 25.3 29.3 26.5 47.9 1.2 21.5 -12.3 38.8 -35.7 45.8 -7.4 2.2 -21 2 -28.3 -0.3z"/>
  <path d="M939 1106 c-6.3 -1.7 -14.3 -4.4 -17.8 -6 -11.9 -5.6 -21.7 -17.5 -25.5 -31 -2.9 -10.2 -5.4 -26.4 -5 -32.1 0.3 -3.1 0 -7.3 -0.5 -9.3 -1.7 -6.1 -1 -6.3 22 -6.9 22.8 -0.5 19.6 -1.4 26.8 7.4 3.5 4.4 10.6 7.9 15.7 7.9 7.4 -0.1 17.8 -6.9 21.8 -14.3 1.8 -3.5 1.8 -3.5 10.9 -4.1 5 -0.4 12.6 -1.4 16.9 -2.2 4.3 -0.9 8.1 -1.4 8.3 -1.1 0.6 0.6 0.6 3.1 0 8.7 -0.3 2.5 -1 9.9 -1.6 16.5 -1.3 14.1 -4.9 30.4 -8.6 38 -3.6 7.8 -10.5 16.6 -16.7 21.3 -13.7 10.6 -26.5 12.6 -46.7 7.2z"/>
  <path d="M469.2 1099.9 c-3 -0.5 -8.4 -2.1 -12 -3.5 -15.2 -6 -22.1 -11.8 -27.3 -22.8 -5.5 -11.8 -6.4 -17.3 -6.4 -38.6 0 -37.4 1.3 -132.5 1.9 -137.5 0.3 -2.7 1.1 -12.4 1.7 -21.5 0.7 -9.1 1.3 -17.2 1.5 -18 0.1 -0.8 0.3 -2.2 0.3 -3.1 0.1 -1.3 3.2 -1.7 19.9 -2.8 20.4 -1.3 31.2 -2.2 54.2 -4.6 17.4 -1.9 36 -2 36 -0.2 0 0.6 -0.5 3 -1 5.2 -0.5 2.2 -1.4 10.8 -2 19 -1.4 20.5 -2.7 31 -6 51.5 -1.5 9.6 -3.1 20.9 -3.5 25 -0.4 4.1 -1.5 15.2 -2.6 24.5 -3.4 30.8 -4.9 53.3 -4.9 73.9 0 22 -1 28.5 -5.6 36.3 -6.4 10.9 -17.4 17.3 -30.7 17.9 -4.5 0.1 -10.6 -0.1 -13.5 -0.7z"/>
  <path d="M889.8 1008.3 c-0.2 -1 0 -4.5 0.5 -7.8 0.5 -3.3 0.6 -28.9 0.3 -57 -0.8 -62.7 -0.9 -105.5 -0.5 -105.9 0.2 -0.2 11.2 -0.8 24.4 -1.4 13.2 -0.7 37.4 -2.4 53.7 -3.9 16.4 -1.4 30 -2.4 30.3 -2.2 0.2 0.3 0.7 2.1 1 4 0.2 1.9 2 14 3.9 26.9 3.9 26 4.8 34.3 7.1 66.5 1.6 21.7 3.3 66.7 2.7 69.8 -0.3 1.3 -1.7 1.6 -9 1.4 -4.8 -0.1 -13.4 0.2 -19.2 0.6 l-10.5 0.8 -3.8 -5.1 c-4.5 -6.1 -9 -9 -13.6 -9 -6.7 0 -15.3 5.8 -22.1 14.8 -2.5 3.2 -2.5 3.2 -17 4.8 -8 0.8 -17.3 2.2 -20.8 3 -7.7 1.7 -7 1.7 -7.4 -0.3z"/>
  <path d="M1358.7 981.6 c-19.1 -7.1 -25.4 -25.9 -24.4 -72.6 0.7 -34.1 3.5 -46.2 14.6 -63.3 10.4 -15.8 22.9 -27.6 48.6 -46 24.1 -17.3 31.4 -25.3 38.3 -41.9 2.2 -5.3 2.7 -8.2 3 -18.7 0.2 -7.2 -0.1 -14.9 -0.8 -18.5 -2.7 -13.8 -12.9 -27 -24.5 -31.7 -5.7 -2.3 -7.1 -2.4 -25 -2.3 -22.4 0.1 -29 1.5 -45.1 9.3 -11.1 5.5 -17.7 10.8 -25.5 20.9 -8.1 10.4 -12 14.2 -17.3 16.9 -21.9 11.2 -43.6 -8.5 -38.2 -34.6 2.7 -12.7 13.2 -29.2 26 -40.8 16 -14.5 45.1 -28.1 69.9 -32.8 11.6 -2.2 36.5 -3.4 48.4 -2.4 25.6 2.2 47.2 11.9 64.2 29.1 8.2 8.2 13.9 16.4 20 28.5 7.9 15.8 11.1 32 11.1 56.1 0 26.1 -6.5 46.9 -21.8 69.8 -10 14.9 -18.5 23.1 -41.8 40.4 -28.5 21.3 -36.5 29.3 -39.3 39.6 -2.4 8.5 -3.3 29.5 -1.9 41.5 0.7 6.3 1.3 15.9 1.3 21.4 0 8.7 -0.3 10.7 -2.6 15.5 -3 6.3 -8.6 12.3 -14.4 15.3 -5.1 2.6 -17.4 3.3 -22.8 1.3z"/>
  <path d="M686 605.5 c-19 -5.3 -32.7 -14 -50.9 -32.3 -13.9 -14.1 -13.9 -14 -2.3 -14.8 12.1 -0.8 12.5 -1.7 2.9 -6.5 -30.6 -15.5 -55.9 -44.7 -66.5 -76.9 -6.1 -18.2 -8.6 -42.2 -6.3 -59.3 6.5 -48.6 37.3 -92.1 80.8 -114.5 13.1 -6.7 18.5 -8.8 33.3 -12.7 6.9 -1.9 15.9 -4.6 20 -6.2 7.2 -2.7 8.2 -2.8 24 -2.7 12.9 0.1 18.8 0.6 27 2.3 59 12.4 99.8 54.5 109.6 113.2 2.4 14.4 1.5 38.4 -1.9 52.9 -9.9 42.1 -38.2 79.2 -76.4 100.2 -4 2.2 -7.3 4.4 -7.3 4.9 0 0.8 0.8 1 7 1.5 1.4 0.1 3.3 0.2 4.4 0.3 2.7 0.2 1.8 2.4 -5.5 12.6 -8.8 12.5 -23.9 27.4 -30.9 30.6 -15.7 7.3 -47.7 11.2 -61 7.4z"/>
 </g>
 <g fill="#aaebfc">
  <path d="M572.2 1047.5 c-6.3 -0.7 -11.5 -1.5 -11.7 -1.7 -0.2 -0.2 -0.6 -13.4 -0.9 -29.3 -0.3 -16 -1.5 -42.9 -2.6 -60 -1.1 -17 -2.5 -44.5 -3 -61 -2.4 -78.8 -3.3 -101.1 -3.9 -102.3 -0.4 -0.7 -1.5 3.1 -2.5 8.5 -0.9 5.4 -3.3 18.2 -5.3 28.6 l-3.6 18.7 -9.6 0 c-5.3 0 -15.7 0.7 -23.1 1.5 -22.2 2.4 -76.2 6.6 -76.8 6 -0.8 -0.7 4.1 -47.2 6.4 -61.4 2.7 -16.2 10.1 -47.5 16 -67.6 7.1 -24.1 20.5 -52.5 37.8 -80.3 12.9 -20.8 21.7 -32.2 33 -43 10 -9.6 19 -15.7 35.4 -24 15.1 -7.7 27.8 -12.1 48.2 -16.6 9.1 -2 17.5 -3.9 18.8 -4.1 1.8 -0.5 4.4 1.6 14 11.3 6.4 6.5 15.5 14.5 20.2 17.7 9 6.4 23.2 12.6 33 14.7 11.6 2.4 38.9 -1.9 52.5 -8.3 6.4 -3 22 -18.5 30 -29.9 3.3 -4.6 6.2 -8.8 6.6 -9.2 0.7 -1 23.6 1.7 36.9 4.3 38.4 7.7 70.4 26.5 107.1 62.9 12.9 12.8 19.1 20.9 27.2 36 10.3 19.2 25.8 63.4 34.2 98.1 2.3 9.6 12.9 74.8 12.3 75.5 -0.3 0.2 -46.7 4.5 -64.3 5.9 -3.3 0.2 -14.8 0.7 -25.5 1.1 l-19.5 0.7 0.3 -23.9 c0.4 -27.4 -0.9 -48.8 -3.8 -63.5 -2.3 -12.2 -5.9 -23.4 -7 -22.2 -0.5 0.4 -1.6 10.3 -2.5 21.8 -1.3 16 -1.9 40.3 -2.4 101.5 -0.4 44.3 -1 81 -1.4 81.6 -0.3 0.6 -0.9 22.9 -1.2 49.5 -0.6 48.3 -0.6 48.4 -2.8 50.1 -4.2 3.2 -14.6 3.6 -47.2 1.9 -23.4 -1.2 -86 -1.8 -91 -0.8 -1.7 0.4 -11.8 1.1 -22.5 1.7 -13.2 0.7 -27.2 2.3 -43.5 4.9 -36.4 5.9 -67.6 7.4 -92.3 4.6z"/>
 </g>
 <g fill="#00b4f0">
  <path d="M563.3 1578.8 c-0.1 -0.7 -1.3 -6.2 -2.7 -12.3 -9 -38.9 -11.6 -72.9 -11.6 -152.5 0 -29.7 0.6 -57.7 1.9 -84.5 1.1 -22 2.5 -51.2 3.1 -65 0.6 -13.7 1.7 -34 2.5 -45 2.4 -33.5 3.5 -73.1 3.5 -126.9 l0 -51.4 3.7 1.3 c2.1 0.7 10.5 1.9 18.6 2.6 14.5 1.3 20.3 1.1 55.7 -1.7 3 -0.2 15 -2 26.5 -3.9 23.8 -3.9 26.5 -4.2 62.5 -6.2 24.9 -1.4 114.1 -0.1 119.8 1.7 0.4 0.1 0.9 0.2 1.2 0.2 12.1 -0.7 15.6 -1.4 18.6 -3.7 1.8 -1.4 3.5 -2.5 3.8 -2.5 0.3 0 0.6 5.7 0.6 12.8 0 17.3 1.7 44 4 65.7 1.1 9.9 2.6 26.2 3.5 36.2 0.8 10.1 2.7 26.7 4 37 1.4 10.4 2.9 23.1 3.5 28.3 2.1 20.3 3.5 96.1 3.4 188.5 0 89.6 -0.2 96.4 -2.2 119.8 -1.3 13.6 -3 28.5 -3.9 33 -0.9 4.5 -1.6 9.1 -1.6 10.3 0.1 1.8 -0.8 2.2 -6.1 3.2 -13.8 2.6 -50.8 4.8 -111.6 6.8 -10.7 0.3 -20.7 0.7 -22.2 0.9 -1.9 0.1 -2.6 -0.2 -2.6 -1.4 0 -0.9 -1.6 -6.9 -3.6 -13.5 -5.7 -18.7 -12 -55.5 -15.1 -89.1 -2.3 -24.4 -3 -73.5 -1.6 -113 0.6 -18.7 1.6 -69.1 2.1 -112 0.6 -42.9 1.4 -88.6 2 -101.5 1.1 -27.4 1.2 -69.5 0.1 -76 l-0.7 -4.5 -1.2 4 c-0.6 2.2 -1.8 9.4 -2.7 16 -0.9 6.6 -2.4 17.2 -3.5 23.5 -4.8 28.9 -5.7 43.6 -8.1 128.5 -0.8 27.4 -0.9 57.5 -0.3 95.5 0.5 30.5 0.9 88.6 0.9 129 0 65.8 -0.2 75.4 -1.9 92 -1.1 10.2 -2 19.7 -1.9 21.3 l0 2.7 -8.1 0 c-4.5 0.1 -10.3 0.3 -13.1 0.5 -2.7 0.2 -12.2 0.6 -21 1 -8.8 0.4 -18.2 0.8 -21 1 -2.7 0.2 -10.2 0.7 -16.5 1 -6.3 0.3 -14.6 0.8 -18.5 1 -40 2.8 -42.2 2.8 -42.2 1.3z"/>
 </g>
 <g fill="#ffec0e">
  <path d="M951 1039.3 c-7.1 -1.1 -12.9 -4.8 -17.4 -11.1 l-3.3 -4.5 -15.9 0.2 c-8.7 0.1 -17.9 0.4 -20.4 0.7 l-4.5 0.6 0.3 -9.5 0.3 -9.5 5.7 -1.1 c3.1 -0.6 12 -1.7 19.7 -2.6 13.9 -1.5 14 -1.5 16.5 -4.7 7.9 -10.4 15.3 -14.8 25.1 -14.8 7.8 0 11.3 1.9 16.6 9 3.1 4.2 4.2 5 6.3 4.6 5.4 -1.1 24.2 -1.8 28.5 -1.2 l4.6 0.7 -0.3 10.7 -0.3 10.6 -6 1.2 c-3.3 0.7 -10.3 1.5 -15.6 1.9 l-9.5 0.7 -1.9 3.4 c-5.1 9.4 -18.4 16.3 -28.5 14.7z"/>
 </g>
</svg>