<?xml version="1.0" encoding="utf-8"?>
<!DOCTYPE svg PUBLIC "-//W3C//DTD SVG 1.0//EN" "http://www.w3.org/TR/2001/REC-SVG-20010904/DTD/svg10.dtd">
<svg version="1.0" xmlns="http://www.w3.org/2000/svg" width="1924px" height="1924px" viewBox="0 0 1924 1924" preserveAspectRatio="xMidYMid meet">
 <g fill="#2b3f45">
  <path d="M735 1791 c-5.2 -0.4 -25.5 -1 -45 -1.3 -38.4 -0.6 -41.8 -0.9 -93.5 -8.2 -37 -5.3 -48 -7.6 -66.5 -14 -19.9 -6.9 -21.6 -7.4 -32 -9.6 -11.7 -2.4 -18.5 -5.5 -24.5 -11 -5.6 -5.1 -8.9 -11.3 -10.6 -19.7 -1.4 -6.8 -0.8 -13.4 3.7 -37.7 1.4 -7.1 4.5 -23.8 6.9 -37 4 -21.8 10 -51.9 15.4 -77.5 4.4 -20.6 9.2 -60.6 14.1 -116.5 5.9 -68 3.4 -104.3 -10.4 -152.6 -3.5 -12.4 -7.9 -26.1 -9.7 -30.5 -10.3 -24.8 -35.3 -66.6 -62.4 -104.4 -16.2 -22.6 -38.8 -58.6 -53.2 -84.8 -16.6 -30.1 -39.7 -78.7 -47.4 -99.5 -7.6 -20.4 -16.7 -57 -21.9 -87 -5.2 -31 -7 -50.8 -8.4 -94.1 -0.7 -21.7 1.1 -58.8 4.4 -87.6 6.1 -53.7 9 -70 20.9 -117.5 12.1 -48.1 20.7 -73.8 38.8 -115.5 34.1 -78.2 36.9 -83.5 79.1 -145.1 19.7 -28.9 26.3 -37.1 45.2 -56 27.4 -27.5 46.5 -43 71 -57.6 27.7 -16.5 47.5 -25.7 76 -35.2 58.5 -19.6 123.3 -33.9 180 -39.6 8.5 -0.9 26.5 -2.9 40 -4.5 62.2 -7.3 86.1 -7.3 127.7 0 46.5 8.2 55.3 10 71.1 14.5 48.5 13.9 58.9 17.5 88.2 30.5 9.6 4.3 20.9 9.2 25 11 10.9 4.7 51.1 25 61 30.7 23.6 13.7 62.5 39.1 76 49.7 19 14.8 62.6 56.2 83.3 79.1 26.3 29.2 47.7 61.2 70.1 105.5 26.8 52.8 39.1 93.9 48.5 162.5 1.1 8.3 3.8 24.5 6 36 2.2 11.6 5.3 29.8 7.1 40.5 7 43.7 11.8 64.3 18.3 78.3 4.8 10.3 25.2 36.8 46.2 60.2 15.8 17.6 45.1 56.2 50.5 66.7 8.2 15.7 10.1 33.7 6 56.9 -3.2 17.5 -5.6 25.3 -12.5 39.5 -6.7 13.8 -17 28.5 -32.8 46.6 -18.9 21.8 -23.8 28.9 -26.1 38.3 -1.6 6.2 -5.7 43.4 -7.6 68.5 -2.5 32.9 -6.5 77.5 -8.6 95 -5.8 48.8 -7.8 61.5 -13.9 87 -2.5 10.2 -5.6 23.9 -7.1 30.5 -3.6 16.4 -6.6 25.6 -13.6 41.5 -10.2 23 -13.4 28.5 -22.4 38 -14.7 15.4 -40.9 31.7 -62.5 38.9 -9.5 3.1 -42.5 10.8 -58.6 13.5 -4.8 0.9 -16.9 2.2 -26.8 3.1 -9.9 0.8 -24.3 2.2 -32 2.9 -7.7 0.8 -20.1 1.7 -27.5 2.1 -7.4 0.3 -17.3 1 -22 1.5 -4.7 0.6 -14.8 1.4 -22.6 2 -21.4 1.5 -54.4 5.7 -60 7.6 -21.9 7.4 -39.5 17.6 -52.4 30.4 -11.2 11 -14.3 15.5 -23.8 34.5 -13.9 27.9 -19.1 40.6 -33.7 83 -13.6 39.3 -29.4 68.9 -44.3 82.6 -11.9 11 -32.2 21.5 -48.7 25.2 -14 3.1 -35.7 5.2 -66.5 6.2 -9.6 0.3 -24.5 1 -33 1.5 -36.2 2.2 -120.1 3.4 -136 2z m-42.3 -739.5 c6.5 -0.9 16.6 -2.6 22.4 -4 11 -2.4 25.9 -8.5 25.9 -10.5 0 -2.3 -6.2 -25.3 -12.8 -48 -3.8 -12.9 -7.7 -26.4 -8.6 -30 -2.7 -11.3 -6.5 -34.8 -8.9 -55.5 l-2.3 -20 -6.4 0.1 c-3.6 0.1 -19.5 0.6 -35.5 1 l-29 0.9 0.3 28 c0.1 15.4 0.5 33 0.7 39 0.3 6.1 1 24.5 1.5 41 1 28.1 3.1 50.9 5.1 54.7 0.6 1.1 3.2 2 7.6 2.7 14.9 2.4 25.1 2.5 40 0.6z m-111.1 -84.2 c-0.1 -39.8 0.3 -63.2 1.2 -72.3 1.5 -16.2 5.7 -45.3 7.7 -53.1 1 -3.9 1.5 -11.2 1.5 -23 0.1 -32.2 1.6 -51.5 5.9 -77.4 2.2 -13.2 4.9 -30.3 6 -38 1.2 -7.7 2.4 -15.7 2.7 -17.9 0.7 -3.8 0.7 -3.8 -1.6 -2.6 -1.3 0.7 -7.8 5 -14.5 9.7 -20.6 14.2 -33.8 28.9 -44.7 50 -7.4 14.3 -12 26.7 -17.4 47.1 -11.9 44.8 -14.2 50.1 -21.1 47.6 -7.4 -2.6 -12.9 -25.6 -10.4 -43.6 3.3 -24.7 14.2 -61.3 23.6 -79.5 12.8 -24.6 22.2 -36.7 41.9 -53.5 18.5 -15.7 29.6 -24 43.4 -32.2 6.1 -3.7 11.2 -7.1 11.2 -7.4 0 -0.4 -3.4 -4.1 -7.6 -8.2 -9.7 -9.6 -15.3 -17.5 -20.9 -29.1 -15.4 -32.7 -14.4 -65.1 3.3 -100.4 16.8 -33.6 46.1 -56.5 80.3 -62.9 33.7 -6.2 53.9 -7.5 68.4 -4.1 14.3 3.3 29.6 12.5 47.2 28.3 21.8 19.8 32.2 45.5 34 83.7 1.7 38.6 -12.7 67 -45 88.6 -7.3 4.9 -31 17.5 -36 19.2 -1.8 0.6 9.6 14.9 18.9 23.7 6 5.6 12.7 10.4 24.6 17.6 18.7 11.2 30.1 16.7 44.2 21.4 9.5 3.1 10 3.2 11.3 1.5 0.7 -1 1.5 -1.7 1.7 -1.4 0.3 0.2 1.2 5.6 2 11.9 0.9 6.3 2.7 19.8 4.1 30 1.4 10.2 2.5 20.2 2.5 22.3 l0 3.8 -2.6 -2 c-1.5 -1.2 -3.5 -2.1 -4.4 -2.1 -2.5 0 -19.4 -4.5 -28.7 -7.6 -18.2 -6.1 -39.9 -18.7 -65.8 -38.1 -11 -8.3 -12.5 -9.2 -12.5 -7.2 0 2.5 4.9 32.9 7.4 45.8 4.3 22.2 10.3 48.2 14.1 61.1 5 16.9 5.5 25.9 2.3 35.9 l-2.5 7.4 3.7 18.6 c2.1 10.2 5 25.1 6.5 33.1 3.8 20.1 6.7 31.6 13.4 52.5 3.2 9.9 7.1 22.4 8.6 27.8 1.8 6.1 3.3 9.7 4.1 9.7 2.6 0 14.1 -12.5 32 -35 15.8 -19.7 21.7 -26.5 37.2 -43 2.7 -2.9 3.2 -4.1 3 -7.3 -0.3 -3.6 0.1 -4.2 7.7 -11.5 8.6 -8.3 25.6 -23.1 31.8 -27.7 l3.8 -2.8 1.5 2.2 1.6 2.2 5.1 -3.8 c13.6 -9.8 21.6 -14.6 40.2 -23.8 18.6 -9.4 20 -10.2 19.8 -12.7 -0.1 -2.4 0.6 -2.8 10.5 -6.6 5.9 -2.2 14.5 -5.3 19.1 -6.9 l8.4 -2.8 1.4 2.2 c1.4 2.1 1.7 2.2 5.2 0.7 5.8 -2.4 24.1 -7 45.1 -11.4 32.6 -6.7 46.1 -10.4 81 -21.9 25.2 -8.3 36.8 -12.8 46.9 -17.7 l13.4 -6.7 -2.4 -1.8 c-1.3 -1 -2.1 -2 -1.9 -2.3 0.3 -0.2 5.7 -3.8 12 -7.8 6.3 -4.1 14 -9.3 17 -11.6 5.3 -4.1 6.6 -4.4 11.2 -2.7 0.8 0.3 5.6 -3 11.3 -7.7 21.8 -18 35.1 -32.8 41.5 -46.4 8.6 -17.8 16.1 -53.7 16.1 -76.4 0 -26.2 -9.9 -57.5 -29.8 -94.5 -17.9 -33.2 -31.1 -50.6 -67.5 -88.6 -24.7 -25.8 -37.6 -36.5 -61 -50.7 -14 -8.6 -50.5 -27.4 -64.2 -33.2 -9.9 -4.2 -35.3 -13.4 -45.5 -16.4 l-5.3 -1.6 0.6 2.5 c0.8 3.1 0.4 3.1 -10.2 0.3 -7.6 -2 -8.4 -2.4 -8.9 -5 -0.3 -1.5 -0.7 -2.8 -0.8 -2.8 -0.1 0 -5.7 -1.1 -12.4 -2.5 -17.3 -3.5 -48.1 -7.9 -80 -11.5 -15 -1.6 -27.9 -3 -28.7 -3 -0.8 0 -1.4 0.9 -1.4 2 0 2.3 -0.7 2.3 -11.3 1.3 -6 -0.5 -7 -0.9 -7.7 -2.9 -1.3 -3.4 -4.4 -3.8 -22.9 -3 -9.1 0.4 -27.2 1.1 -40.1 1.6 -23.8 0.9 -35.2 2.4 -61 7.6 -23.1 4.7 -60.2 15.8 -82.2 24.5 -13.2 5.2 -36.9 17.2 -41 20.7 -1.8 1.5 -6.4 5.2 -10.3 8.2 -8.1 6.3 -54 52.5 -57.1 57.5 -1.1 1.9 -4.2 5.8 -7 8.8 -2.7 3 -8 9.2 -11.9 13.8 -3.8 4.6 -9.2 10.8 -12 13.9 -13.8 15.4 -23.9 31.3 -31.1 48.8 -1.8 4.5 -5.8 12.7 -8.8 18.1 -14.6 26 -36.1 85.5 -42.6 117.9 -1.9 9.6 -5.8 40.5 -8 63.7 -2.9 29.4 -0.3 61.2 8.1 99 6.8 31.1 15.5 57.2 31.4 94 12.4 28.9 25.4 51.8 40.7 71.6 8.5 11.1 38.8 41.8 47.2 47.9 4.5 3.3 10.3 6.9 11.2 7 0 0 0 -26.4 0 -58.7z m102.9 -322.3 c-0.5 -0.8 -1.1 -0.8 -1.7 -0.2 -0.6 0.6 -0.7 1.6 -0.3 2.2 0.5 0.8 1.1 0.8 1.7 0.2 0.6 -0.6 0.7 -1.6 0.3 -2.2z"/>
  <path d="M888.2 754.8 c-0.7 -5.7 -1.9 -15.5 -2.7 -21.8 -0.8 -6.3 -1.4 -14.3 -1.5 -17.7 l0 -6.3 4.7 3.3 c9.1 6.3 15.1 13.1 16.8 19.2 3 10.1 0.1 18.6 -9.4 27.8 -3.3 3.1 -6.2 5.7 -6.4 5.7 -0.1 0 -0.8 -4.6 -1.5 -10.2z"/>
 </g>
 <g fill="#a7e6f7">
  <path d="M864.7 911.2 c-1 -3.7 -2.2 -13 -2.7 -20.7 -1.4 -19.5 -2.8 -32.9 -5 -48 -1.6 -11.4 -3.6 -29.3 -7 -65.4 -0.6 -5.7 -1.4 -10.9 -1.9 -11.5 -0.5 -0.6 -2.1 -10.1 -3.6 -21.1 -1.5 -11 -3.3 -24.4 -4 -29.7 -0.7 -5.3 -1.1 -13.4 -0.8 -18 l0.6 -8.4 -6.1 -3.7 c-9.9 -6.1 -16.7 -15.6 -20.6 -28.7 -1.9 -6.4 -2.2 -19 -0.5 -25.2 1.5 -5.6 6.1 -14.7 9.5 -18.7 2.8 -3.3 11.8 -9.1 14.3 -9.1 0.8 0 5.3 -1.9 10 -4.2 8.4 -4.2 8.7 -4.3 19.1 -4.3 9.5 0 11.1 0.3 16.2 2.8 16.7 8.2 28.8 27.9 27.6 44.9 -0.9 11.3 -5.8 20 -18.5 32.7 l-10.4 10.3 2 12.1 c1.2 6.6 2.5 12.5 3 13.1 0.5 0.6 1.2 4.9 1.5 9.6 0.4 4.7 1.6 14.6 2.6 22 1 7.4 1.9 17.3 1.9 22 -0.1 9.6 3 28.7 9.5 60 2.5 11.8 5.6 28.9 7 38 l2.4 16.5 -2.6 2 c-2.4 1.8 -23 19.2 -24.2 20.5 -0.3 0.3 -4.4 4.2 -9.1 8.7 l-8.5 8.3 -1.7 -6.8z"/>
  <path d="M975.5 832.3 c-2.3 -6.7 -2.8 -10.3 -3.6 -26.1 -0.8 -16.3 -1.3 -19.4 -4.1 -28 -1.7 -5.3 -4 -15.3 -5.2 -22.1 l-2.2 -12.5 -4.1 -1.3 c-5.8 -2 -11.8 -7.5 -14.9 -13.9 -2.5 -5.1 -2.6 -6.1 -2.2 -15.2 0.3 -5.8 1.2 -11.3 2.2 -13.6 4.6 -10.8 15.2 -18.2 26.1 -18 15.8 0.2 27.5 14.4 27.5 33.3 0 8.9 -2 15.8 -5.6 19.1 -1.3 1.3 -2.4 3.2 -2.4 4.2 0 1.1 2.3 6.8 5 12.8 3.4 7.1 5.5 13.5 6.5 18.8 2 11.6 3.2 15.3 9.2 28.5 5.9 13.2 9.8 26.8 7.9 27.9 -0.6 0.4 -4.5 1.9 -8.8 3.2 -6.1 2 -20.3 7.3 -27.4 10.3 -0.7 0.2 -2.3 -2.7 -3.9 -7.4z"/>
  <path d="M1198 763.3 c-13.2 -4.3 -35.4 -12.5 -39 -14.3 -2 -1 -7.8 -3.5 -13 -5.5 -5.1 -2.1 -11.6 -5.1 -14.4 -6.7 -8.3 -4.9 -27.7 -14.4 -33.1 -16.2 -2.7 -0.9 -6.3 -2.4 -8 -3.4 l-3 -1.9 -5 5.2 c-8.4 8.7 -21.7 11.9 -31 7.6 -12.9 -6 -20.8 -25.7 -16 -40.1 4.7 -14.2 17.7 -19.6 32.8 -13.5 10.6 4.4 13 6.5 17.8 15.9 4.1 7.9 4.6 8.6 7.4 8.6 2.9 0 35.5 7.9 40.5 9.8 1.4 0.5 4.7 1.2 7.3 1.6 2.6 0.4 7.3 1.6 10.5 2.7 10.6 3.7 41.6 12.7 61.1 17.9 10.6 2.8 21.8 6.3 24.9 7.9 l5.5 2.8 -7.4 5.5 c-9.3 7 -27.9 18.8 -29.3 18.7 -0.6 -0.1 -4.5 -1.3 -8.6 -2.6z"/>
  <path d="M1023.2 619.3 c-6.2 -2.2 -7.6 -4.8 -7 -13.6 0.4 -5.1 2.1 -12.2 6.1 -24.2 8.4 -25.5 13.6 -43.4 14.3 -49 0.3 -2.7 1.3 -7.6 2.1 -10.8 1.3 -4.6 1.4 -6.6 0.5 -9.5 -1.8 -6 -5 -34.1 -6.2 -55.2 -0.6 -10.7 -2.2 -28.9 -3.5 -40.5 -2.8 -24.7 -3.1 -28.6 -5 -59.5 -0.8 -12.9 -1.9 -25.7 -2.4 -28.5 -0.5 -2.7 -0.8 -5.1 -0.6 -5.3 0.6 -0.6 17.1 4 18.1 5.1 1.3 1.4 6.9 18.2 8.3 24.8 2.2 9.8 6.1 40.4 7.6 58.4 0.9 10.5 3.1 29.8 5 43 1.9 13.2 3.5 27.3 3.5 31.4 l0 7.3 5.6 5.1 c6.7 6.2 22.4 24.6 29 34.2 9.1 13 21.5 30 27 37 8 10 9.4 12.5 9.4 16.7 0 7.7 -3.5 9.4 -41 19.4 -7.4 2 -17.5 5.2 -22.5 7.1 -9.4 3.7 -16.3 5.4 -28.3 7.2 -9.5 1.4 -14.7 1.3 -20 -0.6z m41.3 -26.7 c3.9 -0.8 12.8 -3.3 19.9 -5.5 7.1 -2.2 15.6 -4.6 18.8 -5.2 3.2 -0.6 5.8 -1.5 5.8 -1.8 0 -0.4 -2.8 -2.5 -6.2 -4.6 -6.5 -4.2 -20.2 -17.7 -26.4 -26 -4.9 -6.6 -10.5 -12.5 -12 -12.5 -0.6 0 -2.4 3.5 -3.9 7.8 -1.5 4.2 -6.3 15.1 -10.5 24.2 -4.3 9.1 -8.5 18.7 -9.4 21.4 l-1.6 4.9 9.3 -0.6 c5 -0.3 12.4 -1.3 16.2 -2.1z"/>
  <path d="M877.4 532.5 c-4.3 -1.9 -8.4 -7.1 -8.4 -10.5 0 -3.7 3.3 -20.9 7 -36.5 3.7 -15.4 9.7 -47.4 11.2 -59.1 0.9 -7 0.9 -11.6 -0.1 -20 -0.6 -6 -1.8 -17.7 -2.6 -26.1 -0.8 -8.3 -1.9 -18.9 -2.4 -23.5 -1.1 -8.5 -3.4 -52.9 -2.8 -53.5 0.2 -0.1 3.7 0.1 7.8 0.7 4.1 0.5 8.2 1 9.1 1 1.4 0 1.7 1.4 2.1 8.8 1.3 27.8 3.7 60.1 6.3 87.9 0.6 6 0.8 6.3 4.8 8.7 7.3 4.3 31.1 31.2 45.3 51.2 3.8 5.3 8.5 11.9 10.5 14.7 4.8 6.7 13.2 26 12.4 28.5 -1.1 3.3 -3.9 5 -11.1 6.7 -3.8 0.9 -10.1 3.1 -14 5 -4.7 2.2 -11.4 4.3 -20 6 -7.1 1.4 -20 4.5 -28.5 6.7 -17.8 4.7 -22.3 5.3 -26.6 3.3z m18.2 -16.9 c4.6 -1.4 10.9 -3.6 14.1 -5 3.2 -1.4 12.1 -4.2 19.7 -6.1 11.1 -2.8 15.9 -3.5 23.5 -3.5 l9.5 0 -4.2 -3.6 c-2.3 -1.9 -7 -7 -10.4 -11.2 -9.3 -11.5 -44.7 -48.6 -45.5 -47.8 -0.3 0.3 -1.5 6 -2.8 12.8 -1.3 6.8 -3.7 17.9 -5.3 24.8 -1.6 6.9 -4.4 18.8 -6.2 26.5 -1.8 7.7 -3.5 14.6 -3.8 15.4 -0.4 1 -0.1 1.3 1.2 0.8 1 -0.4 5.5 -1.8 10.2 -3.1z"/>
 </g>
</svg>