<?xml version="1.0" encoding="utf-8"?>
<!DOCTYPE svg PUBLIC "-//W3C//DTD SVG 1.0//EN" "http://www.w3.org/TR/2001/REC-SVG-20010904/DTD/svg10.dtd">
<svg version="1.0" xmlns="http://www.w3.org/2000/svg" width="1924px" height="1924px" viewBox="0 0 1924 1924" preserveAspectRatio="xMidYMid meet">
 <g fill="#02b4f1">
  <path d="M875 1770.5 c0 -0.8 0.5 -1.5 1.1 -1.5 0.7 0 0.9 -1 0.5 -2.6 -1.1 -4.4 -3.5 -31.7 -4.2 -48.4 l-0.7 -16 3.4 0 c1.9 0 3.9 0.4 4.4 0.8 1.2 0.8 24.4 27.7 42.3 49 9.5 11.3 11.2 13.8 11.2 16.8 l0 3.4 -29 0 c-25.1 0 -29 -0.2 -29 -1.5z"/>
  <path d="M936.1 1768.1 c0.3 -3.6 -0.4 -4.9 -6.6 -12.8 -10.3 -13 -35.5 -43.2 -46.7 -56 -9 -10.3 -9.8 -11.6 -9.6 -14.9 0.1 -2.3 -0.3 -3.9 -1 -4.2 -1.4 -0.4 -1.6 -19.2 -0.5 -44 l0.6 -15.2 3.6 0 c3 0 4 0.6 5.9 3.6 1.3 2 5 6.9 8.1 10.8 3.1 3.9 10 12.5 15.2 19.1 5.2 6.6 14.2 17.9 20 25.1 5.7 7.3 14 17.8 18.4 23.4 4.4 5.6 17.3 22 28.7 36.4 17.4 21.8 20.8 26.6 20.8 29.4 l0 3.2 -28.6 0 -28.6 0 0.3 -3.9z"/>
  <path d="M997.9 1766.2 c-5.8 -7.3 -99.9 -129 -114.2 -147.8 -10.1 -13.2 -13.3 -19.6 -9.1 -18 1.1 0.4 1 -0.1 -0.5 -2 -2.6 -3.3 -2.7 -10.7 -0.6 -47.4 0.8 -14 1.5 -27.6 1.5 -30.2 0 -4.8 0 -4.8 3.4 -4.8 3.8 0 3.9 0 11.6 10 3 3.9 7.8 10 10.5 13.4 2.8 3.5 8.6 10.9 13 16.6 9.8 12.5 41.8 52.6 54 67.5 4.9 6.1 12.5 15.5 17 20.9 4.4 5.5 14.9 18.3 23.2 28.5 13.4 16.2 15.3 19.1 15.3 22.2 0 1.9 0.4 3.9 1 4.5 0.5 0.5 1.4 15.2 2 33.4 0.7 21.1 1.4 33.3 2.2 34.8 1.8 3.6 -0.2 4.2 -13.7 4.2 l-12 0 -4.6 -5.8z"/>
  <path d="M1004.3 1662.2 c-47.1 -59.4 -87.8 -111.4 -112.6 -144 -13.7 -17.9 -14.7 -19.5 -14.5 -23.3 0.1 -2.2 -0.3 -4.4 -0.9 -4.7 -0.6 -0.5 -1.3 -13.4 -1.7 -35.2 -0.4 -19 -0.9 -37.1 -1.3 -40.2 l-0.6 -5.8 4.1 0 c3.6 0 4.4 0.5 7.6 4.8 3.4 4.5 5.6 7.4 17.1 22.3 7.3 9.5 27.1 35.6 42.6 56 4.8 6.3 13.5 17.7 19.3 25.4 5.9 7.7 18.5 24.4 28.1 37 9.5 12.7 19.6 25.9 22.4 29.5 4.2 5.4 5.1 7.2 5.1 10.7 0 2.3 0.5 4.5 1 4.8 0.6 0.4 1 6.1 1 13.8 0 13.5 1.4 45.4 2.6 58.5 l0.6 7.2 -3.3 -0.1 c-3.2 0 -4.3 -1.1 -16.6 -16.7z"/>
  <path d="M985 1539.3 c-15.6 -21.4 -46.7 -63.3 -69 -93.3 -34.9 -46.9 -40.5 -55 -40.6 -58 0 -1.9 -0.5 -4.4 -1.1 -5.5 -0.6 -1.3 -1.3 -18.9 -1.7 -49 -0.3 -25.8 -0.9 -55.4 -1.3 -65.7 l-0.6 -18.8 3.4 0 c4.2 0 4.7 0.4 9 6.5 1.8 2.7 5.7 8 8.4 11.6 2.8 3.7 7.5 10.1 10.5 14.3 3 4.1 8.7 11.8 12.5 17 3.9 5.2 9.5 12.9 12.5 17 3 4.2 8.7 11.9 12.5 17.1 3.9 5.2 10.2 13.7 14 19 3.9 5.2 10.3 13.9 14.2 19.3 4 5.3 8.5 11.5 10.1 13.7 2.5 3.5 11 15 29.7 40.4 3.7 5 5.5 8.4 5.5 10.3 0 1.6 0.5 3.8 1.1 4.9 0.6 1.1 1.4 15.2 2 33.2 0.5 17.2 1.6 45.2 2.4 62.2 0.8 17.1 1.5 33.6 1.5 36.8 l0 5.7 -3.3 0 c-3.1 0 -4.3 -1.4 -31.7 -38.7z"/>
  <path d="M1004.8 1413.8 c-4.5 -6.1 -54.9 -75.9 -93.6 -129.8 -35.5 -49.4 -38.4 -53.7 -37.9 -56.7 0.4 -2 0.1 -3.8 -0.7 -4.6 -1 -1 -1.4 -12.6 -1.8 -53 l-0.5 -51.7 3.8 0 c3 0 4.1 0.5 5 2.3 1.2 2.2 8.1 11.7 30.9 42.3 29.7 40 48.5 65.1 71.6 95.9 22.8 30.3 25.3 33.9 25.8 38.2 0.9 7.1 5.3 79.9 6.1 101.6 l0.8 18.7 -3.5 0 c-2.8 0 -4.1 -0.7 -6 -3.2z"/>
  <path d="M996.7 1266.2 c-2.6 -3.7 -9 -12.5 -14.2 -19.7 -5.3 -7.1 -11.1 -15.4 -13.1 -18.3 -2 -2.9 -5.5 -7.7 -7.8 -10.7 -2.2 -3 -6.9 -9.4 -10.4 -14.3 -3.4 -4.8 -11.1 -15.4 -17 -23.6 -13.8 -19.1 -13.7 -19 -20.5 -28.8 -3.2 -4.5 -6.6 -9.4 -7.6 -10.8 -1.1 -1.4 -9.4 -13.3 -18.7 -26.5 -15.3 -22 -20 -30.4 -17.4 -31.3 0.5 -0.2 0.3 -1.3 -0.5 -2.5 -1.1 -1.7 -1.6 -9.9 -2.4 -36.2 -1.5 -46.7 -1.8 -41.5 2.8 -41.5 3.4 0 4.1 0.4 6.9 4.8 3.4 5.1 5.6 8.2 18.7 26.7 4.7 6.6 9.6 13.6 11 15.5 1.3 1.9 11 15.4 21.4 30 10.4 14.6 20 28 21.3 29.8 1.3 1.8 4.1 5.7 6.3 8.7 2.2 3 5.1 7 6.5 9 1.4 1.9 4.3 6 6.5 9 2.2 2.9 6.5 8.8 9.5 12.9 9.7 13.3 13.4 18.3 20.5 27.7 5.3 7.2 7.1 10.5 7.9 14.4 0.5 2.7 1 22.3 1 43.5 l0.1 38.5 -3 0.2 c-2.7 0.2 -3.6 -0.5 -7.8 -6.5z"/>
  <path d="M982.8 1143.8 c-24.2 -34.3 -45 -64.1 -51.5 -73.7 -2.9 -4.2 -7.7 -11.2 -10.7 -15.6 -16.2 -23.6 -40 -58.7 -48.8 -71.9 -6.2 -9.3 -8.3 -14.6 -5.8 -14.6 0.6 0 0 -1.9 -1.4 -4.2 -2.6 -4.7 -3.4 -10.4 -6.1 -47.8 -0.9 -11.3 -2 -24.3 -2.5 -29 -1.4 -12.4 -1.5 -12 2.5 -12 4 0 2.8 -1.3 16.1 17 5.8 8 12.3 16.8 14.4 19.5 2.2 2.8 14.6 19 27.7 36 28.4 37 29.1 37.8 55.2 71.4 11.3 14.5 22.4 28.7 24.5 31.5 2.1 2.8 5.2 6.6 6.7 8.4 2.1 2.4 2.9 4.3 2.9 7.2 0 2.1 0.5 4.2 1 4.5 0.6 0.4 1 18.2 1 50.1 l0 49.4 -3.4 0 c-3.2 0 -3.9 -0.8 -21.8 -26.2z"/>
  <path d="M993.5 1033.8 c-14.2 -18.7 -51.9 -68.6 -81.3 -107.8 -16.6 -22.1 -31.6 -41.9 -33.2 -43.9 -15.1 -18.6 -17 -21.3 -17 -24.7 l0 -3.4 19.3 0 c10.7 0 29.5 -0.3 41.9 -0.7 25.7 -0.7 22.2 -1.9 31.1 10.2 2.9 3.8 11.1 14.8 18.4 24.5 7.2 9.6 15.5 20.8 18.5 24.8 2.9 4 7.4 10 10 13.5 3.8 5 4.8 7 4.8 10.2 0 2.3 0.4 4.5 0.9 5 0.5 0.6 0.6 22.5 0.3 51.3 l-0.5 50.2 -3.1 0 c-2.8 0 -3.9 -1 -10.1 -9.2z"/>
  <path d="M997.7 908.8 c-8.5 -12.4 -11.9 -17.2 -14 -19.9 -1.2 -1.5 -3.9 -5.2 -6 -8.1 -2.1 -2.9 -6.3 -8.7 -9.3 -12.8 -4.6 -6.2 -5.4 -8.1 -5.2 -11 l0.3 -3.5 21.5 -0.3 21.5 -0.2 0.1 14.2 c0.1 7.9 0.5 21.6 0.9 30.6 l0.7 16.2 -3.5 0 c-3 0 -3.8 -0.6 -7 -5.2z"/>
  <path d="M788 791.5 c0 -0.8 0.5 -1.5 1.1 -1.5 0.7 0 0.9 -1 0.5 -2.5 -0.9 -3.7 -6.3 -55.8 -7.5 -72.5 -0.6 -8 -1.5 -29.1 -2.1 -47 -0.6 -17.9 -1.4 -34 -1.6 -35.8 l-0.5 -3.3 -5.2 5.8 c-11.2 12.6 -42.9 41.8 -61.2 56.3 -15.3 12.1 -31.9 21.7 -51.2 29.5 -4.8 2 -9.7 4 -10.8 4.5 -5.3 2.5 -27.2 8.3 -37.5 10 -34.4 5.7 -67.2 5.2 -90.8 -1.6 -26.8 -7.6 -63.4 -32.1 -79.7 -53.4 -9.9 -13 -22.6 -39 -32.6 -67 -1.1 -3 -2.6 -5.8 -3.3 -6.2 -0.8 -0.4 -1.7 -2.5 -2.1 -4.5 -0.4 -2.1 -1.2 -4.4 -1.8 -5.2 -0.6 -0.7 -2.8 -6.6 -4.8 -13 -2 -6.4 -4.6 -14.3 -5.7 -17.6 -3.9 -11.4 -5.2 -16 -5.2 -17.8 0 -1.1 -0.8 -3.2 -1.7 -4.8 -1.5 -2.4 -1.5 -3.1 -0.5 -3.8 1.1 -0.7 1.1 -1.6 -0.2 -5.4 -8.8 -26 -17 -80.1 -19.7 -130 -1.6 -29.8 -0.7 -87.7 1.5 -101.5 2.1 -12.9 6.3 -29.6 7.5 -30 0.6 -0.2 0.7 -1 0.4 -1.8 -0.3 -0.8 -0.1 -1.4 0.3 -1.4 0.5 0 1 -1.1 1 -2.5 0.1 -1.3 0.9 -3.2 1.8 -4 0.9 -0.9 1.4 -2.1 1 -2.6 -0.3 -0.5 0.2 -1.6 1.1 -2.5 0.9 -0.9 1.4 -2.3 1.1 -3 -0.3 -0.8 -0.1 -1.4 0.5 -1.4 0.6 0 0.7 -0.4 0.4 -1 -0.3 -0.5 -0.1 -1 0.5 -1 0.6 0 0.8 -0.4 0.5 -1 -0.3 -0.5 -0.1 -1 0.5 -1 0.6 0 0.8 -0.4 0.5 -1 -0.3 -0.5 -0.1 -1 0.5 -1 0.6 0 0.8 -0.5 0.5 -1 -0.3 -0.5 -0.1 -1 0.5 -1 0.6 0 0.8 -0.4 0.5 -1 -0.3 -0.5 -0.1 -1 0.5 -1 0.6 0 0.8 -0.4 0.5 -1 -0.3 -0.5 -0.1 -1 0.5 -1 0.6 0 0.8 -0.4 0.5 -1 -0.3 -0.5 -0.2 -1 0.4 -1 1 0 5.7 -8.1 5.2 -8.8 -0.1 -0.2 0.6 -1 1.6 -1.8 1 -0.7 1.4 -1.4 0.9 -1.4 -0.6 0 -0.1 -0.7 1 -1.5 1 -0.8 1.6 -1.5 1.2 -1.5 -0.4 0 0.6 -1.4 2.2 -3.2 1.6 -1.7 2.8 -3.3 2.6 -3.5 -0.2 -0.2 1.1 -2 2.8 -3.9 1.7 -2 3.1 -3.9 3.1 -4.4 0 -0.4 1.2 -1.8 2.8 -3 1.5 -1.2 2.5 -2.5 2.3 -2.9 -0.3 -0.4 1.3 -2.2 3.4 -4 2.2 -1.8 3.8 -3.6 3.5 -4 -0.2 -0.5 3.7 -4.7 8.8 -9.5 5.1 -4.7 10.6 -10 12.2 -11.6 1.7 -1.7 3.3 -3 3.7 -3 0.4 0 1.8 -1 3.1 -2.2 2.8 -2.7 6.9 -5.7 10.6 -7.8 1.4 -0.8 2.8 -1.8 3.1 -2.1 1.2 -1.6 17.3 -9.7 24.9 -12.8 9.9 -3.9 25.3 -7.5 39.5 -9.3 13.8 -1.8 66.2 -1.7 77.6 0 20.8 3.3 39.8 12.2 85.9 40.4 46 28.2 78.4 52.4 113.5 84.7 17.7 16.4 20.2 18.4 32.1 26.4 18.6 12.5 45.1 33.4 57.7 45.5 5.2 5 3.8 5 16.6 -0.3 8 -3.3 16.6 -5.1 31.2 -6.5 10.6 -1 13.7 -2.1 12.4 -4.2 -0.3 -0.4 0 -0.8 0.6 -0.8 0.6 0 0.8 -0.4 0.5 -1 -0.3 -0.5 -0.1 -1 0.5 -1 0.6 0 0.8 -0.4 0.5 -1 -0.3 -0.6 -0.1 -1 0.5 -1 0.6 0 0.9 -0.4 0.6 -0.9 -0.3 -0.5 0.1 -1.2 1 -1.5 0.8 -0.3 1.2 -1 0.9 -1.6 -0.3 -0.5 -0.1 -1 0.5 -1 0.6 0 0.8 -0.5 0.5 -1 -0.3 -0.6 -0.1 -1 0.5 -1 0.6 0 0.8 -0.5 0.5 -1 -0.3 -0.6 0.1 -1.3 0.9 -1.6 0.9 -0.3 1.3 -1 1 -1.5 -0.3 -0.5 0 -0.9 0.6 -0.9 0.6 0 0.9 -0.4 0.6 -0.9 -0.3 -0.5 0.1 -1.2 1 -1.5 0.8 -0.3 1.2 -1 0.9 -1.6 -0.3 -0.6 0.1 -1.3 0.9 -1.6 0.9 -0.3 1.3 -1 1 -1.5 -0.3 -0.5 0.2 -1.2 1 -1.5 0.9 -0.3 1.6 -1.2 1.6 -2 0 -0.8 0.5 -1.4 1.1 -1.4 0.5 0 0.8 -0.4 0.4 -0.9 -0.3 -0.6 0.3 -1.4 1.2 -2 1 -0.6 1.4 -1.1 0.9 -1.1 -0.4 0 0.2 -0.9 1.5 -2 1.3 -1 2 -1.9 1.5 -2 -0.4 0 0.2 -0.9 1.5 -2 1.3 -1 2 -1.9 1.5 -2 -0.5 0 0.3 -1 1.8 -2.1 1.5 -1.2 2.5 -2.4 2.2 -2.6 -0.3 -0.3 0.6 -1.4 1.9 -2.5 1.4 -1.1 2.3 -2.3 2.1 -2.7 -0.3 -0.4 1.5 -2.4 4 -4.5 2.4 -2.1 4.2 -4.1 3.9 -4.5 -0.2 -0.5 4.6 -5.5 10.7 -11.2 6.1 -5.7 18.7 -17.9 28 -27.1 9.2 -9.3 17.1 -16.8 17.5 -16.8 0.3 0 3 -2.4 5.9 -5.2 2.9 -2.9 6.9 -6.6 8.9 -8.3 2 -1.6 4.7 -4 6.1 -5.2 1.4 -1.3 2.9 -2.3 3.4 -2.3 0.6 0 1.5 -0.9 2.2 -2 0.7 -1.1 1.8 -2 2.3 -2 0.6 0 2.6 -1.6 4.5 -3.5 1.9 -1.9 4 -3.5 4.5 -3.5 0.6 0 2.4 -1.2 4.1 -2.8 1.7 -1.5 4.1 -3.3 5.5 -4 1.4 -0.7 3.9 -2.6 5.7 -4.3 1.7 -1.6 3.5 -2.9 3.9 -2.9 0.4 0 2.6 -1.6 4.8 -3.5 2.2 -1.9 4.4 -3.5 4.9 -3.5 0.5 0 3.2 -1.7 6 -3.8 6.2 -4.5 8.4 -5.9 11.6 -7.3 1.3 -0.5 2.7 -1.3 3 -1.7 0.6 -0.9 3.6 -2.8 7.5 -4.8 1.7 -0.9 5.3 -2.8 8 -4.4 20.3 -11.7 49.8 -24 70.9 -29.5 20 -5.3 55.2 -8.1 87.6 -7.2 39.1 1.2 57.9 6.9 87.9 26.8 27.9 18.4 53 50 65.6 82.5 4.2 10.8 12.3 38.4 16.6 56.4 1.6 6.9 3.4 14.1 3.9 16 3 11.3 6.4 37 10.2 77 1.8 19.6 2.2 30 2.2 62 0.1 39.1 -1 57.5 -5 84.5 -2.7 18.4 -2.8 20.5 -1 20.5 2 0 2.1 3.6 0.1 4.4 -0.9 0.3 -1.5 1.8 -1.5 3.5 0 7.4 -7.8 38.1 -12 47.6 -1 2.2 -2.1 5.7 -2.5 7.8 -0.5 2.6 -1.2 3.7 -2.5 3.7 -1.3 0 -3.5 3.1 -7.4 10.5 -8.5 16.1 -15.6 26.2 -29.1 41.3 -3.7 4.2 -20 18.3 -27.5 23.8 -18.9 14 -39.1 24.4 -54.9 28.4 -23.9 5.9 -48.9 6.1 -85.3 0.5 -20.4 -3.1 -28.9 -5.4 -48.3 -12.7 -30.4 -11.5 -41.3 -16.7 -59.5 -28.3 -3.6 -2.3 -10.7 -6.4 -15.9 -9.1 -9.1 -4.8 -33.1 -22.3 -54.4 -39.6 -7.9 -6.4 -11.6 -8.8 -13.7 -8.8 -1.5 0 -3 -0.6 -3.3 -1.4 -0.3 -0.8 -7.2 -7 -15.3 -13.7 -8.1 -6.7 -19.9 -17 -26.2 -22.8 -6.3 -5.8 -11.8 -10.5 -12.1 -10.4 -0.3 0.1 -4.9 2 -10.1 4.1 -26 10.6 -71.2 15.8 -95 10.8 -12 -2.4 -30.7 -8.9 -42.6 -14.5 l-10 -4.8 -10.5 11.5 c-5.7 6.3 -17.6 18.3 -26.4 26.8 -11.6 11.2 -15.4 15.4 -13.9 15.4 1.8 0 2.2 0.8 2.8 4.8 1.2 8.5 8.3 73.8 12.3 112.2 2.1 20.6 3.9 36.6 4.1 35.5 0.1 -1.1 -1.5 -22.7 -3.7 -48 -3.5 -40.1 -5.2 -61.9 -7.6 -96.2 l-0.6 -8.3 16.5 0 c12.6 0 16.6 0.3 16.6 1.3 0 0.6 1.6 16.1 3.6 34.2 1.9 18.2 5.5 51.9 7.9 75 4.7 46 5.6 50.4 2.5 12.5 -3.2 -40.2 -6.9 -91.5 -7.6 -107.6 l-0.7 -15.1 3.3 -0.6 c1.8 -0.4 10.4 -0.7 19.1 -0.7 l15.9 0 0 11.6 c0 15.4 5.9 106.6 10.6 163.2 1 11.1 1.4 20.5 1 20.9 -0.3 0.4 -8.5 0.9 -18 1.1 l-17.4 0.3 -0.5 -2.3 -0.4 -2.3 -0.2 2.3 c-0.1 2.2 -0.1 2.2 -18 2.2 -17.8 0 -18 0 -18.4 -2.2 l-0.4 -2.3 -0.2 2.3 -0.1 2.2 -23.5 0 c-20.2 0 -23.5 -0.2 -23.5 -1.5z m44.7 -36.7 c-0.2 -1.3 -0.4 -0.5 -0.4 1.7 -0.1 2.2 0.1 3.2 0.4 2.3 0.2 -1 0.2 -2.8 0 -4z m37 -2 c-0.2 -1.3 -0.4 -0.3 -0.4 2.2 0 2.5 0.2 3.5 0.4 2.3 0.2 -1.3 0.2 -3.3 0 -4.5z m-277.3 -187.7 c0.3 -0.4 4.7 -1.4 9.8 -2.1 5.1 -0.8 10.4 -1.9 11.8 -2.7 1.4 -0.7 3.2 -1.3 4 -1.3 0.8 0 2.6 -0.9 4 -2 1.4 -1.1 2.9 -2 3.4 -2 0.5 0 3.7 -2 7.2 -4.5 3.4 -2.5 6.5 -4.5 6.9 -4.5 0.3 0 2.2 -1.6 4.2 -3.5 2 -1.9 4.2 -3.5 4.8 -3.5 0.7 0 1.5 -0.7 1.8 -1.4 0.3 -0.8 2.2 -1.8 4.1 -2.2 2.7 -0.4 5.7 -2.8 12.3 -9.3 8.3 -8.1 20.1 -22.1 18.7 -22.1 -0.3 0 0.4 -0.9 1.7 -2 1.3 -1 2 -1.9 1.5 -2 -0.4 0 0.2 -0.9 1.5 -2 1.3 -1 2 -1.9 1.5 -2 -0.5 0 0.3 -0.9 1.8 -2.1 1.4 -1.1 2.4 -2.4 2.1 -2.8 -0.2 -0.4 0.9 -1.8 2.6 -3 1.7 -1.3 2.8 -2.5 2.5 -2.8 -0.3 -0.3 0.9 -1.7 2.5 -3 1.6 -1.4 2.8 -2.8 2.5 -3 -0.2 -0.3 1.1 -1.8 3 -3.5 1.9 -1.7 3.4 -3.5 3.4 -4.2 0 -0.6 2 -2.9 4.5 -4.9 2.5 -2.1 4.4 -4.1 4.2 -4.5 -0.1 -0.4 1.7 -2.5 4.1 -4.6 2.3 -2.1 4.2 -4.2 4.2 -4.7 0 -0.5 1.6 -2.3 3.5 -4 1.9 -1.7 3.5 -3.5 3.5 -4.1 0 -0.5 1.4 -2.1 3 -3.5 1.7 -1.3 3 -2.9 3 -3.4 0 -0.5 1.6 -2.3 3.5 -4 1.9 -1.7 3.2 -3.5 2.9 -4 -0.3 -0.5 0.2 -1.2 1 -1.5 3.5 -1.3 1.6 -4.9 -6.2 -12 -16.7 -15.2 -37.3 -29.6 -75.4 -52.8 -9 -5.5 -26.5 -16.6 -39 -24.8 -34.3 -22.5 -45 -27.1 -61.2 -26.3 -4.6 0.2 -9.8 1 -11.7 1.8 -4.3 1.9 -11.6 8.1 -13.3 11.6 -2.8 5.3 -4.6 18.6 -6.9 49.1 -0.3 3 -0.1 21.2 0.4 40.5 1 43.1 5.6 98.8 9.4 112.9 1.8 7.1 2.5 8.6 3.9 8.6 0.6 0 1.7 1.5 2.5 3.3 2.4 5.4 7.8 12.2 12.3 15.3 2.4 1.6 4.9 3.5 5.6 4.2 0.7 0.6 1.8 1.2 2.4 1.2 0.6 0 1.9 0.7 2.8 1.5 2.9 2.6 16.2 4.6 17.4 2.6z m598.4 -83.2 c2.8 -1.2 5.2 -2.5 5.2 -2.9 0 -0.4 1.1 -1.1 2.5 -1.4 1.4 -0.4 2.5 -1.1 2.5 -1.6 0 -0.6 0.6 -1 1.3 -1 0.6 0 4.2 -2.3 7.9 -5 7.1 -5.4 13.2 -12.6 12.4 -14.7 -0.3 -0.7 -0.1 -1.3 0.5 -1.3 0.6 0 0.9 -0.7 0.5 -1.5 -0.3 -0.8 -0.1 -1.5 0.5 -1.5 0.6 0 0.7 -0.5 0.3 -1.1 -0.3 -0.6 -0.1 -1.5 0.6 -1.9 0.7 -0.4 1.3 -2.2 1.4 -3.9 0 -1.7 0.5 -3.1 0.9 -3.1 0.5 0 0.5 -0.9 0.2 -2 -0.4 -1.2 -0.2 -2 0.5 -2 0.7 0 1 -0.8 0.7 -2 -0.3 -1.1 -0.1 -2 0.5 -2 0.6 0 0.8 -0.9 0.5 -2 -0.3 -1.1 -0.1 -2 0.5 -2 0.6 0 0.8 -0.7 0.4 -1.5 -0.3 -0.8 0 -1.5 0.5 -1.5 0.6 0 0.9 -0.9 0.6 -2 -0.3 -1.1 -0.1 -2 0.5 -2 0.6 0 0.8 -1.1 0.6 -2.5 -0.3 -1.4 -0.1 -2.5 0.5 -2.5 0.5 0 0.7 -0.9 0.4 -2 -0.3 -1.1 -0.1 -2 0.5 -2 0.5 0 0.6 -0.9 0.3 -2 -0.4 -1.2 -0.2 -2 0.5 -2 0.7 0 0.9 -0.8 0.5 -2 -0.4 -1.2 -0.2 -2 0.5 -2 0.8 0 1 -0.9 0.6 -2.5 -0.4 -1.5 -0.2 -2.5 0.4 -2.5 0.6 0 0.8 -1 0.4 -2.5 -0.4 -1.5 -0.2 -2.5 0.5 -2.5 0.6 0 0.8 -1.1 0.5 -3 -0.4 -1.8 -0.2 -3 0.4 -3 0.5 0 0.8 -0.9 0.5 -2 -0.3 -1.2 0 -2 0.7 -2 0.8 0 0.9 -1 0.5 -3 -0.4 -2 -0.3 -3 0.5 -3 0.8 0 0.9 -1 0.5 -3 -0.4 -1.9 -0.3 -3 0.4 -3 0.7 0 0.9 -1.3 0.5 -3.5 -0.3 -1.9 -0.2 -3.5 0.3 -3.5 1.6 0 1.5 -37 -0.2 -53.5 -0.9 -8.8 -1.9 -16.3 -2.4 -16.8 -1.5 -1.5 -10.5 -1.6 -17.5 -0.2 -13.4 2.8 -33.8 12.5 -46.9 22.3 -7.9 6.1 -39.9 33.6 -50.6 43.7 -7.8 7.3 -22.7 25.4 -29.2 35.3 -5.1 7.8 -8.4 16.7 -12.5 33.2 -3.9 16.4 -4 16.9 -0.4 21.2 2 2.4 6.2 5.3 12.3 8.2 5.1 2.5 13.5 7.1 18.7 10.2 12.3 7.3 24.1 12.8 31 14.5 14.1 3.3 34.5 2.3 45.8 -2.2z"/>
  <path d="M915.8 792.3 l-3.6 -0.4 -0.6 -6.7 c-1.7 -18.5 -5.4 -96 -8.2 -170.8 l-0.7 -18.2 19.4 -0.7 c10.7 -0.4 21 -0.5 22.9 -0.3 l3.4 0.3 0.2 17 c0.2 21.6 4.3 100.8 8 154.3 1 13.3 1.5 24.4 1.3 24.6 -0.6 0.7 -37.9 1.5 -42.1 0.9z"/>
  <path d="M959.6 780.8 c-1.3 -23.4 -2.6 -63.9 -3.6 -111.3 -0.5 -26.9 -1.3 -54.7 -1.6 -61.6 l-0.7 -12.7 19.4 -0.4 c10.7 -0.2 20.5 -0.2 21.8 0 2.3 0.5 2.4 0.5 1.7 10.6 -0.4 5.9 0 20.6 0.9 35.6 2.6 42.2 6.5 97.1 8.5 121 1.1 12.4 2 24.2 2 26.2 l0 3.8 -23.9 0 -23.8 0 -0.7 -11.2z"/>
  <path d="M1013.6 786.8 c-0.3 -2.9 -1.2 -21 -2.1 -40.3 -3.9 -87.4 -6.8 -129.5 -9.6 -140.4 -1 -4.1 -1.9 -8.5 -1.9 -9.8 l0 -2.3 22.5 0 c23 0 23.6 0.1 21.6 3.9 -1.5 2.7 1.9 57.8 7.9 129.1 1.1 13.5 2.4 32.6 2.9 42.5 0.5 9.9 1.2 19 1.6 20.3 l0.7 2.2 -21.5 0 -21.6 0 -0.5 -5.2z"/>
 </g>
 <g fill="#2c4147">
  <path d="M397.5 1829.2 c-4.9 -0.3 -12.7 -2.8 -17 -5.3 -6.9 -4.1 -13 -14.2 -14.3 -23.9 -1 -7.6 -0.9 -823.6 0.1 -864.5 1.8 -69.4 1.8 -76.1 0.5 -77.2 -0.8 -0.6 -8.7 -1.1 -19.8 -1.2 -10.2 -0.1 -29.3 -0.7 -42.5 -1.4 -27.5 -1.4 -39.2 -1.4 -48.6 -0.3 -10.5 1.3 -18.5 -1.5 -28.4 -10.1 -9.4 -8.2 -12.1 -12.7 -11.9 -20.3 0.6 -23.9 0.1 -52.8 -1.1 -65 -1.5 -15.3 -3.1 -37.4 -4 -55 -0.2 -5.8 -0.8 -17.5 -1.2 -26 -1.2 -24 -0.9 -65.2 0.6 -76.5 1.4 -11.1 4.2 -20.2 7.7 -25.5 5.9 -8.9 15.2 -20.2 18.5 -22.4 14.9 -10.2 35.4 -12.8 113.2 -14.2 31.5 -0.6 35.7 -0.9 35.7 -2.3 0 -2.6 3.8 5.3 4.4 9.3 0.3 2 1.3 5.1 2.1 6.7 0.9 1.6 1.3 3.4 1 3.9 -0.3 0.5 0 2 0.7 3.2 0.6 1.3 1.3 2.8 1.4 3.3 0.2 1.2 6.2 19.3 7.1 21.5 0.3 0.8 0.8 2.6 1 4 0.2 1.4 1 3.2 1.8 4 0.7 0.8 1.6 3.1 2 5 0.4 1.9 1.2 4.1 1.8 4.8 0.5 0.7 0.7 1.5 0.4 1.9 -0.4 0.3 -0.2 1.2 0.5 2 0.6 0.7 0.8 1.7 0.4 2.1 -0.4 0.4 -1.4 -0.1 -2.1 -1.1 -1.3 -1.8 -3.9 -1.8 -56.2 -1.3 -30.1 0.3 -60.6 0.2 -67.7 -0.2 -9.4 -0.5 -13 -0.4 -13.3 0.5 -0.5 1.2 1.9 37.9 4.2 64.3 0.8 9.1 1.9 24.1 2.5 33.3 0.6 9.3 2 25.9 3.2 37 1.1 11.1 2.2 27.2 2.4 35.7 0.2 8.5 0.9 15.7 1.4 16 0.5 0.3 5.3 0.3 10.7 -0.1 25.5 -1.8 37.9 -2 161.8 -3.4 23.7 -0.3 108.4 -0.5 188.4 -0.5 l145.3 0 -0.5 -2.1 c-0.3 -1.3 -0.1 -1.9 0.6 -1.6 0.7 0.2 1.1 1.1 1.1 2 -0.1 1.4 2.4 1.6 20.2 1.7 19.9 0.1 20.4 0 20.4 -2 0 -1.1 0.6 -2 1.3 -2 2.7 0 5.7 1.3 5.7 2.5 0 0.9 3.9 1.3 15 1.4 14.5 0.2 15 0.1 15 -1.9 0 -1.6 0.6 -2 3.5 -2 2.8 0 3.5 0.4 3.5 1.9 0 1.7 0.9 1.8 13.3 1.5 7.2 -0.2 14 -0.4 15 -0.4 0.9 0 1.7 -0.7 1.7 -1.5 0 -1.1 1.2 -1.5 4.5 -1.5 3.3 0 4.5 0.4 4.5 1.5 0 1.6 0.7 1.7 14.5 1.8 20.6 0.1 25.5 -0.2 25.5 -1.8 0 -1.1 1.1 -1.5 4 -1.5 2.9 0 4 0.4 4 1.5 0 1.3 3 1.5 21 1.5 18 0 21 -0.2 21 -1.5 0 -1.2 1.3 -1.5 6 -1.5 4.7 0 6 0.3 6 1.5 0 1.3 2.7 1.5 18.5 1.5 16 0 18.4 -0.2 17.9 -1.5 -0.4 -0.8 -0.1 -1.5 0.5 -1.5 0.7 0 1.4 0.7 1.7 1.5 0.5 1.2 38.4 1.3 296.2 0.8 177.8 -0.4 295.9 -1 296.3 -1.5 1 -1.5 -0.1 -58.1 -1.4 -73.3 -0.7 -8.5 -1.2 -35.8 -1.2 -70 l-0.1 -56 -18.5 0.1 c-19.4 0.1 -81 1 -126.4 2 -16.5 0.3 -27.5 0.2 -28.4 -0.4 -1.1 -0.8 -1.1 -1.5 0.3 -4.2 0.9 -1.8 1.6 -3.8 1.6 -4.4 0 -0.6 0.7 -2.4 1.5 -3.9 2.6 -5.1 11.1 -34.5 10.1 -35.4 -0.2 -0.2 0.3 -2.5 1 -5 0.8 -2.5 1.4 -6.1 1.4 -7.9 0 -2.2 0.6 -3.7 1.8 -4.2 1.8 -1 37.9 -1.8 129.7 -2.8 53.6 -0.6 54 -0.6 59.4 1.5 5.5 2.2 13.6 7.3 15.9 10 0.7 0.9 2.6 4.3 4.3 7.6 2.6 5.4 2.9 7 2.9 15.6 0 5.5 1 15.7 2.4 24 3.1 18.5 4.4 32 5.1 54.4 1.3 43.4 1.7 52.3 2.6 59.9 1.7 14.7 2.4 38.6 2.4 81.6 0 37.6 -0.2 43.2 -1.8 49 -4.2 15.5 -17.1 26.5 -33.8 28.9 -3.5 0.5 -33.6 1 -66.8 1 -40.5 0.1 -60.9 0.5 -61.7 1.2 -1 0.8 -1.3 94 -1.4 471.1 0 318.2 -0.4 471.5 -1.1 474.6 -2.4 10.9 -10.3 20.2 -20.8 24.4 -5.6 2.3 -5.8 2.3 -62.6 2.6 -85.4 0.3 -1062.4 0.7 -1067 0.4z m479.2 -62.2 c-0.3 -1.1 -0.1 -2 0.4 -2 0.5 0 0.9 0.9 0.9 2 0 1.9 0.7 2 26 2 25.4 0 26 0 25 -1.9 -0.9 -1.9 -0.6 -1.9 6.5 -1.8 5 0.1 7.5 0.6 7.5 1.4 0 0.6 -1 1.3 -2.2 1.6 -1.3 0.2 9.4 0.4 23.7 0.6 20.6 0.1 25.7 -0.1 24.7 -1.1 -0.6 -0.6 -1.2 -1.6 -1.2 -2 0 -1.5 15.4 0.3 16.3 1.8 0.6 1 3.3 1.4 9.7 1.4 9.9 0 12.1 -0.5 11.3 -2.6 -0.8 -2.1 1 -1.7 2.4 0.6 1.2 1.9 3.8 1.9 229.5 1.4 125.6 -0.3 228.9 -0.7 229.7 -1 1.1 -0.4 1.2 -70.9 0.6 -455.2 -0.5 -334.4 -1 -455.1 -1.9 -456.1 -0.9 -1.2 -11.8 -1.3 -70.1 -0.7 -37.9 0.3 -145.2 0.6 -238.3 0.7 -166.7 0 -169.3 0 -170.5 1.9 -1.6 2.7 -4 2.6 -3.2 0 0.7 -2.1 0.4 -2.1 -18.2 -1.8 -17.3 0.3 -18.8 0.4 -18.5 2 0.3 1.6 -0.7 1.8 -9.8 1.8 -8.2 0 -10.3 -0.3 -11.8 -1.8 -1.9 -1.9 -0.1 -1.8 -52.9 -1.4 -24.2 0.2 -27.2 0.4 -26.6 1.8 0.5 1.3 -0.3 1.5 -4.8 1.2 -3.6 -0.2 -5.3 -0.7 -5.2 -1.5 0.2 -1 -1.3 -1.1 -6 -0.7 -3.4 0.2 -8.2 0.4 -10.7 0.3 -15.7 -0.6 -414.6 0.5 -415 1.1 -0.3 0.4 -0.3 11.8 0 25.1 0.3 13.4 0.7 43.5 0.9 66.9 0.2 23.4 0.5 44.8 0.7 47.5 0.2 2.8 0.6 176.9 1 387 0.4 210.1 0.8 382.3 1.1 382.8 0.2 0.4 101.5 0.7 225 0.7 224 0 224.5 0 224 -2z"/>
  <path d="M1129.5 1735.6 c-6.6 -2.1 -12.4 -5.5 -16.3 -9.4 -3.6 -3.7 -52.3 -74.6 -55.6 -80.9 -4.7 -9.2 1.9 -21.1 12.1 -22 3.9 -0.4 8.1 0.5 22.3 5.1 9.7 3.1 18 5.6 18.5 5.6 0.6 0 3.7 -19 6.9 -42.3 22.6 -160.8 22 -157.4 25.2 -162 4.1 -6 12.2 -10 19 -9.5 10.1 0.8 11.9 2.6 34.9 35.3 20.4 29 20.9 29.5 22 26.8 0.6 -1.5 5.6 -15.2 11.1 -30.3 8.9 -24.8 10.3 -27.9 13.9 -31.5 9.8 -9.8 26.1 -8 33.4 3.8 1.3 2.1 8.7 31.7 21.1 84.7 10.5 44.8 19.3 81.6 19.5 81.9 0.3 0.2 0.7 0.2 0.8 0 0.2 -0.2 6.5 -7.9 14 -17 13.4 -16.4 18.2 -20.7 26.7 -24.2 5.2 -2.2 43.7 -9.9 49.5 -9.9 5.9 -0.1 12.8 2.7 16.7 6.6 1.5 1.5 10.4 14 19.8 27.8 18.2 26.5 19.4 29 17.1 36 -0.6 1.9 -2.7 5 -4.6 6.8 -3 2.9 -4.3 3.4 -9.2 3.7 -5.1 0.4 -8.6 -0.5 -29.5 -7.5 l-23.7 -8 -20.2 39.1 c-11.1 21.6 -24.5 47.5 -29.7 57.7 -11 21.2 -15.1 26.4 -25.1 31.3 l-6.6 3.2 -90 0.2 c-70.9 0.2 -90.9 -0.1 -94 -1.1z m122.5 -63.9 c21.7 -26.5 39.4 -48.9 39.4 -49.7 0 -1.6 -126.1 -181.7 -128.8 -183.9 -1.8 -1.5 -5.2 -0.6 -6 1.5 -0.3 0.9 -9 60.8 -19.2 133.2 -18 128 -18.5 131.8 -16.9 134.9 2.5 4.6 7.7 9.3 12.1 10.8 3.1 1.1 12.1 1.4 41.9 1.4 l38 0 39.5 -48.2z m57.5 47.2 c8.9 -2.2 8.6 -1.8 50.9 -83.9 21.7 -42.1 39.4 -76.5 39.3 -76.6 -0.4 -0.3 -32.4 6.5 -34.8 7.4 -1.4 0.6 -4 2.2 -5.8 3.8 -2.3 1.9 -114.9 138 -123.4 149.2 -1.3 1.6 67.2 1.8 73.8 0.1z m-200.9 -66.7 c-0.5 -0.5 -32.9 -11.2 -33.2 -10.9 -0.1 0.1 6.4 9.8 14.4 21.6 l14.6 21.4 2.2 -15.9 c1.2 -8.7 2.1 -16 2 -16.2z m174.2 -132.7 c-13.3 -57.2 -20.6 -86.4 -21.6 -87.2 -1.8 -1.5 -3.2 -1.6 -5 -0.4 -1.3 0.8 -26.2 67.3 -26.2 69.9 0 1.4 72.1 104.5 72.6 103.9 0.2 -0.1 -8.7 -39 -19.8 -86.2z m153.1 71.8 c-4.5 -6.5 -10.4 -15.3 -13.3 -19.5 -2.8 -4.3 -5.3 -7.8 -5.6 -7.8 -0.3 0 -3.6 5.8 -7.3 13 l-6.8 12.9 19.8 6.5 c10.9 3.5 20.1 6.5 20.6 6.5 0.4 0.1 -2.9 -5.2 -7.4 -11.6z"/>
  <path d="M812 602.2 c0 -1.4 -0.6 -1.7 -3.3 -1.4 -2.1 0.2 -3.8 -0.2 -4.5 -1.1 -1 -1.2 1.1 -3.7 12.9 -14.8 7.8 -7.4 20.9 -20.6 29.2 -29.4 8.2 -8.8 15.4 -16.2 15.9 -16.4 0.6 -0.2 6.2 2.2 12.6 5.2 13 6.2 31.5 12.7 43.7 15.3 12.5 2.6 31.6 2.3 51 -1 22 -3.6 29.2 -5.6 45.3 -12.5 4.3 -1.9 7.8 -2.9 8.6 -2.4 0.8 0.4 6.8 5.8 13.4 11.9 6.6 6.1 19.3 17.1 28.1 24.4 15.4 12.8 18.2 15.9 14.4 15.9 -1 0 -9.2 0.3 -18.3 0.7 -12.3 0.5 -16.7 1 -17.3 2 -1.1 1.9 -2.8 1.8 -2.1 -0.1 0.5 -1.3 -2 -1.5 -18.9 -1.5 -19 0 -19.5 0.1 -19 2 0.5 1.8 0 2 -4.6 2 -3.8 0 -5.1 -0.4 -5.1 -1.4 0 -2 -2 -2.1 -20.7 -1.8 -15.4 0.3 -16.3 0.4 -16.3 2.2 0 1.8 -0.7 2 -5.9 2 -5 0 -5.9 -0.3 -5.7 -1.7 0.1 -1.6 -1 -1.8 -10.4 -1.6 -5.8 0.1 -14.7 0.2 -19.7 0.2 -7.6 0.1 -9.3 0.4 -9.3 1.6 0 1.2 -1.3 1.5 -6 1.5 -4.8 0 -6 -0.3 -6 -1.6 0 -1.4 -1.8 -1.5 -15.2 -1 -8.4 0.3 -15.6 0.5 -16 0.5 -0.5 0.1 -0.8 0.8 -0.8 1.6 0 1.2 -1.3 1.5 -6 1.5 -4.7 0 -6 -0.3 -6 -1.5 0 -1.3 -2.2 -1.5 -13.4 -1.5 -12.9 0 -13.4 0.1 -12.9 2 0.5 1.8 0 2 -5.6 2 -5.2 0 -6.1 -0.3 -6.1 -1.8z"/>
  <path d="M577.6 567.9 c-2.2 -0.5 -4.7 -1.6 -5.6 -2.4 -0.9 -0.8 -2.2 -1.5 -2.8 -1.5 -0.6 0 -1.7 -0.6 -2.4 -1.2 -0.7 -0.7 -3.2 -2.6 -5.5 -4.2 -6.4 -4.3 -13.3 -14.2 -13.3 -19.1 0 -2.4 0.2 -2.5 7.3 -2.5 16.5 0 85.9 -1.1 94 -1.4 4.8 -0.3 8.7 -0.3 8.7 -0.1 0 0.7 -6.2 6.5 -6.9 6.5 -0.4 0 -2.4 1.6 -4.4 3.5 -2 1.9 -3.9 3.5 -4.2 3.5 -0.4 0 -3.5 2 -6.9 4.5 -3.5 2.5 -6.7 4.5 -7.2 4.5 -0.5 0 -2 0.9 -3.4 2 -1.4 1.1 -3.1 2 -3.8 2 -0.7 0 -3.3 0.9 -5.8 2 -2.4 1.2 -4.9 1.8 -5.5 1.5 -0.5 -0.4 -1.6 -0.1 -2.4 0.5 -0.8 0.6 -2.3 0.9 -3.4 0.5 -1 -0.3 -2.2 -0.1 -2.6 0.5 -0.4 0.7 -1.8 0.9 -3 0.6 -1.3 -0.3 -2.7 -0.2 -3 0.4 -0.8 1.2 -12.5 1.1 -17.9 -0.1z"/>
 </g>
 <g fill="#abecfd">
  <path d="M930.5 1768.3 c-0.6 -0.5 -4.6 -5.1 -9 -10.3 -14.9 -17.8 -43.9 -51.5 -45 -52.2 -0.5 -0.4 -1.3 -0.8 -1.8 -0.8 -0.7 0 -0.2 12.1 1.4 33 1.8 23 2.1 30.6 1 28.9 -1.1 -1.7 -2.5 -14.2 -4.1 -36.9 -1.1 -14.5 -0.4 -47.3 1 -46.8 3 1.2 68.3 80.2 69.2 83.7 0.4 1.3 -0.5 1.6 -5.6 1.9 -3.4 0.1 -6.6 -0.1 -7.1 -0.5z"/>
  <path d="M989.8 1767.8 c-1.3 -1.1 -19.2 -23.5 -51.1 -64.1 -3.4 -4.3 -10.9 -13.8 -16.6 -21 -5.8 -7.3 -14.8 -18.6 -20 -25.2 -5.2 -6.6 -12.1 -15.2 -15.2 -19.1 -3.1 -3.9 -6.8 -8.8 -8.1 -10.8 -4.6 -7.1 -4.8 -5.9 -4.8 25.5 0 25.8 -0.2 28.9 -1.5 27.5 -1.2 -1.1 -1.5 -4.3 -1.5 -14.8 0 -18.8 2.2 -65.8 3.1 -65.8 0.5 0 5.2 5.7 10.6 12.8 5.3 7 34 44.1 63.8 82.5 29.7 38.5 54.6 70.7 55.4 71.8 1.3 1.8 1 1.9 -5.6 1.9 -4 0 -7.6 -0.5 -8.5 -1.2z"/>
  <path d="M1025.4 1766.9 c-1.5 -2.6 -3 -66.9 -1.5 -66.9 0.5 0 1.2 6.9 1.5 15.3 0.3 8.3 0.9 23.6 1.3 34 0.7 17.4 0.5 20.5 -1.3 17.6z"/>
  <path d="M1006.5 1678 c-8.9 -10.7 -19.9 -24.2 -24.6 -30 -4.7 -5.8 -12.5 -15.4 -17.4 -21.5 -12.4 -15.3 -44.4 -55.2 -54 -67.5 -4.4 -5.7 -10.2 -13.1 -13 -16.6 -2.7 -3.4 -7.5 -9.5 -10.5 -13.4 -7.2 -9.3 -8.1 -10.3 -9 -9.3 -0.6 0.7 -1.3 12.1 -3.6 64.1 -0.7 15.2 -2.3 17.7 -2.4 3.7 0 -14 3 -69.9 4 -73 1.4 -4.5 1.5 -23.8 0.1 -24.3 -0.7 -0.2 -1.1 -5.4 -1.2 -16 0 -8.6 -0.4 -26.7 -0.8 -40.2 -0.5 -15.3 -0.5 -24.7 0.1 -25.1 0.5 -0.3 0.9 -0.9 0.9 -1.3 -0.6 -4 0.1 -21.6 0.8 -21.6 1 0 54.3 71.5 108.9 146 33 45 31.9 43.6 32.7 42.9 0.2 -0.3 -0.2 -13.3 -1 -29 -1.9 -39.2 -3.9 -102.9 -3.1 -103.6 0.3 -0.4 0.9 -0.4 1.2 -0.1 0.3 0.3 0.9 13.8 1.4 29.9 0.5 16.2 1.6 45.4 2.5 64.9 1.1 23.4 1.3 39.7 0.8 47.8 l-0.8 12.3 -7 -9.2 c-3.8 -5.1 -14.2 -18.7 -23 -30.4 -14.8 -19.5 -22.5 -29.7 -47 -61.9 -4.9 -6.5 -12.1 -16 -16 -21.1 -11.3 -14.9 -21.7 -28.4 -27 -35.4 -11.5 -14.9 -13.7 -17.8 -17.1 -22.3 -2 -2.7 -4 -4.8 -4.5 -4.8 -1.2 0 -1.1 6.4 0.2 47 0.6 18.4 1.5 34.2 2 35.2 3 5.6 86 112.4 128.8 165.6 l13.4 16.7 -0.7 -9.5 c-0.3 -5.2 -0.8 -19.4 -1.1 -31.5 -0.3 -12.1 -0.7 -25 -1 -28.7 -0.3 -5.1 -0.1 -6.8 0.9 -6.8 1 0 1.4 5.8 2 25.8 0.3 14.1 1 31.1 1.5 37.7 0.5 6.6 0.6 17 0.2 23 l-0.6 11 -16 -19.5z"/>
  <path d="M1006 1429.8 c-7.9 -10.5 -27.2 -36.8 -31.2 -42.3 -1.6 -2.2 -6.1 -8.4 -10.1 -13.7 -3.9 -5.4 -10.3 -14.1 -14.2 -19.3 -3.8 -5.3 -10.1 -13.8 -14 -19 -3.8 -5.2 -9.5 -12.9 -12.5 -17.1 -3 -4.1 -8.6 -11.8 -12.5 -17 -3.8 -5.2 -9.5 -12.9 -12.5 -17 -3 -4.2 -7.7 -10.5 -10.5 -14.2 -2.7 -3.7 -6.6 -9 -8.5 -11.9 -1.9 -2.9 -4.1 -5.5 -4.8 -5.7 -1 -0.5 -1.2 11.6 -0.7 65.2 0.4 41.3 0.3 65.1 -0.3 64.2 -1 -1.5 -2.9 -97.9 -2.5 -121.5 0.4 -18.8 1.4 -34.5 2.2 -34.5 0.4 0 13.8 18.1 29.7 40.3 46.7 65.1 104.5 145.1 106 146.6 0.7 0.8 1.6 1.3 1.8 1 0.6 -0.5 -1.3 -39.8 -3.9 -85.8 -0.9 -14.5 -1.3 -26.7 -1 -27 1.6 -1.5 2.3 5.1 4.3 43.6 3.1 59.2 3.4 66.2 2.5 80.8 l-0.8 13 -6.5 -8.7z"/>
  <path d="M980.2 1263.7 c-35.8 -47.8 -59.5 -79.5 -73.2 -98.1 -6.3 -8.5 -14.8 -19.9 -18.8 -25.3 -4 -5.3 -8.7 -11.9 -10.4 -14.5 -4.7 -7.2 -5.6 -6.4 -5.2 4.5 0.2 5 0.5 28.2 0.8 51.4 0.3 34.1 0.1 42 -0.9 40.9 -1 -1 -1.4 -16.1 -1.8 -69.2 -0.3 -37.3 -0.8 -68.7 -1.2 -69.6 -2.2 -5.6 3.1 1 18.8 23.5 9.7 13.8 18.7 26.8 20.1 28.7 1.3 1.9 5.1 7.3 8.3 11.8 7 10.1 7 10.1 20.5 28.8 23.9 33.2 32.5 45 43.8 60.5 4.1 5.6 9.1 12.5 11 15.3 2 2.8 5.7 8 8.3 11.5 l4.7 6.3 0 -37.1 c0 -32.6 0.2 -37.1 1.5 -37.1 1.4 0 1.5 4.5 1 38.8 -0.3 21.3 -0.6 44.4 -0.6 51.5 0 7 -0.1 12.7 -0.2 12.6 -0.1 0 -12 -15.8 -26.5 -35.2z"/>
  <path d="M997 1181.3 c-9.7 -13.1 -14.2 -19.2 -22 -29.9 -3 -4.1 -7.3 -10 -9.5 -12.9 -2.2 -3 -5.1 -7.1 -6.5 -9 -1.4 -2 -4.3 -6 -6.5 -9 -2.2 -3 -5 -6.9 -6.3 -8.7 -1.3 -1.8 -10.9 -15.2 -21.3 -29.8 -10.4 -14.6 -20.1 -28.1 -21.4 -30 -1.4 -1.9 -6.3 -8.9 -11 -15.5 -13.1 -18.5 -15.3 -21.6 -18.7 -26.7 -4.3 -6.6 -6.2 -6.4 -5.4 0.5 1.1 10.3 1.7 70.3 0.7 68.6 -0.9 -1.5 -2.9 -65 -2.7 -85.9 0.1 -4.7 -0.2 -12.2 -0.6 -16.7 -0.5 -5.4 -0.4 -8.3 0.3 -8.3 0.5 0 4.3 5.1 8.5 11.3 4.1 6.1 12.2 18.2 18 26.7 5.8 8.5 14 20.6 18.2 26.8 4.2 6.2 10 14.6 12.7 18.6 2.8 3.9 7.5 10.8 10.5 15.3 3 4.5 11.7 17 19.4 27.9 35.9 51.4 50.9 72.4 51.8 72.4 0.5 0 0.7 -20.3 0.6 -48 -0.2 -38.2 0 -48 1 -48 1 0 1.1 10.1 0.8 50.3 -0.3 27.6 -0.8 55 -1.3 60.8 l-0.8 10.6 -8.5 -11.4z"/>
  <path d="M999.5 1060.9 c-3.4 -4.1 -7 -8.6 -8 -10 -1.1 -1.5 -11.3 -14.6 -22.6 -29 -25.6 -32.9 -26.2 -33.7 -55.2 -71.4 -13.1 -17 -25.5 -33.2 -27.7 -36 -2.1 -2.7 -8.6 -11.5 -14.4 -19.5 -12.3 -16.8 -12.6 -17.3 -13.3 -16.6 -0.3 0.3 0.2 9.2 1.1 19.8 0.9 10.6 2.3 27.2 3.1 36.8 0.8 9.6 1.8 20.2 2.1 23.5 0.5 5.6 0.4 5.8 -0.9 3.5 -1.6 -2.7 -2.9 -14.4 -5.2 -46 -0.9 -11.3 -1.9 -24.1 -2.4 -28.5 -0.5 -4.4 -0.7 -12.9 -0.5 -19 l0.4 -11 4.3 -0.3 4.2 -0.3 7.5 9.7 c4.1 5.3 8.7 11.1 10.1 12.8 1.5 1.7 16.3 21.3 33 43.5 29.1 38.6 66.5 88.3 81.4 107.9 3.8 5.1 7.3 9.2 7.8 9.2 0.4 0 0.7 -7.1 0.5 -15.7 -0.2 -8.7 -0.2 -31 0 -49.6 0.1 -26.6 0.5 -33.8 1.5 -33.4 0.9 0.3 1.1 10.7 0.8 48.8 -0.2 26.6 -0.7 55.1 -1 63.3 l-0.6 14.9 -6 -7.4z"/>
  <path d="M999.3 930.8 c-3.4 -4.6 -8.5 -11.4 -11.3 -15.3 -7.3 -9.9 -30.6 -41 -36.1 -48.1 -2.5 -3.2 -5.1 -6.9 -5.8 -8.1 -1.2 -2.3 -1.2 -2.3 7.3 -2.3 4.6 0 9.1 -0.2 9.9 -0.6 1.3 -0.5 3.6 2.3 17.2 21.1 11.6 15.9 14.4 19.8 18 25 2.2 3.1 4.5 6.4 5.2 7.3 1 1.4 1.2 -1.1 1.2 -12.3 -0.1 -7.7 -0.4 -19.6 -0.8 -26.5 -0.8 -13.7 -0.6 -15.1 1.5 -14.3 0.8 0.3 1.2 0.9 0.9 1.3 -0.3 0.5 0 13.1 0.6 28.1 0.7 19.2 0.7 27.9 0 29.3 -0.6 1.2 -1.2 6.9 -1.3 12.9 l-0.3 10.7 -6.2 -8.2z"/>
  <path d="M834 858 c-1.9 -0.6 -1.1 -0.8 3.3 -0.9 3.2 -0.1 5.7 0.3 5.7 0.9 0 1.2 -5.4 1.2 -9 0z"/>
  <path d="M832.5 788.8 c-0.3 -0.7 -3.4 -29.4 -7 -63.8 -9.3 -89.4 -12.4 -117.3 -13.3 -119 -2.1 -3.9 2.4 -6.6 8.9 -5.3 2.6 0.5 2.6 0.5 3.3 13.3 0.3 7.1 1.7 26.1 3.1 42.2 5.7 68.9 10.5 124.6 11 129.1 l0.6 4.7 -3.1 0 c-1.7 0 -3.3 -0.6 -3.5 -1.2z"/>
  <path d="M871.8 789.3 c-1.6 -0.2 -2.8 -1.1 -2.8 -1.8 0 -1.6 -10.5 -105.7 -15.1 -149.5 -1.7 -16.2 -3.4 -30.2 -3.7 -31 -0.4 -0.8 -0.6 -2.7 -0.4 -4.2 0.3 -2.7 0.6 -2.8 6.1 -2.8 l5.9 0 0.6 11.8 c1.7 28.5 11.7 161.7 13.1 173.5 0.3 2.6 0.2 4.6 -0.2 4.6 -0.4 -0.1 -2 -0.4 -3.5 -0.6z"/>
  <path d="M905.6 784 c-1.8 -16.9 -7.6 -97.4 -9.1 -126 -0.4 -6.3 -0.9 -12.2 -1.2 -13 -0.3 -0.8 -0.4 -4.7 -0.3 -8.7 0 -3.9 -0.2 -7.3 -0.7 -7.6 -0.4 -0.3 -0.7 -7.1 -0.5 -15.1 l0.3 -14.6 5.8 0 5.9 0 0.6 14.3 c0.4 7.8 1.3 31.5 2.1 52.7 1.5 38.1 4.9 102.9 6.1 116.6 l0.6 7.1 -4.5 -0.1 -4.6 -0.1 -0.5 -5.5z"/>
  <path d="M789.6 787.5 c-0.7 -2 -6.3 -55.5 -7.5 -72.5 -0.6 -7.4 -1.5 -28.3 -2.1 -46.5 -0.6 -18.1 -1.4 -34.5 -1.6 -36.3 l-0.5 -3.3 -5.2 5.8 c-11.2 12.6 -42.9 41.8 -61.2 56.3 -15.3 12.1 -31.9 21.7 -51.2 29.5 -4.8 2 -9.7 4 -10.8 4.5 -5.3 2.5 -27.2 8.3 -37.5 10 -34.4 5.7 -67.2 5.2 -90.8 -1.6 -26.8 -7.6 -63.4 -32.1 -79.7 -53.4 -9.9 -13 -22.6 -39 -32.6 -66.9 -2.2 -6.3 -2.2 -6.1 -0.9 -6.1 0.6 0 1.5 1 2 2.3 0.5 1.2 3.4 8.7 6.6 16.7 18 45.9 31.6 64.2 63.9 85.2 28.2 18.4 50.8 25.1 84 25 36.7 -0.1 62.7 -4.9 92 -16.9 22.9 -9.3 41.4 -20.4 58.8 -35 25 -21 41.7 -36.6 56 -52.3 5.7 -6.3 7.9 -8.2 8.5 -7.2 0.5 0.8 1.2 10.4 1.6 21.5 1.8 55.3 5.4 105.6 10 139.5 0.5 3.3 -0.7 4.4 -1.8 1.7z"/>
  <path d="M954.6 782.8 c-1 -9.7 -3.4 -48.1 -5.1 -81.8 -0.9 -16.8 -2.2 -42.8 -3 -57.9 -1.7 -31.4 -1.8 -41 -0.6 -43 0.5 -0.8 2.8 -1.4 5.7 -1.5 l4.9 -0.1 0.7 5.5 c0.3 3 1.1 29.8 1.7 59.5 1.1 51.5 2.3 88.1 3.7 113.8 l0.7 11.7 -4.1 0 -4 0 -0.6 -6.2z"/>
  <path d="M1005 788.5 c0 -0.2 -1.1 -13.6 -2.5 -29.7 -5.1 -61.6 -10.6 -152.7 -9.3 -154.2 0.4 -0.6 0.8 -2.3 0.8 -3.8 0 -2.7 0.2 -2.8 4.9 -2.8 l4.9 0 1.6 6.8 c2.3 10.6 5.2 53.3 9.1 137.2 0.8 17.9 1.7 35.8 2 39.8 l0.5 7.2 -6 0 c-3.3 0 -6 -0.2 -6 -0.5z"/>
  <path d="M1053.2 787.3 c-0.5 -1 -0.9 -7.9 -1 -15.3 -0.2 -13.7 -1.6 -34 -5.2 -75.5 -2.7 -32.4 -6.3 -94.1 -5.6 -97.1 0.4 -1.3 1.1 -2.4 1.7 -2.4 0.6 0 0.9 0.6 0.6 1.4 -1.1 2.7 3.3 70.8 8.2 127.6 1.1 12.4 2.2 30.6 2.6 40.5 0.3 9.9 0.8 19 1.1 20.3 0.5 2.6 -1.2 3 -2.4 0.5z"/>
  <path d="M1297 697.9 c-30.2 -2.6 -51.9 -7.2 -75.2 -16 -30.8 -11.6 -41.5 -16.7 -59.8 -28.4 -3.6 -2.3 -10.7 -6.4 -15.8 -9.1 -13.3 -7 -63.9 -45.4 -62.6 -47.5 0.3 -0.5 1.5 -0.1 2.7 0.8 32.7 26.4 50 39.2 61.2 45.2 5.5 2.9 15 8.4 21 12 16.5 10.1 35.7 18.7 62.9 28 28.4 9.8 75.7 15.4 102.7 12.3 27.9 -3.3 53.3 -15.1 81.4 -37.7 21.4 -17.3 35.7 -34.3 47.3 -56.5 4.3 -8.1 6.5 -11 8.5 -11 1.2 0 -9.2 19.4 -15.4 28.8 -4.8 7 -10.2 13.8 -18.4 23 -3.7 4.2 -20 18.3 -27.5 23.8 -18.9 14 -39.1 24.4 -54.9 28.3 -16.3 4.1 -39.1 5.7 -58.1 4z"/>
  <path d="M383.3 533.5 c-9.3 -29.6 -16.7 -78.8 -19.4 -128.8 -1.6 -29.8 -0.7 -87.7 1.5 -101.5 2.1 -12.9 6.3 -29.6 7.5 -30 0.6 -0.2 0.7 -1 0.4 -1.8 -0.3 -0.8 -0.1 -1.4 0.3 -1.4 0.5 0 1 -1.1 1 -2.5 0.1 -1.3 0.9 -3.2 1.8 -4 0.9 -0.9 1.4 -2.1 1 -2.6 -0.3 -0.5 0.2 -1.6 1.1 -2.5 0.9 -0.9 1.4 -2.3 1.1 -3 -0.3 -0.8 -0.1 -1.4 0.5 -1.4 0.6 0 0.7 -0.5 0.4 -1 -0.3 -0.6 -0.1 -1 0.5 -1 0.6 0 0.8 -0.5 0.5 -1 -0.3 -0.6 -0.1 -1 0.5 -1 0.6 0 0.8 -0.5 0.5 -1 -0.3 -0.5 -0.1 -1 0.5 -1 0.6 0 0.8 -0.4 0.5 -1 -0.3 -0.5 -0.1 -1 0.5 -1 0.6 0 0.8 -0.5 0.5 -1 -0.3 -0.6 -0.1 -1 0.5 -1 0.6 0 0.8 -0.5 0.5 -1 -0.3 -0.6 -0.1 -1 0.5 -1 0.6 0 0.8 -0.4 0.5 -1 -0.3 -0.5 -0.2 -1 0.4 -1 0.9 0 5.4 -7.5 5.4 -9 0 -0.3 0.7 -1 1.6 -1.7 0.9 -0.7 1.2 -1.3 0.7 -1.3 -0.6 0 -0.1 -0.7 1 -1.5 1 -0.8 1.6 -1.5 1.2 -1.5 -0.4 0 0.6 -1.4 2.2 -3.2 1.6 -1.7 2.8 -3.3 2.6 -3.5 -0.2 -0.2 1.1 -2 2.8 -3.9 1.7 -2 3.1 -3.9 3.1 -4.4 0 -0.4 1.2 -1.8 2.8 -3 1.5 -1.2 2.5 -2.5 2.3 -2.9 -0.3 -0.4 1.3 -2.2 3.4 -4 2.2 -1.8 3.8 -3.6 3.5 -4 -0.2 -0.5 3.7 -4.7 8.8 -9.5 5.1 -4.7 10.6 -10 12.2 -11.6 1.7 -1.7 3.3 -3 3.7 -3 0.4 0 1.8 -1 3.1 -2.3 2.8 -2.6 6.9 -5.6 10.6 -7.7 1.4 -0.8 2.8 -1.8 3.1 -2.1 1.2 -1.6 17.3 -9.7 24.9 -12.8 9.9 -3.9 25.3 -7.5 39.5 -9.3 13.8 -1.8 66.2 -1.7 77.6 0 20.8 3.3 39.8 12.2 85.9 40.4 46 28.2 78.4 52.4 113.5 84.7 17.7 16.4 20.2 18.4 32.1 26.4 14.4 9.7 26.2 18.6 42.1 32 17 14.2 20.5 17.7 18.2 17.7 -0.9 0 -2.2 -0.8 -2.9 -1.7 -4.3 -5.3 -39 -32.8 -56.4 -44.8 -13.3 -9.1 -18.3 -13.2 -35.8 -29.3 -40 -36.6 -82 -66.7 -136.6 -97.9 -28.5 -16.3 -41.9 -21.8 -60.4 -24.8 -11.1 -1.8 -59.4 -2.1 -74.5 -0.4 -22.2 2.4 -44.4 9.1 -60.7 18.4 -15.5 8.9 -35.1 25.8 -50.5 43.5 -3.6 4.1 -7.3 8.3 -8.2 9.4 -1 1 -4.7 6.2 -8.4 11.5 -26.5 38.1 -35.4 71.6 -35.4 133.6 0 61.3 6.2 119 17.6 164.9 3.9 15.6 4.4 23.8 0.7 12.1z"/>
  <path d="M546.3 535.3 c-1.5 -0.6 -3.8 -8.3 -5.3 -17.4 -5.1 -33.2 -9.4 -123.7 -7.1 -151.9 1.6 -19.7 3.9 -36.4 5 -36.8 0.6 -0.2 0.7 -1 0.4 -1.8 -0.3 -0.8 0 -1.4 0.7 -1.4 0.6 0 0.9 -0.4 0.6 -0.9 -0.3 -0.5 0.1 -1.2 0.9 -1.5 0.8 -0.3 1.4 -1.1 1.3 -1.7 -0.5 -2 9.1 -8.6 15 -10.4 4.1 -1.3 7.5 -1.6 14.1 -1.2 15.7 0.9 29.2 7.4 64.1 30.7 8 5.3 24.6 15.9 37 23.5 29 17.8 45.2 28.5 56.9 37.9 11.4 9.1 24.1 21.2 24.1 23 0 1.1 -14 17.7 -28.4 33.7 -2.2 2.5 -6.8 7.6 -10.1 11.4 -3.3 3.8 -6.5 7.3 -7 7.9 -2.2 2.3 -12.2 14.6 -16 19.6 -16.2 21.2 -31.6 38.3 -33.2 36.7 -0.4 -0.4 3.1 -4.5 7.8 -9 7.9 -7.7 19.7 -21.7 18.3 -21.7 -0.3 0 0.4 -0.9 1.7 -2 1.3 -1 2 -1.9 1.5 -2 -0.4 0 0.2 -0.9 1.5 -2 1.3 -1 2 -1.9 1.5 -2 -0.5 0 0.3 -0.9 1.8 -2.1 1.4 -1.1 2.4 -2.4 2.1 -2.8 -0.2 -0.4 0.9 -1.8 2.6 -3 1.7 -1.3 2.8 -2.5 2.5 -2.8 -0.3 -0.3 0.9 -1.7 2.5 -3 1.6 -1.4 2.8 -2.8 2.5 -3 -0.2 -0.3 1.1 -1.8 3 -3.5 1.9 -1.7 3.4 -3.5 3.4 -4.2 0 -0.6 2 -2.9 4.5 -4.9 2.5 -2.1 4.4 -4.1 4.2 -4.5 -0.1 -0.4 1.7 -2.5 4.1 -4.6 2.3 -2.1 4.2 -4.2 4.2 -4.7 0 -0.5 1.6 -2.3 3.5 -4 1.9 -1.7 3.5 -3.5 3.5 -4.1 0 -0.5 1.4 -2.1 3 -3.5 1.7 -1.3 3 -2.9 3 -3.4 0 -0.5 1.6 -2.3 3.5 -4 1.9 -1.7 3.2 -3.5 2.9 -4 -0.3 -0.5 0.2 -1.2 1 -1.5 3.5 -1.3 1.6 -4.9 -6.2 -12 -16.7 -15.2 -37.3 -29.6 -75.4 -52.8 -9 -5.5 -26.5 -16.6 -39 -24.8 -34.3 -22.5 -45 -27.1 -61.2 -26.3 -4.6 0.2 -9.8 1 -11.7 1.8 -4.3 1.9 -11.6 8.1 -13.3 11.6 -2.8 5.3 -4.6 18.6 -6.9 49.1 -0.3 3 -0.1 21.2 0.4 40.5 1.2 52.4 6.9 112.3 11.4 119.5 0.7 1.1 0.6 1.1 -1.2 0.3z"/>
  <path d="M1489.3 521.2 c-0.9 -0.6 -0.7 -3.6 0.7 -12.2 6.8 -41.7 8.4 -93.3 4.4 -142.8 -4.7 -59.9 -9.7 -88.8 -23 -134.2 -8.3 -28.1 -18.3 -49.1 -32.6 -68.1 -23.9 -31.9 -58.9 -54.5 -94.6 -61.3 -25 -4.7 -80.8 -3.7 -109.1 2 -29.8 6 -65.3 21.1 -101.1 43.2 -25.3 15.6 -62.7 44.2 -83.5 64 -24.1 22.9 -59.5 58.7 -66 66.7 -8.9 10.9 -21 28.9 -27.1 40.2 -2.5 4.5 -4.7 8.3 -4.9 8.3 -0.2 0 -0.3 -0.9 -0.2 -2 0.1 -1.1 0.5 -2 1 -2 0.4 0 0.5 -0.4 0.2 -1 -0.3 -0.5 -0.1 -1 0.5 -1 0.6 0 0.8 -0.4 0.5 -1 -0.3 -0.6 -0.1 -1 0.5 -1 0.6 0 0.9 -0.4 0.6 -0.9 -0.3 -0.5 0.1 -1.2 1 -1.5 0.8 -0.3 1.2 -1 0.9 -1.6 -0.3 -0.5 -0.1 -1 0.5 -1 0.6 0 0.8 -0.4 0.5 -1 -0.3 -0.5 -0.1 -1 0.5 -1 0.6 0 0.8 -0.5 0.5 -1 -0.3 -0.6 0.1 -1.3 0.9 -1.6 0.9 -0.3 1.3 -1 1 -1.5 -0.3 -0.5 0 -0.9 0.6 -0.9 0.6 0 0.9 -0.4 0.6 -0.9 -0.3 -0.5 0.1 -1.2 1 -1.5 0.8 -0.3 1.2 -1 0.9 -1.6 -0.3 -0.6 0.1 -1.3 0.9 -1.6 0.9 -0.3 1.3 -1 1 -1.5 -0.3 -0.5 0.2 -1.2 1 -1.5 0.9 -0.3 1.6 -1.2 1.6 -2 0 -0.8 0.5 -1.4 1.1 -1.4 0.5 0 0.8 -0.4 0.4 -0.9 -0.3 -0.6 0.3 -1.4 1.2 -2 1 -0.6 1.4 -1.1 0.9 -1.1 -0.4 0 0.2 -0.9 1.5 -2 1.3 -1 2 -1.9 1.5 -2 -0.4 0 0.2 -0.9 1.5 -2 1.3 -1 2 -1.9 1.5 -2 -0.5 0 0.3 -1 1.8 -2.1 1.5 -1.2 2.5 -2.4 2.2 -2.6 -0.3 -0.3 0.6 -1.4 1.9 -2.5 1.4 -1.1 2.3 -2.3 2.1 -2.7 -0.3 -0.4 1.5 -2.4 4 -4.5 2.4 -2.1 4.2 -4.1 3.9 -4.5 -0.2 -0.5 4.6 -5.5 10.7 -11.2 6.1 -5.7 18.7 -17.9 28 -27.1 9.2 -9.3 17.1 -16.8 17.5 -16.8 0.3 0 3 -2.4 5.9 -5.2 2.9 -2.9 6.9 -6.6 8.9 -8.3 2 -1.6 4.7 -4 6.1 -5.3 1.4 -1.2 2.9 -2.2 3.4 -2.2 0.6 0 1.5 -0.9 2.2 -2 0.7 -1.1 1.8 -2 2.3 -2 0.6 0 2.6 -1.6 4.5 -3.5 1.9 -1.9 4 -3.5 4.5 -3.5 0.6 0 2.4 -1.2 4.1 -2.7 1.7 -1.6 4.1 -3.4 5.5 -4.1 1.4 -0.7 3.9 -2.6 5.7 -4.3 1.7 -1.6 3.5 -2.9 3.9 -2.9 0.4 0 2.6 -1.6 4.8 -3.5 2.2 -1.9 4.4 -3.5 4.9 -3.5 0.5 0 3.2 -1.7 6 -3.8 6.2 -4.5 8.4 -5.9 11.6 -7.3 1.3 -0.5 2.7 -1.3 3 -1.7 0.6 -0.9 3.6 -2.8 7.5 -4.8 1.7 -0.9 5.3 -2.8 8 -4.4 20.3 -11.7 49.8 -24 70.9 -29.5 20 -5.3 55.2 -8.1 87.6 -7.2 39.1 1.2 57.9 6.9 87.9 26.8 27.9 18.4 53 50 65.6 82.5 4.2 10.8 12.3 38.4 16.6 56.4 1.6 6.9 3.4 14.1 3.9 16 3 11.3 6.4 37 10.2 77 1.8 19.6 2.2 30 2.2 62 0.1 38.8 -1 57.2 -4.9 84 -0.8 5.2 -1.7 11.8 -2.1 14.5 -0.7 5.8 -0.6 5.6 -2.1 4.7z"/>
  <path d="M1158.5 488.4 c-17.3 -2.4 -24.4 -4.9 -42.7 -15.3 -6.8 -3.8 -16.1 -8.9 -20.8 -11.4 -4.7 -2.6 -10.5 -6.4 -13 -8.5 -4.3 -3.8 -4.5 -4.2 -4.3 -8.8 0.3 -8.5 6.9 -32.1 11.8 -41.9 7.6 -15.2 25.3 -36.1 46 -54.1 3.9 -3.4 11.1 -9.8 16.2 -14.2 25.4 -22.2 39.9 -31.4 60.6 -38.4 7.4 -2.5 11 -3.1 17.9 -3.2 12.1 -0.1 12.6 0.5 14.4 16.1 1.8 16.4 1.8 44.6 -0.2 58.5 -2.3 16.9 -5.9 35 -11.4 56.8 -7.5 30.2 -9.4 35.4 -14.7 41.1 -8 8.6 -24.3 18.4 -35.5 21.3 -6.1 1.6 -19.4 2.7 -24.3 2z m32.3 -6.5 c2.8 -1.2 5.2 -2.5 5.2 -2.9 0 -0.4 1.1 -1.1 2.5 -1.4 1.4 -0.4 2.5 -1.1 2.5 -1.6 0 -0.6 0.6 -1 1.3 -1 0.6 0 4.2 -2.3 7.9 -5 7.1 -5.4 13.2 -12.6 12.4 -14.7 -0.3 -0.7 -0.1 -1.3 0.5 -1.3 0.6 0 0.9 -0.7 0.5 -1.5 -0.3 -0.8 -0.1 -1.5 0.5 -1.5 0.6 0 0.7 -0.5 0.3 -1.1 -0.3 -0.6 -0.1 -1.5 0.6 -1.9 0.7 -0.4 1.3 -2.2 1.4 -3.9 0 -1.7 0.5 -3.1 0.9 -3.1 0.5 0 0.5 -0.9 0.2 -2 -0.4 -1.2 -0.2 -2 0.5 -2 0.7 0 1 -0.8 0.7 -2 -0.3 -1.1 -0.1 -2 0.5 -2 0.6 0 0.8 -0.9 0.5 -2 -0.3 -1.1 -0.1 -2 0.5 -2 0.6 0 0.8 -0.7 0.4 -1.5 -0.3 -0.8 0 -1.5 0.5 -1.5 0.6 0 0.9 -0.9 0.6 -2 -0.3 -1.1 -0.1 -2 0.5 -2 0.6 0 0.8 -1.1 0.6 -2.5 -0.3 -1.4 -0.1 -2.5 0.5 -2.5 0.5 0 0.7 -0.9 0.4 -2 -0.3 -1.1 -0.1 -2 0.5 -2 0.5 0 0.6 -0.9 0.3 -2 -0.4 -1.2 -0.2 -2 0.5 -2 0.7 0 0.9 -0.8 0.5 -2 -0.4 -1.2 -0.2 -2 0.5 -2 0.8 0 1 -0.9 0.6 -2.5 -0.4 -1.5 -0.2 -2.5 0.4 -2.5 0.6 0 0.8 -1 0.4 -2.5 -0.4 -1.5 -0.2 -2.5 0.5 -2.5 0.6 0 0.8 -1.1 0.5 -3 -0.4 -1.8 -0.2 -3 0.4 -3 0.5 0 0.8 -0.9 0.5 -2 -0.3 -1.2 0 -2 0.7 -2 0.8 0 0.9 -1 0.5 -3 -0.4 -2 -0.3 -3 0.5 -3 0.8 0 0.9 -1 0.5 -3 -0.4 -1.9 -0.3 -3 0.4 -3 0.7 0 0.9 -1.3 0.5 -3.5 -0.3 -1.9 -0.2 -3.5 0.3 -3.5 1.6 0 1.5 -37 -0.2 -53.5 -0.9 -8.8 -1.9 -16.3 -2.4 -16.8 -1.5 -1.5 -10.5 -1.6 -17.5 -0.2 -13.4 2.8 -33.8 12.5 -46.9 22.3 -7.9 6.1 -39.9 33.6 -50.6 43.7 -7.8 7.3 -22.7 25.4 -29.2 35.3 -5.1 7.8 -8.4 16.7 -12.5 33.2 -3.9 16.4 -4 16.9 -0.4 21.2 2 2.4 6.2 5.3 12.3 8.2 5.1 2.5 13.5 7.1 18.7 10.2 12.3 7.3 24.1 12.8 31 14.5 14.1 3.3 34.5 2.3 45.8 -2.2z"/>
 </g>
</svg>