<?xml version="1.0" encoding="utf-8"?>
<!DOCTYPE svg PUBLIC "-//W3C//DTD SVG 1.0//EN" "http://www.w3.org/TR/2001/REC-SVG-20010904/DTD/svg10.dtd">
<svg version="1.0" xmlns="http://www.w3.org/2000/svg" width="1924px" height="1924px" viewBox="0 0 1924 1924" preserveAspectRatio="xMidYMid meet">
 <g fill="#2b4046">
  <path d="M1600.5 1730.9 c-28.5 -2.6 -45.9 -8.5 -63.1 -21.2 -17.9 -13.3 -30.2 -33.1 -38.5 -62.1 -5 -17.5 -6.1 -24.9 -6.8 -49.1 -0.8 -24.1 -1.1 -25.7 -6.4 -36.1 -3.3 -6.6 -12.1 -19.4 -19.9 -29.1 -22 -27.5 -27.6 -34.4 -32.2 -39.8 -13.1 -15.4 -39.5 -45.3 -51.2 -58.1 -7.1 -7.7 -16.9 -18.7 -21.9 -24.5 -4.9 -5.7 -16.6 -19.2 -26 -29.9 -18.7 -21.4 -28.1 -32.6 -39.6 -47 -4.2 -5.2 -11.7 -14.2 -16.8 -20 -5.1 -5.8 -15.2 -18.5 -22.4 -28.3 -7.3 -9.9 -13.7 -18.6 -14.4 -19.4 -1.4 -1.8 -1.7 -1.8 -15.3 4 -22.7 9.5 -54.7 19.1 -75 22.3 -7.6 1.3 -16.7 1.7 -33 1.7 -23.5 0 -37.4 -1.2 -49.8 -4.4 -29.5 -7.5 -69.4 -35.2 -89.7 -62.2 -4.3 -5.8 -6.6 -8 -8.7 -8.4 -3.4 -0.7 -8.7 -7.7 -19.6 -25.8 -3.6 -6 -6.9 -11.1 -7.4 -11.3 -1.3 -0.6 -0.9 -2.4 0.9 -3.7 1.5 -1.1 1.4 -1.8 -1.9 -8.1 -4.1 -7.8 -12.6 -30.2 -15.7 -41.4 -8.4 -30.2 -11 -62 -7.5 -92 3.1 -27.4 7.9 -40.6 18.1 -50 7.5 -6.7 8.3 -7.6 13.4 -13.3 6.1 -6.8 12.5 -9.9 22 -10.5 6.8 -0.4 8.4 -0.1 13.5 2.2 3.2 1.5 8.3 4.6 11.4 6.9 5.5 4.1 26.7 25 42.9 42.3 4.6 4.9 18.2 18.8 30.1 30.9 11.9 12.1 23.8 24.6 26.4 27.8 2.7 3.1 5.3 5.7 5.8 5.7 0.5 0 6.3 -3.7 12.9 -8.1 11 -7.4 14.1 -10.4 35.2 -32.8 12.7 -13.5 31.6 -33 41.9 -43.3 12.1 -12 18.8 -19.5 18.8 -20.8 0 -1.1 -2.8 -5.7 -6.3 -10.3 -3.4 -4.5 -9.8 -13.5 -14.1 -20.1 -4.3 -6.5 -12.6 -17.8 -18.5 -25.1 -24.1 -30.2 -43.7 -55.8 -45.8 -59.8 -2.9 -5.4 -4.5 -14.1 -3.7 -19.2 2 -12.2 11.1 -21 25.4 -24.6 7.2 -1.8 49.4 -1.9 64 0 45.9 5.7 92.8 33.3 123.6 72.7 6.1 7.9 6.9 8.5 8.1 6.8 1.5 -2.1 1.5 -2.1 6.3 5.8 21.2 35 27.2 49.8 37.1 92.8 1.6 7 2.2 13.1 2.4 23.5 0 7.7 0.7 20.1 1.4 27.5 2.3 23.2 0.8 44.8 -4.6 64.5 -0.3 1.1 -0.5 4.3 -0.4 7 0.1 3.7 -0.9 7.6 -3.5 14 -4.9 12.3 -13.3 29.3 -19.3 39.4 -2.8 4.6 -5.1 8.9 -5.1 9.5 0 0.6 2.2 3.6 4.8 6.6 2.6 3.1 6.3 7.5 8.2 9.9 1.9 2.4 4.6 5.5 5.9 6.9 1.8 1.8 2.4 3.4 2.3 5.8 -0.2 2.8 0.7 4.5 6 10.6 3.5 4 16.5 18.9 28.8 33.2 12.4 14.2 27.6 32 33.9 39.5 32 38.3 90.7 103.1 110.1 121.7 23.2 22.2 45.3 36.6 77.5 50.4 30.8 13.3 50 25.5 66.9 42.6 14.8 14.9 22.6 25 28.5 37.1 13.9 28.4 17.2 63.4 8.6 91.8 -4.2 13.7 -18.2 38.2 -29.7 52 -11 13.1 -27.4 26.3 -41.3 33.2 -18.3 9.2 -43.8 13.4 -68 11.2z m41.2 -51.4 c21.2 -4 38.6 -19.3 50.9 -44.8 8.4 -17.6 10.5 -34.1 6.4 -50.3 -3.5 -13.5 -9.7 -23.8 -19.7 -32.4 -3.5 -3 -7 -6.1 -7.8 -6.8 -3.6 -3.2 -17.4 -10.5 -24.1 -12.8 -19.6 -6.5 -44.7 -4.8 -64.5 4.4 -4.6 2.2 -10.1 5.3 -12.3 7.1 -2.1 1.7 -4.2 3.1 -4.6 3.1 -1.4 0 -10.1 11.9 -12.9 17.7 -8.6 17.4 -11.9 37.2 -8.8 52 1.8 8.4 7.7 21.4 13.4 29.9 5.9 8.7 16.1 19.1 21.8 22.4 17.5 10 42.5 14.2 62.2 10.5z"/>
  <path d="M518.5 1067.4 c-42.1 -7.2 -55.7 -11.4 -76 -23.7 -25.3 -15.2 -36.4 -23.6 -52.5 -39.7 -24.5 -24.4 -43.6 -60.5 -51 -96.1 -4.1 -19.9 -4.9 -47.8 -1.9 -68.4 4.7 -32.1 16.7 -65.2 32.1 -88.5 18.3 -27.6 47.2 -54.3 75.3 -69.8 27.4 -15 49.7 -22.5 71.3 -23.9 9.8 -0.6 10.1 -0.8 19.7 -8.6 1.7 -1.4 5.3 -3.6 8.1 -4.9 l5.2 -2.5 0.6 4.6 c0.4 2.5 1.3 21.5 2.1 42.1 1.5 37.7 2.5 50.9 7 87 4.9 39.4 7.6 69.8 9.1 100.1 l0.7 13.7 7.4 -5.2 c4 -2.8 9.5 -6.4 12.1 -8 18.7 -11.7 50.9 -36.1 59.7 -45.2 1.1 -1.1 6.3 -5.6 11.5 -10 5.2 -4.3 12.9 -11.1 17 -15 8.8 -8.4 11.1 -10.5 17.6 -15.9 2.6 -2.2 8.9 -7.9 13.8 -12.6 16 -15.1 30.5 -26.8 33.3 -26.9 0.7 0 2.4 2.3 3.8 5 2.3 4.6 2.4 5.3 1.2 7.8 -1.2 2.5 -1 3.3 2.5 10.4 9.7 19.7 15.2 36.8 18.4 57.8 2 13.2 2.3 42.5 0.5 53.5 -6 37.1 -20.1 68.7 -42.3 95 -9.8 11.6 -31.6 33.7 -36.5 36.9 -2.1 1.4 -7.5 5.1 -12.1 8.3 -11.4 8 -14.9 10.1 -29.2 17.6 -24.2 12.7 -45.4 20.1 -70 24.4 -12.5 2.2 -47.3 2.6 -58.5 0.7z"/>
 </g>
 <g fill="#01b4f1">
  <path d="M1149 1706.3 c-0.8 -0.2 -2.4 -0.9 -3.5 -1.4 -1.1 -0.5 -3 -1 -4.2 -1.2 -1.2 -0.2 -2.6 -0.6 -2.9 -1 -0.4 -0.4 -1.5 -0.7 -2.4 -0.7 -0.9 0 -5.3 -1.8 -9.6 -4 -4.3 -2.2 -8.7 -4 -9.6 -4 -1 0 -1.8 -0.4 -1.8 -0.9 0 -0.5 -0.9 -1.2 -1.9 -1.6 -1 -0.3 -8.3 -4.6 -16.2 -9.5 -7.9 -5 -14.9 -9 -15.6 -9 -0.7 0 -1.3 -0.4 -1.3 -0.9 0 -0.4 -3 -2.3 -6.7 -4.2 -3.8 -1.9 -8.7 -4.6 -10.9 -6.1 -2.3 -1.6 -4.9 -2.8 -5.8 -2.8 -0.9 0 -1.6 -0.4 -1.6 -0.8 0 -0.8 -9.8 -6.2 -11.2 -6.2 -0.3 0 -3 -1.6 -5.9 -3.5 -3 -1.9 -6 -3.5 -6.8 -3.5 -0.8 0 -2.2 -0.6 -3 -1.4 -1.8 -1.6 -13.4 -8 -31.6 -17.6 -2.7 -1.4 -6.9 -3.9 -9.3 -5.4 -2.4 -1.5 -5 -3 -5.8 -3.3 -0.8 -0.3 -4.4 -2.5 -8.1 -4.9 -3.6 -2.4 -7 -4.1 -7.5 -3.8 -0.4 0.3 -0.8 0.1 -0.8 -0.4 0 -1 -10.1 -6.8 -11.2 -6.4 -0.5 0.1 -0.8 -0.2 -0.8 -0.7 0 -0.5 -2.6 -2.2 -5.7 -3.7 -3.2 -1.6 -7.7 -4.1 -9.9 -5.6 -2.3 -1.6 -4.7 -2.8 -5.3 -2.8 -0.5 0 -3.6 -1.8 -6.7 -4 -3.2 -2.2 -6.1 -4 -6.6 -4 -0.5 0 -1.8 -0.8 -2.9 -1.8 -1 -1.1 -3.2 -2.5 -4.7 -3.3 -1.5 -0.7 -4.3 -2.5 -6.2 -3.9 -1.9 -1.4 -4.8 -3.2 -6.5 -4 -1.6 -0.8 -3.6 -2.1 -4.3 -2.8 -0.8 -0.6 -3.6 -2.2 -6.3 -3.3 -2.7 -1.2 -4.9 -2.5 -4.9 -2.9 0 -0.4 -0.8 -1 -1.7 -1.4 -1 -0.3 -4 -1.9 -6.8 -3.5 -2.7 -1.6 -7.2 -4.1 -9.9 -5.6 -2.6 -1.4 -6.6 -4 -8.9 -5.6 -2.2 -1.6 -4.6 -2.9 -5.2 -2.9 -0.7 0 -1.8 -0.7 -2.6 -1.6 -0.7 -0.9 -4 -2.9 -7.3 -4.6 -3.4 -1.7 -7.6 -4.2 -9.4 -5.6 -1.8 -1.4 -3.5 -2.3 -3.7 -2 -1.3 1.3 -0.6 55.4 0.8 57.5 0.4 0.7 0.7 13.7 0.7 29 -0.1 15.3 0.2 31.7 0.6 36.6 0.4 5.4 0.3 8.7 -0.3 8.7 -0.5 0 -0.8 1.3 -0.5 2.9 0.8 5.3 -3.5 15.6 -8.9 21.5 -6.8 7.5 -12.9 10.1 -23.9 10.1 -7.3 0 -9.2 -0.4 -13.5 -2.7 -6.2 -3.2 -13 -10.4 -15.8 -16.6 -2.3 -5.2 -2.5 -7.7 -4.7 -94.7 -1.1 -46 -1.1 -46 -2.6 -47.5 -0.7 -0.7 -11.2 5.1 -31 17.1 -16.4 10 -40.7 24.5 -53.9 32.2 -13.2 7.7 -24.2 14.3 -24.5 14.7 -0.3 0.4 -1.3 0.9 -2.2 1.3 -1 0.3 -14.5 8.2 -30 17.5 -15.6 9.2 -33 19.5 -38.8 22.7 -5.8 3.3 -10.9 6.5 -11.3 7.2 -0.4 0.7 -1.6 1.3 -2.5 1.3 -0.9 0 -3 0.8 -4.7 1.8 -1.6 1 -5.7 3.4 -9 5.2 -3.3 1.8 -6.2 3.6 -6.5 3.9 -0.3 0.3 -3.2 1.9 -6.4 3.6 -3.2 1.6 -7.3 3.9 -9.1 5 -1.7 1.2 -4.3 2.5 -5.8 2.9 -1.4 0.3 -3.4 1.4 -4.4 2.4 -1 1 -5.8 3.7 -10.8 6 -4.9 2.3 -12.1 5.7 -16 7.6 -18.7 9 -24.4 10.6 -38.6 10.6 -10 0 -12.2 -0.8 -16.4 -5.8 -2.7 -3.2 -3 -4.2 -3 -10.7 0 -6.6 0.3 -7.5 4.4 -14 4.3 -6.9 20.4 -23.5 22.8 -23.5 0.7 0 1.6 -0.6 2 -1.4 0.4 -0.7 2.6 -2.5 4.8 -4 4.1 -2.7 9.4 -6.6 15.4 -11.4 1.8 -1.5 4.1 -3.1 4.9 -3.6 0.9 -0.5 3.8 -2.6 6.6 -4.7 2.8 -2.2 5.5 -3.9 5.9 -3.9 0.4 0 1.6 -0.8 2.7 -1.7 1 -1 3.6 -2.7 5.7 -3.8 2.1 -1.1 4 -2.2 4.3 -2.6 0.3 -0.3 2.8 -1.9 5.5 -3.4 2.8 -1.6 5.2 -3.2 5.5 -3.5 1.4 -1.8 43.8 -28.3 51 -32 2.5 -1.2 4.7 -2.6 5 -3 0.3 -0.4 3.2 -2.3 6.5 -4.2 3.3 -2 11.2 -6.8 17.5 -10.7 6.3 -3.9 13.3 -8.1 15.5 -9.2 2.2 -1.2 4.2 -2.5 4.5 -2.9 0.5 -0.7 31.8 -20 32.5 -20 0.2 0 2.7 -1.6 5.6 -3.5 3 -1.9 5.9 -3.5 6.5 -3.5 0.7 0 1.4 -0.4 1.6 -0.8 0.3 -0.8 20.4 -13.2 21.4 -13.2 0.2 0 2.8 -1.5 5.7 -3.3 5.6 -3.5 6.4 -4 14.7 -8.8 8.1 -4.8 44 -29 44 -29.8 0 -0.3 0.1 -28 0.1 -61.6 0.1 -33.5 0.6 -81.7 1.1 -107 1 -47.4 0.3 -69 -2.3 -70.5 -0.7 -0.5 -6.4 -1.1 -12.8 -1.4 -6.4 -0.4 -26.2 -1.5 -44.1 -2.6 -17.9 -1.1 -39.7 -2.2 -48.5 -2.5 -8.8 -0.3 -34.9 -1.2 -58 -2 -44.5 -1.6 -94.6 -2.8 -183.5 -4.6 -53.8 -1.1 -78.1 -0.6 -98.5 2.1 -3.8 0.5 -11.5 0.9 -17 0.9 -9.3 0.1 -10.4 -0.1 -15.1 -2.8 -7.7 -4.5 -11 -8.7 -12.3 -16.2 -0.6 -3.5 -1.5 -26.2 -2.1 -50.4 -0.5 -24.2 -1.2 -48 -1.5 -53 -0.3 -4.9 -0.7 -27.4 -1 -50 -0.3 -22.5 -1.5 -58.3 -2.5 -79.5 -3 -58.7 -3.9 -79.7 -5 -127.5 -2.4 -103.8 -3.1 -128.4 -4 -152 -1.4 -34.8 -4.8 -108.6 -5.9 -129 -0.6 -9.4 -0.7 -23.1 -0.2 -30.5 0.4 -7.4 0.5 -13.9 0.3 -14.4 -0.3 -0.5 -5.6 -0.5 -12.6 0 -6.7 0.5 -16.2 0.9 -21.1 0.9 -8.8 0 -9.2 -0.1 -14 -3.5 -7 -5 -9.4 -10.2 -10.3 -22.7 -0.4 -5.4 -0.7 -31.6 -0.7 -58.3 0.1 -38.9 0.5 -51.2 1.8 -62 2 -16.3 2.2 -23.7 0.5 -24.2 -1.9 -0.7 -1.8 -17.6 0.1 -18.7 0.7 -0.5 1 -1.4 0.7 -2 -0.4 -0.6 -0.3 -1.1 0.2 -1.1 0.5 0 1.7 -1.8 2.7 -4 1 -2.2 2.2 -4 2.6 -4 0.5 0 1.5 -1.5 2.3 -3.4 1.1 -2.5 2.4 -3.7 5.3 -4.6 2.1 -0.7 4.3 -1.6 4.8 -2 0.6 -0.4 2.9 -1.4 5.1 -2.3 5.7 -2.2 13.8 -2.2 43.4 -0.2 3.6 0.3 62.5 0.8 131 1.1 147.8 0.8 328.6 -1.2 331.6 -3.7 0.6 -0.5 1.7 -3 2.4 -5.4 1.3 -4.6 8 -16 13.5 -22.8 2.8 -3.5 14.2 -13.7 24.5 -21.8 10.7 -8.5 27.4 -17.4 42.3 -22.6 26.2 -9.1 46.6 -10.4 74.2 -4.8 15 3.1 35.4 13.7 46.2 24.1 5.3 5.1 16.3 18.9 16.3 20.5 0 0.5 1 2.6 2.3 4.7 2.6 4 5.2 12.9 6.2 20.7 1.1 9 -7.7 8.1 88.5 9 47 0.5 149.6 0.9 228 1 92.3 0.2 147.1 0.6 155.5 1.3 7.2 0.6 18.6 1.4 25.5 1.7 6.9 0.3 14.2 1 16.4 1.6 5.2 1.4 12.6 8.6 16 15.6 3.1 6.1 3.2 6.9 5.6 46.3 0.6 9.6 1.9 26.1 3 36.5 1.1 10.5 2.5 29.2 3 41.8 1 24.2 2.1 35.7 4.6 50.2 0.9 5 1.3 11 1 13.4 -1.1 8.4 -7.5 16.2 -16.8 20.4 -4.5 2.1 -7.7 2.1 -15.1 0.2 -7.2 -1.9 -53.1 -2.2 -54.3 -0.4 -0.3 0.6 -1.2 19.8 -2 42.7 -0.7 23 -2 57.9 -2.9 77.7 -0.8 19.8 -2 57.2 -2.5 83 -0.9 44.5 -2.7 99.9 -4.9 151 -0.6 12.7 -1.3 35.2 -1.6 50 -1.2 58 -2.9 99.4 -4 98.3 -0.2 -0.1 -0.5 -1.6 -0.8 -3.3 -0.8 -4.3 -5.4 -24.3 -8.3 -35.9 -5.4 -21.2 -14.2 -43 -23.9 -59.1 -2.9 -4.9 -6.9 -11.7 -8.8 -15 l-3.4 -6 0.8 -20 c0.4 -11 1.3 -33.3 1.9 -49.5 2.1 -58.8 3.1 -83.1 4.5 -113.5 0.9 -17 2.2 -49.4 3 -72 0.8 -22.5 1.9 -50.2 2.4 -61.5 0.6 -11.3 1.3 -31.2 1.7 -44.2 l0.7 -23.7 -3.4 -0.5 c-1.9 -0.3 -24.8 -0.7 -50.9 -1 -26.1 -0.3 -65.9 -1 -88.5 -1.6 -55.4 -1.4 -168.4 -3.7 -268.5 -5.5 -77.3 -1.3 -110 -2.1 -119.5 -3 -2.2 -0.2 -19.5 -0.6 -38.5 -1 -79.9 -1.4 -135.2 -2.6 -161 -3.5 -51.5 -1.9 -205.3 -3.9 -268.5 -3.5 -61.3 0.3 -77.1 0.8 -78.9 2.5 -0.4 0.5 0.1 6.8 1.2 14.2 1.7 10.6 2.2 20.2 2.7 47.8 0.8 47.8 2.1 86.2 5.5 159.5 1.6 34.7 3.4 74 4 87.5 0.6 13.5 1.5 30.4 2 37.5 1.9 24.8 2.9 52.2 3.5 92 0.7 44.5 1.8 71.2 4 98 0.8 9.9 2.1 34 3 53.5 2.4 57.2 3.6 74 5.4 75 6.7 3.5 81.3 7.9 179.6 10.5 12.1 0.3 38 1.2 57.5 2 34.6 1.4 70.4 2 182.5 3 30.3 0.3 60 0.7 66 1 6.1 0.3 36.4 0.7 67.5 1 51.9 0.6 81.1 1.2 81.5 1.8 0.1 0.1 2.6 4.3 5.5 9.2 2.9 5 8.7 13.9 12.7 19.8 4.1 6 7.3 11 7.1 11.1 -0.8 0.6 -134.5 -4.9 -148.4 -6.1 l-7.1 -0.6 -0.7 11.9 c-0.6 11.1 -0.2 20.8 2.3 53.9 0.6 7.2 1.5 21.3 2.1 31.5 0.6 10.2 1.5 24.1 2 31 1.4 17.6 2.8 50.4 3.5 78 0.3 12.9 0.8 28.2 1.1 34 0.5 10.3 0.5 10.6 3.7 13.4 1.8 1.5 4.9 3.5 7.1 4.4 2.1 0.8 8.4 3.9 14 6.9 5.5 2.9 12.8 6.7 16.1 8.3 3.3 1.6 7.1 3.6 8.5 4.4 1.4 0.9 4.8 2.6 7.5 4 2.8 1.3 7.9 4 11.5 5.9 3.6 2 9 4.9 12 6.5 3 1.6 10.5 5.7 16.5 9.1 6.1 3.3 11.4 6.1 11.9 6.1 1.3 0 19 8.7 28.1 13.8 20.5 11.4 23 12.8 35 19.2 17.4 9.3 23.1 12.4 26 13.8 1.7 0.8 4.1 2.3 5.5 3.3 1.4 0.9 5.3 3.2 8.5 5 3.3 1.8 7.1 4 8.4 5.1 1.3 1 2.7 1.8 3.1 1.8 0.4 0 5.1 2.6 10.4 5.8 5.4 3.1 12.1 7.1 15 8.7 3 1.7 6 3.5 6.8 4.2 0.8 0.7 2.3 1.6 3.4 2 1 0.4 6.3 3.3 11.7 6.3 22.3 12.5 20.8 11.7 35.2 18.6 9.9 4.7 31.6 19.2 38.3 25.7 2.4 2.3 6 6.9 8 10.2 3.4 5.6 3.7 6.5 3.7 14 -0.1 4.6 -0.6 9 -1.4 10.3 -6 10.9 -22.9 19.6 -32.1 16.5z m294.8 -1236 c1.3 -2.4 -1 -19.6 -2.8 -22 -0.8 -1 -5.8 -6.8 -11 -13 -5.2 -6.1 -15.1 -17.8 -22 -25.9 -6.9 -8.1 -19 -22.5 -27 -31.8 -8 -9.4 -16.7 -20 -19.3 -23.6 -2.7 -3.6 -5.5 -7.3 -6.2 -8.2 -1.3 -1.6 -3.6 -1.8 -20 -1.8 -10.2 0 -18.5 0.3 -18.5 0.8 0 0.4 2.4 3.4 5.3 6.8 5.8 6.7 14.3 17.1 30.9 37.9 13.7 17.3 14.2 17.8 28.4 35 6.3 7.7 13 15.8 14.7 17.9 3.9 4.8 14.4 17.5 19.8 23.8 l4 4.7 10.2 0.4 c5.6 0.1 10.7 0.4 11.4 0.5 0.7 0.1 1.6 -0.6 2.1 -1.5z m-105.8 -1.6 c0 -0.7 -1.9 -3.6 -4.2 -6.4 -2.4 -2.8 -5.9 -7.1 -7.8 -9.4 -1.9 -2.4 -9.6 -11.6 -17 -20.5 -7.4 -8.9 -17.1 -20.6 -21.5 -25.9 -9.3 -11.3 -18 -21.9 -27 -32.7 -7 -8.2 -14 -17.1 -19.4 -24.3 -1.8 -2.5 -4.1 -4.5 -5 -4.6 -5.3 -0.3 -39.5 0.2 -39.9 0.6 -0.3 0.2 0.8 1.9 2.4 3.8 1.6 1.8 4.8 5.5 7.1 8.2 11.9 14.1 40.7 48.2 47.3 56 4.1 4.9 11.8 13.9 17 20 5.2 6.2 11.1 13.2 13 15.6 1.9 2.4 6.6 7.9 10.3 12.1 l6.8 7.8 16.2 0.3 c8.9 0.1 17.4 0.4 19 0.5 1.7 0.1 2.7 -0.3 2.7 -1.1z m65.3 0.6 c0.3 -0.5 -2 -3.5 -4.9 -6.8 -3 -3.3 -13.5 -15.2 -23.2 -26.5 -9.7 -11.3 -25.6 -29.6 -35.2 -40.7 -23.3 -26.9 -35 -41.4 -39.6 -49 -1 -1.6 -3.1 -1.8 -23.9 -2.1 -14.5 -0.2 -22.6 0 -22.4 0.7 0.2 0.5 4.5 6 9.4 12.1 11 13.6 13.9 17.3 19 24 2.2 2.9 6.9 8.9 10.5 13.4 3.6 4.4 7.3 9.2 8.3 10.6 1 1.4 3.4 4.6 5.5 7.1 8.7 10.7 19.9 24.6 22.4 27.9 2.9 3.7 5.9 7.4 17.2 21.4 l6.9 8.6 24.8 0 c13.6 0 25 -0.3 25.2 -0.7z m-283.1 -2.1 c0.3 -1 -0.4 -3 -1.6 -4.4 -1.2 -1.4 -7.5 -9.2 -14.1 -17.3 -6.6 -8.1 -14.5 -17.8 -17.5 -21.5 -23.8 -29 -21.1 -25.6 -32.4 -40.6 -8.4 -11.1 -11.7 -15.7 -18.9 -25.9 l-6.3 -9 -11.5 0 c-6.2 0 -11.7 -0.4 -12 -0.8 -0.7 -1 -3.9 0.2 -3.9 1.4 0 0.5 2.2 3.8 4.8 7.2 9.8 12.6 20.9 27.6 28.2 38.1 4.1 5.9 9.1 12.9 11 15.5 1.9 2.7 5.1 7.2 7 10 1.9 2.8 5.1 7.3 7 10 1.9 2.7 5.1 7.2 7 10 1.9 2.8 5.2 7.4 7.2 10.3 2.1 2.9 4.8 6.8 6 8.6 6.5 9.5 5.8 9.1 17.6 9.5 5.9 0.1 13.2 0.4 16.3 0.5 4.7 0.2 5.7 -0.1 6.1 -1.6z m56.8 0.5 c0 -0.7 -1.7 -3.3 -3.7 -5.9 -5.1 -6.2 -17.1 -21.4 -20.5 -25.8 -7.1 -9.3 -32.2 -40.8 -39.4 -49.4 -5.6 -6.8 -26.9 -34.9 -28.3 -37.5 -0.8 -1.3 -3.2 -1.7 -12.3 -2.1 -6.2 -0.3 -11.7 -0.3 -12.3 -0.1 -0.5 0.3 -3.7 0.7 -6.9 0.8 -3.3 0.1 -6.3 0.6 -6.7 1 -0.4 0.4 2.7 5.2 6.9 10.5 12.7 15.9 22.4 29 33.7 44.9 2.8 4 5.5 7.7 6 8.3 0.6 0.6 2.2 2.7 3.5 4.6 1.3 1.9 3.2 4.4 4.2 5.5 1 1.1 4 5.2 6.8 9 2.8 3.9 5.8 7.9 6.8 9 1 1.1 2.9 3.6 4.2 5.5 1.3 1.9 2.7 3.7 3 4 0.3 0.3 3.6 4.7 7.4 9.8 l6.9 9.2 20.4 0 c15.7 0 20.3 -0.3 20.3 -1.3z m47 0.4 c0 -0.5 -2.8 -4.3 -6.2 -8.4 -3.5 -4.1 -9.9 -11.9 -14.3 -17.2 -4.4 -5.3 -10.7 -13 -14 -17 -3.3 -3.9 -7.8 -9.4 -10 -12.1 -6 -7.2 -25.5 -31.7 -29.5 -37 -1.9 -2.6 -4.7 -6.1 -6.1 -7.8 -1.4 -1.7 -5 -6.7 -7.9 -11.1 -8.1 -12.2 -8 -12 -14.7 -11.7 -16.9 0.7 -20.4 0.9 -20.9 1.4 -0.5 0.5 5.7 9.4 7.5 10.8 0.3 0.3 4.8 6.1 10 13 5.1 6.9 10.4 13.9 11.7 15.5 4.5 5.8 19.5 25.9 31.8 42.5 4.2 5.8 8.5 11.6 9.6 13 9.3 12.3 18 24.9 18 26.1 0 0.5 7.9 0.9 17.5 0.9 9.8 0 17.5 -0.4 17.5 -0.9z m59 -0.6 c0 -1.3 -30.9 -37.1 -44.9 -52 -11.1 -11.9 -47.2 -53.3 -53.5 -61.6 -2.7 -3.5 -5.5 -6.9 -6.2 -7.5 -0.7 -0.5 -4.3 -0.9 -8.1 -0.7 -3.7 0.1 -10.5 0.3 -15 0.3 -9.3 0 -9.9 0.6 -5.7 5.5 1.4 1.7 7 8.9 12.4 16 10.3 13.6 14.3 18.8 24.4 31.8 3.4 4.4 7.2 9.4 8.6 11.2 7.4 9.7 18.5 24 19.9 25.5 0.9 1 3.2 3.9 5.1 6.5 5.7 7.6 17.8 22.9 19.6 24.8 1.6 1.5 4.1 1.7 22.6 1.7 17.7 0 20.8 -0.2 20.8 -1.5z m-307.7 -0.1 c0.9 -0.9 -0.3 -3 -9.7 -17.4 -4.5 -6.9 -11.3 -17.2 -15 -23 -3.7 -5.8 -9.4 -14.8 -12.8 -20 -10.7 -16.6 -27.7 -43.9 -30 -48.2 -5.6 -10.1 -4.8 -9.6 -17.8 -9.7 -10.9 -0.1 -17 0.7 -17 2.2 0 0.6 1.2 2.6 2.8 4.6 1.5 1.9 3.8 5.4 5.2 7.7 1.4 2.2 4.6 7.2 7.3 11 4.8 7.1 16.6 25.2 23.3 35.9 4.4 7.1 6.6 10.5 12.8 20.3 2.5 4 4.6 7.7 4.6 8.2 0 0.4 1 2.1 2.3 3.7 2.2 2.6 4.5 6.2 10.7 16.6 5.3 8.9 4.9 8.7 19.6 8.7 7.2 0 13.4 -0.3 13.7 -0.6z m41.2 -0.4 c0.8 -1.3 -3.3 -8.3 -12.5 -21.5 -1.2 -1.6 -4.9 -7.3 -8.2 -12.5 -19.2 -29.9 -23.8 -37.2 -23.8 -37.7 0 -0.3 -1 -2 -2.3 -3.7 -1.3 -1.7 -3.5 -5.1 -4.8 -7.6 -1.4 -2.5 -6.2 -10.6 -10.7 -18 -4.5 -7.4 -8.6 -14.2 -9.1 -15 -0.6 -1.2 -3.3 -1.6 -12.1 -1.8 -6.7 -0.2 -11.7 0.1 -12.3 0.7 -1.2 1.2 0 4 4.4 10.6 3.1 4.8 14.5 23.7 16.8 28 0.9 1.7 3 5.3 4.6 8 1.7 2.8 3.7 6.2 4.5 7.7 2.2 4.1 12.9 21.6 16.5 27.3 1.8 2.8 4 6.4 4.9 8 0.9 1.7 3.4 5.7 5.6 9 2.1 3.3 4.9 7.8 6.1 10 1.1 2.2 3.3 5.2 4.7 6.8 2.5 2.7 2.8 2.7 14.8 2.7 7.2 0 12.5 -0.4 12.9 -1z m58.9 -1 c-0.1 -1.3 -3.2 -5.7 -19.5 -27.4 -2.4 -3.2 -5.3 -7.1 -6.4 -8.6 -5.7 -7.8 -20.8 -27.2 -31.5 -40.5 -14.4 -17.9 -16.3 -20.4 -27.3 -35.5 l-3.3 -4.5 -12.9 -0.5 c-7.2 -0.3 -13.4 -0.2 -13.8 0.1 -0.4 0.3 0.2 1.7 1.3 3.1 1.1 1.5 2 2.9 2 3.3 0 0.4 1.6 2.9 3.5 5.5 1.9 2.6 3.5 5.1 3.5 5.5 0 0.4 1.7 3.4 3.8 6.6 4.2 6.6 7.1 11.3 12.9 21.4 2.2 3.9 5 8.6 6.1 10.5 1.2 1.9 3.3 5.5 4.7 8 1.4 2.5 4.6 7.7 7 11.5 2.5 3.9 5.6 9.3 7.1 12 1.5 2.8 3 5.2 3.3 5.5 0.4 0.3 2.2 3 4 6 13 22.1 9.5 20.1 34.5 19.8 18.1 -0.3 21.1 -0.5 21 -1.8z m-501 0.1 c0.3 -0.5 -0.7 -2.6 -2.2 -4.7 -1.6 -2.2 -4.6 -6.4 -6.7 -9.4 -2.1 -3 -5.2 -7.3 -6.7 -9.5 -10.7 -15.1 -17.2 -24.5 -19.4 -28 -4.3 -6.6 -6.7 -10.3 -17.8 -27.2 -5.8 -8.9 -13.2 -20.8 -16.3 -26.4 -3.7 -6.4 -6.6 -10.4 -8.1 -11 -1.3 -0.5 -8.6 -0.9 -16.3 -0.9 -11.1 0 -14.1 0.3 -14.5 1.4 -0.5 1.4 1.8 6.8 4.1 9.6 0.7 0.8 2.3 3.5 3.7 6 1.3 2.5 3.7 6.5 5.3 9 1.6 2.5 4.6 7.2 6.7 10.5 2.1 3.3 4.7 7.4 5.8 9 1.2 1.7 5.9 8.9 10.5 16 4.6 7.2 9.2 14.1 10.3 15.5 1 1.4 2.7 4.1 3.7 6 1 1.9 2.6 4.6 3.7 6 3.8 5.1 9.1 13.7 13 21.3 l4.1 7.7 18.3 0 c10 0 18.5 -0.4 18.8 -0.9z m45 0.1 c0.5 -0.9 -0.3 -2.1 -19.4 -29.1 -11.8 -16.7 -43.2 -63.4 -53.4 -79.4 -2.6 -4.1 -5.4 -7.8 -6.1 -8.1 -2.1 -0.8 -30 -1 -30.3 -0.2 -0.2 0.4 2 4.1 5 8.3 2.9 4.1 6.4 9.2 7.8 11.4 5.9 9.1 24.6 36.5 25.8 37.7 0.6 0.8 1.7 2.3 2.3 3.5 0.6 1.2 3.9 6.5 7.3 11.7 3.4 5.2 6.6 10.3 7.1 11.2 0.6 0.9 2.2 3.4 3.6 5.5 1.4 2.1 4.1 6.3 6 9.3 2 3 5.5 8.5 7.9 12.3 l4.4 6.7 15.7 0 c8.7 0 16 -0.4 16.3 -0.8z m41.5 -0.6 c0.9 -1 0.7 -1.7 -0.5 -2.7 -0.9 -0.8 -2.6 -2.8 -3.8 -4.5 -1.1 -1.7 -4.1 -5.8 -6.6 -9 -6 -7.8 -21.2 -30.2 -38.2 -56.4 -6.5 -9.9 -18.9 -31.5 -22.1 -38.2 -1.2 -2.5 -3.1 -4.9 -4.2 -5.2 -1.1 -0.3 -8.4 -0.6 -16.2 -0.6 -14 0 -16.5 0.6 -14.1 3.5 0.5 0.5 4 5.7 7.8 11.5 3.8 5.8 11.2 16.8 16.5 24.5 19 28 33 48.6 34 50.3 3.7 6.1 15.3 23.2 17.4 25.5 2.5 2.7 2.5 2.7 15.7 2.7 9.9 0 13.4 -0.3 14.3 -1.4z m43.7 0.2 c0.4 -0.4 -0.4 -2.5 -1.8 -4.5 -7.3 -11.2 -18.6 -29.2 -31.5 -50.1 -7.2 -11.7 -20.9 -35.3 -27.8 -48 -4.8 -8.7 -7.5 -12.6 -9.2 -13.3 -2.8 -1 -32.6 -1.3 -33.6 -0.2 -0.4 0.3 -0.1 1.3 0.6 2.2 0.8 0.9 3.8 5.7 6.7 10.6 2.9 5 8.7 14.2 12.8 20.5 4.1 6.3 9.2 14.2 11.3 17.5 2.1 3.3 5.3 8 7 10.5 1.7 2.5 5.8 8.8 9.1 14 3.4 5.2 7.8 12 9.8 15 2 3 4.3 6.9 5.2 8.5 4.1 7.9 8.2 15.1 9.4 16.5 1 1.2 4.2 1.5 16.2 1.5 8.3 0 15.4 -0.3 15.8 -0.7z m41.1 0.1 c0.9 -0.9 0.2 -2.6 -2.4 -6.8 -2 -3.1 -4.6 -7.2 -5.8 -9.1 -1.2 -1.9 -3.9 -6.2 -6 -9.5 -2.1 -3.3 -5.4 -8.5 -7.3 -11.5 -3.9 -6.1 -4.8 -7.5 -20.9 -31.3 -6.2 -9.2 -11.3 -17 -11.3 -17.4 0 -0.3 -1 -2 -2.3 -3.7 -1.3 -1.7 -4.7 -7.4 -7.7 -12.6 -2.9 -5.2 -5.9 -10.5 -6.7 -11.7 -1.3 -2.2 -2 -2.3 -12.2 -2.3 -5.9 0 -11 0.3 -11.3 0.6 -0.5 0.5 2 5.1 10.9 19.7 5.9 9.7 13.8 23.9 45.2 81.3 3.7 6.7 7.3 12.9 8 13.8 1.1 1.3 3.6 1.6 15 1.6 8.8 0 14.1 -0.4 14.8 -1.1z m38.8 0.1 c0.7 -1.2 -4.8 -9.5 -17 -25.6 -6 -8.1 -17.3 -24.6 -23.4 -34.4 -4 -6.6 -7.3 -11.7 -17.3 -27 -4.1 -6.3 -9.3 -14.4 -11.6 -18 -7.4 -11.9 -6.1 -11 -16.2 -11 -10.1 0 -10.6 0.5 -6.5 6.1 1.3 1.9 3.6 5.7 5.1 8.4 1.4 2.8 3.2 5.7 3.9 6.5 1.4 1.6 1.5 1.8 11.9 20 3.6 6.3 7.3 12.9 8.3 14.5 0.9 1.7 4.5 8 7.8 14 3.4 6.1 8.4 14.8 11 19.5 2.7 4.7 5.9 10.5 7.2 13 1.4 2.5 3.2 5.9 4.2 7.5 0.9 1.7 2.2 4 2.9 5.3 1.2 2.1 1.8 2.2 15.2 2.2 7.8 0 14.1 -0.4 14.5 -1z m46.9 0.2 c0.3 -0.5 -2.3 -4.8 -5.7 -9.8 -3.5 -4.9 -7.1 -10.3 -8.2 -12.1 -1.1 -1.7 -4.5 -6.9 -7.6 -11.5 -3.1 -4.6 -8.2 -12.3 -11.4 -17.3 -10.9 -17 -16.8 -26 -19.7 -30.2 -1.5 -2.3 -2.8 -4.4 -2.8 -4.8 0 -0.3 -1.9 -3.4 -4.2 -6.8 -5.2 -7.7 -6.5 -9.8 -10.8 -16.9 -1.8 -3.2 -3.9 -5.9 -4.6 -6.2 -1 -0.4 -29.5 -1 -32.6 -0.7 -0.5 0.1 2.4 4.7 6.3 10.4 7.4 10.7 13.4 19.5 15.9 23.2 6.9 10.4 10.2 15.2 11.2 16.4 0.7 0.8 2.7 3.6 4.3 6.2 3.9 6.1 9.1 13.9 10.4 15.9 0.6 0.8 3.9 6 7.3 11.5 3.5 5.5 6.5 10.2 6.9 10.5 0.3 0.3 1.9 2.8 3.5 5.5 1.5 2.8 3.4 5.6 4.1 6.3 0.8 0.8 2.1 2.8 2.9 4.5 3.4 6.8 3.3 6.7 19.5 6.7 8.1 0 15 -0.4 15.3 -0.8z m52.1 -0.3 c0.6 -0.9 -28.5 -45.2 -38 -57.9 -5.5 -7.4 -21.8 -31.8 -28.8 -43 -10 -16.2 -7.8 -15 -26.7 -15 -17.5 0 -17.6 0.1 -13.7 5.6 1.2 1.7 5 7.3 8.4 12.5 3.4 5.2 7 10.5 8.1 11.9 1 1.4 4.5 6.8 7.6 12 3.2 5.2 8.1 13.2 10.9 17.7 2.9 4.5 7 11.1 9.2 14.8 2.2 3.6 5.8 9.5 8 13 2.2 3.6 5.1 8.4 6.5 10.7 1.4 2.3 4.7 7.4 7.3 11.5 l4.8 7.3 17.9 0 c11.5 0 18.1 -0.4 18.5 -1.1z m47.8 0.5 c0.3 -0.3 -3.6 -6.8 -8.7 -14.3 -5.1 -7.5 -16.6 -24.6 -25.5 -38.1 -9 -13.5 -17.6 -26.4 -19.2 -28.8 -1.6 -2.3 -2.9 -4.5 -2.9 -4.8 0 -0.3 -1.5 -2.6 -3.2 -5.2 -1.8 -2.6 -5.4 -8.3 -8 -12.7 -8.1 -13.9 -5.4 -12.5 -24.3 -12.5 -9.1 0 -16.5 0.3 -16.5 0.8 0 0.9 4 7.5 4.9 8.2 0.4 0.3 3.5 4.6 6.9 9.5 3.4 5 6.9 9.9 7.7 11 0.9 1.1 4 5.8 7 10.5 3 4.7 5.9 9 6.4 9.6 0.4 0.5 1.4 2.1 2.1 3.5 1.2 2.2 18.4 30.2 25.5 41.4 1.8 2.8 5 7.9 7.3 11.5 7.8 12.3 5 11 23.6 11 8.9 0 16.5 -0.3 16.9 -0.6z m-453 -1 c0.9 -1 -0.8 -3.8 -9.2 -14.9 -8.2 -11 -13.9 -18.8 -16.2 -22.2 -0.8 -1.2 -5.2 -7.9 -9.9 -15 -9.6 -14.3 -12.5 -19.1 -23 -37.8 -4 -7.1 -8.6 -15.1 -10.2 -17.8 -1.5 -2.6 -2.8 -5.2 -2.8 -5.7 0 -2.3 -5.6 -3.1 -15.7 -2.5 -5.7 0.4 -10.3 1 -10.3 1.4 0 0.6 3 5.6 6.4 10.7 2.9 4.4 9.9 15.2 14.5 22.4 2.3 3.6 4.9 7.6 5.9 8.9 0.9 1.3 2.6 3.8 3.7 5.6 1.1 1.8 2.9 4.6 3.9 6.1 4.9 7.5 9.7 15.1 20.2 32.4 7.9 13.1 18 27.3 19.8 28 2.4 1 22 1.3 22.9 0.4z m42.7 -0.1 c0 -0.5 -1 -2.8 -2.3 -5.3 -2.9 -5.6 -4.2 -7.7 -25.3 -40.2 -9.9 -15.3 -14.1 -21.8 -21.5 -34.1 -6.4 -10.5 -10 -16.9 -14.8 -25.8 -3.6 -6.7 -5.8 -9.9 -7.4 -10.3 -3.8 -1 -29.5 -0.7 -30.2 0.4 -0.4 0.6 1.5 4.2 4.2 8.1 7.6 11.2 12 18 14.8 22.9 1.4 2.5 3.3 5.6 4.4 7 1.7 2.3 4.2 6.3 13.7 21.8 2.2 3.5 5.3 8.5 7 11 1.6 2.6 5.4 8.8 8.3 13.7 2.9 5 7 11.7 9.2 15 2.2 3.3 5.1 8.4 6.5 11.3 l2.5 5.2 15.5 0 c8.5 0 15.4 -0.3 15.4 -0.7z m-77 -0.9 c0 -0.4 -3.9 -6.3 -8.8 -13.3 -4.8 -6.9 -11.7 -17.1 -15.3 -22.6 -3.6 -5.5 -13.1 -19.9 -21.1 -32 -8 -12.1 -17.6 -27.2 -21.4 -33.5 -3.8 -6.3 -7.3 -11.8 -7.9 -12.2 -1.4 -1 -35.3 -1 -35.9 0 -0.8 1.3 2.9 6.4 33.1 46 15.6 20.5 22.3 29.4 37.3 49.9 3.5 4.8 8 10.9 9.9 13.6 l3.5 4.7 13.3 0 c7.3 0 13.3 -0.3 13.3 -0.6z m-40 -1 c0 -0.3 -5.3 -7.1 -11.7 -15.1 -6.5 -8 -12.7 -15.7 -13.7 -17.2 -1.1 -1.4 -4.5 -5.5 -7.7 -9.1 -8.2 -9.5 -32.8 -42.4 -43.1 -57.7 l-8.9 -13.3 -17 0 c-19.2 0 -19.2 0 -13.4 7.2 7.8 9.8 19.6 25.3 25 32.9 1.1 1.5 7.4 9.8 14 18.4 11.5 15 23.1 30.4 27.8 37.1 1.2 1.7 4.4 6 7 9.5 l4.8 6.4 6.7 0.6 c9.3 0.8 30.2 1 30.2 0.3z m-52 -1.1 c-0.1 -1 -4.3 -6.5 -13 -17.1 -30.4 -36.9 -34.5 -42.3 -56.1 -74.1 l-12.5 -18.6 -11.5 -0.7 c-6.2 -0.4 -11.7 -0.4 -12.2 0.1 -0.7 0.7 1 3.4 10.8 17.1 1.1 1.5 3.6 5 5.5 7.6 5.2 7.4 9.9 13.7 11.8 15.9 1 1.1 2.9 3.6 4.2 5.5 3.9 5.6 40 52 45.1 58 1.2 1.3 2.8 3.5 3.6 4.7 1.4 2.2 2.2 2.3 12.9 2.3 6.3 0 11.4 -0.3 11.4 -0.7z m-31 -0.9 c0 -0.6 -1.6 -2.6 -16.3 -19.9 -23.9 -28.2 -40.1 -49.7 -58.9 -78.1 -7.1 -10.7 -8.1 -11.4 -16.3 -11.4 -4.1 0 -4.7 1.4 -3.5 8.2 0.5 2.9 1.2 8.1 1.5 11.4 0.7 6.5 1.4 7.9 8.5 16.9 2.5 3.1 5.6 7.1 7 9 5.4 7.2 15.8 20.2 21.5 26.9 3.3 3.9 6.7 8 7.5 9.2 4.8 6.7 18.9 25.1 20.1 26.1 0.8 0.6 3.2 1.3 5.4 1.6 6.6 0.6 23.5 0.7 23.5 0.1z m-45 -2.8 c0 -0.7 -3.2 -4.9 -7.1 -9.2 -3.9 -4.4 -9 -10.3 -11.3 -13.3 -2.2 -3 -5.5 -7.3 -7.3 -9.5 -1.8 -2.3 -5.6 -7.4 -8.5 -11.4 -9.2 -12.7 -11.5 -15.3 -12.2 -13.6 -0.3 0.9 -0.3 5.5 0 10.2 0.6 7.9 1 9.3 4.5 14.7 7.2 11.2 21.3 30.4 23.7 32.3 2.3 1.8 18.2 1.7 18.2 -0.2z m-31 -7.8 c-7.4 -8.7 -12.3 -13.8 -13.2 -13.8 -0.4 0 -0.8 3.8 -0.8 8.4 0 6.5 0.4 8.7 1.6 9.7 2 1.6 15.5 3.9 16.8 2.8 0.5 -0.5 -1.5 -3.6 -4.4 -7.1z m1190 -49.3 c-1.1 -10.5 -2.2 -19.9 -2.5 -21.1 -0.2 -1.1 -3.1 -5.4 -6.2 -9.5 -8.4 -10.9 -9.8 -12.7 -14.8 -20 -2.5 -3.7 -5.5 -6.9 -6.7 -7.2 -1.2 -0.3 -8.1 -0.3 -15.5 0 -9.8 0.5 -13.3 0.9 -13.3 1.9 0 0.7 1.7 3.3 3.8 5.7 2 2.4 7.3 9 11.7 14.6 11 14.1 13.9 17.8 22.3 28.4 4.1 5.1 8.6 10.7 10 12.6 1.5 1.8 4.2 5.1 6 7.4 1.8 2.2 3.8 4.9 4.3 6 2.5 4.5 2.7 -0.8 0.9 -18.8z m-7 -56.3 c0 -1.3 -1.2 -2.2 -2.2 -1.6 -1 0.6 -0.1 2.4 1.3 2.4 0.5 0 0.9 -0.4 0.9 -0.8z m-521.6 -63.7 c1.9 -1.4 1.9 -1.6 -0.8 -9.7 -5.9 -17.9 -19.9 -29.3 -43.4 -35.3 -14.8 -3.7 -33.3 -3.3 -50.7 1.1 -15.7 3.9 -39.8 17 -47.6 25.9 -9.9 11.2 -15 18 -14.2 18.9 0.4 0.3 35.3 0.6 77.7 0.6 65.7 -0.1 77.4 -0.3 79 -1.5z"/>
  <path d="M1374.5 1205.3 c-4.5 -5 -3.9 -4.3 -11.8 -13.8 -3.3 -3.9 -6.7 -8 -7.8 -9.3 -2.7 -3.2 -2.5 -4.3 2.6 -12.2 6.3 -9.6 16.4 -29.7 21.5 -42.7 6.2 -15.7 7.4 -16.3 6.6 -3.8 -3.5 55.6 -5.4 80.1 -6.4 83.6 l-0.7 2.7 -4 -4.5z"/>
  <path d="M360 1124.3 c-4.2 -1.5 -5.6 -9.6 -2.2 -12.6 4.4 -4 12.2 -0.9 12.2 4.7 0 5.5 -5.3 9.7 -10 7.9z"/>
  <path d="M381.6 1095.8 c-2.5 -3.5 -2 -8.3 1 -10.7 1.5 -1.2 3.4 -2.1 4.4 -2.1 1 0 2.9 0.9 4.4 2.1 3 2.4 3.5 6.7 1 10.4 -2.2 3.4 -8.6 3.5 -10.8 0.3z"/>
  <path d="M350.7 1086.2 c-2.1 -2.3 -2.2 -6.1 -0.1 -9 1.9 -2.8 7.4 -3 9.7 -0.4 2.2 2.5 2.1 7.5 -0.1 9.5 -2.5 2.2 -7.5 2.1 -9.5 -0.1z"/>
  <path d="M524.5 1067.9 c-0.7 -1.1 2.7 -1.6 6 -0.9 3 0.7 3 0.7 0.5 1.3 -3.1 0.7 -6 0.6 -6.5 -0.4z"/>
  <path d="M876 611.2 c-3.8 -0.6 -5 -2.1 -5 -6.3 0 -7.1 7.7 -9.2 9.9 -2.7 1.5 4.2 1.4 5.3 -0.6 7.5 -1.2 1.2 -2.7 1.8 -4.3 1.5z"/>
  <path d="M915.2 584.8 c-0.7 -0.7 -1.2 -2.9 -1.2 -4.9 0 -3.1 0.4 -3.8 3 -4.9 2.5 -1 3.4 -1 5.5 0.4 2.9 1.9 3.2 4.6 0.9 8.1 -1.8 2.7 -6.1 3.4 -8.2 1.3z"/>
  <path d="M873.4 560.4 c-3.7 -5.5 2.5 -11.6 8.4 -8.3 5.5 3 3.1 10.9 -3.3 10.9 -2.6 0 -3.9 -0.6 -5.1 -2.6z"/>
 </g>
 <g fill="#feeb10">
  <path d="M565.6 892.8 c-0.3 -1.2 -0.8 -8.4 -1.1 -15.8 -1 -21 -4.2 -59.4 -7 -82.5 -7 -57.8 -8.1 -69.8 -9 -104 -0.3 -12.1 -1.1 -27.6 -1.6 -34.4 -1.3 -15.8 -1.3 -15.8 9.8 -14.2 4.3 0.6 11.6 1.3 16.3 1.7 8.5 0.6 27.5 4.6 30.8 6.4 0.9 0.5 4.6 1.6 8.1 2.5 3.5 0.8 7.7 2.1 9.5 2.9 1.7 0.7 4.7 1.9 6.6 2.7 1.9 0.7 6.7 2.7 10.5 4.4 3.9 1.7 9 4 11.5 5 2.5 1 5.2 2.5 6.1 3.2 0.8 0.7 2 1.3 2.5 1.3 0.9 0 16.2 9.5 19.9 12.4 1.1 0.9 4.7 3.4 7.9 5.7 10.3 7.1 31.4 26.6 36.6 33.8 1.4 1.9 5.5 6.7 9.1 10.5 6.7 7.1 9.1 10.8 10.2 15.7 0.6 2.4 -0.1 3.2 -6.6 8 -8.1 5.9 -12.2 9.5 -25.3 21.8 -4.9 4.7 -11.2 10.4 -13.8 12.6 -6.5 5.4 -8.8 7.5 -17.6 15.9 -4.1 3.9 -11.8 10.7 -17 15 -5.2 4.4 -10.4 8.9 -11.5 10 -8.8 9.1 -41 33.5 -59.7 45.2 -2.6 1.6 -8.1 5.2 -12.1 8 -13.4 9.3 -12.5 8.9 -13.1 6.2z"/>
 </g>
</svg>