<?xml version="1.0" encoding="utf-8"?>
<!DOCTYPE svg PUBLIC "-//W3C//DTD SVG 1.0//EN" "http://www.w3.org/TR/2001/REC-SVG-20010904/DTD/svg10.dtd">
<svg version="1.0" xmlns="http://www.w3.org/2000/svg" width="1924px" height="1924px" viewBox="0 0 1924 1924" preserveAspectRatio="xMidYMid meet">
 <g fill="#2b3f45">
  <path d="M1043.3 1892.9 c-16.2 -1.4 -34.4 -6.8 -50.6 -15 -13.9 -6.9 -24.6 -14.7 -36.8 -26.9 -19.8 -19.8 -31.5 -40.2 -38.3 -66.8 -1.2 -5.1 -2.7 -9.7 -3.2 -10.2 -0.5 -0.5 -6.1 -1.8 -12.4 -3 -6.3 -1.2 -14.9 -3 -19 -4 -9.4 -2.4 -53.5 -11.2 -114.5 -23 -25.8 -4.9 -58.2 -11.5 -72 -14.5 -24.7 -5.4 -40.6 -8.5 -43 -8.5 -0.6 0 -2.5 3 -4 6.8 -18.2 43.5 -53 85 -93.5 111.4 -25.6 16.7 -55 28.8 -84.5 34.7 -17.7 3.5 -26.6 4.4 -44.5 4.4 -53 -0.2 -101 -17.6 -141.1 -51.1 -61.6 -51.6 -90.1 -138.1 -72.9 -221.2 18.6 -89 85.6 -162.3 168.1 -184 6.9 -1.8 12.9 -4.1 16.6 -6.4 7.9 -4.8 12.4 -6.3 25.4 -8.1 21.9 -3 54.5 -1.3 76.9 4.1 23.7 5.6 50.7 17.2 70.1 29.9 5.5 3.6 10.5 6.5 11.3 6.5 0.7 0 6.6 -5.1 13.2 -11.2 63.3 -59.5 102.7 -95.3 128.9 -117 6.6 -5.5 12.4 -10.6 12.9 -11.3 0.7 -0.9 -1.2 -4.1 -6.1 -10.6 -36.4 -48.5 -59.6 -104.3 -68.7 -164.9 -10.1 -66.9 1.3 -141.5 31 -203.9 3.5 -7.4 6.2 -13.6 6 -13.9 -0.3 -0.2 -3.8 -1.9 -7.8 -3.6 -19.8 -8.6 -37 -20.2 -150.8 -102 -28.3 -20.3 -62.3 -44.6 -75.4 -54 -13.2 -9.4 -26.7 -19.6 -29.9 -22.6 -5.9 -5.4 -10.7 -13.2 -10.7 -17.5 -0.1 -5.5 -1.6 -4.9 -11.6 4.5 -34.7 32.7 -77.4 53.4 -124.9 60.6 -13.7 2 -45.2 2.3 -58.5 0.5 -27 -3.7 -49.5 -10.3 -72.5 -21.5 -52.8 -25.6 -93.1 -69.7 -113.7 -124.5 -17.4 -46.2 -18.1 -97.2 -2.2 -145.1 12.6 -37.9 38.2 -75.5 67.8 -99.4 12 -9.7 21.3 -15.6 35.2 -22.3 6.9 -3.3 12.1 -6.5 13.2 -8 4.2 -6.1 10.7 -12.3 16 -15.1 11.9 -6.3 38.9 -13.2 59.7 -15.3 14.5 -1.4 42.9 -0.7 57 1.6 79.1 12.4 145.7 65.1 175.9 139 18.9 46.5 22.3 93.9 10.2 141.9 -5.6 21.8 -15.4 45 -27.1 63.9 -2.5 3.9 -4.5 7.5 -4.5 7.9 0 0.5 2.7 0.8 6 0.8 8.9 0 15 2.8 29.5 13.8 7.2 5.4 25.8 19.4 41.5 31.3 143.2 108 165.1 125.1 183.5 143.1 6.5 6.5 12.2 11.8 12.5 11.8 0.3 0 3 -3.5 6 -7.7 26.9 -38.9 68 -76.6 109.5 -100.6 4.4 -2.5 10.5 -6.7 13.5 -9.3 7.2 -6.2 10.6 -8.3 22 -13.4 32.3 -14.6 74.1 -26.2 108.5 -30.2 14.6 -1.7 63.8 -1.7 77.5 0 43.8 5.4 85.3 17.3 118.2 33.8 8.1 4.1 10.7 4.2 13.2 0.6 9.6 -13.4 28 -34.3 51.6 -58.7 8.5 -8.8 26.1 -27.7 39 -42 12.9 -14.3 43 -45.8 66.7 -70 23.8 -24.2 43.3 -44.4 43.3 -44.8 0 -0.4 -3.2 -5.6 -7.1 -11.5 -17.5 -26.4 -26.5 -53.4 -27.6 -83.4 -1.1 -29.4 5 -56.7 18.3 -81.7 2.4 -4.6 4.4 -8.9 4.4 -9.6 0 -3 -41.4 -38.3 -83.6 -71.2 -26.7 -20.9 -50.4 -41.2 -55.9 -47.9 -2 -2.4 -4.3 -4.4 -5.1 -4.4 -0.8 0 -4.1 1.8 -7.4 4 -13.4 9.1 -30.6 16.1 -49.4 20.2 -13.2 2.8 -37.4 3.1 -51.6 0.5 -52.7 -9.7 -92 -47.1 -102.6 -97.6 -2 -9.6 -2 -29.9 0 -40.2 5.1 -26.6 19.7 -51 38.9 -65.5 6.4 -4.8 16.6 -10.3 22.7 -12.3 2.1 -0.6 5.1 -2.9 7.1 -5.4 4.5 -5.3 11 -8.9 22.2 -12.1 33.4 -9.7 68.5 -6 100.9 10.6 30.3 15.5 53.5 43.7 62.3 75.8 2 7.2 2.8 12.8 3.2 23.1 1 23 -2.5 38.3 -13.5 59.3 l-5.7 10.8 3.2 2.7 c1.7 1.4 9.2 5.9 16.5 10 31.6 17.5 101.3 66.5 128.8 90.5 4.1 3.6 7.9 6.6 8.4 6.6 0.5 0 3.7 -1.7 7 -3.9 21 -13.2 43.8 -20.9 68.7 -23.1 9 -0.8 11.6 -1.4 17 -4.2 l6.4 -3.3 15 0.1 c16.9 0 27.8 1.9 46.2 8 36.7 11.9 68.6 36.3 90 68.4 19.4 29.1 29.6 67.9 26.4 100.8 -3.9 41.4 -20.2 75.1 -50.1 103.5 -28 26.6 -63.3 42 -105.5 45.9 -28.4 2.6 -61.2 -3.8 -89.1 -17.3 -5.5 -2.7 -10.5 -4.9 -11.1 -4.9 -0.6 0 -2.8 2.4 -5 5.3 -2.2 2.8 -20.4 21.9 -40.4 42.2 -20 20.4 -45.8 47.2 -57.3 59.5 -11.6 12.4 -34.5 36.2 -51.1 53 -29.9 30.3 -46.5 48.1 -46.5 49.9 0 0.6 5.3 5.4 11.8 10.8 66.3 55.3 110.5 132.7 125.1 218.8 5.6 32.7 5.8 75.9 0.6 110.5 -5.1 33.6 -14.3 64.8 -28.7 96.8 -3 6.6 -4.7 11.7 -4.2 12.2 0.5 0.4 5 2.6 9.9 4.7 15.2 6.6 60.1 35.6 98.5 63.6 8 5.9 15.3 10.7 16.2 10.7 0.9 0 3.2 -2.1 4.9 -4.7 7.1 -10.5 17.3 -22.4 29.1 -33.8 32.6 -31.9 71.2 -52.2 116.3 -61.4 37.3 -7.6 81.1 -3.5 111.4 10.5 7.2 3.3 7.5 3.4 17.1 2.8 12.1 -0.8 18.1 0.9 33 9.9 54.9 32.7 90.1 86.7 98 150.7 0.5 4.6 1 14.8 1 22.7 0 32.9 -7.3 64.1 -22.1 94.4 -11.3 23.1 -23.2 39.9 -41.2 58.6 -28.3 29.2 -63.6 50.3 -103.3 61.8 -71.1 20.6 -148.7 5.6 -203.7 -39.3 -10.1 -8.3 -29.1 -28.3 -36.1 -38.1 -34.6 -48.3 -45.5 -105.2 -32 -167 l1.9 -8.4 -2.3 -1.5 c-1.2 -0.8 -10 -7.4 -19.5 -14.6 -17.7 -13.6 -46 -34.1 -60.2 -43.6 -10.8 -7.2 -38.3 -26.7 -41.8 -29.7 -1.6 -1.2 -3.2 -2.3 -3.7 -2.3 -0.4 0 -3.4 3.5 -6.5 7.8 -28 37.4 -65 70.2 -106.9 94.7 -32.4 18.9 -74.9 34.8 -112.1 41.9 -7.7 1.5 -15 2.9 -16.2 3.2 -2.8 0.5 -2.8 0 0.1 18.6 4.5 27.7 10.2 80.1 15.1 137.8 1 10.7 2 19.8 2.4 20.2 0.3 0.3 5.4 2.2 11.4 4.2 24.1 8 40.6 18.2 58.3 36 16.6 16.8 27 33.3 33.8 53.9 5.2 15.9 6.1 22.6 6 45.7 0 20.8 -0.1 21.8 -3.1 33 -7.5 27.7 -19.7 48.4 -40.1 68.2 -29.1 28.2 -68.8 42.3 -108.9 38.7z m30 -65 c14.5 -3.6 29.5 -12.6 40.4 -24.3 17.2 -18.3 25.5 -45.3 20.8 -67.3 -5.8 -27.3 -21.5 -48.3 -45 -60.1 -9.7 -4.8 -16 -6.8 -26.8 -8.2 -4.5 -0.7 -10.7 -2 -13.7 -3 -5.4 -1.8 -5.4 -1.8 -11.5 0.4 -28.4 10.8 -50.3 32.2 -59.6 58.7 -11.5 32.3 -0.8 67.5 27.3 90.1 17.9 14.4 44.1 19.7 68.1 13.7z m-632.8 -17.9 c32.5 -2.9 62.8 -15.3 90 -36.8 10.2 -8 27.2 -25.4 34.5 -35.2 27.2 -36.9 41.2 -83.7 37 -124 -3.7 -36.3 -18.8 -70.3 -41.8 -94.2 -20.2 -21.1 -46.2 -36.6 -71.9 -43.1 -17 -4.3 -24.9 -5.1 -43.7 -4.2 -9.4 0.5 -22.8 0.9 -29.8 1 l-12.7 0.1 -16.3 8.1 c-56.9 28.2 -95.6 77.4 -107.8 137.5 -7.5 36.5 -2.9 72 13.6 105.3 8.1 16.5 17.1 29 30.4 42.4 12.6 12.6 22.7 20 37.5 27.4 16.2 8 31.4 12.6 50.5 15.2 11.8 1.6 17.8 1.7 30.5 0.5z m475.7 -88 c9.2 -31.5 18 -47.8 35.3 -65.9 18.5 -19.2 41.2 -31.8 66.8 -37.1 l5.7 -1.1 0 -4.2 c0 -2.3 -0.7 -11.6 -1.5 -20.7 -4.5 -51 -8.3 -111.5 -8.8 -140.5 l-0.2 -12 -17.5 -1.2 c-63.4 -4.3 -118.5 -21.8 -171.1 -54.6 -12.1 -7.5 -35.4 -24.9 -46.3 -34.6 -4.8 -4.2 -8.4 -6.7 -9.2 -6.3 -0.6 0.4 -4 3.9 -7.4 7.7 -17.1 19 -63.3 66.4 -98.1 100.6 -21.4 21 -38.9 38.7 -38.9 39.5 0 0.7 3.2 6.2 7.1 12.1 17.9 27 30.7 61.4 35.4 94.8 3.7 26.6 2.9 51.4 -2.6 78.9 -2.2 11 -2.7 15.1 -1.8 15.7 1.3 0.8 19.1 3.1 41.4 5.4 8.3 0.9 24.5 2.9 36 4.5 65.8 9.1 131.2 17.6 152 19.6 8.8 0.8 16.2 1.7 16.4 2 0.3 0.3 1.9 0.4 3.5 0.2 2.3 -0.2 3.3 -1 3.8 -2.8z m746.3 -147.5 c13 -1.8 21.4 -3.8 32.2 -7.6 12.1 -4.2 31.9 -14.6 43.3 -22.7 10.5 -7.4 29.9 -26.1 37.6 -36.2 22.8 -30 34.7 -67.8 31.5 -99.9 -2.4 -24.3 -9.2 -43.4 -22.6 -63.6 -11.2 -16.9 -27.2 -31.5 -47.6 -43.6 -8.6 -5.1 -13.1 -8.5 -16.2 -12.1 -8.9 -10.8 -6.8 -10 -30.7 -11.8 -15.3 -1.2 -26.3 -0.7 -43.2 2.1 -29.3 4.8 -52.8 13.8 -75.3 28.6 -28.4 18.8 -53.6 48.5 -60 70.8 -1 3.3 -3.5 9.4 -5.6 13.5 -12.9 25 -12.7 64.6 0.4 96.8 9.3 22.6 27.6 45.8 47.9 60.7 8.8 6.4 28 15.9 39.6 19.5 21.4 6.6 46.8 8.7 68.7 5.5z m-618.2 -205 c34.9 -3.7 63.6 -11.5 92.5 -25.1 87.7 -41.3 149.6 -122.6 165.7 -217.7 15 -88.9 -15.3 -182.9 -80 -248.3 -24.3 -24.5 -50.2 -42.9 -83 -58.9 -25.9 -12.6 -54.5 -21.5 -84.5 -26.2 -15.7 -2.4 -56.4 -2.5 -73 0 -31.6 4.6 -56.5 11.6 -83.5 23.7 -7.1 3.2 -15.9 6.6 -19.4 7.5 -7.9 2 -11.5 3.8 -22.2 11.1 -69.1 47 -116.4 122.1 -128.3 203.7 -7.1 48.3 -1.1 99 17.1 144.7 20.1 50.6 52.6 93.8 95.3 127.1 56.3 43.8 133 65.9 203.3 58.4z m-767.6 -655.1 c34.9 -5.2 65.1 -20.9 90.4 -47 13.5 -14.1 20.9 -24.4 29.8 -42.1 6.7 -13.3 12.7 -31.6 15.3 -46.7 2.6 -15.4 2.1 -39.6 -1.1 -54.8 -6.7 -30.9 -21.1 -57.8 -42.6 -79.3 -14.2 -14.3 -25.7 -22.8 -42.5 -31.4 -16 -8.2 -23.5 -11 -39.5 -14.7 -10.7 -2.5 -13.9 -2.8 -30 -2.8 -20.6 -0.1 -30.6 1.4 -50 7.2 -10.5 3.2 -13.3 3.7 -22.7 3.7 l-10.7 0 -9.3 7.5 c-11.5 9.3 -29.9 27.5 -36.1 35.7 -19.8 26.1 -31.8 57.3 -34.7 90.7 -1.6 18.5 1.3 41.4 8.1 62.6 4 12.8 14.4 33.4 22.7 44.9 8.1 11.4 25.9 29.8 36.2 37.2 33.3 24.4 76.6 35.3 116.7 29.3z m1267.3 -178.8 c33.7 -8 61.7 -32.2 72.8 -62.9 4.3 -11.9 5.5 -20.5 5 -34.3 -0.4 -10 -1 -13.4 -3.7 -21.4 -3.6 -10.8 -10.3 -23.5 -15.9 -30.7 -17.3 -21.7 -47.1 -38.3 -73.2 -40.8 -10 -0.9 -20.1 -2.6 -24.3 -4.1 -3.5 -1.2 -4.3 -1.1 -11.3 1.6 -17.6 7 -32.2 16.3 -45.1 28.7 -24.5 23.6 -35.2 53.3 -29.7 82.3 3.8 20.1 11.6 35 26.9 50.9 16.2 16.9 34.1 26.3 59.3 31.2 11.4 2.2 28.8 2 39.2 -0.5z m-379 -340 c17.5 -4.9 34.3 -18.5 42.4 -34.5 4.2 -8.1 6.8 -19.6 6.1 -26.1 -2.4 -22.1 -15.5 -39.5 -38.4 -51 -15.1 -7.5 -33.7 -9.2 -50.9 -4.5 -5.1 1.4 -11.6 2.5 -14.4 2.5 -5 0 -5.3 0.2 -10.7 6.1 -24 26.2 -29.8 47.9 -18.6 70.4 9.5 19.3 27.4 32.6 51 37.9 8.3 1.9 25.1 1.5 33.5 -0.8z"/>
  <path d="M896.5 1237.6 c-6.6 -2.1 -12.4 -5.4 -16.3 -9.4 -2 -2.1 -15.6 -21.3 -30.2 -42.7 l-26.4 -39 -0.4 -6.7 c-0.5 -8.2 0.8 -12.5 5.4 -16.9 3.3 -3.2 3.9 -3.4 11.7 -3.7 7.5 -0.2 9.5 0.2 23.2 4.6 l15 4.9 5.2 -36.6 c2.9 -20.1 9.2 -64.9 14.1 -99.4 8.6 -61.1 9 -62.9 11.8 -67 6.6 -9.6 22.2 -12.8 33.5 -6.9 4.9 2.5 6.5 4.5 23.4 28.5 10.1 14.2 18.7 26.3 19.2 26.8 0.6 0.6 4.5 -8.7 10.9 -26.3 9 -24.8 10.3 -27.7 14 -31.5 4.8 -4.7 9.2 -6.3 18 -6.3 9.9 0 17 3.4 21.3 10.3 1.3 2.2 8.3 30.1 20.1 80.8 9.9 42.6 18.4 78.2 18.8 79.1 0.5 1.3 3.3 -1.4 12.2 -12.4 8.4 -10.4 13.1 -15.2 17.3 -17.9 7.4 -4.8 8.1 -5 32.2 -10 29.6 -6.2 39.6 -5.7 47.7 2.5 1.5 1.5 10.4 14.1 20 27.9 l17.2 25.2 0.4 6.7 c0.5 8.2 -0.8 12.5 -5.4 16.9 -3.4 3.3 -3.8 3.4 -12.2 3.7 -8.5 0.3 -9.2 0.1 -29.6 -6.7 -11.5 -3.9 -21.2 -6.8 -21.5 -6.6 -0.3 0.3 -13.4 25.6 -29.2 56.3 -31.8 61.8 -33 63.7 -44.7 69.4 l-6.7 3.3 -93 0.2 c-73.3 0.2 -93.8 -0.1 -97 -1.1z m121.5 -68.8 c21.2 -25.8 38.4 -47.6 38.4 -48.2 -0.1 -1 -119.6 -171.9 -124.7 -178.4 -0.6 -0.7 -1.4 -0.9 -1.8 -0.5 -0.8 0.8 -36.9 254.8 -36.9 259.6 0 3.5 7.5 11.5 12.5 13.2 3.1 1.1 11.5 1.4 39 1.4 l35 0 38.5 -47.1z m58.5 46.1 c2.2 -0.6 5.4 -2.2 7.2 -3.5 3.6 -2.7 4.7 -4.7 39.3 -71.9 13.3 -25.8 27.7 -53.8 32.1 -62.1 l7.8 -15.1 -11.5 2.3 c-13.8 2.8 -16.8 4.1 -22.1 9.7 -3.8 3.9 -114 137.8 -115.7 140.5 -1 1.6 56.9 1.7 62.9 0.1z m-202.7 -51.6 c0.6 -4.8 0.8 -9 0.4 -9.4 -0.4 -0.3 -4.9 -2 -10 -3.7 -9.1 -3 -9.3 -3.1 -7.8 -0.9 0.8 1.2 4.6 6.8 8.3 12.4 3.7 5.7 7.1 10.3 7.4 10.3 0.3 0 1.1 -3.9 1.7 -8.7z m322.6 -79.5 c-4.2 -6.2 -8 -11.7 -8.4 -12.1 -0.5 -0.5 -2.4 2 -4.3 5.5 -5.8 10.3 -6.4 9.2 7.5 13.7 6.7 2.2 12.4 4 12.6 4 0.2 0.1 -3.1 -5 -7.4 -11.1z m-149 -72.4 c-9.6 -41.2 -17.7 -75.6 -18 -76.4 -0.5 -1.3 -0.6 -1.3 -1.4 0 -0.4 0.8 -6 15.9 -12.4 33.4 l-11.7 31.9 4.3 6.2 c25.7 36.9 56.3 80.2 56.5 80.1 0.2 -0.1 -7.6 -34 -17.3 -75.2z"/>
 </g>
 <g fill="#abecfd">
  <path d="M1042 1833 c-28.5 -3.6 -50.8 -19.4 -63 -44.5 -6 -12.4 -7.9 -19.2 -8.7 -32 -1.5 -25.9 6.6 -48.7 24 -67.2 12.9 -13.6 24.7 -21.3 42.6 -27.7 l7.5 -2.7 4.6 2 c2.5 1.1 7.7 2.5 11.5 3.1 15.8 2.6 21.8 4.3 30.6 8.6 17.4 8.5 30.2 21.1 38.9 38.4 15.8 31.3 10.3 70.4 -13.3 95.6 -10.7 11.5 -25.6 20.5 -40 24.3 -8.8 2.3 -25.4 3.3 -34.7 2.1z"/>
  <path d="M407 1812.5 c-19.1 -2.6 -34.3 -7.2 -50.5 -15.2 -14.8 -7.4 -24.9 -14.8 -37.5 -27.4 -13.3 -13.4 -22.3 -25.9 -30.4 -42.4 -16.2 -32.6 -21 -67.9 -14.6 -106 10.5 -61.8 50.1 -113.8 108.9 -142.9 l16.5 -8.1 14 -0.1 c7.8 -0.1 20 -0.6 27.1 -1.1 31.7 -2.5 59 3.6 86.5 19.1 71.3 40.4 98.5 130.6 64 212.3 -14.7 34.9 -40.2 65.2 -72.5 86.3 -32.6 21.2 -73.5 30.6 -111.5 25.5z"/>
  <path d="M1633.8 1579.5 c-0.2 -0.2 -3.2 -0.5 -6.8 -0.6 -3.5 -0.1 -11.7 -1.3 -18 -2.5 -28.6 -5.5 -51.6 -16.9 -71.2 -35.3 -27.9 -26.3 -42.5 -57.8 -44.4 -96.1 -1.1 -21.7 2.3 -42.3 9.5 -56 2.1 -4.1 4.6 -10.2 5.6 -13.5 3.9 -13.5 14.1 -29 30.3 -46 22.1 -23.2 52.1 -40.8 83.7 -49 24.3 -6.3 46.6 -8.4 70.5 -6.5 19 1.4 23 2.2 25.3 5.2 7.3 9.4 10.4 12.1 21.6 18.7 26.9 15.9 45.4 35.6 57.5 61.2 8.5 18 12 32.1 13.2 53.3 1.9 33.1 -9.9 69.6 -32 98.6 -7.7 10.1 -27.1 28.8 -37.6 36.2 -11.5 8.1 -31.2 18.5 -43.4 22.7 -10.7 3.8 -22.8 6.5 -35.1 8 -8.9 1.1 -28.1 2.1 -28.7 1.6z"/>
  <path d="M984 1372.4 c-72.8 -8.5 -135.1 -40.1 -183.2 -92.8 -26.2 -28.7 -43.9 -57 -58.1 -92.6 -20.6 -51.7 -25.6 -111 -14.2 -167.2 15.2 -74.8 61.3 -143.6 125.4 -187.2 10.7 -7.3 14.3 -9.1 22.2 -11.1 3.5 -0.9 12.3 -4.3 19.4 -7.5 27 -12.1 51.8 -19.1 83.5 -23.8 8.6 -1.2 18.6 -1.6 39.5 -1.7 31.6 0 39.7 0.9 67.1 7.5 51.8 12.5 101.5 40.7 139.9 79.4 78.7 79.5 104.9 199.2 66.8 304.6 -18.6 51.4 -50.7 96.4 -92.9 130.1 -54.6 43.5 -114.4 64.1 -184.9 63.8 -10.4 -0.1 -24.2 -0.7 -30.5 -1.5z m106.1 -140.1 c10.1 -5 14.1 -10 25.6 -32.3 5.5 -10.7 18.9 -36.7 29.7 -57.7 l19.7 -38.1 23.7 7.9 c20.9 7.1 24.4 8 29.5 7.6 4.9 -0.3 6.2 -0.8 9.2 -3.7 1.9 -1.8 4 -4.9 4.6 -6.8 2.3 -7 1.1 -9.5 -17.1 -36 -9.4 -13.8 -18.3 -26.3 -19.8 -27.8 -3.9 -3.9 -10.8 -6.7 -16.7 -6.6 -5.8 0 -44.3 7.7 -49.5 9.9 -8.5 3.5 -13.3 7.8 -26.7 24.2 -7.5 9.1 -13.8 16.8 -14 17 -0.1 0.2 -0.5 0.2 -0.8 0 -0.2 -0.3 -9 -37.1 -19.5 -81.9 -12.5 -53.3 -19.8 -82.5 -21.1 -84.7 -7.8 -12.6 -26.6 -13.6 -35.3 -2 -1.3 1.8 -7 15.8 -12.6 31.2 -5.6 15.4 -10.6 28.8 -10.9 29.8 -0.6 1.4 -5.5 -5 -21.6 -27.8 -23.1 -32.7 -24.8 -34.5 -34.9 -35.3 -6.8 -0.5 -14.9 3.5 -19 9.5 -3.2 4.6 -3.1 4.3 -25.7 165.5 -3 21.4 -5.8 38.8 -6.4 38.8 -0.5 0 -8.8 -2.5 -18.5 -5.6 -20.8 -6.7 -24.9 -6.9 -30.5 -1.4 -1.9 1.9 -4 4.9 -4.6 6.8 -2.4 7.3 -1.6 8.8 26.2 49.8 14.5 21.3 28.1 40.5 30.1 42.6 3.9 3.9 9.7 7.3 16.3 9.4 3.1 1 23.1 1.3 94 1.1 l90 -0.2 6.6 -3.2z"/>
  <path d="M902.6 1217.5 c-4.4 -1.5 -9.6 -6.2 -12.1 -10.8 -1.6 -3.1 -1.1 -7 16.9 -134.9 10.3 -72.4 18.9 -132.4 19.2 -133.2 0.9 -2.4 3.6 -2.8 6.1 -0.9 1.3 1 30.9 42.5 65.9 92.3 60.3 85.8 63.6 90.6 62.3 92.8 -0.8 1.2 -18.7 23.4 -39.9 49.2 l-38.5 46.9 -38 0 c-29.8 0 -38.8 -0.3 -41.9 -1.4z"/>
  <path d="M1005.7 1217.8 c8.9 -11.7 121.1 -147.3 123.4 -149.2 1.8 -1.6 4.4 -3.2 5.8 -3.8 2.4 -0.9 34.4 -7.7 34.8 -7.4 0.1 0.1 -7.5 15 -16.9 33.1 -9.3 18.2 -27.1 52.6 -39.4 76.5 -24.1 46.7 -25.5 48.8 -33.9 50.9 -6.6 1.7 -75.1 1.5 -73.8 -0.1z"/>
  <path d="M859.8 1161.9 c-8 -11.8 -14.5 -21.5 -14.4 -21.6 0.3 -0.3 32.7 10.4 33.2 10.9 0.1 0.2 -0.8 7.5 -2 16.2 l-2.2 15.9 -14.6 -21.4z"/>
  <path d="M1036.2 1053.6 c-19.9 -28.3 -36.2 -52 -36.2 -52.8 0 -2.6 25 -69.2 26.2 -70 1.8 -1.1 3.2 -1 5 0.5 1 0.8 8.3 30.2 21.6 87.2 11.1 47.2 20 86.1 19.8 86.2 -0.1 0.2 -16.5 -22.8 -36.4 -51.1z"/>
  <path d="M1192.7 1095.4 l-19.8 -6.5 6.8 -12.9 c3.7 -7.2 7 -13 7.3 -13 0.3 0 2.8 3.5 5.6 7.8 2.9 4.2 8.8 13 13.3 19.5 4.5 6.4 7.8 11.7 7.4 11.6 -0.5 0 -9.7 -3 -20.6 -6.5z"/>
  <path d="M226 717 c-26.2 -4.7 -48.9 -14.2 -69 -28.9 -10.3 -7.4 -28.1 -25.8 -36.2 -37.2 -8.3 -11.5 -18.7 -32.1 -22.7 -44.9 -7 -22 -10 -46.2 -8.2 -67 2.9 -34.6 14.6 -65.7 34.8 -92.3 6.3 -8.3 24.6 -26.4 36.7 -36.2 9.8 -7.9 9.8 -7.9 15 -7.5 10.4 0.7 15.4 0.1 27.1 -3.3 20.7 -6 29.4 -7.2 53 -7.1 19.4 0 21.9 0.2 33 2.8 16 3.8 23.5 6.5 39.5 14.7 16.8 8.6 28.3 17.1 42.5 31.4 19.9 19.8 33.7 44.2 40.9 72.2 5 19.3 6.1 48.2 2.7 68.4 -2.6 14.7 -8.6 33.1 -15.2 46.2 -8.9 17.7 -16.3 28 -29.8 42.1 -25.3 26.1 -55.5 41.8 -90.4 47 -14.9 2.2 -40 2 -53.7 -0.4z"/>
  <path d="M1501.8 539.1 c-17.4 -3.4 -32.8 -9.7 -45.3 -18.6 -6.8 -4.8 -20.5 -18.8 -25.1 -25.5 -11.7 -17.1 -17.4 -35.7 -17.4 -56.5 0 -20 6.5 -39.1 19.2 -56.5 5.8 -8 18.9 -20.1 29 -27.1 14.8 -10.1 37.8 -20 41.7 -17.9 3.6 1.9 13.3 3.9 23.9 5 26.3 2.7 49.4 13.3 68 31.2 16.5 15.9 27.4 38.3 29.1 60.1 2.9 36.8 -10.3 65.4 -40.8 88.4 -10.1 7.7 -20.6 12.6 -35.1 16.4 -11.2 3 -34.4 3.5 -47.2 1z"/>
  <path d="M1128.5 199.4 c-23.6 -5.3 -41.5 -18.6 -51 -37.9 -4.1 -8.2 -5.5 -14.8 -5.5 -25.7 0 -17.4 7 -32 24.1 -50.7 5.4 -5.9 5.7 -6.1 10.6 -6.1 2.8 0 9.5 -1.2 15 -2.7 8.4 -2.3 11.6 -2.6 22.3 -2.5 19 0.1 31.6 4.1 46.6 14.8 28.9 20.4 34.6 57.7 13.3 86 -7.7 10.2 -23 20.4 -35.9 24 -8.2 2.3 -30.8 2.7 -39.5 0.8z"/>
 </g>
</svg>