<?xml version="1.0" encoding="utf-8"?>
<!DOCTYPE svg PUBLIC "-//W3C//DTD SVG 1.0//EN" "http://www.w3.org/TR/2001/REC-SVG-20010904/DTD/svg10.dtd">
<svg version="1.0" xmlns="http://www.w3.org/2000/svg" width="1924px" height="1924px" viewBox="0 0 1924 1924" preserveAspectRatio="xMidYMid meet">
 <g fill="#2a3d43">
  <path d="M793.5 1554.9 c-44.5 -12.2 -51.1 -13.8 -52.1 -12.4 -1.8 2.4 -2.4 1.8 -2.4 -2.2 0 -2.2 2.7 -11 6.1 -20.3 3.3 -9.1 6.7 -18.1 7.3 -20 1.4 -3.7 5.6 -5.7 5.6 -2.6 0 0.8 1.4 1.9 3.3 2.4 39.3 11.2 90.9 25.3 91.2 25 0.2 -0.2 0.8 -35.9 1.2 -79.3 0.4 -43.5 0.7 -81.7 0.7 -85 0.1 -4.3 -0.3 -5.9 -1.1 -5.7 -0.8 0.1 -1.3 -0.8 -1.3 -2.1 0 -3 7.2 -7.7 11.7 -7.7 3.3 0 4.3 1.2 2.2 2.6 -0.8 0.5 -0.9 5 -0.4 16.3 0.5 8.6 1 41.5 1.2 73.1 0.6 81 0.7 76.5 -1.5 84.8 -1 3.9 -1.7 7.2 -1.5 7.2 0.2 0 2.6 -1.1 5.3 -2.5 9.4 -4.8 38.6 -16.4 67.5 -26.8 16 -5.8 48.6 -17.8 72.5 -26.7 23.9 -8.9 62 -22.9 84.5 -31 47.2 -17.1 80.4 -29.3 141.5 -52 92.3 -34.3 92 -34.2 98.5 -34.3 l6 -0.2 0 -32 c0 -22.4 0.5 -37.4 1.7 -50 0.9 -9.9 2 -28.8 2.3 -42 0.3 -13.2 1.2 -32.5 2 -43 1.1 -13.7 1.5 -36.4 1.5 -81.5 0.1 -63.2 0.4 -74.6 4 -115 3.7 -42.6 3 -157.3 -1.1 -195.5 -2.6 -23.1 -4.3 -59.3 -4.3 -91 0 -33.6 2.1 -103.2 3.3 -112.5 1.2 -8.7 0.7 -88.7 -0.8 -134.5 -0.5 -16.5 -1.5 -49.1 -2.1 -72.5 -1.2 -49.8 -3.3 -91.8 -4.6 -92.9 -0.5 -0.4 -2.7 -1.5 -4.9 -2.3 l-4 -1.6 -22 8.4 c-12.1 4.7 -49.9 18.8 -84 31.4 -78.6 29 -145.9 54 -232 86.3 -96.9 36.3 -123.6 45.7 -133.8 47.4 l-3.9 0.6 0.5 6.6 c3 37 4.7 77.5 3.8 91.1 -0.4 5.8 -0.3 18.2 0.2 27.5 0.5 11.1 0.4 31.7 -0.4 59.5 -1.5 48.6 -1.5 50.1 0.6 51.3 5.2 2.9 -3.2 3.7 -10.7 1 -4.6 -1.6 -4.8 -1.9 -4.8 -5.5 0 -2.4 0.5 -3.8 1.3 -3.8 0.9 0 1.2 -8.2 1.2 -37.5 0 -20.6 -0.3 -37.5 -0.7 -37.5 -0.5 0 -0.8 -2 -0.8 -4.5 0 -3.5 -0.4 -4.5 -1.6 -4.5 -1.2 0 -1.5 -0.5 -0.9 -2.2 0.4 -1.3 1 -8.6 1.2 -16.4 0.4 -11.1 0.1 -15.1 -1.1 -18.8 -0.9 -2.5 -1.9 -6.4 -2.2 -8.6 -0.6 -3.4 -0.4 -4 1.1 -4 1.1 0 1.5 -0.5 1.1 -1.5 -0.6 -1.7 1.9 -2.1 2.9 -0.5 2 3.3 2.5 -0.8 2.5 -21 0 -12.8 -0.6 -27.7 -1.5 -35.7 -0.8 -7.6 -1.9 -17.8 -2.3 -22.8 l-0.7 -9 -6.5 -0.2 c-5.3 -0.1 -9.6 -1.3 -23 -6.3 -9.1 -3.4 -22.6 -8.4 -30 -11 -33.2 -11.8 -145.1 -53 -253.5 -93.5 -31.9 -11.9 -73.7 -27.5 -93 -34.6 -71.7 -26.6 -162.1 -61.2 -176.4 -67.5 -3 -1.4 -5.6 -2.3 -5.7 -2.1 -0.2 0.2 -0.6 13.6 -0.9 29.8 -0.6 36.3 -1.2 60.1 -2.6 101.9 -0.9 30.1 -0.5 262.4 0.5 271 0.3 1.9 0.7 69.9 1 151 0.3 81.1 0.8 163.3 1.1 182.5 0.5 38.5 1.2 110.3 2 209.5 0.8 101.1 1.7 162.1 2.4 166.5 l0.6 4 8.5 1.7 c40.1 8.2 102 23.6 166.5 41.3 46.3 12.7 97.3 26.5 98.1 26.5 0.2 0 0.4 -0.7 0.4 -1.5 0 -1.6 1.8 -1.9 3.7 -0.7 0.6 0.4 3 5.7 5.2 11.7 2.2 6.1 4.9 13.5 6.1 16.5 1.2 3 3 7.8 4 10.5 1 2.8 2.5 6.7 3.4 8.7 2.7 6.3 1.6 14.3 -1.2 9.2 -1 -1.8 -8.6 -4 -117.7 -34.4 -92.3 -25.7 -141.3 -40.5 -177.9 -53.6 -12.6 -4.6 -15.9 -5.4 -21.9 -5.4 -12.2 0 -19 -3.6 -24.3 -12.6 l-2.7 -4.5 -0.3 -82.2 c-0.1 -45.2 -0.5 -162.7 -0.8 -261.2 -0.3 -98.4 -0.8 -187.8 -1.1 -198.5 -0.3 -10.7 -1 -106.3 -1.6 -212.5 -0.9 -183.9 -1.6 -230.6 -3.8 -272.5 -1.4 -26.5 -2.6 -74.2 -2.6 -105 0 -31.9 0.9 -36.9 8.2 -45 7.4 -8.2 19.8 -11.3 28.2 -7 2.2 1.1 9.9 3.5 17.3 5.4 19.3 5 109.2 36 172.3 59.4 15 5.6 68.9 25.3 127.5 46.7 103 37.5 156.3 57.2 204.5 75.2 76.7 28.8 80.9 30.3 83.6 30.3 1.4 0 6.4 -1.8 11 -3.9 7.6 -3.5 49.8 -19.6 86.4 -32.9 7.7 -2.8 41.2 -15 74.5 -27.1 78 -28.3 138.1 -50.3 200.5 -73.4 57.6 -21.3 99.8 -36.4 107 -38.3 7.2 -2 18.7 -1.7 28.5 0.6 14.4 3.5 41.1 12.6 104.5 35.5 6.6 2.4 22.8 8.2 36 13 13.2 4.7 36.6 13.3 52 19 39.2 14.5 83.5 30.7 141 51.6 4.4 1.6 9.5 2.9 11.3 2.9 4.6 0 12.2 4.1 16.5 8.9 7.2 8 7.1 5.9 7.1 94.1 0 43.2 -0.2 97.6 -0.3 121 -0.2 23.4 0.2 56.2 0.8 73 0.6 16.8 1.3 79.8 1.6 140 0.3 60.2 0.7 128.6 1 152 0.3 23.4 0.8 64.6 1.1 91.5 0.3 27 0.7 51.3 1 54 1 11.7 1.5 370.5 0.6 398 -1.2 35.3 -1.3 35.4 -12.1 46.4 -10.6 10.9 -15.4 12.9 -25.8 11 -6.1 -1.2 -75.2 -31.4 -138.8 -60.6 -7.1 -3.3 -23.3 -10.8 -36 -16.6 -12.6 -5.8 -27 -12.4 -32 -14.7 -4.9 -2.3 -15.5 -7 -23.5 -10.5 -8 -3.4 -19 -8.4 -24.5 -11 -5.5 -2.6 -19 -8.7 -29.9 -13.7 -23.2 -10.4 -33.7 -15.6 -45.9 -22.7 -4.9 -2.8 -9.5 -5.1 -10.2 -5.1 -0.8 0 -3.1 0.9 -5.2 2 -3.6 1.8 -65.1 24.1 -119.3 43.1 -14 5 -28.4 10.1 -32 11.4 -16.7 6.3 -116.6 42.5 -161.5 58.5 -27.5 9.8 -61.7 22.1 -76 27.3 -44.8 16.3 -67.8 23.4 -82.4 25.2 -3 0.4 -7.7 1.8 -10.5 3.1 -3.3 1.6 -6.8 2.4 -10.1 2.3 -3.2 0 -23.7 -5.2 -56 -14z m888.1 -88.6 c-0.3 -18.6 -0.8 -43.7 -1.1 -55.8 -0.3 -12.1 -0.7 -32.6 -1 -45.5 -0.3 -12.9 -0.8 -34.5 -1.1 -48 -1.1 -41.6 -2.1 -150.3 -2.2 -241.5 -0.2 -97.1 -1.8 -263.3 -2.8 -282.5 -0.7 -15.3 -0.6 -202.4 0.1 -206.3 0.3 -1.5 0.1 -8.5 -0.5 -15.4 -2.2 -26.8 -2.8 -45 -3.6 -108.8 -0.4 -27.5 -1.1 -50.8 -1.6 -51.8 -0.5 -0.9 -1.4 -1.7 -2.1 -1.7 -0.7 0 -16.5 -5.4 -35.2 -12.1 -18.7 -6.6 -58.1 -20.5 -87.5 -30.9 -74.7 -26.3 -152.3 -54.1 -177.3 -63.5 -5.4 -2 -10.1 -3.5 -10.3 -3.2 -0.3 0.2 0 8.1 0.6 17.3 2.2 34.2 1.4 309 -1 330.9 -0.6 5.5 -1.4 29.8 -1.9 54 -0.7 35.3 -0.6 47 0.6 59 0.8 8.3 1.6 26.8 1.8 41.3 0.2 14.5 0.6 27.1 0.9 28 0.3 0.9 1 12.3 1.6 25.2 0.5 12.9 1.7 34 2.6 46.7 1.5 20.1 1.5 26.3 0.5 45.5 -1.2 21.6 -1.9 49.5 -4 164.3 -1.1 57 -2.4 97.1 -4.1 119.5 -1.4 18.9 -1.2 36.8 0.4 52.8 0.8 7.5 2.5 27.7 3.7 44.8 l2.3 31.1 4.3 1.1 c14.5 3.9 37.8 13.8 123.8 52.5 11.6 5.2 36.1 16.1 54.5 24.2 36.6 16.1 116.4 51.9 130 58.4 4.7 2.2 8.9 4.1 9.4 4.1 0.5 0 0.6 -14.8 0.2 -33.7z"/>
 </g>
 <g fill="#01b4f1">
  <path d="M660 1731.3 c-3.3 -4 -9.2 -16.2 -18.5 -38.3 -3.2 -7.4 -8 -18 -10.7 -23.4 -7.1 -14.2 -11.5 -24.3 -24.8 -57.1 -19.4 -47.9 -31.6 -77.7 -34 -83 -2.1 -4.8 -14 -34.5 -18 -45 -4 -10.7 -7 -18.4 -10.3 -27 -1.9 -4.9 -4.2 -11.4 -5.1 -14.2 -1 -2.9 -2.2 -5.3 -2.7 -5.3 -0.5 0 -0.9 -0.6 -0.9 -1.3 0 -2.2 -27.8 -71 -29.2 -72.3 -0.7 -0.6 -5.6 -3.3 -10.8 -6 -10.3 -5.2 -30.6 -16.8 -33 -18.8 -0.8 -0.6 -2.7 -1.8 -4.2 -2.6 -1.5 -0.7 -3.7 -2.1 -4.7 -3.2 -1.1 -1 -2.3 -1.8 -2.7 -1.8 -0.9 0 -18.9 -13.6 -26.9 -20.4 -21.4 -18.2 -39 -36.4 -54.9 -56.7 -8.3 -10.6 -20.6 -28.6 -20.6 -30 0 -0.5 -0.4 -0.9 -1 -0.9 -0.5 0 -1 -0.4 -1 -0.9 0 -0.5 -2.1 -4.5 -4.6 -8.8 -2.6 -4.3 -4.7 -8.3 -4.8 -9 -0.1 -0.7 -0.6 -1.6 -1 -2 -0.8 -0.8 -6.6 -13.1 -6.6 -14 0 -0.3 -0.9 -1.8 -2.1 -3.4 -1.1 -1.6 -1.8 -2.9 -1.5 -2.9 0.3 0 -1.1 -3.7 -3 -8.2 -15.3 -35.4 -24.6 -73 -28.4 -114.3 -1.3 -14.2 -1.3 -50.4 0 -63.6 3.4 -34.1 12 -70 24.6 -102.4 5 -12.8 18.2 -40.1 21.6 -44.4 1 -1.3 1.8 -3.2 1.8 -4.2 0 -1.1 0.9 -2.7 2 -3.6 1.1 -1 2 -2.5 2 -3.4 0 -1 0.4 -1.9 0.8 -2.1 1.4 -0.5 5.2 -6.5 5.2 -8.1 0 -0.8 1.2 -2.8 2.8 -4.5 1.5 -1.6 3.6 -4.5 4.6 -6.3 1.1 -1.9 2.2 -3.6 2.6 -3.9 0.3 -0.3 1.7 -2.1 3 -4 1.3 -1.9 2.7 -3.7 3.1 -4 0.4 -0.3 0.9 -1.2 1.1 -2 0.2 -0.8 1.3 -2.3 2.6 -3.3 1.2 -1 2 -2.3 1.7 -2.8 -0.4 -0.5 -0.1 -0.9 0.5 -0.9 0.7 0 2.2 -1.2 3.3 -2.8 1.2 -1.5 3.9 -4.6 6.1 -7 2.1 -2.3 3.7 -4.2 3.4 -4.2 -0.2 0 5.5 -5.9 12.6 -13 7.2 -7.2 13.3 -13 13.7 -13 0.4 0 2.1 -1.6 3.8 -3.5 1.7 -1.9 3.3 -3.5 3.7 -3.5 0.3 0 3.8 -2.7 7.8 -6 4 -3.3 7.7 -6 8.3 -6 0.6 0 1.3 -0.7 1.7 -1.5 0.3 -0.8 1.2 -1.5 2 -1.5 0.7 0 1.6 -0.7 2 -1.5 0.3 -0.8 1.1 -1.5 1.8 -1.5 0.7 0 2.4 -1.2 3.7 -2.5 1.3 -1.4 2.9 -2.5 3.7 -2.5 0.8 0 1.4 -0.4 1.4 -1 0 -0.5 0.5 -1 1 -1 0.6 0 2.1 -0.9 3.3 -2 1.2 -1.1 2.7 -1.8 3.4 -1.6 0.7 0.3 1.9 -0.3 2.5 -1.4 0.7 -1.1 1.7 -2 2.1 -2 0.5 0 1.5 -0.7 2.4 -1.6 0.9 -0.8 2.2 -1.3 2.9 -1 0.8 0.3 1.4 0 1.4 -0.7 0 -0.8 1.7 -2.2 3.7 -3.2 3.7 -1.9 4.5 -2.1 7.1 -2.4 0.6 0 1.2 -0.8 1.2 -1.6 0 -0.8 0.6 -1.6 1.3 -1.7 0.6 0 1.7 -0.2 2.2 -0.3 0.6 -0.2 1.6 -0.3 2.3 -0.4 0.6 0 1.2 -0.8 1.2 -1.6 0 -0.8 0.3 -1.6 0.8 -1.6 0.4 -0.1 1.6 -0.3 2.7 -0.4 2.8 -0.3 6.5 -2.3 6.5 -3.5 0 -1.6 11.5 -6.9 13.8 -6.3 1.4 0.3 2.4 -0.2 3.2 -1.7 0.7 -1.4 1.7 -1.9 2.9 -1.5 1.2 0.3 2.1 0 2.5 -1.1 0.4 -1 1.2 -1.4 2.2 -1 1 0.4 2.2 0 2.8 -1 0.7 -0.9 2.9 -1.7 5.5 -1.8 2.3 -0.1 4.6 -0.8 5.1 -1.6 0.5 -0.8 2.7 -1.5 5 -1.6 2.3 -0.1 4.7 -0.9 5.3 -1.7 1.8 -2.1 7.9 -4 8.7 -2.6 0.5 0.7 0.9 0.5 1.3 -0.5 0.5 -1.2 1.4 -1.5 3.2 -1 1.6 0.4 2.5 0.2 2.5 -0.5 0 -0.6 0.8 -1.5 1.8 -1.8 0.9 -0.4 2.5 -1.7 3.5 -3 2.8 -3.5 13.4 -8.1 24.1 -10.4 8.2 -1.8 10 -1.9 10.7 -0.8 0.7 1.1 0.9 1 0.9 -0.3 0 -2.1 4 -2.5 4 -0.5 0.1 0.7 0.7 0.4 1.5 -0.7 1 -1.3 2.2 -1.7 4 -1.4 1.4 0.3 2.8 0.1 3.1 -0.4 0.4 -0.6 2.5 -0.7 5 -0.3 2.4 0.3 4.9 0.3 5.5 0 0.5 -0.4 5.8 -0.9 11.6 -1.1 5.8 -0.2 11.2 -0.9 11.9 -1.5 0.8 -0.6 2.2 -0.8 3.1 -0.4 1 0.4 11 0.8 22.3 1 19 0.3 37.2 1.5 49.1 3.4 2.7 0.5 4.9 0.4 4.9 0 0 -1.4 2 -1 3.6 0.6 1.8 1.7 4.4 2 4.4 0.4 0 -0.6 0.7 -0.3 1.6 0.5 1.8 1.8 3.4 2.1 3.4 0.5 0 -0.6 0.7 -0.3 1.6 0.5 1.8 1.8 3.4 2.1 3.4 0.5 0 -0.6 0.7 -0.3 1.6 0.5 1.8 1.8 3.4 2.1 3.4 0.5 0 -0.6 0.7 -0.3 1.6 0.6 1.4 1.3 1.9 1.4 2.5 0.3 0.5 -0.8 0.9 -0.9 0.9 -0.2 0 1.5 4 2.6 4 1.1 0 -0.8 0.4 -0.7 0.9 0.2 0.5 0.7 1.5 1.1 2.2 0.9 0.8 -0.3 2 0.2 2.8 0.9 1.1 1.2 1.5 1.2 2.2 0.1 0.6 -0.9 0.9 -1 0.9 -0.1 0 0.7 0.7 1 1.5 0.7 0.8 -0.4 1.5 -0.1 1.5 0.6 0 0.7 0.8 0.9 2 0.5 1.2 -0.4 2 -0.2 2 0.5 0 0.7 0.7 1 1.5 0.6 0.8 -0.3 1.5 -0.1 1.5 0.5 0 0.6 0.9 0.8 2 0.4 1.2 -0.4 2 -0.2 2 0.5 0 0.7 0.7 1 1.5 0.6 0.8 -0.3 1.5 -0.1 1.5 0.4 0 0.5 0.7 0.7 1.5 0.4 0.8 -0.4 1.5 -0.1 1.5 0.5 0 0.6 0.7 0.8 1.5 0.5 0.8 -0.4 1.5 -0.1 1.5 0.5 0 0.6 0.7 0.8 1.5 0.5 0.8 -0.4 1.5 -0.1 1.5 0.5 0 0.6 0.7 0.8 1.5 0.5 0.8 -0.4 1.5 -0.1 1.5 0.5 0 0.6 0.7 0.8 1.5 0.5 0.8 -0.4 1.5 -0.1 1.5 0.6 0 0.6 0.4 0.9 0.9 0.5 0.5 -0.3 1.2 -0.1 1.6 0.5 0.4 0.6 1.1 0.8 1.6 0.5 0.5 -0.4 0.9 -0.1 0.9 0.5 0 0.7 0.7 1 1.5 0.6 0.8 -0.3 1.5 -0.1 1.5 0.5 0 0.6 0.5 0.7 1 0.4 0.6 -0.3 1 -0.2 1 0.4 0 0.6 0.7 0.8 1.5 0.5 0.8 -0.4 1.5 -0.2 1.5 0.3 0 0.5 1 1 2.2 1 1.3 0.1 2.4 0.7 2.6 1.3 0.2 0.5 0.8 0.8 1.3 0.4 0.5 -0.3 0.9 -0.1 0.9 0.5 0 0.6 0.6 0.8 1.4 0.5 0.7 -0.3 2.1 0.2 3 1.1 0.9 0.9 1.6 1.4 1.6 1 0 -0.3 1.2 0.1 2.8 0.9 5.5 3 11.9 5.6 13.5 5.6 1.1 0 1.7 0.8 1.7 2.3 0 1.8 1 2.6 4.8 4 2.6 0.9 5.3 1.7 6.1 1.7 1.6 0 14.8 7.8 27.6 16.4 29 19.3 57.3 44.6 79.2 70.9 8.2 9.8 21.3 27.2 21.3 28.2 0 0.3 0.8 1.4 1.8 2.5 5.6 6 30.3 51.9 35.4 65.8 0.4 1.2 1.2 3.2 1.7 4.5 2.2 5.1 6 15.4 6.9 18.7 1.1 3.6 2.9 8.9 4.3 12.5 1.1 2.9 2.2 6.7 2.5 9 0.1 1.1 1.2 5.7 2.4 10.2 3.7 14.2 7.4 37.9 9.1 58.8 1.4 17.7 0.7 54.3 -1.5 71.5 -1.8 14 -6.9 40.2 -10 51.3 -1.3 4.5 -2.9 10.5 -3.6 13.2 -4.9 18.3 -22.7 59.4 -32.7 75.3 -1.8 2.9 -3.3 5.5 -3.3 5.9 0 1.5 -21.6 32.7 -29.6 42.8 -11.3 14.1 -43.7 46.6 -57.9 57.9 -14.6 11.6 -46.7 33.6 -49 33.6 -1.2 0 -6.2 3 -8.2 5 -1.3 1.1 -2.3 1.8 -2.3 1.6 0 -0.3 -5.3 2.1 -11.7 5.4 -6.5 3.2 -17.4 8.2 -24.3 11 -6.9 2.8 -13.1 5.8 -13.9 6.5 -1.4 1.4 -7.1 15.7 -23.3 59 -14.3 38.3 -22.8 60.8 -23.8 63 -1.8 3.6 -9.1 23.7 -16 43.5 -3.7 10.7 -10.8 30.5 -15.8 44 -5 13.5 -12.8 34.9 -17.2 47.5 -4.5 12.7 -10.5 28.9 -13.2 36 -2.8 7.2 -6.6 17.5 -8.4 22.9 -3.7 10.7 -20 41.6 -22.1 41.6 -0.6 0 -2.6 -1.7 -4.3 -3.7z m10.3 -49.5 c2.5 -7.9 5.6 -17.7 6.7 -21.8 1.2 -4.1 4.9 -16 8.2 -26.5 3.3 -10.4 9.1 -29.1 13 -41.5 3.8 -12.4 11.8 -38 17.8 -57 6 -19 15.4 -49.8 20.9 -68.5 5.5 -18.7 10.7 -36 11.6 -38.5 1.9 -5.3 10 -32.7 11.3 -38.5 0.5 -2.2 4.1 -14.8 8.1 -28 3.9 -13.2 8.6 -30.1 10.4 -37.5 l3.4 -13.4 9.9 -4.2 c15.4 -6.4 24.8 -10.8 26 -11.9 0.6 -0.6 3.1 -1.9 5.5 -3 2.4 -1.1 4.6 -2.2 4.9 -2.6 0.3 -0.3 3.8 -2.5 7.8 -4.8 3.9 -2.4 7.2 -4.7 7.2 -5.2 0 -0.5 0.7 -0.9 1.5 -0.9 0.8 0 2.4 -0.9 3.5 -2 1.1 -1.1 2.4 -2 2.9 -2 0.4 0 2 -1.1 3.5 -2.5 1.5 -1.4 3.1 -2.5 3.5 -2.5 0.5 0 2.3 -1.3 4.1 -3 1.8 -1.6 3.6 -3 4.1 -3 0.5 0 1.4 -0.9 2.1 -2 0.7 -1.1 1.8 -2 2.4 -2 0.6 0 4.2 -2.9 8 -6.5 3.8 -3.6 7.1 -6.5 7.4 -6.5 0.3 0 4.6 -4 9.5 -9 4.9 -4.9 8.7 -9 8.5 -9 -0.3 0 2.3 -3 5.8 -6.7 3.4 -3.6 6 -6.8 5.7 -7.1 -0.2 -0.3 0.7 -1.4 2.1 -2.4 1.4 -1.1 2.3 -2.3 2 -2.5 -0.3 -0.3 0.5 -1.4 1.7 -2.4 1.2 -1 1.8 -1.8 1.3 -1.9 -0.4 0 0.2 -0.9 1.5 -2 1.3 -1 2.1 -1.9 1.7 -2 -0.4 0 0.3 -1.1 1.5 -2.4 5.1 -5.6 7.7 -8.9 7.7 -9.9 0 -0.6 0.6 -1.8 1.3 -2.6 0.8 -0.9 3.3 -4.7 5.7 -8.6 2.4 -3.8 4.6 -7.2 4.9 -7.5 1.2 -1 3.1 -5 3.1 -6.4 0 -0.8 0.4 -1.6 0.9 -1.8 0.9 -0.3 6.3 -10.9 9.1 -17.8 1 -2.5 3.4 -8.4 5.4 -13.3 12.8 -31.3 19.7 -68.6 19.7 -107.2 0 -33 -2.9 -53 -12.4 -85.5 -3.1 -10.4 -10.7 -30.1 -12.6 -32.4 -0.7 -0.9 -1 -1.6 -0.6 -1.6 0.4 0 0 -1.1 -0.9 -2.5 -0.9 -1.4 -1.3 -2.5 -1 -2.5 0.4 0 0 -0.8 -0.8 -1.7 -0.9 -1 -3.7 -5.8 -6.2 -10.8 -5.5 -10.7 -4.8 -9.4 -16.2 -27 -21.6 -33 -48.1 -60.2 -81 -83 -6 -4.1 -11.7 -8.1 -12.7 -8.8 -8.8 -6.1 -38.8 -20.5 -55.2 -26.5 -18.6 -6.7 -24.4 -8.4 -41 -12.1 -41.7 -9.1 -88.7 -10 -127.4 -2.5 -13.2 2.6 -22.7 3.4 -28.8 2.4 -6 -1 -6.6 -0.9 -20.5 4.4 -29.8 11.3 -61.6 27.9 -80.3 42 -22.6 16.9 -43.2 36.4 -59.9 56.5 -6.7 8.1 -26.6 36.7 -30.7 44.2 -6.6 12 -17.6 35.8 -21.4 46.4 -14.2 39.3 -18.9 66.1 -18.9 107 0 26.6 1 37.2 6 60.4 10.1 47.7 33.6 96 63.3 130.1 22.2 25.6 45.5 45.9 71.4 62.3 6.2 3.9 11.4 7.4 11.5 7.9 0.2 0.4 0.8 0.6 1.2 0.3 0.5 -0.3 1.8 0.3 2.9 1.4 1.1 1.1 2.2 1.7 2.5 1.3 0.3 -0.3 0.6 0 0.6 0.7 0 0.7 0.5 0.9 1 0.6 0.6 -0.3 1 -0.1 1 0.5 0 0.6 0.4 0.8 1 0.5 0.6 -0.3 1 -0.1 1 0.5 0 0.6 0.5 0.8 1 0.5 0.6 -0.3 1 -0.1 1 0.5 0 0.6 0.5 0.8 1 0.5 0.6 -0.3 1 -0.1 1 0.5 0 0.6 0.5 0.8 1 0.5 0.6 -0.3 1 -0.1 1 0.5 0 0.6 0.4 0.8 1 0.5 0.6 -0.3 1 -0.1 1 0.5 0 0.6 0.5 0.8 1 0.5 0.6 -0.3 1 -0.1 1 0.4 0 0.6 0.6 1.1 1.4 1.1 0.7 0 1.8 0.6 2.4 1.3 0.6 0.7 4 11.4 7.6 23.7 3.6 12.4 8.7 29.9 11.5 39 2.7 9.1 4.6 16.7 4 16.8 -0.5 0.2 -0.9 1 -0.9 1.7 0 1.8 15.5 44.8 28.5 79 5.9 15.4 14 37.7 18 49.5 8.3 24.1 18.4 52.6 31.5 89 9.5 26.6 14.9 42.8 17.5 53 2.6 10.2 12.7 41 13.5 41 0.4 0 2.8 -6.4 5.3 -14.2z"/>
  <path d="M642 1222.4 c-17.9 -3.1 -31.8 -7.3 -44 -13.2 -31.8 -15.5 -55.3 -38.6 -69 -67.6 -6.7 -14.3 -7.2 -15.5 -10.4 -26.6 -5.4 -18.6 -7.5 -39.9 -5.7 -58 2.5 -24.6 9.7 -46.8 21.7 -66.7 2.4 -3.9 4.4 -7.6 4.4 -8.1 0 -0.6 0.7 -1.2 1.5 -1.6 0.8 -0.3 1.5 -1.2 1.5 -2 0 -0.7 0.7 -1.6 1.5 -2 0.8 -0.3 1.5 -1.1 1.5 -1.7 0 -0.7 1.5 -3 3.4 -5.3 1.8 -2.3 3.4 -4.4 3.6 -4.8 0.4 -1.3 10 -10.8 10.9 -10.8 0.5 0 2.1 -1.3 3.4 -3 1.4 -1.6 3.2 -3 4 -3 0.8 0 1.7 -0.7 2.1 -1.5 0.3 -0.8 1.2 -1.5 2.1 -1.5 0.8 0 1.5 -0.4 1.5 -1 0 -0.5 0.7 -1 1.5 -1 0.8 0 2.4 -0.9 3.5 -2 1.1 -1.1 2.5 -2 3 -2 0.6 0 1 -0.4 1 -1 0 -0.5 1.1 -1 2.5 -1 1.6 0 2.5 -0.6 2.5 -1.5 0 -0.9 0.6 -1.5 1.3 -1.4 2 0.4 9.5 -3.1 10.1 -4.7 0.4 -1 1.3 -1.3 2.5 -0.9 1.2 0.3 2.1 0 2.5 -1 0.4 -1.1 1.3 -1.4 2.6 -1 1.2 0.4 2 0.2 2 -0.5 0 -1.5 5.4 -3.4 5.8 -2.1 0.4 1.3 3.3 0.2 4.9 -1.8 1.1 -1.3 1.4 -1.4 2.2 -0.2 0.7 1.1 1.2 1 2.7 -0.8 1 -1.1 2.4 -2.1 3.1 -2.1 0.7 0 1.3 -0.4 1.3 -0.9 0 -2.5 20.9 -8.8 21.7 -6.5 0.3 1 24.4 1.1 26.1 0 0.5 -0.3 1.2 -0.2 1.4 0.2 0.4 1.3 8.8 2.2 8.8 1 0 -0.5 0.7 -0.2 1.6 0.6 1.8 1.8 3.4 2.1 3.4 0.5 0 -0.6 0.7 -0.3 1.6 0.5 1.8 1.8 3.4 2.1 3.4 0.5 0 -0.6 0.7 -0.3 1.6 0.6 1.4 1.3 1.9 1.4 2.5 0.3 0.7 -1.1 0.9 -1.1 0.9 0 0 0.8 0.6 1.2 1.2 1 0.7 -0.3 1.9 0.2 2.7 0.9 1.1 1.2 1.5 1.2 2.2 0.1 0.6 -0.9 0.9 -1 0.9 -0.1 0 0.7 0.7 1 1.5 0.7 0.8 -0.4 1.5 -0.1 1.5 0.5 0 0.6 0.7 0.8 1.5 0.5 0.8 -0.4 1.5 -0.1 1.5 0.6 0 0.6 0.5 0.8 1 0.5 0.6 -0.3 1 -0.1 1 0.5 0 0.7 0.7 1 1.5 0.6 0.8 -0.3 1.5 -0.1 1.5 0.4 0 0.6 0.9 1 2 1 1.1 0 2 0.5 2 1.1 0 0.6 0.7 0.9 1.5 0.5 0.8 -0.3 1.5 -0.1 1.5 0.5 0 0.6 0.5 0.7 1 0.4 0.6 -0.3 1 -0.1 1 0.5 0 0.6 0.5 0.8 1 0.5 0.6 -0.3 1 -0.1 1 0.5 0 0.6 0.5 0.8 1 0.5 0.6 -0.3 1 -0.1 1 0.6 0 0.7 0.3 1 0.6 0.6 1.7 -1.7 21.4 12.3 33.3 23.8 8.5 8.3 19.1 20.4 19.1 21.9 0 0.4 0.5 1.2 1.1 1.9 3.2 3.7 12.4 20.6 16.4 30.2 11.6 27.7 14.1 65.3 6.5 96.5 -4 16.2 -13 38.5 -18.3 45 -0.7 0.8 -1.9 2.7 -2.7 4.2 -2.6 5.3 -14 18.6 -24.1 28.2 -16.2 15.4 -37.5 28.4 -57.3 35.1 -16.1 5.4 -23.7 6.6 -45.1 6.9 -11 0.2 -21.1 0.2 -22.5 0z m28.6 -71.5 c28.8 -5 52.5 -23.6 65.4 -51.2 20.2 -43 1.2 -92.4 -42.3 -110.5 -10.8 -4.5 -21.7 -6.2 -38.9 -5.9 -14.6 0.3 -14.6 0.3 -22 3.9 -7.2 3.6 -10.2 5.6 -13.9 9.1 -1.1 0.9 -2.1 1.7 -2.4 1.7 -1.1 0 -17.5 17.2 -20.3 21.3 -4.4 6.4 -10.8 20.3 -13.2 28.7 -7.6 26.9 0.2 57.6 19.8 78.3 18.1 19 44.9 28.7 67.8 24.6z"/>
 </g>
 <g fill="#abecfd">
  <path d="M554.7 1383 c-0.4 -1.5 0 -2 1.4 -2 2.3 0 2.4 0.7 0.5 2.5 -1.2 1.2 -1.5 1.1 -1.9 -0.5z"/>
  <path d="M803 1376.7 c0 -1 2.6 -2.5 7.3 -4.2 8 -3.1 10.5 -4.2 22.4 -10.3 4.5 -2.3 8.8 -4.2 9.7 -4.2 0.9 0 1.6 -0.4 1.6 -0.9 0 -0.7 8.9 -5.1 10.4 -5.1 0.3 0 0.6 0.8 0.6 1.7 0 0.9 -0.3 1.4 -0.6 1 -0.3 -0.3 -5.8 2.1 -12.2 5.3 -6.5 3.2 -17.3 8.2 -24.2 11 -6.9 2.9 -13.1 5.7 -13.7 6.2 -1 0.8 -1.3 0.6 -1.3 -0.5z"/>
  <path d="M493.5 1357.7 c-13.3 -7.1 -26.3 -14.4 -30 -17.1 -1.6 -1.2 -4.2 -2.8 -5.7 -3.5 -1.5 -0.8 -3.7 -2.2 -4.7 -3.3 -1.1 -1 -2.3 -1.8 -2.7 -1.8 -0.3 0 -4.9 -3.3 -10.2 -7.2 -30.7 -23 -58.8 -51.6 -79.9 -81.1 -4 -5.5 -7 -10.3 -6.8 -10.6 0.6 -0.5 0.1 -1.1 6.6 7.9 34.6 48.5 82.8 89.9 136 116.6 8.1 4 10.2 5.4 8.2 5.4 -0.5 0 -5.3 -2.4 -10.8 -5.3z"/>
  <path d="M865.3 1346.3 c0.5 -1.3 1.6 -2.3 2.3 -2.3 0.7 0 1.9 -0.6 2.6 -1.2 0.7 -0.7 3 -2.2 5.1 -3.2 2 -1.1 3.7 -2.3 3.7 -2.8 0 -0.4 0.7 -0.8 1.5 -0.8 0.8 0 1.5 -0.4 1.5 -1 0 -0.5 0.7 -1 1.5 -1 0.8 0 1.5 -0.4 1.5 -1 0 -0.5 0.7 -1 1.5 -1 0.8 0 1.5 -0.4 1.5 -1 0 -0.5 0.6 -1 1.4 -1 0.7 0 2.4 -1.1 3.8 -2.4 1.4 -1.2 3.3 -2.6 4.2 -2.9 0.9 -0.4 1.6 -1.1 1.6 -1.7 0 -0.5 0.7 -1 1.5 -1 0.9 0 1.8 -0.7 2.1 -1.5 0.4 -0.8 1.3 -1.5 2 -1.5 0.8 0 1.7 -0.7 2 -1.5 0.4 -0.8 1.2 -1.5 2 -1.5 0.8 0 1.9 -0.9 2.6 -2 0.7 -1.1 1.8 -2 2.4 -2 0.5 0 3.9 -2.7 7.3 -6 3.5 -3.3 6.6 -6 7 -6 0.3 0 7.1 -6.5 15.1 -14.5 8 -8 14.1 -14.5 13.7 -14.5 -0.4 0 1.1 -1.6 3.3 -3.6 2.2 -2 3.8 -3.9 3.6 -4.2 -0.3 -0.2 0.9 -1.6 2.5 -2.9 1.6 -1.4 2.8 -2.7 2.6 -2.9 -0.2 -0.2 1.3 -2.3 3.5 -4.6 2.1 -2.3 3.6 -4.3 3.3 -4.6 -0.2 -0.2 0.6 -1.3 1.8 -2.3 1.2 -1 1.9 -1.8 1.5 -1.9 -0.3 0 0.7 -1.4 2.3 -3.1 1.6 -1.7 2.7 -3.5 2.4 -3.9 -0.3 -0.4 0.1 -1 0.8 -1.3 0.8 -0.3 3.1 -3.2 5.3 -6.6 2.1 -3.3 4.3 -6.1 4.7 -6.1 1.1 0 -0.2 2.3 -8.6 14.2 -13 18.6 -22.6 29.8 -42.2 49.4 -24 24.1 -41.4 38 -71.3 57 -6.7 4.2 -7.8 4.7 -6.9 2.7z"/>
  <path d="M781.2 1311.9 c0.2 -0.7 4.9 -3.1 10.4 -5.4 15.3 -6.5 24.8 -10.9 26 -12 0.6 -0.6 3.1 -1.9 5.5 -3 2.4 -1.1 4.6 -2.2 4.9 -2.6 0.3 -0.3 3.8 -2.5 7.8 -4.8 3.9 -2.4 7.2 -4.7 7.2 -5.2 0 -0.5 0.7 -0.9 1.5 -0.9 0.8 0 2.4 -0.9 3.5 -2 1.1 -1.1 2.4 -2 2.9 -2 0.4 0 2 -1.1 3.5 -2.5 1.5 -1.4 3.1 -2.5 3.5 -2.5 0.5 0 2.3 -1.3 4.1 -3 1.8 -1.6 3.6 -3 4.1 -3 0.5 0 1.4 -0.9 2.1 -2 0.7 -1.1 1.8 -2 2.4 -2 0.6 0 4.2 -2.9 8 -6.5 3.8 -3.6 7.1 -6.5 7.4 -6.5 0.3 0 4.6 -4 9.5 -9 4.9 -4.9 8.7 -9 8.5 -9 -0.3 0 2.3 -3 5.8 -6.7 3.4 -3.6 6 -6.8 5.7 -7.1 -0.2 -0.3 0.7 -1.4 2.1 -2.4 1.4 -1.1 2.3 -2.3 2 -2.5 -0.3 -0.3 0.5 -1.4 1.7 -2.4 1.2 -1 1.8 -1.8 1.2 -1.9 -0.5 0 0.1 -0.7 1.3 -1.6 1.2 -0.8 2 -2 1.7 -2.5 -0.4 -0.5 -0.2 -0.9 0.4 -0.9 0.5 0 2.4 -2 4.1 -4.5 1.7 -2.5 3.5 -4.5 4.1 -4.5 1.2 0 -4.2 7.7 -15.4 22 -10.5 13.5 -34.1 37.1 -48.2 48.4 -22.4 17.9 -48.6 33.7 -73.2 44.2 -7 3 -13.6 5.9 -14.7 6.5 -1.4 0.8 -1.7 0.7 -1.4 -0.2z"/>
  <path d="M504.6 1288.5 c-0.8 -0.8 -1.9 -1.5 -2.5 -1.5 -0.6 0 -1.1 -0.4 -1.1 -1 0 -0.5 -1.1 -1.2 -2.5 -1.6 -1.4 -0.3 -2.5 -1 -2.5 -1.5 0 -0.5 -0.7 -0.9 -1.5 -0.9 -0.8 0 -1.5 -0.4 -1.5 -1 0 -0.5 -0.7 -1 -1.5 -1 -0.8 0 -1.5 -0.4 -1.5 -1 0 -0.5 -0.6 -1 -1.3 -1 -0.7 0 -2.3 -0.9 -3.5 -2 -1.2 -1.1 -2.4 -2 -2.8 -2 -1.7 0 -23.2 -17.9 -34.2 -28.5 -12.6 -12.1 -28.8 -30.2 -28 -31.1 0.3 -0.2 3.1 2.6 6.3 6.3 20.6 24 45.3 45.4 70.8 61.5 13.2 8.3 12.4 7.8 10.4 7.8 -0.8 0 -2.2 -0.7 -3.1 -1.5z"/>
  <path d="M349.2 1227.8 c-1.4 -1.4 -1.6 -2.8 -0.3 -2.8 0.9 0 2.4 3 1.8 3.6 -0.2 0.2 -0.9 -0.2 -1.5 -0.8z"/>
  <path d="M1384.3 1224.2 c-14.6 -5.2 -23.3 -18.1 -23.3 -34.4 0 -16.3 11.6 -28.9 26.8 -28.9 6.6 0 20.6 4.1 26.4 7.7 8.2 5.2 13.5 16.9 12.5 27.2 -0.8 7.6 -5.8 17.3 -11.1 21.7 -9.3 7.6 -21.5 10.2 -31.3 6.7z"/>
  <path d="M1289.7 1222.9 c-21 -3.4 -31.1 -30 -18.4 -48.6 1.2 -1.8 2.7 -3.3 3.2 -3.3 0.6 0 1.6 -0.9 2.2 -1.9 0.7 -1 3.5 -2.7 6.4 -3.6 10 -3.4 25.8 0.1 33.5 7.3 3.9 3.6 4.2 4.2 6.3 15.5 l2.2 11.8 -2.4 5.3 c-5.8 12.7 -19.3 19.8 -33 17.5z"/>
  <path d="M685 1220.4 c0 -0.8 0.9 -1.4 2 -1.4 1.1 0 2 0.4 2 0.9 0 0.5 -0.9 1.1 -2 1.4 -1.3 0.3 -2 0 -2 -0.9z"/>
  <path d="M994.3 1221.3 c1 -0.3 1.6 -1 1.4 -1.6 -0.2 -0.6 0.5 -1.9 1.5 -2.9 1 -1 1.6 -2.3 1.3 -2.8 -0.4 -0.6 0.1 -1 0.9 -1 2.1 0 2 0.4 -0.9 5 -1.5 2.3 -3.3 4 -4.3 3.9 -1.5 -0.1 -1.5 -0.2 0.1 -0.6z"/>
  <path d="M344 1219.1 c-0.6 -1.2 -0.7 -2.1 -0.1 -2.1 1 0 2.4 3 1.7 3.7 -0.2 0.3 -0.9 -0.5 -1.6 -1.6z"/>
  <path d="M690.3 1219.7 c0.5 -1.5 3.7 -2.2 3.7 -0.9 0 0.5 -0.9 1.2 -2.1 1.5 -1.3 0.3 -1.9 0.1 -1.6 -0.6z"/>
  <path d="M695.2 1218.8 c0.5 -1.5 2.8 -2.3 2.8 -1 0 0.5 -0.7 1.3 -1.6 1.6 -1 0.4 -1.4 0.1 -1.2 -0.6z"/>
  <path d="M619.5 1217.6 c-2.8 -0.8 -3.6 -1.4 -2.6 -2 0.8 -0.5 1.6 -0.4 2 0.3 0.4 0.6 1.5 0.9 2.3 0.6 0.9 -0.4 1.9 -0.1 2.3 0.4 0.3 0.6 1.1 0.9 1.6 0.6 0.5 -0.4 0.9 -0.1 0.9 0.4 0 1.4 -1.4 1.3 -6.5 -0.3z"/>
  <path d="M699.2 1217.8 c0.3 -0.7 3.8 -2.3 7.9 -3.6 4.1 -1.3 7.8 -2.8 8.4 -3.3 0.5 -0.5 1.6 -0.9 2.5 -0.9 2.1 0 22 -10 22 -11.1 0 -0.5 0.7 -0.9 1.5 -0.9 0.8 0 1.5 -0.4 1.5 -1 0 -0.5 0.7 -1 1.5 -1 0.8 0 1.5 -0.4 1.5 -1 0 -0.5 0.5 -1 1.2 -1 3.5 0 25.1 -19.6 34.1 -31 2.8 -3.6 5.6 -6.8 6.1 -7.1 0.5 -0.4 0.6 -1.1 0.2 -1.7 -0.3 -0.5 0.1 -1.3 1 -1.6 0.8 -0.3 1.2 -1 0.9 -1.6 -0.3 -0.5 0.1 -1 0.9 -1 0.9 0 1.6 0.3 1.6 0.6 0 2.2 -11.3 15.8 -21.9 26.4 -19.6 19.5 -39.8 32.1 -63.9 39.6 -4.4 1.4 -7.2 1.8 -7 1.2z"/>
  <path d="M341 1214.1 c-0.6 -1.2 -0.7 -2.1 -0.1 -2.1 1 0 2.4 3 1.7 3.7 -0.2 0.3 -0.9 -0.5 -1.6 -1.6z"/>
  <path d="M606 1213 c-0.8 -0.5 -1.1 -1.3 -0.6 -1.7 0.5 -0.4 1.1 -0.2 1.3 0.5 0.3 0.6 0.9 1 1.4 0.6 0.5 -0.3 0.9 0 0.9 0.5 0 1.3 -1 1.4 -3 0.1z"/>
  <path d="M337 1207.1 c-0.6 -1.2 -0.7 -2.1 -0.1 -2.1 1 0 2.4 3 1.7 3.7 -0.2 0.3 -0.9 -0.5 -1.6 -1.6z"/>
  <path d="M1002 1208 c0.8 -0.5 1.2 -1 0.8 -1 -0.5 0 0 -0.8 1.1 -1.9 1 -1 2.1 -2.5 2.3 -3.2 0.3 -0.8 0.8 -1.1 1.2 -0.8 1.1 1 -3.5 7.9 -5.2 7.9 -1.5 0 -1.5 -0.2 -0.2 -1z"/>
  <path d="M580.5 1199.4 c-5.5 -3.5 -13.3 -9.3 -17.5 -13 -7.3 -6.5 -20.3 -20.5 -19.6 -21.1 0.2 -0.2 6.1 5.4 13.2 12.5 11.4 11.3 20.4 18.4 33 25.8 1 0.7 1.7 1.4 1.4 1.6 -0.3 0.3 -5 -2.3 -10.5 -5.8z"/>
  <path d="M1006.8 1199.4 c0.6 -0.3 1 -1 0.6 -1.5 -0.3 -0.5 0.2 -0.9 1.1 -0.9 2.3 0 1.3 2.4 -1.1 2.7 -1 0.2 -1.3 0 -0.6 -0.3z"/>
  <path d="M935 1188.6 c0 -0.8 0.4 -1.7 0.9 -2 0.5 -0.3 2.8 -3.7 5.1 -7.6 2.4 -3.9 4.5 -6.9 4.7 -6.6 0.5 0.5 -9.6 17.6 -10.3 17.6 -0.2 0 -0.4 -0.6 -0.4 -1.4z"/>
  <path d="M1457.4 1176.7 c-5.9 -2.8 -11.7 -8.5 -14.7 -14.2 -2.9 -5.6 -3.5 -17.6 -1.2 -24.4 1.7 -5.3 8.4 -14.8 11.2 -15.8 0.9 -0.4 2.4 -1.4 3.4 -2.4 5.5 -5.5 22.9 -6.5 31.2 -1.6 5.5 3.2 10.3 8.7 13.1 14.6 3.2 7 2.9 18.8 -0.5 26.2 -3.5 7.3 -8.5 12.8 -15.1 16.4 -4.4 2.4 -6.7 3 -13.8 3.3 -7.4 0.3 -9.2 0 -13.6 -2.1z"/>
  <path d="M1216.5 1158.7 c-15.9 -5.3 -24.7 -17.3 -24.8 -33.7 -0.1 -6 0.4 -8.6 2.5 -13.1 3.2 -6.9 7.8 -12.2 13.7 -15.7 4.1 -2.4 5.6 -2.7 13.6 -2.7 8.7 0 9.3 0.2 18 4.5 7.2 3.6 9.7 5.5 12.6 9.4 15.3 20.3 0.8 50.2 -25.3 52.1 -3.8 0.3 -7.9 0 -10.3 -0.8z"/>
  <path d="M536.3 1155.8 c-1.8 -2.4 -2.4 -3.8 -1.6 -3.8 1 0 3.6 4 3 4.6 -0.2 0.3 -0.9 -0.1 -1.4 -0.8z"/>
  <path d="M640.7 1152.9 c-32.2 -7.9 -56.2 -33.3 -62.4 -66.4 -2.1 -11 -1.3 -31.2 1.7 -41.5 2.4 -8.5 8.8 -22.4 13.2 -28.7 2.8 -4.1 19.2 -21.3 20.3 -21.3 0.3 0 1.3 -0.8 2.4 -1.7 3.9 -3.7 6.8 -5.6 14.6 -9.3 l8 -3.9 17.3 0 c19.8 0 29.8 1.4 40.9 6.1 24.1 10 41.5 30.3 48.4 56.3 3 11.5 3.1 30.7 0.1 42.9 -7.6 30.8 -30.6 56.2 -59.2 65.4 -14.6 4.7 -31.6 5.5 -45.3 2.1z"/>
  <path d="M794.7 1145.4 c-0.6 -1 0.9 -4.2 1.6 -3.4 0.3 0.3 0.1 1.4 -0.3 2.4 -0.3 1.1 -0.9 1.5 -1.3 1z"/>
  <path d="M376.1 1138.6 c-0.7 -0.8 -0.8 -1.7 -0.3 -2 0.6 -0.3 1.3 0.1 1.6 1 0.9 2.3 0.2 2.8 -1.3 1z"/>
  <path d="M1500.7 1099.9 c-14.2 -3.4 -24 -15.6 -23.9 -29.9 0 -7.7 4.3 -19.3 9.6 -26.3 13.5 -17.7 40.3 -14.1 50.6 6.8 2.1 4.2 2.5 6.4 2.5 14.5 0 8.2 -0.4 10.3 -2.6 15.1 -1.5 3.1 -4.3 7.5 -6.4 9.8 -6.9 7.6 -20.6 12.3 -29.8 10z"/>
  <path d="M1168.3 1082 c-6.4 -1.3 -12.4 -4.8 -17.5 -10.2 -15.2 -15.9 -10.6 -43.8 8.7 -53.3 5.9 -2.9 21.7 -2.7 30 0.5 16.6 6.4 24.1 26.1 16.3 43.1 -6.3 13.8 -23.3 22.8 -37.5 19.9z"/>
  <path d="M1520 1001.6 c-7.1 -1.6 -10.7 -3.5 -15.7 -8.6 -6 -6 -8.7 -12.1 -9.1 -20.8 -0.9 -16.1 8.5 -26.8 27.9 -31.8 16.7 -4.3 33.2 8.1 34.7 26.1 1.7 21.8 -17.5 39.7 -37.8 35.1z"/>
  <path d="M801.6 1000.4 c-1.8 -1.7 -2 -2.4 -0.8 -2.4 0.4 0 1.3 0.9 2 2 1.5 2.4 0.9 2.6 -1.2 0.4z"/>
  <path d="M1123.1 995.9 c-1.8 -0.6 -5 -2.1 -7 -3.3 -13.8 -8.9 -19.4 -26.6 -12.8 -40.9 1.4 -3.1 3.1 -5.7 3.7 -5.7 0.6 0 0.9 -0.4 0.6 -0.9 -0.9 -1.3 7.5 -8.6 13.6 -11.8 7.2 -3.8 18.9 -4 26 -0.5 20.9 10.3 24.6 37.5 7.3 54.8 -8.1 8.2 -20.4 11.4 -31.4 8.3z"/>
  <path d="M799 995 c-0.8 -0.5 -1 -1 -0.5 -1 0.6 0 0.3 -0.5 -0.5 -1 -0.9 -0.6 -1 -1 -0.3 -1 0.7 0 1.7 0.9 2.3 2 1.2 2.3 1.1 2.4 -1 1z"/>
  <path d="M795.6 989.4 c-0.4 -1 -0.1 -1.4 0.6 -1.2 1.5 0.5 2.3 2.8 1 2.8 -0.5 0 -1.3 -0.7 -1.6 -1.6z"/>
  <path d="M545 974.5 c0 -0.4 1.5 -2.6 3.4 -4.9 1.8 -2.3 3.4 -4.3 3.4 -4.6 0.2 -1 10.2 -11 11.1 -11 0.5 0 2.1 -1.3 3.4 -3 1.4 -1.6 3.2 -3 4 -3 0.8 0 1.7 -0.7 2.1 -1.5 0.3 -0.8 1.2 -1.5 2 -1.5 0.8 0 1.6 -0.6 1.9 -1.2 0.2 -0.7 0.7 -1 1.1 -0.7 0.4 0.3 -1.9 2.5 -4.9 4.8 -6.4 4.8 -18.4 16.4 -23.8 23 -2.1 2.5 -3.7 4.1 -3.7 3.6z"/>
  <path d="M782 968.9 c-6.5 -8.7 -25 -26.4 -31.8 -30.4 -1.8 -1.1 -3.2 -2.3 -3.2 -2.7 0 -0.4 -0.6 -0.8 -1.3 -0.8 -0.8 0 -2.4 -0.9 -3.7 -2 -1.3 -1.1 -2.9 -2 -3.5 -2 -0.7 0 -1.5 -0.6 -1.8 -1.4 -0.7 -1.8 6.9 2.5 16.3 9.2 8 5.7 23.5 20.5 30.1 28.8 2.7 3.4 4.9 6.5 4.9 6.8 0 1.7 -1.9 -0.1 -6 -5.5z"/>
  <path d="M601.2 929.8 c0.5 -1.5 2.8 -2.3 2.8 -1 0 0.5 -0.7 1.3 -1.6 1.6 -1 0.4 -1.4 0.1 -1.2 -0.6z"/>
  <path d="M606.2 927.8 c0.5 -1.5 2.8 -2.3 2.8 -1 0 0.5 -0.7 1.3 -1.6 1.6 -1 0.4 -1.4 0.1 -1.2 -0.6z"/>
  <path d="M611 925.9 c0 -0.5 1.2 -1.4 2.6 -1.9 3.1 -1.2 3.4 -1.2 3.4 -0.1 0 0.5 -1.3 1.4 -3 2 -1.9 0.6 -3 0.6 -3 0z"/>
  <path d="M627 920.9 c0 -0.5 0.8 -1.3 1.8 -1.6 0.9 -0.4 2.5 -1.4 3.4 -2.3 3.5 -3.2 20.8 -7.6 20.8 -5.2 0 0.5 -2 1.2 -4.5 1.4 -2.5 0.3 -8.3 2.4 -13 4.6 -4.7 2.3 -8.5 3.7 -8.5 3.1z"/>
  <path d="M1513.7 916.5 c-13.6 -5.2 -22.9 -20.2 -21.3 -34.5 0.9 -7.6 5.7 -17.2 11 -21.5 9.6 -7.8 18.4 -8.6 32.8 -2.8 10.1 4 15.8 8.7 19.3 15.8 3 5.9 2.8 19.3 -0.2 25.5 -3 6 -9.6 12.6 -15.8 15.8 -6.2 3.2 -19.6 4.1 -25.8 1.7z"/>
  <path d="M1078.4 909 c-15.6 -6.2 -23.3 -23.6 -17.4 -39.4 2.6 -6.8 12 -16.9 19.2 -20.8 6.1 -3.3 19.4 -3.3 25.5 0 19.4 10.3 22.9 37 6.8 52.7 -6.3 6.1 -12.5 8.7 -21.5 9.2 -5.8 0.2 -8.7 -0.1 -12.6 -1.7z"/>
  <path d="M952.8 890.9 c-4.2 -8.2 -4.9 -9.9 -4 -9.9 1 0 8.5 15.1 7.8 15.7 -0.3 0.3 -2 -2.4 -3.8 -5.8z"/>
  <path d="M1024 884.1 c-0.7 -1.5 -0.7 -2.1 0 -2.1 1.2 0 2.5 2.8 1.7 3.6 -0.3 0.3 -1 -0.4 -1.7 -1.5z"/>
  <path d="M1022.1 879.2 c-0.6 -1.1 -0.7 -2.2 -0.4 -2.6 0.3 -0.3 0.1 -0.6 -0.5 -0.6 -0.7 0 -1.2 -0.4 -1.2 -1 0 -2.1 1.8 -0.9 3 2 1.4 3.5 0.7 5.2 -0.9 2.2z"/>
  <path d="M945.2 876.8 c-0.7 -0.7 -1.2 -1.6 -1.2 -2.1 0 -1.8 -19 -29.4 -27.5 -40 -16.7 -20.8 -39.7 -41.9 -63.1 -58.2 -6 -4.1 -11.7 -8.1 -12.7 -8.8 -7.7 -5.3 -37.9 -20.1 -51.4 -25.2 -5.7 -2.1 -10.3 -4.2 -10.3 -4.7 0 -1.2 -0.4 -1.3 14.2 4.6 55 22.1 102.8 59.6 136.5 107.2 11.8 16.6 20.8 32.5 15.5 27.2z"/>
  <path d="M1017.6 869.3 c-0.9 -1.8 -1.2 -3.3 -0.7 -3.3 1.3 0 3.3 3.8 2.8 5.3 -0.2 0.7 -1.1 -0.3 -2.1 -2z"/>
  <path d="M1014.6 863.4 c-0.4 -1 -0.1 -1.4 0.6 -1.2 1.5 0.5 2.3 2.8 1 2.8 -0.5 0 -1.3 -0.7 -1.6 -1.6z"/>
  <path d="M409.9 852.9 c-1.2 -0.7 -1.1 -0.9 0.3 -0.9 0.9 0 1.8 -0.6 2.1 -1.2 0.2 -0.7 0.7 -1.1 1 -0.8 0.3 0.3 0 1.3 -0.7 2.2 -0.8 1.1 -1.7 1.4 -2.7 0.7z"/>
  <path d="M1003.8 842.5 c-2 -3.6 -3.3 -6.5 -2.8 -6.5 0.8 0 8 11.3 8 12.6 0 1.8 -2.1 -0.6 -5.2 -6.1z"/>
  <path d="M342 845.5 c0 -1.5 1.8 -4 2.4 -3.4 0.3 0.3 -0.1 1.4 -0.9 2.5 -0.8 1 -1.4 1.5 -1.5 0.9z"/>
  <path d="M421 838.3 c0 -1.3 2.9 -3.8 3.5 -3.1 0.3 0.3 -0.4 1.3 -1.5 2.3 -1.1 1 -2 1.3 -2 0.8z"/>
  <path d="M1512.3 834.2 c-11.1 -4 -18 -11.2 -20.8 -21.9 -5.1 -19.1 9.1 -37.7 28.5 -37.5 15.6 0.2 28.8 8.8 33 21.5 1.8 5.7 0.9 16.3 -1.9 21.9 -7 13.7 -24.7 21.1 -38.8 16z"/>
  <path d="M994 826.3 c-6.3 -10 -6.5 -10.3 -5.3 -10.3 0.4 0 3.1 3.7 5.9 8.3 6.6 10.5 6.7 10.7 5.7 10.7 -0.4 0 -3.3 -3.9 -6.3 -8.7z"/>
  <path d="M425 833.4 c0 -0.6 0.9 -1.9 2 -2.9 1.1 -1 1.8 -2 1.6 -2.2 -0.2 -0.3 1.3 -2.1 3.5 -4 2.2 -2 3.8 -3.7 3.6 -3.9 -0.3 -0.4 25.4 -26.4 26.1 -26.4 0.5 0 14.6 -12.1 15.8 -13.6 0.6 -0.8 1.4 -1.4 1.8 -1.4 0.3 0 3.9 -2.4 7.9 -5.3 11.6 -8.6 21.7 -15.1 22.4 -14.4 0.3 0.4 0.4 0.8 0.2 1 -0.2 0.2 -3.5 2.3 -7.3 4.7 -6.2 4 -17.3 11.9 -21.6 15.3 -20 16.1 -35.2 30.5 -50.3 47.7 -3.1 3.6 -5.7 6 -5.7 5.4z"/>
  <path d="M352 828.5 c0 -0.5 1.1 -2.3 2.5 -4 1.3 -1.6 2.4 -2.5 2.5 -2 0 0.6 -1.1 2.4 -2.5 4 -1.3 1.7 -2.4 2.6 -2.5 2z"/>
  <path d="M1038.5 825.7 c-9.4 -3.2 -16.6 -9.3 -20.6 -17.5 -3.2 -6.6 -3.7 -17.4 -1.3 -24.3 2.4 -6.6 9 -14 15.2 -17.1 4 -1.9 6.1 -2.3 13.7 -2.2 11.1 0.2 18.9 2.9 25.3 8.7 6.2 5.8 8.4 10.7 9 19.8 0.4 6.7 0.1 8.3 -2.3 13.6 -3.3 7.5 -9.2 13.4 -16.9 16.9 -6.9 3.1 -16.2 4 -22.1 2.1z"/>
  <path d="M358 820.6 c0 -0.7 3.1 -5.8 4 -6.6 0.3 -0.3 1.7 -2.1 3 -4 1.3 -1.9 2.7 -3.7 3.1 -4 0.4 -0.3 0.9 -1.2 1.1 -2 0.2 -0.8 1.3 -2.3 2.6 -3.3 1.2 -1 2 -2.3 1.7 -2.8 -0.4 -0.5 -0.1 -0.9 0.5 -0.9 0.7 0 2.2 -1.2 3.3 -2.7 1.2 -1.6 3.9 -4.7 6.1 -7 2.1 -2.4 3.7 -4.3 3.4 -4.3 -0.2 0 5.5 -5.8 12.6 -13 7.2 -7.1 13.3 -13 13.7 -13 0.4 0 2.1 -1.6 3.8 -3.5 1.7 -1.9 3.3 -3.5 3.7 -3.5 0.3 0 3.9 -2.8 8 -6.1 4.1 -3.4 7.7 -6 7.9 -5.7 0.3 0.3 -4.1 4.3 -9.7 8.9 -21.1 17.2 -44 41.2 -60.6 63.4 -8.5 11.4 -8.2 11.1 -8.2 10.1z"/>
  <path d="M981.1 807.3 c-24.5 -34.4 -59.5 -67.8 -95.6 -91.4 -6.6 -4.3 -12.5 -8.3 -13.2 -8.9 -0.7 -0.5 -1.5 -1 -1.8 -1 -1.5 0 -11.7 -6.4 -10.7 -6.8 1.3 -0.4 13.7 6.9 27.7 16.2 29 19.3 57.3 44.6 79.2 70.9 8 9.7 21.3 27.2 21.3 28.1 0 1.8 -2.1 -0.4 -6.9 -7.1z"/>
  <path d="M511 758.2 c0 -1 25.1 -13.4 25.8 -12.8 0.8 0.8 0.9 0.8 -12.5 7.5 -12.8 6.4 -13.3 6.6 -13.3 5.3z"/>
  <path d="M1582.2 749.8 c-15.3 -2.4 -22.6 -10 -50.9 -52.4 -11.9 -17.9 -22.3 -32.8 -23.1 -33.1 -0.8 -0.4 -12.2 10.3 -30 27.9 -28.4 28.1 -37.9 36.6 -47.8 42.7 -23.4 14.2 -49.2 0.2 -47.1 -25.7 0.4 -4.8 1.5 -8.5 4.5 -14.6 6.3 -12.6 18.3 -26.4 56.1 -64.9 l23.4 -23.7 -3.1 -4.3 c-15.9 -21.1 -46 -71.8 -51.7 -87.2 -3.1 -8.2 -4.1 -17 -2.5 -23.4 0.7 -2.8 1.6 -5.1 2.2 -5.1 0.5 0 0.6 -0.4 0.3 -1 -0.3 -0.5 -0.1 -1 0.5 -1 0.6 0 0.9 -0.4 0.5 -0.9 -0.3 -0.6 0.4 -1.5 1.5 -2.1 1.1 -0.6 1.8 -1.5 1.5 -2.1 -0.4 -0.5 0.1 -0.9 1 -0.9 0.8 0 1.8 -0.6 2.1 -1.4 0.8 -2.2 7.9 -4.6 13.4 -4.6 6.3 0 12.9 2.5 20.8 7.9 13.4 9 24.5 21.4 39.2 43.6 13.2 19.9 22.5 32.5 24 32.5 1.5 0 18.8 -17.2 50.5 -50.1 12.7 -13.1 16.1 -16.1 21.8 -18.9 5.7 -2.8 7.9 -3.3 14 -3.4 10.5 -0.1 16.8 2.4 23.8 9.3 7.5 7.6 10.3 14.6 9.7 25.1 -0.5 9.4 -3.7 16.7 -11.3 26.1 -3 3.7 -19 20.5 -35.7 37.4 -21.2 21.6 -30.3 31.4 -30.2 32.9 0.1 1.7 26.3 41.4 52.7 79.9 6.1 8.8 8.1 15.7 7.5 25.6 -1.2 19.7 -17.9 33 -37.6 29.9z"/>
  <path d="M539 744.9 c0 -1.1 5.1 -3.7 19.5 -9.7 14.1 -5.9 16.5 -6.7 16.5 -5.4 0 0.5 -2.8 2 -6.2 3.3 -3.5 1.2 -11.6 4.6 -18 7.5 -6.5 2.8 -11.8 4.8 -11.8 4.3z"/>
  <path d="M765.1 734.4 c-1.8 -0.8 -3.1 -1.7 -2.8 -2 0.7 -0.8 8.7 1.8 8.7 2.8 0 1.1 -1.9 0.9 -5.9 -0.8z"/>
  <path d="M980.1 733.9 c-13.4 -2.6 -22.5 -12.4 -25.2 -27 -2.7 -14.8 6 -30.4 20.3 -36.3 17 -7.1 38.2 3.2 42.9 20.9 1.7 6.1 0.7 17.2 -2.1 23 -1.3 2.8 -2.4 5.4 -2.4 5.8 -0.1 0.4 -0.6 1.1 -1.2 1.5 -0.6 0.4 -1.4 1.5 -1.7 2.5 -0.4 1.1 -1.6 2.1 -2.7 2.4 -1.1 0.3 -2 0.9 -2 1.4 0 2 -17.1 7.5 -20.9 6.8 -0.3 -0.1 -2.6 -0.5 -5 -1z"/>
  <path d="M446.6 730.5 c0.3 -0.8 1.9 -2 3.5 -2.7 1.6 -0.7 2.9 -1.6 2.9 -2 0 -0.5 0.5 -0.8 1 -0.8 0.6 0 2 -0.9 3.2 -2 2.5 -2.3 5 -2.8 2.8 -0.6 -2.8 2.8 -13.9 9.5 -13.4 8.1z"/>
  <path d="M741.8 728.6 c-10.3 -2.3 -12.6 -3.2 -7.8 -3.4 1.6 0 3.2 0.3 3.5 0.8 0.3 0.5 1.2 0.7 1.9 0.4 0.8 -0.3 1.7 0 2.1 0.5 0.3 0.6 1 0.9 1.5 0.6 1.2 -0.8 10 1.5 10 2.6 0 1.1 0.7 1.2 -11.2 -1.5z"/>
  <path d="M578.2 728.8 c0.5 -1.5 2.8 -2.3 2.8 -1 0 0.5 -0.7 1.3 -1.6 1.6 -1 0.4 -1.4 0.1 -1.2 -0.6z"/>
  <path d="M588.8 729.3 c-2.1 -0.2 -3.8 -1 -3.8 -1.6 0 -0.9 3.6 -1.2 13 -1.2 7.2 0 13 0.3 13 0.6 0 1.3 -15.9 2.9 -22.2 2.2z"/>
  <path d="M612 726.2 c0 -1.1 8.8 -2.7 9.8 -1.8 1 1 -0.3 1.6 -5.1 2.2 -3 0.4 -4.7 0.3 -4.7 -0.4z"/>
  <path d="M724.3 725.3 c-1.3 -0.2 -2.3 -0.9 -2.3 -1.4 0 -1.4 2.6 -1.1 4 0.6 0.7 0.8 1.1 1.4 0.9 1.4 -0.2 -0.1 -1.4 -0.4 -2.6 -0.6z"/>
  <path d="M623 724 c0 -0.5 1.1 -1 2.5 -1 1.4 0 2.5 0.5 2.5 1 0 0.6 -1.1 1 -2.5 1 -1.4 0 -2.5 -0.4 -2.5 -1z"/>
  <path d="M630 723 c0 -0.5 0.9 -1 2 -1 1.1 0 2 0.5 2 1 0 0.6 -0.9 1 -2 1 -1.1 0 -2 -0.4 -2 -1z"/>
  <path d="M640 722 c0 -0.5 0.7 -1 1.5 -1 0.8 0 1.5 0.5 1.5 1 0 0.6 -0.7 1 -1.5 1 -0.8 0 -1.5 -0.4 -1.5 -1z"/>
  <path d="M651 721 c0 -0.5 0.9 -1 2 -1 1.1 0 2 0.5 2 1 0 0.6 -0.9 1 -2 1 -1.1 0 -2 -0.4 -2 -1z"/>
  <path d="M464 719 c0 -0.5 0.5 -1 1.1 -1 0.6 0 1.7 -0.7 2.5 -1.5 0.9 -0.8 2.1 -1.5 2.7 -1.5 0.7 0.1 -0.1 1.2 -1.8 2.5 -3.2 2.7 -4.5 3.1 -4.5 1.5z"/>
  <path d="M472 714.3 c0 -0.8 2.8 -2.5 8.3 -5.1 0.4 -0.2 0.7 0 0.7 0.5 0 0.8 -2.8 2.5 -8.2 5.1 -0.5 0.2 -0.8 0 -0.8 -0.5z"/>
  <path d="M484 707.1 c0 -1.1 3.1 -2.4 3.9 -1.6 0.3 0.3 -0.1 1 -0.9 1.5 -1.9 1.2 -3 1.2 -3 0.1z"/>
  <path d="M491 703.1 c0 -1.1 3.1 -2.4 3.9 -1.6 0.3 0.3 -0.1 1 -0.9 1.5 -1.9 1.2 -3 1.2 -3 0.1z"/>
  <path d="M501 698 c0 -1.4 12.1 -7.3 13 -6.3 0.4 0.4 -2.3 2.2 -6.1 4 -3.8 1.8 -6.9 2.8 -6.9 2.3z"/>
  <path d="M837.3 688.7 c-6.2 -2.8 -11.3 -5.5 -11.3 -5.9 0 -1.3 1.8 -0.9 3.4 0.8 0.9 0.8 1.6 1.3 1.6 0.9 0 -0.3 1.2 0.1 2.8 0.9 5.5 3 11.9 5.6 13.5 5.6 0.9 0 1.7 0.7 1.7 1.5 0 0.8 -0.1 1.5 -0.2 1.5 -0.2 0 -5.4 -2.4 -11.5 -5.3z"/>
  <path d="M518.2 689.8 c0.5 -1.5 2.8 -2.3 2.8 -1 0 0.5 -0.7 1.3 -1.6 1.6 -1 0.4 -1.4 0.1 -1.2 -0.6z"/>
  <path d="M523.2 687.8 c0.5 -1.5 2.8 -2.3 2.8 -1 0 0.5 -0.7 1.3 -1.6 1.6 -1 0.4 -1.4 0.1 -1.2 -0.6z"/>
  <path d="M528 685.9 c0 -0.5 1.2 -1.4 2.6 -1.9 3.1 -1.2 3.4 -1.2 3.4 -0.1 0 0.5 -1.3 1.4 -3 2 -1.9 0.6 -3 0.6 -3 0z"/>
  <path d="M539 682 c0 -1.5 2.1 -2.3 3.2 -1.2 0.6 0.6 0.2 1.1 -1.1 1.5 -1.2 0.3 -2.1 0.1 -2.1 -0.3z"/>
  <path d="M820.9 681.1 l-2.4 -2 2.3 0.6 c1.2 0.3 2.2 1 2.2 1.5 0 0.5 0.5 0.6 1 0.3 0.6 -0.3 1 -0.1 1 0.4 0 1.6 -1.5 1.3 -4.1 -0.8z"/>
  <path d="M549 678.5 c0 -0.5 2.4 -1.6 6.8 -2.9 3.5 -1.1 2.6 1.1 -0.9 2.3 -3.4 1.2 -5.9 1.4 -5.9 0.6z"/>
  <path d="M559 676 c0 -1.5 2.1 -2.3 3.2 -1.2 0.6 0.6 0.2 1.1 -1.1 1.5 -1.2 0.3 -2.1 0.1 -2.1 -0.3z"/>
  <path d="M807.3 676.3 c-0.7 -0.2 -1.3 -0.9 -1.3 -1.5 0 -0.7 0.5 -0.7 1.3 0.1 0.8 0.6 1.7 0.8 2 0.4 0.4 -0.3 0.7 -0.1 0.7 0.5 0 1.3 -0.7 1.4 -2.7 0.5z"/>
  <path d="M565 673.9 c0 -0.5 0.8 -1.3 1.8 -1.6 0.9 -0.4 2.5 -1.7 3.5 -3 1 -1.2 4.6 -3.6 8 -5.3 8.6 -4.2 29.6 -8.6 26.6 -5.6 -0.3 0.3 -3.5 1 -7.2 1.6 -9.4 1.5 -16.6 4.4 -23.4 9.4 -6.4 4.6 -9.3 6.1 -9.3 4.5z"/>
  <path d="M606 657 c0 -0.5 0.9 -1 2 -1 1.1 0 2 0.5 2 1 0 0.6 -0.9 1 -2 1 -1.1 0 -2 -0.4 -2 -1z"/>
  <path d="M612 656 c0 -0.5 1.1 -1 2.5 -1 1.4 0 2.5 0.5 2.5 1 0 0.6 -1.1 1 -2.5 1 -1.4 0 -2.5 -0.4 -2.5 -1z"/>
  <path d="M732 656 c0 -0.5 0.7 -1 1.5 -1 0.8 0 1.5 0.5 1.5 1 0 0.6 -0.7 1 -1.5 1 -0.8 0 -1.5 -0.4 -1.5 -1z"/>
  <path d="M618.5 655 c0.3 -0.5 1.7 -1 3.1 -1 1.3 0 2.4 0.5 2.4 1 0 0.6 -1.4 1 -3.1 1 -1.7 0 -2.8 -0.4 -2.4 -1z"/>
  <path d="M652.5 652 c0.3 -0.5 1.2 -1 2 -1 0.8 0 1.7 0.5 2 1 0.4 0.6 -0.5 1 -2 1 -1.5 0 -2.4 -0.4 -2 -1z"/>
  <path d="M612.3 648.3 c-10.5 -4.4 -21.1 -15.5 -23.9 -25.2 -8.4 -28.4 24.2 -51.1 51.9 -36.3 15.1 8.1 21.4 27.2 14.3 42.9 -3.2 7 -9.7 13.8 -16.7 17.4 -6 3.1 -19.5 3.7 -25.6 1.2z"/>
  <path d="M910.5 647.7 c-9.9 -3.3 -16.2 -9 -20.8 -18.5 -2.7 -5.8 -2.9 -7 -2.5 -14.5 0.5 -9.6 3.6 -16.5 10.1 -22.4 6.8 -6.1 13.9 -8.8 23.2 -8.8 7.1 0.1 8.7 0.4 14.3 3.4 3.5 1.9 7.5 4.8 8.9 6.5 10 11.9 10.2 30.2 0.5 43.1 -7.2 9.6 -22.9 14.7 -33.7 11.2z"/>
  <path d="M713 616.1 c-9.3 -2.9 -16.8 -9.6 -21.4 -19.1 -2.8 -5.9 -3.1 -7.4 -3.1 -16.5 0 -8.5 0.4 -10.7 2.4 -14.5 3.2 -6.1 9.6 -12.6 15.6 -15.8 4.4 -2.4 6.1 -2.7 14.5 -2.7 11.6 0 16.8 2.2 24.7 10.2 6.8 6.9 9.6 14 9.7 24.8 0.1 7.2 -0.3 8.8 -3.2 14.7 -6.1 12.4 -17.6 19.9 -30.5 19.7 -3.4 0 -7.3 -0.4 -8.7 -0.8z"/>
  <path d="M815 610.6 c-9 -2.4 -16.4 -8.8 -20.4 -17.5 -3.2 -7.1 -2.9 -19.8 0.6 -27.2 4.9 -10.7 15.6 -18.4 27.1 -19.6 4.1 -0.4 5.6 -0.2 6.6 1.1 0.7 0.9 1.9 1.6 2.7 1.6 0.7 0 1.9 0.8 2.6 1.8 1.4 1.8 6.2 5 9 5.9 1.1 0.3 2.2 2.3 2.8 4.7 0.6 2.2 1.5 5.1 2 6.4 1.1 2.5 1.4 31.1 0.4 36 -0.4 2 -1.4 3.2 -2.8 3.5 -1.1 0.3 -4.6 1.5 -7.6 2.6 -6.3 2.3 -16 2.6 -23 0.7z"/>
 </g>
</svg>