<?xml version="1.0" encoding="utf-8"?>
<!DOCTYPE svg PUBLIC "-//W3C//DTD SVG 1.0//EN" "http://www.w3.org/TR/2001/REC-SVG-20010904/DTD/svg10.dtd">
<svg version="1.0" xmlns="http://www.w3.org/2000/svg" width="1924px" height="1924px" viewBox="0 0 1924 1924" preserveAspectRatio="xMidYMid meet">
 <g fill="#2b3f45">
  <path d="M370 1797.5 c-15 -1.2 -17.5 -1.7 -27.5 -5.2 -14.5 -5.2 -15.1 -5.6 -17 -10.6 -1.5 -4.1 -1.6 -11.3 -0.6 -94.3 0.5 -49.4 1 -107.3 1.1 -128.5 0.1 -44.3 0.9 -57.5 3.4 -61.4 4 -6.1 -4.1 -5.8 145.1 -5.2 81.9 0.4 137.6 1 139.9 1.6 2.2 0.5 5.3 2.4 7 4.1 l3.1 3.1 -0.3 67.4 -0.4 67.5 2.1 0 c2 0 2.1 0.5 2.1 11.4 0 10.2 -0.2 11.4 -1.9 11.9 -1.7 0.4 -1.8 3.1 -2.3 59.3 -0.6 63.1 -0.6 63.3 -5.7 67.9 -1.8 1.6 -4.3 2.1 -12.9 2.6 -5.9 0.3 -12 1.2 -13.7 1.8 -2.1 0.9 -13.1 1.4 -38 1.7 -19.2 0.3 -42.9 0.9 -52.5 1.4 -9.6 0.6 -26.5 1.4 -37.5 2 -11 0.6 -28.5 1.5 -39 2 -22.9 1.2 -32.9 1.1 -54.5 -0.5z"/>
  <path d="M1246 1044 c-24.5 -0.5 -109.5 -2 -189 -3.5 -199.5 -3.6 -203.8 -3.7 -207.7 -5.8 -6.2 -3.3 -6.3 -3.8 -9.9 -56.7 -4.2 -61 -4 -59.3 -6.5 -58.7 -1.4 0.4 -1.9 0 -1.9 -1.6 -0.1 -1.2 -0.5 -6.9 -0.9 -12.6 -0.9 -9.8 -0.8 -10.5 1.1 -12 2 -1.7 2 -1.7 -0.6 -39.6 -4.4 -63.9 -4.6 -67.3 -4.6 -78.1 0 -14.5 2.4 -18.4 11.5 -18.4 2.4 0 3.8 -0.6 4.5 -2 1.7 -3.3 6.7 -5.1 16.3 -6.1 10.8 -1 207.9 -16.5 311.7 -24.4 39.9 -3 81.3 -6.2 92 -7 28.3 -2.2 36 -2 39.5 0.7 4.6 3.6 5.5 7.3 5.5 23 0 13.9 2.1 96.5 5.7 228.5 1.6 59.9 1.6 64.5 0 67.7 -2.2 4.8 -6.7 6.9 -15.2 7.2 -3.8 0.1 -27 -0.2 -51.5 -0.6z"/>
  <path d="M365.5 562.4 c-35.5 -3.6 -64.2 -11.5 -91.4 -25 -23.8 -11.8 -39 -22.5 -57.5 -40.4 -32.8 -31.8 -52.6 -69.2 -60.8 -115 -2 -11.5 -1.7 -49.9 0.5 -62 4 -21.5 10 -39.7 19.4 -58.5 30.9 -61.9 93 -108.5 163.6 -122.9 19 -3.9 31.2 -4.9 51.5 -4.4 13.9 0.4 19.4 0.1 22.4 -0.9 3.1 -1.1 5.7 -1.1 12.6 -0.3 72.4 8.9 136.3 49.1 171.2 107.7 18.6 31.2 28 65.4 28 102 0 13.7 0.1 14.3 2 14.3 2.2 0 2.2 1.1 -0.1 16.5 -0.5 3.3 -0.9 6.3 -0.9 6.8 0 0.4 -1 0.7 -2.3 0.7 -2 0 -2.5 0.8 -4.1 7.8 -2.7 11.8 -8.2 27.5 -14.1 39.9 -33.4 70.5 -101.4 118.8 -185.5 131.8 -10 1.6 -45.7 2.8 -54.5 1.9z"/>
  <path d="M1445 493.3 c-1.9 -1 -4.3 -3.4 -5.5 -5.3 -2 -3.5 -2 -4.6 -2.2 -161.7 l-0.2 -158.2 2.5 -3 c1.4 -1.7 4.2 -3.5 6.2 -4 5.6 -1.4 308.8 -3.5 313.9 -2.2 4.4 1.2 7.6 4.1 9.3 8.6 0.9 2.2 1.5 45.3 2.2 158.1 1.1 151.7 1.1 155.2 -0.8 159 -1 2.1 -3.3 4.8 -5.1 6 -3.1 2.1 -4.7 2.2 -38 2.8 -19.1 0.3 -89.7 0.8 -156.8 1.2 -116.6 0.5 -122.2 0.5 -125.5 -1.3z"/>
 </g>
 <g fill="#abecfd">
  <path d="M1328.5 1788 c-59.9 -6 -114.9 -28 -160.7 -64.1 -15 -11.9 -39.7 -37.1 -50.8 -52.1 -32.2 -43 -50.2 -87.3 -57.6 -141.8 -2.4 -17.1 -2.4 -51.7 0 -69.5 11.5 -85.7 54.5 -158.4 123.6 -208.7 49.3 -35.8 112.5 -57.8 166.8 -57.8 10.6 0 15.9 -0.5 19.1 -1.6 3.8 -1.3 6.4 -1.4 17.5 -0.4 44.1 3.7 76.5 12.3 114.1 30.4 44.2 21.3 81 52.1 109.6 91.6 57.7 79.6 71 182.8 35.8 276.5 -21.1 55.9 -60.1 106.3 -109.5 141.2 -40.4 28.5 -85.4 46.5 -136.9 54.5 -14.9 2.3 -55.6 3.3 -71 1.8z"/>
  <path d="M625 1647.6 c0 -6.4 0.2 -11.6 0.4 -11.6 0.2 0 10.9 -2.3 23.7 -5.1 27.7 -6 107.1 -22.3 244.4 -50 55 -11.1 100.3 -20.5 100.7 -20.8 0.4 -0.3 -7.7 -5 -18 -10.5 -10.3 -5.4 -20.2 -11.2 -21.9 -12.9 -4 -3.8 -5 -8.1 -2.9 -13.1 1.8 -4.4 7.2 -7.1 12.4 -6.2 5.3 0.8 68.8 34.4 73.9 39.1 3.5 3.2 4.6 4.9 5 8.2 0.5 3.9 0.2 4.6 -3 7.8 -1.9 1.9 -4.1 3.5 -4.9 3.5 -0.7 0 -6.2 8.4 -12.2 18.8 -15.5 26.5 -25.9 43 -30.1 47.9 -8.5 10 -20.4 6.7 -19.2 -5.4 0.6 -5.3 4.5 -13.7 16.4 -34.6 5.2 -9.3 9.2 -17.1 8.9 -17.4 -0.3 -0.3 -41.9 7.8 -92.3 18 -191.4 38.9 -244.7 49.5 -277.5 55.3 l-3.8 0.6 0 -11.6z"/>
  <path d="M456.2 1469.4 c-1.2 -0.8 -3 -3 -4 -4.8 -1.1 -2.1 -7.3 -7.5 -16.7 -14.6 -18.8 -14.1 -30.7 -24.1 -33.5 -28 -1.2 -1.6 -2.4 -4.5 -2.7 -6.4 -0.5 -3 -0.1 -4 2.5 -6.6 5.4 -5.4 11.1 -3.6 31.2 10.1 6.7 4.5 12.2 8 12.4 7.8 0.2 -0.2 -2.1 -15.9 -5 -34.9 -3 -19 -7.7 -50.2 -10.5 -69.5 -2.8 -19.2 -5.3 -35.3 -5.5 -35.7 -0.3 -0.4 -1.2 -0.8 -2 -0.8 -0.8 0 -1.4 -0.6 -1.4 -1.3 0 -1.1 3.3 -1.5 14.1 -2.1 14 -0.6 16.7 -0.4 13.9 1.4 -1.2 0.8 -0.7 5.2 3.2 29.7 2.6 15.8 7.5 47 10.8 69.3 3.4 22.3 6.3 41.1 6.6 41.9 0.3 0.8 6.8 -7.9 15.2 -20.5 12.3 -18.3 15.3 -22.2 18.5 -23.8 3.3 -1.6 4.5 -1.7 7.6 -0.7 5 1.5 7.2 4.1 7.8 9.4 0.7 5.5 0.7 5.4 -17.3 32.9 -28.3 43.1 -29.4 44.7 -34.6 47.4 -3.5 1.8 -7.8 1.8 -10.6 -0.2z"/>
  <path d="M947.9 1416.6 c-3.2 -1.9 -5.2 -6.4 -4.4 -9.9 1.4 -5.5 11 -11.2 35.3 -21.2 5.1 -2.1 8.9 -4.1 8.5 -4.5 -0.4 -0.4 -26.9 -7.1 -58.8 -15 -70 -17.1 -310.5 -77.2 -333.2 -83.2 -12.6 -3.3 -16.3 -4.7 -16.3 -5.9 0 -1.3 1.4 -1.7 7.2 -2.1 6.7 -0.5 7.4 -0.8 10.5 -4.2 2.7 -3 3.3 -4.4 3.3 -8.2 0 -4.4 0.1 -4.6 1.8 -3.1 0.9 0.9 9.6 3.4 19.2 5.7 25.9 6.1 229.4 56.4 314.4 77.6 40.6 10.2 74.1 18.2 74.4 18 0.2 -0.3 -5.4 -12.2 -12.7 -26.5 -8.4 -16.7 -13.1 -27.1 -13.1 -29.1 0 -9.7 9.5 -15.1 17.7 -10 4 2.4 5.2 4.6 26 45.6 15.1 29.9 16.8 33.8 16.8 38.3 0 6.5 -2.9 9.6 -10.6 11.5 -3 0.8 -16.4 5.7 -29.9 10.9 -41 15.9 -50.5 18.5 -56.1 15.3z"/>
  <path d="M637 1079.9 c-4.1 -0.5 -19.6 -2.3 -34.5 -3.9 -43.6 -4.8 -51.8 -6.7 -55.4 -13.1 -2.7 -4.9 -0.7 -10.7 13.4 -38.4 22.2 -43.5 26.9 -50.5 34.5 -50.5 3 0 4.3 0.6 6 2.8 4.2 5.3 1.7 14.4 -11.9 43.6 -2.3 4.8 -4 9 -3.7 9.3 0.6 0.6 -4.2 3.2 66.6 -36.5 138.3 -77.6 179.4 -100.2 180.1 -98.9 0.4 0.6 0.9 6.4 1.3 12.7 l0.6 11.5 -12.7 7.1 c-7.1 3.9 -27.9 15.7 -46.3 26.1 -18.4 10.4 -65.4 36.9 -104.5 58.8 -39 21.9 -71.2 40 -71.4 40.2 -1.1 0.8 2 1.3 26.1 4.2 15.9 1.8 26.8 3.6 28.7 4.6 4.1 2 6.5 6.8 5.7 11.3 -0.6 4.2 -3 7 -7.3 8.8 -3.6 1.5 -4.4 1.5 -15.3 0.3z"/>
  <path d="M1041.1 711.8 c-8.4 -7.1 -49.6 -59 -52.7 -66.5 -2.4 -5.6 -1.8 -9.8 1.7 -12.7 3.4 -2.9 6.7 -3.3 10.7 -1.2 3.2 1.7 12.6 11.4 23.7 24.5 4.4 5.1 8.1 8.8 8.3 8.2 0.2 -0.6 -2.2 -28.9 -5.2 -62.8 -3.1 -34 -6.7 -74.2 -8 -89.3 -1.2 -15.1 -2.6 -28.3 -3.1 -29.2 -1.2 -2.9 3.5 -2.2 7.5 1.1 4.7 3.8 6.9 4.4 10.4 2.6 1.5 -0.8 3.9 -1.5 5.2 -1.5 2.1 0 2.3 0.2 1.2 1.9 -0.9 1.5 -0.4 9.2 2.5 37.3 3.4 32.3 11.7 117.3 13.3 136.1 0.6 6.3 0.9 7.6 1.9 6.5 0.7 -0.7 6.3 -10.1 12.5 -20.8 6.1 -10.7 12.1 -20.5 13.2 -21.7 5.1 -5.5 14.2 -5 17.9 1.1 2.5 4.1 2.4 8.7 -0.2 13.9 -4.2 8.2 -32.3 56.4 -37.6 64.4 -8.7 13.3 -14.5 15.3 -23.2 8.1z"/>
  <path d="M780.4 416.3 c-3.6 -0.7 -6.9 -5 -6.8 -9.1 0 -5.4 2.5 -9.8 14.1 -25 l10.4 -13.7 -3 -0.3 c-1.7 -0.2 -17.4 0.8 -34.9 2.2 -37.4 3 -91.4 7.1 -113.2 8.6 -8.5 0.5 -17.5 1.2 -20 1.5 l-4.6 0.5 1.4 -10.7 c0.8 -6 1.6 -11.3 1.7 -11.9 0.3 -1.1 21.4 -3 110.1 -9.9 31.9 -2.5 59 -4.6 60.4 -4.7 2.1 -0.3 0.3 -2 -11.5 -11.3 -7.7 -6 -15.9 -12.9 -18.2 -15.1 -3.9 -3.8 -4.3 -4.6 -4.3 -9 0.1 -9.5 8.5 -14.3 17.2 -9.8 4.2 2.2 41.8 31.6 49.4 38.7 9.1 8.4 11.2 14.1 7.8 21.2 -1.7 3.7 -26.8 34.9 -37.5 46.8 -8.5 9.3 -13.1 12 -18.5 11z"/>
  <path d="M1340.5 390.9 c-5.6 -3.2 -6.1 -9.5 -1.2 -15.8 3.1 -4 19.1 -18.4 29.5 -26.5 l5.3 -4.1 -4.5 -0.3 c-2.5 -0.2 -32.3 1.3 -66.3 3.2 -34 2 -76 4.2 -93.3 5.1 -41.7 2 -43.2 2.1 -45.2 3 -1.4 0.6 -1.8 0.2 -1.8 -1.6 0 -1.5 2.1 -4.6 5.1 -7.9 6.5 -7.1 8.9 -10.8 8.9 -14.2 0 -2.8 1.5 -3.8 2.2 -1.6 0.3 0.9 10.5 0.5 41.4 -1.5 22.5 -1.5 64.8 -4 93.9 -5.7 29.2 -1.7 54 -3.3 55.3 -3.6 1.9 -0.4 -1.2 -3.1 -18.5 -16.3 -19.6 -14.9 -22.3 -17.5 -23.8 -22.8 -0.8 -2.9 1.7 -8.6 4.6 -10.7 3.2 -2.2 9.7 -2 13.7 0.4 4.7 2.9 44.2 32.4 55.8 41.8 11.3 9.1 14.4 13.5 14.4 20.7 0 8.2 -1.7 10.2 -22.3 26.3 -39.5 30.7 -47.3 35.4 -53.2 32.1z"/>
 </g>
 <g fill="#ffec10">
  <path d="M261.3 1292 c-1.8 -0.4 -4 -1.3 -4.9 -2 -2.2 -1.9 -4.4 -6.5 -4.4 -9.3 0 -3 8.8 -21.2 12.2 -25.2 1.4 -1.6 5.2 -8.8 8.4 -16 5.7 -12.8 104.9 -211.7 142.9 -286.5 12.7 -25.1 20.5 -39.5 22.5 -41.2 2.2 -2.1 4.1 -2.8 7 -2.8 6.4 0 9 3.3 17.1 21.5 21.2 48 136.9 320 136.9 322 0 0.3 1.1 2.9 2.5 6 2.2 4.7 2.4 6.1 1.6 9.3 -1.2 4.3 -5.6 9 -9.2 9.7 -1.3 0.3 -9.6 0.7 -18.4 0.9 -29 0.8 -122.9 5.6 -129.7 6.6 -3.7 0.5 -12.2 1 -19 1 -6.8 0 -34.5 1.1 -61.7 2.5 -27.1 1.4 -58.4 2.7 -69.5 3 -11 0.3 -22.6 0.7 -25.6 0.9 -3 0.2 -7 0 -8.7 -0.4z"/>
  <path d="M1025.5 490.1 c-1.1 -0.5 -4.2 -3 -7 -5.6 -5 -4.7 -14.8 -12.7 -55 -45.1 -47.4 -38.3 -92.2 -75.1 -96.7 -79.5 -5.4 -5.4 -6.7 -9.7 -4.5 -15 0.8 -1.9 9.7 -12.9 19.8 -24.5 10.1 -11.6 31.9 -36.4 48.4 -55.3 16.5 -18.8 32.6 -37.3 35.8 -40.9 3.3 -3.7 9.4 -11.9 13.8 -18.3 11.5 -16.9 14.9 -20.5 20.8 -21.9 4.4 -1 5.5 -0.9 9.3 0.8 2.4 1.1 12.6 9 22.8 17.6 10.2 8.7 31.3 26.6 47 39.9 72.2 61.1 96.5 82.4 98.3 86.1 3.6 7.8 1.9 11.5 -11.2 24.5 -4.8 4.7 -29.6 30.9 -55.1 58.1 -25.5 27.2 -52.8 56.3 -60.6 64.6 l-14.4 15 -4.7 0.2 c-2.7 0.1 -5.7 -0.3 -6.8 -0.7z"/>
 </g>
</svg>