<?xml version="1.0" encoding="utf-8"?>
<!DOCTYPE svg PUBLIC "-//W3C//DTD SVG 1.0//EN" "http://www.w3.org/TR/2001/REC-SVG-20010904/DTD/svg10.dtd">
<svg version="1.0" xmlns="http://www.w3.org/2000/svg" width="1924px" height="1924px" viewBox="0 0 1924 1924" preserveAspectRatio="xMidYMid meet">
 <g fill="#01b4f1">
  <path d="M1247.5 1679.1 c-2.7 -1 -7.2 -2.8 -10 -4 -2.7 -1.3 -11.5 -5.1 -19.5 -8.6 -8 -3.5 -20.3 -9.1 -27.3 -12.4 -7.1 -3.4 -13 -6.1 -13.2 -6.1 -0.4 0 -0.2 0.1 -41.5 -19 -52.7 -24.4 -85.6 -39.5 -131.5 -60.5 -34.4 -15.8 -33.1 -15.2 -61 -27.8 -11.5 -5.2 -37.4 -17.1 -57.5 -26.5 -40.9 -19 -82.7 -38.1 -88 -40.3 -7.2 -2.9 -14 -1.6 -77 14.1 -33.3 8.3 -77.1 19.2 -97.5 24.1 -80.5 19.6 -128.4 31.8 -149 38.1 -13.9 4.3 -25 4.4 -31.7 0.5 -5.8 -3.4 -10.3 -8.7 -12.7 -15.3 -1.7 -4.5 -11.7 -43.9 -21.5 -84.4 -1.9 -8 -6.2 -25.7 -9.6 -39.5 -7.7 -31.6 -14.8 -60.9 -19 -79 -1.2 -4.9 -3.9 -16.2 -6 -25 -2.1 -8.8 -6.4 -26.6 -9.4 -39.5 -3.1 -12.9 -7.2 -30 -9.1 -38 -9.5 -39.9 -13.9 -58.4 -18.5 -78 -2.8 -11.8 -6.2 -26.2 -7.6 -32 -4.1 -17.3 -6.2 -25.9 -8.9 -37.5 -1.4 -6 -3.9 -16.6 -5.5 -23.5 -1.6 -6.9 -4.6 -19.5 -6.6 -28 -4.2 -18 -9.1 -38.6 -13.9 -59 -1.9 -8 -5.3 -22.1 -7.5 -31.5 -4.8 -20.3 -6 -25 -10 -42 -5.5 -23.1 -7.1 -29.9 -8.5 -36 -2.9 -12.4 -6.8 -29.1 -17.9 -75 -8.8 -36.6 -11.3 -47.3 -14.1 -59 -1.4 -6 -4.4 -18.6 -6.7 -28 -2.2 -9.3 -4.6 -19.5 -5.3 -22.5 -0.7 -3 -3.8 -16.3 -7 -29.5 -3.1 -13.2 -7.2 -30.5 -9.1 -38.5 -1.8 -8 -5 -21.2 -7 -29.5 -2 -8.2 -4.2 -17.5 -4.9 -20.5 -0.7 -3 -2.9 -12.5 -4.9 -21 -2.1 -8.5 -7.6 -32.6 -12.2 -53.5 -4.7 -20.9 -9.4 -42 -10.5 -47 -1.1 -4.9 -3.6 -16.2 -5.4 -25 -1.9 -8.8 -5.4 -22.3 -7.9 -30 -2.5 -7.7 -5 -16.9 -5.6 -20.5 -0.6 -3.6 -1.7 -8.5 -2.5 -11 -0.7 -2.5 -2.1 -9 -3 -14.5 -1.1 -6.5 -2.5 -11.2 -4 -13.5 -5.3 -8.1 -5.9 -18.5 -1.6 -27.6 5 -10.5 10.3 -13.3 36.6 -19.3 9.9 -2.3 21.8 -5 26.5 -6.1 4.7 -1.1 28.1 -6.4 52 -11.9 51.1 -11.7 76.9 -17.6 120.5 -27.7 30.5 -7.1 61 -14.1 74 -17 28.3 -6.3 52.9 -12.4 53.8 -13.3 0.6 -0.6 1 -4 0.8 -7.8 -0.7 -23.8 -0.8 -22.5 2.4 -28.9 2.7 -5.2 3.8 -6.3 9.3 -9.1 3.5 -1.8 8.4 -3.5 11 -3.9 4.9 -0.8 8 -0.6 91.7 5.1 28.1 1.9 54.3 3.5 58.4 3.5 7 0 14.2 -1.5 70.6 -14.6 21.9 -5 87.3 -20 126.5 -29 22.8 -5.2 55 -12.6 71.5 -16.4 65 -14.9 79.5 -16.9 90.1 -12.1 10.9 4.8 13.8 10.2 21.4 39.4 3.3 12.8 6.3 24.3 6.6 25.7 0.4 1.4 1.2 3.1 1.8 3.9 0.6 0.8 9.2 5.3 19.1 10.1 9.9 4.8 24 11.7 31.3 15.3 7.4 3.6 14.8 7.1 16.5 7.6 3.1 1 9.7 1.5 84.2 6.6 20.4 1.4 46.7 3.2 58.5 4 11.8 0.8 35 2.4 51.5 3.5 92.7 6.3 100.1 7.9 108.3 23.5 2.3 4.5 2.6 6.1 2.7 16 0 6.1 -0.4 20.2 -0.9 31.5 -1.7 39.5 -2.1 59.2 -1.3 60.6 0.5 0.9 6.6 4.3 13.5 7.6 18.9 9 38.6 18.5 57.7 27.8 9.4 4.5 24 11.6 32.5 15.7 14.7 7.1 25.4 12.3 64 31.1 9.1 4.4 25.7 12.4 37 17.9 11.3 5.5 26.4 12.8 33.5 16.3 37.5 18.1 88.1 43.4 96 48 9.5 5.4 15.4 10.9 18.7 17.4 1.7 3.2 1.9 5.4 1.6 13 -0.3 7.6 -0.9 10.2 -3.5 15.6 -7 15 -19.4 42.5 -39.8 88.5 -7.3 16.5 -18.7 42.2 -25.3 57 -13.4 30.3 -29.8 67.2 -37.4 84.5 -9.5 21.7 -97.7 220 -103.8 233.5 -1 2.2 -9.4 20.9 -18.8 41.5 -9.3 20.6 -24.9 55.1 -34.5 76.5 -19.4 43.2 -43.7 97.4 -47.1 104.7 -3.5 8 -4.5 6.7 -6.1 -8.2 -1.9 -16.9 -6.8 -39.4 -13.1 -59.6 -1.8 -6.2 -3.4 -12.4 -3.4 -13.8 0 -2.8 1.7 -3.5 2.7 -1.1 0.5 1.4 15.6 -32.3 49.8 -111 15.4 -35.5 36 -82.1 73.7 -167 6.6 -14.8 15.1 -34 18.8 -42.5 3.7 -8.5 14.8 -33.3 24.5 -55 9.7 -21.7 25.7 -57.5 35.5 -79.5 9.7 -22 19.5 -44 21.7 -49 23.2 -52.2 44.1 -99.3 44.6 -100.8 0.6 -1.5 -0.5 -2.3 -5.6 -4.6 -9.8 -4.5 -26.4 -12.5 -65.7 -31.6 -20.1 -9.8 -41 -19.9 -46.5 -22.5 -5.5 -2.6 -19.9 -9.6 -32 -15.5 -12.1 -5.9 -29.2 -14.2 -38 -18.5 -8.8 -4.3 -26.3 -12.8 -39 -19 -12.6 -6.2 -27.9 -13.6 -34 -16.5 -6 -2.9 -22.2 -10.8 -36 -17.5 -27.4 -13.4 -44.2 -21.6 -100 -48.8 -20.3 -9.9 -52.7 -25.7 -71.9 -35.1 -19.2 -9.4 -35 -17.1 -35.1 -17.1 -0.2 0 -15.9 -7.7 -35 -17 -19.1 -9.4 -34.9 -17 -35 -17 -0.1 0 -17.2 -8.3 -37.9 -18.5 -20.8 -10.2 -37.9 -18.5 -38 -18.5 -0.2 0 -13.1 -6.2 -28.7 -13.8 -60.6 -29.5 -70.8 -34.4 -71.8 -33.8 -0.5 0.4 -1.7 3 -2.7 5.9 -2.4 7.4 -9.9 23.1 -18.3 38.2 -6.7 12.1 -11.7 22.7 -41.6 89 -11 24.5 -102.4 219.6 -125 267 -3.7 7.7 -14.9 31.6 -25 53 -10 21.5 -20.2 43.1 -22.5 48 -2.3 5 -5.7 12.2 -7.5 16 -1.8 3.9 -5.3 11.3 -7.8 16.5 -15.7 33.4 -32.4 68.9 -56.7 121 -15.3 32.7 -29.9 64 -32.5 69.5 -22.6 48.1 -43.4 92.2 -48.5 103 -5.4 11.4 -12.7 26.8 -24.5 52 -3.4 7.2 -34.3 72.8 -42 89 -2.3 5 -11.6 24.3 -20.5 43 -9 18.7 -17.8 37.2 -19.6 41.2 -1.8 3.9 -6 12.6 -9.3 19.4 -3.3 6.7 -5.7 12.7 -5.5 13.4 0.8 2 38.8 19.8 134.9 63 8.3 3.7 18.8 8.5 23.3 10.6 4.6 2.2 8.6 3.9 8.7 3.9 0.4 0 10.2 4.5 33 15 3.3 1.5 11.2 5.1 17.5 8 17.7 8 34.9 15.9 41.5 19 3.3 1.5 16.1 7.4 28.5 13 12.4 5.6 27.7 12.6 34 15.5 6.3 2.9 14 6.4 17 7.8 3 1.3 20.3 9.3 38.3 17.6 18 8.3 33 15.1 33.2 15.1 0.2 0 0.2 -0.7 -0.1 -1.5 -1 -2.4 3.3 -1.8 5.5 0.8 1.1 1.2 4.9 6 8.6 10.7 39.1 49.6 92.5 87.7 151 107.7 39.7 13.5 77.9 19.2 119.8 17.8 13.8 -0.4 21.7 -0.3 21.7 0.3 0 0.5 -0.7 1.2 -1.5 1.6 -3.6 1.3 -3.6 1.3 27.5 15.6 7.4 3.4 19.1 8.8 25.9 12.1 10.4 5 12.7 5.7 13.8 4.6 1.3 -1.3 12.9 -26.4 20.9 -45.5 3 -7 3.9 -10.2 2.9 -9.8 -1 0.3 -1.5 -0.1 -1.5 -1.3 0 -1.3 4.8 -4.2 19.3 -11.4 18.7 -9.3 53.1 -30.7 54.5 -33.9 0.2 -0.5 2 -0.8 4 -0.8 l3.6 0 -2.6 2.8 c-1.5 1.5 -7.5 13.5 -13.3 26.7 -5.9 13.2 -14.9 33.2 -20 44.5 -5.1 11.3 -12.5 27.9 -16.5 37 -16.7 38 -20.5 44.5 -28.4 48.1 -5.5 2.5 -18.2 2.5 -25.1 0z m-705 -197.7 c68.4 -17.2 65.7 -16.5 64.3 -17.9 -1 -1 -75.4 -4.9 -117.5 -6.1 -20.6 -0.7 -22.3 -0.6 -22.9 1 -0.7 1.9 5.8 31 8.1 36.3 l1.4 3.1 6.8 -1.5 c3.7 -0.8 30.7 -7.5 59.8 -14.9z m127.3 -66.4 c-0.2 -0.7 -2.8 -2.2 -5.8 -3.5 -5.6 -2.2 -52.8 -24.2 -112.7 -52.3 -9.5 -4.5 -19.3 -9 -21.8 -10.2 -2.5 -1.2 -12.3 -5.7 -21.7 -10.1 -9.4 -4.4 -17.7 -7.8 -18.3 -7.5 -1.6 0.6 -2.1 5.8 -4 39.6 -0.8 15.1 -1.7 28.9 -1.9 30.7 -0.8 6 -1 5.9 32.9 7.7 17.1 0.9 53.5 2.5 81 3.6 27.5 1.1 52.3 2.1 55 2.2 16.7 0.9 17.7 0.9 17.3 -0.2z m-234.8 -98.2 c0 -2.9 0.3 -6.3 0.6 -7.5 0.5 -1.7 -0.1 -2.5 -2.4 -3.7 -3.8 -2 -4.6 -0.9 -3.3 4.1 0.6 2.1 1.5 5.7 2.1 8.1 1.5 5.8 3 5.3 3 -1z m-6.4 -96.8 c6.4 -13.5 12.1 -27 12.9 -30 0.7 -3 1.6 -10 1.9 -15.5 0.9 -15 8.5 -142.5 9.6 -161.5 1.1 -18.4 3.2 -52.4 5.5 -88 3.7 -55.8 4.3 -67.5 3.9 -68.2 -0.3 -0.4 -1.2 -0.4 -2 -0.1 -1.3 0.5 -1.5 -0.1 -0.8 -4.3 0.4 -2.7 1.4 -5.4 2.2 -6 1.6 -1.2 1.8 -2.5 4.7 -52.4 0.8 -14.6 1.8 -29.1 2.1 -32.2 0.5 -4.7 0.3 -5.8 -0.9 -5.8 -1.4 0 -2.7 -2 -2.7 -4 0 -0.4 0.9 -1 1.9 -1.3 1.5 -0.4 2.1 -1.7 2.5 -5.8 0.5 -4.9 3.8 -59.6 5.1 -84.9 0.3 -5.8 0.8 -12.4 1.1 -14.8 0.5 -3.7 0.3 -4.4 -1.3 -4.8 -1.6 -0.5 -1.9 -1.5 -1.9 -7 0 -5 0.3 -6.4 1.3 -6 0.8 0.3 1.7 -0.4 2.3 -1.7 0.8 -2.1 6.1 -84.6 6 -94.9 0 -3.8 -0.3 -4.6 -1.5 -4.2 -2.3 0.9 -1.9 -3.5 0.5 -6.1 2 -2.1 2.3 -5.4 5 -50.6 4.9 -80.9 7.9 -125.5 10.5 -155.4 0.3 -3.3 1.2 -15.7 2 -27.5 0.9 -11.8 1.8 -22.1 2.1 -22.9 0.6 -1.7 -1.4 -4.1 -2.9 -3.5 -0.7 0.2 -7.9 1.9 -16.2 3.8 -107.3 24.5 -178.7 40.8 -208 47.6 -9.3 2.1 -31.2 7.1 -48.5 11.1 -17.3 3.9 -31.8 7.5 -32.3 7.8 -0.4 0.4 0.9 6.1 2.9 12.6 2 6.6 5.3 21.2 7.4 32.5 2.1 11.3 7.4 34.7 11.9 52 15.1 58 24 93.2 34.5 137 11.6 48.1 15.9 65.7 27.1 111.5 4.2 17.1 10.9 45 15 62 10.4 43.7 19.7 82.2 32 132.5 10.4 42.5 13.4 54.9 21.7 89.5 2.2 9.4 9.2 37.9 15.5 63.5 6.3 25.6 14 57.3 17.2 70.5 12.9 52.7 23.3 96 28.1 116 8 33.7 8.3 34.6 9.8 34.3 0.7 -0.2 6.5 -11.3 12.8 -24.8z m91.1 -193.2 c7.4 -15.6 20.6 -43.4 29.3 -61.8 8.7 -18.4 18.6 -39.3 22 -46.5 3.4 -7.1 8.4 -17.5 11 -23 2.6 -5.5 7.5 -15.6 10.7 -22.5 3.3 -6.9 10.9 -22.6 16.8 -35 5.9 -12.4 13.6 -28.3 17 -35.5 l6.3 -13 -2.1 -1.9 c-1.6 -1.4 -1.8 -2 -0.9 -2.4 0.8 -0.2 2.2 -2.4 3.2 -4.8 1.3 -3 2.4 -4.2 3.4 -3.8 0.9 0.3 2.1 -0.4 3 -1.9 0.9 -1.3 8.9 -17.7 17.7 -36.3 17.2 -36.3 20.7 -43.7 52.3 -109.8 18.2 -38.1 20.3 -43.1 18.9 -44.1 -1.5 -1.1 -1.4 -1.7 0.8 -6.1 1.6 -3.3 3 -4.9 4.3 -4.9 1 0 2.3 -0.7 2.8 -1.5 2.2 -3.9 42.8 -90.4 42.8 -91.3 0 -0.5 -0.8 -1.5 -1.7 -2.2 -1.6 -1.2 -1.6 -1.4 0 -2.9 0.9 -1 1.7 -2.2 1.7 -2.7 0 -0.6 1.3 -1.5 2.9 -2 2.4 -0.8 3.8 -3.1 9.1 -14.2 3.5 -7.3 11.2 -23.5 17.2 -36 10.2 -21.5 10.8 -23 9.1 -24.2 -1.5 -1.2 -1.6 -1.7 -0.6 -3.2 0.7 -1 1.9 -3.3 2.7 -5 1 -2.2 2.2 -3.3 3.6 -3.3 1.7 0 3.7 -3.4 11 -18.6 5 -10.3 9 -18.8 9 -19 0 -0.3 6.2 -13 43.7 -89.2 6.3 -12.9 11.2 -24 10.9 -24.7 -0.6 -1.7 -3 -2 -55.6 -5.5 -24.5 -1.7 -66.8 -4.6 -94 -6.5 -52 -3.7 -141.3 -9.7 -168.5 -11.5 -8.8 -0.5 -19 -1.2 -22.6 -1.6 l-6.6 -0.6 -0.6 19.9 c-0.3 10.9 -1 22.5 -1.5 25.8 -2.2 13.2 -3.3 28.7 -4.7 66 -2 49.2 -4.1 94.9 -6 127 -0.8 13.8 -1.9 33.8 -2.5 44.5 -0.6 10.7 -1.7 31.4 -2.5 46 -0.8 14.6 -2.1 39.3 -3 55 -0.8 15.7 -2.4 43.1 -3.5 61 -1.1 17.9 -3.4 57.7 -5 88.5 -1.7 30.8 -4.1 75.6 -5.5 99.5 -1.3 23.9 -3.6 65.1 -5 91.5 -1.4 26.4 -3.4 64.4 -4.6 84.4 -1.8 33.5 -1.9 40.4 -0.3 38.8 0.4 -0.3 6.7 -13.3 14.1 -28.9z m862.4 -726.8 c1 -14.7 1 -33.8 0 -34.4 -0.5 -0.3 -8.6 -1.1 -18.1 -1.6 -9.4 -0.6 -33.1 -2.2 -52.7 -3.5 -19.6 -1.4 -35.8 -2.3 -35.9 -2.2 -0.9 0.9 3.3 3.3 20.6 11.6 31.5 15.1 56.5 27.2 69.9 33.8 6.9 3.4 13.3 6.1 14.1 6 1.2 -0.2 1.6 -2.4 2.1 -9.7z m-457 -124.6 c2.3 -2.8 5.8 -11.8 4.8 -12.5 -1.5 -0.9 -45 9.4 -44.6 10.6 0.2 0.6 6.9 1.5 15.8 2.1 22.7 1.6 22.5 1.6 24 -0.2z"/>
  <path d="M1314.8 980.6 c-0.8 -0.8 -2.3 -1.5 -3.4 -1.8 -1.5 -0.2 -2 -1.3 -2.2 -4.6 -0.3 -3.9 -0.1 -4.2 2.1 -4.2 5.8 0 8.7 1.2 8.7 3.5 0 1.8 -0.4 2.2 -2 1.8 -1.1 -0.3 -2 0 -2 0.6 0 0.6 0.4 1.1 0.8 1.1 1.1 0 5.2 3.5 5.2 4.4 0 1.2 -5.9 0.6 -7.2 -0.8z"/>
  <path d="M1274 959.7 c-1.4 -0.7 -4.4 -1.9 -6.7 -2.6 -2.4 -0.8 -4.3 -2 -4.3 -2.8 0 -0.8 -1.1 -1.3 -2.9 -1.3 -1.5 0 -4.2 -0.5 -6 -1.1 -2.8 -1 -3.1 -1.5 -3.1 -5 0 -3.8 0.1 -3.9 3.4 -3.9 4.5 0 13.6 2.1 13.6 3.2 0 0.4 0.9 0.8 2.1 0.8 1.1 0 4.7 1.5 8 3.3 5.7 3 5.9 3.4 5.7 6.7 -0.3 3.2 -0.6 3.5 -3.8 3.8 -1.9 0.1 -4.6 -0.3 -6 -1.1z m-3.6 -7.6 c0.6 -0.9 -3.6 -3.1 -6 -3.1 -2.4 0 -1.1 2.4 1.7 3.1 3.4 1 3.7 1 4.3 0z"/>
 </g>
 <g fill="#2b4046">
  <path d="M1632.7 1834.8 c-31.6 -2.4 -69.6 -19.9 -108.7 -50.2 -13.9 -10.7 -47.2 -44 -59.2 -59.1 -29.5 -37.3 -49.7 -74.9 -57.8 -108.1 -1.7 -6.7 -3.7 -13.9 -4.6 -16 -2.2 -5.2 -3 -27.7 -1.5 -39.1 l1.2 -8.8 -6.3 -7 c-3.5 -3.8 -10.1 -11 -14.8 -16 -4.7 -4.9 -10.2 -11.1 -12.4 -13.8 -2.1 -2.6 -4.2 -4.7 -4.5 -4.7 -0.4 0 -3 1.9 -5.7 4.3 -16.9 14.3 -39.3 28.9 -61.4 40.1 -40.3 20.2 -78.7 31.2 -121.4 34.6 -93.3 7.4 -185.2 -24.4 -252.1 -87.3 -16.8 -15.8 -29.4 -29.9 -43.6 -48.7 -13 -17.2 -29.7 -48.5 -38.8 -72.5 -2.3 -6 -5.7 -14.4 -7.6 -18.5 -5.1 -11.4 -10.8 -34.6 -14.1 -57.5 -2.4 -17.2 -3 -58.6 -1 -77.5 2 -18.8 6.3 -40.8 11.6 -59.2 2.2 -7.6 4 -14.2 4 -14.8 0 -1.6 -6.2 -4 -13.4 -5.2 -8.1 -1.4 -12.7 -3.9 -16.9 -9 -3.2 -4 -5.7 -8 -5.7 -9.2 0 -0.3 1 -1.4 2.2 -2.6 2.6 -2.4 7.4 -2.6 12.5 -0.5 4.8 2 7.1 4.1 9.4 8.7 2.2 4.3 8.3 8.8 12.4 9.1 2.5 0.2 3 -0.4 7.4 -10.8 13.7 -32 29.9 -58.5 54.5 -89 l1.9 -2.4 -5.1 -5.9 c-6 -6.9 -11 -10.6 -18.2 -13.3 -7.8 -3 -12.1 -5.3 -17.7 -9.7 -6.7 -5.3 -10.4 -7.1 -26 -12.5 -9.4 -3.3 -16.7 -5.1 -25 -6.2 -20.9 -2.8 -24.1 -4.2 -48.2 -21.4 -4.7 -3.4 -5.9 -3.8 -9.7 -3.3 -5.5 0.6 -8.5 -1.2 -15.2 -9.3 -2.7 -3.3 -6.8 -7.3 -9 -9 -5.3 -3.9 -6.9 -6.7 -5.4 -9.9 0.5 -1.3 1.9 -2.6 3 -2.8 2 -0.6 11.4 2.9 12 4.4 0.2 0.4 0.8 0.8 1.4 0.8 3.5 0 13.8 11.9 13.8 15.9 0 3.4 1.6 4.5 4.7 3.3 7.4 -3 11.8 -2.2 28.1 4.9 7.7 3.3 16.1 6 25.1 8.1 21.7 4.8 27.3 7.4 39.2 17.9 3.6 3.2 9.9 7.7 14 10 4.1 2.3 10.8 6.7 14.9 9.8 8.8 6.6 9.8 7.2 16.7 10.5 2.9 1.3 7.3 3.9 9.8 5.6 l4.5 3.1 11.8 -11 c20.5 -19.3 44.3 -37.3 64.4 -48.8 l8.7 -5 -3.7 -2.4 c-4.7 -3.1 -8.2 -8.3 -8.2 -12.4 0 -3.9 3.4 -8.5 6.2 -8.5 3.2 0 7.5 3 9.7 7 2.7 4.8 4.2 6 8.6 7 3.2 0.7 5.4 0.1 17.4 -5 34.3 -14.5 62.2 -21.5 101.1 -25.6 30.5 -3.1 70.8 -0.2 99.2 7.2 3.3 0.8 6.2 1.3 6.4 1.1 0.3 -0.2 -1 -1.5 -2.8 -2.9 -8.5 -6.3 -19.6 -12.2 -30.4 -16.2 -23 -8.4 -28.5 -10.8 -33.2 -14.6 -5 -3.9 -14.2 -15.2 -14.2 -17.4 0 -0.7 0.9 -2.1 2 -3.1 4.2 -3.8 14.7 1.2 27.2 13 9.6 9.2 20 14.5 34.3 17.5 5.5 1.1 11.6 2.4 13.6 2.9 6.3 1.5 14.2 5.6 20.9 11 8.7 7.1 10.3 7.7 29.5 12.4 16.4 4 30.9 9 48 16.7 3.3 1.4 10.7 4.6 16.5 6.9 13.6 5.6 15.1 6.2 17.5 7.1 22.8 8.6 35.8 13.6 39.4 15.2 2.4 1.1 6.7 2.8 9.5 3.9 2.8 1.2 5.5 2.4 6.1 2.9 0.5 0.4 10.6 5.6 22.4 11.5 26.8 13.5 31.7 17.8 28.1 24.6 -1.4 2.4 -3.5 2.4 -6 -0.1 -3.7 -3.7 -20.2 -10.7 -46 -19.5 -23.4 -8 -38.5 -13.7 -55.7 -21.1 -15.7 -6.7 -32.4 -13.2 -39.5 -15.4 -3.1 -0.9 -4 0.6 -1.1 1.7 3 1.2 14 8.1 23.1 14.5 31.3 22.3 61 52.3 82.4 83.3 39.9 57.6 60.6 127.2 58.5 196.5 -2.2 69.6 -23.3 131.8 -63.3 186.6 -4.7 6.4 -8.2 12 -7.7 12.4 4.1 3.6 17.5 15 24.8 20.9 5 4.1 10.9 9.2 13.2 11.4 l4.2 4 5.8 -1.3 c7.9 -1.8 25.9 -1.6 36.8 0.5 56.7 10.6 124.8 60.8 171.8 126.6 24.2 33.9 41.6 71.4 47.9 103.2 3 15.5 3 37.7 -0.1 49.2 -4.1 15.4 -13 29.6 -23.6 37.8 -5.9 4.5 -17 9.9 -24 11.7 -7.2 1.8 -20.7 2.6 -30.8 1.8z m9.8 -43 c4.4 -3.9 14 -12.5 21.4 -19.1 l13.4 -12 -0.6 -9.1 c-0.5 -9.1 -1.4 -12.9 -2.6 -12.4 -0.4 0.2 -13.1 13 -28.4 28.4 l-27.7 28.1 7.2 1.6 c4 0.8 7.8 1.5 8.3 1.6 0.6 0 4.6 -3.1 9 -7.1z m17 4.1 c6.2 -3.2 12.3 -9.7 14.4 -15.4 2.1 -5.9 3.3 -11.5 2.4 -11.5 -0.4 0 -4.3 3.5 -8.7 7.8 -4.5 4.3 -11.7 11.1 -16.1 15.1 l-8 7.4 6 -0.7 c3.3 -0.4 7.8 -1.6 10 -2.7z m-25.5 -24.3 c12.4 -11.8 26.4 -25.4 31.2 -30.2 l8.7 -8.9 -2.5 -7.8 -2.6 -7.8 -26.5 27.1 c-14.6 14.8 -30.5 30.8 -35.5 35.5 l-9 8.4 5.4 2.5 c2.9 1.4 6 2.5 6.8 2.6 0.9 0 11.7 -9.6 24 -21.4z m-20 -8.1 c25.1 -23.7 52 -51.1 52 -53 0 -0.8 -1.1 -4 -2.5 -7.1 l-2.5 -5.7 -20.1 20.6 c-11 11.3 -29.2 29.6 -40.5 40.6 l-20.6 19.9 5.3 3.1 c2.9 1.6 5.8 2.7 6.5 2.3 0.7 -0.4 10.8 -9.7 22.4 -20.7z m-23.4 -5.5 c9.3 -8.5 28.3 -26.8 42.3 -40.5 l25.4 -25.1 -2.3 -4.4 c-1.2 -2.5 -3.4 -6.4 -4.8 -8.8 l-2.5 -4.3 -14.6 14.3 c-46.6 45.5 -60 58.4 -72 69 l-6.4 5.6 7.8 5.1 c4.3 2.9 8.4 5 9.1 4.9 0.7 -0.2 8.8 -7.3 18 -15.8z m-14.1 -23.6 c11.5 -10.4 31.3 -28.5 44 -40.3 12.6 -11.7 23.6 -21.9 24.3 -22.5 1 -1 0.4 -2.5 -2.9 -7.7 -2.3 -3.5 -4.3 -6.6 -4.5 -6.8 -0.2 -0.2 -12.8 11.8 -28.1 26.6 -35.8 34.7 -55.1 53 -63.5 60.1 -3.7 3.1 -6.6 6 -6.5 6.4 0.1 0.3 2.5 2.4 5.2 4.6 l5 4.1 3 -2.8 c1.7 -1.5 12.4 -11.3 24 -21.7z m-17.8 -13.6 c14.2 -12.8 35.4 -32.3 47.2 -43.3 11.7 -11 22.6 -21 24.2 -22.3 1.6 -1.3 2.9 -2.8 2.9 -3.3 0 -1.1 -10.2 -14.9 -11.1 -14.9 -0.3 0 -11.8 11.3 -25.5 25.1 -29.1 29.4 -52.4 51.5 -66.5 63.1 l-10 8.3 5.8 5.2 c3.2 2.9 6.1 5.3 6.6 5.3 0.4 0 12.3 -10.5 26.4 -23.2z m-26.2 -10.2 c34.8 -30.8 84.5 -77.4 84.5 -79.2 0 -0.7 -2.8 -4.2 -6.3 -7.9 l-6.3 -6.8 -10.4 10 c-29.9 28.4 -67.2 62.4 -81 73.8 -5.8 4.8 -11.1 9.3 -11.9 10 -1.2 1.1 -0.3 2.5 5.4 8.9 3.8 4.1 7.3 7.2 7.9 6.9 0.6 -0.4 8.8 -7.4 18.1 -15.7z m-8.8 -32.5 c26.7 -22.3 54.2 -45.9 70.7 -60.8 l6 -5.3 -3.4 -3.5 -3.3 -3.5 -17.1 16.8 c-24 23.5 -56.9 54.2 -71.1 66.2 -6.6 5.7 -12.6 10.8 -13.4 11.5 -1.3 1.3 -0.8 3.5 0.9 3.5 0.5 0 14.3 -11.2 30.7 -24.9z m-30.3 7.6 c4.4 -4 14.2 -12.4 21.6 -18.7 14.2 -12 42.7 -36.8 52 -45.4 3 -2.8 9.3 -8.6 13.8 -12.9 l8.4 -7.7 -5.3 -4.8 c-9.1 -8.2 -7.7 -8.3 -17.6 1 -15.2 14.4 -64.6 57.9 -84.4 74.5 -4.3 3.6 -7.9 6.8 -7.9 7 0 0.7 10.2 14.3 10.7 14.3 0.3 0 4.2 -3.3 8.7 -7.3z m-16.6 -22.5 c4.2 -3.7 12.4 -10.5 18.2 -15.2 24.7 -19.9 74.2 -61.6 74.8 -63 0.3 -0.9 -12.1 -11 -13.5 -11 -0.6 0 -7.9 6.6 -16.4 14.6 -22.3 21.3 -56.9 52.9 -68.1 62.4 -5.4 4.5 -9.8 8.4 -9.8 8.6 0 0.7 6.2 10.4 6.6 10.4 0.3 0 4 -3 8.2 -6.8z m6.4 -34.9 c13.9 -11.9 33.1 -28.7 42.7 -37.2 9.6 -8.6 18.9 -16.9 20.8 -18.4 3.7 -3.2 3.6 -4 -0.8 -6.3 l-3 -1.5 -12.2 11.4 c-22.5 21.1 -65.4 58.4 -74.4 64.6 l-3.2 2.2 1.6 3.4 c0.9 1.9 2 3.5 2.5 3.5 0.4 0 12.1 -9.8 26 -21.7z m-6.2 -16.4 c31.5 -26 59 -49.8 59 -50.9 0 -0.5 -2.6 -2.2 -5.7 -3.9 l-5.7 -3.1 -2.5 2.2 c-1.4 1.3 -6.4 5.9 -11.1 10.3 -15 14.2 -47.2 42.5 -56.5 49.7 -4.9 3.9 -9.1 7.4 -9.3 7.8 -0.2 0.5 0.7 3.2 1.9 6 1.9 4.5 2.3 4.9 3.8 3.7 0.9 -0.8 12.6 -10.6 26.1 -21.8z m2 -27.9 c15.6 -13.5 30.5 -26.3 33.1 -28.5 2.6 -2.2 4.8 -4.3 4.8 -4.6 0.1 -0.4 -3.2 -2 -7.1 -3.6 l-7.3 -3 -23.5 23.1 c-12.9 12.7 -27.3 26.5 -32 30.6 -9 7.9 -9.2 8.3 -6.5 14.6 l1.5 3.6 4.3 -3.9 c2.5 -2.1 17.2 -14.8 32.7 -28.3z m-21 -9 c24.2 -22.3 35.1 -32.8 34.3 -33.3 -2.6 -1.6 -14.5 -2.9 -23 -2.5 -18.6 0.8 -28.6 8.8 -32.2 25.6 -1.2 5.8 -1.5 19.4 -0.4 25.5 l0.6 3.8 3.1 -2.9 c1.7 -1.6 9.6 -8.9 17.6 -16.2z m-290 -86.1 c53.5 -4.9 104.9 -30.6 144.8 -72.4 34.8 -36.4 58.7 -87.7 64.1 -137.7 1.8 -16.4 1.4 -47.5 -0.8 -62.3 -7.4 -49.5 -30.2 -95.5 -64.6 -130.1 -12.8 -12.8 -22 -20.4 -36 -29.6 -28.1 -18.5 -58.3 -30.3 -91 -35.5 -13.6 -2.1 -51.3 -2.4 -65 -0.5 -35.6 5.1 -66.3 16.8 -101 38.4 -30.6 19.2 -34.2 22.2 -58.5 48.9 -16.2 17.9 -26.7 36.9 -36.9 67.4 -9.3 27.7 -10.5 35.8 -10.5 72 0 26.6 0.2 31.4 2.2 42.4 5.1 28.6 11.5 48.8 22.6 71.6 16.9 34.5 38.7 60.8 71.1 85.6 26.5 20.3 66.7 36.1 105 41.3 12.3 1.7 39.1 2 54.5 0.5z m107.8 -535.2 c-8.2 -4.7 -21.8 -9 -21.8 -6.9 0 0.6 1.7 1.6 3.8 2.2 2 0.7 6 2.3 8.9 3.6 2.8 1.3 5.9 2.4 6.7 2.4 0.8 0 1.8 0.5 2.1 1.1 0.4 0.6 1.3 0.8 2.1 0.5 0.8 -0.3 1.4 -0.1 1.4 0.5 0 0.6 0.5 0.7 1.1 0.3 0.6 -0.3 -1.2 -2 -4.3 -3.7z"/>
  <path d="M1058 1432.4 c-15.3 -4 -26.5 -10.3 -34.8 -19.2 -22.3 -24.1 -21.1 -59.2 2.8 -83.3 8.6 -8.7 17.8 -13.7 31.3 -17 17 -4.3 31.5 -1.3 48.8 10.3 18.6 12.4 28.3 30.6 28.4 52.8 0 17.4 -4.4 27.9 -17 40.6 -7 7.1 -19.5 13.8 -29.6 16 -8.3 1.7 -22.9 1.7 -29.9 -0.2z"/>
  <path d="M1116.8 1296.5 c-13.1 -2.6 -20 -7.2 -27.8 -18.6 -2.1 -3 -4.5 -7.9 -5.4 -10.9 -2 -6.9 -2.1 -20.1 0 -27.1 0.8 -3 10.9 -23.8 22.4 -46.4 38.2 -75.2 44 -84.7 64.8 -106.6 15.7 -16.5 28.5 -22.9 42.7 -21.5 12 1.2 24.8 10.2 29.9 21 7.3 15.5 5.1 34.9 -6.9 60.6 -3.4 7.4 -7.5 16.4 -9 20 -8.5 20.1 -45.1 86.8 -55.6 101 -16.3 22.3 -35.6 32.3 -55.1 28.5z"/>
  <path d="M779.4 1319.1 c-10.2 -2.6 -18.2 -9 -25.9 -20.6 -6.4 -9.6 -8 -10.5 -19.5 -10.5 -10.8 -0.1 -16.4 -3 -20.1 -10.2 -2.5 -4.8 -2.4 -9.1 0.2 -14.5 2.6 -5.4 5.7 -7.6 9.4 -6.7 4.8 1.2 6.6 6.4 5.1 15 -0.5 3 -0.4 4.4 0.6 5 0.7 0.5 6.1 0.8 12.1 0.6 9.7 -0.2 11.2 0 15.5 2.2 5.8 2.9 6.4 3.7 10.3 11.7 4.2 8.8 10 14.6 16.7 16.5 4.4 1.3 6.4 1.4 12.8 0.3 7.1 -1.1 7.7 -1.1 9.6 0.8 1.6 1.7 1.8 2.4 0.9 4.1 -2.4 4.4 -19.7 8.4 -27.7 6.3z"/>
  <path d="M680.9 1266 c-2.5 -1.6 -8.9 -6.7 -14.3 -11.4 -10.9 -9.4 -14.2 -10.8 -25.4 -10.3 -5.6 0.2 -6.6 -0.1 -8.3 -2.2 -2.4 -3 -2.4 -5.2 0.1 -8.4 2.3 -3 4.2 -2.7 7.8 0.9 1.2 1.3 3.5 2.6 5 3 1.5 0.3 3.8 1 5.2 1.5 1.4 0.5 6.3 1.5 10.9 2.3 9.5 1.7 12.6 3.5 21.6 12.6 3.7 3.7 6.8 6 8.1 6 3.3 0 5.6 2.7 4.4 5 -2.6 4.8 -8.8 5.2 -15.1 1z"/>
  <path d="M616.2 1228.3 c-3.9 -1.9 -12.8 -11.4 -15 -15.9 -1.4 -3 -1.4 -3.5 0.2 -5.8 3 -4.7 6.9 -2.6 11.2 6.1 1.6 3.2 4.7 7.5 6.8 9.7 3 3 3.7 4.3 2.9 5.4 -1.4 2.3 -2.4 2.3 -6.1 0.5z"/>
  <path d="M758.5 1116.5 c-24.3 -9.4 -29 -11.9 -37.7 -20.2 -5.5 -5.2 -8.4 -7.3 -10.3 -7.3 -4.3 0 -9.8 -3.5 -18.5 -11.7 -9.6 -9 -10.8 -11.2 -8.3 -15.4 5.2 -8.7 16.6 -2.6 26.1 13.9 l3.6 6.2 4.8 0 c5.9 0 14.2 3 21.1 7.7 2.8 1.9 11.1 6.9 18.2 11 19.1 11.1 22.4 13.9 21 18.3 -1.3 4.2 -3.5 4 -20 -2.5z"/>
  <path d="M436 978.3 c-5 -2.5 -9.6 -5.5 -10.1 -6.5 -1.6 -3 -0.3 -6.7 2.7 -7.4 3.2 -0.8 6.1 0.5 13.8 6.3 7.9 5.9 9.5 7.8 8.9 10.3 -0.9 3.2 -5.3 2.5 -15.3 -2.7z"/>
  <path d="M950.1 942.5 c-7 -3.1 -16.6 -13.5 -21.2 -23 -3.4 -7.1 -3.6 -8.6 -0.8 -11 1.9 -1.9 2.1 -1.9 5.6 0 2.2 1.2 6.3 5.6 10.5 11.2 7.1 9.5 11.9 14.3 14.4 14.3 1.5 0 5.4 3.5 5.4 4.8 0 0.5 -0.9 1.8 -2 3 -2.4 2.6 -6.9 2.8 -11.9 0.7z"/>
  <path d="M882.4 916.2 c-11.6 -4.1 -19.4 -11 -29.4 -26 -8.8 -13.2 -11.9 -14.7 -31.5 -16.2 -14.6 -1 -19.2 -1.9 -23 -4.4 -2.6 -1.7 -5.5 -7.4 -5.5 -10.8 0 -2.3 3.6 -6.8 5.4 -6.8 0.5 0 3 2.2 5.5 4.8 4.4 4.6 5.3 5 14.2 7 5.2 1.2 14.5 3 20.7 4.1 18 3.1 23.1 6.6 32.1 21.5 5.5 9 9.7 13.3 16.3 16.7 3.5 1.8 5.4 2.1 11 1.7 7.4 -0.6 10.3 0.5 9.7 3.8 -1 5.1 -16.2 7.9 -25.5 4.6z"/>
  <path d="M1470 905.9 c-5.8 -1.6 -18.1 -4.7 -27.5 -6.8 -24.2 -5.5 -46.1 -11.7 -50.1 -14.2 -1.9 -1.1 -4.6 -4 -6 -6.4 -2.1 -3.7 -2.3 -4.8 -1.4 -6.6 1.7 -3.1 6.3 -2.2 18.1 3.5 5.3 2.5 10.1 4.6 10.8 4.6 0.6 0 8.7 2.4 17.9 5.4 9.2 3 22.8 7.3 30.2 9.6 14.6 4.7 20.6 7.2 21.3 9.2 0.5 1.5 -1 4.9 -2.1 4.7 -0.4 -0.1 -5.4 -1.5 -11.2 -3z"/>
  <path d="M1100.9 878.6 c-2.9 -1 -14.9 -8.9 -20.4 -13.3 -0.5 -0.5 -3.4 -2.6 -6.3 -4.7 -4.7 -3.4 -10.2 -9.3 -10.2 -10.9 0 -1.2 3.2 -3.7 4.8 -3.7 2.4 0 11.7 6.4 19.4 13.2 9 8 14.9 12.8 15.7 12.8 0.4 0 1.7 0.9 3 2.1 2.1 2 2.1 2.2 0.5 4 -2 2.2 -1.8 2.2 -6.5 0.5z"/>
  <path d="M1363 873.3 c-3.6 -0.6 -14.9 -3.7 -26.5 -7.2 -5.5 -1.6 -12.9 -3.8 -16.5 -4.9 -14.2 -4.2 -26.3 -8.8 -43.4 -16.4 -9.9 -4.3 -19.5 -8.5 -21.5 -9.3 -2 -0.7 -8.5 -3.1 -14.6 -5.3 -17.9 -6.5 -28.3 -10.9 -51.5 -21.9 -16.2 -7.7 -29.7 -13.6 -44.5 -19.3 -11.3 -4.3 -20 -8.4 -34 -16 -22.5 -12.1 -29.8 -16.3 -39 -22.2 -5.5 -3.5 -12.5 -7.9 -15.6 -9.6 -7.6 -4.3 -14.6 -10.6 -17.1 -15.5 l-2 -4.1 2.1 -1.7 c3.7 -3 11 0.2 24.2 10.9 9.5 7.6 21.5 14.9 38.4 23.2 6.1 2.9 16.9 9.2 24 14 11.3 7.5 30.1 17 38.5 19.5 6.3 1.8 33.4 14.4 38 17.6 4 2.7 17.3 11.3 19.5 12.5 1.1 0.6 4.5 2.5 7.5 4.2 11.5 6.4 23.4 10 56.9 17.2 16.6 3.6 31.2 7.9 43.6 13 20.3 8.3 34.2 13.2 41.6 14.4 5.1 0.9 6.7 3 4.4 5.6 -1.8 2 -6.1 2.4 -12.5 1.3z"/>
  <path d="M434.6 862 c-6.7 -1.2 -9.6 -7 -5.6 -11 1.7 -1.7 2.9 -1.9 9.2 -1.4 5.2 0.4 9.8 0 16.1 -1.4 l8.7 -1.9 0 4.7 c0 4.6 -0.2 4.8 -3.7 6.3 -10.1 3.9 -19.2 5.7 -24.7 4.7z"/>
  <path d="M1031.9 846.6 c-10.9 -5.6 -50.3 -27.5 -59.8 -33.3 -5.7 -3.5 -12.2 -6.8 -14.5 -7.4 -2.2 -0.6 -5.7 -1.4 -7.6 -2 -1.9 -0.5 -4.9 -1.7 -6.7 -2.8 -3.8 -2.4 -13.5 -13.9 -13 -15.5 1.3 -3.9 13.4 -0.2 21.5 6.6 8.7 7.2 12.8 9.4 24.4 12.7 14.2 4.1 27.8 11.5 53.2 28.9 4.4 3 10.2 6.2 13 7.1 5.3 1.7 6.8 3.9 4.6 6.6 -1.9 2.3 -9.8 1.8 -15.1 -0.9z"/>
  <path d="M766.1 843.4 c-4.3 -6.7 -8.3 -17.3 -7.7 -20 0.9 -3.3 3.9 -4.7 6.9 -3.3 3.1 1.4 4.1 3.6 6.7 14.8 1.7 6.9 1.9 9.4 1 11 -1.7 3.3 -3.8 2.5 -6.9 -2.5z"/>
  <path d="M1518.5 809.5 c-1.2 -0.5 -26.1 -3.8 -48.5 -6.4 -13.7 -1.6 -18.4 -2.6 -27.7 -6 -6.2 -2.2 -16.1 -4.9 -22 -6 -5.9 -1.2 -15 -3.4 -20.1 -5 -10.1 -3.2 -15 -4.4 -28.3 -6.5 -9.9 -1.6 -15.2 -4 -26.1 -11.9 -6.7 -4.8 -8.7 -5.7 -15 -6.7 -19.5 -3.2 -20.8 -3.7 -32.8 -14 -4.5 -4 -10.8 -8.8 -13.9 -10.7 -6.4 -4.1 -12.1 -9.2 -12.1 -10.9 0 -0.6 0.7 -1.7 1.5 -2.4 1.2 -1 2.2 -0.7 5.7 1.6 2.2 1.6 4.8 3.4 5.7 3.9 0.9 0.6 3.2 2.2 5.1 3.6 1.9 1.4 9.1 5.3 16 8.8 6.9 3.4 15.2 7.8 18.5 9.8 7.2 4.2 14.2 6.8 21.5 7.8 6.4 0.9 12.1 2.8 25.1 8.4 9.8 4.2 10.4 4.3 44.4 9.1 25.8 3.7 29.8 4.6 39.7 9.3 12.5 5.9 13.2 6.2 29.8 9.7 41.8 9 41 8.7 41 11.9 0 2.5 -4 3.9 -7.5 2.6z"/>
  <path d="M628.3 786.4 c-3.9 -1.9 -6 -6.3 -4.4 -9.3 1.8 -3.2 5.7 -3.7 10.6 -1.3 l4.3 2.1 -2.5 5 c-2.6 5.5 -3.2 5.8 -8 3.5z"/>
  <path d="M906.1 786.1 c-5.5 -2.2 -18.2 -11.6 -27.5 -20.2 -8.5 -7.9 -10.3 -8.9 -15.5 -8.9 -4.5 0 -14.6 -3.5 -22.3 -7.7 -8.6 -4.7 -12.2 -11.8 -8 -15.6 3.1 -2.9 6.2 -2 11.6 3.1 5.3 5 18 12.1 25.7 14.3 6.4 1.9 10.4 4.7 19.8 13.8 12.4 12.2 17.8 16 24.9 17.4 7 1.4 8 2.1 6.2 4.2 -1.7 2 -9.3 1.9 -14.9 -0.4z"/>
  <path d="M410.3 771.6 c-5.3 -2.4 -6.5 -7.2 -2.7 -11.1 2.2 -2.1 6.3 -1.8 10.4 0.8 3 1.9 4.8 2.2 13 2.2 7.8 -0.1 10.2 -0.5 13.7 -2.3 5.5 -2.9 7.5 -2.9 7.1 0 -0.4 3 -9.4 8.4 -16.2 9.7 -9.8 1.9 -21.8 2.2 -25.3 0.7z"/>
  <path d="M457 757.6 c0 -0.3 1.9 -1.9 4.2 -3.6 5.1 -3.7 7.8 -3.9 7.8 -0.6 0 1.9 -0.7 2.6 -3 3 -1.6 0.3 -4.3 0.9 -6 1.2 -1.6 0.3 -3 0.3 -3 0z"/>
  <path d="M1571 724.1 c-9.1 -3.2 -23.9 -7.8 -33 -10.5 -30.6 -8.8 -32.7 -9.7 -57 -22.8 -3.6 -2 -10.5 -4.6 -15.5 -5.8 -10.6 -2.7 -16.1 -5.3 -25.8 -12.2 -10.6 -7.6 -14.4 -8.7 -27.3 -8.5 -10 0.2 -11.2 0 -14.8 -2.2 -6.8 -4.2 -9.4 -11.1 -6 -15.9 3.1 -4.5 14 -1.8 23.7 5.9 5.3 4.2 14.1 8.7 18.5 9.4 11.5 1.9 23.2 6.7 32.7 13.7 11 8 11.6 8.2 28 10.8 8.9 1.4 15.9 3.4 24.9 7.2 3.9 1.6 12.5 4.9 19.1 7.3 30.4 10.9 45.6 17.2 50.8 20.7 2.9 2 3.6 5.5 1.5 7.6 -1.6 1.6 -0.8 1.8 -19.8 -4.7z"/>
  <path d="M1015.3 722.6 c-12.3 -4 -24.3 -15.5 -24.3 -23.4 0 -1 1.1 -2.9 2.4 -4.1 2.2 -2.1 2.7 -2.2 5.2 -0.9 1.6 0.7 5 4.5 7.6 8.5 5.4 8.2 10.2 11.9 17.2 13.2 2.6 0.5 5.4 1.5 6.2 2.3 3.9 3.9 -6.3 7 -14.3 4.4z"/>
  <path d="M1239 717.3 c-4.7 -1.3 -15 -5.2 -23 -8.5 -20.1 -8.3 -31.6 -12.4 -45 -15.9 -17.5 -4.6 -22.6 -7.3 -36.8 -19.6 -10.3 -8.9 -16.8 -13 -25 -15.8 -12.6 -4.3 -16.8 -7.5 -17.8 -13.7 -0.5 -2.7 -0.1 -4 1.8 -6.3 4.2 -4.8 10.8 -2.9 14.9 4.5 2.6 4.6 7.8 7.7 18.9 11.1 13 4.1 20.7 7.6 29.5 13.5 8.7 5.8 13.8 8 26 11.4 10.2 2.9 20.1 7.8 29 14.4 10.7 8.1 27.5 16.4 39.5 19.6 7 1.9 9.2 3.9 7.1 6.4 -1.9 2.3 -8.9 1.9 -19.1 -1.1z"/>
  <path d="M643.5 697.8 c-9.1 -2.3 -13.2 -4.8 -14.1 -8.4 -0.9 -3.5 1 -7.2 4 -8 2.8 -0.7 8.1 1.8 9.5 4.5 2.5 4.5 17.4 8.7 25.6 7.2 8.4 -1.6 8.8 3 0.5 5.5 -6.3 1.9 -16.1 1.6 -25.5 -0.8z"/>
  <path d="M951 694.6 c-11.7 -4.9 -34 -16.8 -33.4 -17.8 1.4 -2.2 9.4 0.1 21.4 6.2 6.9 3.4 15.4 7.3 19 8.5 7.5 2.6 8.6 4.9 2.5 5.2 -2.4 0.2 -6.2 -0.7 -9.5 -2.1z"/>
  <path d="M901.9 677.1 c-6.4 -0.9 -16.2 -6 -24 -12.5 -7.6 -6.3 -9.1 -9.5 -6.1 -13.5 3.8 -5.1 9.1 -3.4 12.3 3.8 1.1 2.5 3 5.7 4.2 7 3.7 4 11.9 8.7 17.5 10.1 3.9 0.9 5.2 1.7 5.2 3 0 1.6 -2.1 3.2 -3.8 2.9 -0.4 -0.1 -2.8 -0.5 -5.3 -0.8z"/>
  <path d="M349 672.1 c-1.4 -2.7 -0.3 -5.1 5.2 -11 4.6 -5 4.8 -5.1 10.5 -5.1 3.2 0.1 8.5 0.7 11.8 1.5 7 1.7 14.1 1.9 15 0.5 0.8 -1.3 4.2 -1.3 4.9 -0.1 1.1 1.8 -1.4 6.1 -4.5 8 -2.6 1.6 -4.5 1.9 -10.8 1.5 -9 -0.5 -18.8 -2.2 -21.4 -3.6 -2.6 -1.3 -2.9 -0.7 -1.5 3 1 2.7 0.9 3.4 -0.7 5.1 -2.3 2.7 -7.1 2.8 -8.5 0.2z"/>
  <path d="M420 656.3 c-1.9 -1 -4.1 -3 -5 -4.5 -1.3 -2.5 -1.3 -3.1 0 -5.5 1.9 -3.4 7 -4.2 12.5 -1.9 4.4 1.9 13.7 2.1 16.8 0.5 1.2 -0.6 3.6 -2.5 5.3 -4.1 1.8 -1.7 4 -2.8 5 -2.6 5.7 1 -1 11.9 -10 16.3 -7.4 3.6 -19.4 4.5 -24.6 1.8z"/>
  <path d="M1374.5 646 c-9.9 -1.5 -60.8 -16.6 -67.6 -20.1 -5.8 -2.9 -10.5 -7.5 -12.9 -12.4 -2.5 -5.1 -2.1 -7.5 1.7 -10.5 3.6 -2.8 6.1 -2.5 12.9 1.6 8.8 5.4 11.5 6.8 15.9 8.3 2.2 0.7 5.4 1.9 7 2.6 1.7 0.7 11.6 4.7 22 9 10.5 4.2 20.9 8.5 23.2 9.6 2.4 1 5 1.9 5.8 1.9 0.8 0 2.4 0.9 3.5 2 1.6 1.6 1.8 2.4 0.8 4.4 -0.6 1.4 -2.4 3 -4.1 3.6 -1.6 0.5 -3 0.9 -3.1 0.9 -0.1 -0.1 -2.3 -0.5 -5.1 -0.9z"/>
  <path d="M1590 645.3 c-0.8 -0.3 -3.8 -1.6 -6.5 -2.9 -2.8 -1.2 -7.4 -3.2 -10.4 -4.4 -2.9 -1.1 -7.2 -3.3 -9.5 -4.9 -2.2 -1.6 -7.7 -4.8 -12.1 -7.2 -4.4 -2.3 -11.6 -6.5 -15.9 -9.1 -4.4 -2.6 -10.2 -5.5 -13 -6.3 -13.6 -3.9 -24.4 -6.8 -37.9 -10 -16.6 -3.9 -25.7 -7.4 -42.7 -16.3 -6.3 -3.3 -16.9 -7.9 -23.5 -10.2 -13.6 -4.6 -17.5 -6.9 -26 -15.1 -3.2 -3.2 -8.6 -7.1 -12 -8.7 -3.3 -1.6 -10.7 -5.2 -16.5 -8 -13.3 -6.4 -19.2 -10.8 -22 -16.7 -2.6 -5.3 -2.1 -8.7 1.5 -11.1 3.4 -2.2 5.7 -1.2 13.1 5.7 9.1 8.4 19.5 15 31.8 19.9 8.7 3.5 10.5 4.4 18.2 9.7 7.4 5.1 14.5 8.5 23.9 11.4 7.3 2.2 9.4 3.1 21 8.5 21.2 9.8 22.3 10.2 40 15.5 14.9 4.4 23.4 8.1 29.4 12.8 2 1.5 8.1 4.9 13.6 7.5 5.5 2.6 12.3 6.5 15.2 8.7 2.9 2.1 9.5 5.9 14.8 8.4 8.9 4.2 26.6 15.6 29.5 19 1 1.2 1 1.8 0 3 -1.3 1.6 -1.7 1.7 -4 0.8z"/>
  <path d="M467.4 638.6 c-7.3 -3.2 -5.1 -11.6 3.1 -11.6 4.9 0 5.6 1.1 5.3 7.1 -0.3 4.9 -0.5 5.4 -2.8 5.6 -1.4 0.2 -3.9 -0.4 -5.6 -1.1z"/>
  <path d="M1066.5 635.8 c-7.9 -4.3 -21.5 -22.8 -21.5 -29.2 0 -2.8 2.4 -5.6 4.7 -5.6 4.8 0 8.5 3.5 16.7 15.9 4.5 6.9 8.6 13.2 9 13.9 0.4 0.7 0 2.4 -0.8 3.7 -1.8 2.7 -4.8 3.2 -8.1 1.3z"/>
  <path d="M1021.5 606.2 c-6 -2.2 -15 -7.9 -19.4 -12.2 -4 -4.1 -4.8 -7.3 -2.6 -10.6 1.4 -2.2 2.2 -2.5 4.8 -2 3.1 0.6 5.6 2.8 12.5 11.5 4.2 5.2 9.8 8.1 15.6 8.1 5.5 0 8.6 2.4 6.2 4.8 -2.3 2.3 -11.2 2.6 -17.1 0.4z"/>
  <path d="M1249.1 600.6 c-7.1 -3.9 -6.8 -16.6 0.5 -22.1 2.9 -2.2 5.3 -1.8 8.5 1.5 2.6 2.5 3 3.6 2.8 7.7 0 2.7 0.2 5.8 0.6 7 0.5 1.6 0 2.8 -1.9 4.7 -2.8 2.9 -6.7 3.3 -10.5 1.2z"/>
  <path d="M688.5 590.9 c-6.5 -1 -12.8 -3.5 -14.9 -5.8 -0.9 -1 -1.9 -3.4 -2.2 -5.3 -0.5 -2.9 -0.2 -3.8 2 -5.6 3.3 -2.5 6.2 -1.9 13.5 3.1 6.9 4.8 12.3 5.6 18.6 2.8 5.7 -2.5 8.1 -2.6 8.9 -0.5 0.8 2.2 0.9 2 -2.6 5.4 -5.5 5.1 -14.1 7.3 -23.3 5.9z"/>
  <path d="M970.5 588.3 c-2.7 -0.8 -7.5 -3.2 -10.5 -5.2 -9 -6.1 -12.1 -12.7 -8.4 -17.9 3.1 -4.4 8.8 -1.9 13.9 6.1 4.7 7.3 7.9 9.2 15.9 9.4 7.3 0.2 9 1 8.4 3.9 -0.7 4.1 -11.3 6.1 -19.3 3.7z"/>
  <path d="M633 584.6 c-7.4 -2.6 -14.4 -6 -17.9 -8.7 -2.4 -1.9 -5.2 -1.6 -3.2 0.4 1.6 1.6 1.3 3.5 -0.9 5.7 -2.4 2.4 -5.3 2.6 -7.4 0.4 -3.6 -3.5 -1.4 -7 7.6 -11.9 l5.1 -2.8 5.4 1.7 c3 1 7.8 3.1 10.6 4.8 7 4.1 12.5 6 14.5 4.9 4.5 -2.3 5.7 2.5 1.6 5.8 -3.4 2.7 -7.3 2.6 -15.4 -0.3z"/>
  <path d="M725.3 582.4 c-3.6 -2.8 -4.3 -6.3 -1.7 -8.8 1.9 -2 7.4 -2.1 9.9 -0.3 1.7 1.3 1.7 1.6 -0.6 6.5 -1.3 2.8 -2.8 5.1 -3.4 5.1 -0.5 0.1 -2.5 -1.1 -4.2 -2.5z"/>
  <path d="M1224 581.6 c-9 -3.7 -21.9 -11.4 -31.2 -18.6 -9 -6.9 -11.1 -7.8 -24.3 -10 -8.4 -1.4 -22.7 -6.6 -35.5 -13 -5.2 -2.6 -14.4 -6.4 -20.5 -8.5 -10.5 -3.5 -15.9 -6.5 -19.8 -10.9 -7.4 -8.6 -9.4 -9.6 -19.5 -9.6 -5.4 0 -9.5 -2.3 -11.9 -6.7 -1.3 -2.5 -1.5 -3.7 -0.7 -5.1 1.9 -3 4.8 -2.5 10 1.8 5.2 4.3 9.6 6 15.6 6 4.7 0 12.8 3 17.3 6.4 4.2 3.2 11.2 6 19 7.6 16.8 3.3 36.3 11.7 45.5 19.6 8.8 7.5 16.1 12 23.4 14.3 8 2.6 13.5 5.2 22.6 11 7.8 4.9 18.2 10 22.1 10.8 3.9 0.8 5.3 2.6 3.9 5.2 -1.5 2.9 -8.8 2.7 -16 -0.3z"/>
  <path d="M920.5 563.6 c-4.2 -1.8 -13.3 -10.3 -18 -16.9 -4.3 -6 -5.5 -6.8 -5.5 -3.9 0 1.1 -0.9 2.7 -2 3.7 -1.6 1.5 -2.6 1.7 -4.7 0.9 -3.9 -1.4 -5 -3.7 -3 -6.7 1.3 -1.9 3 -2.7 8.1 -3.6 9.5 -1.7 10.8 -0.9 23.9 14.2 4.1 4.7 6.5 6.7 8.1 6.7 1.3 0 2.9 0.6 3.5 1.4 1 1.2 0.8 1.9 -0.8 3.5 -2.4 2.4 -5.3 2.6 -9.6 0.7z"/>
  <path d="M356 555.8 c-2.8 -1.5 -3.8 -5.2 -1.9 -7.4 0.9 -1.2 3.9 -1.4 14.8 -1.3 7.5 0.1 15.4 -0.3 17.6 -0.9 9.3 -2.6 32.5 -3.7 33.2 -1.6 0.5 1.5 -4.1 3.4 -8.4 3.4 -2 0 -6.4 0.4 -9.7 0.9 -3.4 0.6 -10.1 1.5 -15.1 2.1 -4.9 0.6 -9.4 1.4 -10 1.8 -4.9 3.2 -16.8 4.9 -20.5 3z"/>
  <path d="M426.6 538.9 c-2.9 -4.2 -0.7 -5.7 9.4 -6.5 3.6 -0.3 8.2 -1.2 10.2 -2 3.2 -1.2 3.9 -1.2 5.3 0.2 1.9 1.9 1.9 2.9 -0.1 4.8 -2.5 2.6 -4.7 3.5 -10.5 4.1 -3 0.3 -7.1 0.8 -9.1 1 -2.9 0.4 -4 0.1 -5.2 -1.6z"/>
  <path d="M461.3 532.4 c-2.2 -1.1 -3.3 -2.4 -3.3 -3.8 0 -3.6 2 -4.6 9.2 -4.6 4.9 0 8.1 -0.6 11 -2 5.1 -2.5 4.8 -2.5 4.8 0.3 0 3.8 -11.1 11.7 -16.2 11.7 -1.3 0 -3.8 -0.8 -5.5 -1.6z"/>
  <path d="M1311.3 519.9 c-7.4 -1.4 -25.4 -12 -38.4 -22.5 -4.4 -3.5 -9.7 -7.6 -11.8 -9 -4.5 -2.9 -22.9 -7.4 -31.1 -7.5 -7.1 0 -11.8 -1.7 -14.4 -5.2 l-2 -2.7 2 -2.1 c1.8 -1.8 2.5 -1.9 6.5 -0.9 2.4 0.5 8.2 1.9 12.9 3 4.7 1.1 11.9 3.8 16 6 4.2 2.1 10.5 4.6 14 5.5 3.6 0.9 8.4 2.5 10.7 3.6 2.4 1 4.7 1.9 5.1 1.9 1 0 10.5 6.2 16.7 10.9 8.8 6.7 15.2 10.4 19.5 11.5 3.4 0.8 4.6 1.6 4.8 3.2 0.5 3.8 -3.8 5.6 -10.5 4.3z"/>
  <path d="M1038.4 495.4 c-8.4 -5.6 -9.7 -7 -8.3 -9.5 1.5 -2.8 4.3 -2.3 10.7 1.7 3.1 2 7.6 4.5 9.9 5.5 6.4 2.7 5.3 6.9 -1.7 6.9 -2.6 0 -5.5 -1.3 -10.6 -4.6z"/>
  <path d="M1014.9 486.2 c-5.5 -4.2 -27.9 -17.3 -33 -19.3 -11.4 -4.4 -13.1 -5.3 -15.5 -8.2 -2.7 -3.2 -3 -5.5 -1.1 -8.2 2.1 -2.8 5.3 -1.3 13.7 6.3 4.2 3.8 11.2 8.8 16 11.4 13.6 7.3 26 16.1 26 18.4 0 2 -3.3 1.7 -6.1 -0.4z"/>
  <path d="M753.5 481.5 c-4.1 -2.1 -6.4 -5.1 -5.8 -7.5 0.7 -2.8 4 -3.4 9.2 -1.5 5.5 1.9 14 1.9 17.7 0 2.7 -1.4 9.4 -2.1 9.4 -1 0 0.2 -0.8 2 -1.7 4 -1.6 3.4 -2 3.6 -5.3 3 -2.4 -0.4 -5.7 0.2 -10.7 2 -8.5 2.9 -8.9 3 -12.8 1z"/>
  <path d="M723.7 479.2 c-8.5 -1.8 -10.6 -3.6 -8.7 -7.2 1.3 -2.4 1.6 -2.4 10.5 -0.5 3.9 0.8 8.9 1.5 11.2 1.5 2.3 0 4.5 0.5 4.8 1 1.2 1.9 -0.6 4.8 -3.7 5.9 -3.8 1.4 -4.5 1.3 -14.1 -0.7z"/>
  <path d="M695 478.9 c-17.4 -3.5 -22.9 -4.2 -34 -4.4 -13.7 -0.3 -17.1 -1.1 -19.5 -4.9 -1.7 -2.6 -0.9 -5.8 1.7 -6.9 0.8 -0.2 6.5 1.3 12.8 3.4 6.3 2.1 13.2 3.8 15.2 3.8 4.8 0.1 28.4 4.9 32.6 6.7 6.7 2.8 1.1 4.3 -8.8 2.3z"/>
  <path d="M1197.9 471.7 c-4.2 -0.9 -41.9 -17.7 -44.8 -20 -4.1 -3.5 -2.3 -10.7 2.8 -10.7 2.5 0 20 9.2 27.8 14.8 6.2 4.3 16.2 9.2 20.4 9.8 6.4 1 8.1 2.1 6.9 4.3 -1.2 2.3 -6.8 3 -13.1 1.8z"/>
  <path d="M334.2 469.5 c-3.7 -1.6 -5.7 -5.6 -4.2 -8.5 0.6 -1.1 2.7 -2.2 4.7 -2.6 2.1 -0.4 6.2 -1.8 9.3 -3.1 4.8 -2.2 6.5 -2.4 13 -1.9 4.1 0.3 9.2 0.8 11.3 1.2 3.2 0.5 5 0 10.8 -3 9.5 -5 41.7 -18.6 44 -18.6 3.8 0 1.7 2 -6.3 5.9 -4.6 2.2 -13.1 6.9 -19 10.4 -10.1 6 -12.4 7 -22.6 9.7 -2.6 0.7 -4.8 2.1 -5.9 3.6 -2.6 4 -8 6.1 -19.1 7.3 -12.5 1.3 -11.9 1.4 -16 -0.4z"/>
  <path d="M442.1 441.4 c-2.7 -1.9 -5.3 -7.6 -4.5 -9.8 0.9 -2.4 4.2 -2.9 6.9 -1.2 1.4 0.9 2.5 2.1 2.5 2.7 0 0.6 0.8 0.9 1.9 0.6 2.3 -0.6 5.1 1 5.1 2.9 0 2.3 -4.6 6.4 -7.2 6.4 -1.3 0 -3.4 -0.7 -4.7 -1.6z"/>
  <path d="M1107.3 425.8 c-3.1 -1.5 -5.3 -7.5 -4.1 -11 1.3 -3.6 3.3 -5.1 5.7 -4.3 1.8 0.5 4.5 5.8 3.5 6.8 -0.2 0.2 0.5 1.2 1.6 2.2 2.6 2.3 2.5 4 -0.2 5.9 -2.6 1.8 -3.4 1.9 -6.5 0.4z"/>
  <path d="M1090.8 404.5 c-0.7 -0.7 -25.1 -5.1 -32.6 -5.9 -3.8 -0.4 -9.5 -2.1 -14.1 -4.1 -6.6 -2.9 -8.2 -3.3 -11.6 -2.5 -4.9 1.1 -9.3 -0.3 -18.3 -6.1 -8.3 -5.3 -11 -7.6 -12.8 -11.2 -1.8 -3.4 -1.1 -6.2 2.2 -8.4 2.4 -1.5 2.7 -1.5 5.4 0.6 1.6 1.1 3.8 2.1 4.8 2.1 5.3 0 16.1 6.5 20.2 12.2 4.2 5.8 5.6 6.5 16.2 8.8 10.5 2.2 36.4 9.4 41.5 11.5 1.9 0.8 3.2 1.9 2.8 2.5 -0.6 1 -2.8 1.4 -3.7 0.5z"/>
  <path d="M816 396.3 c-5.1 -1.9 -6.5 -6.8 -2.9 -10.4 1.7 -1.7 2.8 -1.9 6.2 -1.4 2.3 0.4 4.5 0.9 4.9 1.2 1.4 0.8 -4.4 11.4 -6.1 11.2 -0.3 0 -1.3 -0.3 -2.1 -0.6z"/>
  <path d="M762 389 c-2.7 -0.6 -7 -6.2 -7 -9 0 -1 0.8 -2.8 1.8 -4 2.3 -2.9 5.6 -2 7.7 2.1 0.9 1.6 2.2 2.9 2.9 2.9 0.7 0 1.9 0.7 2.6 1.5 1 1.2 0.9 2 -0.3 3.9 -1.8 2.7 -4.1 3.5 -7.7 2.6z"/>
  <path d="M663.5 387.5 c-3.3 -0.8 -7.7 -1.6 -9.7 -2 -4.1 -0.6 -9.3 -4.5 -10.3 -7.6 -0.4 -1.1 0 -3 0.8 -4.3 1.4 -2.1 2.2 -2.3 13.1 -2.4 12.4 -0.2 16.6 0.8 23.6 5.5 3.7 2.4 9 3 13.3 1.4 2.6 -1 13.8 -2.7 24.2 -3.6 5.9 -0.5 9.9 -0.9 18 -2 3.9 -0.5 7.6 0.7 6.3 2.1 -0.4 0.4 -4.2 1.3 -8.5 2 -9.5 1.6 -19 3.7 -26.3 5.8 -3 0.9 -9.2 1.6 -14.2 1.6 -7.4 0 -9.4 0.4 -13.4 2.5 -5.2 2.8 -8.1 2.9 -16.9 1z"/>
 </g>
</svg>