<svg width="167" height="132" viewBox="0 0 167 132" fill="none" xmlns="http://www.w3.org/2000/svg">
<path d="M141.894 71.7029L147.484 60.8949L158.722 77.2522L141.894 71.7029ZM108.92 120.207C107.454 123.042 104.56 124.802 101.368 124.802H72.987L122.407 64.7788C123.832 63.0455 125.828 61.8428 128.028 61.3949L140.683 58.8095L108.92 120.207ZM34.1763 124.802C31.3643 124.802 28.7376 123.414 27.1523 121.09L25.6496 118.884L40.8643 11.0869C41.0203 9.97218 41.8843 9.64819 42.2496 9.56019C42.6123 9.47219 43.5296 9.36685 44.1776 10.2855L96.7563 84.9188L63.9203 124.802H34.1763ZM21.6523 97.1055L19.791 110.292L7.66296 92.5015L21.6523 97.1055ZM81.0923 8.20285C81.5163 7.04684 82.5056 6.98286 82.9243 7.00419C83.3336 7.02819 84.3163 7.21485 84.5976 8.41486L101.176 79.0402L70.891 36.0508L81.0923 8.20285ZM165.219 74.3469L152.351 55.6149C150.034 52.2389 145.942 50.5882 141.935 51.4095L126.627 54.5362C122.862 55.3055 119.442 57.3642 117.002 60.3295L106.866 72.6415L91.4136 6.81485C90.515 2.98552 87.2723 0.25351 83.3456 0.0161896C79.419 -0.218491 75.871 2.10153 74.5203 5.79619L65.987 29.0895L49.9003 6.25485C47.799 3.27219 44.1483 1.89885 40.607 2.75485C37.063 3.61086 34.4416 6.49619 33.931 10.1082L22.647 90.0628L8.64029 85.4535C5.92029 84.5575 3.06162 85.4562 1.34029 87.7402C-0.378377 90.0242 -0.45038 93.0268 1.16029 95.3895L21.3683 125.034C24.259 129.271 29.047 131.802 34.1763 131.802H101.368C107.188 131.802 112.463 128.592 115.136 123.424L138.636 78.0002L157.751 84.3028C160.471 85.2002 163.342 84.2962 165.059 82.0068C166.778 79.7148 166.84 76.7082 165.219 74.3469Z" fill="white"/>
</svg>
