<svg width="709" height="133" viewBox="0 0 709 133" fill="none" xmlns="http://www.w3.org/2000/svg">
<path d="M141.894 72.6975L147.484 61.8895L158.722 78.2468L141.894 72.6975ZM108.92 121.201C107.454 124.036 104.56 125.796 101.368 125.796H72.987L122.407 65.7735C123.832 64.0401 125.828 62.8375 128.028 62.3895L140.683 59.8041L108.92 121.201ZM34.1763 125.796C31.3643 125.796 28.7376 124.408 27.1523 122.084L25.6496 119.879L40.8643 12.0815C41.0203 10.9668 41.8843 10.6428 42.2496 10.5548C42.6123 10.4668 43.5296 10.3615 44.1776 11.2801L96.7563 85.9135L63.9203 125.796H34.1763ZM21.6523 98.1001L19.791 111.287L7.66296 93.4961L21.6523 98.1001ZM81.0923 9.19748C81.5163 8.04148 82.5056 7.97748 82.9243 7.99882C83.3336 8.02282 84.3163 8.20948 84.5976 9.40948L101.176 80.0348L70.891 37.0455L81.0923 9.19748ZM165.219 75.3415L152.351 56.6095C150.034 53.2335 145.942 51.5828 141.935 52.4041L126.627 55.5308C122.862 56.3001 119.442 58.3588 117.002 61.3241L106.866 73.6361L91.4136 7.80948C90.515 3.98014 87.2723 1.24814 83.3456 1.01081C79.419 0.776144 75.871 3.09615 74.5203 6.79082L65.987 30.0842L49.9003 7.24948C47.799 4.26681 44.1483 2.89348 40.607 3.74948C37.063 4.60548 34.4416 7.49081 33.931 11.1028L22.647 91.0575L8.64029 86.4481C5.92029 85.5521 3.06162 86.4508 1.34029 88.7348C-0.378377 91.0188 -0.45038 94.0215 1.16029 96.3841L21.3683 126.028C24.259 130.265 29.047 132.796 34.1763 132.796H101.368C107.188 132.796 112.463 129.587 115.136 124.419L138.636 78.9948L157.751 85.2975C160.471 86.1948 163.342 85.2908 165.059 83.0015C166.778 80.7095 166.84 77.7028 165.219 75.3415" fill="white"/>
</svg>
