<svg width="522" height="100" viewBox="0 0 522 100" fill="none" xmlns="http://www.w3.org/2000/svg">
<path d="M124.04 56.5001L114.39 42.4501C112.65 39.9201 109.58 38.6801 106.58 39.3001L95.0999 41.6501C92.2799 42.2301 89.7099 43.7701 87.8799 46.0001L80.2799 55.2301L68.6899 5.86006C68.0199 2.99006 65.5799 0.940064 62.6399 0.760064C59.6899 0.580064 57.0299 2.32006 56.0199 5.09006L49.6199 22.5601L37.5499 5.43006C35.9699 3.19006 33.2399 2.16006 30.5799 2.81006C27.9199 3.45006 25.9599 5.62007 25.5699 8.32007L17.1099 68.2901L6.59994 64.8301C4.55994 64.1601 2.41993 64.8301 1.12993 66.5501C-0.160066 68.2601 -0.210063 70.5101 0.999937 72.2901L16.1599 94.5201C18.3299 97.7001 21.9199 99.6001 25.7699 99.6001H76.1599C80.5199 99.6001 84.4799 97.1901 86.4899 93.3201L104.11 59.2501L118.45 63.9801C120.49 64.6501 122.64 63.9801 123.93 62.2601C125.22 60.5401 125.27 58.2901 124.05 56.5201L124.04 56.5001ZM60.9499 6.89006C61.2699 6.02006 62.0099 5.98006 62.3199 5.99006C62.6299 6.01006 63.3599 6.15007 63.5699 7.05007L75.9999 60.0201L53.2899 27.7801L60.9399 6.89006H60.9499ZM16.3699 73.5701L14.9699 83.4601L5.86994 70.1201L16.3599 73.5701H16.3699ZM25.7599 94.3401C23.6499 94.3401 21.6799 93.3001 20.4899 91.5601L19.3599 89.9101L30.7699 9.06006C30.8899 8.22006 31.5399 7.98006 31.8099 7.92006C32.0799 7.85006 32.7699 7.77007 33.2599 8.46007L72.6899 64.4301L48.0599 94.3401H25.7499H25.7599ZM81.8199 90.8901C80.7199 93.0201 78.5499 94.3401 76.1599 94.3401H54.8699L91.9299 49.3201C92.9999 48.0201 94.4999 47.1201 96.1499 46.7801L105.64 44.8401L81.8199 90.8901V90.8901ZM106.55 54.5101L110.74 46.4001L119.17 58.6701L106.55 54.5101V54.5101Z" fill="#2D2D33"/>
<path d="M158.77 67.6099L143.87 32.8699H151.9L163.02 59.3899L174.47 32.8699H181.85L166.95 67.6099H158.77Z" fill="white"/>
<path d="M200.89 68.07C197.08 68.07 193.67 67.3 190.78 65.79C187.89 64.28 185.62 62.15 184.05 59.45C182.47 56.75 181.67 53.65 181.67 50.24C181.67 46.83 182.45 43.79 183.98 41.09C185.51 38.4 187.65 36.26 190.35 34.75C193.05 33.24 196.15 32.47 199.57 32.47C202.81 32.47 205.8 33.18 208.46 34.59C211.11 35.99 213.24 38.03 214.8 40.63C216.32 43.19 217.11 46.22 217.14 49.64L190.05 54.94L190.17 55.22C191.02 57.29 192.41 58.88 194.3 59.96C196.18 61.03 198.46 61.58 201.09 61.58C204.87 61.58 208.09 60.33 210.64 57.87L214.69 62.59C213.2 64.36 211.28 65.73 208.98 66.64C206.6 67.59 203.88 68.07 200.89 68.07V68.07ZM199.57 38.57C196.48 38.57 193.94 39.6 192.03 41.62C190.12 43.64 189.16 46.38 189.16 49.78V50.08H189.46L209.65 46.21L209.58 45.95C209 43.75 207.8 41.95 206.02 40.6C204.25 39.25 202.07 38.57 199.57 38.57V38.57Z" fill="white"/>
<path d="M248.37 67.61V48.72C248.37 45.59 247.61 43.19 246.13 41.59C244.63 39.98 242.49 39.17 239.74 39.17C236.65 39.17 234.17 40.12 232.37 41.99C230.57 43.86 229.66 46.57 229.66 50.05V67.62H221.91V32.88H229.26V37.87L229.7 37.34C231.03 35.75 232.73 34.53 234.75 33.72C236.78 32.9 239.1 32.48 241.65 32.48C246.01 32.48 249.55 33.77 252.17 36.3C254.79 38.84 256.12 42.66 256.12 47.67V67.62H248.37V67.61Z" fill="white"/>
<path d="M274.1 68.07C270.31 68.07 267.35 67.07 265.3 65.1C263.25 63.13 262.21 60.22 262.21 56.44V25.08H269.96V33.13H279.4V39.2299H269.96V56.24C269.96 58.02 270.42 59.39 271.32 60.34C272.22 61.29 273.49 61.77 275.1 61.77C276.87 61.77 278.38 61.33 279.61 60.46L281.73 65.86C280.82 66.57 279.71 67.1199 278.43 67.4799C277.07 67.8699 275.62 68.06 274.11 68.06L274.1 68.07Z" fill="white"/>
<path d="M300.08 68.07C295.46 68.07 291.78 66.77 289.13 64.21C286.49 61.65 285.15 57.79 285.15 52.74V32.86H292.9V51.62C292.9 54.84 293.64 57.28 295.11 58.88C296.58 60.49 298.7 61.3 301.4 61.3C304.4 61.3 306.83 60.35 308.61 58.48C310.39 56.61 311.29 53.9 311.29 50.42V32.85H319.04V67.59H311.69V62.66L311.25 63.19C309.96 64.74 308.33 65.95 306.39 66.78C304.45 67.62 302.33 68.05 300.09 68.05L300.08 68.07Z" fill="white"/>
<path d="M365.44 68.07C361.63 68.07 358.22 67.3 355.33 65.79C352.44 64.28 350.17 62.15 348.6 59.45C347.02 56.75 346.22 53.65 346.22 50.24C346.22 46.83 347 43.79 348.53 41.09C350.06 38.39 352.21 36.26 354.9 34.75C357.6 33.24 360.7 32.47 364.12 32.47C367.36 32.47 370.35 33.18 373.01 34.59C375.66 35.99 377.79 38.03 379.35 40.63C380.87 43.19 381.66 46.22 381.69 49.64L354.6 54.94L354.72 55.22C355.57 57.29 356.96 58.88 358.85 59.96C360.73 61.03 363.01 61.58 365.64 61.58C369.42 61.58 372.64 60.33 375.19 57.87L379.23 62.59C377.74 64.36 375.82 65.73 373.52 66.64C371.14 67.59 368.42 68.07 365.43 68.07H365.44ZM364.12 38.57C361.03 38.57 358.49 39.6 356.58 41.62C354.67 43.64 353.71 46.38 353.71 49.78V50.08H354.01L374.2 46.21L374.13 45.95C373.55 43.75 372.35 41.95 370.57 40.6C368.8 39.25 366.62 38.57 364.12 38.57V38.57Z" fill="white"/>
<path d="M403.37 68.07C399.78 68.07 396.51 67.3 393.65 65.79C390.8 64.28 388.55 62.14 386.95 59.45C385.35 56.75 384.54 53.65 384.54 50.24C384.54 46.83 385.35 43.74 386.95 41.06C388.54 38.39 390.79 36.26 393.62 34.75C396.45 33.24 399.73 32.47 403.37 32.47C406.79 32.47 409.82 33.17 412.39 34.55C414.88 35.89 416.8 37.83 418.09 40.31L412.17 43.77C411.16 42.21 409.9 41.02 408.41 40.22C406.86 39.39 405.15 38.97 403.31 38.97C400.18 38.97 397.54 40 395.48 42.05C393.42 44.09 392.37 46.85 392.37 50.25C392.37 53.65 393.41 56.41 395.45 58.45C397.49 60.49 400.14 61.53 403.32 61.53C405.16 61.53 406.88 61.11 408.42 60.28C409.9 59.48 411.17 58.29 412.18 56.73L418.1 60.19C416.77 62.67 414.83 64.62 412.34 65.98C409.77 67.38 406.76 68.09 403.38 68.09L403.37 68.07Z" fill="white"/>
<path d="M423.15 67.61V32.87H430.5V38.62L430.96 37.9C433.24 34.35 437.31 32.52 443.04 32.47V39.39C438.91 39.39 435.52 40.6 433.67 42.51C431.83 44.42 430.89 47.2 430.89 50.77V67.61H423.14H423.15Z" fill="white"/>
<path d="M325.71 67.61V32.87H333.06V38.62L333.52 37.9C335.8 34.35 339.87 32.52 345.6 32.47V39.39C341.47 39.39 338.08 40.6 336.23 42.51C334.39 44.42 333.45 47.2 333.45 50.77V67.61H325.7H325.71Z" fill="white"/>
<path d="M480.58 67.6099V30.6399C480.58 26.9899 481.67 24.0499 483.81 21.9099C485.95 19.7699 489.04 18.6799 493.01 18.6799C495.98 18.6799 498.36 19.2699 500.1 20.4399L497.97 26.1599C496.68 25.2899 495.21 24.8499 493.6 24.8499C489.97 24.8499 488.14 26.8399 488.14 30.7799V33.1399H497.84V39.2399H488.34V67.6199H480.59L480.58 67.6099Z" fill="white"/>
<path d="M514 68.07C510.21 68.07 507.25 67.07 505.2 65.1C503.15 63.14 502.11 60.22 502.11 56.44V25.08H509.86V33.13H519.3V39.2299H509.86V56.24C509.86 58.02 510.32 59.4 511.22 60.34C512.12 61.29 513.39 61.77 515 61.77C516.77 61.77 518.28 61.33 519.51 60.46L521.63 65.86C520.72 66.57 519.61 67.1199 518.33 67.4799C516.97 67.8699 515.52 68.06 514.01 68.06L514 68.07Z" fill="white"/>
<path d="M474.82 67.61V44.94C474.75 37.01 469.46 32.46 460.42 32.46C460.16 32.46 459.92 32.46 459.68 32.47H448.18V39.38H461.4C462.51 39.38 463.64 39.6199 464.57 40.2299C466.19 41.2899 467.01 42.9799 467.01 45.2899V46.21H456.52C448.13 46.28 443.12 50.27 443.12 56.91C443.12 63.55 448.25 67.94 455.6 67.94C460.33 67.94 464.15 66.59 466.65 64.03L467.08 63.59V67.61H474.82V67.61ZM467.01 55.14C466.61 58.92 462.47 61.66 457.19 61.66C453.08 61.66 450.53 59.72 450.53 56.59C450.53 53.46 452.66 52.0399 457.65 52.0399H467.01V55.14Z" fill="white"/>
</svg>
