<svg width="522" height="99" viewBox="0 0 522 99" fill="none" xmlns="http://www.w3.org/2000/svg">
<path d="M123.914 55.7527L114.264 41.7027C112.524 39.1727 109.454 37.9327 106.454 38.5527L94.9737 40.9027C92.1537 41.4827 89.5837 43.0227 87.7537 45.2527L80.1537 54.4827L68.5637 5.11275C67.8937 2.24275 65.4537 0.192749 62.5137 0.0127495C59.5637 -0.167251 56.9037 1.57274 55.8937 4.34274L49.4937 21.8127L37.4237 4.68275C35.8437 2.44275 33.1137 1.41274 30.4537 2.06274C27.7937 2.70274 25.8337 4.87275 25.4437 7.57275L16.9837 67.5427L6.47371 64.0827C4.43371 63.4127 2.29371 64.0827 1.00371 65.8027C-0.286286 67.5127 -0.336284 69.7627 0.873716 71.5427L16.0337 93.7728C18.2037 96.9528 21.7937 98.8528 25.6437 98.8528H76.0337C80.3937 98.8528 84.3537 96.4428 86.3637 92.5728L103.984 58.5027L118.324 63.2327C120.364 63.9027 122.514 63.2327 123.804 61.5127C125.094 59.7927 125.144 57.5428 123.924 55.7728L123.914 55.7527ZM60.8237 6.14275C61.1437 5.27275 61.8837 5.23275 62.1937 5.24275C62.5037 5.26275 63.2337 5.40275 63.4437 6.30275L75.8737 59.2728L53.1637 27.0327L60.8137 6.14275H60.8237ZM16.2437 72.8228L14.8437 82.7128L5.74372 69.3727L16.2337 72.8228H16.2437ZM25.6337 93.5927C23.5237 93.5927 21.5537 92.5527 20.3637 90.8127L19.2337 89.1628L30.6437 8.31275C30.7637 7.47275 31.4137 7.23275 31.6837 7.17275C31.9537 7.10275 32.6437 7.02275 33.1337 7.71275L72.5637 63.6827L47.9337 93.5927H25.6237H25.6337ZM81.6937 90.1427C80.5937 92.2727 78.4237 93.5927 76.0337 93.5927H54.7437L91.8037 48.5728C92.8737 47.2728 94.3737 46.3727 96.0237 46.0327L105.514 44.0927L81.6937 90.1427V90.1427ZM106.424 53.7627L110.614 45.6527L119.044 57.9227L106.424 53.7627V53.7627Z" fill="white"/>
<path d="M158.644 66.8626L143.744 32.1226H151.774L162.894 58.6426L174.344 32.1226H181.724L166.824 66.8626H158.644Z" fill="#323E48"/>
<path d="M200.764 67.3227C196.954 67.3227 193.544 66.5526 190.654 65.0426C187.764 63.5326 185.494 61.4027 183.924 58.7027C182.344 56.0027 181.544 52.9027 181.544 49.4927C181.544 46.0827 182.324 43.0427 183.854 40.3427C185.384 37.6527 187.524 35.5127 190.224 34.0027C192.924 32.4927 196.024 31.7227 199.444 31.7227C202.684 31.7227 205.674 32.4327 208.334 33.8427C210.984 35.2427 213.114 37.2827 214.674 39.8827C216.194 42.4427 216.984 45.4727 217.014 48.8927L189.924 54.1927L190.044 54.4727C190.894 56.5427 192.284 58.1327 194.174 59.2127C196.054 60.2827 198.334 60.8327 200.964 60.8327C204.744 60.8327 207.964 59.5827 210.514 57.1227L214.564 61.8427C213.074 63.6127 211.154 64.9827 208.854 65.8927C206.474 66.8427 203.754 67.3227 200.764 67.3227V67.3227ZM199.444 37.8227C196.354 37.8227 193.814 38.8527 191.904 40.8727C189.994 42.8927 189.034 45.6327 189.034 49.0327V49.3327H189.334L209.524 45.4627L209.454 45.2027C208.874 43.0027 207.674 41.2027 205.894 39.8527C204.124 38.5027 201.944 37.8227 199.444 37.8227V37.8227Z" fill="#323E48"/>
<path d="M248.244 66.8627V47.9727C248.244 44.8427 247.484 42.4427 246.004 40.8427C244.504 39.2327 242.364 38.4227 239.614 38.4227C236.524 38.4227 234.044 39.3727 232.244 41.2427C230.444 43.1127 229.534 45.8227 229.534 49.3027V66.8727H221.784V32.1327H229.134V37.1227L229.574 36.5927C230.904 35.0027 232.604 33.7827 234.624 32.9727C236.654 32.1527 238.974 31.7327 241.524 31.7327C245.884 31.7327 249.424 33.0227 252.044 35.5527C254.664 38.0927 255.994 41.9127 255.994 46.9227V66.8727H248.244V66.8627Z" fill="#323E48"/>
<path d="M273.974 67.3225C270.184 67.3225 267.224 66.3225 265.174 64.3525C263.124 62.3825 262.084 59.4725 262.084 55.6925V24.3325H269.834V32.3825H279.274V38.4825H269.834V55.4925C269.834 57.2725 270.294 58.6425 271.194 59.5925C272.094 60.5425 273.364 61.0225 274.974 61.0225C276.744 61.0225 278.254 60.5825 279.484 59.7125L281.604 65.1125C280.694 65.8225 279.584 66.3725 278.304 66.7325C276.944 67.1225 275.494 67.3125 273.984 67.3125L273.974 67.3225Z" fill="#323E48"/>
<path d="M299.954 67.3225C295.334 67.3225 291.654 66.0225 289.004 63.4625C286.364 60.9025 285.024 57.0425 285.024 51.9925V32.1125H292.774V50.8725C292.774 54.0925 293.514 56.5325 294.984 58.1325C296.454 59.7425 298.574 60.5525 301.274 60.5525C304.274 60.5525 306.704 59.6025 308.484 57.7325C310.264 55.8625 311.164 53.1525 311.164 49.6725V32.1025H318.914V66.8425H311.564V61.9125L311.124 62.4425C309.834 63.9925 308.204 65.2025 306.264 66.0325C304.324 66.8725 302.204 67.3025 299.964 67.3025L299.954 67.3225Z" fill="#323E48"/>
<path d="M365.314 67.3227C361.504 67.3227 358.094 66.5526 355.204 65.0426C352.314 63.5326 350.044 61.4027 348.474 58.7027C346.894 56.0027 346.094 52.9027 346.094 49.4927C346.094 46.0827 346.874 43.0427 348.404 40.3427C349.934 37.6427 352.084 35.5127 354.774 34.0027C357.474 32.4927 360.574 31.7227 363.994 31.7227C367.234 31.7227 370.224 32.4327 372.884 33.8427C375.534 35.2427 377.664 37.2827 379.224 39.8827C380.744 42.4427 381.534 45.4727 381.564 48.8927L354.474 54.1927L354.594 54.4727C355.444 56.5427 356.834 58.1327 358.724 59.2127C360.604 60.2827 362.884 60.8327 365.514 60.8327C369.294 60.8327 372.514 59.5827 375.064 57.1227L379.104 61.8427C377.614 63.6127 375.694 64.9827 373.394 65.8927C371.014 66.8427 368.294 67.3227 365.304 67.3227H365.314ZM363.994 37.8227C360.904 37.8227 358.364 38.8527 356.454 40.8727C354.544 42.8927 353.584 45.6327 353.584 49.0327V49.3327H353.884L374.074 45.4627L374.004 45.2027C373.424 43.0027 372.224 41.2027 370.444 39.8527C368.674 38.5027 366.494 37.8227 363.994 37.8227V37.8227Z" fill="#323E48"/>
<path d="M403.244 67.3227C399.654 67.3227 396.384 66.5526 393.524 65.0426C390.674 63.5326 388.424 61.3927 386.824 58.7027C385.224 56.0027 384.414 52.9027 384.414 49.4927C384.414 46.0827 385.224 42.9927 386.824 40.3127C388.414 37.6427 390.664 35.5127 393.494 34.0027C396.324 32.4927 399.604 31.7227 403.244 31.7227C406.664 31.7227 409.694 32.4227 412.264 33.8027C414.754 35.1427 416.674 37.0827 417.964 39.5627L412.044 43.0227C411.034 41.4627 409.774 40.2727 408.284 39.4727C406.734 38.6427 405.024 38.2227 403.184 38.2227C400.054 38.2227 397.414 39.2527 395.354 41.3027C393.294 43.3427 392.244 46.1027 392.244 49.5027C392.244 52.9027 393.284 55.6627 395.324 57.7027C397.364 59.7427 400.014 60.7827 403.194 60.7827C405.034 60.7827 406.754 60.3627 408.294 59.5327C409.774 58.7327 411.044 57.5427 412.054 55.9827L417.974 59.4427C416.644 61.9227 414.704 63.8727 412.214 65.2327C409.644 66.6327 406.634 67.3427 403.254 67.3427L403.244 67.3227Z" fill="#323E48"/>
<path d="M423.024 66.8627V32.1227H430.374V37.8727L430.834 37.1526C433.114 33.6026 437.184 31.7727 442.914 31.7227V38.6427C438.784 38.6427 435.394 39.8526 433.544 41.7626C431.704 43.6726 430.764 46.4527 430.764 50.0227V66.8627H423.014H423.024Z" fill="#323E48"/>
<path d="M325.584 66.8627V32.1227H332.934V37.8727L333.394 37.1526C335.674 33.6026 339.744 31.7727 345.474 31.7227V38.6427C341.344 38.6427 337.954 39.8526 336.104 41.7626C334.264 43.6726 333.324 46.4527 333.324 50.0227V66.8627H325.574H325.584Z" fill="#323E48"/>
<path d="M480.454 66.8626V29.8926C480.454 26.2426 481.544 23.3026 483.684 21.1626C485.824 19.0226 488.914 17.9326 492.884 17.9326C495.854 17.9326 498.234 18.5226 499.974 19.6926L497.844 25.4126C496.554 24.5426 495.084 24.1026 493.474 24.1026C489.844 24.1026 488.014 26.0926 488.014 30.0326V32.3926H497.714V38.4926H488.214V66.8726H480.464L480.454 66.8626Z" fill="#323E48"/>
<path d="M513.874 67.3225C510.084 67.3225 507.124 66.3225 505.074 64.3525C503.024 62.3925 501.984 59.4725 501.984 55.6925V24.3325H509.734V32.3825H519.174V38.4825H509.734V55.4925C509.734 57.2725 510.194 58.6525 511.094 59.5925C511.994 60.5425 513.264 61.0225 514.874 61.0225C516.644 61.0225 518.154 60.5825 519.384 59.7125L521.504 65.1125C520.594 65.8225 519.484 66.3725 518.204 66.7325C516.844 67.1225 515.394 67.3125 513.884 67.3125L513.874 67.3225Z" fill="#323E48"/>
<path d="M474.694 66.8626V44.1926C474.624 36.2626 469.334 31.7126 460.294 31.7126C460.034 31.7126 459.794 31.7126 459.554 31.7226H448.054V38.6326H461.274C462.384 38.6326 463.514 38.8726 464.444 39.4826C466.064 40.5426 466.884 42.2326 466.884 44.5426V45.4626H456.394C448.004 45.5326 442.994 49.5226 442.994 56.1626C442.994 62.8026 448.124 67.1926 455.474 67.1926C460.204 67.1926 464.024 65.8426 466.524 63.2826L466.954 62.8426V66.8626H474.694V66.8626ZM466.884 54.3926C466.484 58.1726 462.344 60.9126 457.064 60.9126C452.954 60.9126 450.404 58.9726 450.404 55.8426C450.404 52.7126 452.534 51.2926 457.524 51.2926H466.884V54.3926Z" fill="#323E48"/>
</svg>
