<svg width="374" height="49" viewBox="0 0 374 49" fill="none" xmlns="http://www.w3.org/2000/svg">
<path d="M59.7667 26.8909L55.1122 20.1143C54.273 18.894 52.7923 18.2959 51.3453 18.5949L45.8082 19.7284C44.448 20.0082 43.2085 20.7509 42.3258 21.8265L38.6601 26.2784L33.07 2.46601C32.7468 1.08173 31.57 0.0929679 30.1519 0.00614939C28.7291 -0.0806691 27.4461 0.758573 26.9589 2.09461L23.8721 10.5208L18.0504 2.25861C17.2883 1.1782 15.9716 0.681402 14.6886 0.994913C13.4056 1.3036 12.4602 2.35025 12.2721 3.65253L8.19167 32.5775L3.12243 30.9087C2.13849 30.5855 1.10632 30.9087 0.484116 31.7383C-0.138083 32.5631 -0.162198 33.6483 0.421415 34.5068L7.73346 45.2289C8.78011 46.7627 10.5116 47.6791 12.3686 47.6791H36.673C38.7759 47.6791 40.6859 46.5167 41.6554 44.6501L50.1539 28.2173L57.0705 30.4987C58.0544 30.8219 59.0914 30.4987 59.7136 29.6691C60.3358 28.8395 60.3599 27.7543 59.7715 26.9006L59.7667 26.8909ZM29.3368 2.9628C29.4911 2.54318 29.8481 2.52388 29.9976 2.52871C30.1471 2.53835 30.4992 2.60588 30.6005 3.03997L36.5958 28.5887L25.6422 13.0386L29.332 2.9628H29.3368ZM7.83475 35.1242L7.15949 39.8944L2.77034 33.4602L7.82993 35.1242H7.83475ZM12.3638 45.1421C11.3461 45.1421 10.3959 44.6405 9.82193 43.8012L9.2769 43.0054L14.7802 4.00944C14.8381 3.60429 15.1516 3.48853 15.2818 3.45959C15.4121 3.42583 15.7449 3.38725 15.9812 3.72005L34.9993 30.7158L23.1196 45.1421H12.359H12.3638ZM39.4029 43.4781C38.8724 44.5054 37.8257 45.1421 36.673 45.1421H26.4043L44.2792 23.4278C44.7953 22.8008 45.5188 22.3667 46.3146 22.2027L50.8919 21.267L39.4029 43.4781V43.4781ZM51.3308 25.9311L53.3517 22.0195L57.4177 27.9376L51.3308 25.9311V25.9311Z" fill="white"/>
<path d="M78.1319 47.8398L66 19.5537H72.5382L81.5924 41.1469L90.9152 19.5537H96.9242L84.7922 47.8398H78.1319Z" fill="#323E48"/>
<path d="M112.427 48.2143C109.325 48.2143 106.548 47.5874 104.195 46.3579C101.842 45.1284 99.9938 43.3941 98.7154 41.1957C97.429 38.9973 96.7776 36.4733 96.7776 33.6968C96.7776 30.9203 97.4127 28.445 98.6584 26.2466C99.9042 24.0564 101.647 22.3139 103.845 21.0845C106.043 19.855 108.568 19.228 111.352 19.228C113.99 19.228 116.425 19.8061 118.591 20.9542C120.748 22.0941 122.483 23.7551 123.753 25.8721C124.99 27.9565 125.634 30.4236 125.658 33.2082L103.601 37.5236L103.698 37.7516C104.391 39.437 105.522 40.7316 107.061 41.611C108.592 42.4822 110.448 42.93 112.59 42.93C115.668 42.93 118.289 41.9123 120.366 39.9093L123.663 43.7524C122.45 45.1936 120.887 46.3091 119.014 47.05C117.076 47.8235 114.861 48.2143 112.427 48.2143V48.2143ZM111.352 24.1948C108.836 24.1948 106.768 25.0334 105.213 26.6782C103.658 28.3229 102.876 30.5539 102.876 33.3222V33.5665H103.12L119.56 30.4154L119.503 30.2037C119.03 28.4124 118.053 26.9469 116.604 25.8477C115.163 24.7485 113.388 24.1948 111.352 24.1948V24.1948Z" fill="#323E48"/>
<path d="M151.086 47.84V32.4593C151.086 29.9108 150.468 27.9566 149.262 26.6539C148.041 25.343 146.299 24.6835 144.06 24.6835C141.544 24.6835 139.524 25.457 138.059 26.9796C136.593 28.5022 135.852 30.7087 135.852 33.5422V47.8481H129.542V19.562H135.527V23.625L135.885 23.1934C136.968 21.8988 138.352 20.9055 139.997 20.246C141.649 19.5783 143.538 19.2363 145.615 19.2363C149.165 19.2363 152.047 20.2867 154.18 22.3467C156.314 24.4148 157.397 27.5251 157.397 31.6044V47.8481H151.086V47.84Z" fill="#323E48"/>
<path d="M172.036 48.2141C168.95 48.2141 166.54 47.3999 164.871 45.7959C163.202 44.1918 162.355 41.8225 162.355 38.7447V13.2107H168.665V19.7652H176.351V24.7319H168.665V38.5819C168.665 40.0312 169.04 41.1467 169.773 41.9202C170.505 42.6937 171.539 43.0845 172.85 43.0845C174.291 43.0845 175.521 42.7263 176.522 42.0179L178.249 46.4147C177.508 46.9928 176.604 47.4406 175.562 47.7337C174.454 48.0513 173.274 48.206 172.044 48.206L172.036 48.2141Z" fill="#323E48"/>
<path d="M193.19 48.2143C189.428 48.2143 186.432 47.1558 184.274 45.0714C182.124 42.987 181.033 39.8441 181.033 35.7322V19.5455H187.343V34.8203C187.343 37.4421 187.946 39.4288 189.143 40.7316C190.34 42.0425 192.066 42.702 194.264 42.702C196.707 42.702 198.686 41.9285 200.135 40.4059C201.584 38.8833 202.317 36.6767 202.317 33.8432V19.5374H208.627V47.8234H202.643V43.8093L202.284 44.2409C201.234 45.5029 199.907 46.4881 198.327 47.1639C196.748 47.8479 195.022 48.198 193.198 48.198L193.19 48.2143Z" fill="#323E48"/>
<path d="M246.407 48.2143C243.305 48.2143 240.529 47.5874 238.176 46.3579C235.823 45.1284 233.974 43.3941 232.696 41.1957C231.409 38.9973 230.758 36.4733 230.758 33.6968C230.758 30.9203 231.393 28.445 232.639 26.2466C233.885 24.0482 235.635 22.3139 237.825 21.0845C240.024 19.855 242.548 19.228 245.333 19.228C247.971 19.228 250.405 19.8061 252.571 20.9542C254.729 22.0941 256.463 23.7551 257.733 25.8721C258.971 27.9565 259.614 30.4236 259.639 33.2082L237.581 37.5236L237.679 37.7516C238.371 39.437 239.503 40.7316 241.042 41.611C242.572 42.4822 244.429 42.93 246.57 42.93C249.648 42.93 252.27 41.9123 254.346 39.9093L257.636 43.7524C256.422 45.1936 254.859 46.3091 252.986 47.05C251.048 47.8235 248.834 48.2143 246.399 48.2143H246.407ZM245.333 24.1948C242.817 24.1948 240.749 25.0334 239.193 26.6782C237.638 28.3229 236.857 30.5539 236.857 33.3222V33.5665H237.101L253.54 30.4154L253.483 30.2037C253.011 28.4124 252.034 26.9469 250.584 25.8477C249.143 24.7485 247.368 24.1948 245.333 24.1948V24.1948Z" fill="#323E48"/>
<path d="M277.291 48.2143C274.367 48.2143 271.705 47.5874 269.376 46.3579C267.056 45.1284 265.224 43.386 263.921 41.1957C262.618 38.9973 261.959 36.4733 261.959 33.6968C261.959 30.9203 262.618 28.4043 263.921 26.2222C265.216 24.0482 267.048 22.3139 269.352 21.0845C271.656 19.855 274.327 19.228 277.291 19.228C280.075 19.228 282.542 19.798 284.635 20.9216C286.662 22.0127 288.226 23.5923 289.276 25.6115L284.456 28.4287C283.633 27.1586 282.607 26.1896 281.394 25.5382C280.132 24.8624 278.74 24.5205 277.242 24.5205C274.693 24.5205 272.544 25.3591 270.866 27.0283C269.189 28.6893 268.334 30.9365 268.334 33.7049C268.334 36.4733 269.181 38.7205 270.842 40.3815C272.503 42.0425 274.661 42.8893 277.25 42.8893C278.748 42.8893 280.148 42.5473 281.402 41.8715C282.607 41.2202 283.641 40.2512 284.464 38.9811L289.284 41.7983C288.201 43.8175 286.622 45.4053 284.594 46.5126C282.502 47.6525 280.051 48.2306 277.299 48.2306L277.291 48.2143Z" fill="#323E48"/>
<path d="M293.396 47.8398V19.5537H299.38V24.2355L299.755 23.6492C301.611 20.7588 304.925 19.2687 309.591 19.228V24.8624C306.228 24.8624 303.468 25.8476 301.961 27.4028C300.463 28.958 299.698 31.2215 299.698 34.1283V47.8398H293.388H293.396Z" fill="#323E48"/>
<path d="M214.058 47.8398V19.5537H220.043V24.2355L220.417 23.6492C222.274 20.7588 225.588 19.2687 230.253 19.228V24.8624C226.89 24.8624 224.13 25.8476 222.624 27.4028C221.126 28.958 220.36 31.2215 220.36 34.1283V47.8398H214.05H214.058Z" fill="#323E48"/>
<path d="M340.157 47.8399V17.7381C340.157 14.7662 341.044 12.3724 342.787 10.6299C344.529 8.88751 347.045 8 350.278 8C352.696 8 354.634 8.4804 356.05 9.43304L354.316 14.0904C353.266 13.382 352.069 13.0238 350.758 13.0238C347.802 13.0238 346.312 14.6441 346.312 17.8521V19.7737H354.21V24.7404H346.475V47.848H340.165L340.157 47.8399Z" fill="#323E48"/>
<path d="M367.368 48.2141C364.282 48.2141 361.872 47.3999 360.203 45.7959C358.534 44.2 357.687 41.8225 357.687 38.7447V13.2107H363.997V19.7652H371.683V24.7319H363.997V38.5819C363.997 40.0312 364.372 41.1548 365.105 41.9202C365.837 42.6937 366.871 43.0845 368.182 43.0845C369.624 43.0845 370.853 42.7263 371.854 42.0179L373.581 46.4147C372.84 46.9928 371.936 47.4406 370.894 47.7337C369.786 48.0513 368.606 48.206 367.376 48.206L367.368 48.2141Z" fill="#323E48"/>
<path d="M335.467 47.8399V29.3815C335.41 22.9247 331.103 19.22 323.742 19.22C323.53 19.22 323.335 19.22 323.14 19.2281H313.776V24.8544H324.54C325.444 24.8544 326.364 25.0498 327.121 25.5465C328.44 26.4095 329.108 27.7856 329.108 29.6664V30.4155H320.567C313.735 30.4725 309.656 33.7213 309.656 39.1277C309.656 44.5341 313.833 48.1086 319.817 48.1086C323.669 48.1086 326.779 47.0094 328.815 44.925L329.165 44.5667V47.8399H335.467V47.8399ZM329.108 37.6865C328.782 40.7643 325.411 42.9953 321.112 42.9953C317.766 42.9953 315.689 41.4157 315.689 38.8671C315.689 36.3186 317.424 35.1624 321.487 35.1624H329.108V37.6865Z" fill="#323E48"/>
</svg>
