<svg width="715" height="136" viewBox="0 0 715 136" fill="none" xmlns="http://www.w3.org/2000/svg">
<g clip-path="url(#clip0_17_2)">
<path d="M169.8 76.41L156.57 57.16C154.19 53.69 149.98 51.99 145.87 52.84L130.14 56.05C126.27 56.84 122.76 58.96 120.25 62L109.83 74.65L93.9499 7.00001C93.0299 3.06001 89.6899 0.260014 85.6599 0.0100139C81.6199 -0.229986 77.9799 2.15001 76.5899 5.95001L67.8199 29.89L51.2799 6.43001C49.1199 3.36001 45.3699 1.95001 41.7299 2.83001C38.0899 3.71001 35.3899 6.68001 34.8699 10.39L23.2699 92.56L8.8699 87.82C6.0799 86.9 3.1399 87.82 1.3699 90.17C-0.400099 92.52 -0.470098 95.6 1.1899 98.03L21.9599 128.5C24.9299 132.86 29.8499 135.46 35.1199 135.46H104.18C110.16 135.46 115.58 132.16 118.33 126.85L142.48 80.17L162.12 86.65C164.92 87.57 167.87 86.65 169.63 84.29C171.4 81.94 171.46 78.85 169.79 76.42L169.8 76.41ZM83.3399 8.43001C83.7699 7.24001 84.7899 7.18001 85.2199 7.20001C85.6399 7.23001 86.6499 7.42001 86.9399 8.65001L103.98 81.23L72.8499 37.05L83.3299 8.43001H83.3399ZM22.2499 99.8L20.3399 113.35L7.8799 95.07L22.2599 99.8H22.2499ZM35.1199 128.26C32.2299 128.26 29.5299 126.83 27.8999 124.44L26.3499 122.17L41.9999 11.39C42.1599 10.25 43.0499 9.91001 43.4199 9.82001C43.7899 9.73001 44.7399 9.62001 45.3999 10.57L99.4399 87.27L65.6899 128.26H35.1199V128.26ZM111.94 123.54C110.43 126.45 107.46 128.26 104.18 128.26H75.0099L125.8 66.57C127.27 64.79 129.32 63.55 131.58 63.09L144.59 60.43L111.95 123.53L111.94 123.54ZM145.83 73.69L151.58 62.58L163.13 79.39L145.83 73.69Z" fill="#14B0E6"/>
<path d="M217.39 91.6299L196.97 44.0199H207.98L223.22 80.3699L238.92 44.0199H249.02L228.61 91.6299H217.39Z" fill="#2D2D33"/>
<path d="M275.11 92.26C269.88 92.26 265.22 91.21 261.25 89.13C257.29 87.06 254.18 84.14 252.03 80.44C249.87 76.74 248.78 72.5 248.78 67.82C248.78 63.14 249.85 58.98 251.95 55.28C254.05 51.59 256.98 48.66 260.68 46.59C264.38 44.52 268.63 43.47 273.31 43.47C277.75 43.47 281.85 44.45 285.5 46.37C289.13 48.29 292.06 51.08 294.18 54.65C296.27 58.16 297.34 62.31 297.39 66.99L260.27 74.25L260.43 74.64C261.6 77.47 263.5 79.66 266.09 81.14C268.66 82.61 271.79 83.36 275.39 83.36C280.58 83.36 284.98 81.65 288.48 78.27L294.02 84.74C291.98 87.17 289.35 89.04 286.2 90.3C282.94 91.6 279.21 92.27 275.11 92.27V92.26ZM273.3 51.83C269.06 51.83 265.58 53.24 262.97 56.01C260.36 58.78 259.03 62.54 259.03 67.19V67.6H259.44L287.11 62.3L287.02 61.94C286.22 58.92 284.58 56.46 282.15 54.61C279.72 52.76 276.74 51.83 273.31 51.83H273.3Z" fill="#2D2D33"/>
<path d="M340.18 91.63V65.74C340.18 61.45 339.14 58.16 337.1 55.97C335.05 53.77 332.11 52.65 328.35 52.65C324.11 52.65 320.71 53.95 318.24 56.51C315.78 59.07 314.53 62.78 314.53 67.56V91.64H303.91V44.02H313.99V50.86L314.59 50.14C316.41 47.96 318.74 46.29 321.51 45.17C324.29 44.05 327.47 43.48 330.97 43.48C336.94 43.48 341.79 45.24 345.38 48.72C348.97 52.2 350.79 57.44 350.79 64.3V91.63H340.17H340.18Z" fill="#2D2D33"/>
<path d="M375.43 92.26C370.24 92.26 366.18 90.89 363.37 88.19C360.56 85.5 359.13 81.5 359.13 76.32V33.35H369.75V44.38H382.68V52.74H369.75V76.05C369.75 78.48 370.37 80.37 371.61 81.67C372.85 82.97 374.59 83.63 376.79 83.63C379.21 83.63 381.29 83.03 382.97 81.84L385.88 89.24C384.63 90.21 383.11 90.96 381.36 91.46C379.5 91.99 377.51 92.26 375.44 92.26H375.43Z" fill="#2D2D33"/>
<path d="M411.04 92.26C404.71 92.26 399.66 90.48 396.04 86.98C392.42 83.48 390.58 78.19 390.58 71.26V44.02H401.2V69.72C401.2 74.13 402.22 77.48 404.23 79.67C406.25 81.87 409.15 82.99 412.85 82.99C416.97 82.99 420.29 81.69 422.73 79.13C425.16 76.57 426.4 72.86 426.4 68.09V44.01H437.02V91.62H426.94V84.87L426.33 85.6C424.56 87.72 422.33 89.38 419.67 90.52C417.01 91.67 414.11 92.26 411.03 92.26H411.04Z" fill="#2D2D33"/>
<path d="M500.59 92.26C495.36 92.26 490.7 91.21 486.73 89.13C482.77 87.06 479.66 84.14 477.51 80.44C475.35 76.74 474.26 72.5 474.26 67.82C474.26 63.14 475.33 58.98 477.43 55.28C479.53 51.59 482.47 48.66 486.16 46.59C489.86 44.52 494.11 43.47 498.79 43.47C503.23 43.47 507.33 44.45 510.98 46.37C514.61 48.29 517.54 51.08 519.66 54.65C521.75 58.16 522.82 62.31 522.87 66.99L485.75 74.25L485.91 74.64C487.08 77.47 488.98 79.66 491.57 81.14C494.14 82.61 497.27 83.36 500.87 83.36C506.05 83.36 510.46 81.65 513.96 78.27L519.5 84.74C517.46 87.17 514.83 89.04 511.68 90.3C508.42 91.6 504.69 92.27 500.59 92.27V92.26ZM498.78 51.83C494.54 51.83 491.06 53.24 488.45 56.01C485.84 58.78 484.51 62.54 484.51 67.19V67.6H484.92L512.59 62.3L512.5 61.94C511.7 58.92 510.06 56.46 507.63 54.61C505.2 52.76 502.22 51.83 498.79 51.83H498.78Z" fill="#2D2D33"/>
<path d="M552.58 92.26C547.66 92.26 543.18 91.21 539.26 89.14C535.35 87.07 532.26 84.14 530.08 80.45C527.89 76.76 526.78 72.51 526.78 67.83C526.78 63.15 527.89 58.92 530.08 55.25C532.27 51.59 535.34 48.68 539.22 46.6C543.1 44.53 547.59 43.48 552.58 43.48C557.26 43.48 561.42 44.44 564.94 46.33C568.35 48.17 570.98 50.82 572.74 54.22L564.62 58.96C563.24 56.83 561.5 55.19 559.47 54.1C557.35 52.96 555 52.39 552.48 52.39C548.19 52.39 544.58 53.81 541.75 56.6C538.92 59.4 537.49 63.18 537.49 67.83C537.49 72.48 538.91 76.27 541.71 79.06C544.51 81.86 548.13 83.28 552.49 83.28C555.01 83.28 557.36 82.7 559.48 81.57C561.51 80.48 563.25 78.85 564.63 76.71L572.74 81.44C570.91 84.84 568.26 87.51 564.85 89.37C561.33 91.29 557.2 92.27 552.58 92.27V92.26Z" fill="#2D2D33"/>
<path d="M579.68 91.63V44.02H589.76V51.9L590.39 50.92C593.52 46.05 599.09 43.55 606.94 43.48V52.96C601.28 52.96 596.63 54.61 594.1 57.24C591.58 59.86 590.3 63.66 590.3 68.56V91.64H579.68V91.63Z" fill="#2D2D33"/>
<path d="M446.16 91.63V44.02H456.24V51.9L456.87 50.92C460 46.05 465.57 43.55 473.42 43.48V52.96C467.76 52.96 463.11 54.61 460.58 57.24C458.06 59.86 456.78 63.66 456.78 68.56V91.64H446.16V91.63Z" fill="#2D2D33"/>
<path d="M658.38 91.63V40.97C658.38 35.96 659.87 31.94 662.8 29C665.73 26.07 669.97 24.58 675.4 24.58C679.46 24.58 682.73 25.39 685.11 26.99L682.19 34.82C680.42 33.63 678.41 33.02 676.21 33.02C671.24 33.02 668.72 35.75 668.72 41.14V44.38H682.02V52.74H669V91.63H658.38Z" fill="#2D2D33"/>
<path d="M704.18 92.26C698.99 92.26 694.93 90.89 692.12 88.19C689.31 85.5 687.88 81.5 687.88 76.32V33.35H698.5V44.38H711.43V52.74H698.5V76.05C698.5 78.48 699.12 80.37 700.36 81.67C701.6 82.97 703.34 83.63 705.54 83.63C707.96 83.63 710.04 83.03 711.72 81.84L714.63 89.24C713.38 90.21 711.86 90.96 710.11 91.46C708.25 91.99 706.26 92.26 704.19 92.26H704.18Z" fill="#2D2D33"/>
<path d="M650.48 91.64V60.58C650.39 49.71 643.14 43.48 630.75 43.48C630.4 43.48 630.07 43.48 629.73 43.49H613.97V52.95H632.09C633.62 52.95 635.16 53.28 636.44 54.12C638.66 55.58 639.79 57.89 639.79 61.05V62.31H625.42C613.92 62.4 607.05 67.88 607.05 76.97C607.05 86.06 614.08 92.08 624.15 92.08C630.63 92.08 635.86 90.23 639.29 86.72L639.88 86.12V91.63H650.48V91.64ZM639.78 74.55C639.23 79.73 633.56 83.48 626.32 83.48C620.69 83.48 617.2 80.82 617.2 76.53C617.2 72.24 620.12 70.3 626.96 70.3H639.79V74.55H639.78Z" fill="#2D2D33"/>
</g>
<defs>
<clipPath id="clip0_17_2">
<rect width="714.62" height="135.46" fill="white"/>
</clipPath>
</defs>
</svg>
