<svg width="709" height="132" viewBox="0 0 709 132" fill="none" xmlns="http://www.w3.org/2000/svg">
<path d="M141.894 71.7028L147.484 60.8949L158.722 77.2522L141.894 71.7028ZM108.92 120.207C107.454 123.042 104.56 124.802 101.368 124.802H72.987L122.407 64.7788C123.832 63.0455 125.828 61.8429 128.028 61.3949L140.683 58.8095L108.92 120.207ZM34.1763 124.802C31.3643 124.802 28.7376 123.414 27.1523 121.09L25.6496 118.884L40.8643 11.0869C41.0203 9.97218 41.8843 9.64819 42.2496 9.56019C42.6123 9.47219 43.5296 9.36685 44.1776 10.2855L96.7563 84.9188L63.9203 124.802H34.1763ZM21.6523 97.1055L19.791 110.292L7.66296 92.5015L21.6523 97.1055ZM81.0923 8.20285C81.5163 7.04685 82.5056 6.98286 82.9243 7.00419C83.3336 7.02819 84.3163 7.21485 84.5976 8.41485L101.176 79.0402L70.891 36.0508L81.0923 8.20285ZM165.219 74.3469L152.351 55.6149C150.034 52.2389 145.942 50.5882 141.935 51.4095L126.627 54.5362C122.862 55.3055 119.442 57.3642 117.002 60.3295L106.866 72.6415L91.4136 6.81485C90.515 2.98551 87.2723 0.253515 83.3456 0.0161822C79.419 -0.218484 75.871 2.10152 74.5203 5.79619L65.987 29.0895L49.9003 6.25485C47.799 3.27218 44.1483 1.89885 40.607 2.75485C37.063 3.61085 34.4416 6.49618 33.931 10.1082L22.647 90.0628L8.64029 85.4535C5.92029 84.5575 3.06162 85.4562 1.34029 87.7402C-0.378377 90.0242 -0.45038 93.0268 1.16029 95.3895L21.3683 125.034C24.259 129.271 29.047 131.802 34.1763 131.802H101.368C107.188 131.802 112.463 128.592 115.136 123.424L138.636 78.0002L157.751 84.3028C160.471 85.2002 163.342 84.2962 165.059 82.0068C166.778 79.7148 166.84 76.7082 165.219 74.3469" fill="white"/>
<path d="M224.856 89.1582L204.989 42.8329H215.701L230.527 78.1982L245.8 42.8329H255.633L235.768 89.1582H224.856Z" fill="#323E49"/>
<path d="M279.256 50.4382C275.132 50.4382 271.749 51.8048 269.201 54.5022C266.66 57.1942 265.37 60.8542 265.37 65.3795V65.7835L265.766 65.7955L292.693 60.6248L292.601 60.2782C291.821 57.3422 290.226 54.9422 287.861 53.1462C285.494 51.3502 282.6 50.4382 279.256 50.4382ZM281.016 89.7742C275.929 89.7742 271.393 88.7502 267.53 86.7328C263.672 84.7182 260.653 81.8728 258.556 78.2795C256.453 74.6835 255.389 70.5502 255.389 65.9955C255.389 61.4995 256.425 57.3955 258.47 53.7968C260.509 50.2035 263.368 47.3582 266.966 45.3422C270.564 43.3275 274.698 42.3048 279.256 42.3048C283.577 42.3048 287.566 43.2542 291.112 45.1262C294.648 46.9955 297.492 49.7075 299.561 53.1862C301.592 56.5982 302.641 60.6382 302.681 65.1928L266.561 72.2582L266.716 72.6342C267.852 75.3902 269.706 77.5182 272.226 78.9568C274.728 80.3875 277.774 81.1128 281.28 81.1128C286.325 81.1128 290.609 79.4475 294.018 76.1635L299.413 82.4555C297.426 84.8195 294.868 86.6368 291.804 87.8608C288.634 89.1315 285.005 89.7742 281.016 89.7742" fill="#323E49"/>
<path d="M344.329 89.1582V63.9715C344.329 59.7969 343.322 56.5969 341.335 54.4622C339.342 52.3169 336.477 51.2302 332.819 51.2302C328.697 51.2302 325.389 52.4929 322.987 54.9835C320.59 57.4715 319.374 61.0875 319.374 65.7315V89.1582H309.041V42.8329H318.847V49.4875L319.435 48.7849C321.211 46.6675 323.475 45.0409 326.169 43.9529C328.873 42.8595 331.969 42.3049 335.371 42.3049C341.179 42.3049 345.898 44.0195 349.397 47.4035C352.89 50.7849 354.662 55.8862 354.662 62.5635V89.1582H344.329Z" fill="#323E49"/>
<path d="M378.627 89.7739C373.577 89.7739 369.628 88.4433 366.889 85.8179C364.155 83.1966 362.768 79.3113 362.768 74.2673V32.4486H373.101V43.1846H385.687V51.3179H373.101V74.0033C373.101 76.3699 373.709 78.2086 374.909 79.4686C376.115 80.7353 377.809 81.3766 379.947 81.3766C382.303 81.3766 384.323 80.7913 385.959 79.6353L388.787 86.8326C387.573 87.7793 386.096 88.5073 384.387 88.9953C382.577 89.5126 380.639 89.7739 378.627 89.7739Z" fill="#323E49"/>
<path d="M413.273 89.7739C407.114 89.7739 402.204 88.0433 398.677 84.6326C395.153 81.2246 393.366 76.0793 393.366 69.3393V42.8326H403.7V67.8433C403.7 72.1353 404.692 75.3953 406.646 77.5286C408.61 79.6739 411.432 80.7606 415.033 80.7606C419.04 80.7606 422.273 79.4979 424.646 77.0059C427.014 74.5193 428.214 70.9046 428.214 66.2593V42.8326H438.548V89.1579H428.742V82.5859L428.153 83.2939C426.434 85.3566 424.256 86.9686 421.677 88.0846C419.092 89.2059 416.264 89.7739 413.273 89.7739Z" fill="#323E49"/>
<path d="M498.654 50.4382C494.53 50.4382 491.148 51.8048 488.6 54.5022C486.058 57.1942 484.769 60.8542 484.769 65.3795V65.7835L485.165 65.7955L512.092 60.6248L512 60.2782C511.221 57.3435 509.626 54.9435 507.26 53.1462C504.893 51.3502 501.998 50.4382 498.654 50.4382ZM500.413 89.7742C495.328 89.7742 490.792 88.7502 486.929 86.7328C483.07 84.7182 480.052 81.8728 477.954 78.2795C475.853 74.6835 474.788 70.5502 474.788 65.9955C474.788 61.5008 475.824 57.3968 477.868 53.7968C479.908 50.2022 482.768 47.3568 486.365 45.3422C489.962 43.3275 494.097 42.3048 498.654 42.3048C502.976 42.3048 506.965 43.2542 510.51 45.1262C514.045 46.9955 516.889 49.7062 518.96 53.1862C520.989 56.5982 522.038 60.6382 522.078 65.1928L485.96 72.2582L486.114 72.6342C487.25 75.3902 489.105 77.5182 491.625 78.9568C494.126 80.3875 497.173 81.1128 500.678 81.1128C505.722 81.1128 510.006 79.4475 513.417 76.1635L518.81 82.4555C516.825 84.8182 514.268 86.6355 511.202 87.8608C508.032 89.1315 504.401 89.7742 500.413 89.7742Z" fill="#323E49"/>
<path d="M551 89.7739C546.208 89.7739 541.849 88.7499 538.044 86.7339C534.242 84.7179 531.237 81.8726 529.11 78.2779C526.981 74.6833 525.901 70.5499 525.901 65.9953C525.901 61.4433 526.981 57.3259 529.11 53.7579C531.237 50.1926 534.228 47.3619 538 45.3459C541.776 43.3286 546.149 42.3046 551 42.3046C555.556 42.3046 559.604 43.2393 563.029 45.0793C566.35 46.8686 568.904 49.4499 570.624 52.7539L562.725 57.3619C561.378 55.2859 559.693 53.6953 557.713 52.6339C555.649 51.5273 553.361 50.9673 550.912 50.9673C546.733 50.9673 543.22 52.3459 540.47 55.0673C537.718 57.7886 536.322 61.4659 536.322 65.9953C536.322 70.5259 537.702 74.2033 540.424 76.9233C543.145 79.6446 546.674 81.0246 550.912 81.0246C553.364 81.0246 555.653 80.4646 557.713 79.3579C559.693 78.2966 561.378 76.7059 562.725 74.6286L570.62 79.2353C568.842 82.5446 566.261 85.1406 562.941 86.9553C559.516 88.8259 555.498 89.7739 551 89.7739Z" fill="#323E49"/>
<path d="M577.368 89.1582V42.8329H587.173V50.4995L587.786 49.5435C590.829 44.8089 596.248 42.3755 603.893 42.3062V51.5289C598.389 51.5289 593.862 53.1382 591.402 55.6875C588.946 58.2342 587.701 61.9382 587.701 66.6995V89.1582H577.368Z" fill="#323E49"/>
<path d="M447.446 89.1582V42.8329H457.251V50.4995L457.864 49.5435C460.907 44.8089 466.326 42.3755 473.971 42.3062V51.5289C468.467 51.5289 463.94 53.1382 461.48 55.6875C459.024 58.2342 457.779 61.9382 457.779 66.6995V89.1582H447.446Z" fill="#323E49"/>
<path d="M653.938 89.1582V39.8595C653.938 34.9875 655.385 31.0702 658.24 28.2155C661.093 25.3609 665.219 23.9129 670.5 23.9129C674.455 23.9129 677.632 24.7022 679.952 26.2595L677.115 33.8822C675.388 32.7222 673.432 32.1342 671.292 32.1342C666.457 32.1342 664.007 34.7942 664.007 40.0355V43.1849H676.943V51.3182H664.271V89.1582H653.938Z" fill="#323E49"/>
<path d="M698.503 89.7739C693.452 89.7739 689.503 88.4433 686.765 85.8179C684.031 83.1979 682.644 79.3126 682.644 74.2673V32.4486H692.977V43.1846H705.561V51.3179H692.977V74.0033C692.977 76.3699 693.585 78.2099 694.785 79.4686C695.989 80.7353 697.685 81.3766 699.823 81.3766C702.179 81.3766 704.197 80.7913 705.832 79.6353L708.663 86.8326C707.448 87.7806 705.969 88.5073 704.263 88.9953C702.452 89.5126 700.515 89.7739 698.503 89.7739Z" fill="#323E49"/>
<path d="M635.85 72.5319C635.312 77.5679 629.802 81.2252 622.752 81.2252C617.276 81.2252 613.874 78.6319 613.874 74.4599C613.874 70.2119 616.713 68.3986 623.368 68.3986H635.852L635.85 72.5319ZM646.257 89.1652V58.9452C646.168 48.3706 639.114 42.3052 627.064 42.3052C626.722 42.3052 626.398 42.3132 626.07 42.3199H610.737V51.5279H628.365C629.852 51.5279 631.353 51.8532 632.596 52.6666C634.758 54.0839 635.852 56.3346 635.852 59.4132V60.6346H621.87C610.681 60.7226 604 66.0546 604 74.8986C604 83.5586 610.842 89.6052 620.64 89.6052C626.944 89.6052 632.037 87.8012 635.369 84.3919L635.941 83.8066V89.1652H646.257Z" fill="#323E49"/>
</svg>
