<?xml version="1.0" encoding="UTF-8" standalone="no"?>
<!-- Created with Inkscape (http://www.inkscape.org/) -->

<svg
   version="1.1"
   id="svg2"
   xml:space="preserve"
   width="1333.3333"
   height="666.66669"
   viewBox="0 0 1333.3333 666.66669"
   sodipodi:docname="website-logo.ai"
   xmlns:inkscape="http://www.inkscape.org/namespaces/inkscape"
   xmlns:sodipodi="http://sodipodi.sourceforge.net/DTD/sodipodi-0.dtd"
   xmlns="http://www.w3.org/2000/svg"
   xmlns:svg="http://www.w3.org/2000/svg"><defs
     id="defs6"><clipPath
       clipPathUnits="userSpaceOnUse"
       id="clipPath18"><path
         d="M 0,500 H 1000 V 0 H 0 Z"
         id="path16" /></clipPath></defs><sodipodi:namedview
     id="namedview4"
     pagecolor="#ffffff"
     bordercolor="#666666"
     borderopacity="1.0"
     inkscape:pageshadow="2"
     inkscape:pageopacity="0.0"
     inkscape:pagecheckerboard="0" /><g
     id="g8"
     inkscape:groupmode="layer"
     inkscape:label="website-logo"
     transform="matrix(1.3333333,0,0,-1.3333333,0,666.66667)"><path
       d="m 825.571,82.786 h -652 v 335 h 652 z"
       style="fill:#14b0e6;fill-opacity:1;fill-rule:nonzero;stroke:none"
       id="path10" /><g
       id="g12"><g
         id="g14"
         clip-path="url(#clipPath18)"><g
           id="g20"
           transform="translate(344.1169,242.2679)"><path
             d="m 0,0 4.193,8.106 8.428,-12.268 z m -24.73,-36.378 c -1.1,-2.126 -3.27,-3.446 -5.664,-3.446 H -51.68 l 37.065,45.017 c 1.069,1.3 2.566,2.202 4.216,2.538 l 9.491,1.939 z m -56.058,-3.446 c -2.109,0 -4.079,1.041 -5.268,2.784 l -1.127,1.654 11.411,80.848 c 0.117,0.836 0.765,1.079 1.039,1.145 0.272,0.066 0.96,0.145 1.446,-0.544 L -33.853,-9.912 -58.48,-39.824 Z m -9.393,20.772 -1.396,-9.89 -9.096,13.343 z m 44.58,66.677 c 0.318,0.867 1.06,0.915 1.374,0.899 0.307,-0.018 1.044,-0.158 1.255,-1.058 L -30.538,-5.503 -53.252,26.739 Z M 17.494,-1.983 7.843,12.066 C 6.105,14.598 3.036,15.836 0.031,15.22 L -11.45,12.875 c -2.824,-0.577 -5.389,-2.121 -7.219,-4.345 l -7.602,-9.234 -11.589,49.37 c -0.674,2.872 -3.106,4.921 -6.051,5.099 -2.945,0.176 -5.606,-1.564 -6.619,-4.335 l -6.4,-17.47 -12.065,17.126 c -1.576,2.237 -4.314,3.267 -6.97,2.625 -2.658,-0.642 -4.624,-2.806 -5.007,-5.515 l -8.463,-59.966 -10.505,3.457 c -2.04,0.672 -4.184,-0.002 -5.475,-1.715 -1.289,-1.713 -1.343,-3.965 -0.135,-5.737 l 15.156,-22.233 c 2.168,-3.178 5.759,-5.076 9.606,-5.076 h 50.394 c 4.365,0 8.321,2.407 10.326,6.283 L -2.443,-4.723 11.893,-9.45 c 2.04,-0.673 4.193,0.005 5.481,1.722 1.289,1.719 1.336,3.974 0.12,5.745"
             style="fill:#ffffff;fill-opacity:1;fill-rule:nonzero;stroke:none"
             id="path22" /></g><g
           id="g24"
           transform="translate(406.3387,229.1764)"><path
             d="m 0,0 -14.9,34.744 h 8.034 L 4.253,8.22 15.708,34.744 h 7.375 L 8.184,0 Z"
             style="fill:#323e49;fill-opacity:1;fill-rule:nonzero;stroke:none"
             id="path26" /></g><g
           id="g28"
           transform="translate(447.1385,258.2164)"><path
             d="m 0,0 c -3.093,0 -5.63,-1.025 -7.541,-3.048 -1.906,-2.019 -2.873,-4.764 -2.873,-8.158 v -0.303 l 0.297,-0.009 20.195,3.878 -0.069,0.26 C 9.424,-5.178 8.228,-3.378 6.454,-2.031 4.679,-0.684 2.508,0 0,0 m 1.32,-29.502 c -3.815,0 -7.217,0.768 -10.114,2.281 -2.894,1.511 -5.158,3.645 -6.731,6.34 -1.577,2.697 -2.375,5.797 -2.375,9.213 0,3.372 0.777,6.45 2.311,9.149 1.529,2.695 3.673,4.829 6.372,6.341 C -6.519,5.333 -3.418,6.1 0,6.1 c 3.241,0 6.233,-0.712 8.892,-2.116 2.652,-1.402 4.785,-3.436 6.337,-6.045 1.523,-2.559 2.31,-5.589 2.34,-9.005 l -27.09,-5.299 0.116,-0.282 c 0.852,-2.067 2.243,-3.663 4.133,-4.742 1.876,-1.073 4.161,-1.617 6.79,-1.617 3.784,0 6.997,1.249 9.554,3.712 l 4.046,-4.719 c -1.49,-1.773 -3.409,-3.136 -5.707,-4.054 -2.377,-0.953 -5.099,-1.435 -8.091,-1.435"
             style="fill:#323e49;fill-opacity:1;fill-rule:nonzero;stroke:none"
             id="path30" /></g><g
           id="g32"
           transform="translate(495.9432,229.1764)"><path
             d="m 0,0 v 18.89 c 0,3.131 -0.755,5.531 -2.245,7.132 -1.495,1.609 -3.644,2.424 -6.387,2.424 -3.092,0 -5.573,-0.947 -7.374,-2.815 -1.798,-1.866 -2.71,-4.578 -2.71,-8.061 V 0 h -7.75 v 34.744 h 7.355 v -4.991 l 0.441,0.527 c 1.332,1.588 3.03,2.808 5.05,3.624 2.028,0.82 4.35,1.236 6.902,1.236 4.356,0 7.895,-1.286 10.519,-3.824 C 6.421,28.78 7.75,24.954 7.75,19.946 V 0 Z"
             style="fill:#323e49;fill-opacity:1;fill-rule:nonzero;stroke:none"
             id="path34" /></g><g
           id="g36"
           transform="translate(521.6669,228.7145)"><path
             d="m 0,0 c -3.787,0 -6.749,0.998 -8.803,2.967 -2.051,1.966 -3.091,4.88 -3.091,8.663 v 31.364 h 7.75 v -8.052 h 9.439 v -6.1 H -4.144 V 11.828 c 0,-1.775 0.456,-3.154 1.356,-4.099 0.904,-0.95 2.175,-1.431 3.778,-1.431 1.767,0 3.282,0.439 4.509,1.306 L 7.62,2.206 C 6.71,1.496 5.602,0.95 4.32,0.584 2.963,0.196 1.509,0 0,0"
             style="fill:#323e49;fill-opacity:1;fill-rule:nonzero;stroke:none"
             id="path38" /></g><g
           id="g40"
           transform="translate(547.6512,228.7145)"><path
             d="m 0,0 c -4.619,0 -8.302,1.298 -10.947,3.856 -2.643,2.556 -3.983,6.415 -3.983,11.47 v 19.88 h 7.75 V 16.448 c 0,-3.219 0.744,-5.664 2.21,-7.264 1.473,-1.609 3.589,-2.424 6.29,-2.424 3.005,0 5.43,0.947 7.21,2.816 1.776,1.865 2.676,4.576 2.676,8.06 v 17.57 h 7.75 V 0.462 H 11.602 V 5.391 L 11.16,4.86 C 9.871,3.313 8.237,2.104 6.303,1.267 4.364,0.426 2.243,0 0,0"
             style="fill:#323e49;fill-opacity:1;fill-rule:nonzero;stroke:none"
             id="path42" /></g><g
           id="g44"
           transform="translate(611.6874,258.2164)"><path
             d="m 0,0 c -3.093,0 -5.63,-1.025 -7.541,-3.048 -1.906,-2.019 -2.873,-4.764 -2.873,-8.158 v -0.303 l 0.297,-0.009 20.195,3.878 -0.069,0.26 C 9.425,-5.179 8.229,-3.379 6.454,-2.031 4.679,-0.684 2.508,0 0,0 m 1.319,-29.502 c -3.814,0 -7.216,0.768 -10.113,2.281 -2.894,1.511 -5.158,3.645 -6.731,6.34 -1.576,2.697 -2.375,5.797 -2.375,9.213 0,3.371 0.777,6.449 2.31,9.149 1.53,2.696 3.675,4.83 6.373,6.341 C -6.519,5.333 -3.418,6.1 0,6.1 c 3.241,0 6.233,-0.712 8.892,-2.116 2.651,-1.402 4.784,-3.435 6.337,-6.045 1.522,-2.559 2.309,-5.589 2.339,-9.005 l -27.089,-5.299 0.116,-0.282 c 0.852,-2.067 2.243,-3.663 4.133,-4.742 1.876,-1.073 4.161,-1.617 6.79,-1.617 3.783,0 6.996,1.249 9.554,3.712 l 4.045,-4.719 C 13.628,-25.785 11.71,-27.148 9.411,-28.067 7.033,-29.02 4.31,-29.502 1.319,-29.502"
             style="fill:#323e49;fill-opacity:1;fill-rule:nonzero;stroke:none"
             id="path46" /></g><g
           id="g48"
           transform="translate(650.9462,228.7145)"><path
             d="m 0,0 c -3.594,0 -6.863,0.768 -9.717,2.28 -2.851,1.512 -5.105,3.646 -6.7,6.342 -1.597,2.696 -2.407,5.796 -2.407,9.212 0,3.414 0.81,6.502 2.407,9.178 1.595,2.674 3.838,4.797 6.667,6.309 2.832,1.513 6.112,2.281 9.75,2.281 3.417,0 6.453,-0.701 9.022,-2.081 2.491,-1.342 4.406,-3.278 5.696,-5.756 L 8.794,24.309 c -1.01,1.557 -2.274,2.75 -3.759,3.546 -1.548,0.83 -3.264,1.25 -5.101,1.25 -3.134,0 -5.769,-1.034 -7.831,-3.075 -2.064,-2.041 -3.111,-4.799 -3.111,-8.196 0,-3.398 1.035,-6.156 3.076,-8.196 2.041,-2.041 4.688,-3.076 7.866,-3.076 1.839,0 3.556,0.42 5.101,1.25 1.485,0.796 2.749,1.989 3.759,3.547 L 14.715,7.904 C 13.382,5.422 11.446,3.475 8.956,2.114 6.387,0.711 3.374,0 0,0"
             style="fill:#323e49;fill-opacity:1;fill-rule:nonzero;stroke:none"
             id="path50" /></g><g
           id="g52"
           transform="translate(670.7225,229.1764)"><path
             d="m 0,0 v 34.744 h 7.354 v -5.75 l 0.46,0.717 c 2.282,3.551 6.346,5.376 12.08,5.428 v -6.917 c -4.128,0 -7.523,-1.207 -9.368,-3.119 C 8.684,23.193 7.75,20.415 7.75,16.844 V 0 Z"
             style="fill:#323e49;fill-opacity:1;fill-rule:nonzero;stroke:none"
             id="path54" /></g><g
           id="g56"
           transform="translate(573.2811,229.1764)"><path
             d="m 0,0 v 34.744 h 7.354 v -5.75 l 0.46,0.717 c 2.282,3.551 6.346,5.376 12.08,5.428 v -6.917 c -4.128,0 -7.523,-1.207 -9.368,-3.119 C 8.684,23.193 7.75,20.415 7.75,16.844 V 0 Z"
             style="fill:#323e49;fill-opacity:1;fill-rule:nonzero;stroke:none"
             id="path58" /></g><g
           id="g60"
           transform="translate(728.1498,229.1764)"><path
             d="m 0,0 v 36.974 c 0,3.654 1.086,6.592 3.227,8.733 2.14,2.141 5.234,3.227 9.195,3.227 2.966,0 5.349,-0.592 7.089,-1.76 l -2.128,-5.717 c -1.295,0.87 -2.762,1.311 -4.367,1.311 -3.626,0 -5.464,-1.995 -5.464,-5.926 V 34.48 h 9.702 v -6.1 H 7.75 L 7.75,0 Z"
             style="fill:#323e49;fill-opacity:1;fill-rule:nonzero;stroke:none"
             id="path62" /></g><g
           id="g64"
           transform="translate(761.5736,228.7145)"><path
             d="m 0,0 c -3.788,0 -6.75,0.998 -8.803,2.967 -2.051,1.965 -3.091,4.879 -3.091,8.663 v 31.364 h 7.75 v -8.052 h 9.438 v -6.1 H -4.144 V 11.828 c 0,-1.775 0.456,-3.155 1.356,-4.099 0.903,-0.95 2.175,-1.431 3.778,-1.431 1.767,0 3.281,0.439 4.507,1.306 L 7.62,2.206 C 6.709,1.495 5.6,0.95 4.32,0.584 2.962,0.196 1.509,0 0,0"
             style="fill:#323e49;fill-opacity:1;fill-rule:nonzero;stroke:none"
             id="path66" /></g><g
           id="g68"
           transform="translate(714.5844,241.6462)"><path
             d="m 0,0 c -0.404,-3.777 -4.536,-6.52 -9.824,-6.52 -4.107,0 -6.658,1.945 -6.658,5.074 0,3.186 2.129,4.546 7.12,4.546 l 9.363,0 z M 7.805,-12.475 V 10.19 C 7.738,18.121 2.448,22.67 -6.59,22.67 c -0.256,0 -0.499,-0.006 -0.745,-0.011 h -11.5 v -6.906 h 13.221 c 1.115,0 2.241,-0.244 3.173,-0.854 1.622,-1.063 2.442,-2.751 2.442,-5.06 V 8.923 h -10.486 c -8.392,-0.066 -13.403,-4.065 -13.403,-10.698 0,-6.495 5.132,-11.03 12.48,-11.03 4.728,0 8.548,1.353 11.047,3.91 l 0.429,0.439 v -4.019 z"
             style="fill:#323e49;fill-opacity:1;fill-rule:nonzero;stroke:none"
             id="path70" /></g></g></g></g></svg>
