<svg width="385" height="120" viewBox="0 0 385 120" fill="none" xmlns="http://www.w3.org/2000/svg">
<path d="M55.6613 51.3516C48.3093 51.3516 43.0587 56.6023 43.0587 63.9543C43.0587 67.105 43.8093 70.105 44.8587 73.1063C47.26 79.557 51.16 85.2583 55.3613 90.8103C55.8107 91.4103 55.9613 90.9596 56.2613 90.6596C58.6613 87.509 60.912 84.209 62.8627 80.7583C65.564 76.1063 67.8133 71.1556 68.264 65.7543C69.0147 57.653 64.0627 51.501 55.6613 51.3516ZM35.2573 65.4543C35.2573 59.3036 36.7573 54.5023 40.508 50.601C45.6093 45.3503 51.9107 43.3996 59.2627 44.4503C69.0147 45.801 75.916 53.9023 76.0653 63.6543C76.0653 69.0556 74.7147 74.0063 72.6147 78.8076C69.764 85.2583 65.864 90.9596 61.512 96.5103C60.912 97.261 60.912 97.561 61.512 98.3116C63.4627 100.261 65.4133 102.362 67.664 104.313C71.4147 107.464 75.3147 110.164 80.116 111.514C88.068 113.914 96.02 111.214 100.52 104.762C104.571 98.9116 104.721 92.6103 102.171 86.1583C100.971 83.0076 99.4707 80.0076 98.12 77.0063C89.7187 58.853 80.8667 40.849 71.864 22.9956C70.2147 19.6956 68.7133 16.3943 66.6133 13.3943C62.1133 6.94229 53.7107 5.7423 47.7093 10.8436C45.9093 12.3436 44.7093 14.4436 43.5093 16.3943C32.256 37.9983 21.7547 59.6036 11.552 81.3583C9.90133 84.809 8.252 88.409 7.80133 92.3103C6.60133 100.261 11.552 108.513 19.0533 111.364C24.9053 113.465 30.6067 112.714 36.0067 109.864C41.408 107.013 45.7587 102.962 49.96 98.6116C50.56 98.0116 50.56 97.561 50.1107 96.961C45.7587 91.5596 41.8587 85.709 39.008 79.4076C36.908 74.4556 35.4067 69.6556 35.2573 65.4543M0 91.4103C0.450667 90.209 0.450666 88.8596 0.899999 87.6596C1.95067 83.9076 3.60133 80.6076 5.10133 77.157C14.4027 56.753 24.3053 36.7983 34.5067 16.9943C36.1573 13.8436 37.808 10.693 39.908 7.8423C47.86 -2.35903 62.7133 -2.65904 70.964 7.2423C73.6653 10.393 75.316 13.9943 77.2653 17.5943C86.868 36.049 96.02 54.6516 104.721 73.5556C106.672 77.757 108.623 81.8076 110.123 86.1583C114.473 98.761 107.121 116.314 90.0187 119.465C83.5667 120.666 77.5653 119.165 71.864 116.165C65.864 113.014 60.912 108.664 56.412 103.713C55.8107 102.962 55.5107 103.112 54.9107 103.713C51.3107 107.613 47.4093 111.214 42.9093 114.065C37.6573 117.365 32.1067 119.616 25.9547 119.616C16.804 119.616 9.752 115.714 4.50133 108.364C2.25067 105.213 0.899997 101.462 0.450663 97.561C0.450663 97.4116 0.450665 97.1116 0.299998 97.1116C-2.02656e-06 95.3103 0 93.3596 0 91.4103" fill="#00AFED"/>
<path d="M349.272 66.5046V73.4059C349.272 74.3059 349.572 75.0566 350.172 75.6566C352.873 78.5073 356.324 79.5566 360.224 79.4073C368.776 78.9566 373.877 72.3553 372.377 63.6539C371.476 58.5526 368.176 55.4019 363.225 54.0526C357.973 52.7019 353.473 53.9019 349.722 57.9526C349.422 58.2526 349.422 58.7033 349.422 59.1526C349.272 61.7033 349.272 64.1046 349.272 66.5046ZM384.078 69.3553C383.629 70.2553 383.778 71.1553 383.478 72.0553C381.078 83.6086 370.426 91.5593 358.573 90.2099C354.973 89.7593 351.822 88.2593 349.272 85.5579C349.121 86.1593 349.121 86.7593 349.121 87.3593C349.121 88.5593 348.521 89.1593 347.321 89.1593H338.62C337.869 89.1593 337.72 88.8593 337.72 88.2593V62.7539V23.4459C337.72 22.5459 337.869 22.3953 338.769 22.3953H348.221C348.972 22.3953 349.121 22.5459 349.121 23.2953V46.4006V47.4513C349.272 47.4513 349.422 47.4513 349.422 47.3006C353.022 43.8499 357.373 42.6499 362.174 42.9499C369.976 43.5499 376.128 47.0006 380.328 53.7526C382.278 56.7526 383.329 60.2033 383.778 63.8046C383.778 63.9539 383.778 64.2539 383.929 64.2539C384.078 65.9046 384.078 67.7046 384.078 69.3553" fill="#00AFED"/>
<path d="M250.852 66.5046V73.2566C250.852 74.3059 251.152 75.0566 251.902 75.6566C255.053 78.8073 258.804 79.8579 263.154 79.2566C266.305 78.8073 269.156 77.6073 271.256 75.0566C274.406 71.1553 274.857 66.8046 273.506 62.1539C272.156 57.3526 268.556 54.8019 263.754 53.7526C258.804 52.7019 254.602 54.2019 251.152 57.9526C250.852 58.2526 250.852 58.7033 250.852 59.1526V66.5046ZM250.852 85.5579V87.5086C250.852 88.5593 250.101 89.1593 249.052 89.1593H240.049C239.6 89.1593 239.3 89.0086 239.449 88.5593V87.9593V23.5953C239.449 22.0953 239.3 22.2459 240.8 22.2459H249.801C251.001 22.2459 251.001 22.2459 251.001 23.4459V46.2499V47.3006C251.152 47.3006 251.302 47.3006 251.302 47.1499C254.902 43.6993 259.253 42.4993 264.054 42.7993C270.356 43.2499 275.757 45.6499 279.957 50.4513C284.458 55.5526 286.109 61.5539 285.658 68.1553C285.358 74.0059 283.258 79.1073 279.208 83.3086C275.157 87.5086 270.205 89.7593 264.354 90.2099C260.604 90.5099 257.153 89.9099 253.852 87.9593C252.802 87.5086 251.902 86.6086 250.852 85.5579" fill="#00AFED"/>
<path d="M170.285 66.6547V59.6027C170.285 58.8534 170.134 58.2534 169.534 57.6534C166.534 54.6521 163.084 53.3014 158.733 53.7521C146.43 54.9521 144.78 67.2547 148.83 73.8561C151.081 77.4574 154.682 79.1067 158.882 79.5574C162.933 80.0081 166.534 78.8067 169.385 75.656C169.985 75.0561 170.285 74.4561 170.134 73.5561C170.285 71.3054 170.285 68.9054 170.285 66.6547ZM170.285 47.7507V45.9507C170.285 44.9001 170.885 44.1507 171.936 44.1507H181.088C181.537 44.1507 181.688 44.3001 181.688 44.7507V45.3507V88.1094C181.688 89.1587 181.388 89.3094 180.488 89.3094H172.385C170.885 89.3094 170.434 88.8587 170.434 87.3587V85.8587C169.685 86.4587 169.234 87.0587 168.634 87.5094C165.934 89.6094 162.784 90.66 159.333 90.66C147.33 90.96 137.428 82.7081 135.778 70.8561C134.728 62.7534 136.528 55.2521 142.68 49.5507C148.681 44.0001 155.732 42.0494 163.833 44.0001C166.084 44.3001 168.334 45.6507 170.285 47.7507" fill="#00AFED"/>
<path d="M301.261 47.6008C302.312 46.7008 303.061 45.9501 304.112 45.3501C307.263 43.3994 310.863 42.6501 314.615 42.7994C318.815 42.9501 322.716 44.2994 326.167 47.0008C329.467 49.7008 331.117 53.1514 331.568 57.2021C331.868 59.1528 331.868 61.2541 331.868 63.2034V88.1088C331.868 88.8594 331.568 89.1594 330.817 89.1594H321.365C320.465 89.1594 320.315 88.8594 320.315 88.1088V64.5541C320.315 62.7541 320.315 60.9541 319.865 59.1528C318.965 55.7021 317.164 53.9021 313.713 53.4514C309.513 52.8514 305.912 54.0528 302.912 56.9021C302.312 57.3528 302.161 57.9528 302.161 58.7034V88.1088C302.161 89.0088 301.861 89.1594 301.111 89.1594H291.659C291.059 89.1594 290.759 89.0088 290.759 88.2594V44.9008C290.759 44.2994 290.909 43.9994 291.659 43.9994H299.311C301.111 43.9994 301.712 44.6008 301.712 46.4008C301.261 46.7008 301.261 47.0008 301.261 47.6008Z" fill="#00AFED"/>
<path d="M218.895 47.6008C219.495 47.1502 219.795 46.7008 220.245 46.4008C224.296 43.2502 228.947 42.1995 233.897 43.2502C234.497 43.3995 234.648 43.6995 234.648 44.1502V53.1515C234.648 54.0528 234.348 54.0528 233.748 53.9022C230.447 53.1515 227.147 53.1515 223.996 54.3528C222.345 54.9528 220.995 55.8528 219.795 57.0528C219.345 57.5035 219.195 57.9528 219.195 58.5528V88.2595C219.195 89.1595 218.895 89.3088 218.144 89.3088H208.543C207.792 89.3088 207.643 89.1595 207.643 88.4088V44.9008C207.643 44.2995 207.792 43.9995 208.543 43.9995H216.795C218.595 43.9995 219.044 44.6008 219.044 46.2502C218.895 46.7008 218.895 47.0008 218.895 47.6008Z" fill="#00AFED"/>
<path d="M188.889 66.6547V45.2C188.889 44.3 189.189 44 190.089 44H199.541C200.291 44 200.441 44.1507 200.441 44.9V88.2587C200.441 89.0094 200.141 89.1587 199.541 89.1587H189.789C189.039 89.1587 188.739 89.0094 188.739 88.1094C188.889 81.0574 188.889 73.856 188.889 66.6547Z" fill="#00AFED"/>
<path d="M186.788 30.0473C186.788 25.6966 190.089 22.246 194.44 22.246C198.791 22.246 202.241 25.6966 202.241 30.0473C202.241 34.398 198.791 37.8486 194.44 37.8486C190.239 37.8486 186.788 34.398 186.788 30.0473Z" fill="#00AFED"/>
</svg>
