<svg width="575" height="122" viewBox="0 0 575 122" fill="none" xmlns="http://www.w3.org/2000/svg">
<path d="M328.204 19.818C331.259 17.054 343.36 12.9554 348.507 12.954C345.21 15.0367 332.006 19.5194 328.204 19.818ZM327.302 55.3367C326.75 50.4727 325.483 46.074 325.255 42.342C325.736 41.886 326.922 41.4634 327.388 42.0127L328.062 53.8154C328.275 55.1674 327.47 56.734 327.302 55.3367M351.49 35.5727C356.76 36.406 361.82 40.7687 358.816 47.0447C356.46 51.9727 348.662 58.0034 343.583 61.27C344.2 60.6434 343.618 60.4434 343.583 59.6234V58.3047C341.99 52.5034 343.482 43.7047 341.607 36.5647C343.948 35.606 348.754 34.9207 351.49 35.5727ZM363.678 81.3634C363.623 87.8794 350.894 93.022 344.25 93.8994C344.092 91.5074 343.719 83.8754 343.912 81.0527L347.45 79.2314C352.439 75.9554 363.966 77.5847 363.678 81.3634ZM346.14 103.213C345.99 101.003 348.343 100.587 351.25 99.3407C355.267 97.5407 357.907 96.642 361.086 94.7714C362.192 94.2167 363.014 93.902 362.942 94.318C358.08 98.0234 352.502 101.006 346.14 103.213M369.99 83.1287C369.99 78.5474 367.734 75.418 364.24 73.9647C369.187 73.3807 372.419 76.5514 369.99 83.1287ZM381.011 35.438C378.819 29.542 376.663 20.2194 369.627 16.8647C377.424 17.626 381.772 25.8714 381.011 35.438ZM329.416 113.979C330.072 114.203 329.211 115.941 330.407 115.626C335.187 116.347 336.763 114.842 339.63 113.979C341.408 113.443 343.51 113.623 345.231 112.99C346.455 112.539 347.276 111.441 348.526 111.013C353.42 109.339 359.135 108.103 364.006 105.743C370.871 102.418 377.35 97.374 381.138 93.2247C383.043 90.2274 384.726 87.6607 385.716 84.374C385.746 80.0047 385.75 75.8327 385.727 71.79C384.639 68.3114 382.658 65.4167 380.104 63.5714C378.39 62.0394 375.519 61.23 372.772 60.3154C376.891 56.198 380.679 51.1927 384.275 45.4594C384.656 44.79 384.999 44.098 385.314 43.3914C385.186 36.4367 385.055 29.234 384.956 21.0127C382.435 15.75 378.078 11.446 371.912 9.55136C351.727 3.35136 334.114 8.95936 307.346 22.3994C304.564 23.9914 302.86 26.154 302.732 29.6474C303.044 30.4327 303.592 30.982 304.382 31.294C303.026 32.6474 299.022 34.8487 298.016 36.5407C297.307 37.7327 297.367 40.226 299.65 39.0967C303.476 37.2047 306.326 35.5474 311.298 35.246C309.591 37.7847 307.224 37.086 306.695 39.9834C306.426 41.47 307.832 42.3634 309.634 42.3607C310.864 42.3594 311.643 41.478 314.262 39.8567C318.943 36.9607 323.067 34.9754 327.771 34.5874C320.015 37.702 312.979 41.5394 307.346 46.7754C307.042 48.9474 308.078 49.7794 308.994 50.7274C313.407 49.2127 316.112 45.9887 320.192 44.1407C322.174 62.1634 324.086 82.4367 326.458 98.5087C323.451 99.4887 321.596 99.342 318.582 101.079C317.627 102.305 318.308 104.349 319.26 104.895C319.671 105.169 321.854 104.895 322.711 104.839C323.063 109.298 328.575 105.805 333.383 105.989C328.259 107.571 327.059 108.657 323.055 109.23C319.911 110.373 324.815 115.49 329.416 113.979" fill="#00AFED"/>
<path d="M537.213 38.8067C536.349 40.984 534.837 43.6214 533.83 46.14C533.621 45.3374 533.37 44.528 533.068 43.7094C533.78 41.852 534.909 39.7547 536.512 37.3934C536.92 36.7934 537.346 36.1814 537.817 35.548C538.01 36.388 537.726 37.5174 537.213 38.8067ZM527.762 47.7774C527.65 46.9814 527.613 46.212 527.614 45.4547C527.956 46.3507 528.253 47.2347 528.446 48.0827C528.446 48.0854 528.446 48.0867 528.448 48.0907C528.877 49.964 529.345 52.016 529.46 53.9894C528.646 51.8494 528.016 49.5747 527.762 47.7774M507.218 87.9507C507.061 86.052 508.646 86.068 511.336 83.5574C513.83 81.6187 516.56 78.3454 518.198 76.144C518.317 75.7387 518.549 76.2534 519.022 76.144C516.082 82.4454 511.029 86.5427 507.218 87.9507M496.51 85.2054C495.208 77.7267 494.824 71.4827 494.25 66.3347C493.681 61.1894 492.725 55.4694 492.917 51.848C496.489 49.8667 503.5 48.4134 508.04 49.516C510.936 50.8454 514.296 53.964 513.806 59.6734C512.87 70.5454 503.352 80.6507 496.51 85.2054ZM486.628 89.596C486.293 87.9134 485.512 85.2267 485.805 83.8307L484.626 77.1547L485.2 76.7267C485.561 81.212 487.701 84.7734 488 89.3227C487.34 89.2094 487.404 89.8254 486.628 89.596ZM474.825 44.8494C475.572 43.84 477.946 42.3627 480.146 41.552C483.39 40.8574 485.866 40.98 486.77 41.4987C485.484 42.1227 476.722 45.5627 474.825 44.8494ZM468.488 41.6427C468.933 40.644 469.348 39.6294 469.709 38.5934C470.74 39.1147 471.869 39.4934 472.352 39.9054C471.082 40.504 469.786 41.0747 468.488 41.6427M518.013 35.26C514.224 34.1174 506.432 32.7574 502.717 32.7414C506.836 30.304 515.154 32.2587 518.013 35.26ZM451.168 31.02C449.569 29.7414 446.061 27.8267 443.085 27.9347C443.772 26.732 447.654 26.4467 449.521 27.4507C450.524 27.8267 451.478 29.4214 451.168 31.02ZM434.102 53.9814C434.249 44.9667 435.022 39.7614 435.474 33.1187C440.529 31.7814 445.937 32.5787 448.104 36.1374C447.364 44.76 440.05 50.5734 434.102 53.9814M416.424 27.2534C416.424 27.2534 423.429 21.82 432.438 20.5334C432.438 20.5334 425.261 24.928 416.424 27.2534ZM422.286 57.28C420.497 51.804 420.577 46.7227 420.104 40.528L422.025 39.7054C422.542 43.8827 423.032 51.88 422.286 57.28ZM413.704 34.816C413.35 34.2067 412.96 33.672 412.548 33.2654C412.685 32.884 412.772 32.5267 412.828 32.2174C412.857 32.0627 412.878 31.908 412.893 31.7534C413.21 32.004 413.556 32.2134 413.917 32.3894C413.842 33.188 413.776 34.0067 413.704 34.816M401.825 39.8134C401.012 40.516 400.041 41.2067 399.514 41.352C398.69 39.6534 400.596 38.08 402.053 36.8174C401.974 37.804 401.898 38.8054 401.825 39.8134M396.454 25.2147C396.446 24.6347 396.438 24.0814 396.43 23.492C397.286 23.18 398.07 22.6654 398.704 21.972C398.76 22.3587 398.866 22.7334 399 23.096C398.129 23.7867 397.277 24.488 396.454 25.2147M392.97 31.008C392.964 30.5574 393.024 30.116 393.12 29.684C393.232 30.9694 393.266 32.2587 393.233 33.544C393.086 32.7574 392.984 31.928 392.97 31.008M555.213 72.4854C556.042 72.756 556.648 72.9 557.549 73.5827C559.028 77.0307 556.213 79.4907 554.116 80.4454C555.737 78.156 555.734 75.4387 555.213 72.4854ZM541.488 99.94C542.173 100.169 542.958 100.299 543.958 100.212C543.821 101.319 545.394 101.891 546.704 101.585C551.084 100.561 557.974 96.888 561.526 94.1747C568.413 88.3094 574.021 81.5814 570.862 72.2134C569.556 68.3414 565.368 65.8254 562.122 63.2867C557.653 59.788 554.197 51.6974 558.234 46.68C561.126 43.084 566.544 40.532 570.862 38.444C571.712 36.0467 569.753 34.8054 568.666 33.5027C570.661 32.2027 572.534 31.6667 574.277 30.1134C575.288 29.2934 573.86 28.1267 572.785 27.7374C570.953 27.8267 569.678 28.4734 567.845 28.5627C567.338 28.5227 567.676 27.6334 567.296 27.464C565.714 27.4894 564.146 27.5027 563.178 26.9147C566.774 25.1667 569.741 24.0107 573.061 21.6987C571.693 22.0667 572.582 21.68 572.785 20.8747C572.605 20.052 572.2 21.1374 571.689 20.8747C571.482 20.0307 572.441 20.3467 572.236 19.5027C564.936 20.884 558.084 23.8947 552.197 27.464C554.546 25.4187 557.536 23.648 559.884 22.248C564.802 19.3147 571.746 18.2507 573.333 14.2867C572.841 14.3214 572.692 14.0134 572.784 13.4627C569.364 13.4747 565.557 15.6747 562.697 15.6747C562.838 14.816 563.222 13.428 560.981 13.3854C558.844 13.1187 556.646 14.432 554.941 15.3854C548.017 19.256 540.774 24.5934 535.814 29.1694C534.97 30.0747 534.089 31.0534 533.226 32.1014C531.962 33.636 530.748 35.3267 529.77 37.184C529.634 36.9734 529.521 36.7587 529.38 36.548C528.532 35.2747 527.14 33.5987 525.849 32.5147C525.834 32.5014 525.82 32.4854 525.805 32.4734C521.086 28.8987 515.082 27.1107 505.502 26.6814C503.18 26.5787 500.289 26.444 497.885 26.4574C490.445 26.4947 483.34 28.4267 477.077 30.9507C477.042 30.9654 477.012 30.9787 476.978 30.992C476.976 31.0427 476.976 31.092 476.972 31.1414C476.294 31.3654 475.642 31.6067 474.984 31.844C473.629 32.432 472.304 33.0347 471.046 33.6547C471.068 33.544 471.092 33.4334 471.118 33.324C471.009 33.368 470.89 33.4107 470.781 33.4574C470.828 33.28 470.888 33.108 470.932 32.9307C471.212 31.7774 471.325 30.652 471.318 29.5534C471.258 28.812 471.156 28.084 470.981 27.38C468.794 18.5387 457.898 12.636 447.892 11.992C444.318 11.7614 438.844 11.9814 435.533 12.5774C428.37 14.44 421.577 16.7227 415.36 19.696C413.224 20.7174 411.162 21.8267 409.172 23.0214C409.454 20.6827 409.769 18.32 410.11 15.9334C408.514 16.768 406.981 17.64 405.509 18.548C405.397 19.448 405.154 20.2654 404.358 21.1387C404.424 20.4707 404.461 19.82 404.501 19.1667C404.666 16.3814 404.656 13.652 404.908 10.432C402.346 8.74004 399.892 10.5387 398.321 12.08C397.53 11.8387 396.602 11.332 395.3 12.08C394.656 13.7214 395.392 16.7427 394.477 18.116C394.537 16.0774 391.597 15.7494 390.634 17.02C390.644 17.98 390.656 18.892 390.666 19.8254C390.773 28.976 390.917 36.98 391.057 44.4627C391.229 53.6547 391.389 62.1067 391.444 71.0294C392.556 75.164 392.688 79.7414 391.656 84.28C391.59 84.572 391.508 84.844 391.433 85.1267C391.424 86.3174 391.413 87.5094 391.401 88.7347C391.452 90.2574 392.512 90.8174 393.656 90.4947C394.357 89.592 394.108 82.1067 395.577 78.6894C395.766 82.7587 395.421 86.4107 396.128 90.4947C397.38 91.048 398.58 90.7307 399.146 90.22C399.466 92.1334 399.177 91.9427 399.146 94.0614C399.409 96.4574 402.125 96.6 403.265 93.512C404.552 81.9147 405.786 68.228 406.01 58.924L406.832 51.7867C406.858 51.2414 406.89 50.712 406.917 50.172C407.156 45.588 407.438 41.16 407.792 36.804C408.216 37.0587 408.64 37.3147 408.848 37.7854C407.192 39.5667 409.561 41.492 410.772 42.176C410.254 42.576 409.553 42.7907 409.673 43.8227C409.941 46.2267 411.413 46.38 412.894 45.7814C413.986 45.34 415.085 44.492 415.713 43.8227C415.653 55.3987 417.793 65.42 418.285 78.4427C418.494 83.992 419.429 88.5947 420.468 95.2587C421.152 96.5974 422.202 96.792 423.005 95.6894C423.176 88.4667 423.209 84.0627 423.673 80.0614C425.896 85.8294 424.625 90.9894 426.693 96.532C428.437 97.096 429.109 96.372 430.537 95.984C431.246 94.2014 429.661 90.8894 431.082 89.3947C432.104 88.8307 431.802 89.788 433.006 89.668C433.172 89.1014 433.43 88.6307 434.378 88.8467C435.102 85.044 433.1 81.872 434.104 78.14C444.12 82.9174 452.792 88.3494 463.212 91.1C463.273 92.0454 464.026 92.296 464.858 92.4747C465.354 91.3907 466.032 92.956 467.053 92.1974C465.876 88.1587 461.377 87.4414 458.545 85.06C462.434 86.5747 464.434 86.8867 467.602 88.0814C467.329 86.0107 464.174 85.0707 464.034 83.1387C466.206 84.6694 470.094 86.7494 473.641 87.8067C473.67 87.3734 473.606 86.8534 474.192 86.98C474.88 87.356 475.537 87.4014 475.974 87.2387C475.882 86.6387 475.79 86.0294 475.702 85.4414C475.654 85.4054 475.616 85.3707 475.565 85.336C473.949 84.3774 471.852 83.3947 471.173 82.04C471.478 82.7427 473.294 81.9307 473.641 82.5907C473.933 81.5654 473.065 81.7027 472.82 81.2174C472.949 80.2774 472.586 79.3494 471.996 78.7467C469.936 76.64 467.101 76.1187 464.026 74.5734C458.449 71.764 452.937 68.172 448.654 65.2374C452.997 61.8187 457.83 57.432 461.948 52.2427C463.164 50.708 464.322 49.1094 465.381 47.4374C465.565 47.7734 465.821 48.0907 466.182 48.416C467.326 49.132 468.289 48.9947 469.334 48.6947C468.32 49.5254 468.289 51.2147 468.77 52.6027C468.945 53.108 469.182 53.576 469.472 53.944C470.569 54.9934 473.981 52.9667 476.35 52.0787C478.386 63.7427 479.569 72.552 481.118 82.976C482.242 84.728 482.425 86.6787 481.933 88.3707C482.118 89.576 482.309 90.8014 482.509 92.0694C479.712 93.8454 475.881 94.5907 472.901 96.1867C472.912 97.64 473.893 98.1254 474.276 99.2054C476.624 99.4347 477.94 98.4974 479.217 98.384C479.592 100.345 481.964 100.449 482.784 100.58C480.886 101.887 478.333 102.657 478.048 104.372C478.906 106.087 483.484 105.755 485.629 105.04C506.717 98.4894 520.632 86.832 528.905 73.4027C530.482 71.3907 531.645 69.4547 532.522 67.4787C533.365 65.5814 533.941 63.6454 534.369 61.568C535.814 62.8827 537.534 64.1574 539.356 65.296C540.164 65.8 540.988 66.2814 541.821 66.7214C545.537 68.436 548.684 70.1507 549.826 72.152C549.705 83.7627 540.818 87.3094 530.238 90.0267C531.001 92.3974 533.468 93.1054 536.273 92.528C536.274 92.804 536.049 92.8547 535.997 93.0787C534.701 93.0334 532.853 94.7227 533.528 96.6454C536.14 98.612 538.57 97.072 541.216 96.9187C540.289 97.8654 540.936 99.036 541.488 99.94" fill="#00AFED"/>
<path d="M234.577 46.4034C234.521 46.1367 234.457 45.878 234.409 45.6034C234.555 44.77 235.189 45.3247 235.574 44.9114C235.241 45.4794 234.906 45.9794 234.577 46.4034ZM217.378 55.31C215.543 56.9207 213.93 60.2114 211.722 57.566C217.181 52.4607 222.886 48.3634 227.625 42.5234C227.946 42.4754 228.118 42.5847 228.179 42.806C225.762 46.4314 221.486 51.7114 217.378 55.31ZM210.455 45.362C207.799 47.714 204.149 50.3514 198.826 53.6047C199.074 48.5927 198.497 42.37 198.549 36.838C204.586 35.3154 211.053 31.7154 217.102 34.85C216.903 39.3207 213.246 42.6154 210.455 45.362M189.059 24.3754C192.198 21.5807 195.314 20.874 199.901 19.4193C205.11 18.106 207.875 18.454 209.489 19.262C202.921 20.298 198.079 21.1047 189.059 24.3754M193.157 51.762C193.177 50.4274 193.153 49.0034 193.109 47.5127C193.465 48.4167 193.597 49.3994 193.465 50.3754C193.405 50.8167 193.297 51.286 193.157 51.762M184.034 48.918C183.047 48.954 182.138 49.0354 181.691 49.042C181.967 48.666 183.049 48.086 184.053 47.446C184.042 47.9394 184.035 48.4287 184.034 48.918ZM149.137 91.7367C153.101 91.4047 160.154 89.4034 163.395 87.594L163.489 89.3087C157.938 92.086 151.345 92.506 149.137 91.7367ZM108.291 78.0914C101.447 67.2234 100.517 67.0194 94.8486 57.7967L98.3512 62.05C100.054 64.386 104.003 69.0314 106.313 72.4834C107.807 74.718 109.082 76.906 108.291 78.0914ZM54.0472 64.186C54.0472 60.182 53.1619 53.9247 53.2139 48.1047C53.2139 48.1047 55.5006 57.642 56.4552 63.1714C56.2339 63.2647 54.2672 64.0927 54.0472 64.186ZM51.1566 13.05C49.7552 14.1234 48.0259 15.034 46.1006 15.8714C45.9606 15.5114 45.8886 15.158 45.8259 14.802C46.6459 14.338 47.4739 13.8767 48.3259 13.4154C49.5139 12.85 50.7019 12.2474 51.8846 11.6247C51.9272 11.9634 51.9619 12.298 51.9939 12.6314C51.7019 12.726 51.4192 12.8554 51.1566 13.05M28.6046 72.2234C29.8806 60.49 32.9592 47.1034 34.6486 36.75C36.9499 48.338 38.8139 56.566 41.0486 68.4367C36.6806 69.482 32.7566 70.9634 28.6046 72.2234ZM21.3659 75.302L19.6512 76.1594L22.5112 63.006L21.3659 75.302ZM20.0792 100.746L19.5086 91.7367L21.0819 91.3087L20.0792 100.746ZM17.4152 35.1914C18.2646 34.7074 19.0259 34.286 19.7792 33.882C19.0112 40.1194 18.2179 46.7327 17.0766 51.0914C16.2512 48.3767 17.3952 40.6247 17.4152 35.1914ZM276.323 44.838C275.301 50.1314 272.155 61.6647 268.725 67.0034C268.725 67.0034 272.527 50.0407 276.323 44.838M260.763 109.841C263.813 104.583 265.294 98.1714 267.262 91.8034C271.254 79.7914 275.911 67.986 280.162 55.5634C283.594 46.5074 287.026 39.646 289.862 31.0594C289.351 30.1074 288.618 29.3754 287.669 28.862C288.721 26.7874 289.638 22.2727 287.393 21.45C284.461 20.3727 282.354 31.7687 280.257 34.078C282.662 29.554 278.058 28.3034 275.038 27.4874C276.326 25.0247 275.091 22.658 273.118 23.0954C270.438 23.6887 270.637 31.1154 268.726 32.4274C266.629 31.642 266.611 32.274 264.333 32.4274C261.943 39.6207 260.617 48.494 258.294 54.9394C256.015 49.834 251.465 43.2514 248.682 37.646C247.623 35.5047 246.915 32.9914 245.517 31.7754C244.69 31.0567 243.622 30.7914 242.097 31.33C241.575 31.8154 241.246 32.4927 240.722 32.9794C240.435 32.4074 240.174 31.8087 239.827 31.2954C239.897 29.0567 239.697 26.6994 239.058 24.4034C238.311 21.7167 236.981 19.1247 234.823 16.9434C232.045 14.1314 227.385 11.658 222.917 12.69C221.653 12.1207 220.355 11.362 218.487 11.2687C202.058 10.418 186.905 18.0967 176.123 23.2007C176.087 24.21 175.667 24.8207 175.291 25.4754C174.126 25.9927 172.93 26.3687 172.342 27.086C173.597 27.8647 174.499 29.1034 174.862 30.5354C175.639 30.8634 176.357 31.266 176.678 32.0127C175.735 32.4794 175.322 33.4887 174.691 34.278C174.631 34.5074 174.571 34.7394 174.497 34.9594C174.659 35.4074 175.255 35.4114 175.014 36.274C174.597 36.8047 174.143 37.3007 173.283 37.3794C173.235 37.4514 173.191 37.526 173.141 37.5967C173.705 39.2754 174.325 40.9434 176.421 41.1274C176.747 41.1567 177.105 41.1527 177.507 41.1047C178.697 44.898 182.415 41.7714 184.429 40.8207C184.289 42.262 184.202 43.6767 184.137 45.0807C183.531 45.142 182.903 45.33 182.366 45.4634C180.397 46.0527 177.921 46.6594 175.227 47.3047C169.898 48.5807 163.701 50.0114 158.778 51.766C156.481 52.5834 152.603 54.6074 152.231 56.098C151.241 60.086 156.271 58.9834 157.327 58.558C154.162 60.1927 144.203 65.5114 151.625 67.8887C151.553 68.8727 150.334 68.582 150.426 69.7487C150.901 70.89 151.562 71.8607 152.767 72.3447C155.987 70.4127 159.134 69.482 162.722 67.9527C162.73 71.17 163.003 74.1447 163.059 77.318C158.365 79.7727 151.815 80.9447 147.249 80.0727C142.255 77.9927 140.098 70.4234 141.535 63.0074C143.729 51.6554 151.525 43.942 159.521 39.4754C161.898 38.1447 165.986 37.102 168.058 34.782C168.179 34.5514 168.282 34.3114 168.435 34.0954C168.541 33.9487 168.653 33.8087 168.769 33.674C168.101 33.1034 167.565 32.47 167.162 31.774C163.006 31.978 158.969 35.0474 155.259 36.7807C157.903 32.7607 164.119 31.2527 166.289 27.5087C166.295 27.4287 166.309 27.3554 166.318 27.2754C165.743 27.6127 164.97 27.7327 164.501 28.1887C164.841 27.3034 165.933 27.254 166.414 26.5314C166.423 26.4834 166.439 26.4407 166.45 26.394C165.233 26.8447 164.926 27.1714 163.763 26.4994C161.511 27.5207 158.537 28.9514 156.598 30.2927C150.486 34.522 148.741 35.402 143.65 39.5087C147.271 34.7887 152.253 31.2994 158.574 26.9994C160.094 25.9634 162.503 25.0447 163.585 24.566C166.831 23.1247 171.15 22.222 166.885 19.238C168.197 18.4687 169.827 18.058 171.373 17.5447C171.641 16.082 171.278 15.1914 170.993 14.2274C167.569 12.786 165.243 15.1767 162.641 16.27C158.091 14.0393 154.279 17.3847 150.35 20.0327C143.65 24.5474 138.718 29.1634 133.37 34.3127C132.606 35.4074 133.085 36.442 133.239 37.29C132.063 38.4287 130.95 39.8274 129.915 41.4287C127.254 45.55 125.126 51.0167 123.834 56.8647C123.778 51.5447 123.961 45.302 124.171 41.7007C124.211 41.014 124.25 40.3514 124.287 39.702C124.806 30.9354 125.205 25.3887 125.747 15.15C125.171 13.9514 123.673 12.438 122.565 13.7234C122.118 15.6567 122.105 20.3994 120.311 22.5247C120.191 18.7447 121.11 16.002 120.861 12.0927C119.995 11.31 119.39 10.2474 118.391 10.1727C114.922 9.91135 116.985 14.4327 115.371 17.0354C114.619 15.9567 113.579 15.1687 111.529 15.3887C110.803 17.6967 111.09 21.486 110.155 22.7994C108.97 21.966 107.67 21.5687 106.313 22.25C105.323 30.894 106.51 42.0994 106.861 52.9967C98.9032 42.194 91.8552 30.4847 84.8979 18.682C84.0646 18.142 83.1072 17.7274 82.4259 17.034C82.2846 15.7127 82.1112 14.422 80.2326 14.838C79.2299 17.002 80.4699 21.0127 81.6032 22.7994C80.7659 23.2914 78.1766 20.966 76.9366 23.3487C76.2286 25.4034 76.0819 27.9274 76.6632 31.0354C74.7006 28.722 69.6939 25.7327 68.7019 28.838C68.4512 38.4567 69.2752 48.1447 70.5019 57.7074C70.7686 59.7794 71.0512 61.8447 71.3486 63.9034C70.3712 63.986 69.3152 64.19 68.0646 64.3074C67.8926 62.406 66.6232 61.7367 65.2512 61.5967C64.2072 61.49 63.1032 61.6914 62.3752 61.8954C59.9752 42.942 58.3192 26.7034 57.3259 8.50069C58.0352 8.05402 58.7419 7.60869 59.4472 7.13135C60.5766 6.35669 61.0032 4.89269 60.4539 3.63535C59.9046 2.37535 58.5473 1.68069 57.2073 1.98335C56.0073 2.27135 55.0086 2.77935 54.0832 3.33402C53.4046 3.23669 52.7032 3.30202 51.3912 3.98469C51.3192 4.35002 51.2859 4.75802 51.2726 5.18602C50.5219 5.70202 49.8699 6.14202 49.4859 6.33402C48.0873 7.05669 46.7352 7.77268 45.4166 8.49002C44.7752 8.79002 44.1313 9.07803 43.4859 9.36469C45.3873 7.87936 47.6019 6.60202 49.8606 4.71002C52.8472 2.20869 50.3886 -0.68731 48.1246 0.146023C38.4552 3.69802 36.2313 4.37669 31.8019 5.89269C27.3526 7.41135 10.1606 12.914 10.1486 12.9193C8.64991 13.4207 7.84325 15.0447 8.34458 16.5407C8.57792 17.2327 9.05257 17.7714 9.63924 18.1087C6.92591 19.3994 4.49524 20.8687 2.01524 22.394C1.01524 23.0114 -0.378079 24.098 0.0952546 24.9927C0.569921 25.8873 1.85659 25.1594 2.96859 24.7767C9.35792 22.5914 17.5233 19.7287 25.9166 15.5394C24.1926 16.6874 22.2632 17.902 20.0446 19.214C15.6552 21.3754 11.3086 23.9274 7.0899 27.2154C5.88857 28.1607 5.64192 29.8754 6.52858 31.1194C7.34058 32.2607 8.83524 32.6287 10.0699 32.05C9.09524 32.9007 8.62591 33.814 7.44724 34.978C6.39924 36.0034 4.43925 38.502 5.34991 39.6487C5.91125 40.3554 7.52591 39.894 8.59125 39.4594C9.08058 39.258 9.95259 39.0674 10.4313 38.7647C10.5179 38.7074 10.6006 38.6554 10.6872 38.5994C9.9779 42.2674 9.54858 46.8314 9.40458 49.154C8.74058 59.85 7.45124 69.906 6.20591 81.182C5.20324 90.266 4.23124 97.3687 3.71657 105.635C3.40991 110.55 3.20325 113.615 3.20325 115.63C3.30058 117.402 5.6739 116.605 6.5899 113.523C7.1739 111.546 7.72192 109.058 8.32458 106.693L8.91125 113.891L10.1019 114.513L14.4072 100.273C14.2806 103.538 13.7112 111.795 13.5006 119.338C13.5272 120.863 16.5672 122.165 16.7899 120.481C18.0766 115.621 19.0779 110.471 20.0712 104.946C20.6859 107.402 22.4952 110.413 23.9819 108.391C25.8632 103.097 25.5726 95.6994 26.4713 89.4474C32.1459 87.486 37.5686 85.2794 43.8886 83.9367C45.7392 90.866 46.6419 100.297 49.1032 107.518C50.0552 109.042 53.8406 108.293 53.1059 105.802C52.8206 102.751 51.7552 92.942 51.3912 86.3554C54.4992 95.7434 55.0152 101.799 58.4646 111.493C59.5899 113.237 62.7246 110.993 63.1779 109.274C63.8672 106.655 62.5992 102.397 62.2966 99.4367C63.0099 102.077 64.3139 104.749 66.0712 106.373C67.0259 107.138 68.5046 106.167 68.9326 104.087C67.4832 94.7327 66.3192 87.6594 65.2219 78.7714C65.9179 78.3234 66.8326 78.086 67.7019 77.8047C67.4539 76.2447 67.2072 74.6767 66.9606 73.1074C66.3832 72.9274 65.7739 72.7794 65.2219 72.5754C65.6592 72.406 66.2099 72.246 66.7992 72.0874C68.4206 71.6527 70.4686 71.2234 72.3646 70.6447C72.8672 73.8767 73.3792 77.0834 73.8806 80.2567C74.7019 85.454 75.4872 90.5647 76.1152 95.5487C77.1286 97.606 79.9886 97.2247 80.2326 95.5487C80.4259 87.9674 78.7139 81.6954 77.9046 74.5474C77.6699 72.4847 77.4992 70.3607 77.4859 68.0967C77.6672 70.3354 77.9859 72.3727 78.3792 74.298C79.6592 80.594 81.7899 85.574 83.0406 91.5047C83.9939 92.6487 85.6752 91.998 86.8526 91.6954C87.4726 93.1967 90.2846 92.8394 90.6646 91.1554C89.8099 79.8194 88.2259 66.742 87.6459 55.1927C96.0886 65.7847 102.753 78.1527 110.981 88.958C111.866 89.018 112.143 88.4727 113.178 88.6834C113.222 85.802 110.714 84.014 110.707 82.0954C112.927 81.4314 111.905 84.0087 112.905 84.5647C114.275 84.414 115.986 85.2327 116.747 87.5847C117.466 89.814 116.423 91.9087 118.666 92.5274C120.125 92.9287 121.687 91.0687 122.133 89.4007C122.171 89.2514 122.218 89.102 122.237 88.958C123.399 88.9527 124.011 89.4887 124.982 88.958C125.458 87.6967 125.767 86.3954 125.965 85.0674C126.007 85.1434 126.043 85.2247 126.086 85.3007C126.89 85.354 127.001 86.0114 128.527 85.9754C128.998 87.4887 129.765 88.814 130.67 89.9954C132.846 92.8327 135.919 94.738 138.327 95.6994C147.162 98.5847 156.253 96.566 164.39 94.1527C165.323 96.358 165.323 99.41 166.49 101.407C166.926 102.751 167.274 101.522 168.642 100.893C169.215 97.806 167.445 93.2207 170.018 91.694C170.875 93.802 170.814 101.294 171.931 104.322C173.334 104.725 174.007 104.622 174.931 104.754C175.587 107.443 174.75 107.319 176.51 109.625C177.043 110.309 178.363 109.043 178.363 107.137C177.409 96.0794 176.693 91.346 176.339 81.026L176.933 79.062C177.027 72.818 176.806 67.0034 176.853 60.4354C177.558 60.2234 178.19 60.0114 178.767 59.7954C180.545 59.134 181.786 58.434 182.935 57.57C183.89 56.426 181.906 54.9554 180.609 55.2274C181.395 54.906 182.891 54.4927 184.139 54.0647C184.273 57.146 184.513 60.1807 184.799 63.198C185.503 70.6207 186.451 77.9594 186.561 85.7834C186.561 87.1167 188.275 88.45 188.858 87.4234C190.571 84.386 188.502 80.7047 189.326 76.7394C190.202 76.878 189.993 80.446 190.754 82.162C191.382 87.6487 191.614 86.658 193.014 92.822C194.771 93.402 195.267 92.4687 196.613 91.9687C196.153 86.762 195.954 81.7047 195.782 75.4887C195.747 74.2287 194.945 72.178 196.334 71.794C195.891 78.1954 198.161 82.0994 198.762 88.4514C199.334 89.4074 201.43 89.594 201.598 88.2767C201.45 81.7274 200.621 79.9927 200.669 73.202C204.949 75.686 208.294 77.2034 211.565 79.7527C216.682 83.114 222.958 87.8834 227.35 90.5527C231.115 92.8394 233.602 94.2847 237.207 96.1474C238.511 96.286 239.654 94.854 238.87 93.874C238.369 91.9967 234.222 91.1367 233.507 88.7074C234.387 88.9394 235.003 89.6007 236.101 89.6127C237.225 89.7087 238.655 88.1367 238.038 86.4834C235.503 83.878 232.702 83.3554 230.673 81.1727C231.97 81.5034 234.81 83.0007 236.174 83.7047C238.17 84.3994 240.511 86.1354 240.939 85.562C241.894 83.3687 242.015 83.6274 239.533 82.026C237.498 80.7127 235.979 79.2287 234.507 78.73C231.786 76.654 228.119 74.726 226.797 72.9314C230.854 74.7834 233.491 76.8407 237.318 77.4767C239.557 77.7487 237.079 75.6794 235.655 74.6367C229.945 70.774 223.526 66.6087 217.658 62.1327C221.435 59.034 226.361 54.678 229.833 50.8167C230.018 50.61 230.217 50.3994 230.394 50.1967C231.589 48.826 233.317 47.874 234.273 46.7874C234.374 46.6727 234.477 46.5367 234.578 46.4047C235.031 48.6114 235.697 50.6074 236.525 52.438C239.359 58.6994 243.978 63.1767 247.585 68.6634C248.265 68.702 248.909 68.7074 249.235 68.3914C248.262 64.6047 245.735 62.3727 244.293 59.0567C246.871 62.3327 248.925 66.138 252.803 68.1154C253.793 68.006 254.018 67.134 254.723 66.7407C251.062 80.5674 248.27 93.7234 244.017 107.098C245.13 107.709 245.791 109.301 247.863 108.47C249.045 106.726 248.797 103.549 250.334 102.155C249.581 105.523 248.094 108.154 248.137 112.313C249.083 112.183 249.055 113.241 250.606 113.137C251.742 111.374 251.469 108.161 253.079 106.273C253.803 107.137 253.509 107.383 255.273 107.645C256.999 105.895 257.201 102.621 258.294 100.235C259.823 100.925 259.989 98.842 260.489 99.41C259.847 102.703 258.651 105.442 258.018 108.743C259.063 109.07 259.661 110.367 260.763 109.841" fill="#00AFED"/>
</svg>
