<svg width="531" height="125" viewBox="0 0 531 125" fill="none" xmlns="http://www.w3.org/2000/svg">
<path d="M88.2387 30.3773L66.604 71.1653V96.9667H58.288L58.264 70.7427L36.6293 30.3773H46.6173L59.1027 55.7627C59.1027 56.18 59.5187 56.596 59.936 57.0133C60.352 57.4293 60.352 57.8467 60.7693 58.676L61.1867 59.092V59.5093C61.6027 60.3427 61.6027 60.7587 62.02 61.5933C62.4373 62.0093 62.4373 62.844 62.8533 63.256C63.2707 62.0053 64.104 61.1707 64.516 59.5093C64.932 58.2587 65.7667 57.0133 66.6 55.7627L79.084 30.3773H88.2387ZM124.843 -1.29038e-05H0V124.843H124.843V-1.29038e-05Z" fill="#00AFED"/>
<path d="M511.429 98.6738H517.398V74.4591C517.4 73.0258 517.636 71.6031 518.098 70.2471C518.797 68.8431 520.202 67.7951 521.606 66.7391C523.01 65.6818 524.766 65.3338 526.17 65.3338C526.524 65.3338 527.233 65.3338 527.928 65.6818L530.384 59.0125C529.684 58.6658 528.974 58.6658 528.28 58.6658C524.068 58.6658 520.558 60.7645 517.398 64.9818V64.2871C517.437 62.2111 516.954 60.1591 515.994 58.3178L510.025 60.0751C511.082 62.1831 511.429 64.9925 511.429 68.5005V98.6738ZM491.428 68.4605C492.489 70.9111 493.184 74.7818 493.184 80.0418C493.184 83.5045 492.826 86.3631 492.132 88.4671C490.728 92.3325 487.924 94.4365 483.706 94.4365C480.204 94.4365 477.748 93.0418 475.986 90.5765C474.224 88.1098 473.529 83.9071 473.529 77.9378C473.529 73.3831 473.882 69.8698 475.286 67.7658C477.042 64.9525 479.504 63.5485 483.36 63.5485C487.214 63.5485 489.676 65.3498 491.432 68.5098L491.428 68.4605ZM466.504 78.6818C466.504 85.0031 468.26 90.2685 471.069 93.7765C474.224 97.6365 478.094 99.3938 483.354 99.3938C487.222 99.4631 490.977 98.0858 493.884 95.5325C497.749 92.0245 499.853 86.4085 499.853 79.3871C499.853 73.4218 498.801 68.5045 496.345 64.9965C493.178 60.4325 488.624 58.3285 483.006 58.3285C478.094 58.3285 473.882 60.4365 471.073 63.9445C467.913 67.4485 466.509 72.3658 466.509 78.6818H466.504ZM450.402 59.3498C450.402 56.1898 450.402 52.3338 451.097 48.1165L444.78 49.5205V50.5778C444.433 55.1431 444.085 57.9565 444.085 58.6511V59.3458H439.124V64.3071H444.384V90.9831C444.384 96.9471 447.186 99.7551 453.156 99.7551C455.606 99.7551 457.721 99.4031 459.825 98.3511L459.13 94.4911C458.078 94.8378 456.674 95.1858 455.269 95.1858C453.513 95.1858 452.104 94.4765 451.409 93.7818C450.705 92.7245 450.357 91.3205 450.357 89.2165V64.2925H458.43L460.186 59.3298H450.362L450.402 59.3498ZM424.337 88.4765C422.578 92.1418 418.968 94.5618 414.909 94.7938C410.344 94.7938 408.24 92.3378 408.24 87.7725C408.24 84.9645 408.94 82.8605 410.344 81.4565C412.448 79.3471 415.961 78.2951 421.578 78.2951H424.738L424.392 88.4671L424.337 88.4765ZM405.824 67.7658L410.041 64.9578C412.85 63.8951 415.31 63.2005 417.414 63.2005C419.396 63.0751 421.326 63.8485 422.674 65.3045C423.732 66.0138 424.078 68.1125 424.078 71.2738V74.0818H421.27C414.949 74.0818 409.684 75.1338 406.176 77.5898C402.73 79.7991 400.724 83.6778 400.912 87.7671C400.912 91.2751 401.968 94.0845 404.072 95.8405C406.478 97.9498 409.64 99.0018 413.5 99.0018C417.36 99.0018 421.225 97.2498 424.734 93.7418C425.429 96.5498 427.185 98.3071 429.993 99.3591L433.154 95.1405C431.75 94.4365 430.693 93.3845 430.345 91.9805C429.998 90.9231 429.998 89.5191 429.998 87.4151V85.6591L430.345 73.0205V70.9165C430.345 67.7565 430.345 65.6525 429.652 64.2471C427.9 60.3818 424.386 58.2791 418.769 58.2791C413.153 58.2791 407.882 60.0298 402.624 63.5378L405.784 67.7565L405.824 67.7658ZM363.314 97.9538H369.278V69.1751C370.816 67.6151 372.593 66.3111 374.544 65.3151C376.653 64.2525 378.756 63.5578 380.161 63.5578C381.745 63.5445 383.268 64.1778 384.373 65.3151C385.43 66.3711 385.777 68.4698 385.777 71.6311V97.9538H391.746V68.4698C391.746 66.7138 391.389 65.3098 390.694 63.9058C389.996 62.1445 388.59 60.7445 386.834 59.6871C385.078 58.6311 383.321 58.2831 381.217 58.2831C377.005 58.2831 372.792 60.3925 368.932 64.2525C368.97 62.1765 368.488 60.1245 367.528 58.2831L361.558 60.0405C362.268 61.7965 362.962 62.8485 362.962 63.9005C363.309 64.5951 363.309 66.3511 363.309 69.1605L363.314 97.9538ZM349.669 97.9591V58.2938L343.353 59.3458V97.9498L349.669 97.9591ZM343.298 50.9551C344.35 52.0111 345.402 52.3591 346.806 52.3591C348.21 52.3591 349.257 52.0071 350.314 50.9551C351.372 49.9031 351.718 48.8511 351.718 47.4471C351.718 46.0418 351.366 44.9951 350.314 43.9378C349.262 42.8818 348.21 42.5338 346.806 42.5338C345.402 42.5338 344.354 42.8871 343.298 43.9378C342.241 44.9898 341.894 46.0418 341.894 47.4471C341.894 48.8511 342.246 49.8978 343.298 50.9551ZM309.194 66.4018C311.298 64.6445 313.76 63.9498 315.864 64.2978C319.377 64.2978 321.833 65.3538 323.237 67.4578C324.998 69.5618 325.693 73.0258 325.693 77.9871C325.693 83.6045 324.641 87.4645 322.885 90.2738C321.481 92.7298 319.024 93.7818 315.864 93.7818C312.053 93.7818 308.892 92.3765 306.436 89.2165V69.1111C307.14 68.0591 308.192 66.9965 309.244 66.3018L309.194 66.4018ZM299.057 42.4751C300.12 44.2311 300.466 47.3871 300.814 51.6045V88.4725C300.814 93.3351 300.457 96.5405 299.762 98.2965H305.732L306.784 94.0791C307.84 95.4831 309.244 96.5351 311.348 97.5871C313.189 98.5471 315.241 99.0298 317.317 98.9911C321.882 98.9911 325.742 97.2351 328.556 93.3738C331.369 89.5138 332.774 84.5965 332.774 78.2805C332.774 72.3165 331.365 67.3991 328.556 63.8911C326.1 60.3871 322.24 58.6311 317.674 58.6311C313.814 58.6311 309.949 60.3818 306.441 63.8911V50.9045C306.441 47.0498 306.084 43.8885 305.389 41.0805L299.072 42.4845L299.057 42.4751ZM239.4 97.8845H245.285V69.1058C249.14 65.6018 252.301 63.8458 255.109 63.8458C256.866 63.8458 257.918 64.1978 258.97 65.2498C259.674 65.9938 260.021 67.7565 260.021 70.2125V97.6311H266.69V69.1991L267.385 68.5045C269.141 67.1005 270.55 66.0391 271.245 65.3445C273.002 63.9351 275.106 63.2405 276.862 63.2405C280.068 63.2405 281.825 64.9965 281.825 68.8578V97.6365H288.236V68.5098C288.236 65.7018 287.184 63.2405 285.426 61.1365C283.665 59.3805 281.214 58.3285 278.405 58.3285C274.193 58.3285 270.337 60.4271 266.12 64.6445C265.768 63.9445 265.062 62.8831 264.716 62.1885C262.964 59.7325 260.156 58.3285 256.994 58.3285C254.89 58.3285 252.782 59.0285 250.326 60.4325C248.173 61.4845 246.768 62.8885 245.364 64.2925V63.9445C245.364 62.1885 245.012 60.0845 243.96 58.3285L237.99 59.7325C239.048 62.1391 239.394 65.2991 239.394 69.1605L239.4 97.8845ZM219.393 68.4165C220.802 70.8671 221.497 74.7378 221.149 79.9965C221.149 83.4605 220.793 86.3191 220.098 88.4218C218.693 92.2871 215.89 94.3911 211.672 94.3911C208.169 94.3911 205.713 92.9978 203.952 90.5311C202.19 88.0645 201.496 83.8618 201.496 77.8925C201.496 73.3378 201.848 69.8245 203.252 67.7205C205.009 64.9071 207.469 63.5031 211.325 63.5031C215.181 63.5031 217.641 65.3045 219.398 68.4658L219.393 68.4165ZM194.821 78.6378C194.821 84.9591 196.226 90.2231 199.386 93.7311C202.542 97.5925 206.413 99.3485 211.672 99.3485C215.54 99.4178 219.296 98.0418 222.201 95.4885C226.066 91.9805 228.17 86.3631 228.17 79.3418C228.17 73.3778 227.118 68.4605 224.662 64.9525C221.497 60.3871 216.942 58.2831 211.325 58.2831C206.413 58.2831 202.552 60.3978 199.392 63.9005C196.23 67.4031 194.826 72.3205 194.826 78.6378H194.821ZM174.834 43.9285C168.518 43.9285 163.249 46.7365 159.388 51.3018C155.176 56.5618 153.072 62.8831 153.072 70.9511C153.072 79.0191 154.824 85.6391 159.041 90.6005C163.253 95.8658 168.518 98.3218 174.834 98.3218C180.144 98.3218 185.006 96.9125 189.572 94.1045L186.064 89.5391C182.908 91.9951 179.394 93.0471 175.534 93.0471C168.518 93.0471 163.953 89.8911 161.145 83.2218C160.082 80.4138 159.388 76.5538 159.388 71.9885C159.388 66.0191 160.088 61.4538 161.492 57.9458C163.948 51.9765 168.508 48.8165 174.477 48.8165C178.333 48.8165 181.489 50.2205 184.649 52.3245L188.157 48.1071C184.645 45.2925 180.08 43.8885 174.82 43.8885L174.834 43.9285Z" fill="#00AFED"/>
</svg>
