<svg width="616" height="120" viewBox="0 0 616 120" fill="none" xmlns="http://www.w3.org/2000/svg">
<path d="M410.411 69.5977V22.099H434.076V69.1137C434.076 81.3203 440.236 87.1217 449.656 87.1217C459.193 87.1217 465.352 81.563 465.352 69.7177V22.099H489.019V68.9937C489.019 96.1883 473.441 108.271 449.412 108.271C425.504 108.271 410.411 96.067 410.411 69.5977Z" fill="#00AFED"/>
<path d="M500.372 64.6422V64.4008C500.372 39.7462 519.209 20.4102 544.808 20.4102C562.077 20.4102 573.186 27.6608 580.672 37.9342L563.041 51.5888C558.212 45.6688 552.658 41.6808 544.568 41.6808C532.736 41.6808 524.401 51.8315 524.401 64.1582V64.4008C524.401 77.0915 532.736 87.0008 544.568 87.0008C553.381 87.0008 558.574 82.8928 563.646 76.7302L581.276 89.2995C573.306 100.295 562.558 108.393 543.964 108.393C519.813 108.393 500.372 89.9008 500.372 64.6422Z" fill="#00AFED"/>
<path d="M592.023 22.1012H615.448V106.701H592.023V22.1012Z" fill="#00AFED"/>
<path d="M207.813 37.9037V24.5144C207.813 20.7397 208.836 17.9651 210.884 16.1891C212.93 14.4144 215.602 13.5251 218.897 13.5251C222.257 13.5251 225 14.3584 227.126 16.0211C229.253 17.6864 230.318 19.8931 230.318 22.6437C230.318 23.8291 230.077 24.6344 229.597 25.0664C229.118 25.4984 228.32 25.7144 227.2 25.7144C225.15 25.7144 224.11 25.0597 224.081 23.7477C224.048 23.3317 224.008 22.9717 223.96 22.6691C223.912 22.3651 223.784 21.9651 223.576 21.4677C223.368 20.9731 223.104 20.5571 222.785 20.2197C222.464 19.8837 221.984 19.5971 221.346 19.3557C220.705 19.1171 219.952 18.9971 219.088 18.9971C215.73 18.9971 214.05 20.8384 214.05 24.5144V37.9037C214.05 41.5824 215.761 43.4211 219.186 43.4211C220.208 43.4211 221.065 43.2624 221.753 42.9411C222.441 42.6224 222.936 42.1677 223.24 41.5744C223.542 40.9824 223.752 40.4557 223.865 39.9904C223.974 39.5291 224.048 38.9584 224.081 38.2877C224.176 36.9771 225.2 36.3197 227.152 36.3197C228.272 36.3197 229.077 36.5357 229.574 36.9664C230.069 37.3984 230.318 38.2077 230.318 39.3904C230.318 42.2704 229.253 44.5731 227.126 46.3011C225 48.0291 222.24 48.8931 218.849 48.8931C215.554 48.8931 212.89 48.0037 210.86 46.2277C208.828 44.4531 207.813 41.6784 207.813 37.9037Z" fill="#00AFED"/>
<path d="M273.985 37.9037C273.985 41.5824 275.647 43.4211 278.974 43.4211C282.334 43.4211 284.014 41.5824 284.014 37.9037V24.5144C284.014 20.8384 282.334 18.9971 278.974 18.9971C275.647 18.9971 273.985 20.8384 273.985 24.5144V37.9037ZM267.747 37.9037V24.5144C267.747 20.7104 268.762 17.9251 270.793 16.1651C272.825 14.4064 275.551 13.5251 278.974 13.5251C282.397 13.5251 285.131 14.4064 287.181 16.1651C289.227 17.9251 290.253 20.7104 290.253 24.5144V37.9037C290.253 41.7104 289.227 44.4931 287.181 46.2531C285.131 48.0131 282.397 48.8931 278.974 48.8931C275.551 48.8931 272.825 48.0131 270.793 46.2531C268.762 44.4931 267.747 41.7104 267.747 37.9037" fill="#00AFED"/>
<path d="M205.701 73.7001C205.701 72.9641 206.125 72.3494 206.972 71.8547C207.821 71.3574 208.707 71.1081 209.636 71.1081C210.819 71.1081 211.523 71.5254 211.748 72.3561L219.088 98.3654L226.383 72.3561C226.607 71.5254 227.309 71.1081 228.495 71.1081C229.389 71.1081 230.271 71.3667 231.135 71.8774C231.999 72.3894 232.431 72.9974 232.431 73.7001C232.431 73.7654 232.397 73.9254 232.335 74.1801L223.121 104.364C222.928 105.037 222.448 105.557 221.68 105.923C220.913 106.289 220.051 106.476 219.088 106.476C216.881 106.476 215.537 105.772 215.057 104.364L205.797 74.1801C205.733 73.9254 205.701 73.7654 205.701 73.7001Z" fill="#00AFED"/>
<path d="M269.332 104.221V73.0768C269.332 72.4702 269.602 71.9902 270.145 71.6382C270.69 71.2862 271.33 71.1088 272.066 71.1088H289.15C289.788 71.1088 290.277 71.3822 290.612 71.9248C290.948 72.4702 291.116 73.0928 291.116 73.7982C291.116 74.5635 290.94 75.2222 290.589 75.7648C290.237 76.3088 289.754 76.5808 289.15 76.5808H275.569V86.1782H282.862C283.469 86.1782 283.949 86.4262 284.304 86.9208C284.654 87.4182 284.83 88.0008 284.83 88.6715C284.83 89.2822 284.662 89.8315 284.326 90.3288C283.989 90.8235 283.502 91.0728 282.862 91.0728H275.569V100.718H289.15C289.754 100.718 290.237 100.989 290.589 101.534C290.94 102.077 291.116 102.731 291.116 103.499C291.116 104.206 290.948 104.829 290.612 105.371C290.277 105.915 289.788 106.188 289.15 106.188H272.066C271.33 106.188 270.69 106.011 270.145 105.659C269.602 105.307 269.332 104.829 269.332 104.221Z" fill="#00AFED"/>
<path d="M157.775 120H155.498V-3.57628e-06H157.775V120Z" fill="#00AFED"/>
<path d="M104.197 73.1904C103.746 73.1904 103.31 72.9558 103.071 72.5358C97.4047 62.5638 87.526 54.6371 76.6447 51.3344C75.962 51.1278 75.5753 50.4051 75.7833 49.7224C75.9913 49.0384 76.7167 48.6544 77.3953 48.8598C88.8953 52.3504 99.334 60.7251 105.319 71.2584C105.673 71.8798 105.455 72.6691 104.834 73.0211C104.633 73.1358 104.413 73.1904 104.197 73.1904Z" fill="#00AFED"/>
<path d="M61.0323 74.3042C55.335 74.3042 51.1296 70.2922 49.463 66.0535C47.6496 61.4429 48.1123 54.5002 55.387 50.1042C59.211 47.7935 64.1776 46.8349 69.747 47.3389C70.459 47.4029 70.983 48.0322 70.919 48.7429C70.855 49.4535 70.2416 49.9829 69.515 49.9149C64.5003 49.4589 60.075 50.2935 56.7243 52.3175C50.835 55.8762 50.355 61.2575 51.8683 65.1055C53.4003 68.9975 57.583 72.6495 63.1456 71.4935C64.915 71.1242 66.9603 70.8882 69.0643 70.8149C69.799 70.7522 70.3776 71.3469 70.403 72.0589C70.4283 72.7722 69.871 73.3722 69.1563 73.3975C67.1976 73.4682 65.3016 73.6855 63.675 74.0242C62.763 74.2149 61.8803 74.3042 61.0323 74.3042Z" fill="#00AFED"/>
<path d="M94.0484 85.1892C93.5311 85.1892 93.0431 84.8772 92.8444 84.3665C92.6391 83.8439 92.4031 83.3385 92.1417 82.8639C88.8377 76.8425 81.8177 74.6172 76.5124 73.8119C75.8057 73.7052 75.3204 73.0452 75.4271 72.3399C75.5337 71.6319 76.1964 71.1492 76.899 71.2559C82.7831 72.1492 90.5964 74.6719 94.4084 81.6185C94.7231 82.1905 95.0057 82.7985 95.2511 83.4252C95.5124 84.0892 95.1844 84.8399 94.5191 85.0999C94.3644 85.1612 94.2044 85.1892 94.0484 85.1892Z" fill="#00AFED"/>
<path d="M86.4299 107.765C86.0433 107.765 85.6619 107.591 85.4059 107.263C84.9699 106.698 85.0726 105.886 85.6379 105.449C90.6059 101.606 93.5153 96.4406 93.8313 90.9033C93.8726 90.19 94.4753 89.6553 95.1966 89.686C95.9086 89.7273 96.4539 90.338 96.4139 91.05C96.0539 97.346 92.7899 103.186 87.2206 107.494C86.9846 107.677 86.7059 107.765 86.4299 107.765Z" fill="#00AFED"/>
<path d="M57.4431 115.641C55.9138 115.641 54.3671 115.582 52.8471 115.465C52.1351 115.412 51.6018 114.79 51.6564 114.078C51.7111 113.366 52.3218 112.83 53.0444 112.888C54.4991 112.998 55.9791 113.056 57.4431 113.056C65.6911 113.056 72.7964 111.849 78.5618 109.472C79.2231 109.202 79.9791 109.513 80.2498 110.176C80.5231 110.834 80.2084 111.59 79.5484 111.864C73.4684 114.369 66.0311 115.641 57.4431 115.641Z" fill="#00AFED"/>
<path d="M45.2368 114.356C45.1475 114.356 45.0568 114.346 44.9648 114.326C31.7622 111.501 19.9488 104.182 11.7008 93.7224C11.2582 93.161 11.3555 92.3477 11.9155 91.9064C12.4768 91.465 13.2888 91.561 13.7315 92.121C21.6075 102.109 32.8928 109.098 45.5062 111.798C46.2048 111.948 46.6488 112.634 46.4995 113.333C46.3702 113.94 45.8328 114.356 45.2368 114.356Z" fill="#00AFED"/>
<path d="M7.8841 86.957C7.42944 86.957 6.98944 86.717 6.7521 86.2917C2.6681 78.933 0.397437 70.9557 0.00143692 62.581C-0.0318964 61.8677 0.518771 61.2624 1.23077 61.229C1.9201 61.177 2.55077 61.745 2.5841 62.4597C2.9601 70.433 5.12277 78.029 9.01344 85.037C9.3601 85.661 9.13477 86.4477 8.51077 86.7944C8.3121 86.905 8.0961 86.957 7.8841 86.957Z" fill="#00AFED"/>
<path d="M1.52507 55.7363C1.47973 55.7363 1.4344 55.7337 1.38907 55.7283C0.678399 55.6537 0.163733 55.0177 0.238399 54.3083C1.45307 42.747 6.3024 32.0097 14.2611 23.2563C14.7411 22.7283 15.5611 22.6897 16.0877 23.1697C16.6171 23.651 16.6544 24.4683 16.1744 24.9963C8.58773 33.339 3.9664 43.567 2.8104 54.579C2.73973 55.243 2.1784 55.7363 1.52507 55.7363Z" fill="#00AFED"/>
<path d="M21.3678 19.6152C20.9918 19.6152 20.6185 19.4512 20.3625 19.1366C19.9131 18.5806 19.9985 17.7672 20.5531 17.3166C30.8691 8.9619 43.9705 4.36057 57.4438 4.36057C61.2958 4.36057 65.1451 4.7299 68.8825 5.4619C69.5825 5.59924 70.0398 6.27657 69.9025 6.9779C69.7665 7.6779 69.0878 8.13524 68.3865 7.99924C64.8118 7.30057 61.1305 6.9459 57.4438 6.9459C44.5611 6.9459 32.0371 11.3419 22.1811 19.3272C21.9411 19.5206 21.6531 19.6152 21.3678 19.6152Z" fill="#00AFED"/>
<path d="M102.36 28.6125C101.976 28.6125 101.595 28.4419 101.34 28.1152C94.8616 19.8032 86.1056 13.5592 76.0203 10.0565C75.3456 9.82322 74.9883 9.08588 75.2229 8.41121C75.4576 7.73788 76.1923 7.37921 76.8683 7.61521C87.4256 11.2805 96.5936 17.8192 103.379 26.5245C103.819 27.0872 103.718 27.9005 103.155 28.3392C102.919 28.5232 102.639 28.6125 102.36 28.6125Z" fill="#00AFED"/>
<path d="M105.311 63.707C104.84 63.707 104.386 63.4497 104.156 63.0017C104.122 62.9324 100.544 56.055 91.6723 50.2324C91.0763 49.8404 90.9096 49.039 91.3016 48.4417C91.6936 47.847 92.4963 47.6777 93.0923 48.071C102.575 54.295 106.31 61.527 106.463 61.831C106.786 62.467 106.531 63.243 105.895 63.567C105.707 63.663 105.508 63.707 105.311 63.707Z" fill="#00AFED"/>
<path d="M86.1824 47.0103C86.0011 47.0103 85.8157 46.9729 85.6411 46.8916C84.0224 46.1436 82.3291 45.4716 80.6064 44.8943C71.3944 41.8049 61.8757 41.7716 54.4931 44.8076C53.8331 45.0769 53.0771 44.7623 52.8051 44.1023C52.5344 43.4423 52.8491 42.6876 53.5104 42.4156C61.4611 39.1489 71.6371 39.1583 81.4277 42.4423C83.2397 43.0489 85.0224 43.7569 86.7251 44.5436C87.3731 44.8436 87.6571 45.6116 87.3571 46.2596C87.1384 46.7329 86.6704 47.0103 86.1824 47.0103Z" fill="#00AFED"/>
<path d="M48.9912 79.3242C48.7339 79.3242 48.4739 79.2469 48.2485 79.0882C40.9872 73.9749 38.2539 64.4642 41.2832 54.8629C42.2739 51.7229 44.0592 48.9736 46.5899 46.6882C47.1219 46.2096 47.9379 46.2522 48.4165 46.7816C48.8952 47.3109 48.8525 48.1282 48.3232 48.6069C46.1379 50.5802 44.5992 52.9469 43.7499 55.6402C41.0645 64.1469 43.4152 72.5216 49.7365 76.9749C50.3205 77.3842 50.4605 78.1922 50.0499 78.7762C49.7979 79.1336 49.3979 79.3242 48.9912 79.3242Z" fill="#00AFED"/>
<path d="M60.4988 82.7258C58.9161 82.7258 57.3854 82.5845 55.9228 82.3005C55.2228 82.1658 54.7641 81.4858 54.9001 80.7845C55.0348 80.0845 55.7134 79.6232 56.4161 79.7618C58.5454 80.1738 60.8508 80.2512 63.2694 79.9858C64.3561 79.8672 65.4548 79.7232 66.5521 79.5792C70.9974 78.9978 75.5908 78.3952 79.5308 79.4458C80.2201 79.6285 80.6308 80.3365 80.4468 81.0272C80.2628 81.7165 79.5574 82.1338 78.8654 81.9432C75.4174 81.0258 71.0828 81.5938 66.8881 82.1432C65.7721 82.2885 64.6561 82.4352 63.5508 82.5565C62.5161 82.6698 61.4974 82.7258 60.4988 82.7258Z" fill="#00AFED"/>
<path d="M75.4357 105.503C74.9157 105.503 74.4237 105.186 74.2277 104.671C73.973 104.005 74.3077 103.257 74.9743 103.002C81.6983 100.435 84.185 96.6261 85.085 93.8821C86.1823 90.5381 85.3957 87.5221 84.3877 85.9568C84.001 85.3568 84.1743 84.5568 84.7757 84.1701C85.3757 83.7848 86.1757 83.9581 86.5623 84.5581C87.9397 86.6994 88.921 90.4861 87.541 94.6874C86.4663 97.9661 83.5717 102.489 75.897 105.419C75.745 105.477 75.589 105.503 75.4357 105.503Z" fill="#00AFED"/>
<path d="M56.7241 108.314C46.9307 108.314 37.4787 105.526 29.3894 100.254C28.7907 99.8633 28.6214 99.0633 29.0121 98.4646C29.4014 97.8673 30.2041 97.7006 30.8001 98.0873C38.4694 103.086 47.4334 105.729 56.7241 105.729C60.8787 105.729 64.6787 105.434 68.0201 104.853C68.7307 104.737 69.3921 105.203 69.5147 105.906C69.6374 106.61 69.1654 107.279 68.4627 107.401C64.9747 108.007 61.0267 108.314 56.7241 108.314Z" fill="#00AFED"/>
<path d="M24.393 96.1035C24.0864 96.1035 23.7797 95.9955 23.533 95.7755C15.901 88.9688 10.7797 80.1968 8.72235 70.4102C8.57435 69.7115 9.02236 69.0248 9.72102 68.8795C10.4157 68.7328 11.105 69.1782 11.2517 69.8782C13.1957 79.1195 18.037 87.4075 25.2544 93.8462C25.7864 94.3208 25.833 95.1382 25.3584 95.6715C25.1037 95.9568 24.749 96.1035 24.393 96.1035Z" fill="#00AFED"/>
<path d="M9.06215 63.9216C8.37015 63.9216 7.79682 63.375 7.77015 62.6763C7.74882 62.091 7.73682 61.5003 7.73682 60.9083C7.73682 54.2443 9.13548 47.7563 11.8928 41.627C12.1861 40.975 12.9501 40.687 13.6021 40.9776C14.2528 41.2696 14.5435 42.035 14.2515 42.687C11.6448 48.4816 10.3235 54.611 10.3235 60.9083C10.3235 61.467 10.3341 62.0256 10.3555 62.5803C10.3821 63.2936 9.82482 63.8936 9.11148 63.9203C9.09548 63.9216 9.07815 63.9216 9.06215 63.9216Z" fill="#00AFED"/>
<path d="M17.252 36.0317C17 36.0317 16.744 35.9571 16.52 35.8037C15.932 35.3984 15.784 34.5931 16.188 34.0051C25.084 21.0931 39.6974 13.1144 55.28 12.6597C56.0227 12.6517 56.5894 13.2011 56.6094 13.9144C56.6307 14.6291 56.0694 15.2237 55.3547 15.2451C40.5934 15.6744 26.7467 23.2357 18.3187 35.4717C18.0667 35.8357 17.6627 36.0317 17.252 36.0317Z" fill="#00AFED"/>
<path d="M78.4108 19.0015C78.2375 19.0015 78.0615 18.9668 77.8935 18.8935C73.4735 16.9601 68.6921 15.8601 62.8455 15.4321C62.1335 15.3801 61.5975 14.7601 61.6495 14.0481C61.7015 13.3361 62.3068 12.7908 63.0335 12.8535C69.1828 13.3028 74.2335 14.4695 78.9295 16.5241C79.5841 16.8108 79.8828 17.5721 79.5961 18.2268C79.3841 18.7121 78.9095 19.0015 78.4108 19.0015Z" fill="#00AFED"/>
<path d="M92.4051 28.5532C92.0931 28.5532 91.7798 28.4412 91.5318 28.2119C88.8478 25.7492 86.3344 23.7586 83.8438 22.1319C83.2464 21.7412 83.0784 20.9399 83.4691 20.3426C83.8598 19.7452 84.6611 19.5772 85.2584 19.9679C87.8691 21.6732 90.4918 23.7479 93.2798 26.3079C93.8064 26.7906 93.8411 27.6092 93.3571 28.1359C93.1038 28.4132 92.7544 28.5532 92.4051 28.5532Z" fill="#00AFED"/>
<path d="M95.6785 42.2878C95.4078 42.2878 95.1345 42.2038 94.9012 42.0265C92.6678 40.3438 90.2758 38.7865 87.7892 37.4025C87.1652 37.0558 86.9412 36.2678 87.2878 35.6438C87.6358 35.0185 88.4252 34.7998 89.0465 35.1425C91.6372 36.5865 94.1305 38.2065 96.4585 39.9638C97.0278 40.3932 97.1425 41.2038 96.7118 41.7745C96.4572 42.1105 96.0705 42.2878 95.6785 42.2878Z" fill="#00AFED"/>
<path d="M81.3768 34.2046C81.2168 34.2046 81.0542 34.1739 80.8955 34.1113C74.2355 31.4339 67.5222 30.1299 60.9328 30.2139C60.2408 30.1806 59.6315 29.6526 59.6222 28.9379C59.6128 28.2233 60.1835 27.6379 60.8969 27.6273C67.8182 27.5419 74.8795 28.9086 81.8595 31.7126C82.5222 31.9793 82.8435 32.7313 82.5768 33.3939C82.3742 33.8979 81.8888 34.2046 81.3768 34.2046Z" fill="#00AFED"/>
<path d="M41.2609 87.7019C41.0369 87.7019 40.8102 87.6432 40.6035 87.5219C30.4809 81.5246 24.6755 71.2752 24.6755 59.3992C24.6755 43.8326 35.5835 31.6952 52.4635 28.4766C53.1715 28.3499 53.8435 28.8019 53.9769 29.5046C54.1102 30.2059 53.6502 30.8832 52.9489 31.0166C37.1035 34.0366 27.2609 44.9126 27.2609 59.3992C27.2609 70.3379 32.6049 79.7779 41.9209 85.2966C42.5355 85.6606 42.7382 86.4526 42.3742 87.0686C42.1329 87.4752 41.7022 87.7019 41.2609 87.7019Z" fill="#00AFED"/>
<path d="M58.5075 92.3684C54.8648 92.3684 51.2768 91.8217 47.8395 90.7417C47.1582 90.5284 46.7795 89.8031 46.9928 89.1204C47.2075 88.4391 47.9328 88.0591 48.6142 88.2751C51.7995 89.2751 55.1288 89.7831 58.5075 89.7831C64.6288 89.7831 67.5582 87.8711 67.5862 87.8511C68.1795 87.4564 68.9795 87.6097 69.3782 88.1951C69.7782 88.7844 69.6328 89.5804 69.0488 89.9844C68.9075 90.0817 65.5155 92.3684 58.5075 92.3684Z" fill="#00AFED"/>
<path d="M72.6634 25.4966C72.5221 25.4966 72.3781 25.4739 72.2367 25.4246C65.2994 22.9979 57.1247 22.2952 49.7421 23.7099C49.0447 23.8406 48.3647 23.3846 48.2287 22.6832C48.0941 21.9819 48.5541 21.3046 49.2554 21.1699C57.0807 19.6699 65.7301 20.4099 73.0901 22.9832C73.7647 23.2192 74.1194 23.9566 73.8834 24.6299C73.6981 25.1632 73.1981 25.4966 72.6634 25.4966Z" fill="#00AFED"/>
<path d="M29.7609 33.8374C29.4209 33.8374 29.0809 33.7041 28.8262 33.4387C28.3329 32.9214 28.3515 32.1041 28.8675 31.6107C32.5649 28.0747 36.8649 25.3107 41.6475 23.3947C42.3142 23.1294 43.0635 23.4521 43.3289 24.1134C43.5942 24.7774 43.2715 25.5294 42.6089 25.7961C38.1342 27.5881 34.1129 30.1734 30.6542 33.4787C30.4035 33.7187 30.0822 33.8374 29.7609 33.8374Z" fill="#00AFED"/>
<path d="M19.013 52.2056C18.9063 52.2056 18.797 52.1936 18.6877 52.1642C17.997 51.9842 17.5823 51.2802 17.761 50.5882C18.9703 45.9202 20.969 41.5642 23.7037 37.6402C24.1103 37.0522 24.9157 36.9109 25.5037 37.3176C26.089 37.7256 26.233 38.5309 25.825 39.1176C23.2677 42.7909 21.3957 46.8669 20.2637 51.2376C20.113 51.8189 19.5877 52.2056 19.013 52.2056Z" fill="#00AFED"/>
<path d="M54.4583 100.073C54.4356 100.073 54.413 100.073 54.389 100.071C33.4583 98.9794 16.429 81.5061 16.429 61.1221C16.429 60.3754 16.449 59.6354 16.4863 58.8994C16.5236 58.1848 17.105 57.6221 17.845 57.6741C18.5583 57.7114 19.1063 58.3208 19.069 59.0328C19.033 59.7261 19.0143 60.4221 19.0143 61.1221C19.0143 80.1541 34.945 96.4661 54.525 97.4888C55.237 97.5261 55.785 98.1341 55.7476 98.8474C55.7116 99.5381 55.141 100.073 54.4583 100.073Z" fill="#00AFED"/>
<path d="M62.1993 99.8115C61.55 99.8115 60.99 99.3222 60.9167 98.6622C60.8367 97.9529 61.3487 97.3129 62.058 97.2329C67.6447 96.6089 72.6633 95.0635 76.5727 92.7635C77.1873 92.4022 77.9807 92.6062 78.342 93.2222C78.7047 93.8369 78.4993 94.6302 77.8847 94.9902C73.6633 97.4755 68.2913 99.1395 62.3447 99.8035C62.2953 99.8089 62.2473 99.8115 62.1993 99.8115Z" fill="#00AFED"/>
<path d="M35.1733 52.6768C35.0106 52.6768 34.8453 52.6461 34.6853 52.5808C34.0239 52.3101 33.7066 51.5568 33.9773 50.8954C37.6853 41.8061 48.2119 32.7101 66.6506 34.4074C67.3613 34.4754 67.8839 35.1034 67.8186 35.8141C67.7533 36.5248 67.1186 37.0474 66.4119 36.9834C49.3879 35.4034 39.7306 43.6421 36.3706 51.8728C36.1666 52.3741 35.6839 52.6768 35.1733 52.6768Z" fill="#00AFED"/>
<path d="M36.5903 72.3545C36.1409 72.3545 35.7049 72.1212 35.4663 71.7025C33.3636 68.0252 32.2529 63.8438 32.2529 59.6145C32.2529 58.8998 32.8316 58.3212 33.5449 58.3212C34.2596 58.3212 34.8383 58.8998 34.8383 59.6145C34.8383 63.3945 35.8316 67.1318 37.7116 70.4198C38.0663 71.0398 37.8503 71.8292 37.2303 72.1838C37.0289 72.2998 36.8076 72.3545 36.5903 72.3545Z" fill="#00AFED"/>
<path d="M62.4559 66.4746C61.5839 66.4746 60.7666 66.2999 60.0346 65.9493C58.6999 65.3079 57.7466 64.1133 57.4199 62.6706C56.9666 60.6546 57.7013 57.6639 61.2706 55.8733C61.8586 55.5773 62.5213 55.3106 63.2399 55.0826C67.2053 53.8213 72.5906 53.7733 75.4932 54.9706C76.1532 55.2439 76.4679 55.9999 76.1946 56.6599C75.9226 57.3213 75.1679 57.6319 74.5066 57.3626C72.4253 56.5013 67.7172 56.3706 64.0226 57.5479C63.4346 57.7346 62.8999 57.9479 62.4319 58.1839C60.1946 59.3053 59.6946 60.9946 59.9439 62.1013C60.0959 62.7773 60.5266 63.3173 61.1533 63.6173C62.1493 64.0973 63.5506 63.9439 65.0933 63.1933C67.2466 62.1426 70.1026 61.5826 73.4239 61.6093C76.6679 61.6253 80.0732 62.1813 83.2692 63.2199C83.9479 63.4399 84.3199 64.1693 84.0986 64.8479C83.8786 65.5279 83.1533 65.8986 82.4693 65.6786C79.5253 64.7226 76.3919 64.2093 73.4119 64.1959C70.4852 64.1799 67.9999 64.6533 66.2266 65.5173C64.9213 66.1533 63.6386 66.4746 62.4559 66.4746Z" fill="#00AFED"/>
<path d="M92.3806 71.2512C92.0513 71.2512 91.7219 71.1259 91.4699 70.8752C90.4033 69.8152 89.1246 68.8446 87.6713 67.9899C87.0553 67.6272 86.8499 66.8339 87.2126 66.2192C87.5739 65.6032 88.3673 65.3979 88.9819 65.7606C90.6219 66.7246 92.0713 67.8286 93.2926 69.0419C93.7979 69.5446 93.8006 70.3632 93.2979 70.8699C93.0459 71.1232 92.7126 71.2512 92.3806 71.2512Z" fill="#00AFED"/>
<path d="M356.739 73.1815C358.537 72.1362 359.959 70.6615 361.006 68.7575C362.051 66.8548 362.575 64.6482 362.575 62.1375C362.575 59.6695 362.051 57.4855 361.006 55.5815C359.959 53.6775 358.537 52.2148 356.739 51.1895C354.941 50.1642 352.911 49.6508 350.653 49.6508C348.351 49.6508 346.291 50.1748 344.473 51.2202C342.653 52.2655 341.23 53.7295 340.205 55.6122C339.179 57.4948 338.667 59.6695 338.667 62.1375C338.667 64.6068 339.179 66.7922 340.205 68.6948C341.23 70.5988 342.653 72.0828 344.473 73.1495C346.291 74.2162 348.351 74.7495 350.653 74.7495C352.911 74.7495 354.941 74.2282 356.739 73.1815M366.119 37.2588C370.533 39.5802 373.973 42.8442 376.442 47.0468C378.909 51.2508 380.143 56.0522 380.143 61.4468C380.143 66.7602 379.223 70.9122 377.383 73.9028C375.541 76.8948 372.99 78.3895 369.727 78.3895C367.678 78.3895 366.014 77.7842 364.739 76.5708C363.463 75.3575 362.762 73.6842 362.637 71.5495C361.382 73.7255 359.666 75.4095 357.493 76.6015C355.317 77.7935 352.849 78.3895 350.089 78.3895C347.159 78.3895 344.513 77.6895 342.15 76.2868C339.786 74.8868 337.925 72.9522 336.566 70.4828C335.206 68.0148 334.526 65.2335 334.526 62.1375C334.526 59.0428 335.206 56.2708 336.566 53.8242C337.925 51.3762 339.786 49.4628 342.15 48.0828C344.513 46.7028 347.159 46.0122 350.089 46.0122C352.765 46.0122 355.181 46.5868 357.335 47.7375C359.49 48.8882 361.215 50.5095 362.511 52.6002V46.2628H366.59V70.0442C366.59 71.7175 366.945 72.9308 367.657 73.6842C368.367 74.4362 369.309 74.8135 370.481 74.8135C372.446 74.8135 374.005 73.6428 375.155 71.2988C376.305 68.9562 376.881 65.6935 376.881 61.5108C376.881 56.6575 375.793 52.3802 373.618 48.6788C371.442 44.9762 368.399 42.1015 364.487 40.0508C360.577 38.0015 356.111 36.9762 351.091 36.9762C346.03 36.9762 341.543 38.0335 337.633 40.1455C333.721 42.2575 330.678 45.2268 328.502 49.0548C326.327 52.8828 325.241 57.2442 325.241 62.1375C325.241 67.0322 326.317 71.4042 328.471 75.2522C330.626 79.1002 333.637 82.0922 337.507 84.2255C341.375 86.3575 345.821 87.4255 350.841 87.4255C352.806 87.4255 354.867 87.1948 357.022 86.7348C359.175 86.2735 361.131 85.5842 362.889 84.6642L363.955 87.7388C362.157 88.6588 360.075 89.3695 357.711 89.8722C355.347 90.3748 353.058 90.6255 350.841 90.6255C345.151 90.6255 340.111 89.4108 335.719 86.9855C331.326 84.5588 327.907 81.1815 325.459 76.8522C323.013 72.5228 321.789 67.6188 321.789 62.1375C321.789 56.6162 323.022 51.7122 325.491 47.4228C327.958 43.1362 331.421 39.7908 335.875 37.3842C340.33 34.9788 345.402 33.7762 351.091 33.7762C356.697 33.7762 361.706 34.9375 366.119 37.2588" fill="#00AFED"/>
</svg>
