<svg width="520" height="125" viewBox="0 0 520 125" fill="none" xmlns="http://www.w3.org/2000/svg">
<path d="M142.833 43.6486H193.644V59.8286H160.337V69.0953H191.365V85.1713H160.337V97.6633H195.145V113.935H142.833V43.6486Z" fill="#00AFED"/>
<path d="M202.874 43.6486H219.297L240.138 79.4833V43.6486H257.265V113.935H240.138L219.433 78.306V113.935H202.874V43.6486Z" fill="#00AFED"/>
<path d="M267.085 43.6486H317.895V59.8286H284.599V69.0953H315.625V85.1713H284.599V97.6633H319.408V113.935H267.085V43.6486Z" fill="#00AFED"/>
<path d="M452.295 43.6486H473.256L486.236 66.6326L498.919 43.6486H519.404L494.627 84.4886V113.935H476.996V84.4886L452.295 43.6486Z" fill="#00AFED"/>
<path d="M420.136 73.5682V89.9588H434.395V94.2468C434.395 94.2468 428.473 98.5428 422.153 98.5428C415.849 98.5428 407.149 93.8748 407.149 77.7308C407.149 61.5842 416.619 58.6842 422.528 58.6842C433.504 58.6842 434.647 69.6522 434.647 69.6522L451.932 65.8762C451.932 65.8762 450.671 42.4095 421.912 42.4095C393.148 42.4095 389.243 69.1588 389.243 78.3615C389.243 87.5668 393.148 114.815 423.296 114.815C441.7 114.815 452.184 103.207 452.184 103.207V73.5682H420.136Z" fill="#00AFED"/>
<path d="M380.15 97.8183C374.902 89.3543 373.243 87.2289 371.595 85.4356C370.628 84.3796 369.648 83.6236 369.648 83.6236C369.648 83.6236 382.524 80.0356 382.524 64.9969C382.524 49.9543 373.431 43.4236 358.486 43.4236H326.807V113.806H344.49V86.5636C344.49 86.5636 347.135 86.6583 348.179 86.7516C349.228 86.8449 351.684 87.3169 354.059 91.0049C356.41 94.6996 368.623 113.713 368.623 113.713H389.612C389.612 113.713 384.055 104.098 380.15 97.8183ZM356.175 71.0436H344.638V59.8343H356.504C360.244 59.8343 364.6 59.8343 364.6 65.1369C364.6 71.0436 359.254 71.0436 356.175 71.0436Z" fill="#00AFED"/>
<path d="M142.833 10.8242H146.906V21.2669C146.906 22.9162 146.949 23.9922 147.054 24.4789C147.232 25.2736 147.642 25.9069 148.304 26.3816C148.964 26.8629 149.857 27.1002 151.012 27.1002C152.177 27.1002 153.049 26.8749 153.637 26.4229C154.225 25.9722 154.572 25.4202 154.698 24.7642C154.814 24.1069 154.888 23.0109 154.888 21.4856V10.8242H158.941V20.9469C158.941 23.2509 158.825 24.8842 158.605 25.8509C158.384 26.7896 157.985 27.5989 157.397 28.2549C156.797 28.9122 156.01 29.4429 155.024 29.8242C154.016 30.2082 152.724 30.4136 151.128 30.4136C149.196 30.4136 147.736 30.1922 146.74 29.7736C145.741 29.3456 144.964 28.7949 144.376 28.1176C143.798 27.4376 143.41 26.7282 143.232 25.9869C142.969 24.8776 142.833 23.2509 142.833 21.0936V10.8242Z" fill="#00AFED"/>
<path d="M165.293 26.3587H169.177V30.0493H165.293V26.3587Z" fill="#00AFED"/>
<path d="M174.239 23.8082L178.208 23.4295C178.449 24.6962 178.944 25.6282 179.657 26.2242C180.392 26.8215 181.391 27.1202 182.629 27.1202C183.94 27.1202 184.939 26.8535 185.611 26.3295C186.273 25.7922 186.608 25.1682 186.608 24.4709L186.177 23.3042C185.905 22.9909 185.423 22.7002 184.719 22.4682C184.236 22.3162 183.153 22.0282 181.453 21.6295C179.269 21.1109 177.747 20.4842 176.853 19.7242C175.615 18.6575 174.984 17.3682 174.984 15.8429C174.984 14.8615 175.289 13.9495 175.867 13.0989C176.455 12.2375 177.295 11.5869 178.387 11.1402C179.479 10.6922 180.812 10.4669 182.367 10.4669C184.907 10.4669 186.808 10.9975 188.099 12.0642C189.369 13.1402 190.043 14.5535 190.104 16.3322L186.041 16.4855C185.863 15.4855 185.484 14.7789 184.919 14.3362C184.341 13.9055 183.469 13.6855 182.324 13.6855C181.148 13.6855 180.213 13.9175 179.541 14.3829C179.111 14.6815 178.901 15.0842 178.901 15.5815L179.499 16.7522C180.013 17.1682 181.264 17.6015 183.248 18.0442C185.221 18.4909 186.692 18.9509 187.637 19.4282C188.583 19.9029 189.327 20.5575 189.875 21.3869C190.399 22.2135 190.672 23.2309 190.672 24.4535C190.672 25.5549 190.347 26.5895 189.716 27.5575C189.065 28.5162 188.152 29.2375 186.976 29.7029C185.8 30.1762 184.341 30.4069 182.576 30.4069C180.024 30.4069 178.061 29.8415 176.685 28.7189C175.32 27.5922 174.501 25.9602 174.239 23.8082Z" fill="#00AFED"/>
<path d="M196.194 26.3587H200.07V30.0493H196.194V26.3587Z" fill="#00AFED"/>
<path d="M216.135 10.8243H223.59C225.282 10.8243 226.563 10.9509 227.434 11.1909C228.62 11.5283 229.639 12.1163 230.49 12.9736C231.319 13.8176 231.97 14.8456 232.411 16.0803C232.852 17.3083 233.082 18.8243 233.082 20.6216C233.082 22.2016 232.863 23.5683 232.454 24.7163C231.95 26.1176 231.224 27.2523 230.29 28.1176C229.576 28.7656 228.631 29.2896 227.412 29.6563C226.52 29.9203 225.323 30.0549 223.811 30.0549H216.135V10.8243ZM220.199 14.0963V26.7896H223.255C224.41 26.7896 225.228 26.7283 225.723 26.6109C226.394 26.4549 226.94 26.1856 227.382 25.8069C227.811 25.4349 228.17 24.8229 228.442 23.9603C228.724 23.0989 228.863 21.9349 228.863 20.4429C228.863 18.9683 228.724 17.8216 228.442 17.0309C228.17 16.2416 227.791 15.6229 227.298 15.1723C226.792 14.7323 226.163 14.4363 225.398 14.2803C224.83 14.1549 223.706 14.0963 222.036 14.0963H220.199Z" fill="#00AFED"/>
<path d="M238.627 30.0496V10.8242H253.622V14.0896H242.701V18.3469H252.866V21.6189H242.701V26.7896H253.999V30.0496H238.627Z" fill="#00AFED"/>
<path d="M259.554 30.0553V10.8246H266.094C268.574 10.8246 270.193 10.9246 270.949 11.118C272.093 11.402 273.066 12.026 273.857 12.994C274.632 13.958 275.018 15.21 275.018 16.7406C275.018 17.9193 274.801 18.9206 274.35 19.7126C273.898 20.522 273.318 21.158 272.626 21.6126C271.934 22.07 271.23 22.366 270.504 22.522C269.542 22.7006 268.124 22.794 266.282 22.794H263.621V30.0553H259.554ZM263.621 14.0953V19.5286H265.866C267.461 19.5286 268.545 19.434 269.078 19.226C269.613 19.03 270.046 18.7166 270.352 18.2966C270.65 17.866 270.809 17.3673 270.809 16.7926C270.809 16.1006 270.604 15.518 270.158 15.066C269.729 14.6206 269.185 14.33 268.522 14.222C268.041 14.1313 267.062 14.0953 265.59 14.0953H263.621Z" fill="#00AFED"/>
<path d="M296.6 30.0496H292.156L290.403 25.6789H282.33L280.671 30.0496H276.343L284.188 10.8189H288.515L296.6 30.0496ZM289.102 22.4122L286.299 15.3242L283.59 22.4122H289.102Z" fill="#00AFED"/>
<path d="M300.875 30.0496V10.8189H309.471C311.628 10.8189 313.187 10.9882 314.189 11.3429C315.152 11.6869 315.943 12.3042 316.529 13.1869C317.116 14.0749 317.409 15.0776 317.409 16.2149C317.409 17.6669 316.969 18.8576 316.077 19.8042C315.187 20.7416 313.861 21.3256 312.085 21.5722C312.959 22.0696 313.692 22.6002 314.26 23.1896C314.829 23.7669 315.603 24.8056 316.571 26.3082L319.039 30.0496H314.167L311.235 25.8549C310.185 24.3709 309.464 23.4296 309.083 23.0429L307.835 22.2482C307.412 22.1082 306.72 22.0376 305.776 22.0376H304.949V30.0496H300.875ZM304.949 18.9629H307.969C309.933 18.9629 311.153 18.8829 311.645 18.7216C312.137 18.5696 312.507 18.3002 312.783 17.9122C313.076 17.5229 313.199 17.0429 313.199 16.4736C313.199 15.8229 313.012 15.3042 312.653 14.9082C312.284 14.5096 311.78 14.2576 311.124 14.1549C310.777 14.1109 309.787 14.0896 308.139 14.0896H304.949V18.9629Z" fill="#00AFED"/>
<path d="M327.933 30.0496V14.0896H321.936V10.8242H337.96V14.0896H331.996V30.0496H327.933Z" fill="#00AFED"/>
<path d="M342.673 30.0496V10.8242H348.777L352.429 23.9456L356.041 10.8242H362.162V30.0496H358.374L358.362 14.9202L354.364 30.0496H350.448L346.466 14.9202L346.454 30.0496H342.673Z" fill="#00AFED"/>
<path d="M368.33 30.0496V10.8242H383.322V14.0896H372.399V18.3469H382.566V21.6189H372.399V26.7896H383.698V30.0496H368.33Z" fill="#00AFED"/>
<path d="M389.308 30.0496V10.8242H393.265L401.538 23.6669V10.8242H405.32V30.0496H401.233L393.089 17.4936V30.0496H389.308Z" fill="#00AFED"/>
<path d="M416.313 30.0496V14.0896H410.339V10.8242H426.34V14.0896H420.388V30.0496H416.313Z" fill="#00AFED"/>
<path d="M440.223 20.557C440.223 18.5904 440.528 16.9424 441.138 15.6117C441.6 14.6264 442.228 13.7437 443.026 12.9664C443.823 12.185 444.684 11.6064 445.628 11.2224C446.878 10.7184 448.338 10.4664 449.984 10.4664C452.952 10.4664 455.344 11.3544 457.12 13.1197C458.903 14.873 459.806 17.317 459.806 20.4637C459.806 23.5704 458.915 26.0037 457.15 27.7717C455.362 29.525 452.999 30.4064 450.032 30.4064C447.036 30.4064 444.655 29.525 442.867 27.777C441.102 26.0304 440.223 23.629 440.223 20.557ZM444.432 20.4224C444.432 22.6117 444.948 24.2717 446.01 25.4024C447.071 26.529 448.402 27.0944 450.032 27.0944C451.656 27.0944 452.982 26.537 454.031 25.4144C455.068 24.2984 455.596 22.6144 455.596 20.369C455.596 18.153 455.08 16.505 454.06 15.4117C453.051 14.3277 451.708 13.785 450.032 13.785C448.36 13.785 447.007 14.3277 445.968 15.4357C444.936 16.541 444.432 18.197 444.432 20.4224Z" fill="#00AFED"/>
<path d="M465.1 30.0496V10.8242H478.99V14.0896H469.17V18.6109H477.636V21.8709H469.17V30.0496H465.1Z" fill="#00AFED"/>
<path fill-rule="evenodd" clip-rule="evenodd" d="M48.9806 78.1288C49.1552 78.1288 49.3286 78.1288 49.3286 78.3021C49.3286 78.4768 49.1552 78.4768 48.9806 78.4768C48.9806 78.4768 48.8059 78.4768 48.8059 78.3021C48.8059 78.1288 48.9806 78.1288 48.9806 78.1288Z" fill="#00AFED"/>
<path d="M48.9406 78.7225L48.5193 78.3025L48.9406 77.8825L49.782 78.3025L48.9406 78.7225Z" fill="#00AFED"/>
<path fill-rule="evenodd" clip-rule="evenodd" d="M50.374 82.9983V82.6503H49.678V82.3023H49.3286V81.2596L48.9806 80.5636L48.806 81.2596V82.3023H48.458V82.6503H47.9353V82.9983H50.374Z" fill="#00AFED"/>
<path d="M48.0163 82.9176H50.2936V82.731H49.6776C49.6323 82.731 49.5963 82.695 49.5963 82.651V82.383H49.3283C49.2843 82.383 49.2483 82.347 49.2483 82.303V81.279L49.0056 80.795L48.8843 81.279L48.887 82.303C48.887 82.347 48.851 82.383 48.8056 82.383H48.539V82.651C48.539 82.695 48.503 82.731 48.4576 82.731H48.0163V82.9176ZM50.3736 83.079H47.935C47.891 83.079 47.855 83.043 47.855 82.999V82.651C47.855 82.6056 47.891 82.5696 47.935 82.5696H48.3776V82.303C48.3776 82.2576 48.4136 82.2216 48.4576 82.2216H48.7256V81.259L48.9016 80.5443C48.911 80.511 48.9376 80.4883 48.9723 80.4843C49.003 80.4723 49.0376 80.4963 49.0523 80.527L49.4016 81.223C49.407 81.2336 49.4096 81.247 49.4096 81.259V82.2216H49.6776C49.7216 82.2216 49.7576 82.2576 49.7576 82.303V82.5696H50.3736C50.419 82.5696 50.455 82.6056 50.455 82.651V82.999C50.455 83.043 50.419 83.079 50.3736 83.079Z" fill="#00AFED"/>
<path fill-rule="evenodd" clip-rule="evenodd" d="M46.8907 82.6504V82.4771H47.2387V82.6504H47.5867V82.9984H46.7161V82.6504H46.8907Z" fill="#00AFED"/>
<path d="M47.7896 83.2007H46.5149V82.4487H46.6882V82.274H47.4416V82.4487H47.7896V83.2007Z" fill="#00AFED"/>
<path fill-rule="evenodd" clip-rule="evenodd" d="M65.5249 55.8688C65.5249 55.6954 65.6996 55.5208 65.8729 55.5208C66.0476 55.5208 66.2222 55.6954 66.2222 55.8688C66.2222 55.8688 66.0476 56.0421 65.8729 56.0421C65.6996 56.0421 65.5249 55.8688 65.5249 55.8688Z" fill="#00AFED"/>
<path d="M65.8664 55.8138L65.873 55.8164L65.8797 55.8138L65.873 55.8071L65.8664 55.8138ZM65.873 56.2684L65.1824 55.9244L65.873 55.2351L66.5637 55.9244L65.873 56.2684Z" fill="#00AFED"/>
<path fill-rule="evenodd" clip-rule="evenodd" d="M64.6544 54.4774C65.0024 54.4774 65.177 54.1294 65.177 53.7814C65.177 53.4348 65.0024 53.2601 64.6544 53.2601C64.3064 53.2601 63.957 53.4348 63.957 53.7814C63.957 54.1294 64.3064 54.4774 64.6544 54.4774Z" fill="#00AFED"/>
<path d="M64.654 53.4628C64.4834 53.4628 64.1594 53.5295 64.1594 53.7828C64.1594 54.0175 64.418 54.2748 64.654 54.2748C64.9074 54.2748 64.974 53.9522 64.974 53.7828C64.974 53.5468 64.89 53.4628 64.654 53.4628ZM64.654 54.6802C64.1927 54.6802 63.7554 54.2442 63.7554 53.7828C63.7554 53.3068 64.2074 53.0575 64.654 53.0575C65.114 53.0575 65.378 53.3228 65.378 53.7828C65.378 54.2282 65.13 54.6802 64.654 54.6802Z" fill="#00AFED"/>
<path fill-rule="evenodd" clip-rule="evenodd" d="M62.0417 54.3039C62.0417 54.1292 62.0417 54.1292 62.2164 54.1292C62.3897 54.1292 62.5644 54.1292 62.5644 54.3039C62.5644 54.4772 62.3897 54.6519 62.2164 54.6519C62.0417 54.6519 62.0417 54.4772 62.0417 54.3039Z" fill="#00AFED"/>
<path d="M62.1601 54.9918L61.7961 54.2652L62.1761 53.8825L62.9055 54.2492L62.1601 54.9918Z" fill="#00AFED"/>
<path fill-rule="evenodd" clip-rule="evenodd" d="M62.0417 50.4779C62.0417 50.3046 62.2164 50.1299 62.3897 50.1299C62.5644 50.1299 62.5644 50.3046 62.5644 50.4779C62.5644 50.6513 62.5644 50.8259 62.3897 50.8259C62.2164 50.8259 62.0417 50.6513 62.0417 50.4779Z" fill="#00AFED"/>
<path d="M62.3281 50.4781L62.3348 50.4848L62.3388 50.4781L62.3348 50.4715L62.3281 50.4781ZM62.4454 51.1675L61.7561 50.4781L62.4454 49.7888L62.7894 50.4781L62.4454 51.1675Z" fill="#00AFED"/>
<path fill-rule="evenodd" clip-rule="evenodd" d="M80.3276 71.6943L82.9396 71.5209V72.3903L80.3276 72.2156V71.6943Z" fill="#00AFED"/>
<path fill-rule="evenodd" clip-rule="evenodd" d="M80.3276 71.5204L82.9396 71.1724L82.7663 70.9991L80.3276 71.3471V71.5204Z" fill="#00AFED"/>
<path fill-rule="evenodd" clip-rule="evenodd" d="M80.3276 72.5639L82.9396 72.9119V72.7372L80.3276 72.3905V72.5639Z" fill="#00AFED"/>
<path fill-rule="evenodd" clip-rule="evenodd" d="M76.1478 71.3464L75.7998 70.6504L76.4958 70.4771V71.1731L76.1478 71.3464Z" fill="#00AFED"/>
<path fill-rule="evenodd" clip-rule="evenodd" d="M76.6705 72.5639L77.0185 73.0852L76.3225 73.2599V72.5639H76.6705Z" fill="#00AFED"/>
<path fill-rule="evenodd" clip-rule="evenodd" d="M77.0188 71.6942L77.7148 71.3462V72.0422H77.0188V71.6942Z" fill="#00AFED"/>
<path fill-rule="evenodd" clip-rule="evenodd" d="M75.7996 71.8682H74.929L75.1036 72.5642L75.7996 72.2162V71.8682Z" fill="#00AFED"/>
<path fill-rule="evenodd" clip-rule="evenodd" d="M76.6704 71.3464L76.8451 70.6504L77.5411 70.9984L77.0184 71.5198L76.6704 71.3464Z" fill="#00AFED"/>
<path fill-rule="evenodd" clip-rule="evenodd" d="M75.7995 71.6942L75.1035 71.5209L75.4515 70.8249L75.9728 71.5209L75.7995 71.6942Z" fill="#00AFED"/>
<path fill-rule="evenodd" clip-rule="evenodd" d="M77.0189 72.216L77.7149 72.3893L77.3669 73.0853L76.8442 72.564L77.0189 72.216Z" fill="#00AFED"/>
<path fill-rule="evenodd" clip-rule="evenodd" d="M76.1478 72.5639L75.9731 73.2599L75.2771 72.9119L75.7998 72.3906L76.1478 72.5639Z" fill="#00AFED"/>
<path fill-rule="evenodd" clip-rule="evenodd" d="M76.1478 72.0421C75.9731 71.8688 76.1478 71.6941 76.3225 71.6941C76.4958 71.5208 76.6705 71.6941 76.6705 71.8688C76.8451 72.0421 76.6705 72.2155 76.4958 72.2155C76.3225 72.3901 76.1478 72.2155 76.1478 72.0421Z" fill="#00AFED"/>
<path fill-rule="evenodd" clip-rule="evenodd" d="M78.0638 71.3464L78.9345 70.9984L78.7598 70.8251L77.8892 71.3464H78.0638Z" fill="#00AFED"/>
<path fill-rule="evenodd" clip-rule="evenodd" d="M76.1479 70.3032L75.4519 68.5646L75.9732 68.3899L76.1479 70.3032Z" fill="#00AFED"/>
<path fill-rule="evenodd" clip-rule="evenodd" d="M76.4967 69.2601H76.322V70.3041H76.4967V69.2601Z" fill="#00AFED"/>
<path fill-rule="evenodd" clip-rule="evenodd" d="M76.6704 70.3032L76.8451 68.3899L77.3677 68.5646L76.6704 70.3032Z" fill="#00AFED"/>
<path fill-rule="evenodd" clip-rule="evenodd" d="M77.5413 70.8247L78.4119 70.1287L78.2373 69.9554L77.5413 70.8247Z" fill="#00AFED"/>
<path fill-rule="evenodd" clip-rule="evenodd" d="M77.7153 70.9987L79.1087 69.608L79.4567 70.3027L77.89 71.1733L77.7153 70.9987Z" fill="#00AFED"/>
<path fill-rule="evenodd" clip-rule="evenodd" d="M77.0188 70.3032L77.5415 69.4339H77.3668L77.0188 70.3032Z" fill="#00AFED"/>
<path fill-rule="evenodd" clip-rule="evenodd" d="M77.1929 70.4769L78.0635 68.7383L78.5862 69.0863L77.3675 70.4769H77.1929Z" fill="#00AFED"/>
<path fill-rule="evenodd" clip-rule="evenodd" d="M75.7995 70.3032L75.4515 69.4339L75.2769 69.6072L75.7995 70.4766V70.3032Z" fill="#00AFED"/>
<path fill-rule="evenodd" clip-rule="evenodd" d="M74.7549 72.216L73.0135 72.912L72.8389 72.3893L74.7549 72.216Z" fill="#00AFED"/>
<path fill-rule="evenodd" clip-rule="evenodd" d="M74.7541 71.868H73.7087V72.0414H74.7541V71.868Z" fill="#00AFED"/>
<path fill-rule="evenodd" clip-rule="evenodd" d="M74.7549 71.6942L72.8389 71.5209L73.0135 70.9982L74.7549 71.6942Z" fill="#00AFED"/>
<path fill-rule="evenodd" clip-rule="evenodd" d="M75.2774 70.8247L74.5814 69.9554L74.4067 70.1287L75.2774 70.8247Z" fill="#00AFED"/>
<path fill-rule="evenodd" clip-rule="evenodd" d="M75.4516 70.6511L74.2329 69.2591L74.7542 68.9125L75.6262 70.4765L75.4516 70.6511Z" fill="#00AFED"/>
<path fill-rule="evenodd" clip-rule="evenodd" d="M74.9289 71.3464L74.0582 70.8251L73.8835 70.9984L74.7542 71.3464H74.9289Z" fill="#00AFED"/>
<path fill-rule="evenodd" clip-rule="evenodd" d="M74.9288 71.1727L73.1875 70.3034L73.7102 69.7821L74.9288 70.9981V71.1727Z" fill="#00AFED"/>
<path fill-rule="evenodd" clip-rule="evenodd" d="M74.9289 72.5639L73.8835 72.9119L74.0582 73.0852L74.9289 72.5639Z" fill="#00AFED"/>
<path fill-rule="evenodd" clip-rule="evenodd" d="M76.8448 73.6073L77.3675 75.346L76.6702 75.5206V73.6073H76.8448Z" fill="#00AFED"/>
<path fill-rule="evenodd" clip-rule="evenodd" d="M76.322 74.6508H76.4967V73.6067H76.322V74.6508Z" fill="#00AFED"/>
<path fill-rule="evenodd" clip-rule="evenodd" d="M76.1479 73.6073L75.9732 75.5206L75.4519 75.346L76.1479 73.6073Z" fill="#00AFED"/>
<path fill-rule="evenodd" clip-rule="evenodd" d="M75.2774 73.0855L74.4067 73.7815L74.5814 73.9548L75.2774 73.0855Z" fill="#00AFED"/>
<path fill-rule="evenodd" clip-rule="evenodd" d="M75.1029 72.9116L73.7096 74.3022L73.3616 73.7809L75.1029 72.9116Z" fill="#00AFED"/>
<path fill-rule="evenodd" clip-rule="evenodd" d="M75.7995 73.4334L75.2769 74.3027L75.4515 74.4761L75.7995 73.4334Z" fill="#00AFED"/>
<path fill-rule="evenodd" clip-rule="evenodd" d="M75.6255 73.4333L74.7548 75.172L74.2322 74.6507L75.4508 73.26L75.6255 73.4333Z" fill="#00AFED"/>
<path fill-rule="evenodd" clip-rule="evenodd" d="M77.0188 73.4334L77.3668 74.4761L77.5415 74.3027L77.0188 73.4334Z" fill="#00AFED"/>
<path fill-rule="evenodd" clip-rule="evenodd" d="M78.064 71.5204L79.8053 70.9991L79.98 71.6937H78.064V71.5204Z" fill="#00AFED"/>
<path fill-rule="evenodd" clip-rule="evenodd" d="M78.064 71.8682L79.1093 72.0415V71.8682H78.064Z" fill="#00AFED"/>
<path fill-rule="evenodd" clip-rule="evenodd" d="M78.064 72.216L79.98 72.3893L79.8053 72.912L78.064 72.216Z" fill="#00AFED"/>
<path fill-rule="evenodd" clip-rule="evenodd" d="M77.5413 73.0855L78.2373 73.9548L78.4119 73.7815L77.7159 73.0855H77.5413Z" fill="#00AFED"/>
<path fill-rule="evenodd" clip-rule="evenodd" d="M77.3672 73.2595L78.7605 74.6515L78.2379 74.9982L77.3672 73.2595Z" fill="#00AFED"/>
<path fill-rule="evenodd" clip-rule="evenodd" d="M78.064 72.5639L78.9346 73.0852V72.9119L78.064 72.5639Z" fill="#00AFED"/>
<path fill-rule="evenodd" clip-rule="evenodd" d="M77.8894 72.7378L79.6307 73.6071L79.2827 74.1284L77.8894 72.9111V72.7378Z" fill="#00AFED"/>
<path fill-rule="evenodd" clip-rule="evenodd" d="M86.5972 49.2606L72.6652 63.8686L75.1025 64.042L64.1319 76.39L67.4412 76.5646L50.5479 93.7806L60.6492 79.8673L57.6879 79.694L65.1772 68.738L62.3905 68.2166L82.2439 46.3046H86.5972V49.2606Z" fill="#00AFED"/>
<path fill-rule="evenodd" clip-rule="evenodd" d="M49.8512 50.6517C50.0259 49.9557 50.3739 49.6077 50.5472 49.6077C51.5926 48.913 51.4192 47.869 51.4192 48.217C51.5926 49.261 51.5926 49.7824 51.2446 50.3037C50.5472 51.173 50.5472 50.9997 50.5472 50.9997C51.5926 50.6517 52.2899 50.3037 52.2899 50.3037C51.9406 51.6957 51.9406 51.869 51.9406 51.869C52.2899 51.869 52.4632 51.6957 52.9859 51.869C54.2046 52.0424 54.5539 51.3477 54.5539 51.3477C54.3792 52.217 53.6819 52.7384 53.1606 52.7384C52.1152 52.7384 52.1152 52.913 52.1152 52.913C53.3339 53.4344 54.2046 53.6077 54.2046 53.6077C53.3339 54.1304 52.6379 54.6517 52.6379 54.6517C52.6379 54.825 52.9859 54.6517 53.5086 55.3477C54.0312 56.217 54.7272 56.0424 54.7272 56.0424C54.3792 56.217 53.6819 56.7384 52.8126 56.0424C51.9406 55.3477 51.9406 55.6944 51.9406 55.869C52.8126 57.2597 52.9859 57.6077 52.9859 57.6077C51.7672 57.0864 51.2446 56.7384 51.2446 56.9117C51.2446 57.0864 51.5926 57.4344 51.4192 58.129C51.2446 58.9997 51.9406 59.521 51.9406 59.521C51.4192 59.3477 50.8966 59.521 50.5472 58.477C50.1992 57.0864 50.0259 57.4344 50.0259 57.4344C49.8512 58.129 49.5032 59.521 49.5032 59.521C48.9806 58.477 48.6326 57.6077 48.6326 57.6077C48.2832 57.7824 48.6326 57.9557 48.1099 58.6517C47.4139 59.173 47.4139 60.0424 47.4139 60.0424C47.2392 59.521 46.7166 59.173 47.2392 57.7824C47.4139 57.4344 47.4139 57.0864 47.4139 57.0864C46.8912 57.4344 45.3232 58.3037 45.3232 58.3037C45.8459 57.0864 46.3686 56.217 46.1939 56.217C45.4979 56.3904 45.4979 56.3904 45.1486 56.217C44.1046 56.0424 43.5819 56.9117 43.5819 56.9117C43.7552 55.521 44.2779 55.173 45.1486 55.173C45.4979 55.173 45.6712 54.9997 45.6712 54.9997C45.1486 54.825 43.5819 54.3037 43.5819 54.3037C44.6272 53.7824 45.3232 53.6077 45.3232 53.6077C44.4526 53.0864 44.6272 52.7384 44.1046 52.3904C43.5819 51.6957 43.2339 52.0424 43.2339 52.0424C43.4072 51.521 44.6272 51.521 45.3232 52.0424C45.6712 52.3904 46.0206 52.217 46.0206 52.217C45.3232 50.8264 45.1486 50.1304 45.1486 50.1304C45.1486 50.1304 47.0646 51.521 47.0646 51.3477C46.8912 50.1304 47.2392 49.9557 47.2392 49.6077C47.2392 48.217 47.0646 48.3904 47.0646 48.3904C47.7619 48.913 47.9352 49.0864 47.9352 49.9557C47.9352 50.8264 48.1099 50.8264 48.1099 50.8264C48.6326 49.7824 48.9806 48.7384 48.9806 48.7384C49.3286 49.6077 49.8512 50.6517 49.8512 50.6517Z" fill="#00AFED"/>
<path fill-rule="evenodd" clip-rule="evenodd" d="M69.5303 5.95788L69.1823 6.13122C68.6596 5.08855 67.789 4.21922 66.5703 4.21922C66.221 4.21922 66.221 4.39255 66.221 4.91388L65.873 9.95788V11.0005C66.0476 11.3485 66.3956 11.5232 66.7436 11.5232H67.093L66.9183 11.8712L63.261 11.6965V11.3485H63.609C63.957 11.3485 64.3063 11.3485 64.4796 11.0005C64.6543 10.6539 64.6543 10.1312 64.6543 9.95788L65.0023 4.74055C65.0023 4.39255 65.0023 4.21922 64.4796 4.04455C63.261 4.04455 62.3903 4.74055 61.693 5.78455L61.345 5.60988L62.2156 3.52322L69.0076 3.87122L69.5303 5.95788Z" fill="#00AFED"/>
<path fill-rule="evenodd" clip-rule="evenodd" d="M74.0583 8.74043C73.5356 10.4791 73.8836 12.3924 75.7996 12.9138C77.7156 13.4351 78.9343 11.8711 79.4569 10.1311C79.9796 8.2191 79.4569 6.30577 77.7156 5.95777C75.7996 5.43643 74.5809 6.65377 74.0583 8.74043ZM80.8503 10.4791C80.1529 12.9138 78.0636 14.1311 75.6249 13.4351C73.3609 12.9138 71.9689 10.6538 72.6649 8.39243C73.1876 5.95777 75.4516 4.74043 77.8889 5.26177C80.1529 5.95777 81.3729 8.2191 80.8503 10.4791Z" fill="#00AFED"/>
<path fill-rule="evenodd" clip-rule="evenodd" d="M88.5128 11.6969H87.9901C87.6421 10.3062 86.9461 9.43557 85.7261 8.91423C85.3781 8.7409 84.6821 8.56623 84.5074 8.56623C84.1594 8.7409 83.9848 9.26223 83.8101 9.43557L83.1141 11.0009L83.8101 11.3489C84.8554 11.8702 85.2034 11.6969 85.9008 10.6529L86.2488 10.8276L84.8554 13.9569L84.5074 13.7836C84.8554 12.7396 84.6821 12.2182 83.6368 11.8702L82.9394 11.5222L82.0688 13.6102C81.7208 14.3049 81.3728 14.8276 82.4181 15.3489H82.5914L82.4181 15.6969L79.2834 14.3049L79.4568 13.9569V14.1316C79.8048 14.1316 80.1541 14.3049 80.5021 14.1316C80.6754 13.7836 80.8501 13.4356 81.0248 13.0876L82.7661 9.0889C83.1141 8.3929 83.4621 7.87023 82.5914 7.3489H82.4181L82.5914 7.0009L88.5128 9.61023V11.6969Z" fill="#00AFED"/>
<path fill-rule="evenodd" clip-rule="evenodd" d="M98.6136 18.4789H98.2656C98.0909 16.9136 97.5682 15.8709 96.3496 15.0002C96.1749 14.6522 95.6536 14.4789 95.3042 14.4789C94.9562 14.4789 94.7829 14.6522 94.4336 15.0002L93.3896 16.3922L94.0856 16.9136C95.1309 17.6096 95.4789 17.6096 96.1749 16.7402L96.5242 16.9136L94.4336 19.6962L94.0856 19.5229C94.2602 19.1749 94.4336 18.8269 94.4336 18.4789C94.6082 17.9576 94.2602 17.6096 93.7376 17.4349L93.0402 16.9136L91.8216 18.8269C91.6469 19.0002 91.4736 19.3482 91.4736 19.6962C91.4736 20.0442 91.8216 20.3922 92.1696 20.5656C93.7376 21.6096 94.9562 21.7829 96.6976 21.0882L96.8722 21.4349L94.6082 23.0002L88.8616 18.8269L89.2096 18.6536C89.5576 18.8269 89.7322 19.0002 90.0802 18.8269C90.4282 18.6536 90.7762 18.3056 90.9509 17.9576L93.3896 14.4789C93.9109 13.7829 94.2602 13.4362 93.5629 12.7402L93.3896 12.5656L93.5629 12.3922L99.1362 16.3922L98.6136 18.4789Z" fill="#00AFED"/>
<path fill-rule="evenodd" clip-rule="evenodd" d="M97.7429 23.3483C97.2202 23.8697 96.6975 24.2177 97.3949 25.087L97.5682 25.2617L97.2202 25.435L95.1309 23.3483L95.4789 23.175C95.8269 23.523 96.0015 23.6963 96.3495 23.523C96.6975 23.523 97.0469 23.0003 97.2202 22.827L100.355 19.6963C100.878 19.175 101.4 18.827 100.703 18.131V17.9577L100.878 17.6097L102.794 19.523L101.052 26.827L104.187 23.523C104.708 23.0003 105.231 22.6523 104.535 21.783L104.36 21.6097L104.708 21.435L106.799 23.523L106.451 23.6963V23.523C106.102 23.3483 105.928 23.175 105.579 23.3483C105.231 23.3483 104.883 23.8697 104.708 24.0443L100.355 28.391L99.6589 27.6963L101.4 19.523L97.7429 23.3483Z" fill="#00AFED"/>
<path fill-rule="evenodd" clip-rule="evenodd" d="M110.281 31.522L109.933 31.3487C110.456 29.9567 110.281 28.7394 109.411 27.522C109.063 27.174 108.715 26.826 108.54 26.6527C108.192 26.6527 107.844 26.826 107.495 27.0007L106.101 28.0434L106.624 28.7394C107.321 29.6087 107.669 29.6087 108.715 29.0874L108.888 29.4354L106.101 31.522L105.753 31.174C106.101 31.0007 106.276 30.6527 106.451 30.3047C106.624 29.7834 106.451 29.4354 106.101 28.914L105.579 28.3914L103.664 29.7834C103.489 29.9567 103.141 30.1314 103.141 30.4794C102.967 30.826 103.316 31.3487 103.489 31.522C104.708 33.0874 105.928 33.4354 107.669 33.4354L107.844 33.9567L105.057 34.478L101.052 28.914L101.225 28.7394L101.4 28.914C101.573 29.0874 101.748 29.2607 102.096 29.2607C102.444 29.2607 102.967 28.914 103.141 28.7394L106.624 26.1314C107.321 25.6087 107.844 25.4354 107.321 24.566V24.3914L107.495 24.218L111.5 29.6087L110.281 31.522Z" fill="#00AFED"/>
<path fill-rule="evenodd" clip-rule="evenodd" d="M111.501 36.9131C111.849 37.4344 112.023 37.9571 112.546 38.1304C113.067 38.4784 113.59 38.4784 114.113 38.1304C115.331 37.6091 114.983 36.3918 114.461 35.3478C114.287 35.1744 113.939 34.4784 113.59 34.3038C113.417 34.1304 113.242 34.1304 112.894 34.3038L110.803 35.3478L111.501 36.9131ZM110.282 41.2611C109.933 41.7824 109.933 42.1304 110.107 42.8264L109.759 42.9998L108.889 41.2611L111.153 37.0864L110.282 35.6958L108.539 36.5651C107.843 36.9131 107.321 37.0864 107.67 37.9571L107.843 38.3038L107.495 38.4784L105.927 35.3478L106.102 35.1744L106.277 35.3478C106.45 35.5224 106.625 35.8704 106.973 35.8704C107.321 35.8704 107.67 35.6958 108.018 35.5224L111.849 33.4344C112.719 33.0878 113.242 32.9131 112.894 32.0438L112.719 31.8691L113.067 31.6958L115.158 35.8704C115.854 37.0864 116.203 38.4784 114.635 39.3478C113.59 39.8691 112.371 39.3478 111.849 38.3038L110.282 41.2611Z" fill="#00AFED"/>
<path fill-rule="evenodd" clip-rule="evenodd" d="M117.073 47.6951L116.725 47.3471C117.596 46.3044 118.292 44.9124 117.944 43.6951C117.248 41.7831 115.157 41.7831 113.591 42.3044C112.893 42.6524 112.023 43.0004 111.5 43.6951C110.979 44.3911 110.804 45.2604 110.979 46.1297C111.327 47.1737 112.371 48.2164 113.591 47.6951C114.461 47.5217 114.461 46.9991 114.287 46.3044L114.635 46.1297L115.68 49.2604L115.332 49.4351V49.2604C115.157 49.0857 115.157 48.7391 114.809 48.7391C114.461 48.5644 113.939 48.7391 113.591 48.9124L111.849 49.6084L111.5 49.0857L112.197 48.3911C111.327 47.8697 110.804 47.1737 110.456 46.1297C109.759 43.8697 110.979 41.7831 113.243 40.9124C114.287 40.5644 115.332 40.5644 116.203 41.0871C117.248 41.4351 118.119 42.3044 118.467 43.3471C118.64 44.0431 118.64 45.0871 118.467 45.7831H118.989L119.163 46.1297L117.073 47.6951Z" fill="#00AFED"/>
<path fill-rule="evenodd" clip-rule="evenodd" d="M114.461 52.9125C113.59 53.0858 112.893 53.0858 113.068 54.1298V54.4778H112.72L112.197 50.8258H112.545V50.9992C112.545 51.3472 112.72 51.6952 113.068 51.8685C113.416 51.8685 113.938 51.8685 114.113 51.6952L115.68 51.5218L118.292 49.0858C118.989 48.5645 119.337 48.3912 119.337 47.5218L119.685 47.3472L120.382 50.6512L120.034 50.8258C119.86 50.4778 119.685 49.9565 119.337 49.9565C119.164 49.9565 118.989 50.1298 118.814 50.3045L116.55 52.3912L119.337 53.4338C119.512 53.6085 119.685 53.6085 119.86 53.6085C120.382 53.6085 120.208 53.0858 120.382 52.7392L120.73 52.5645L121.078 55.5205H120.73C120.382 54.6512 119.86 54.4778 118.989 54.1298L115.854 52.7392L114.461 52.9125Z" fill="#00AFED"/>
<path fill-rule="evenodd" clip-rule="evenodd" d="M10.6674 52.9125C11.0154 52.9125 11.3634 52.9125 11.7127 52.7392C11.886 52.5645 12.0607 51.8685 12.2354 51.6952C12.5834 49.4338 11.538 48.0432 9.27405 47.5218C8.40338 47.3472 7.35805 47.3472 6.48738 47.8698C5.79138 48.3912 5.44338 49.4338 5.26872 50.3045C5.09405 50.4778 4.92072 51.3472 5.26872 51.5218C5.44338 51.6952 5.96472 51.8685 6.13938 51.8685L10.6674 52.9125ZM11.538 55.3472V55.1725C11.538 54.8258 11.538 54.6512 11.3634 54.3032C11.19 54.1298 10.6674 54.1298 10.3194 53.9565L5.96472 53.0858C5.26872 52.9125 4.57138 52.7392 4.39805 53.6085V53.7818H4.05005L4.74605 50.3045C4.92072 49.2605 5.26872 47.8698 6.13938 47.1738C7.01005 46.3045 8.57805 45.9565 9.79672 46.3045C10.842 46.4778 12.0607 47.1738 12.5834 48.3912C13.1047 49.4338 12.9314 50.8258 12.5834 51.8685L11.886 55.3472H11.538Z" fill="#00AFED"/>
<path fill-rule="evenodd" clip-rule="evenodd" d="M10.8415 37.9566V38.478C9.44814 38.826 8.57748 39.522 8.05481 41.0873C7.88148 41.4353 7.70681 41.9566 7.88148 42.3046C7.88148 42.6526 8.22948 42.6526 8.57748 42.826L10.3188 43.5219L10.4935 42.6526C11.0161 41.6086 10.8415 41.2606 9.79614 40.7393V40.3913L13.2801 41.6086L13.1055 41.9566C12.7575 41.9566 12.4095 41.782 12.0601 41.9566C11.3641 42.13 11.1895 42.478 11.0161 42.9993L10.8415 43.6953L12.9308 44.5646C13.2801 44.5646 13.6281 44.7393 13.8015 44.5646C14.3241 44.5646 14.4988 44.0433 14.6721 43.6953C15.1948 41.9566 14.8468 40.5646 13.9761 39.174L14.3241 38.826L16.2401 40.7393L13.8015 47.174L13.4535 46.9993C13.6281 46.6513 13.6281 46.3046 13.4535 46.13C13.2801 45.782 12.7575 45.6086 12.4095 45.6086L8.40281 44.0433C7.53214 43.6953 7.01081 43.522 6.66148 44.3913L6.48814 44.5646L6.31348 44.3913L8.57748 37.9566H10.8415Z" fill="#00AFED"/>
<path fill-rule="evenodd" clip-rule="evenodd" d="M15.5437 34.3044C15.8917 33.7831 16.0664 33.2604 15.8917 32.7391C15.7184 32.2177 15.369 31.8697 15.021 31.6964C14.4984 31.3484 13.9757 31.3484 13.4544 31.5217C12.9317 31.5217 12.5837 32.0444 12.409 32.3911C12.2344 32.7391 11.8864 33.4351 11.8864 33.7831C11.8864 33.9564 12.2344 34.1311 12.409 34.3044L14.8477 35.5217L15.5437 34.3044ZM16.589 36.5657C16.937 36.7391 17.285 37.0871 17.633 37.0871C17.9824 37.0871 18.3304 36.7391 18.5037 36.3911V36.2177L18.853 36.3911L17.1117 39.5217L16.937 39.3484V39.1737C17.1117 38.8257 17.1117 38.6524 16.937 38.3044C16.7624 37.9564 16.4144 37.7831 16.0664 37.6084L12.2344 35.5217C11.5384 35.1737 11.0157 34.6524 10.493 35.5217V35.6951L10.145 35.5217L12.061 32.0444C12.409 31.5217 12.757 31.0004 13.4544 30.6524C14.1504 30.1311 14.8477 30.1311 15.5437 30.6524C16.0664 31.0004 16.589 31.5217 16.589 32.2177C16.7624 32.9137 16.4144 33.7831 16.0664 34.3044L15.1957 35.6951L16.589 36.5657Z" fill="#00AFED"/>
<path fill-rule="evenodd" clip-rule="evenodd" d="M20.2456 28.7394L16.5883 27.6967L18.6776 30.8261L20.2456 28.7394ZM22.6843 28.2181C23.555 28.3914 24.0763 28.7394 24.7736 28.0434L24.9483 28.2181L23.0323 30.8261L22.6843 30.6527C22.8576 30.3047 23.207 29.7834 22.8576 29.6087C22.6843 29.4354 22.335 29.4354 22.1616 29.2607L20.7683 28.9141L18.8523 31.3487L19.375 32.2181C19.5496 32.3914 19.8976 32.7394 20.071 32.9127C20.5936 33.2607 20.9416 32.9127 21.291 32.5661L21.639 32.7394L19.723 35.3474L19.375 35.1741V35.0007C19.723 34.4781 19.723 34.1301 19.375 33.6087C19.2003 33.0874 18.8523 32.3914 18.5043 32.0434L15.543 27.3487L16.2403 26.4794L22.6843 28.2181Z" fill="#00AFED"/>
<path fill-rule="evenodd" clip-rule="evenodd" d="M25.4703 21.957C25.8183 21.609 26.1663 21.261 26.341 20.5664C26.5156 20.0437 26.341 19.5224 25.8183 19.1744C24.9476 18.1317 23.9023 18.8264 23.0316 19.5224C22.8583 19.8704 22.3356 20.3917 22.161 20.7397C22.161 21.0877 22.3356 21.0877 22.509 21.4357L24.077 23.1744L25.4703 21.957ZM29.8236 21.957C30.521 22.1317 30.869 22.1317 31.3916 21.7837L31.7396 21.957L30.173 23.3477L25.645 22.305L24.425 23.5224L25.8183 24.913C26.341 25.4357 26.8636 25.957 27.5596 25.4357L27.7343 25.261L27.909 25.4357L25.4703 27.8704L25.1223 27.5224H25.2956C25.4703 27.1744 25.8183 27.001 25.645 26.653C25.645 26.305 25.1223 25.957 24.9476 25.7837L21.9876 22.653C21.465 21.957 21.117 21.4357 20.2463 22.1317L20.0716 22.305L19.897 21.957L23.381 18.8264C24.2516 17.7837 25.645 17.0877 26.8636 18.305C27.5596 19.1744 27.3863 20.3917 26.689 21.261L29.8236 21.957Z" fill="#00AFED"/>
<path fill-rule="evenodd" clip-rule="evenodd" d="M34.1777 13.2622L33.8297 13.6102C32.959 13.0876 31.5657 13.0876 30.695 13.6102C30.347 13.9569 30.5204 14.1316 30.695 14.4796L33.4817 18.6529C33.655 19.0009 34.003 19.3489 34.1777 19.5222C34.5257 19.6969 34.8737 19.5222 35.223 19.3489L35.3964 19.1742L35.571 19.5222L32.6097 21.6089L32.4364 21.2622L32.6097 21.0876C32.7844 20.9142 33.1324 20.7396 33.1324 20.3916C32.959 20.0449 32.7844 19.6969 32.6097 19.3489L29.6497 15.1742C29.475 14.8276 29.3017 14.6529 28.9537 14.8276C27.9084 15.5222 27.5604 16.7409 27.7337 17.7836L27.3857 17.9569L26.6897 15.8702L32.4364 12.0449L34.1777 13.2622Z" fill="#00AFED"/>
<path fill-rule="evenodd" clip-rule="evenodd" d="M40.6215 16.7402L34.8749 11.1749L37.4869 16.2189C37.4869 16.5656 37.8349 16.9136 38.0095 17.0882C38.3575 17.4349 38.7055 17.2616 38.8802 17.0882H39.2282V17.4349L36.6162 18.6536L36.4415 18.3056H36.6162C36.7895 18.1309 37.1389 17.9576 37.1389 17.6096C37.1389 17.2616 36.9642 16.9136 36.7895 16.5656L34.8749 12.5656C34.5269 11.8709 34.3522 11.3496 33.4815 11.6962H33.3069L33.1335 11.5229L35.5709 10.3056L40.2735 14.6522L39.9242 8.2189L42.3629 7.00156L42.5375 7.34956H42.3629C42.1882 7.5229 41.8402 7.69756 41.8402 8.04423C41.8402 8.39223 42.0149 8.74023 42.1882 9.08823L44.1042 13.0882C44.4522 13.7829 44.6269 14.3056 45.4975 13.9576H45.6722L45.8455 14.3056L42.8855 15.6962L42.7109 15.3482H42.8855C43.0602 15.1749 43.4082 15.0002 43.4082 14.6522C43.4082 14.3056 43.2335 13.7829 43.0602 13.6096L40.6215 8.74023L41.1442 16.5656L40.6215 16.7402Z" fill="#00AFED"/>
<path fill-rule="evenodd" clip-rule="evenodd" d="M52.4636 6.30564L52.1156 6.65364C50.8956 5.78431 49.8516 5.43631 48.2836 5.78431C47.9356 5.78431 47.4129 5.95764 47.2396 6.30564C47.0649 6.65364 47.0649 6.82698 47.2396 7.17498L47.5876 9.08831L48.4582 8.74031C49.5036 8.56564 49.6769 8.21898 49.5036 7.00164H50.0262L50.8956 10.3056L50.3742 10.479C50.3742 10.131 50.1996 9.78431 49.8516 9.60964C49.5036 9.08831 48.9809 9.26164 48.4582 9.43631L47.7609 9.60964L48.2836 11.871C48.4582 12.0443 48.4582 12.3923 48.8062 12.5656C48.9809 12.9136 49.6769 12.7403 50.0262 12.5656C51.7676 12.219 52.6382 11.175 53.3342 9.60964H53.6822L53.3342 12.3923L46.5422 13.9576V13.6096C46.8902 13.6096 47.2396 13.4363 47.2396 13.0883C47.4129 12.7403 47.2396 12.219 47.2396 12.0443L46.0196 7.69764C45.8462 7.00164 45.8462 6.30564 44.8009 6.47898H44.6262V6.30564L51.2449 4.56698L52.4636 6.30564Z" fill="#00AFED"/>
<path fill-rule="evenodd" clip-rule="evenodd" d="M55.4242 10.3055C55.5988 11.1749 55.5988 11.6962 56.4682 11.6962H56.8175V12.0442L53.8562 12.3922V12.0442H54.0308C54.3788 11.8709 54.7282 11.8709 54.7282 11.5229C54.9015 11.1749 54.9015 10.6535 54.7282 10.4789L54.3788 6.13221C54.3788 5.26288 54.3788 4.56688 53.3348 4.74021H53.1602V4.39221L55.7722 4.04554L60.3002 10.1322L59.7775 5.60955C59.7775 4.74021 59.7775 4.04554 58.7335 4.04554L58.5588 4.21888V3.87088L61.3455 3.52288V3.87088C60.9962 3.87088 60.6482 4.04555 60.4748 4.39221C60.3002 4.56688 60.4748 5.08821 60.4748 5.43621L60.9962 11.6962H60.1268L54.9015 5.08821L55.4242 10.3055Z" fill="#00AFED"/>
<path fill-rule="evenodd" clip-rule="evenodd" d="M11.5384 69.7815H11.1904V69.6082C11.1904 69.4335 11.0157 69.0855 10.8424 68.9122C10.493 68.7375 9.97035 68.7375 9.62235 68.7375L5.96502 68.9122C5.09435 68.9122 4.39835 68.9122 3.87569 68.2162C3.35302 67.5202 3.17969 66.6508 3.17969 65.7815C3.17969 65.0855 3.17969 64.2162 3.52769 63.5202C4.22369 62.6508 4.74635 62.4775 5.79169 62.4775L9.44902 62.3042C10.3197 62.3042 10.8424 62.3042 10.8424 61.4335V61.0855H11.1904L11.3637 64.5642H11.0157V64.3908C11.0157 64.0428 11.0157 63.6948 10.6677 63.5202C10.3197 63.3468 9.79702 63.5202 9.44902 63.5202H6.66235C5.96502 63.5202 5.09435 63.5202 4.39835 63.8682C3.87569 64.3908 3.70102 65.2602 3.70102 65.9548C3.70102 66.6508 3.87569 67.5202 4.57169 67.8682C5.09435 68.3908 6.13969 68.2162 6.83569 68.2162L9.62235 68.0428C10.493 68.0428 11.0157 68.2162 11.0157 67.1722V66.8255H11.5384V69.7815Z" fill="#00AFED"/>
<path fill-rule="evenodd" clip-rule="evenodd" d="M66.0473 116.04L65.5246 116.215C64.654 114.998 63.7833 114.475 62.2153 114.302C61.8673 114.302 61.1713 114.302 60.9966 114.65C60.6486 114.823 60.6486 115.171 60.6486 115.519V117.258H61.3446C62.5646 117.431 62.738 117.083 62.9126 115.867H63.4353L63.2606 119.519H62.9126C62.9126 118.996 62.738 118.65 62.5646 118.475C62.39 117.954 61.8673 117.954 61.3446 117.954L60.6486 117.78L60.474 120.214C60.474 120.388 60.474 120.91 60.6486 121.083C60.8233 121.431 61.5193 121.431 61.8673 121.431C63.6086 121.431 64.8286 120.736 65.8726 119.344L66.222 119.519L65.1766 121.954L58.21 121.779V121.431H58.3846C58.7326 121.431 59.0806 121.431 59.2553 121.083V120.04L59.43 115.692C59.43 114.823 59.6033 114.302 58.5593 114.127H58.3846V113.779L65.1766 113.954L66.0473 116.04Z" fill="#00AFED"/>
<path fill-rule="evenodd" clip-rule="evenodd" d="M5.96555 73.2595C5.26955 73.4328 4.57222 73.6075 4.74689 74.4768V74.8248H4.39755L3.87622 72.0422H4.22422C4.22422 72.3902 4.39755 72.7382 4.74689 72.7382C5.09489 72.9115 5.61755 72.7382 5.79089 72.7382L10.1456 71.8688C10.8416 71.6942 11.5389 71.5208 11.3642 70.6515V70.4768L11.7122 70.3035L12.2349 72.9115L6.83622 78.1288L11.1896 77.0862C12.0616 76.9115 12.7576 76.9115 12.5829 75.8675L12.4096 75.6942H12.7576L13.4536 78.4768H13.1056C12.9309 78.1288 12.9309 77.7808 12.5829 77.6075C12.2349 77.6075 11.7122 77.7808 11.3642 77.7808L5.26955 78.9982L5.09489 78.1288L11.1896 72.2155L5.96555 73.2595Z" fill="#00AFED"/>
<path fill-rule="evenodd" clip-rule="evenodd" d="M12.409 80.5636C13.2797 80.2156 13.8023 80.0423 13.4543 79.173L13.8023 78.9983L15.021 81.9543L14.673 82.129V81.9543C14.1503 81.085 13.6277 81.433 12.9317 81.6076L8.92632 83.3463C8.05566 83.6943 7.53299 83.6943 7.70632 84.5636L7.88099 84.737L7.53299 84.9116L6.31299 81.9543L6.66232 81.781V81.9543C7.18499 82.8236 7.70632 82.477 8.40366 82.3023L12.409 80.5636Z" fill="#00AFED"/>
<path fill-rule="evenodd" clip-rule="evenodd" d="M16.9367 90.8239L16.5887 90.4759C17.2847 89.6066 17.634 88.3892 17.1114 87.3466C16.7634 86.9986 16.5887 86.9986 16.2407 87.3466L11.7127 89.6066C11.3634 89.6066 11.0154 89.9546 10.842 90.1279C10.4927 90.4759 10.6674 90.8239 10.842 91.1719V91.3452L10.6674 91.5199L8.92603 88.2159L9.27402 88.0412L9.44869 88.2159C9.62203 88.5639 9.79669 88.9106 10.1447 88.9106C10.4927 88.9106 10.842 88.5639 11.19 88.5639L15.718 86.1292C16.066 85.9546 16.2407 85.9546 16.066 85.4332C15.5434 84.3892 14.4994 83.8679 13.2794 83.8679V83.5199L15.37 83.1719L18.5047 89.2586L16.9367 90.8239Z" fill="#00AFED"/>
<path fill-rule="evenodd" clip-rule="evenodd" d="M21.639 97.2584L21.291 97.085C21.8137 95.693 21.639 94.4757 20.7683 93.2584C20.5937 92.9104 20.2457 92.5624 19.8977 92.389C19.5497 92.2157 19.375 92.389 19.027 92.737L17.459 93.7797L17.9817 94.3024C18.6777 95.345 19.027 95.345 20.071 94.8237L20.2457 95.1717L17.459 97.085L17.111 96.9104C17.459 96.5624 17.6337 96.389 17.8083 96.041C17.9817 95.5197 17.8083 94.9984 17.459 94.6504L17.111 93.9544L15.195 95.345C15.0217 95.5197 14.6723 95.693 14.499 96.041C14.499 96.389 14.6723 96.9104 15.0217 97.2584C16.0657 98.6504 17.2857 99.1717 19.027 99.1717V99.5197L16.415 100.214L12.4097 94.4757L12.7577 94.3024V94.4757C13.1057 94.6504 13.2803 94.8237 13.6283 94.8237C13.9763 94.8237 14.3243 94.4757 14.499 94.3024L18.1563 91.8677C18.8523 91.345 19.375 90.9984 18.8523 90.3024V90.129L19.027 89.9544L23.0323 95.5197L21.639 97.2584Z" fill="#00AFED"/>
<path fill-rule="evenodd" clip-rule="evenodd" d="M20.7684 102.65C20.5937 102.824 20.2457 103.171 20.2457 103.519C20.2457 103.694 20.7684 104.388 20.943 104.563C22.5097 106.128 24.251 105.954 25.819 104.388C26.515 103.694 27.2124 102.824 27.2124 101.954C27.2124 101.084 26.6897 100.215 25.9924 99.5191C25.819 99.3457 25.2964 98.8231 24.9484 98.8231C24.599 98.8231 24.251 99.1711 24.0777 99.3457L20.7684 102.65ZM18.1564 101.954H18.3297C18.5044 102.302 18.8524 102.476 19.2004 102.302C19.5497 102.302 19.8977 101.954 20.0724 101.606L23.207 98.6497C23.7284 98.1284 24.251 97.6071 23.555 96.9111V96.7364L23.7284 96.5631L26.167 98.9977C27.0377 99.8671 27.9084 100.911 28.083 102.128C28.2564 103.346 27.735 104.736 26.863 105.432C25.9924 106.302 24.7737 106.823 23.555 106.65C22.1617 106.476 21.291 105.606 20.4204 104.736L17.9817 102.302L18.1564 101.954Z" fill="#00AFED"/>
<path fill-rule="evenodd" clip-rule="evenodd" d="M36.4417 109.432H36.0937C36.0937 108.04 35.7457 106.824 34.7003 106.128C34.003 105.78 32.959 105.605 32.4363 106.301C31.9137 106.997 32.7843 107.867 33.307 108.388L34.1777 109.259C35.0483 110.301 35.919 111.345 35.0483 112.736C34.1777 114.128 32.2617 113.953 30.8683 113.084C30.1723 112.736 29.475 111.867 29.3017 111.171L28.779 111.519L28.2563 111.171L29.127 108.563L29.6497 108.736C29.475 110.128 29.8243 111.693 31.043 112.563C31.9137 113.084 33.307 113.259 33.8297 112.215C34.5257 111.345 33.8297 110.824 33.1323 110.128L32.2617 109.084C31.9137 108.736 31.391 108.215 31.2177 107.693C31.043 107.171 31.043 106.476 31.391 105.953C31.739 105.432 32.2617 105.084 32.959 105.084C33.655 104.911 34.3523 105.259 34.8737 105.605C35.3963 105.953 36.0937 106.649 36.267 107.345L36.6163 106.997L36.9643 107.345L36.4417 109.432Z" fill="#00AFED"/>
<path fill-rule="evenodd" clip-rule="evenodd" d="M44.2784 113.084L43.9304 112.911C43.7557 111.867 43.233 110.649 42.189 110.301C41.841 109.953 41.6664 110.301 41.4917 110.649L39.4024 115.345C39.2277 115.519 39.0544 116.04 39.0544 116.215C39.0544 116.736 39.4024 116.911 39.5757 117.084H39.925L39.7504 117.432L36.4424 115.867L36.6157 115.519L36.7904 115.692C37.1384 115.867 37.4864 115.867 37.661 115.692C38.009 115.519 38.1824 114.997 38.357 114.823L40.4464 110.128C40.621 109.78 40.7957 109.607 40.273 109.259C39.2277 108.736 38.009 109.084 37.1384 109.78L36.7904 109.607L38.357 107.867L44.6264 110.824L44.2784 113.084Z" fill="#00AFED"/>
<path fill-rule="evenodd" clip-rule="evenodd" d="M47.4132 116.562L47.2386 112.737L44.8012 115.693L47.4132 116.562ZM48.8066 118.649C48.8066 119.518 48.8066 120.214 49.6772 120.562L49.5026 120.91L46.3679 119.866V119.518C46.8906 119.518 47.4132 119.693 47.5879 119.171V118.475L47.4132 117.083L44.4532 116.214L43.9306 116.91C43.7559 117.083 43.4079 117.431 43.4079 117.779C43.2332 118.301 43.5812 118.649 44.1039 118.823V119.171L40.9692 118.127L41.1439 117.779H41.3172C41.8399 117.953 42.0146 117.779 42.5372 117.431C42.8852 117.083 43.4079 116.389 43.7559 115.866L47.2386 111.693L48.2839 112.041L48.8066 118.649Z" fill="#00AFED"/>
<path fill-rule="evenodd" clip-rule="evenodd" d="M57.6879 116.04H57.3399C56.9919 114.998 56.1212 114.127 55.0759 113.779C54.5532 113.779 54.5532 114.127 54.3786 114.475L53.5079 119.519C53.5079 119.692 53.3346 120.214 53.5079 120.562C53.5079 120.91 54.0306 121.083 54.3786 121.083H54.5532V121.431L50.8959 120.91V120.562H51.0706C51.4186 120.562 51.7666 120.562 52.1146 120.388C52.2892 120.04 52.2892 119.519 52.4639 119.344L53.3346 114.127C53.3346 113.779 53.3346 113.606 52.9866 113.432C51.7666 113.258 50.7226 113.779 50.0252 114.823L49.6772 114.65L50.7226 112.562L57.5146 113.779L57.6879 116.04Z" fill="#00AFED"/>
<path fill-rule="evenodd" clip-rule="evenodd" d="M73.1873 115.171L72.8393 115.345C71.9686 114.301 70.9233 113.605 69.7046 113.78C68.834 113.78 67.9633 114.301 68.1366 115.171C68.1366 116.215 69.182 116.215 70.0526 116.388L71.2713 116.561C72.4913 116.736 73.8833 116.909 74.058 118.475C74.406 120.215 72.8393 121.257 71.2713 121.432C70.4006 121.605 69.3566 121.432 68.6593 121.084L68.486 121.605L68.1366 121.78L66.918 119.171L67.4406 118.823C68.1366 120.04 69.53 121.084 71.098 120.909C72.142 120.736 73.1873 120.04 73.014 118.997C72.8393 117.953 71.9686 117.78 71.098 117.78L69.7046 117.605C69.182 117.432 68.486 117.432 67.9633 117.084C67.4406 116.909 67.0926 116.388 66.918 115.692C66.918 114.997 67.0926 114.475 67.614 113.953C68.1366 113.432 68.834 113.257 69.3566 113.257C70.2273 113.084 70.9233 113.257 71.6206 113.605L71.794 113.084H72.142L73.1873 115.171Z" fill="#00AFED"/>
<path fill-rule="evenodd" clip-rule="evenodd" d="M78.9344 115.519C79.457 117.084 80.6757 118.649 82.5917 118.127C84.5077 117.432 84.8557 115.519 84.1597 113.78C83.637 111.867 82.2437 110.476 80.3277 111.171C78.761 111.692 78.2384 113.432 78.9344 115.519ZM85.5517 113.432C86.249 115.692 85.0304 117.953 82.7664 118.649C80.5024 119.344 78.2384 118.127 77.541 115.867C76.845 113.605 78.0637 111.345 80.3277 110.476C82.5917 109.78 84.8557 110.997 85.5517 113.432Z" fill="#00AFED"/>
<path fill-rule="evenodd" clip-rule="evenodd" d="M91.125 107.867L90.777 108.215C89.557 107.693 88.3383 107.693 86.945 108.215C86.7716 108.388 86.0743 108.736 86.0743 109.084C85.901 109.257 86.249 109.78 86.4236 110.128L87.1196 111.519L87.8156 111.171C88.861 110.649 89.0356 110.301 88.513 109.257L88.861 109.084L90.429 112.215L90.0796 112.388C89.557 111.345 89.0356 111.171 87.9903 111.692L87.4676 112.04L88.3383 113.953C88.6863 114.649 89.0356 115.345 89.9063 114.823H90.0796L90.2543 115.171L87.293 116.736L87.1196 116.388V116.215C87.4676 116.04 87.6423 115.867 87.6423 115.519C87.6423 115.345 87.4676 114.823 87.293 114.475L85.3783 110.649C85.029 109.953 84.8556 109.257 83.8103 109.78H83.637V109.432L89.3836 106.476L91.125 107.867Z" fill="#00AFED"/>
<path fill-rule="evenodd" clip-rule="evenodd" d="M97.7427 105.78L94.4334 103.693L95.6534 107.345L97.7427 105.78ZM100.18 105.78C100.877 106.301 101.573 106.649 102.271 106.128L102.444 106.476L99.8321 108.562L99.6587 108.214C100.007 107.866 100.355 107.518 100.007 107.17C99.8321 106.997 99.6587 106.824 99.4841 106.824L98.2654 105.954L95.8267 107.866L96.0014 108.736C96.1747 109.084 96.3494 109.432 96.5241 109.78C96.8721 110.128 97.2201 109.953 97.7427 109.606L97.9161 109.953L95.4787 111.866L95.3041 111.693V111.518C95.6534 110.997 95.8267 110.824 95.6534 110.301C95.6534 109.78 95.3041 108.91 95.1307 108.389L93.5627 103.172L94.4334 102.476L100.18 105.78Z" fill="#00AFED"/>
<path fill-rule="evenodd" clip-rule="evenodd" d="M110.281 87.1722L110.107 87.5202C108.715 87.6935 107.669 88.2162 106.799 89.6069C106.624 89.7802 106.276 90.3029 106.276 90.6509C106.276 90.9975 106.624 91.1722 106.972 91.3455L108.54 92.3895L108.888 91.6935C109.585 90.8242 109.411 90.4762 108.54 89.6069L108.715 89.2589L111.675 91.1722L111.5 91.5202C111.152 91.3455 110.804 91.1722 110.456 91.3455C109.933 91.3455 109.585 91.6935 109.411 92.0415L108.888 92.7375L110.979 93.9549C111.152 94.1282 111.5 94.3015 111.675 94.3015C112.023 94.3015 112.371 93.7802 112.72 93.4322C113.591 92.0415 113.591 90.6509 113.068 88.9109L113.416 88.7375L114.809 90.9975L111.152 96.7362L110.804 96.5629C110.979 96.2149 111.152 95.8669 110.979 95.6935C110.804 95.3455 110.456 94.9975 110.107 94.8242L106.451 92.5629C105.753 92.0415 105.231 91.6935 104.708 92.3895L104.535 92.5629L104.36 92.3895L108.017 86.6509L110.281 87.1722Z" fill="#00AFED"/>
<path fill-rule="evenodd" clip-rule="evenodd" d="M113.242 83.8678C113.59 83.3464 113.765 82.9984 113.59 82.3024C113.59 81.7811 113.242 81.4331 112.719 81.2584C111.501 80.5638 110.803 81.6078 110.281 82.4771C110.107 82.8238 109.759 83.5198 109.933 83.8678C109.933 84.2158 110.107 84.3891 110.281 84.3891L112.545 85.4331L113.242 83.8678ZM117.422 82.3024C118.118 82.3024 118.466 82.1291 118.815 81.6078L119.163 81.7811L118.293 83.5198L113.765 84.2158L112.894 85.7811L114.81 86.6504C115.506 86.9984 116.029 87.1718 116.551 86.3024V86.1291L116.899 86.3024L115.331 89.4331L115.158 89.2584V89.0851C115.331 88.9104 115.331 88.5638 115.158 88.2158C114.983 88.0411 114.461 87.6931 114.287 87.6931L110.281 85.7811C109.585 85.4331 109.062 85.0851 108.539 85.9544L108.366 86.1291L108.191 85.9544L110.107 81.7811C110.803 80.5638 111.849 79.3464 113.242 80.0424C114.461 80.5638 114.635 81.7811 114.113 82.9984L117.422 82.3024Z" fill="#00AFED"/>
<path fill-rule="evenodd" clip-rule="evenodd" d="M113.416 78.3028C112.719 78.1294 112.198 77.7814 111.848 78.6508L111.675 78.8241H111.327L112.371 75.6948L112.719 75.8681H112.546C112.371 76.7374 113.068 76.9121 113.764 77.2588L117.944 78.4761C118.815 78.6508 119.338 78.8241 119.686 78.1294V77.9548H120.034L119.163 81.0854L118.815 80.9108V80.7374C118.99 79.8681 118.467 79.8681 117.596 79.5201L113.416 78.3028Z" fill="#00AFED"/>
<path fill-rule="evenodd" clip-rule="evenodd" d="M116.725 69.0859L116.55 69.4339C115.854 69.6072 115.157 69.7819 114.636 70.1299C113.938 70.4765 113.59 70.9992 113.416 71.8685C113.242 72.7379 113.416 73.4339 114.113 74.1299C114.809 74.6512 115.68 74.9992 116.55 75.3459C117.248 75.5205 118.292 75.5205 118.989 75.1725C119.86 74.8245 120.382 73.9552 120.556 73.0859C120.905 72.0419 120.382 70.6512 119.512 69.9552L119.86 69.4339C121.078 70.4765 121.426 71.8685 121.078 73.4339C120.556 75.8685 118.466 77.0859 116.029 76.5645C113.938 76.2165 112.372 74.1299 112.893 71.8685C113.068 70.9992 113.416 70.3032 114.113 69.7819L113.59 69.2592L113.765 68.9125L116.725 69.0859Z" fill="#00AFED"/>
<path fill-rule="evenodd" clip-rule="evenodd" d="M118.292 63.8686L114.81 64.9113L118.118 66.4766L118.292 63.8686ZM120.208 61.9553C120.904 61.782 121.602 61.6073 121.775 60.738H122.124L121.95 64.042H121.602C121.427 63.6953 121.427 63.1726 120.904 62.9993C120.731 62.9993 120.556 63.1726 120.382 63.1726L118.815 63.6953L118.64 66.6513L119.511 66.9993C119.86 67.1726 120.208 67.3473 120.556 67.3473C121.079 67.5206 121.252 66.9993 121.427 66.4766H121.775L121.427 69.6073H121.079V69.434C121.079 68.9113 120.904 68.738 120.382 68.39C119.86 68.042 119.163 67.694 118.64 67.3473L113.764 65.086V64.042L120.208 61.9553Z" fill="#00AFED"/>
<path fill-rule="evenodd" clip-rule="evenodd" d="M105.928 102.65L98.4398 99.6936L102.618 103.519C102.966 103.694 103.316 104.04 103.489 104.04C104.012 104.215 104.186 104.04 104.36 103.694L104.534 103.519L104.882 103.867L102.793 106.128L102.618 105.78C102.793 105.432 103.141 105.258 102.966 104.911C102.793 104.563 102.445 104.215 102.27 104.04L98.9612 101.084C98.4398 100.563 97.9172 100.042 97.2198 100.736L97.0465 100.911L96.8718 100.563L98.7878 98.4763L104.709 100.911L101.922 94.9976L103.838 93.0843L104.012 93.259V93.4323C103.838 93.607 103.664 93.955 103.664 94.3016C103.838 94.4763 104.186 94.8243 104.36 94.9976L107.669 97.9536C108.192 98.4763 108.714 98.9976 109.41 98.3016L109.585 98.1283L109.758 98.4763L107.494 100.911L107.321 100.563C107.494 100.388 107.669 100.042 107.669 99.6936C107.494 99.3456 107.146 98.9976 106.798 98.823L102.966 95.1723L106.276 102.302L105.928 102.65Z" fill="#00AFED"/>
<path fill-rule="evenodd" clip-rule="evenodd" d="M6.13965 58.3037C6.13965 57.7823 6.66232 57.2597 7.18498 57.2597C7.70631 57.2597 8.22898 57.7823 8.22898 58.3037C8.22898 58.825 7.70631 59.3477 7.18498 59.3477C6.66232 59.3477 6.13965 58.825 6.13965 58.3037Z" fill="#00AFED"/>
<path fill-rule="evenodd" clip-rule="evenodd" d="M116.377 58.3037C116.377 57.7823 116.899 57.2597 117.422 57.2597C117.945 57.2597 118.466 57.7823 118.466 58.3037C118.466 58.825 117.945 59.3477 117.422 59.3477C116.899 59.3477 116.377 58.825 116.377 58.3037Z" fill="#00AFED"/>
<path fill-rule="evenodd" clip-rule="evenodd" d="M58.3844 21.7831C56.4684 21.4351 55.2498 21.4351 53.6818 21.6098C52.2898 21.7831 51.4191 24.2178 52.8124 25.4351C53.5084 23.3484 58.2098 24.0444 59.6031 24.7391C60.4738 25.7831 59.9524 25.7831 59.6031 25.2618C59.0804 24.9138 58.2098 24.3924 57.5138 24.9138C58.9071 25.7831 59.0804 26.3044 59.9524 27.3484C60.8231 28.3911 59.4298 27.5218 59.6031 27.8698V29.0871C58.7324 32.7391 56.8178 35.3484 55.2498 38.6524C55.2498 38.6524 55.7724 38.4778 56.4684 38.1311C57.5138 37.2604 57.5138 37.2604 58.3844 36.5658C58.5591 37.4351 58.5591 38.6524 58.7324 39.3484C58.7324 39.5218 59.7778 38.8258 60.1258 38.4778C60.8231 37.6084 61.5191 36.2178 61.5191 36.2178C63.0871 37.6084 63.0871 39.5218 63.2604 39.3484C63.9578 38.8258 65.3511 38.1311 65.5244 36.0431C66.5698 36.9138 67.2658 38.1311 67.4404 39.0004C67.4404 39.1738 68.3111 38.6524 69.0071 35.8698C69.7044 36.9138 70.4004 37.7831 71.4458 38.4778C70.5751 36.5658 70.2271 34.6524 69.7044 32.7391L69.5298 32.9138C69.1818 32.5658 69.1818 32.2178 69.0071 31.8698C69.1818 31.8698 69.3564 31.6964 69.5298 31.5218C69.7044 29.6084 67.9631 28.2178 67.7884 26.3044L67.9631 26.4791C68.3111 26.3044 68.1364 25.9578 68.1364 25.6098C68.1364 25.4351 67.7884 25.2618 67.7884 25.2618C67.7884 23.8698 67.0924 22.4791 66.5698 21.6098C65.3511 19.5231 59.2551 18.4791 57.8618 20.2178C57.6871 20.7404 58.3844 21.0871 58.9071 20.5658C59.4298 20.2178 59.7778 20.2178 59.9524 20.2178C60.3004 20.2178 61.3458 20.5658 61.3458 20.5658C61.3458 20.5658 61.6938 20.5658 62.2151 20.7404C62.7378 20.5658 62.7378 20.3924 62.3898 20.5658C62.5644 20.7404 62.5644 20.7404 62.7378 20.9138C62.2151 20.7404 61.3458 20.5658 60.9964 21.0871C60.8231 21.4351 60.8231 21.6098 60.4738 21.7831C60.1258 21.9564 61.1711 22.3044 60.9964 22.3044C60.8231 22.3044 60.8231 22.1311 60.6484 22.1311C60.3004 22.1311 60.8231 22.4791 60.6484 22.4791C60.3004 22.1311 59.9524 22.1311 59.9524 22.6524C59.9524 24.2178 62.2151 24.5658 60.4738 25.7831C60.4738 25.7831 61.1711 24.9138 60.8231 24.7391C59.9524 24.3924 59.9524 23.3484 59.0804 22.1311L58.3844 21.7831ZM67.2658 40.0431C67.2658 39.5218 66.9178 38.6524 66.5698 38.1311C66.2218 37.6084 66.0471 37.4351 65.8724 37.0871C65.3511 38.1311 65.5244 37.7831 64.4804 39.0004L63.0871 40.0431C63.0871 39.8698 62.7378 39.0004 62.5644 38.6524C62.0418 37.6084 62.2151 37.9564 61.6938 37.0871C60.8231 38.3044 60.3004 39.1738 58.3844 40.2178C58.3844 39.1738 58.0364 38.6524 58.0364 37.6084C56.8178 38.4778 55.9471 39.1738 54.2044 39.1738C54.5538 38.8258 54.9018 38.1311 55.0751 37.6084C56.1204 35.8698 56.9911 34.3044 57.8618 32.5658C58.5591 31.0004 59.4298 29.6084 59.0804 27.6964C58.7324 25.7831 56.2951 24.2178 54.0311 25.0871C53.3338 25.2618 53.1604 25.6098 52.8124 26.6524C51.4191 25.4351 51.0698 23.5231 52.1151 22.1311C53.1604 20.7404 54.3791 20.7404 55.9471 20.9138C56.2951 20.9138 56.9911 20.7404 56.9911 20.5658C57.6871 19.5231 58.3844 19.0004 59.6031 18.8271C62.0418 18.6524 64.8284 19.0004 66.5698 20.9138C67.0924 21.4351 67.4404 21.7831 67.6138 22.3044C69.0071 26.3044 69.7044 30.1311 70.7498 34.3044C71.0978 36.2178 71.4458 37.9564 73.0138 39.1738C71.7938 39.8698 70.2271 38.1311 69.5298 37.0871C69.3564 37.0871 69.3564 37.4351 68.8338 38.3044C68.6591 38.8258 68.6591 38.6524 68.3111 39.1738C67.9631 39.5218 67.2658 39.6951 67.2658 40.0431" fill="#00AFED"/>
<path fill-rule="evenodd" clip-rule="evenodd" d="M57.8624 22.3051C57.6877 22.3051 57.165 22.1317 57.165 22.1317C57.3397 22.4784 57.6877 22.8264 57.8624 22.8264C58.037 22.6531 58.037 22.4784 57.8624 22.3051Z" fill="#00AFED"/>
<path fill-rule="evenodd" clip-rule="evenodd" d="M64.3057 31.0003C64.3057 31.0003 64.1311 31.1736 64.1311 31.5216C64.1311 32.3909 63.9577 32.7389 64.3057 32.0443C64.4804 31.5216 64.4804 31.6963 64.4804 31.5216C64.6537 31.1736 64.3057 31.0003 64.3057 31.0003Z" fill="#00AFED"/>
<path fill-rule="evenodd" clip-rule="evenodd" d="M60.4743 33.609C60.4743 33.7824 60.1263 34.8264 60.1263 35.1744C59.9517 35.5224 59.7783 35.5224 59.7783 35.5224V35.8704C59.7783 36.0437 59.9517 35.8704 59.9517 35.8704C60.1263 35.8704 60.1263 35.8704 60.301 35.6957C60.301 35.5224 60.4743 35.1744 60.4743 34.9997V34.305V33.609Z" fill="#00AFED"/>
<path fill-rule="evenodd" clip-rule="evenodd" d="M67.4407 29.0875C67.4407 29.0875 67.7887 30.1302 67.9633 30.4782C67.9633 30.8262 67.9633 31.3489 68.3113 31.3489C68.486 31.1742 68.3113 30.3049 67.9633 29.6089C67.7887 29.4355 67.4407 29.0875 67.4407 29.0875Z" fill="#00AFED"/>
<path fill-rule="evenodd" clip-rule="evenodd" d="M64.3057 35.3479C64.3057 35.3479 64.8283 34.3039 64.8283 33.9572C64.6537 33.6092 64.6537 33.0879 64.4803 33.0879C64.3057 33.2612 64.4803 33.7826 64.4803 33.9572C64.3057 34.4786 64.3057 35.3479 64.3057 35.3479Z" fill="#00AFED"/>
<path fill-rule="evenodd" clip-rule="evenodd" d="M66.0474 27.8699C66.0474 27.8699 65.8727 26.8273 66.0474 27.1739C66.57 28.3913 66.3954 28.9139 66.222 28.9139L66.0474 27.8699Z" fill="#00AFED"/>
<path fill-rule="evenodd" clip-rule="evenodd" d="M74.4064 90.8239H73.5358V90.3025C73.5358 90.3025 73.3611 90.4759 73.3611 90.8239C73.3611 91.1719 73.5358 91.3452 73.5358 91.3452C73.5358 91.3452 73.8838 91.3452 74.0584 91.1719C74.0584 91.1719 74.2318 90.9985 74.4064 90.8239Z" fill="#00AFED"/>
<path fill-rule="evenodd" clip-rule="evenodd" d="M69.8786 86.1287C69.704 85.9554 69.5306 85.7807 69.356 85.7807C68.4853 85.7807 67.7893 88.2154 67.7893 90.3021C67.9626 92.2154 68.1373 93.4327 69.008 93.4327C69.1826 93.6061 69.1826 93.4327 69.356 93.4327C69.356 93.4327 68.4853 92.9114 68.4853 89.6074C68.4853 89.6074 68.66 86.8247 69.8786 86.1287" fill="#00AFED"/>
<path fill-rule="evenodd" clip-rule="evenodd" d="M71.7944 92.3891C71.6197 92.5624 71.4464 92.7371 71.2717 92.7371C70.9237 92.7371 70.749 92.0411 70.5757 91.3451H71.2717C71.2717 91.8677 71.4464 92.2157 71.6197 92.3891H71.7944Z" fill="#00AFED"/>
<path fill-rule="evenodd" clip-rule="evenodd" d="M73.1874 93.0847L72.1421 92.9114V91.3461H73.1874V93.0847Z" fill="#00AFED"/>
<path fill-rule="evenodd" clip-rule="evenodd" d="M64.48 91.1718C64.48 91.1718 64.48 92.3892 64.6546 93.0852C64.828 93.6065 65.0026 93.9545 65.0026 93.9545L64.48 94.3025V91.1718Z" fill="#00AFED"/>
<path fill-rule="evenodd" clip-rule="evenodd" d="M66.2214 91.3457C66.2214 91.3457 66.2214 92.3897 66.5694 92.911C66.9188 93.7803 67.4401 93.4323 67.4401 93.4323L66.2214 94.4763V91.3457Z" fill="#00AFED"/>
<path fill-rule="evenodd" clip-rule="evenodd" d="M73.1872 90.8239H71.4459L71.7939 91.3453H72.3166V91.6933C72.1419 91.6933 72.1419 92.3893 71.7939 92.3893C71.6206 92.3893 71.4459 92.0413 71.2712 91.6933C71.2712 91.3453 71.0979 90.6506 71.0979 90.6506L73.1872 90.8239Z" fill="#00AFED"/>
<path fill-rule="evenodd" clip-rule="evenodd" d="M72.3165 91.3456C72.3165 92.2149 72.3165 92.0416 72.1418 92.5629C72.1418 92.5629 71.9685 92.7363 71.6205 93.0843C71.0978 93.2589 70.9232 93.0843 70.7498 92.9109C70.4005 92.5629 70.4005 92.0416 70.4005 92.0416H70.0525H69.8792L70.4005 93.6069H71.2712L72.3165 91.3456Z" fill="#00AFED"/>
<path d="M62.564 15.0456C36.1813 15.0456 14.7173 36.4003 14.7173 62.651C14.7173 88.9976 36.1813 110.431 62.564 110.431C88.9467 110.431 110.412 88.9976 110.412 62.651C110.412 36.4003 88.9467 15.0456 62.564 15.0456ZM62.564 111.563C35.556 111.563 13.584 89.6216 13.584 62.651C13.584 35.7763 35.556 13.9123 62.564 13.9123C89.572 13.9123 111.545 35.7763 111.545 62.651C111.545 89.6216 89.572 111.563 62.564 111.563ZM62.564 1.13363C28.6907 1.13363 1.13333 28.6523 1.13333 62.4776C1.13333 96.303 28.6907 123.822 62.564 123.822C96.4373 123.822 123.995 96.303 123.995 62.4776C123.995 28.6523 96.4373 1.13363 62.564 1.13363ZM62.564 124.955C28.0667 124.955 0 96.927 0 62.4776C0 28.027 28.0667 0.000292279 62.564 0.000292279C97.0627 0.000292279 125.128 28.027 125.128 62.4776C125.128 96.927 97.0627 124.955 62.564 124.955Z" fill="#00AFED"/>
<path d="M80.4708 43.2372C80.5228 43.3052 80.5748 43.3706 80.6135 43.4079C81.2082 43.9159 81.9242 43.8466 82.2055 43.7959C82.6388 43.7119 82.8642 43.5252 82.8935 43.4706L82.9202 43.3546C83.2162 42.7026 83.1908 42.1186 82.8482 41.7132C82.4708 41.2679 81.7562 41.0759 80.8868 41.1559C81.5628 41.7492 81.9842 42.1692 82.0068 42.1932L81.4615 42.7892L80.9828 42.3839C80.2348 41.7479 79.6415 41.2426 78.8668 40.9692H78.0602C77.9228 41.0519 77.7335 41.1319 77.4855 41.2319L77.2695 41.6639C77.3002 41.7332 77.3602 41.8346 77.4388 41.9546C77.4895 42.0279 77.5402 42.1012 77.5908 42.1772C78.0122 42.7639 78.7055 43.5692 79.0322 43.6506C79.2308 43.7439 79.4788 43.7812 79.8388 43.7599C79.5028 43.3599 79.4415 43.0599 79.6455 42.8532L79.9308 42.5666L80.2642 42.8866C80.3988 43.0212 80.4388 43.1319 80.4668 43.2239C80.4682 43.2279 80.4682 43.2319 80.4708 43.2372ZM63.2628 43.6626C64.1495 44.1306 64.9748 43.9946 65.9362 43.6679C65.9015 43.6159 65.8668 43.5639 65.8335 43.5119C65.4788 43.0799 65.1535 42.5692 64.9588 42.1692C64.4735 41.4999 63.9855 41.1159 63.1322 41.1639C63.8028 41.7532 64.2215 42.1692 64.2428 42.1919L63.6988 42.7892L63.2202 42.3852C62.4722 41.7492 61.8775 41.2426 61.1042 40.9692H60.3775L59.7228 41.2319L59.5842 41.5079C59.8202 41.7919 60.0415 42.1106 60.2695 42.4386C60.5162 42.7932 60.7815 43.1772 61.1002 43.5679C61.1628 43.6106 61.2202 43.6386 61.2695 43.6506C61.4802 43.7492 61.7442 43.7826 62.1415 43.7559C62.1175 43.7106 62.0988 43.6746 62.0828 43.6466C62.0428 43.5972 61.9828 43.5252 61.8975 43.4292L61.6348 43.1372L62.1868 42.5746L62.5015 42.8866C62.6428 43.0292 62.7015 43.0946 62.7775 43.2279C62.8348 43.3079 62.8775 43.3786 62.9082 43.4452C62.9815 43.4959 63.0562 43.5439 63.1295 43.5879C63.1708 43.6052 63.2148 43.6292 63.2628 43.6626M51.5962 43.6972C52.3228 44.0932 53.1495 44.0199 54.1522 43.7012C53.6975 43.1892 53.2628 42.5106 53.0562 42.0399C52.5762 41.4532 52.0908 41.1386 51.2908 41.1639C51.4615 41.3159 51.6175 41.4546 51.7535 41.5799C51.9828 41.7826 52.1988 41.9906 52.4015 42.1919V42.1932L51.8295 42.7652C51.8255 42.7612 51.6175 42.5546 51.2655 42.2306C50.5482 41.5906 49.9228 41.1999 49.2615 40.9692H48.5948C48.5002 41.0186 48.3868 41.0639 48.2602 41.1146C48.1962 41.1399 48.1308 41.1652 48.0762 41.1879L47.8375 41.6652C47.8615 41.7199 47.9002 41.7919 47.9508 41.8746C48.0802 42.0546 48.2055 42.2426 48.3322 42.4372C48.7308 42.9759 49.2455 43.5759 49.4588 43.6599C49.7255 43.7492 50.0042 43.7812 50.3908 43.7626L50.2748 43.6466C50.2442 43.6172 50.2135 43.5866 50.1842 43.5559L50.0868 43.4586L50.0908 43.4546C49.9242 43.2612 49.8388 43.0692 50.0522 42.8532L50.3362 42.5666L51.1815 43.4079C51.2775 43.4906 51.3748 43.5626 51.4748 43.6252C51.5135 43.6399 51.5548 43.6586 51.5988 43.6812L51.5962 43.6972ZM57.5108 43.7452C58.3002 44.0999 59.0628 43.9892 60.0228 43.6999C59.4068 43.0626 58.7975 42.1639 58.6922 41.7252C58.2962 41.3386 57.8588 41.1386 57.2108 41.1639C57.3855 41.3172 57.5428 41.4586 57.6802 41.5852C57.9082 41.7866 58.1215 41.9919 58.3228 42.1919L57.7508 42.7652C57.7455 42.7599 57.5402 42.5559 57.1922 42.2359C56.4722 41.5932 55.8455 41.1999 55.1828 40.9692H54.4575C54.2962 41.0359 54.1202 41.1119 54.0095 41.1626L53.7708 41.6412C53.9668 41.8892 54.1548 42.1599 54.3482 42.4386C54.5922 42.7906 54.8562 43.1692 55.1695 43.5572C55.2362 43.6052 55.2962 43.6372 55.3482 43.6506C55.5508 43.7452 55.8095 43.7786 56.2215 43.7586C56.1975 43.7106 56.1788 43.6732 56.1615 43.6452C56.1202 43.5959 56.0615 43.5239 55.9775 43.4292L55.7135 43.1372L56.2655 42.5746L56.5802 42.8866C56.7202 43.0279 56.7788 43.0932 56.8548 43.2252C56.9135 43.3079 56.9562 43.3786 56.9868 43.4452C57.0428 43.4839 57.0975 43.5199 57.1535 43.5546C57.2348 43.5706 57.3535 43.5972 57.5202 43.6812L57.5108 43.7452ZM45.2988 43.4372C46.1828 44.1519 47.2002 44.0452 48.2802 43.7959C48.0642 43.4986 47.8748 43.2119 47.7002 42.9479C47.0402 41.9439 46.6362 41.3332 45.6748 41.3332H45.6588C46.2615 41.8026 46.6322 42.1719 46.6535 42.1919L46.1095 42.7892L45.7162 42.4586C44.9028 41.7692 44.3148 41.2719 43.5148 41.1386L43.4015 41.1012C43.4015 41.1012 43.1548 40.9852 42.7855 40.9706L42.1335 41.2319L41.9082 41.6812C42.0642 42.9132 42.4362 43.1826 43.7228 43.6639C43.8922 43.7466 44.1282 43.7826 44.4695 43.7999C44.2895 43.5706 44.1948 43.2919 44.1935 43.2879L44.1122 42.9892L44.6482 42.6412L44.9122 42.8852C45.1122 43.0866 45.1455 43.1359 45.2988 43.4372M68.8028 43.4266C69.8308 44.1599 70.7442 44.0479 71.8242 43.7906C71.7122 43.6239 71.6068 43.4599 71.5068 43.2999C71.1602 42.8852 70.8495 42.4292 70.6735 42.0759C70.2842 41.6119 69.8655 41.3412 69.2202 41.3346C69.5522 41.5986 69.8655 41.8932 70.1642 42.1919L69.5935 42.7652C69.5868 42.7586 68.9602 42.1386 68.0282 41.5012C67.7122 41.3252 67.3788 41.1972 67.0255 41.1386L66.8975 41.1172L66.8108 41.0306C66.8202 41.0466 66.6788 40.9786 66.2975 40.9706C66.1362 41.0359 65.9615 41.1119 65.8522 41.1626L65.5988 41.6679C65.6015 41.6746 65.6042 41.6799 65.6068 41.6879C65.8042 41.9586 65.9908 42.2532 66.1828 42.5572C66.2735 42.7012 66.3668 42.8492 66.4655 42.9999C66.7375 43.3346 67.0122 43.6066 67.1895 43.6506C67.3895 43.7439 67.6575 43.7839 68.0588 43.7999C67.6815 43.2946 67.5588 43.0826 67.8362 42.8399L68.1202 42.5932L68.4228 42.8866C68.6188 43.0839 68.6548 43.1346 68.8028 43.4266M74.7242 43.4266C75.7415 44.1532 76.6468 44.0506 77.7135 43.7986C77.4962 43.4999 77.3068 43.2119 77.1322 42.9479C76.4682 41.9399 76.0948 41.3439 75.0895 41.3332C75.6922 41.8026 76.0642 42.1719 76.0855 42.1919L75.5415 42.7892L75.1482 42.4586C74.3348 41.7692 73.7468 41.2719 72.9468 41.1386L72.8322 41.1012C72.8322 41.1012 72.5868 40.9852 72.2162 40.9706L71.5655 41.2319L71.3588 41.6412C71.6215 41.9679 71.8588 42.3426 72.1042 42.7319C72.1095 42.7399 72.1148 42.7492 72.1202 42.7572C72.4855 43.1932 72.8855 43.5946 73.1108 43.6506C73.3042 43.7412 73.5535 43.7812 73.9002 43.7986C73.7202 43.5692 73.6255 43.2919 73.6242 43.2879L73.5442 42.9892L74.0802 42.6412L74.3428 42.8852C74.5402 43.0839 74.5762 43.1346 74.7242 43.4266M76.4002 44.7986C76.0335 44.7986 75.6628 44.7479 75.2842 44.6212H74.9295C73.8215 44.6212 73.2668 44.6212 72.8322 44.4052C72.8135 44.4012 72.7948 44.3959 72.7762 44.3892L72.4655 44.4666C71.3735 44.7399 70.3295 45.0039 69.2055 44.5639L69.1815 44.6212C67.8828 44.6212 67.3455 44.6212 66.9108 44.4052C66.8242 44.3852 66.7295 44.3399 66.6308 44.2786C65.4082 44.7306 64.2722 45.0386 63.0442 44.4599C61.9602 44.6346 61.4175 44.6186 60.9908 44.4052C60.9215 44.3879 60.8468 44.3572 60.7668 44.3132C59.6135 44.6959 58.4255 45.0412 57.1655 44.4759C56.0055 44.6306 55.4802 44.6092 55.0695 44.4052C55.0015 44.3892 54.9295 44.3586 54.8548 44.3172C53.7388 44.7239 52.5002 45.0412 51.3308 44.4679C50.3148 44.6266 49.7655 44.6146 49.2015 44.4266C49.1895 44.4226 49.1775 44.4186 49.1655 44.4146L49.0775 44.4359C48.0322 44.6972 46.8802 44.9839 45.7922 44.6212H45.4975C44.3908 44.6212 43.8348 44.6212 43.4015 44.4052C41.9922 43.8812 41.2882 43.4306 41.0895 41.6532L41.0762 41.5346L41.5468 40.5946L42.7108 40.1599C43.2002 40.1599 43.5602 40.2892 43.7015 40.3492C44.0415 40.4119 44.3468 40.5212 44.6348 40.6666C45.8735 40.3612 46.6428 40.5866 47.2308 41.0706L47.3348 40.8599C47.3495 40.6066 47.6015 40.5066 47.9602 40.3639C48.0802 40.3159 48.2002 40.2692 48.2522 40.2399L48.4162 40.5079L48.4082 40.5266L48.4375 40.5799L48.4588 40.5746V40.1599L49.4562 40.1812C49.7388 40.2746 50.0068 40.3919 50.2602 40.5239L50.2695 40.5226C51.6695 40.1506 52.5202 40.4292 53.1828 41.0066L53.2522 40.8692C53.2602 40.5759 53.5722 40.4519 54.2295 40.1892L54.3788 40.1599L55.3775 40.1812C55.6602 40.2746 55.9268 40.3919 56.1815 40.5239L56.1908 40.5226C57.5055 40.1732 58.3362 40.3986 58.9802 40.9052L59.1362 40.5946L60.3002 40.1599L61.2988 40.1812C61.5802 40.2746 61.8388 40.3932 62.0842 40.5292L62.1108 40.5226C63.5242 40.1439 64.3735 40.4279 65.0202 41.0172L65.0948 40.8692C65.1028 40.5759 65.4148 40.4519 66.0708 40.1892L66.2215 40.1599C66.7762 40.1599 67.0815 40.2599 67.2482 40.3559C67.5722 40.4186 67.8775 40.5239 68.1668 40.6612C69.3735 40.3719 70.1562 40.5719 70.7575 41.0359L70.9788 40.5946L72.1428 40.1599C72.6308 40.1599 72.9922 40.2892 73.1322 40.3492C73.4735 40.4119 73.7775 40.5212 74.0655 40.6666C75.3055 40.3612 76.0748 40.5852 76.6615 41.0706L76.9002 40.5946L77.0428 40.5372C77.2868 40.4399 77.5935 40.3066 77.6602 40.2639L77.8642 40.5852L77.8895 40.5786V40.1599L79.0615 40.1812C79.3442 40.2746 79.6028 40.3932 79.8482 40.5292L79.8748 40.5226C81.4228 40.1092 82.7642 40.3612 83.4655 41.1906C84.0015 41.8252 84.0802 42.7106 83.6842 43.6266C83.6348 43.9292 83.3748 44.2079 82.9508 44.4026C82.3735 44.6666 81.5708 44.7479 80.8242 44.4572C79.7295 44.6332 79.1815 44.6186 78.7535 44.4052C78.7348 44.4012 78.7162 44.3959 78.6975 44.3892L78.3882 44.4666C77.7175 44.6346 77.0642 44.7986 76.4002 44.7986" fill="#00AFED"/>
<path d="M39.13 46.7295C39.1246 48.4375 39.0926 50.4121 39.058 52.5388C38.9126 61.5481 38.7113 73.8855 40.5033 79.3895C45.422 93.7841 56.718 104.041 62.9193 106.543C69.8513 103.961 79.762 93.6241 84.6273 79.3828C86.5766 73.8228 86.3806 61.3561 86.2393 52.2535C86.2073 50.2348 86.178 48.3601 86.1726 46.7295H39.13ZM62.9073 107.451L62.7593 107.393C56.2553 104.868 44.7993 94.5921 39.6966 79.6575C37.8606 74.0135 38.054 62.0988 38.2086 52.5255C38.246 50.2255 38.2806 48.1028 38.2806 46.3041V45.8788H87.022V46.3041C87.022 48.0281 87.054 50.0495 87.0886 52.2401C87.2313 61.4068 87.4286 73.9615 85.4313 79.6601C80.4446 94.2521 70.182 104.843 63.0566 107.397L62.9073 107.451Z" fill="#00AFED"/>
<path d="M77.7155 75.9813H75.1035V75.7547H77.7155V75.9813Z" fill="#00AFED"/>
<path d="M76.4633 75.8681H76.1807V75.5201H76.4633V75.8681ZM77.4007 83.0121L76.7167 76.3588H76.4633V82.9987H76.1807V76.3588H75.9313L75.418 83.0094L75.1367 82.9881L75.646 76.3588H75.5793L74.8953 83.0121L74.614 82.9841L75.3234 76.0747H77.3207L78.03 82.9841L77.7473 83.0121L77.0647 76.3588H77.002L77.682 82.9841L77.4007 83.0121Z" fill="#00AFED"/>
<path d="M79.2822 83.1121H73.1875V82.8854H79.2822V83.1121Z" fill="#00AFED"/>
<path d="M77.0194 77.0533H75.7994V76.7693H77.0194V77.0533ZM77.0194 77.5747H75.626V77.2906H77.0194V77.5747ZM77.0194 78.2707H75.626V77.9867H77.0194V78.2707ZM77.1927 79.14H75.626V78.856H77.1927V79.14ZM77.1927 79.836H75.4514V79.552H77.1927V79.836ZM77.3674 80.7067H75.4514V80.4226H77.3674V80.7067ZM49.122 80.7373H48.8394V78.3027H49.122V80.7373ZM77.3674 81.7493H75.4514V81.4653H77.3674V81.7493ZM77.3674 82.6187H75.278V82.3347H77.3674V82.6187Z" fill="#00AFED"/>
<path d="M46.8427 81.117H51.1187L48.98 78.525L46.8427 81.117ZM51.4187 81.401H46.5427C46.4867 81.401 46.4373 81.369 46.4147 81.3197C46.3907 81.2703 46.3987 81.2117 46.4333 81.169L48.872 78.2117C48.9253 78.149 49.036 78.149 49.0893 78.2117L51.528 81.169C51.5627 81.2117 51.5707 81.2703 51.5467 81.3197C51.5227 81.369 51.4733 81.401 51.4187 81.401Z" fill="#00AFED"/>
<path d="M49.5385 67.0262L49.3865 66.2715H48.7492L48.5972 67.0262L48.3199 66.9715L48.5159 65.9875H49.6199L49.8159 66.9715L49.5385 67.0262ZM48.2879 69.2915H49.7785L49.6839 68.5329H48.4105L48.2879 69.2915ZM48.2839 69.3142L48.1745 69.9955L48.5119 69.5755H48.2839V69.3142ZM48.4052 70.1609H49.8865L49.8132 69.5755H48.8745L48.4052 70.1609ZM47.9785 71.2049H50.0172L49.9225 70.4449H48.1092V70.3942L47.9785 71.2049ZM47.9359 71.4702L47.8772 71.8355L48.3639 71.4889H47.9359V71.4702ZM49.5465 71.4889L50.1119 71.9582L50.0252 71.2702V71.4889H49.5465ZM48.0292 72.0742H49.8079L49.1039 71.4889H48.8519L48.0292 72.0742ZM50.2332 72.9302L50.1625 72.3582H47.7919L47.7265 72.7609L47.4479 72.7155L47.5385 72.1489L47.5052 72.1009L47.5519 72.0675L48.3185 67.3249L48.5985 67.3689L48.4559 68.2489H49.5559L49.0452 67.6089L49.2652 67.4315L49.5972 67.8462L49.5372 67.3649L49.8185 67.3289L49.9359 68.2689L49.9625 68.3022L49.9425 68.3169L50.5145 72.8942L50.2332 72.9302ZM49.5732 73.5755L49.8785 74.1075L50.1452 73.5755H49.5732ZM47.5999 74.3342H47.8799L47.6625 73.8995L47.5999 74.3342ZM48.1972 74.3342H49.6812L49.2465 73.5755H47.8172L48.1972 74.3342ZM50.0812 74.3342H50.3439L50.2919 73.9142L50.0812 74.3342ZM50.1705 74.6182L50.4385 75.0862L50.3799 74.6182H50.1705ZM47.4212 75.5609L50.4705 75.7142L49.8439 74.6182H47.5585L47.4212 75.5609ZM49.5639 75.9529L50.0452 76.6262L50.4652 75.9969L49.5639 75.9529ZM47.4905 75.8489L47.9759 76.6955L48.5972 75.9035L47.4905 75.8489ZM47.2452 76.7689H47.6919L47.3359 76.1475L47.2452 76.7689ZM48.2772 76.7689H49.7999L49.2132 75.9502L49.2345 75.9355L48.8692 75.9182L48.9172 75.9555L48.2772 76.7689ZM50.2905 76.7689H50.6492L50.5919 76.3169L50.2905 76.7689ZM50.3505 77.0529L50.7559 77.6182L50.6839 77.0529H50.3505ZM47.2039 77.0529L47.0919 77.8169L47.6945 77.0529H47.2039ZM47.1825 78.1609H50.7945L50.0025 77.0529H48.0545L47.1825 78.1609ZM50.9065 78.8302L50.4399 79.5769L50.9972 79.5555L50.9065 78.8302ZM47.1465 78.4449L47.8825 79.6182L47.7799 79.6835L50.0972 79.5915L50.8145 78.4449H47.1465ZM46.9652 78.6889L46.8145 79.7222L47.5919 79.6902L46.9652 78.6889ZM46.3585 82.8569H50.0585V81.4649H51.2372L51.0332 79.8369L46.7732 80.0062L46.3585 82.8569ZM50.3412 82.8569H51.4105L51.2719 81.7489H50.3412V82.8569ZM51.6959 82.8569H52.6705V81.7489H51.5572L51.6959 82.8569ZM51.4519 83.1902L51.4465 83.1409H46.0305L47.4465 73.4129L47.5879 73.4329V73.2915H50.3745V73.4329L50.5145 73.4155L50.8039 75.7262L50.8452 75.7982L50.8145 75.8155L50.8399 75.9475L50.8332 75.9569L51.1012 78.1022L51.1852 78.2195L51.1212 78.2662L51.1305 78.3409L51.1905 78.3782L51.1452 78.4502L51.5225 81.4649H52.9532V83.1409H51.7319L51.7332 83.1542L51.4519 83.1902Z" fill="#00AFED"/>
<path d="M48.9275 66.9987H48.6848V66.1294H48.9275V66.9987ZM49.2768 66.9987H49.0341V66.1294H49.2768V66.9987ZM48.9275 72.9121H48.6848V67.3468H48.9275V72.9121ZM49.2768 72.9121H49.0341V67.3468H49.2768V72.9121ZM49.2075 78.3068L49.0341 73.2641L49.2755 73.2548L49.4501 78.2987L49.2075 78.3068ZM48.9275 78.4761H48.6848V73.4321H48.9275V78.4761Z" fill="#00AFED"/>
<path d="M47.3555 75.775L47.1235 75.6137L48.6889 73.3524L48.9222 73.5137L47.3555 75.775Z" fill="#00AFED"/>
<path d="M47.4822 73.1894H50.6542V72.9814H47.4822V73.1894ZM51.1395 73.676H46.9968V72.4947H51.1395V73.676Z" fill="#00AFED"/>
<path d="M50.1091 71.2817L49.0651 70.4124L49.2451 70.1937L50.2904 71.0631L50.1091 71.2817ZM48.0437 71.4364L47.8264 71.2564L48.6971 70.2124L48.9144 70.3937L48.0437 71.4364Z" fill="#00AFED"/>
<path d="M50.2688 67.5894H47.8674V66.7547H50.2688V67.5894Z" fill="#00AFED"/>
<path d="M48.4055 68.4631L48.1629 68.3177L48.6842 67.4484L48.9282 67.5937L48.4055 68.4631ZM49.7402 69.5231L49.0442 68.6524L49.2655 68.4751L49.9615 69.3457L49.7402 69.5231ZM48.2202 69.5231L47.9989 69.3457L48.6962 68.4751L48.9162 68.6524L48.2202 69.5231ZM49.9149 70.3911L49.2189 69.5231L49.4389 69.3457L50.1362 70.2137L49.9149 70.3911ZM47.2055 82.3164L46.9229 82.2884L47.4589 76.9444H47.5869C47.6575 76.9444 47.7229 76.9724 47.7749 77.0271C47.9949 77.2524 47.9922 77.9644 47.9615 79.1111C47.9469 79.6817 47.9255 80.4564 48.0095 80.6124C48.1829 80.6631 48.2455 80.6391 48.2655 80.6231C48.3162 80.5857 48.3162 80.4631 48.3162 80.3897L48.3322 80.3257C48.5429 79.9057 48.9629 79.9004 48.9802 79.9004L48.9815 80.1844C48.9709 80.1844 48.7349 80.1911 48.6002 80.4244C48.5989 80.5484 48.5842 80.7417 48.4309 80.8537C48.3029 80.9444 48.1269 80.9497 47.8909 80.8724C47.6549 80.7551 47.6469 80.2951 47.6789 79.1044C47.6895 78.6751 47.7055 78.0577 47.6735 77.6471L47.2055 82.3164Z" fill="#00AFED"/>
<path d="M45.8741 82.9984H45.4688V82.4477H46.7167V82.8531H45.8741V82.9984Z" fill="#00AFED"/>
<path d="M48.5851 66.8878L48.3318 66.7612L48.6798 66.0665L48.9331 66.1932L48.5851 66.8878ZM49.3758 66.8878L49.0278 66.1932L49.2825 66.0665L49.6291 66.7612L49.3758 66.8878Z" fill="#00AFED"/>
<path d="M63.6495 51.0258C63.9615 51.2231 64.2855 51.4511 64.6108 51.6991C64.9228 51.4458 65.2388 51.2124 65.5468 51.0124C65.3295 49.8484 64.9842 49.1884 64.6548 49.1884H64.6535C64.2975 49.1884 63.9068 49.9018 63.6495 51.0258ZM65.1455 52.1231C65.3348 52.1311 65.5202 52.1404 65.7015 52.1538C65.6762 51.8658 65.6428 51.5951 65.6042 51.3444C65.3695 51.5084 65.1255 51.6951 64.8722 51.9018C64.9628 51.9751 65.0535 52.0484 65.1455 52.1231ZM63.5908 51.3004C63.5375 51.5698 63.4922 51.8604 63.4548 52.1658C63.6682 52.1471 63.8868 52.1338 64.1095 52.1258C64.1922 52.0524 64.2748 51.9804 64.3575 51.9084C64.0935 51.6791 63.8375 51.4751 63.5908 51.3004M66.0602 52.1858C66.5295 52.2338 66.9668 52.3058 67.3615 52.3978C67.7722 51.7658 67.9882 51.2311 67.9962 50.8871C67.9962 50.8658 67.9962 50.8458 67.9948 50.8258C67.9868 50.7031 67.9522 50.6111 67.8922 50.5498C67.8188 50.4951 67.7282 50.4604 67.6215 50.4458C67.2588 50.4298 66.6442 50.6618 65.8948 51.1484C65.9628 51.4698 66.0188 51.8178 66.0602 52.1858ZM61.4028 50.5644C61.3415 50.6338 61.3108 50.7378 61.3108 50.8711C61.3108 51.2404 61.5362 51.7858 61.9188 52.4044C62.2722 52.3204 62.6602 52.2538 63.0748 52.2044C63.1228 51.8018 63.1882 51.4231 63.2682 51.0778C62.6362 50.6684 62.1015 50.4538 61.7562 50.4458C61.6175 50.4471 61.5122 50.4698 61.4388 50.5298C61.4388 50.5298 61.4388 50.5311 61.4375 50.5311C61.4388 50.5311 61.4362 50.5324 61.4375 50.5311H61.4362V50.5324C61.4348 50.5324 61.4362 50.5324 61.4348 50.5338H61.4335V50.5351H61.4322C61.4322 50.5364 61.4322 50.5364 61.4308 50.5364C61.4295 50.5364 61.4295 50.5378 61.4295 50.5378C61.4295 50.5378 61.4295 50.5378 61.4282 50.5391H61.4268V50.5404C61.4255 50.5404 61.4255 50.5418 61.4255 50.5418H61.4242C61.4242 50.5431 61.4242 50.5431 61.4242 50.5431H61.4228V50.5444C61.4228 50.5444 61.4228 50.5444 61.4215 50.5444V50.5458H61.4202C61.4202 50.5471 61.4202 50.5471 61.4202 50.5471C61.4188 50.5471 61.4188 50.5471 61.4188 50.5471V50.5484H61.4175V50.5498C61.4175 50.5498 61.4175 50.5458 61.4162 50.5511H61.4148C61.4148 50.5511 61.4148 50.5511 61.4148 50.5524H61.4135C61.4108 50.5564 61.4068 50.5591 61.4042 50.5631C61.4028 50.5631 61.4028 50.5644 61.4028 50.5644ZM65.6108 52.5244C65.6535 52.5618 65.6962 52.5991 65.7388 52.6378C65.7362 52.6031 65.7348 52.5671 65.7322 52.5324C65.6922 52.5298 65.6522 52.5271 65.6108 52.5244M63.4162 52.5458C63.4082 52.6284 63.4015 52.7124 63.3962 52.7978C63.4442 52.7524 63.4922 52.7084 63.5415 52.6644C63.5882 52.6164 63.6348 52.5711 63.6828 52.5244C63.5922 52.5311 63.5042 52.5378 63.4162 52.5458M65.2802 52.5058C65.3882 52.6151 65.4935 52.7284 65.5988 52.8444C65.6522 52.8924 65.7042 52.9404 65.7562 52.9884C65.7548 52.9724 65.7548 52.9551 65.7548 52.9378C65.7122 52.8951 65.6708 52.8538 65.6282 52.8111C65.5122 52.7044 65.3975 52.6031 65.2842 52.5058H65.2802ZM66.1428 53.3658C66.1708 53.3938 66.1988 53.4218 66.2268 53.4511C66.1988 53.4191 66.1708 53.3871 66.1428 53.3551C66.1428 53.3578 66.1428 53.3618 66.1428 53.3658ZM66.1295 53.0418C66.2668 53.1898 66.3975 53.3404 66.5242 53.4924C66.7562 53.2271 66.9615 52.9671 67.1402 52.7204C66.8188 52.6564 66.4695 52.6044 66.0975 52.5658C66.1108 52.7218 66.1215 52.8804 66.1295 53.0418M62.1295 52.7284C62.3015 52.9818 62.4975 53.2431 62.7108 53.5058C62.8028 53.4031 62.8988 53.2978 62.9975 53.1938C63.0055 52.9858 63.0188 52.7831 63.0362 52.5844C62.7148 52.6231 62.4108 52.6724 62.1295 52.7284ZM62.9415 53.7818C62.9562 53.7991 62.9708 53.8164 62.9855 53.8338V53.7818V53.7298C62.9708 53.7471 62.9562 53.7644 62.9415 53.7818M66.1482 53.6604C66.1482 53.7004 66.1482 53.7418 66.1482 53.7818C66.1482 53.8231 66.1482 53.8631 66.1482 53.9044C66.1868 53.8631 66.2255 53.8218 66.2628 53.7818C66.2255 53.7418 66.1868 53.7004 66.1482 53.6604ZM66.1428 54.1991C66.1428 54.2018 66.1428 54.2058 66.1428 54.2098C66.1722 54.1751 66.2028 54.1404 66.2322 54.1071C66.2028 54.1378 66.1722 54.1684 66.1428 54.1991ZM60.0535 53.7818C60.0535 54.1258 60.7215 54.5018 61.7828 54.7591C61.9748 54.4431 62.2068 54.1138 62.4775 53.7818C62.2068 53.4498 61.9748 53.1218 61.7828 52.8058C60.7202 53.0631 60.0535 53.4378 60.0535 53.7818ZM66.7588 53.7818C67.0215 54.1151 67.2562 54.4511 67.4562 54.7751C68.5588 54.5178 69.2548 54.1338 69.2548 53.7818C69.2548 53.4311 68.5588 53.0458 67.4575 52.7898C67.2562 53.1138 67.0215 53.4484 66.7588 53.7818M62.1295 54.8351C62.4108 54.8924 62.7148 54.9404 63.0362 54.9791C63.0188 54.7804 63.0055 54.5778 62.9975 54.3698C62.8988 54.2658 62.8028 54.1618 62.7108 54.0578C62.4975 54.3204 62.3015 54.5831 62.1295 54.8351ZM66.1295 54.5231C66.1215 54.6831 66.1108 54.8418 66.0975 54.9978C66.4695 54.9591 66.8188 54.9071 67.1402 54.8431C66.9615 54.5964 66.7575 54.3364 66.5255 54.0711C66.3975 54.2231 66.2668 54.3738 66.1295 54.5231M63.4162 55.0178C63.5042 55.0258 63.5922 55.0324 63.6828 55.0391C63.6335 54.9924 63.5855 54.9444 63.5375 54.8964C63.4895 54.8538 63.4428 54.8098 63.3962 54.7658C63.4015 54.8511 63.4082 54.9351 63.4162 55.0178ZM65.7388 54.9258C65.6962 54.9631 65.6535 55.0018 65.6108 55.0404C65.6522 55.0378 65.6922 55.0351 65.7322 55.0311C65.7348 54.9964 65.7362 54.9604 65.7388 54.9258M65.7562 54.5751C65.7028 54.6258 65.6482 54.6764 65.5922 54.7258C65.4895 54.8391 65.3855 54.9498 65.2802 55.0591H65.2842C65.3988 54.9591 65.5135 54.8564 65.6308 54.7511C65.6722 54.7084 65.7135 54.6671 65.7548 54.6258C65.7548 54.6084 65.7548 54.5924 65.7562 54.5751M64.1855 55.0644C64.4482 55.0724 64.7228 55.0751 64.9868 55.0684C65.1415 54.9151 65.2948 54.7538 65.4508 54.5831C65.5588 54.4844 65.6642 54.3858 65.7655 54.2871C65.7695 54.1231 65.7722 53.9551 65.7722 53.7818C65.7722 53.6098 65.7695 53.4404 65.7655 53.2764C65.6655 53.1791 65.5628 53.0844 65.4575 52.9871C65.3002 52.8151 65.1428 52.6511 64.9868 52.4951C64.7228 52.4898 64.4482 52.4911 64.1855 52.4991C64.0188 52.6524 63.8508 52.8138 63.6802 52.9844C63.5748 53.0898 63.4708 53.1964 63.3695 53.3044C63.3642 53.4604 63.3615 53.6204 63.3615 53.7818C63.3615 53.9444 63.3642 54.1031 63.3695 54.2604C63.4708 54.3671 63.5748 54.4738 63.6802 54.5791C63.8508 54.7498 64.0188 54.9111 64.1855 55.0644ZM64.8708 55.6618C65.1242 55.8684 65.3695 56.0551 65.6042 56.2191C65.6428 55.9684 65.6762 55.6978 65.7015 55.4098C65.5202 55.4231 65.3335 55.4324 65.1442 55.4404C65.0535 55.5151 64.9628 55.5898 64.8708 55.6618ZM63.4548 55.3978C63.4922 55.7044 63.5375 55.9951 63.5908 56.2644C63.8375 56.0884 64.0948 55.8844 64.3588 55.6551C64.2748 55.5844 64.1922 55.5111 64.1095 55.4378C63.8868 55.4298 63.6682 55.4164 63.4548 55.3978M61.4508 57.0444C61.5242 57.0978 61.6308 57.1231 61.7562 57.1191C62.1015 57.1098 62.6362 56.8951 63.2682 56.4858C63.1882 56.1418 63.1215 55.7631 63.0748 55.3591C62.6602 55.3111 62.2722 55.2431 61.9188 55.1591C61.5362 55.7778 61.3108 56.3231 61.3108 56.6924C61.3108 56.8298 61.3428 56.9351 61.4068 57.0044C61.4082 57.0058 61.4082 57.0058 61.4082 57.0058C61.4082 57.0058 61.4068 57.0098 61.4095 57.0071C61.4108 57.0071 61.4108 57.0084 61.4095 57.0084C61.4108 57.0084 61.4108 57.0084 61.4108 57.0098H61.4122V57.0111H61.4135V57.0124H61.4148C61.4148 57.0138 61.4148 57.0138 61.4148 57.0138H61.4162C61.4162 57.0151 61.4162 57.0151 61.4162 57.0151C61.4268 57.0258 61.4375 57.0338 61.4495 57.0431C61.4495 57.0444 61.4508 57.0444 61.4508 57.0444V57.0444ZM65.8948 56.4151C66.6015 56.8738 67.1855 57.1151 67.5562 57.1204C67.6922 57.1124 67.8055 57.0764 67.8962 57.0098C67.9548 56.9498 67.9868 56.8578 67.9948 56.7378C67.9962 56.7178 67.9962 56.6978 67.9962 56.6764C67.9882 56.3324 67.7722 55.7964 67.3615 55.1658C66.9668 55.2578 66.5295 55.3298 66.0602 55.3778C66.0188 55.7458 65.9628 56.0938 65.8948 56.4151M63.6495 56.5378C63.9068 57.6618 64.2975 58.3764 64.6535 58.3764H64.6548C64.9842 58.3751 65.3295 57.7151 65.5468 56.5511C65.2388 56.3511 64.9228 56.1178 64.6108 55.8644C64.2855 56.1124 63.9615 56.3404 63.6495 56.5378ZM64.6535 58.5778C64.1082 58.5778 63.6322 57.8618 63.3295 56.7324C62.8695 56.9991 62.4428 57.1898 62.0908 57.2738C61.9722 57.3018 61.8615 57.3191 61.7602 57.3204C61.7522 57.3218 61.7428 57.3218 61.7348 57.3218C61.5375 57.3218 61.3828 57.2671 61.2735 57.1578C61.2722 57.1578 61.2708 57.1604 61.2722 57.1551H61.2708C61.2708 57.1524 61.2695 57.1538 61.2695 57.1538C61.2695 57.1538 61.2695 57.1524 61.2682 57.1524C61.1482 57.0284 61.0895 56.8391 61.0948 56.5924C61.1042 56.2084 61.2748 55.6764 61.5988 55.0778C60.5255 54.7751 59.8508 54.3098 59.8508 53.7818C59.8508 53.2538 60.5255 52.7898 61.5988 52.4871C61.2748 51.8884 61.1042 51.3551 61.0948 50.9711C61.0895 50.7244 61.1468 50.5378 61.2668 50.4138C61.2682 50.4111 61.2682 50.4111 61.2682 50.4111C61.2695 50.4111 61.2695 50.4098 61.2695 50.4098C61.2708 50.4098 61.2682 50.4191 61.2722 50.4084C61.2722 50.4071 61.2735 50.4071 61.2735 50.4058C61.3868 50.2938 61.5535 50.2284 61.7602 50.2444C61.8562 50.2458 61.9588 50.2604 62.0695 50.2858C62.4268 50.3658 62.8602 50.5591 63.3295 50.8324C63.6322 49.7018 64.1082 48.9858 64.6535 48.9858H64.6548C64.7188 48.9858 64.7802 48.9991 64.8402 49.0244C65.2335 49.1884 65.5855 49.8684 65.8242 50.8391C66.5135 50.4284 67.1548 50.1911 67.6175 50.2458C67.7922 50.2524 67.9335 50.3058 68.0348 50.4058C68.0855 50.4564 68.1242 50.5178 68.1508 50.5911C68.1775 50.6578 68.1922 50.7324 68.1975 50.8151C68.1988 50.8378 68.1988 50.8618 68.1988 50.8858C68.1988 51.2871 67.9948 51.8471 67.6455 52.4698C68.7562 52.7724 69.4575 53.2431 69.4575 53.7818C69.4575 54.3204 68.7562 54.7924 67.6455 55.0951C67.9948 55.7164 68.1988 56.2764 68.1988 56.6778C68.1988 56.7018 68.1988 56.7258 68.1975 56.7471C68.1882 56.9204 68.1335 57.0591 68.0348 57.1578L68.0295 57.1631C67.9282 57.2604 67.7895 57.3124 67.6188 57.3191C67.1522 57.3751 66.5135 57.1364 65.8242 56.7244C65.5855 57.6951 65.2335 58.3751 64.8402 58.5404C64.7802 58.5644 64.7188 58.5778 64.6548 58.5778H64.6535Z" fill="#00AFED"/>
<path d="M71.0981 91.3134H70.5755V91.0294H71.0981V91.3134ZM73.1875 91.4867H71.6208V91.2028H73.1875V91.4867ZM69.9182 93.4774C69.7595 93.0001 69.3888 91.7507 69.3888 90.4761C69.3888 88.6441 69.9342 87.2294 70.7155 87.0347C71.1888 86.8747 71.3248 86.9827 71.4755 87.1667C71.4968 87.1907 71.5195 87.2187 71.5462 87.2454L71.3462 87.4467C71.3115 87.4121 71.2835 87.3788 71.2568 87.3468C71.1688 87.2388 71.1341 87.1948 70.7941 87.3068C70.2368 87.4468 69.6715 88.6681 69.6715 90.4761C69.6715 91.7107 70.0328 92.9227 70.1875 93.3881L69.9182 93.4774ZM65.6995 94.0961H64.3062V93.8121H65.6995V94.0961Z" fill="#00AFED"/>
<path d="M72.4582 96.5627H72.1755V94.9987H72.4582V96.5627Z" fill="#00AFED"/>
<path d="M62.706 92.7374H62.4233V90.1294H62.706V92.7374ZM66.7247 84.7694H66.886C66.9553 84.7361 67.038 84.7027 67.1207 84.6947C67.0994 84.1747 67.01 83.7081 66.9127 83.6601C66.8367 83.7214 66.7553 84.1947 66.7247 84.7694M64.886 86.6827H66.3994C66.618 85.9387 66.8967 85.3694 67.21 85.0534H66.918C66.8727 85.0588 66.762 85.1921 66.6967 85.3228L66.4287 85.2587C66.4287 85.1907 66.4287 85.1228 66.43 85.0534H66.0474C65.5767 85.0534 65.1713 85.6601 64.886 86.6827M69.4714 86.5774C69.5874 86.6561 69.7007 86.7454 69.81 86.8441C69.922 86.7121 70.0353 86.6081 70.1487 86.5321C70.1967 86.4841 70.2473 86.4468 70.298 86.4214C70.1033 86.3001 69.966 86.2708 69.878 86.2708C69.79 86.2708 69.6834 86.3361 69.5687 86.4587C69.5367 86.4947 69.5034 86.5348 69.4714 86.5774M64.798 87.0308H66.306C66.3114 87.0094 66.3167 86.9881 66.322 86.9668H64.8127C64.8073 86.9881 64.802 87.0094 64.798 87.0308ZM63.3353 87.3787H64.4407C64.574 86.6801 64.758 86.0721 64.994 85.6187C64.1834 85.8454 63.7273 86.5561 63.3873 87.2347C63.3687 87.2774 63.3527 87.3254 63.3353 87.3787ZM64.7233 87.3787H66.2247C66.2287 87.3574 66.234 87.3361 66.238 87.3147H64.7367C64.7327 87.3361 64.7273 87.3574 64.7233 87.3787ZM68.67 88.9401C68.7007 88.9441 68.73 88.9481 68.7607 88.9521C68.8247 88.9601 68.8887 88.9694 68.954 88.9788C69.0834 88.1641 69.342 87.5148 69.6394 87.0708C69.5354 86.9748 69.4287 86.8894 69.3167 86.8147C69.0287 87.3147 68.7833 88.0894 68.67 88.9401M60.6634 89.6388H60.9967C61.026 89.5508 61.062 89.4707 61.102 89.4014H60.9967C60.8914 89.4014 60.7674 89.4854 60.6634 89.6388ZM71.606 89.8121H72.134C72.054 89.5108 71.962 89.2174 71.8474 89.0428C71.6954 89.1321 71.6314 89.4668 71.606 89.8121ZM60.5074 89.9867H60.9087C60.9127 89.9654 60.9167 89.9441 60.9207 89.9227H60.5274C60.5207 89.9427 60.514 89.9641 60.5074 89.9867ZM70.5847 89.9867H70.9807C71.0233 89.4641 71.1327 88.8801 71.398 88.6734C71.3314 88.6041 71.23 88.5308 71.098 88.5308C70.9567 88.5308 70.6887 89.1654 70.5847 89.9867M61.5593 90.1601H62.074V90.0654L61.6153 89.9508C61.5993 90.0081 61.5793 90.0801 61.5593 90.1601M68.606 90.1001L68.866 90.1654V90.1281C68.866 89.8228 68.8834 89.5334 68.9154 89.2587C68.8514 89.2494 68.7873 89.2414 68.7233 89.2334C68.6953 89.2294 68.666 89.2254 68.638 89.2227C68.6274 89.3401 68.618 89.4587 68.6127 89.5787L68.8673 89.6427L68.7993 89.9187L68.6047 89.8694C68.6034 89.9468 68.6047 90.0228 68.606 90.1001ZM59.446 90.3348H60.1634C60.1727 90.1894 60.198 90.0507 60.234 89.9227H59.6673C59.6127 89.9907 59.5073 90.1361 59.446 90.3348ZM70.5527 90.3348H70.962C70.962 90.3134 70.9633 90.2921 70.9647 90.2708H70.5567C70.5553 90.2921 70.554 90.3134 70.5527 90.3348ZM70.5433 90.6827H70.9567V90.6508V90.6187H70.5433C70.542 90.6294 70.542 90.6401 70.542 90.6508C70.542 90.6614 70.542 90.6721 70.5433 90.6827ZM71.5993 90.8561H72.8807C72.8754 90.7921 72.8713 90.7228 72.8713 90.6508C72.8713 90.5108 72.8833 90.3841 72.9073 90.2708H71.6287C71.606 90.3614 71.5874 90.4868 71.5874 90.6508C71.5874 90.7361 71.5927 90.8041 71.5993 90.8561M72.6194 91.1401L72.9447 91.1761C72.942 91.1641 72.9367 91.1521 72.934 91.1401H72.6194ZM70.582 91.2028H70.9807C70.978 91.1814 70.9767 91.1601 70.9754 91.1401H70.574C70.5767 91.1614 70.5794 91.1828 70.582 91.2028ZM61.5033 90.4441C61.4927 90.5161 61.486 90.5868 61.486 90.6508C61.486 90.9694 61.5567 91.2201 61.6047 91.3521L62.074 91.2347V90.4441H61.5033ZM59.398 90.6187C59.398 90.6294 59.3967 90.6401 59.3967 90.6508C59.3967 90.9454 59.69 91.3507 59.7874 91.3787H60.2514C60.1927 91.1734 60.1594 90.9294 60.1594 90.6508V90.6187H59.398ZM60.4527 90.2708C60.446 90.3361 60.442 90.4041 60.442 90.4761V90.6508C60.442 91.4654 60.7647 91.8988 60.9967 91.8988H61.102C60.9247 91.5961 60.8553 91.1001 60.8553 90.6508C60.8553 90.5254 60.8607 90.3974 60.8713 90.2708H60.4527ZM61.5193 89.4014C61.3353 89.4014 61.138 89.9028 61.138 90.6508C61.138 91.3974 61.3353 91.8988 61.5193 91.8988C61.6913 91.8988 61.838 91.8707 61.8847 91.5747L61.4433 91.6854L61.3927 91.5828C61.3847 91.5681 61.2033 91.1988 61.2033 90.6508C61.2033 90.2841 61.378 89.7574 61.3847 89.7347L61.426 89.6108L61.898 89.7294C61.8847 89.4961 61.7713 89.4014 61.5193 89.4014ZM68.6313 90.7921C68.646 91.2494 68.6927 91.6494 68.7593 91.9921C68.8447 91.9747 68.9287 91.9548 69.01 91.9334C68.8914 91.2561 68.8674 90.5748 68.866 90.1734L68.7993 90.4401L68.6207 90.3961C68.6234 90.4187 68.6247 90.4414 68.626 90.4654V90.5081H68.834V90.7921H68.6313ZM71.2714 91.2907C71.3394 91.9121 71.5007 92.2467 71.6194 92.2467C71.758 92.2467 71.8673 92.1614 71.9687 91.9521V91.8988H71.9927C72.05 91.7681 72.106 91.5948 72.1633 91.3748L71.6047 91.3121H71.602C71.542 91.3121 71.3047 91.2601 71.3047 90.6508C71.3047 90.5881 71.306 90.5307 71.31 90.4761H71.3047C71.3047 89.8201 71.33 89.1654 71.6007 88.8814C71.4487 88.9254 71.2393 89.4908 71.2393 90.6508C71.2393 90.6614 71.2393 90.6721 71.2393 90.6827H71.2714V90.9668H71.2473C71.25 91.0494 71.2567 91.1281 71.2633 91.2028H71.2714V91.2907ZM68.8234 92.2681C68.8327 92.3041 68.842 92.3387 68.8527 92.3734L69.0953 92.3441C69.0847 92.3001 69.074 92.2561 69.0647 92.2121C68.986 92.2321 68.906 92.2507 68.8234 92.2681M70.63 91.4867C70.754 92.1054 70.978 92.5948 71.098 92.5948C71.1753 92.5948 71.2727 92.5228 71.3713 92.4321C71.1713 92.2548 71.0674 91.8627 71.0127 91.4867H70.63ZM68.9433 92.6494C68.9527 92.6734 68.962 92.6987 68.9727 92.7227L69.1913 92.6921C69.1847 92.6681 69.1767 92.6441 69.17 92.6201L68.9433 92.6494ZM69.102 92.9908C69.1087 93.0041 69.1167 93.0161 69.1234 93.0294L69.2953 92.9788C69.2927 92.9748 69.2914 92.9694 69.2887 92.9641L69.102 92.9908ZM62.3567 93.2907H62.7554C62.738 92.3654 62.7234 90.6588 62.8087 89.2374C62.646 89.2654 62.3567 89.3747 62.3567 89.7801V93.2907ZM67.73 93.4641H68.4847V93.1161L68.8447 93.1094C68.83 93.0841 68.818 93.0587 68.8047 93.0334L68.6794 93.0507L68.6394 92.7708L68.686 92.7641C68.6753 92.7374 68.666 92.7107 68.6567 92.6841L68.5033 92.7028L68.4673 92.4227L68.57 92.4094C68.5607 92.3788 68.5527 92.3481 68.5447 92.3161C68.3634 92.3414 68.17 92.3574 67.9633 92.3574V92.0734C68.1487 92.0734 68.3193 92.0601 68.482 92.0387C68.4087 91.6707 68.3633 91.2507 68.3487 90.7921H67.7887V90.5081H68.3434V90.4761C68.3394 90.4254 68.3353 90.3748 68.3327 90.3241L68.1034 90.2668L68.1713 89.9908L68.322 90.0281C68.3207 89.9521 68.3207 89.8761 68.322 89.7987L68.1034 89.7441L68.1713 89.4694L68.3327 89.5094C68.3393 89.4001 68.3473 89.2907 68.358 89.1827C68.1393 89.1494 67.9313 89.1081 67.7433 89.0454L67.834 88.7774C67.9993 88.8321 68.1887 88.8694 68.3913 88.9014C68.5113 88.0174 68.7713 87.2054 69.0753 86.6707C68.8847 86.5721 68.6793 86.4974 68.4513 86.4401L68.5193 86.1654C68.7767 86.2294 69.01 86.3174 69.2273 86.4321C69.2713 86.3708 69.3154 86.3161 69.3607 86.2668C69.4434 86.1774 69.5273 86.1094 69.61 86.0627C69.2407 85.6974 69.0994 85.5881 68.8807 85.5761L68.7154 85.6854C68.7047 85.6681 68.6927 85.6508 68.6807 85.6334C68.0487 85.9934 67.4073 87.7734 67.4073 90.6508C67.4073 91.6628 67.5754 92.6747 67.73 93.4641M63.9567 94.0961H62.7753L62.7714 93.9587C62.77 93.9267 62.766 93.7894 62.7607 93.5747H62.074V91.9001C61.982 92.0641 61.8167 92.1827 61.5193 92.1827H60.9967C60.762 92.1827 60.5193 92.0041 60.3553 91.6628H59.778C59.4847 91.6628 59.114 91.0348 59.114 90.6508C59.114 90.0761 59.4873 89.6961 59.5033 89.6801L59.5447 89.6388H60.342C60.4967 89.3241 60.7354 89.1174 60.9967 89.1174H61.5193C61.8247 89.1174 62.0314 89.2361 62.126 89.4587C62.2527 89.1041 62.5887 88.9721 62.8287 88.9467C62.886 88.1454 62.9807 87.4654 63.13 87.1161C63.534 86.3108 64.086 85.4707 65.1527 85.2921L65.1607 85.3374C65.4074 84.9774 65.702 84.7694 66.0474 84.7694H66.438C66.47 84.0561 66.5887 83.3787 66.918 83.3787C67.31 83.3787 67.3953 84.1934 67.406 84.7694H67.7887C68.2874 84.7694 68.5207 84.9321 68.79 85.2974C68.7954 85.2961 68.8007 85.2948 68.806 85.2934H68.814C69.2327 85.2934 69.4354 85.4868 69.9394 85.9894C70.186 86.0121 70.4687 86.1601 70.7887 86.4361C70.8514 86.4601 70.918 86.4894 70.986 86.5241L70.9554 86.5881C71.1447 86.7708 71.3447 86.9934 71.5567 87.2574C71.822 87.6534 71.8993 87.9548 71.982 88.2721C72.0167 88.4028 72.0527 88.5401 72.102 88.6921L71.9647 88.7387C72.178 88.9427 72.3073 89.3454 72.426 89.8121H73.122C73.2287 89.7001 73.3687 89.6388 73.5353 89.6388V89.7801L73.6353 89.6801C73.6553 89.7001 73.81 89.8601 73.8447 90.0534C74.0994 90.1508 74.374 90.3508 74.374 90.6508C74.374 90.9041 73.9647 91.3134 73.71 91.3134V91.0294C73.8087 91.0254 74.086 90.7494 74.09 90.6508C74.09 90.4241 73.674 90.2708 73.5353 90.2708V90.0188C73.518 89.9868 73.498 89.9548 73.4767 89.9281C73.1874 89.9828 73.1553 90.4441 73.1553 90.6508C73.1553 90.8694 73.1927 91.3787 73.5353 91.3787C73.5687 91.3761 73.5687 91.3654 73.5687 91.3454H73.8513C73.8513 91.4961 73.7687 91.5854 73.6767 91.6281V92.7374H73.562L73.114 93.1854L72.9127 92.9841L73.394 92.5041V91.6467C73.2847 91.6201 73.1913 91.5641 73.114 91.4801L72.4473 91.4054C72.4033 91.5774 72.358 91.7468 72.2993 91.8988H73.0127V92.1827H72.166C72.05 92.3747 71.8967 92.5067 71.682 92.5281C71.502 92.7067 71.3153 92.8787 71.098 92.8787C70.7353 92.8787 70.47 92.1774 70.3434 91.4867H69.7047V91.2028H70.2993C70.2887 91.1228 70.2794 91.0428 70.274 90.9668H69.7047V90.6827H70.2593V90.6508C70.2593 89.6708 70.586 88.2467 71.098 88.2467C71.4233 88.2467 71.622 88.4801 71.7033 88.6027C71.7313 88.6067 71.758 88.6134 71.7847 88.6228C71.7553 88.5254 71.7313 88.4334 71.7087 88.3427C71.6287 88.0361 71.5594 87.7707 71.3287 87.4254C71.0634 87.0947 70.8367 86.8574 70.646 86.6868C70.4687 86.6294 70.402 86.6761 70.3274 86.7507C70.2287 86.8161 70.1233 86.9161 70.0167 87.0468C70.126 87.1641 70.234 87.2934 70.3407 87.4347L70.114 87.6054C70.0247 87.4868 69.9367 87.3801 69.8474 87.2814C69.594 87.6787 69.3554 88.2601 69.234 89.0201C69.4007 89.0468 69.5687 89.0788 69.738 89.1214L69.67 89.3961C69.5113 89.3561 69.3527 89.3268 69.1954 89.3001C69.166 89.5588 69.1487 89.8348 69.1487 90.1281C69.1487 90.7708 69.1953 91.3534 69.2807 91.8561C69.4073 91.8161 69.5327 91.7747 69.6594 91.7334L69.7487 92.0014C69.6127 92.0468 69.4767 92.0921 69.3353 92.1348C69.3487 92.1948 69.362 92.2521 69.3767 92.3094L69.8607 92.2494L69.8967 92.5294L69.454 92.5854C69.4607 92.6067 69.4687 92.6294 69.4754 92.6521L69.858 92.5961L69.8887 92.8108L70.014 92.7747L70.0913 93.0481L69.846 93.1161H70.2273V93.4614C70.6687 93.4534 71.0354 93.4201 71.4007 93.2974L71.4914 93.5681C70.9927 93.7321 70.4914 93.7468 69.878 93.7481H67.498L67.4754 93.6348C67.3114 92.8161 67.1247 91.7374 67.1247 90.6508C67.1247 88.3321 67.55 86.4788 68.21 85.6908C67.6233 86.1748 67.0593 88.1374 67.0593 90.6508C67.0593 91.8574 67.2353 92.7321 67.4047 93.5787L67.1273 93.6348C66.9553 92.7748 66.7767 91.8854 66.7767 90.6508C66.7767 88.0668 67.3913 85.3961 68.4247 85.2948C68.2513 85.1094 68.09 85.0534 67.7887 85.0534C67.1207 85.0534 66.1887 87.1828 66.1887 90.6508V93.9548H65.906V90.6508C65.906 89.5601 66.0007 88.5388 66.1673 87.6628H64.6727C64.5273 88.5108 64.4473 89.5281 64.4473 90.6508V93.9548H64.1647V90.6508C64.1647 89.6134 64.2367 88.5734 64.3887 87.6628H63.2647C62.95 89.2028 63.0314 93.0388 63.0514 93.8121H63.9567V94.0961Z" fill="#00AFED"/>
<path d="M60.4421 95.7331L72.2501 96.4171L74.6128 93.3837V92.4357L72.4261 95.0891C72.3981 95.1224 72.3554 95.1397 72.3101 95.1397L60.4421 94.6251V95.7331ZM72.3168 96.7051C72.3141 96.7051 72.3114 96.7051 72.3088 96.7037L60.2928 96.0077C60.2181 96.0051 60.1594 95.9424 60.1594 95.8664V94.4757C60.1594 94.4277 60.1834 94.3837 60.2248 94.3571L62.1394 93.1384L62.2914 93.3784L60.7568 94.3544L72.2528 94.8531L74.6461 91.9504C74.6834 91.9051 74.7461 91.8864 74.8021 91.9077C74.8594 91.9277 74.8968 91.9811 74.8968 92.0411V93.4331C74.8968 93.4651 74.8861 93.4944 74.8661 93.5197L72.4288 96.6504C72.4021 96.6851 72.3608 96.7051 72.3168 96.7051Z" fill="#00AFED"/>
<path d="M71.1359 88.4282L70.7865 87.2109L71.0599 87.1335L71.4079 88.3495L71.1359 88.4282ZM70.7959 88.4535L70.2745 87.4109L70.5279 87.2829L71.0505 88.3255L70.7959 88.4535ZM71.4799 88.7602L71.3065 87.7175L71.5852 87.6709L71.7599 88.7135L71.4799 88.7602ZM70.6772 89.2069L69.8065 88.6842L69.9519 88.4415L70.8225 88.9629L70.6772 89.2069ZM70.5119 89.5602L69.8159 89.2122L69.9425 88.9575L70.6385 89.3055L70.5119 89.5602ZM70.4012 91.1402H69.7039V90.8562H70.4012V91.1402ZM70.5745 91.8349H69.7039V91.5509H70.5745V91.8349ZM74.7545 92.1829H73.5359V91.8989H74.7545V92.1829Z" fill="#00AFED"/>
<path d="M67.0205 84.4601C66.9992 84.4401 66.8179 84.2507 66.8179 84.0414C66.8179 83.6574 67.0125 83.4574 67.0205 83.4494L67.1925 83.5201V84.3894L67.0205 84.4601Z" fill="#00AFED"/>
<path d="M69.467 86.6034C69.3537 86.5461 69.2203 86.4901 69.087 86.4328C68.7963 86.3074 68.5203 86.1901 68.3857 86.0554L68.5857 85.8541C68.683 85.9514 68.9577 86.0688 69.199 86.1714C69.3377 86.2314 69.475 86.2914 69.5937 86.3501L69.467 86.6034ZM69.467 89.2114C69.1537 89.0541 68.1403 88.8794 67.7883 88.8794V88.5954C68.135 88.5954 69.211 88.7674 69.5937 88.9581L69.467 89.2114Z" fill="#00AFED"/>
<path fill-rule="evenodd" clip-rule="evenodd" d="M72.1421 92.9108H73.0128V91.8667H72.1421V92.9108Z" fill="#00AFED"/>
<path d="M73.0128 91.2721H71.9675V91.0694H73.0128V91.2721ZM67.7888 92.1427V91.94C68.1115 91.94 68.4435 91.9401 68.5888 91.7947L68.7315 91.9387C68.5275 92.1427 68.1515 92.1427 67.7888 92.1427" fill="#00AFED"/>
<path d="M71.5772 92.6055C71.3786 92.4081 71.2119 91.5121 71.2119 90.6508C71.2119 90.1868 71.2532 88.6761 71.7946 88.6761C71.9852 88.6761 72.1479 89.0308 72.3746 89.9388L72.2586 89.9695C72.0026 88.9495 71.8572 88.7975 71.7946 88.7975C71.5226 88.7975 71.3319 89.5601 71.3319 90.6508C71.3319 91.5175 71.5092 92.3681 71.6626 92.5201L71.5772 92.6055Z" fill="#00AFED"/>
</svg>
