<svg width="377" height="123" viewBox="0 0 377 123" fill="none" xmlns="http://www.w3.org/2000/svg">
<path d="M0 47.5972C0 21.3959 22.0307 -9.43898e-05 48.3227 -9.43898e-05C62.8293 -9.43898e-05 73.1653 5.71057 80.9613 13.1452L71.8053 22.3026C66.2747 17.0439 58.6587 13.0546 48.3227 13.0546C29.1933 13.0546 14.2347 28.4679 14.2347 47.5972C14.2347 66.7266 29.1933 82.1399 48.3227 82.1399C60.744 82.1399 67.816 77.1532 72.3493 72.6199C76.0667 68.9026 78.5133 63.5546 79.42 56.3012H48.3227V43.3359H92.1133C92.5667 45.6932 92.8387 48.4132 92.8387 51.4959C92.8387 61.2879 90.2093 73.3452 81.596 81.8679C73.256 90.5719 62.5573 95.1946 48.4133 95.1946C22.0307 95.1039 0 73.7986 0 47.5972Z" fill="#00AFED"/>
<path d="M128.106 83.0465C118.858 83.0465 110.79 75.4305 110.79 64.4611C110.79 53.3998 118.768 45.8745 128.106 45.8745C137.354 45.8745 145.422 53.3998 145.422 64.4611C145.422 75.4305 137.354 83.0465 128.106 83.0465ZM128.106 33.9078C111.153 33.9078 97.3716 46.7811 97.3716 64.5518C97.3716 82.2305 111.153 95.1958 128.106 95.1958C145.06 95.1958 158.841 82.2305 158.841 64.5518C158.841 46.7811 145.06 33.9078 128.106 33.9078Z" fill="#00AFED"/>
<path d="M195.197 83.0465C185.949 83.0465 177.881 75.4305 177.881 64.4611C177.881 53.3998 185.858 45.8745 195.197 45.8745C204.535 45.8745 212.513 53.3998 212.513 64.4611C212.513 75.4305 204.445 83.0465 195.197 83.0465ZM195.197 33.9078C178.243 33.9078 164.462 46.7811 164.462 64.5518C164.462 82.2305 178.243 95.1958 195.197 95.1958C212.151 95.1958 225.931 82.2305 225.931 64.5518C225.931 46.7811 212.151 33.9078 195.197 33.9078Z" fill="#00AFED"/>
<path d="M262.106 83.0465C252.858 83.0465 245.062 75.2492 245.062 64.5518C245.062 53.7625 252.858 45.8745 262.106 45.8745C271.263 45.8745 278.426 53.7625 278.426 64.5518C278.515 75.3398 271.263 83.0465 262.106 83.0465ZM277.519 35.7212V40.7065H277.065C274.074 37.0812 268.271 33.8172 260.927 33.8172C245.606 33.8172 231.553 47.2345 231.553 64.5518C231.553 81.6865 245.606 95.1052 260.927 95.1052C268.271 95.1052 274.074 91.8412 277.065 88.1238H277.519V92.5665C277.519 104.261 271.263 110.517 261.199 110.517C252.949 110.517 247.871 104.624 245.786 99.6372L234.091 104.533C237.446 112.693 246.422 122.667 261.29 122.667C277.065 122.667 290.393 113.419 290.393 90.7532V35.7212H277.519Z" fill="#00AFED"/>
<path d="M299.64 3.26351H313.059V93.2915H299.64V3.26351Z" fill="#00AFED"/>
<path d="M348.961 45.6935C354.31 45.6935 358.843 48.3228 360.294 52.2215L332.913 63.5535C332.551 51.7682 342.07 45.6935 348.961 45.6935ZM349.958 83.0468C343.067 83.0468 338.262 79.8735 335.089 73.7988L376.069 56.8455L374.709 53.4002C372.17 46.5095 364.373 33.9068 348.507 33.9068C332.731 33.9068 319.586 46.3282 319.586 64.5508C319.586 81.6868 332.551 95.1948 349.958 95.1948C364.01 95.1948 372.079 86.5828 375.525 81.5962L365.099 74.6148C361.563 79.6922 356.849 83.0468 349.958 83.0468Z" fill="#00AFED"/>
</svg>
