<svg width="361" height="235" viewBox="0 0 361 235" fill="none" xmlns="http://www.w3.org/2000/svg">
<path d="M79.6973 202.703V209.098C79.6973 216.478 77.7307 221.398 74.2867 225.334C69.3667 230.254 60.516 234.188 41.8147 234.188C20.6667 234.188 11.808 229.762 6.88666 224.354C2.46 219.927 0 213.532 0 205.662C0 198.282 2.46 191.398 6.88666 186.97C11.8053 182.05 21.6427 177.135 41.8147 177.135C57.5573 177.135 69.8587 180.086 76.2507 183.53V194.35C68.872 189.922 56.0787 186.971 41.8147 186.971C27.0587 186.971 19.68 189.922 16.2373 193.366C13.2867 196.318 11.8107 200.252 11.8107 205.666C11.8107 211.57 13.2867 215.5 16.2373 217.966C19.6813 221.41 26.072 224.362 41.8147 224.362C54.608 224.362 62.48 221.902 65.4293 218.95C67.3973 216.982 68.38 214.523 68.38 212.063H35.9093V202.228H79.6947L79.6973 202.703Z" fill="#00AFED"/>
<path d="M146.578 220.902C147.562 219.918 148.054 218.442 148.054 216.966C148.054 215.49 147.562 214.015 146.578 213.031C145.102 211.555 141.659 210.571 123.456 209.587C102.299 208.603 95.9072 206.635 92.4645 203.193C90.4965 201.225 89.5125 197.782 89.5125 194.338C89.5125 190.402 90.4965 186.467 92.9565 183.517C96.3992 179.582 103.776 177.122 122.47 177.122C137.226 177.122 148.047 179.09 154.942 182.042V192.37C147.071 188.926 133.792 186.466 122.47 186.466C108.206 186.466 103.776 187.942 102.298 189.417C101.314 190.402 100.822 191.385 100.822 192.861C100.822 194.337 101.314 195.321 101.806 196.305C103.282 197.781 106.724 198.765 123.94 199.747C146.075 200.733 152.476 202.699 155.919 206.143C157.887 208.111 159.363 211.555 159.363 215.485C159.363 219.421 158.379 223.357 155.919 226.306C151.983 230.242 144.606 233.193 124.927 233.193C110.17 233.193 95.9072 230.733 88.0352 227.29V216.962C95.9072 220.898 112.635 223.849 124.927 223.849C139.683 224.341 144.606 223.358 146.568 220.898L146.578 220.902Z" fill="#00AFED"/>
<path d="M261.242 232.736H250.421V187.48L222.378 232.736H208.114L180.072 187.48V232.736H169.25V178.623H186.957L215.484 225.357L244.012 178.623H261.224L261.242 232.736Z" fill="#00AFED"/>
<path d="M294.691 210.027H327.163L310.927 184.45L294.691 210.027ZM318.799 178.049L354.221 232.655H341.427L333.065 219.862H288.794L280.43 232.655H268.13L303.551 178.049H318.799Z" fill="#00AFED"/>
<path d="M341.391 180.021H337.947V178.053H346.802V180.021H343.359V190.349H341.391V180.021Z" fill="#00AFED"/>
<path d="M349.28 178.049H351.248L354.691 183.951L358.135 178.049H360.102V190.349H358.135V181.494L354.691 187.397L351.248 181.494V190.349H349.28V178.049Z" fill="#00AFED"/>
<path d="M39.345 105.789H1.46777V150.552H39.345V105.789Z" fill="#00AFED"/>
<path d="M110.178 83.6454H53.6074V150.544H110.178V83.6454Z" fill="#00AFED"/>
<path d="M209.513 50.2053H124.406V150.525H209.513V50.2053Z" fill="#00AFED"/>
<path d="M351.253 -1.1373e-05H225.292V150.525H351.253V-1.1373e-05Z" fill="#00AFED"/>
</svg>
