<svg width="435" height="121" viewBox="0 0 435 121" fill="none" xmlns="http://www.w3.org/2000/svg">
<path d="M57.2493 95.12H36.8587V63.504C37.02 60.3667 36.3333 57.2453 34.8707 54.4653C33.9987 52.6427 32.4173 51.2573 30.496 50.6333C29.276 50.3227 28.028 50.1413 26.772 50.0907C22.5293 50.0907 20.4093 52.0427 20.4093 55.948V95.1747H0V11.5147L20.3907 9.00268V39.896L21.3493 39.172L22.668 38.3413C26.5067 35.6253 31.0907 34.1667 35.792 34.1653C37.2333 34.1667 38.6733 34.288 40.0947 34.5267C51.5427 36.756 57.268 44.2453 57.268 56.996L57.2493 95.12Z" fill="#00AFED"/>
<path d="M62.564 -4.14845e-05L81.7613 14.4253L62.564 29.3386V-4.14845e-05Z" fill="#00AFED"/>
<path d="M62.0215 34.888H82.4122V95.1199H62.0215V34.888Z" fill="#00AFED"/>
<path d="M130.008 62.9252C129.855 59.9759 128.844 57.1359 127.098 54.7546C125.471 52.7186 123.132 51.3746 120.554 50.9946C119.71 50.8639 118.859 50.7852 118.006 50.7599C115.05 50.6812 112.204 51.8799 110.196 54.0492C108.002 56.5092 106.724 59.6506 106.58 62.9439V67.2452C106.41 70.5426 107.614 73.7639 109.907 76.1399C112.11 78.3186 115.107 79.4999 118.204 79.4119C118.974 79.3759 119.739 79.2972 120.5 79.1759C123.298 78.6826 125.794 77.1212 127.459 74.8199C129.304 72.1039 130.218 68.8626 130.063 65.5826C130.095 64.6959 130.078 63.8092 130.008 62.9252ZM150.526 64.9492C150.736 72.2039 148.536 79.3239 144.271 85.1959C140.308 90.6292 134.451 94.3772 127.858 95.6986C125.868 96.0119 124.495 96.1932 123.736 96.2412H121.928C117.466 96.3292 113.072 95.1306 109.274 92.7879L108.316 92.0652L107.484 91.3426V120.916H87.0762V34.8879H106.635V39.5332L109.148 37.6172C113.132 34.7319 117.95 33.2279 122.868 33.3332C128.562 33.3546 134.098 35.1972 138.667 38.5946C143.576 42.1132 147.2 47.1412 148.99 52.9106C149.547 54.6799 149.947 56.4946 150.182 58.3332C150.434 60.5292 150.548 62.7399 150.526 64.9492" fill="#00AFED"/>
<path d="M242.844 95.1201H222.525V62.4734C222.525 57.1347 220.965 53.4294 217.844 51.3561L215.928 50.6334C215.145 50.4067 214.337 50.2854 213.524 50.2721C210.918 50.0321 208.613 51.9494 208.373 54.5534C208.361 54.6801 208.354 54.8081 208.353 54.9347V95.1201H187.854V62.5814C188.01 59.7974 187.502 57.0147 186.372 54.4654C185.42 52.6161 183.745 51.2414 181.744 50.6694C180.813 50.3507 179.836 50.1854 178.852 50.1814C175.489 50.1814 173.682 51.7841 173.429 54.9894V95.0294H153.02V34.8881H172.58V39.6601C174.037 38.2814 175.68 37.1134 177.46 36.1894C179.276 35.2041 181.244 34.5267 183.281 34.1827C184.805 33.8401 186.364 33.6761 187.926 33.6947C189.97 33.7067 192.005 33.9734 193.982 34.4907C195.914 34.9574 197.749 35.7587 199.405 36.8587C200.972 37.9254 202.357 39.2387 203.509 40.7454L204.576 39.5521C208.713 35.6214 214.256 33.5174 219.958 33.7134C222.837 33.7281 225.694 34.2107 228.418 35.1414C238.06 38.5761 242.88 46.0241 242.88 57.4841L242.844 95.1201Z" fill="#00AFED"/>
<path d="M305.932 95.0115H286.246V89.5888L285.053 90.4195L283.39 91.6128L279.774 93.6382C276.402 95.4195 272.652 96.3608 268.838 96.3848C264.065 96.4368 259.421 94.8328 255.696 91.8475C251.942 88.9128 249.374 84.7208 248.465 80.0435C248.106 78.2582 247.906 76.4422 247.869 74.6208V34.8515H268.26V65.5822C268.26 72.9702 270.724 77.4235 275.653 78.9408C276.948 79.4102 278.334 79.5715 279.702 79.4115C281.537 79.4195 283.276 78.5862 284.42 77.1515C285.438 74.9942 285.869 72.6062 285.668 70.2288V34.8875H306.058L305.932 95.0115Z" fill="#00AFED"/>
<path d="M368.423 95.1201H348.032V63.3227C348.23 60.2761 347.651 57.2281 346.351 54.4654C345.08 52.4441 343.046 51.0227 340.711 50.5241C340.264 50.3761 339.804 50.2734 339.338 50.2174C338.74 50.1134 338.136 50.0534 337.53 50.0361C335.839 49.9467 334.187 50.5547 332.956 51.7174C331.824 52.8574 331.216 54.4147 331.275 56.0201V95.1201H310.812V34.8881H330.371V40.1307L331.799 38.9374C335.68 35.7747 340.514 34.0107 345.52 33.9294C347.343 33.9494 349.159 34.1494 350.943 34.5267C362.632 36.8401 368.478 45.5654 368.478 60.7014L368.423 95.1201Z" fill="#00AFED"/>
<path d="M434.024 84.2559L416.96 97.0186L393.586 64.9506V95.0119H373.196V11.5146L393.586 9.01989V55.8932L415.532 32.9906L427.697 45.2826L415.169 57.5559L434.024 84.2559Z" fill="#00AFED"/>
</svg>
