<svg width="504" height="100" viewBox="0 0 504 100" fill="none" xmlns="http://www.w3.org/2000/svg">
<path fill-rule="evenodd" clip-rule="evenodd" d="M70.0454 46.4134L57.6307 73.0307L70.0454 99.6614L0.765381 73.0307L70.0454 46.4134Z" fill="#00AFED"/>
<path fill-rule="evenodd" clip-rule="evenodd" d="M0.727051 53.9025L13.1417 27.2851L0.727051 0.666471L70.0071 27.2851L0.727051 53.9025Z" fill="#00AFED"/>
<path fill-rule="evenodd" clip-rule="evenodd" d="M477.387 83.0592C466.331 83.0592 463.717 77.7658 463.717 60.0085C463.717 42.3512 466.331 37.0592 477.489 37.0592C488.634 37.0592 491.159 42.3512 491.159 60.0085C491.159 77.7658 488.545 83.0592 477.387 83.0592ZM477.489 92.5405C497.519 92.5405 503.319 83.1485 503.319 60.0085C503.319 36.8938 497.519 27.5765 477.489 27.5765C457.446 27.5765 451.557 36.8938 451.557 60.0085C451.557 83.1485 457.446 92.5405 477.489 92.5405M405.606 90.9792C405.606 92.0085 406.457 92.8458 407.485 92.8458H415.914C416.942 92.8458 417.779 92.0085 417.779 90.9792V51.8712C417.779 40.7392 419.899 37.1098 431.031 37.1098C432.262 37.1098 443.166 37.1098 444.575 37.1858L444.499 31.0418C444.499 30.3058 444.41 29.3912 443.445 29.1378C441.681 28.6432 435.246 27.8818 431.121 28.0592C419.989 28.2245 405.606 29.3912 405.606 49.0538V90.9792ZM375.003 92.5405C380.854 92.5405 389.537 92.0458 395.299 91.2205C396.302 91.1445 396.95 90.3192 396.849 89.4058L396.035 83.3125C395.934 82.2592 395.021 81.4472 394.018 81.6498C391.098 82.2592 380.03 83.0592 375.003 83.0592C366.778 83.0592 361.942 78.9338 361.942 73.7045C361.942 68.3725 363.49 63.1565 375.003 63.1565H391.466C392.469 63.1565 393.294 62.4072 393.294 61.5058V55.3112C393.294 54.4098 392.469 53.6618 391.466 53.6618H375.003C363.49 53.6618 362.119 49.0792 362.119 45.1698C362.119 41.5525 363.49 37.0592 375.003 37.0592C380.03 37.0592 391.098 37.8205 394.018 38.3912C395.021 38.5938 395.934 37.8205 396.035 36.8045L396.849 30.7125C396.95 29.7978 396.302 28.9725 395.299 28.8965C389.537 28.0712 380.854 27.5765 375.003 27.5765C351.951 27.5765 349.769 39.5458 349.769 45.1698C349.769 49.5618 352.142 55.7298 358.806 58.4472C352.142 61.2525 349.489 67.6752 349.489 73.7045C349.489 80.6472 353.285 92.5405 375.003 92.5405M287.33 90.9792C287.33 92.0085 288.167 92.8458 289.195 92.8458H297.625C298.653 92.8458 299.49 92.0085 299.49 90.9792V57.1525C299.49 42.4792 302.574 37.0592 313.262 37.0592C323.849 37.0592 326.933 42.4792 326.933 57.1525V90.9792C326.933 92.0085 327.771 92.8458 328.799 92.8458H337.227C338.255 92.8458 339.094 92.0085 339.094 90.9792V56.6818C339.094 34.6592 331.706 27.5765 313.262 27.5765C294.718 27.5765 287.33 34.6592 287.33 56.6818V90.9792ZM264.126 20.7218C264.126 22.5498 265.053 23.4645 266.919 23.4645H274.218C276.097 23.4645 277.023 22.5498 277.023 20.7218V13.6005C277.023 11.7738 276.097 10.8592 274.218 10.8592H266.919C265.053 10.8592 264.126 11.7738 264.126 13.6005V20.7218ZM264.482 90.9925C264.482 92.0085 265.333 92.8458 266.361 92.8458H274.789C275.817 92.8458 276.655 92.0085 276.655 90.9925V35.7512C276.655 34.7232 275.817 33.8858 274.789 33.8858H266.361C265.333 33.8858 264.482 34.7232 264.482 35.7512V90.9925ZM210.993 82.8818V20.7352H225.349C238.079 20.7352 241.558 26.7512 241.558 52.1885C241.558 76.5858 238.079 82.8818 225.349 82.8818H210.993ZM198.654 90.7645C198.654 91.6405 199.479 92.3632 200.482 92.3632H224.155C246.953 92.3632 253.909 83.9098 253.909 52.1885C253.909 19.7072 247.866 11.2525 224.155 11.2525H200.482C199.479 11.2525 198.654 11.9765 198.654 12.8525V90.7645ZM133.005 90.9792C133.005 92.0085 133.842 92.8458 134.87 92.8458H143.298C144.327 92.8458 145.165 92.0085 145.165 90.9792V57.1525C145.165 42.4792 148.249 37.0592 158.937 37.0592C169.523 37.0592 172.607 42.4792 172.607 57.1525V90.9792C172.607 92.0085 173.445 92.8458 174.474 92.8458H182.902C183.93 92.8458 184.767 92.0085 184.767 90.9792V56.6818C184.767 34.6592 177.381 27.5765 158.937 27.5765C140.391 27.5765 133.005 34.6592 133.005 56.6818V90.9792ZM109.801 20.7218C109.801 22.5498 110.727 23.4645 112.594 23.4645H119.893C121.77 23.4645 122.697 22.5498 122.697 20.7218V13.6005C122.697 11.7738 121.77 10.8592 119.893 10.8592H112.594C110.727 10.8592 109.801 11.7738 109.801 13.6005V20.7218ZM110.157 90.9925C110.157 92.0085 111.007 92.8458 112.035 92.8458H120.463C121.491 92.8458 122.329 92.0085 122.329 90.9925V35.7512C122.329 34.7232 121.491 33.8858 120.463 33.8858H112.035C111.007 33.8858 110.157 34.7232 110.157 35.7512V90.9925Z" fill="#00AFED"/>
</svg>
