<svg width="198" height="174" viewBox="0 0 198 174" fill="none" xmlns="http://www.w3.org/2000/svg">
<path d="M151.063 111.489L182.029 55.6862L151.182 0.000901827H158.894C163.165 0.000901827 168.266 3.04223 170.283 6.6689L197.333 55.6862L170.165 104.704C168.147 108.448 162.927 111.372 158.775 111.372H151.063V111.489Z" fill="#00AFED"/>
<path d="M103.241 30.8854H112.021V50.6561H134.801V30.8854H143.459V80.7214H134.681V58.2614H112.021V80.7214H103.241V30.8854ZM85.8019 30.8854H94.5819V80.7214H94.4633H85.8019V30.8854ZM36.6846 30.8854H45.9393L68.7166 67.62H68.8353V30.8854H77.1406V80.7214H67.8873L45.2273 44.104H44.9886V80.7214H36.6846V30.8854ZM29.6846 5.75079e-05C23.9899 5.75079e-05 19.3633 4.56406 19.3633 10.2961V101.195C19.3633 106.809 23.9899 111.489 29.6846 111.489H143.342L174.306 55.6854L143.342 5.75079e-05H29.6846Z" fill="#00AFED"/>
<path d="M92.5029 173.541V165.689H84.6456V173.541H81.5723V155.879H84.6456V162.912H92.5029V155.879H95.5763V173.541H92.5029Z" fill="#00AFED"/>
<path d="M24.7725 140.568H24.8285V142.616C24.8285 144.438 22.8939 145.064 21.6419 145.064C20.6179 145.064 19.0245 144.666 19.0245 143.414C19.0245 141.934 20.1059 141.479 21.3005 141.308C22.5525 141.138 23.9192 141.138 24.7725 140.568ZM22.4965 133.91C19.6499 133.91 16.8619 134.878 16.6912 138.179H19.4792C19.5925 136.755 20.6739 136.13 22.2685 136.13C23.4059 136.13 24.8859 136.358 24.8859 137.838C24.8859 139.487 23.1219 139.316 21.0725 139.658C18.7392 139.943 16.1792 140.455 16.1792 143.642C16.1792 146.09 18.2845 147.342 20.5605 147.342C22.0979 147.342 23.8619 146.887 25.0005 145.806C25.2285 146.943 26.0245 147.342 27.1619 147.342C27.6179 147.342 28.5299 147.171 28.9272 147V145.064C28.6432 145.122 28.4152 145.122 28.2445 145.122C27.7312 145.122 27.5619 144.838 27.5619 144.155H27.6179V137.61C27.6179 134.934 25.0005 133.91 22.4965 133.91V133.91Z" fill="#00AFED"/>
<path d="M29.2656 134.195H31.371V130.381H34.1603V134.195H36.7216V136.3H34.1603V143.131C34.1603 144.268 34.2736 144.895 35.5256 144.895C35.9243 144.895 36.323 144.895 36.7216 144.781V146.944C36.095 147 35.5256 147.115 34.9003 147.115C31.9403 147.115 31.4283 145.976 31.371 143.871V136.3H29.2656V134.195Z" fill="#00AFED"/>
<path d="M49.7738 136.084C52.2778 136.084 53.4151 138.361 53.4151 140.58C53.4151 142.8 52.2778 145.133 49.7738 145.077C47.2125 145.077 46.1311 142.8 46.1311 140.58C46.1311 138.361 47.2698 136.084 49.7738 136.084ZM49.7738 133.865C45.6765 133.865 43.3418 136.653 43.3418 140.58C43.3418 144.508 45.6765 147.353 49.7738 147.297C53.8711 147.297 56.2045 144.508 56.2045 140.58C56.2045 136.653 53.8711 133.865 49.7738 133.865" fill="#00AFED"/>
<path d="M58.3467 134.194H61.0213V136.073L61.0787 136.129C61.932 134.706 63.3547 133.853 65.0627 133.853C67.8507 133.853 69.5587 135.333 69.5587 138.178V146.944H66.7693V138.976C66.7133 136.984 65.916 136.129 64.2653 136.129C62.388 136.129 61.192 137.609 61.192 139.488V147H58.404V134.194H58.3467Z" fill="#00AFED"/>
<path d="M79.897 140.568H79.953V142.618C79.953 144.438 78.0184 145.064 76.7664 145.064C75.7424 145.064 74.149 144.666 74.149 143.414C74.149 141.934 75.2304 141.479 76.425 141.308C77.677 141.138 79.0437 141.138 79.897 140.568ZM77.621 133.91C74.7744 133.91 71.9864 134.878 71.8157 138.179H74.6037C74.717 136.755 75.7984 136.13 77.393 136.13C78.5304 136.13 80.0104 136.358 80.0104 137.838C80.0104 139.487 78.2464 139.316 76.197 139.658C73.8637 139.943 71.3037 140.455 71.3037 143.642C71.3037 146.09 73.409 147.342 75.685 147.342C77.2224 147.342 78.9864 146.887 80.125 145.806C80.353 146.943 81.149 147.342 82.2864 147.342C82.7424 147.342 83.6544 147.171 84.0517 147V145.064C83.7677 145.122 83.5397 145.122 83.369 145.122C82.8557 145.122 82.6864 144.838 82.6864 144.155H82.7424V137.61C82.7424 134.934 80.125 133.91 77.621 133.91" fill="#00AFED"/>
<path d="M85.5571 129.356H88.3464V147H85.5571V129.356Z" fill="#00AFED"/>
<path d="M98.084 129.356H101.157V147H98.084V129.356Z" fill="#00AFED"/>
<path d="M104.156 134.194H106.831V136.073L106.888 136.129C107.742 134.706 109.164 133.853 110.872 133.853C113.66 133.853 115.368 135.333 115.368 138.178V146.944H112.579V138.976C112.523 136.984 111.726 136.129 110.075 136.129C108.198 136.129 107.002 137.609 107.002 139.488V147H104.214V134.194H104.156Z" fill="#00AFED"/>
<path d="M122.986 133.978C120.652 133.978 117.635 134.832 117.635 137.621C117.635 140.182 119.686 140.922 121.734 141.377C123.783 141.833 125.831 142.002 125.888 143.482C125.946 144.905 124.124 145.133 123.043 145.133C121.506 145.133 120.311 144.564 120.14 142.913V142.972H117.351C117.408 145.988 119.799 147.41 122.986 147.41C125.604 147.41 128.678 146.272 128.678 143.256C128.678 140.752 126.628 140.012 124.58 139.557C122.474 139.101 120.424 138.873 120.424 137.506C120.424 136.368 121.962 136.198 122.758 136.198C124.01 136.198 125.15 136.597 125.376 137.905H128.336C127.995 135.06 125.604 133.978 122.986 133.978Z" fill="#00AFED"/>
<path d="M129.096 134.195H131.202V130.381H133.991V134.195H136.552V136.3H133.991V143.131C133.991 144.268 134.104 144.895 135.356 144.895C135.755 144.895 136.154 144.895 136.552 144.781V146.944C135.926 147 135.356 147.115 134.731 147.115C131.771 147.115 131.259 145.976 131.202 143.871V136.3H129.096V134.195Z" fill="#00AFED"/>
<path d="M142.82 134.195H144.926V130.381H147.715V134.195H150.276V136.3H147.715V143.131C147.715 144.268 147.828 144.895 149.08 144.895C149.479 144.895 149.878 144.895 150.276 144.781V146.944C149.65 147 149.08 147.115 148.455 147.115C145.495 147.115 144.983 145.976 144.926 143.871V136.3H142.82V134.195Z" fill="#00AFED"/>
<path d="M163.143 147H160.354V145.236H160.298C159.615 146.546 158.078 147.342 156.655 147.342C153.296 147.342 151.874 145.635 151.874 142.334V134.195H154.663V141.992C154.663 144.211 155.574 145.066 157.11 145.066C159.443 145.066 160.24 143.586 160.24 141.594V134.195H163.03V147H163.143Z" fill="#00AFED"/>
<path d="M164.411 134.195H166.516V130.381H169.305V134.195H171.867V136.3H169.305V143.131C169.305 144.268 169.419 144.895 170.671 144.895C171.069 144.895 171.468 144.895 171.867 144.781V146.944C171.24 147 170.671 147.115 170.045 147.115C167.085 147.115 166.573 145.976 166.516 143.871V136.3H164.411V134.195Z" fill="#00AFED"/>
<path d="M179.136 136.141C181.015 136.141 182.209 137.735 182.323 139.499H175.777C175.835 137.62 177.201 136.141 179.136 136.141ZM179.08 133.865C175.323 133.865 172.932 136.937 172.932 140.58C172.932 144.507 175.209 147.296 179.192 147.296C181.981 147.296 184.316 145.76 184.941 142.971H182.267C181.755 144.337 180.787 145.076 179.136 145.076C176.803 145.076 175.721 143.312 175.721 141.32H185.112C185.567 137.507 183.12 133.865 179.08 133.865" fill="#00AFED"/>
<path d="M104.238 162.671C106.117 162.671 107.312 164.264 107.425 166.028H100.88C100.937 164.149 102.304 162.671 104.238 162.671ZM104.182 160.395C100.425 160.395 98.0342 163.467 98.0342 167.109C98.0342 171.036 100.312 173.825 104.296 173.825C107.084 173.825 109.418 172.289 110.044 169.5H107.369C106.857 170.867 105.889 171.605 104.238 171.605C101.905 171.605 100.824 169.841 100.824 167.849H110.214C110.669 164.036 108.222 160.395 104.182 160.395" fill="#00AFED"/>
<path d="M119.849 167.081H119.907V169.138C119.907 170.968 117.971 171.597 116.719 171.597C115.695 171.597 114.101 171.196 114.101 169.938C114.101 168.453 115.183 167.996 116.377 167.825C117.629 167.653 118.996 167.653 119.849 167.081ZM117.573 160.394C114.727 160.394 111.939 161.366 111.768 164.681H114.556C114.669 163.252 115.751 162.624 117.345 162.624C118.483 162.624 119.963 162.852 119.963 164.338C119.963 165.996 118.199 165.824 116.149 166.166C113.816 166.453 111.256 166.966 111.256 170.168C111.256 172.625 113.361 173.882 115.637 173.882C117.175 173.882 118.939 173.426 120.077 172.34C120.305 173.484 121.101 173.882 122.239 173.882C122.695 173.882 123.607 173.712 124.004 173.54V171.597C123.72 171.654 123.492 171.653 123.321 171.653C122.808 171.653 122.639 171.368 122.639 170.682H122.695V164.109C122.695 161.424 120.077 160.394 117.573 160.394" fill="#00AFED"/>
<path d="M139.179 155.879V173.542H141.86V166.021C141.86 164.139 143.009 162.659 144.815 162.659C146.401 162.659 147.167 163.514 147.221 165.509V173.485H149.903V164.71C149.903 161.862 148.261 160.381 145.58 160.381C143.993 160.381 142.571 161.291 141.915 162.431H141.86V155.879H139.179Z" fill="#00AFED"/>
<path d="M191.863 133.978C189.529 133.978 186.512 134.832 186.512 137.621C186.512 140.182 188.563 140.922 190.611 141.377C192.66 141.833 194.708 142.002 194.765 143.482C194.821 144.905 193.001 145.133 191.919 145.133C190.383 145.133 189.188 144.564 189.017 142.913V142.972H186.228C186.285 145.988 188.675 147.41 191.863 147.41C194.481 147.41 197.555 146.272 197.555 143.256C197.555 140.752 195.505 140.012 193.456 139.557C191.351 139.101 189.301 138.873 189.301 137.506C189.301 136.368 190.837 136.198 191.635 136.198C192.887 136.198 194.025 136.597 194.253 137.905H197.213C196.871 135.06 194.481 133.978 191.863 133.978Z" fill="#00AFED"/>
<path d="M38.3945 134.195H41.1838V147H38.3945V134.195ZM38.3945 129.356H41.1838V131.899H38.3945V129.356Z" fill="#00AFED"/>
<path d="M138.416 134.195H141.205V147H138.416V134.195ZM138.416 129.356H141.205V131.899H138.416V129.356Z" fill="#00AFED"/>
<path d="M129.802 160.736H131.907V156.922H134.696V160.736H137.258V162.841H134.696V169.672C134.696 170.809 134.81 171.436 136.062 171.436C136.46 171.436 136.859 171.436 137.258 171.322V173.485C136.631 173.541 136.062 173.656 135.436 173.656C132.476 173.656 131.964 172.517 131.907 170.412V162.841H129.802V160.736Z" fill="#00AFED"/>
<path d="M125.369 155.879H128.159V173.523H125.369V155.879Z" fill="#00AFED"/>
<path d="M65.9834 162.842H68.0887V173.542H70.8781V162.842H73.4394V160.736H70.8781V159.692C70.8781 158.554 70.9914 157.928 72.2434 157.928C72.6421 157.928 73.0407 157.928 73.4394 158.042V155.879C72.8127 155.823 72.2434 155.708 71.6181 155.708C68.6581 155.708 68.1461 156.847 68.0887 158.952V160.736H65.9834V162.842Z" fill="#00AFED"/>
<path d="M58.7591 162.613C61.2631 162.613 62.4005 164.89 62.4005 167.109C62.4005 169.329 61.2631 171.662 58.7591 171.606C56.1978 171.606 55.1165 169.329 55.1165 167.109C55.1165 164.89 56.2551 162.613 58.7591 162.613ZM58.7591 160.394C54.6618 160.394 52.3271 163.182 52.3271 167.109C52.3271 171.037 54.6618 173.882 58.7591 173.826C62.8565 173.826 65.1898 171.037 65.1898 167.109C65.1898 163.182 62.8565 160.394 58.7591 160.394" fill="#00AFED"/>
<path d="M11.2067 147L3.07333 134.195V147H0V129.356H3.07333L11.2067 142.163V129.356H14.28V147H11.2067Z" fill="#00AFED"/>
</svg>
