<svg width="179" height="179" viewBox="0 0 179 179" fill="none" xmlns="http://www.w3.org/2000/svg">
<path d="M158.078 55.3151C158.121 55.2978 167.533 73.9378 165.862 93.7538C164.954 127.035 135.541 164.788 91.7062 166.015L85.5942 165.887C40.4236 163.643 12.6662 125.315 12.7929 90.6818C12.9049 84.2431 12.8782 77.0458 15.5942 68.1445L18.3636 68.9711C29.9396 73.3471 42.4289 107.171 83.0329 109.096C84.7956 109.179 88.1809 109.258 88.1729 109.271C85.5449 111.894 70.6022 118.058 63.8209 119.682C65.5942 119.256 63.6822 119.638 63.8209 119.682C80.1516 129.804 96.4822 110.322 117.682 107.458L124.176 107.075C122.934 103.16 117.345 103.49 116.822 103.542C102.154 104.986 105.818 103.303 105.364 103.446C127.901 96.3791 140.889 78.3298 157.109 56.3805L158.078 55.3151Z" fill="#00AFED"/>
<path fill-rule="evenodd" clip-rule="evenodd" d="M56.1766 42.3037V62.5131H60.51V46.6491C60.51 46.1624 60.8953 45.7651 61.382 45.7651H63.8286C64.3153 45.7651 64.7113 46.1624 64.7113 46.6491V62.5131H69.0326V46.1117C69.0326 44.0011 67.3353 42.3037 65.2246 42.3037H56.1766ZM111.033 45.7651H113.469C113.955 45.7651 114.351 46.1624 114.351 46.6491V50.9344H110.15V46.6491C110.15 46.1624 110.546 45.7651 111.033 45.7651M109.637 42.3037C107.526 42.3037 105.829 44.0011 105.829 46.1117V62.5131H110.15V54.3957H114.351V62.5131H118.673V46.1117C118.673 44.0011 116.975 42.3037 114.865 42.3037H109.637ZM94.4886 45.7651H96.9246C97.4113 45.7651 97.8073 46.1624 97.8073 46.6491V50.9344H93.606V46.6491C93.606 46.1624 94.002 45.7651 94.4886 45.7651M93.0926 42.3037C90.982 42.3037 89.2846 44.0011 89.2846 46.1117V62.5131H93.606V54.3957H97.8073V62.5131H102.129V46.1117C102.129 44.0011 100.431 42.3037 98.3206 42.3037H93.0926ZM77.9366 45.7677H80.3806C80.8673 45.7677 81.2593 46.1597 81.2593 46.6464V58.1664C81.2593 58.6531 80.8673 59.0451 80.3806 59.0451H77.9366C77.45 59.0451 77.058 58.6531 77.058 58.1664V46.6464C77.058 46.1597 77.45 45.7677 77.9366 45.7677ZM76.5433 42.2997H81.7753C83.886 42.2997 85.5846 43.9984 85.5846 46.1091V58.7037C85.5846 60.8144 83.886 62.5131 81.7753 62.5131H76.5433C74.4313 62.5131 72.7326 60.8144 72.7326 58.7037V46.1091C72.7326 43.9984 74.4313 42.2997 76.5433 42.2997M125.322 21.6037C123.747 20.7664 110.521 12.8184 90.2113 12.4997C46.1846 12.6584 26.7993 44.9691 26.7993 44.9691C36.5406 49.7451 46.6486 64.1237 46.79 64.3237C57.6913 79.6184 72.8833 103.325 92.5673 103.778C98.8686 103.924 103.061 100.154 107.846 95.5197C125.321 78.5971 127.766 47.3091 150.151 42.9011C150.151 42.9011 141.843 30.3904 125.322 21.6037" fill="#00AFED"/>
<path d="M167.844 110.416L175.553 112.825L175.196 113.971L168.471 115.823C168.323 115.864 168.185 115.899 168.059 115.924C167.932 115.949 167.816 115.965 167.712 115.971L173.961 117.923L173.648 118.923L165.939 116.513L166.293 115.377L173.123 113.473C173.227 113.444 173.333 113.421 173.443 113.404C173.552 113.385 173.665 113.372 173.783 113.363L167.533 111.411L167.844 110.416ZM173.68 102.381C174.988 102.645 175.943 103.183 176.545 103.996C177.148 104.809 177.331 105.804 177.095 106.979C176.859 108.151 176.307 108.993 175.439 109.507C174.571 110.02 173.481 110.145 172.169 109.881C170.861 109.617 169.905 109.081 169.303 108.272C168.699 107.461 168.516 106.471 168.752 105.299C168.988 104.124 169.541 103.277 170.412 102.761C171.283 102.244 172.372 102.119 173.68 102.381ZM173.456 103.495C172.441 103.291 171.601 103.364 170.936 103.717C170.269 104.069 169.853 104.66 169.687 105.488C169.521 106.312 169.677 107.013 170.155 107.593C170.633 108.172 171.38 108.564 172.393 108.768C173.412 108.973 174.252 108.9 174.916 108.551C175.579 108.201 175.993 107.615 176.159 106.791C176.325 105.963 176.172 105.257 175.696 104.675C175.22 104.093 174.473 103.699 173.456 103.495ZM169.983 99.0706L177.995 100.093L177.856 101.181L169.843 100.159L169.983 99.0706ZM170.407 94.4453L177.485 94.9413L177.664 92.3973L178.643 92.4666L178.209 98.6533L177.231 98.5839L177.408 96.0413L170.329 95.5453L170.407 94.4453ZM170.517 84.6173L178.631 87.5146L178.647 88.7266L170.607 91.8386L170.592 90.6479L172.995 89.7626L172.955 86.5826L170.531 85.7519L170.517 84.6173ZM173.901 86.9106L173.933 89.4279L177.481 88.1333L173.901 86.9106ZM177.891 77.2666L178.209 80.3813C178.261 80.8879 178.277 81.2613 178.257 81.5039C178.239 81.7466 178.188 81.9679 178.105 82.1679C177.953 82.5253 177.721 82.8079 177.409 83.0186C177.096 83.2293 176.716 83.3559 176.268 83.4026C175.836 83.4466 175.456 83.3919 175.129 83.2373C174.804 83.0826 174.535 82.8319 174.323 82.4813C174.267 82.8039 174.143 83.0413 173.949 83.1959C173.755 83.3493 173.412 83.4679 172.921 83.5506L171.605 83.7786C171.323 83.8266 171.115 83.8853 170.981 83.9559C170.847 84.0266 170.756 84.1213 170.709 84.2399L170.485 84.2626L170.357 83.0026C170.515 82.8839 170.865 82.7759 171.411 82.6799C171.425 82.6786 171.436 82.6773 171.443 82.6759L172.484 82.5039C173.019 82.4133 173.356 82.2626 173.496 82.0533C173.636 81.8439 173.667 81.3546 173.588 80.5839L173.408 78.8159L169.965 79.1679L169.856 78.0866L177.891 77.2666ZM177.056 78.4319L174.335 78.7106L174.525 80.5759C174.593 81.2493 174.751 81.7133 174.997 81.9693C175.244 82.2253 175.623 82.3266 176.132 82.2746C176.608 82.2266 176.931 82.0613 177.1 81.7799C177.271 81.4973 177.319 81.0039 177.247 80.2986L177.056 78.4319ZM169.045 73.5333L176.017 72.2119L175.543 69.7066L176.507 69.5239L177.663 75.6173L176.697 75.7999L176.223 73.2946L169.251 74.6159L169.045 73.5333ZM169.313 63.6906L169.597 64.7093C169.037 64.8773 168.64 65.1906 168.407 65.6479C168.175 66.1053 168.143 66.6399 168.313 67.2479C168.481 67.8506 168.74 68.2893 169.091 68.5653C169.441 68.8426 169.835 68.9186 170.271 68.7973C170.865 68.6319 171.136 67.8533 171.083 66.4639C171.079 66.3813 171.076 66.3186 171.075 66.2733C171.031 65.1466 171.115 64.3706 171.328 63.9453C171.541 63.5186 171.932 63.2266 172.499 63.0693C173.192 62.8759 173.82 62.9733 174.383 63.3626C174.945 63.7533 175.343 64.3679 175.577 65.2106C175.817 66.0693 175.785 66.8066 175.481 67.4239C175.176 68.0399 174.64 68.4586 173.871 68.6813L173.584 67.6733C174.095 67.4933 174.445 67.2053 174.635 66.8079C174.824 66.4119 174.841 65.9373 174.687 65.3853C174.543 64.8666 174.313 64.4853 174 64.2386C173.687 63.9919 173.341 63.9213 172.965 64.0266C172.363 64.1946 172.092 64.9599 172.155 66.3253C172.161 66.5279 172.167 66.6839 172.171 66.7933C172.173 66.8146 172.175 66.8546 172.176 66.9106C172.208 67.8053 172.147 68.4213 171.992 68.7613C171.873 69.0186 171.704 69.2359 171.483 69.4159C171.261 69.5946 170.996 69.7279 170.685 69.8146C169.936 70.0239 169.264 69.9213 168.671 69.5093C168.077 69.0959 167.652 68.4306 167.397 67.5159C167.133 66.5719 167.167 65.7706 167.497 65.1106C167.828 64.4506 168.433 63.9773 169.313 63.6906ZM165.892 62.0533L173.52 59.3959L173.881 60.4319L166.253 63.0893L165.892 62.0533ZM162.84 54.5226L170.269 51.3519L170.741 52.4573L166.825 58.2306C166.74 58.3573 166.659 58.4719 166.579 58.5733C166.499 58.6759 166.42 58.7626 166.344 58.8346L172.367 56.2653L172.777 57.2279L165.348 60.3986L164.881 59.3039L168.84 53.4226C168.901 53.3333 168.968 53.2466 169.039 53.1626C169.111 53.0786 169.188 52.9946 169.272 52.9106L163.249 55.4813L162.84 54.5226ZM161.512 51.9839L168.708 48.3146L169.207 49.2919L162.011 52.9613L161.512 51.9839ZM163.22 41.1906L157.341 44.7693L156.816 43.9079L163.716 39.7079L164.532 41.0479L160.293 45.9706C160.173 46.1119 160.08 46.2186 160.011 46.2933C159.943 46.3666 159.881 46.4293 159.827 46.4799C159.957 46.4346 160.075 46.3959 160.181 46.3666C160.287 46.3359 160.389 46.3106 160.487 46.2893L166.844 44.8466L167.663 46.1906L160.763 50.3906L160.209 49.4813L166.088 45.9039C165.975 45.9426 165.859 45.9786 165.74 46.0119C165.621 46.0466 165.503 46.0773 165.384 46.1079L159.029 47.5426L158.489 46.6573L162.709 41.7133C162.777 41.6293 162.855 41.5439 162.939 41.4586C163.024 41.3719 163.117 41.2839 163.22 41.1906ZM152.033 37.5626L158.451 32.6559L160.319 35.0999C161.003 35.9933 161.259 36.8826 161.088 37.7666C160.916 38.6493 160.327 39.4773 159.32 40.2466C158.277 41.0439 157.277 41.4186 156.321 41.3693C155.367 41.3199 154.551 40.8546 153.876 39.9706L152.033 37.5626ZM159.521 35.5919L158.376 34.0933L153.484 37.8346L154.629 39.3319C155.12 39.9746 155.7 40.2999 156.368 40.3093C157.035 40.3186 157.777 40.0119 158.593 39.3879C159.375 38.7906 159.844 38.1653 160.004 37.5146C160.164 36.8626 160.004 36.2213 159.521 35.5919M146.617 31.6026L154.588 28.3293L155.411 29.2199L151.516 36.9106L150.709 36.0359L151.901 33.7706L149.745 31.4333L147.388 32.4373L146.617 31.6026ZM150.668 31.044L152.376 32.8933L154.147 29.5573L150.668 31.044ZM145.204 26.2253L146.021 26.9066C145.355 27.6319 144.595 28.0186 143.743 28.0666C142.891 28.1146 142.085 27.824 141.328 27.1906C140.455 26.4626 140.019 25.5946 140.02 24.5866C140.02 23.5773 140.46 22.5466 141.339 21.4946C142.148 20.5226 143.051 19.9679 144.047 19.8293C145.043 19.6919 145.981 19.9906 146.864 20.7253C147.565 21.3106 147.989 21.972 148.135 22.7066C148.28 23.4426 148.127 24.1533 147.675 24.8373L146.849 24.1493C147.113 23.6733 147.189 23.2026 147.079 22.7359C146.968 22.2706 146.676 21.84 146.204 21.4466C145.576 20.9226 144.904 20.7359 144.189 20.8879C143.475 21.0386 142.783 21.516 142.113 22.32C141.481 23.0773 141.155 23.836 141.133 24.5946C141.113 25.3533 141.4 25.9799 141.995 26.4773C142.504 26.8999 143.051 27.0893 143.639 27.044C144.227 26.9986 144.748 26.7253 145.204 26.2253M136.603 23.2426L141.351 16.708L142.237 17.352L137.489 23.8866L136.603 23.2426ZM134.677 12.3079L137.323 13.984C137.752 14.256 138.056 14.4746 138.235 14.6399C138.413 14.8053 138.556 14.9813 138.661 15.1693C138.849 15.5093 138.928 15.8666 138.9 16.2426C138.872 16.6186 138.737 16.996 138.497 17.376C138.264 17.744 137.987 18.008 137.664 18.1693C137.341 18.3306 136.976 18.3866 136.571 18.3373C136.789 18.58 136.899 18.8239 136.9 19.0719C136.901 19.3186 136.783 19.6613 136.545 20.1L135.911 21.2746C135.773 21.5253 135.691 21.7253 135.664 21.8746C135.636 22.024 135.655 22.1533 135.719 22.264L135.599 22.4533L134.528 21.7759C134.532 21.5786 134.664 21.236 134.925 20.7493C134.933 20.736 134.94 20.7266 134.944 20.7213L135.452 19.796C135.711 19.32 135.801 18.9613 135.723 18.7226C135.645 18.4826 135.279 18.1546 134.625 17.7399L133.124 16.7893L131.272 19.7133L130.355 19.132L134.677 12.3079ZM135.077 13.6853L133.613 15.9959L135.197 17C135.769 17.3613 136.232 17.5253 136.585 17.4893C136.939 17.4533 137.252 17.2199 137.527 16.7879C137.783 16.3826 137.852 16.0266 137.736 15.7186C137.619 15.4119 137.261 15.068 136.663 14.688L135.077 13.6853ZM124.005 15.7893L127.696 8.60395L132.819 11.2346L132.36 12.1279L128.204 9.99328L127.101 12.1399L130.94 14.1106L130.509 14.9506L126.671 12.9786L125.433 15.3879L129.672 17.5653L129.211 18.4626L124.005 15.7893ZM116.507 12.6826L119.501 5.18128L120.52 5.58795L119.289 8.66929L123.181 10.2226L124.411 7.14128L125.435 7.54928L122.44 15.0519L121.416 14.6426L122.819 11.1293L118.928 9.57595L117.525 13.0893L116.507 12.6826ZM109.721 10.632L111.996 2.88128L114.848 3.71861C115.311 3.85328 115.657 3.97995 115.885 4.09729C116.115 4.21329 116.308 4.35195 116.467 4.51328C116.732 4.77728 116.899 5.10262 116.968 5.48928C117.039 5.87462 117.007 6.29462 116.873 6.74662C116.747 7.17862 116.551 7.53462 116.287 7.81462C116.021 8.09462 115.699 8.28661 115.317 8.38795C115.099 8.44528 114.857 8.46128 114.592 8.43462C114.328 8.40928 113.908 8.31062 113.332 8.14262L111.733 7.67329L110.775 10.9413L109.721 10.632ZM112.008 6.73595L113.776 7.25461C114.389 7.43595 114.847 7.46262 115.149 7.33862C115.451 7.21329 115.671 6.91195 115.811 6.43462C115.945 5.97595 115.921 5.61062 115.739 5.33995C115.555 5.06795 115.18 4.85061 114.616 4.68395L112.769 4.14262L112.008 6.73595ZM102.768 6.45462L103.807 6.66128C103.703 7.23728 103.803 7.73195 104.107 8.14661C104.409 8.56128 104.872 8.82928 105.492 8.95328C106.105 9.07462 106.615 9.04262 107.019 8.85462C107.423 8.66662 107.669 8.35061 107.759 7.90528C107.879 7.29995 107.307 6.70661 106.043 6.12795C105.968 6.09328 105.909 6.06662 105.869 6.04795C104.844 5.57995 104.189 5.15328 103.905 4.77062C103.623 4.38928 103.537 3.90928 103.653 3.33195C103.793 2.62528 104.164 2.10929 104.765 1.78395C105.368 1.45729 106.097 1.37995 106.953 1.55062C107.828 1.72395 108.472 2.08662 108.884 2.63595C109.297 3.18662 109.429 3.85462 109.28 4.64128L108.252 4.44261C108.321 3.90395 108.221 3.46129 107.953 3.11329C107.685 2.76529 107.271 2.53595 106.707 2.42395C106.18 2.31861 105.736 2.35062 105.375 2.51996C105.013 2.68796 104.793 2.96395 104.717 3.34795C104.596 3.96128 105.157 4.54795 106.403 5.10795C106.587 5.19328 106.728 5.25862 106.827 5.30528C106.848 5.31328 106.884 5.32929 106.935 5.35462C107.748 5.72795 108.271 6.06129 108.503 6.35329C108.679 6.57596 108.797 6.82528 108.857 7.10395C108.917 7.38262 108.916 7.67862 108.853 7.99462C108.701 8.75862 108.307 9.31195 107.671 9.65462C107.033 9.99729 106.249 10.076 105.316 9.89062C104.356 9.69995 103.656 9.30795 103.216 8.71595C102.777 8.12262 102.628 7.36928 102.768 6.45462M94.0267 4.12128C94.1574 2.79328 94.5974 1.78928 95.3454 1.10795C96.0934 0.426614 97.064 0.143955 98.2574 0.261288C99.448 0.378622 100.341 0.842619 100.94 1.65462C101.537 2.46662 101.771 3.53861 101.64 4.86928C101.509 6.19728 101.072 7.20262 100.327 7.88395C99.5827 8.56528 98.6147 8.84795 97.4254 8.73195C96.232 8.61462 95.3347 8.14796 94.7334 7.33462C94.132 6.51996 93.896 5.44928 94.0267 4.12128M95.156 4.23195C95.056 5.26262 95.2134 6.09062 95.632 6.71728C96.0494 7.34395 96.6787 7.69862 97.5187 7.78129C98.356 7.86395 99.0387 7.63862 99.5667 7.10395C100.095 6.57062 100.409 5.78796 100.511 4.75862C100.612 3.72529 100.456 2.89595 100.041 2.27195C99.6267 1.64662 99.0014 1.29329 98.164 1.21062C97.324 1.12795 96.6387 1.35328 96.1067 1.88528C95.5747 2.41728 95.2587 3.19995 95.156 4.23195M85.584 1.27328L85.6654 8.15462L84.656 8.16662L84.56 0.0892812L86.128 0.0706146L88.2027 6.22662C88.264 6.40129 88.308 6.53729 88.3374 6.63329C88.3654 6.73062 88.388 6.81461 88.4027 6.88795C88.4307 6.75195 88.4587 6.63195 88.4867 6.52529C88.5147 6.41862 88.544 6.31729 88.576 6.22262L90.576 0.0186228L92.1494 -4.37743e-05L92.2454 8.07595L91.1814 8.08928L91.1 1.20795C91.076 1.32529 91.048 1.44262 91.016 1.56262C90.984 1.68129 90.9507 1.79995 90.916 1.91728L88.9107 8.11595L87.8747 8.12795L85.7734 1.97861C85.7347 1.87595 85.7014 1.76662 85.6707 1.65062C85.64 1.53329 85.6107 1.40795 85.584 1.27328M80.0534 8.65062L79.2894 1.59595L76.7547 1.87062L76.648 0.89462L82.8147 0.22662L82.92 1.20261L80.3854 1.47728L81.1494 8.53195L80.0534 8.65062ZM70.3614 10.2879L71.768 1.78662L72.9574 1.55596L77.452 8.91329L76.2827 9.13995L74.984 6.93329L71.8614 7.53862L71.476 10.0719L70.3614 10.2879ZM72.016 6.54795L74.4867 6.06928L72.58 2.80795L72.016 6.54795ZM60.7014 13.2893L58.1347 5.63062L61.052 4.65195C62.1187 4.29462 63.0427 4.33995 63.824 4.78795C64.604 5.23595 65.196 6.05995 65.5987 7.26395C66.016 8.50795 66.0467 9.57462 65.6907 10.4626C65.336 11.3506 64.6307 11.9719 63.5774 12.3253L60.7014 13.2893ZM61.26 5.56662L59.4707 6.16528L61.428 12.004L63.216 11.4053C63.9827 11.1479 64.4787 10.7053 64.7027 10.0773C64.928 9.44795 64.8774 8.64662 64.5507 7.67329C64.2387 6.73995 63.8 6.09328 63.2347 5.73062C62.6707 5.36928 62.012 5.31328 61.26 5.56662M53.272 16.5346L49.9574 9.16795L51.052 8.67595L56.9014 12.4773C57.0294 12.5599 57.1467 12.6399 57.2494 12.7173C57.352 12.7959 57.4414 12.872 57.5147 12.9466L54.828 6.97595L55.7827 6.54662L59.0974 13.912L58.0134 14.4013L52.056 10.5573C51.964 10.4973 51.876 10.4333 51.7907 10.3639C51.7054 10.2933 51.62 10.2186 51.5347 10.136L54.2227 16.1066L53.272 16.5346ZM46.2534 20.4599L44.8667 11.9559L45.92 11.356L52.5307 16.8893L51.496 17.4773L49.56 15.8026L46.7947 17.376L47.24 19.8986L46.2534 20.4599ZM46.624 16.3879L48.812 15.1426L45.9627 12.6626L46.624 16.3879ZM40.6947 20.6239L41.544 19.9813C42.0987 20.7946 42.304 21.6213 42.16 22.4626C42.0147 23.304 41.5494 24.0226 40.7614 24.6186C39.856 25.304 38.9107 25.5333 37.9294 25.3053C36.9467 25.0773 36.0414 24.4159 35.2147 23.3239C34.4507 22.3146 34.1134 21.3106 34.204 20.3079C34.2934 19.3066 34.796 18.46 35.712 17.7666C36.44 17.216 37.18 16.9519 37.9294 16.9759C38.6787 16.9999 39.336 17.3093 39.9014 17.9039L39.044 18.5519C38.64 18.1879 38.1987 18.0079 37.7187 18.0106C37.24 18.0146 36.756 18.2013 36.2654 18.5719C35.6134 19.0666 35.28 19.6786 35.2667 20.408C35.2534 21.1386 35.5614 21.9199 36.1934 22.7546C36.7894 23.5413 37.4547 24.0306 38.188 24.2213C38.9227 24.4133 39.5987 24.2746 40.216 23.8066C40.744 23.4079 41.052 22.916 41.14 22.3333C41.228 21.7506 41.08 21.1813 40.6947 20.6239M35.8494 28.3319L30.5534 22.2319L31.3827 21.5133L36.6774 27.6133L35.8494 28.3319ZM29.9827 33.9533L24.2894 28.2226L25.1414 27.3773L31.9534 28.8799C32.1027 28.9119 32.24 28.9453 32.364 28.9826C32.488 29.0186 32.5974 29.0586 32.6934 29.1039L28.0787 24.4586L28.8214 23.7199L34.5147 29.4506L33.6707 30.2893L26.7414 28.7853C26.636 28.7613 26.5307 28.7319 26.4267 28.6973C26.3214 28.6626 26.2147 28.6213 26.1067 28.5746L30.7214 33.2186L29.9827 33.9533ZM24.7854 40.0906L20.5054 32.6133L21.2814 31.6826L29.412 34.5453L28.6507 35.4599L26.2494 34.5706L24.212 37.0119L25.5134 39.2199L24.7854 40.0906ZM23.7054 36.1466L25.3174 34.2146L21.78 32.8906L23.7054 36.1466ZM21.204 45.2466L14.572 40.6359L17.8587 35.9093L18.6827 36.4813L16.0147 40.3173L17.996 41.6946L20.46 38.1519L21.2347 38.6893L18.7707 42.2333L20.9947 43.7799L23.7147 39.8666L24.544 40.4426L21.204 45.2466ZM17.344 45.7759L17.868 44.8506C18.7 45.3746 19.2174 46.0519 19.4187 46.8813C19.62 47.7106 19.4774 48.5559 18.992 49.4146C18.4334 50.4053 17.6574 50.9906 16.6654 51.1719C15.6734 51.3519 14.5814 51.1053 13.3867 50.4319C12.2854 49.8093 11.5774 49.0213 11.2614 48.0666C10.9467 47.1119 11.0707 46.1346 11.636 45.1346C12.0854 44.3386 12.6587 43.8026 13.356 43.5279C14.0534 43.2519 14.7787 43.2746 15.5347 43.5959L15.0054 44.5319C14.4907 44.3586 14.0134 44.3679 13.5747 44.5613C13.136 44.7546 12.7667 45.1186 12.464 45.6533C12.0614 46.3666 11.9987 47.0599 12.2774 47.7359C12.5547 48.4106 13.1494 49.0053 14.0587 49.5199C14.9187 50.0053 15.7227 50.1893 16.4734 50.0733C17.2227 49.9573 17.788 49.5626 18.1694 48.8879C18.4947 48.3106 18.5827 47.7386 18.432 47.1679C18.2814 46.5986 17.9187 46.1346 17.344 45.7759M9.7747 58.8039C8.55203 58.2706 7.7307 57.5439 7.31337 56.6213C6.89603 55.6999 6.92537 54.6893 7.40537 53.5906C7.8827 52.4946 8.5987 51.7866 9.55603 51.4679C10.512 51.1479 11.604 51.2559 12.8307 51.7906C14.0534 52.3239 14.8747 53.0493 15.2947 53.9679C15.7134 54.8853 15.6854 55.8933 15.208 56.9893C14.728 58.0879 14.0094 58.7986 13.0494 59.1213C12.0907 59.4426 10.9987 59.3373 9.7747 58.8039M10.228 57.7626C11.1774 58.1759 12.0134 58.2813 12.7387 58.0759C13.464 57.8719 13.9947 57.3826 14.332 56.6079C14.668 55.8373 14.664 55.1186 14.3187 54.4519C13.972 53.7839 13.3254 53.2439 12.3774 52.8306C11.4254 52.4159 10.588 52.3106 9.8667 52.5119C9.14403 52.7146 8.61604 53.1999 8.28004 53.9706C7.94271 54.7453 7.94537 55.4679 8.2867 56.1373C8.62937 56.8066 9.27737 57.3479 10.228 57.7626M10.872 68.7533L3.11203 66.5093L3.42003 65.4453L10.2 67.4053L11.3174 63.5386L12.2974 63.8226L10.872 68.7533ZM9.1827 76.6239L1.86137 72.0813L2.10137 70.8933L10.616 69.5453L10.38 70.7119L7.84537 71.0719L7.21337 74.1893L9.40803 75.5119L9.1827 76.6239ZM6.35604 73.6679L6.85604 71.2013L3.11471 71.7199L6.35604 73.6679ZM8.40403 83.7919L0.370698 82.9399L0.497367 81.7466L6.7307 78.6133C6.8667 78.5426 6.99471 78.4826 7.11337 78.4333C7.23204 78.3839 7.3427 78.3453 7.44536 78.3199L0.934704 77.6293L1.04537 76.5879L9.07737 77.4386L8.95204 78.6226L2.62803 81.8293C2.53203 81.8773 2.4307 81.9213 2.32803 81.9599C2.22403 81.9986 2.11604 82.0333 2.00271 82.0653L8.51337 82.7559L8.40403 83.7919ZM4.24271 92.8066C2.90804 92.8026 1.86671 92.4599 1.11737 91.7799C0.368039 91.0999 -0.00396809 90.1599 3.19141e-05 88.9599C0.00403191 87.7653 0.381374 86.8306 1.13204 86.1586C1.88404 85.4866 2.92937 85.1533 4.2667 85.1573C5.60137 85.1613 6.64271 85.5026 7.39204 86.1786C8.14137 86.8559 8.5147 87.7919 8.5107 88.9879C8.5067 90.1866 8.12804 91.1239 7.37471 91.7999C6.62137 92.4759 5.57737 92.8119 4.24271 92.8066M4.24671 91.6719C5.28137 91.6759 6.0907 91.4399 6.6747 90.9639C7.26004 90.4893 7.55336 89.8293 7.55603 88.9853C7.5587 88.1439 7.26937 87.4853 6.68804 87.0106C6.10671 86.5346 5.29871 86.2959 4.26404 86.2919C3.22537 86.2893 2.4147 86.5239 1.83203 86.9946C1.24937 87.4666 0.956037 88.1226 0.953371 88.9639C0.950704 89.8079 1.24004 90.4693 1.81871 90.9479C2.39871 91.4279 3.20804 91.6693 4.24671 91.6719M8.50804 95.3373L0.44804 95.8799L0.374706 94.7853L8.4347 94.2426L8.50804 95.3373ZM8.9827 99.9573L1.9427 100.837L2.2587 103.368L1.28404 103.489L0.514701 97.3346L1.48937 97.2133L1.80537 99.7439L8.8467 98.8639L8.9827 99.9573ZM10.7814 109.62L2.2587 108.355L2.00804 107.169L9.28804 102.555L9.5347 103.719L7.3507 105.055L8.00804 108.167L10.5467 108.509L10.7814 109.62ZM7.0147 108.028L6.4947 105.565L3.26537 107.525L7.0147 108.028ZM12.9134 116.508L5.2027 118.917L4.84537 117.771L9.32004 112.42C9.41737 112.301 9.5107 112.196 9.60004 112.103C9.68937 112.009 9.77604 111.931 9.86004 111.867L3.6107 113.82L3.29736 112.82L11.008 110.411L11.3627 111.547L6.83336 117C6.76403 117.084 6.68937 117.164 6.60937 117.24C6.52937 117.316 6.44403 117.392 6.35203 117.467L12.6027 115.515L12.9134 116.508Z" fill="#00AFED"/>
<path d="M164.97 137.071L158.021 132.952L160.957 127.999L161.821 128.511L159.438 132.53L161.514 133.76L163.714 130.048L164.526 130.528L162.325 134.242L164.656 135.623L167.085 131.523L167.953 132.038L164.97 137.071ZM161.074 137.536L161.696 136.672C162.466 137.286 162.906 138.015 163.016 138.862C163.126 139.707 162.893 140.531 162.317 141.334C161.653 142.256 160.818 142.754 159.813 142.826C158.806 142.898 157.748 142.534 156.634 141.734C155.606 140.995 154.989 140.135 154.778 139.151C154.569 138.168 154.8 137.21 155.469 136.278C156.002 135.536 156.63 135.066 157.354 134.867C158.077 134.668 158.797 134.77 159.512 135.172L158.885 136.044C158.392 135.816 157.917 135.774 157.46 135.919C157.002 136.063 156.594 136.384 156.237 136.883C155.758 137.548 155.621 138.231 155.824 138.934C156.026 139.635 156.552 140.291 157.401 140.9C158.202 141.476 158.982 141.747 159.741 141.714C160.498 141.68 161.104 141.348 161.556 140.719C161.942 140.182 162.092 139.622 162.004 139.039C161.916 138.456 161.606 137.955 161.074 137.536M149.093 144.512L151.14 142.143C151.472 141.759 151.733 141.49 151.922 141.338C152.112 141.184 152.308 141.07 152.509 140.992C152.873 140.858 153.238 140.831 153.606 140.915C153.974 140.998 154.328 141.187 154.668 141.48C154.997 141.764 155.218 142.079 155.329 142.422C155.441 142.764 155.444 143.134 155.334 143.527C155.606 143.347 155.865 143.274 156.11 143.31C156.354 143.344 156.676 143.512 157.074 143.812L158.144 144.612C158.372 144.786 158.557 144.896 158.701 144.946C158.844 144.995 158.974 144.995 159.093 144.947L159.264 145.095L158.436 146.054C158.241 146.02 157.922 145.839 157.478 145.508C157.466 145.499 157.458 145.492 157.453 145.487L156.613 144.85C156.18 144.523 155.84 144.38 155.59 144.422C155.342 144.464 154.965 144.778 154.458 145.364L153.297 146.708L155.916 148.971L155.206 149.792L149.093 144.512ZM150.513 144.319L152.584 146.108L153.81 144.688C154.252 144.176 154.481 143.743 154.498 143.388C154.516 143.034 154.33 142.688 153.942 142.354C153.58 142.04 153.238 141.919 152.917 141.99C152.596 142.06 152.202 142.363 151.74 142.9L150.513 144.319ZM149.921 155.068L144.276 149.291L148.394 145.267L149.096 145.984L145.753 149.25L147.44 150.975L150.526 147.959L151.185 148.634L148.098 151.65L149.992 153.587L153.401 150.258L154.106 150.979L149.921 155.068ZM138.994 155.231L143.316 160.587L142.53 161.22L137.458 154.934L138.678 153.95L144.117 157.502C144.273 157.602 144.392 157.68 144.474 157.739C144.557 157.798 144.626 157.85 144.684 157.898C144.621 157.775 144.568 157.662 144.525 157.562C144.481 157.46 144.442 157.363 144.408 157.268L142.14 151.156L143.365 150.168L148.437 156.455L147.609 157.123L143.288 151.767C143.341 151.874 143.393 151.984 143.441 152.098C143.49 152.21 143.537 152.324 143.582 152.438L145.842 158.548L145.036 159.199L139.58 155.668C139.486 155.611 139.392 155.546 139.296 155.474C139.2 155.4 139.1 155.32 138.994 155.231M131.625 160.183L135.349 165.971L134.5 166.516L130.13 159.724L131.449 158.875L136.476 162.99C136.62 163.106 136.73 163.196 136.805 163.263C136.881 163.33 136.945 163.39 136.997 163.444C136.948 163.314 136.908 163.196 136.874 163.092C136.841 162.987 136.813 162.886 136.789 162.788L135.189 156.468L136.513 155.618L140.882 162.411L139.988 162.986L136.265 157.199C136.306 157.311 136.345 157.426 136.382 157.543C136.418 157.662 136.453 157.779 136.486 157.898L138.078 164.215L137.208 164.775L132.16 160.68C132.074 160.614 131.988 160.539 131.9 160.456C131.812 160.374 131.72 160.283 131.625 160.183M124.392 167.206C123.79 166.015 123.624 164.931 123.89 163.955C124.157 162.979 124.825 162.22 125.896 161.68C126.962 161.142 127.966 161.054 128.906 161.419C129.846 161.784 130.617 162.564 131.221 163.758C131.822 164.95 131.99 166.032 131.728 167.007C131.464 167.982 130.798 168.738 129.732 169.278C128.661 169.818 127.654 169.906 126.71 169.54C125.766 169.175 124.993 168.398 124.392 167.206M125.405 166.695C125.872 167.618 126.449 168.232 127.137 168.538C127.826 168.843 128.548 168.806 129.301 168.426C130.052 168.047 130.508 167.49 130.668 166.756C130.826 166.022 130.673 165.194 130.208 164.27C129.74 163.343 129.164 162.727 128.478 162.422C127.794 162.116 127.076 162.152 126.325 162.531C125.572 162.912 125.113 163.47 124.949 164.203C124.785 164.938 124.937 165.768 125.405 166.695M122.992 168.887L123.984 168.502C124.296 169.436 124.266 170.288 123.896 171.056C123.526 171.826 122.881 172.39 121.961 172.747C120.901 173.158 119.93 173.119 119.048 172.631C118.166 172.142 117.477 171.258 116.981 169.98C116.522 168.802 116.474 167.743 116.836 166.804C117.197 165.866 117.913 165.188 118.982 164.774C119.834 164.443 120.617 164.391 121.332 164.62C122.046 164.848 122.593 165.326 122.974 166.054L121.972 166.442C121.684 165.982 121.308 165.687 120.846 165.559C120.385 165.43 119.868 165.476 119.294 165.699C118.532 165.995 118.044 166.494 117.83 167.191C117.617 167.89 117.7 168.727 118.078 169.702C118.436 170.622 118.941 171.274 119.594 171.659C120.248 172.044 120.936 172.098 121.658 171.816C122.276 171.578 122.706 171.19 122.952 170.654C123.196 170.118 123.209 169.528 122.992 168.887M108.981 176.504L107.006 168.672L112.265 167.346L112.513 168.33L108.317 169.387L108.91 171.738L112.573 170.814L112.814 171.771L109.152 172.695L110.044 176.236L108.981 176.504ZM99.1558 174.127C98.9451 172.808 99.1158 171.726 99.6678 170.878C100.22 170.028 101.088 169.51 102.272 169.322C103.452 169.134 104.434 169.356 105.218 169.991C106.002 170.624 106.5 171.602 106.71 172.923C106.92 174.242 106.75 175.324 106.202 176.172C105.654 177.02 104.79 177.538 103.61 177.726C102.425 177.915 101.44 177.691 100.652 177.056C99.8638 176.42 99.3651 175.444 99.1558 174.127ZM100.276 173.948C100.438 174.97 100.801 175.731 101.365 176.232C101.928 176.732 102.626 176.916 103.46 176.784C104.29 176.652 104.893 176.26 105.269 175.61C105.645 174.96 105.752 174.124 105.589 173.102C105.425 172.076 105.064 171.315 104.505 170.815C103.946 170.315 103.252 170.131 102.421 170.264C101.588 170.396 100.981 170.787 100.601 171.436C100.221 172.086 100.113 172.923 100.276 173.948M91.8705 178.588L91.6358 171.496L89.0878 171.58L89.0558 170.599L95.2545 170.395L95.2865 171.376L92.7385 171.46L92.9718 178.552L91.8705 178.588ZM81.6958 178.346L82.1011 170.279L83.3011 170.339L86.7745 176.388C86.8518 176.52 86.9198 176.644 86.9758 176.76C87.0318 176.876 87.0758 176.986 87.1078 177.086L87.4358 170.547L88.4825 170.599L88.0771 178.666L86.8878 178.607L83.3371 172.471C83.2825 172.376 83.2331 172.279 83.1891 172.178C83.1451 172.076 83.1038 171.971 83.0651 171.859L82.7371 178.398L81.6958 178.346ZM74.3011 177.384L75.4158 169.384L81.1198 170.18L80.9811 171.174L76.3531 170.528L76.0198 172.919L80.2945 173.514L80.1638 174.448L75.8905 173.852L75.5158 176.535L80.2358 177.194L80.0958 178.192L74.3011 177.384ZM67.4958 168.836L65.8958 175.53L64.9145 175.296L66.7918 167.439L68.3171 167.804L68.8278 174.28C68.8438 174.464 68.8545 174.607 68.8585 174.707C68.8625 174.808 68.8625 174.895 68.8598 174.97C68.9198 174.846 68.9771 174.735 69.0305 174.639C69.0825 174.542 69.1371 174.451 69.1905 174.367L72.6425 168.838L74.1731 169.203L72.2958 177.06L71.2611 176.812L72.8611 170.119C72.8091 170.227 72.7531 170.335 72.6931 170.443C72.6345 170.551 72.5731 170.656 72.5105 170.762L69.0531 176.284L68.0451 176.044L67.5078 169.567C67.4958 169.459 67.4891 169.344 67.4878 169.224C67.4865 169.103 67.4891 168.974 67.4958 168.836M60.2465 173.743L62.5225 167.022L60.1065 166.203L60.4225 165.274L66.2958 167.263L65.9811 168.194L63.5665 167.375L61.2905 174.096L60.2465 173.743ZM54.6065 162.776L57.4811 164.019C57.9478 164.22 58.2811 164.388 58.4838 164.524C58.6865 164.659 58.8545 164.811 58.9891 164.98C59.2265 165.287 59.3611 165.628 59.3918 166.003C59.4225 166.379 59.3491 166.774 59.1705 167.186C58.9985 167.586 58.7651 167.89 58.4705 168.099C58.1771 168.31 57.8265 168.422 57.4171 168.436C57.6718 168.642 57.8185 168.866 57.8585 169.11C57.8971 169.354 57.8345 169.711 57.6665 170.18L57.2238 171.44C57.1278 171.71 57.0771 171.92 57.0731 172.072C57.0705 172.223 57.1078 172.348 57.1891 172.447L57.0998 172.654L55.9371 172.151C55.9105 171.956 55.9878 171.598 56.1691 171.075C56.1758 171.062 56.1798 171.051 56.1825 171.044L56.5398 170.052C56.7211 169.54 56.7545 169.172 56.6411 168.948C56.5265 168.724 56.1131 168.458 55.4025 168.15L53.7718 167.446L52.3985 170.622L51.4025 170.191L54.6065 162.776ZM55.2171 164.074L54.1318 166.586L55.8531 167.33C56.4731 167.598 56.9558 167.687 57.2998 167.596C57.6438 167.506 57.9171 167.226 58.1198 166.756C58.3091 166.316 58.3238 165.954 58.1598 165.668C57.9971 165.383 57.5891 165.099 56.9385 164.818L55.2171 164.074ZM44.0145 166.31L50.4811 160.615L51.5491 161.19L50.3758 169.73L49.3278 169.166L49.7171 166.636L46.9158 165.13L45.0145 166.847L44.0145 166.31ZM47.6611 164.46L49.8785 165.652L50.4651 161.92L47.6611 164.46ZM38.5745 162.783L42.9758 156.011L45.4678 157.63C45.8731 157.894 46.1678 158.114 46.3531 158.291C46.5385 158.468 46.6851 158.656 46.7905 158.856C46.9691 159.186 47.0358 159.544 46.9918 159.935C46.9478 160.324 46.7971 160.718 46.5398 161.112C46.2958 161.49 46.0051 161.775 45.6705 161.967C45.3371 162.16 44.9731 162.25 44.5785 162.239C44.3531 162.231 44.1171 162.176 43.8705 162.076C43.6251 161.975 43.2505 161.76 42.7478 161.434L41.3491 160.526L39.4945 163.382L38.5745 162.783ZM41.8811 159.707L43.4265 160.711C43.9625 161.06 44.3931 161.218 44.7185 161.184C45.0425 161.151 45.3411 160.926 45.6118 160.51C45.8718 160.107 45.9545 159.751 45.8558 159.439C45.7585 159.127 45.4625 158.81 44.9691 158.49L43.3545 157.44L41.8811 159.707ZM32.6198 158.279L37.5651 151.894L42.1171 155.419L41.5025 156.212L37.8091 153.351L36.3318 155.259L39.7438 157.902L39.1665 158.647L35.7545 156.004L34.0958 158.146L37.8625 161.064L37.2451 161.862L32.6198 158.279ZM26.5025 152.766L31.9865 146.835L34.2451 148.924C35.0718 149.688 35.4758 150.52 35.4585 151.42C35.4411 152.32 35.0011 153.235 34.1398 154.167C33.2491 155.131 32.3278 155.67 31.3785 155.784C30.4278 155.899 29.5451 155.579 28.7291 154.824L26.5025 152.766ZM33.5438 149.546L32.1585 148.264L27.9785 152.786L29.3625 154.066C29.9558 154.615 30.5825 154.836 31.2411 154.732C31.9011 154.627 32.5798 154.198 33.2771 153.444C33.9451 152.722 34.3025 152.026 34.3478 151.356C34.3945 150.687 34.1265 150.084 33.5438 149.546ZM22.0118 147.9L22.9291 147.092L23.6731 147.935L22.7558 148.744L22.0118 147.9ZM19.0678 140.01L19.7185 140.844C19.2638 141.212 19.0158 141.652 18.9745 142.164C18.9331 142.676 19.1065 143.182 19.4958 143.68C19.8798 144.174 20.2865 144.482 20.7158 144.604C21.1438 144.726 21.5371 144.648 21.8958 144.37C22.3825 143.99 22.3371 143.167 21.7598 141.903C21.7251 141.828 21.6985 141.77 21.6798 141.728C21.2105 140.704 20.9931 139.955 21.0291 139.479C21.0651 139.004 21.3145 138.586 21.7785 138.224C22.3465 137.782 22.9651 137.634 23.6331 137.78C24.3011 137.927 24.9038 138.346 25.4411 139.035C25.9891 139.738 26.2398 140.432 26.1918 141.119C26.1451 141.804 25.8078 142.396 25.1811 142.894L24.5331 142.071C24.9371 141.71 25.1518 141.31 25.1758 140.871C25.1998 140.432 25.0358 139.987 24.6838 139.535C24.3531 139.111 23.9958 138.844 23.6118 138.735C23.2291 138.627 22.8825 138.692 22.5745 138.932C22.0811 139.316 22.1225 140.128 22.6971 141.367C22.7811 141.552 22.8465 141.694 22.8905 141.794C22.9011 141.812 22.9185 141.848 22.9398 141.9C23.3105 142.715 23.4878 143.31 23.4731 143.682C23.4611 143.964 23.3878 144.231 23.2505 144.482C23.1145 144.731 22.9185 144.955 22.6651 145.152C22.0505 145.631 21.3905 145.792 20.6851 145.636C19.9785 145.479 19.3345 145.026 18.7491 144.276C18.1478 143.503 17.8731 142.75 17.9291 142.014C17.9838 141.278 18.3638 140.61 19.0678 140.01M15.3598 139.252L16.3678 138.56L17.0038 139.487L15.9958 140.179L15.3598 139.252ZM13.5691 130.538L17.8785 127.976L18.4385 128.92L14.1211 131.486C13.4705 131.872 13.0745 132.302 12.9345 132.774C12.7945 133.247 12.9038 133.784 13.2611 134.388C13.6171 134.986 14.0398 135.336 14.5291 135.443C15.0198 135.55 15.5865 135.412 16.2265 135.031L20.5451 132.464L21.1078 133.412L16.7998 135.972C15.8691 136.526 15.0225 136.704 14.2598 136.508C13.4985 136.314 12.8398 135.751 12.2878 134.82C11.7718 133.952 11.6211 133.162 11.8345 132.448C12.0491 131.735 12.6265 131.098 13.5691 130.538" fill="#00AFED"/>
</svg>
