<svg width="400" height="133" viewBox="0 0 400 133" fill="none" xmlns="http://www.w3.org/2000/svg">
<path d="M104.488 9.8494C104.488 15.2734 100.063 19.6987 94.6389 19.6987C89.2149 19.6987 84.7896 15.4161 84.7896 9.8494C84.7896 4.28273 89.2149 6.47524e-05 94.6389 6.47524e-05C100.063 6.47524e-05 104.488 4.4254 104.488 9.8494Z" fill="#00AFED"/>
<path d="M104.488 9.8494C104.488 15.2734 100.063 19.6987 94.6389 19.6987C89.2149 19.6987 84.7896 15.4161 84.7896 9.8494C84.7896 4.28273 89.2149 6.47524e-05 94.6389 6.47524e-05C100.063 6.47524e-05 104.488 4.4254 104.488 9.8494Z" fill="#00AFED"/>
<path d="M104.488 66.5188C104.488 71.9428 100.063 76.3682 94.6389 76.3682C89.2149 76.3682 84.7896 71.9428 84.7896 66.5188C84.7896 61.0948 89.2149 56.6695 94.6389 56.6695C100.063 56.6695 104.488 61.0948 104.488 66.5188Z" fill="#00AFED"/>
<path d="M104.488 38.2554C104.488 43.6794 100.063 48.1047 94.6389 48.1047C89.2149 48.1047 84.7896 43.6794 84.7896 38.2554C84.7896 32.8314 89.2149 28.4061 94.6389 28.4061C100.063 28.4061 104.488 32.6887 104.488 38.2554Z" fill="#00AFED"/>
<path d="M104.488 94.782C104.488 100.206 100.063 104.631 94.6389 104.631C89.2149 104.631 84.7896 100.206 84.7896 94.782C84.7896 89.358 89.2149 84.9327 94.6389 84.9327C100.063 84.9327 104.488 89.358 104.488 94.782Z" fill="#00AFED"/>
<path d="M104.488 123.045C104.488 128.469 100.063 132.895 94.6389 132.895C89.2149 132.895 84.7896 128.469 84.7896 123.045C84.7896 117.621 89.2149 113.196 94.6389 113.196C100.063 113.196 104.488 117.621 104.488 123.045Z" fill="#00AFED"/>
<path d="M76.225 66.5188C76.225 71.9428 71.7997 76.3682 66.3757 76.3682C60.9517 76.3682 56.5264 71.9428 56.5264 66.5188C56.5264 61.0948 60.9517 56.6695 66.3757 56.6695C71.7997 56.6695 76.225 61.0948 76.225 66.5188Z" fill="#00AFED"/>
<path d="M76.225 94.782C76.225 100.206 71.7997 104.631 66.3757 104.631C60.9517 104.631 56.5264 100.206 56.5264 94.782C56.5264 89.358 60.9517 84.9327 66.3757 84.9327C71.7997 84.9327 76.225 89.358 76.225 94.782Z" fill="#00AFED"/>
<path d="M76.225 123.045C76.225 128.469 71.7997 132.895 66.3757 132.895C60.9517 132.895 56.5264 128.469 56.5264 123.045C56.5264 117.621 60.9517 113.196 66.3757 113.196C71.7997 113.196 76.225 117.621 76.225 123.045Z" fill="#00AFED"/>
<path d="M47.9618 94.782C47.9618 100.206 43.5365 104.631 38.1125 104.631C32.6885 104.631 28.2632 100.206 28.2632 94.782C28.2632 89.358 32.6885 84.9327 38.1125 84.9327C43.5365 84.9327 47.9618 89.358 47.9618 94.782Z" fill="#00AFED"/>
<path d="M47.9618 123.045C47.9618 128.469 43.5365 132.895 38.1125 132.895C32.6885 132.895 28.2632 128.469 28.2632 123.045C28.2632 117.621 32.6885 113.196 38.1125 113.196C43.5365 113.196 47.9618 117.621 47.9618 123.045Z" fill="#00AFED"/>
<path d="M19.6987 66.5188C19.6987 71.9428 15.2733 76.3682 9.84933 76.3682C4.42533 76.3682 0 71.9428 0 66.5188C0 61.0948 4.42533 56.6695 9.84933 56.6695C15.2733 56.6695 19.6987 61.0948 19.6987 66.5188Z" fill="#00AFED"/>
<path d="M19.6987 94.782C19.6987 100.206 15.2733 104.631 9.84933 104.631C4.42533 104.631 0 100.206 0 94.782C0 89.358 4.42533 84.9327 9.84933 84.9327C15.2733 84.9327 19.6987 89.358 19.6987 94.782Z" fill="#00AFED"/>
<path d="M19.6987 123.045C19.6987 128.469 15.2733 132.895 9.84933 132.895C4.42533 132.895 0 128.469 0 123.045C0 117.621 4.42533 113.196 9.84933 113.196C15.2733 113.196 19.6987 117.621 19.6987 123.045Z" fill="#00AFED"/>
<path d="M141.602 78.2238H145.742C149.167 78.2238 155.448 78.2238 155.448 70.8011C155.448 64.0918 149.88 64.0918 146.883 64.0918H141.602V78.2238ZM131.324 56.0985H146.455C153.45 56.0985 159.444 56.5265 163.442 61.5225C166.011 64.6625 166.439 68.2318 166.439 70.6585C166.439 76.3678 164.012 81.2211 160.159 83.6478C156.59 85.9318 151.594 85.9318 149.024 85.9318H141.887V105.06H131.182V56.0985H131.324Z" fill="#00AFED"/>
<path d="M176.574 94.4965C176.574 96.7805 178.145 99.3498 181.427 99.3498C183.283 99.3498 184.71 98.4938 185.71 97.3512C187.422 95.2098 187.565 92.4978 187.565 88.9298C181.142 88.3578 176.574 90.4992 176.574 94.4965ZM188.993 105.059C188.707 102.918 188.707 101.349 188.707 100.349C184.853 105.917 180.286 105.917 178.43 105.917C173.434 105.917 171.293 104.489 169.865 103.205C167.866 101.206 166.867 98.3512 166.867 95.6378C166.867 92.9258 167.866 87.9298 174.147 84.9325C178.287 83.0765 184.425 83.0765 187.707 83.0765C187.707 80.7925 187.707 79.7938 187.279 78.5098C186.423 75.9392 183.711 75.6538 182.855 75.6538C181.427 75.6538 179.999 76.2258 179.001 77.5098C178.287 78.6525 178.287 79.7938 178.287 80.5072H168.438C168.438 78.6525 168.723 74.9405 172.291 72.3712C175.433 70.0872 179.429 69.5165 182.713 69.5165C185.567 69.5165 191.562 69.9445 194.989 73.9418C197.271 76.7965 197.414 80.7925 197.414 82.3632V96.2098C197.414 99.0645 197.558 102.062 198.271 104.917H188.993V105.059Z" fill="#00AFED"/>
<path d="M210.405 70.8012L217.97 94.6399L225.678 70.8012H235.67L222.681 104.489L218.541 118.192H208.406L212.831 105.203L199.557 70.8012H210.405Z" fill="#00AFED"/>
<path d="M247.803 89.3578C247.803 91.6418 247.66 98.6365 256.654 98.6365C262.363 98.6365 265.931 95.9245 265.931 91.7845C265.931 87.5018 262.934 86.6458 256.654 85.2178C244.948 82.3631 238.524 78.7951 238.524 70.3725C238.524 62.2365 244.235 55.0992 257.938 55.0992C263.076 55.0992 269.072 56.2418 272.783 60.8085C275.638 64.3778 275.638 68.2311 275.638 69.9445H265.503C265.36 68.2311 264.79 62.5218 257.51 62.5218C252.656 62.5218 249.374 65.2338 249.374 69.2311C249.374 73.7991 252.942 74.6552 260.079 76.3685C268.5 78.3672 276.923 80.6498 276.923 90.3565C276.923 99.2071 269.643 106.344 255.939 106.344C237.098 106.344 236.955 94.2111 236.955 89.5005H247.803" fill="#00AFED"/>
<path d="M300.904 82.9344C300.761 81.649 300.333 76.653 296.479 76.653C291.768 76.653 291.197 83.7904 291.197 87.645C291.197 89.501 291.34 95.6383 293.767 98.2077C294.765 99.2077 295.765 99.3503 296.479 99.3503C297.621 99.3503 300.619 98.921 301.047 92.7837H310.896C310.753 95.4957 310.468 99.6357 306.471 102.918C304.044 105.06 300.904 106.058 296.764 106.058C292.196 106.058 288.2 105.06 285.06 101.492C282.061 98.065 280.777 93.497 280.777 87.9303C280.777 72.3717 292.196 70.0877 296.764 70.0877C303.188 70.0877 310.753 73.6557 310.753 82.9344H300.904Z" fill="#00AFED"/>
<path d="M323.172 94.4965C323.172 96.7805 324.743 99.3498 328.025 99.3498C329.881 99.3498 331.308 98.4938 332.308 97.3512C334.02 95.2098 334.164 92.4978 334.164 88.9298C327.883 88.3578 323.172 90.4992 323.172 94.4965ZM335.591 105.059C335.305 102.918 335.305 101.349 335.305 100.349C331.451 105.917 327.027 105.917 325.028 105.917C320.032 105.917 317.891 104.489 316.463 103.205C314.464 101.206 313.465 98.3512 313.465 95.6378C313.465 92.9258 314.464 87.9298 320.745 84.9325C325.028 83.0765 331.023 83.0765 334.307 83.0765C334.307 80.7925 334.307 79.7938 333.877 78.5098C333.021 75.9392 330.309 75.6538 329.453 75.6538C328.025 75.6538 326.597 76.2258 325.599 77.5098C324.885 78.6525 324.885 79.7938 324.885 80.5072H315.036C315.036 78.6525 315.321 74.9405 318.889 72.3712C322.031 70.0872 326.027 69.5165 329.311 69.5165C332.165 69.5165 338.16 69.9445 341.587 73.9418C343.869 76.7965 344.012 80.7925 344.012 82.3632V96.2098C344.012 99.0645 344.156 102.062 344.869 104.917H335.591V105.059Z" fill="#00AFED"/>
<path d="M351.007 55.9561H361.141V105.06H351.007V55.9561Z" fill="#00AFED"/>
<path d="M389.12 84.2189C389.12 82.6482 388.977 76.5109 383.125 76.5109C378.7 76.5109 376.844 80.2216 376.701 84.2189H389.12ZM376.273 90.5002C376.273 92.7829 376.273 99.6349 383.268 99.6349C385.837 99.6349 388.264 98.6362 389.262 94.9242H398.398C398.256 96.4949 397.97 99.4922 395.114 102.347C392.545 105.059 388.121 106.344 383.125 106.344C380.269 106.344 374.702 105.774 370.992 102.062C367.85 98.7789 366.566 94.2109 366.566 88.6442C366.566 83.0776 367.993 76.3682 373.704 72.3709C376.416 70.6589 379.556 69.5162 383.41 69.5162C388.264 69.5162 394.116 71.3722 397.256 77.7949C399.54 82.5056 399.397 87.5016 399.254 90.3576H376.273V90.5002Z" fill="#00AFED"/>
</svg>
