<svg width="373" height="129" viewBox="0 0 373 129" fill="none" xmlns="http://www.w3.org/2000/svg">
<path d="M329.037 45.7542C329.037 41.3142 332.589 37.7622 337.029 37.7622C341.469 37.7622 345.022 41.3142 345.022 45.7542C345.022 50.1942 341.469 53.7462 337.029 53.7462C332.589 53.7462 329.037 50.1942 329.037 45.7542Z" fill="#00AFED"/>
<path d="M193.168 72.3952H217.589C215.813 66.6232 210.929 62.1832 205.6 62.1832C199.828 62.1832 195.388 66.1792 193.168 72.3952ZM221.141 80.3872H193.168C194.5 87.4912 199.384 92.8205 205.6 92.8205C210.929 92.8205 214.037 90.1552 215.813 88.3792C217.589 87.0472 219.809 86.6032 222.029 87.9352C224.249 89.7112 224.693 92.8205 222.917 95.0405C218.921 99.4805 213.593 102.145 206.044 102.145C194.056 102.145 184.288 91.0445 184.288 77.7232C184.288 64.4032 194.056 53.3019 206.044 53.3019C216.257 53.3019 224.693 61.2952 227.357 71.5072C227.357 72.3952 227.801 73.2832 227.801 75.0592C227.357 77.2792 225.137 80.3872 221.141 80.3872Z" fill="#00AFED"/>
<path d="M183.843 57.7426C183.843 55.5226 182.067 53.7466 179.847 53.3026C173.631 52.4146 167.414 54.6346 163.418 59.5186V59.0746C163.418 56.4106 161.198 54.6346 158.978 54.6346C156.314 54.6346 154.538 56.8546 154.538 59.0746V96.816C154.538 99.036 156.314 101.256 158.978 101.7C161.642 101.7 163.862 99.924 163.862 97.26V77.724C163.862 69.2866 170.523 62.1826 179.403 63.0706H180.291C182.067 62.1826 183.843 59.9626 183.843 57.7426Z" fill="#00AFED"/>
<path d="M341.913 62.627C341.469 59.963 339.249 58.187 337.029 58.631C334.809 58.631 333.033 60.407 333.033 62.627V96.3723C333.477 99.0363 335.697 100.812 337.917 100.368C340.137 100.368 341.913 98.5923 341.913 96.3723V62.627Z" fill="#00AFED"/>
<path d="M265.099 77.2794C265.099 68.8434 259.327 61.7394 252.223 61.7394C245.119 61.7394 239.789 68.8434 239.789 77.2794C239.789 85.7154 245.563 92.3754 252.667 92.3754C259.327 92.8194 265.099 85.7154 265.099 77.2794ZM273.535 95.9274C273.535 98.5927 271.315 100.369 269.095 100.369C266.875 100.369 265.099 98.5927 264.655 96.8167C261.547 99.9247 257.551 101.701 252.667 101.701C240.677 101.701 230.909 90.5994 230.909 77.2794C230.909 63.9594 240.677 52.858 252.667 52.858C257.551 52.858 261.103 54.19 264.655 57.298V36.874C265.099 34.21 267.319 32.434 269.539 32.878C271.759 32.878 273.535 34.654 273.535 36.874V95.9274Z" fill="#00AFED"/>
<path d="M313.052 77.2794C313.052 68.8434 307.28 61.7394 300.176 61.7394C293.072 61.7394 287.299 68.3994 287.299 77.2794C287.299 85.7154 293.072 92.3754 300.176 92.3754C307.724 92.8194 313.052 85.7154 313.052 77.2794ZM321.488 95.9274C321.488 98.5927 319.268 100.369 317.048 100.369C314.828 100.369 313.052 98.5927 312.608 96.8167C309.5 99.9247 305.504 101.701 300.62 101.701C288.631 101.701 278.863 90.5994 278.863 77.2794C278.863 63.9594 288.631 52.858 300.62 52.858C305.504 52.858 309.056 54.19 312.608 57.298V36.874C313.052 34.21 315.272 32.434 317.492 32.878C319.712 32.878 321.488 34.654 321.488 36.874V95.9274Z" fill="#00AFED"/>
<path d="M365.002 96.3721V62.1828H368.998C371.218 62.1828 372.994 60.4068 372.994 58.1868C372.994 55.9668 371.218 53.7468 368.998 53.7468H368.554H364.558V47.0868C364.558 44.8668 362.782 42.6468 360.118 42.2028C357.454 42.2028 355.234 43.9788 355.234 46.6428V53.3028H351.238C349.018 53.3028 347.242 55.0788 347.242 57.2988C347.242 59.5188 349.018 61.7388 351.238 61.7388H355.234V95.9281C355.234 98.5921 357.454 100.368 359.674 100.368C363.226 100.812 365.002 98.5921 365.002 96.3721Z" fill="#00AFED"/>
<path d="M79.0555 65.7347C75.5035 65.7347 72.3955 68.8427 72.3955 72.3947C72.3955 75.9467 75.5035 79.0547 79.0555 79.0547C82.6075 79.0547 85.7155 75.9467 85.7155 72.3947C85.7155 68.8427 82.6075 65.7347 79.0555 65.7347Z" fill="#00AFED"/>
<path d="M78.168 87.4916C75.504 90.5996 69.288 91.4876 64.848 91.4876C60.408 91.4876 54.192 90.5996 51.5266 87.4916C50.64 86.6036 49.752 86.6036 49.3066 87.4916C48.4186 88.3796 48.4186 89.2676 49.3066 89.7116C53.7466 94.1516 62.628 94.5956 65.292 94.5956C67.956 94.5956 76.392 94.1516 81.276 89.7116C80.832 89.2676 80.832 88.3796 80.388 87.4916C79.5 86.6036 78.612 86.6036 78.168 87.4916Z" fill="#00AFED"/>
<path d="M56.4113 72.3951C56.4113 68.8431 53.3033 65.7351 49.7513 65.7351C46.1993 65.7351 43.0913 68.8431 43.0913 72.3951C43.0913 75.9471 45.7553 79.0551 49.7513 79.0551C53.3033 79.0551 56.4113 75.9471 56.4113 72.3951Z" fill="#00AFED"/>
<path d="M101.701 74.1712V76.8352C101.701 91.4872 84.8286 103.033 63.9592 103.033C43.0912 103.033 26.2179 91.4872 26.2179 76.8352V74.1712C21.3339 71.9512 19.5579 66.6232 21.3339 61.7392C22.6659 58.1859 26.2179 55.9672 29.7699 56.4112C32.4339 56.4112 34.6539 57.2979 36.4299 59.0752C43.9792 54.1912 52.8592 51.0819 61.7392 51.0819L66.6232 28.8819C66.6232 28.4379 67.0672 27.9939 67.0672 27.9939C67.5112 27.5499 67.9552 27.5499 68.3992 27.5499L83.9406 31.1019C85.7152 27.9939 89.7126 26.2179 92.8206 27.9939C95.9286 29.7699 97.7046 33.7659 95.9286 36.8739C94.1526 39.9819 90.1566 41.7579 87.0486 39.9819C84.8286 39.0939 83.4966 36.8739 83.4966 34.2099L69.7312 31.1019L65.2912 51.0819C75.0592 51.5259 83.9406 54.6352 90.1566 59.0752C93.7086 55.5232 99.9246 55.5232 103.477 59.0752C105.253 60.8512 106.141 63.0712 106.141 65.7352C107.473 69.7312 104.809 72.8392 101.701 74.1712ZM62.6272 0.0205562C27.1059 0.908556 -0.86743 30.2139 0.0205696 65.7352C0.90857 99.9245 28.4379 127.453 62.1832 128.785C97.7046 129.674 127.454 101.701 128.342 66.1792V62.6272C127.454 27.1059 98.1486 -0.867444 62.6272 0.0205562Z" fill="#00AFED"/>
</svg>
