<svg width="409" height="133" viewBox="0 0 409 133" fill="none" xmlns="http://www.w3.org/2000/svg">
<path d="M137.843 52.6957C137.843 44.0597 137.851 35.4237 137.833 26.7877C137.831 25.5704 137.792 24.337 137.603 23.1384C136.992 19.2917 135.649 18.1984 131.696 18.1864C129.821 18.1797 127.947 18.1424 126.075 18.193C124.715 18.2304 124.124 17.649 124.209 16.301C124.251 15.653 124.277 14.9917 124.203 14.3477C123.987 12.4624 124.913 11.9877 126.645 11.9997C140.729 12.1037 154.812 12.145 168.896 12.205C168.977 12.205 169.059 12.205 169.14 12.201C172.713 12.0184 173.825 13.4104 172.745 16.9597C172.584 17.4904 171.645 18.077 171.025 18.125C169.081 18.277 167.119 18.1637 165.164 18.1904C160.359 18.253 157.545 20.685 157.483 25.4344C157.291 40.0864 157.217 54.7424 157.244 69.3957C157.256 76.0677 157.483 82.7464 157.869 89.4077C158.041 92.3877 158.611 95.397 159.407 98.281C163.08 111.59 175.291 116.078 186.051 115.233C189.099 114.994 192.172 114.268 195.092 113.325C205.895 109.836 210.756 101.505 212.632 90.9864C213.172 87.9557 213.511 84.8317 213.449 81.7597C213.1 64.101 212.613 46.4437 212.14 28.7877C212.1 27.329 211.88 25.8664 211.641 24.4224C210.951 20.241 208.505 18.197 204.269 18.185C203.292 18.1824 202.301 18.085 201.339 18.205C199.163 18.4757 198.497 17.5744 198.583 15.4397C198.721 11.989 198.601 12.1517 202.127 12.1664C212.544 12.213 222.964 12.161 233.38 12.0304C235.268 12.0064 235.768 12.6477 235.76 14.413C235.74 18.1837 235.813 18.1837 232.153 18.185C231.583 18.185 231.013 18.185 230.443 18.185C225.193 18.1917 222.928 20.3037 222.852 25.5024C222.651 39.4264 222.623 53.353 222.312 67.273C222.103 76.6957 222.311 86.177 219.957 95.4304C215.984 111.052 203.296 121.773 187.223 123.266C178.86 124.044 170.607 123.552 162.551 121.246C148.92 117.345 141.316 107.737 139.496 94.133C138.129 83.933 138.295 73.5237 137.865 63.205C137.72 59.7077 137.843 56.1984 137.843 52.6957Z" fill="#00AFED"/>
<path d="M305.278 69.6798C305.68 49.0118 312.022 33.3265 326.472 21.5345C336.904 13.0212 349.245 9.97318 362.512 10.2732C372.992 10.5092 383.009 12.7292 392.282 17.7652C394.181 18.7958 395.037 18.3838 395.516 16.3425C395.965 14.4278 396.186 12.0118 399.189 12.7878C399.833 12.9545 400.704 13.7785 400.78 14.3852C402.105 25.1265 403.272 35.8865 404.61 46.6252C404.882 48.8038 403.365 48.7145 402.168 49.2052C400.773 49.7758 399.906 49.4532 399.377 47.9252C396.922 40.8438 393.224 34.4878 388.21 28.8892C376.378 15.6772 356.017 12.5892 342.282 22.0892C334.29 27.6172 330.07 35.6985 327.876 44.8852C323.72 62.2825 325.878 78.9105 335.132 94.2772C340.694 103.517 348.498 110.657 359.524 112.248C376.573 114.709 391.221 109.663 402.433 96.1118C404.653 93.4292 404.732 93.3652 407.196 95.8132C408.084 96.6945 408.328 97.4265 407.518 98.5385C395.046 115.672 378.802 124.907 357.045 123.497C343.341 122.609 331.346 118.196 321.344 108.653C313.704 101.364 309.461 92.2225 307.15 82.1478C306.048 77.3398 305.666 72.3665 305.278 69.6798Z" fill="#00AFED"/>
<path d="M240.904 87.3019C241.336 94.2993 243.412 100.639 247.27 106.369C252.68 114.407 262.591 118.425 272.008 116.383C283.17 113.965 288.844 105.155 286.847 93.5379C285.878 87.8966 283.164 83.3473 278.22 80.5673C273.706 78.0273 268.826 76.1419 264.159 73.8606C258.762 71.2233 253.311 68.6646 248.08 65.7219C238.38 60.2673 234.835 51.3953 234.256 40.6833C233.299 22.9339 249.411 11.2099 262.416 10.4139C270.478 9.91927 278.36 10.5873 285.878 13.7819C287.53 14.4833 288.823 14.2339 290.027 12.8939C290.724 12.1179 291.522 11.3553 292.426 10.8633C293.688 10.1753 294.599 10.5313 294.756 12.1633C295.544 20.3446 296.374 28.5233 297.15 36.7059C297.268 37.9526 297.563 39.2139 295.711 39.8073C293.716 40.4446 292.631 40.3113 291.87 38.0846C289.844 32.1593 286.679 26.8739 282.203 22.4353C276.478 16.7539 266.676 14.9419 259.284 18.1579C246.063 23.9113 247.92 42.2126 255.748 47.5899C260.846 51.0899 266.48 53.2739 272.192 55.4579C278.015 57.6846 283.971 59.8539 289.3 63.0099C297 67.5699 301.184 74.7926 302.192 83.8099C303.24 93.1779 301.971 102.062 296.644 109.989C289.407 120.759 278.743 124.215 266.324 123.586C257.774 123.153 249.824 121.017 242.88 115.69C240.231 113.658 239.703 113.937 237.947 116.745C237.731 117.089 237.59 117.601 237.279 117.743C236.323 118.181 235.279 118.767 234.315 118.697C233.882 118.665 233.195 117.179 233.242 116.391C233.507 112.006 233.947 107.631 234.355 103.255C234.763 98.8793 235.238 94.5099 235.623 90.1326C235.935 86.5819 235.896 86.5766 239.362 87.0486C239.764 87.1033 240.163 87.1793 240.904 87.3019Z" fill="#00AFED"/>
<path d="M43.1928 27.4974C43.3275 27.22 43.4608 26.9427 43.5955 26.664C41.2395 22.5067 38.8782 18.352 36.5288 14.1907C34.8782 11.2694 34.5102 11.1854 31.2982 13.176C34.6608 17.6587 37.9942 22.148 41.4035 26.58C41.7742 27.06 42.5862 27.2 43.1928 27.4974ZM59.1928 26.7467C59.3715 27.0187 59.5502 27.292 59.7302 27.564C60.3728 27.168 61.1888 26.9067 61.6302 26.3507C63.5488 23.9307 65.3595 21.424 67.2075 18.948C68.6808 16.976 70.1542 15.0027 71.9622 12.58C69.8888 12.7854 68.4115 10.4547 67.0048 12.9774C64.4355 17.5867 61.8008 22.1587 59.1928 26.7467ZM52.1008 2.54136C51.7302 2.54136 51.3595 2.54003 50.9888 2.53869C50.5448 3.45603 49.6862 4.38803 49.7208 5.28803C49.9568 11.6027 50.3635 17.9107 50.7622 24.2187C50.7902 24.6707 51.1902 25.0987 51.4182 25.5374C51.7075 25.076 52.2208 24.628 52.2502 24.1507C52.6302 18.0854 53.0088 12.0187 53.2075 5.94536C53.2448 4.82403 52.4902 3.67736 52.1008 2.54136M70.1155 36.1947C70.0875 36.492 70.0595 36.788 70.0315 37.084C70.7742 37.164 71.5368 37.3934 72.2582 37.3C80.8088 36.1934 89.3515 35.0294 97.9008 33.9014C101.489 33.428 101.491 33.452 100.801 29.4774C90.5675 31.7174 80.3408 33.956 70.1155 36.1947M32.7542 37.3774C32.7995 36.9627 32.8435 36.5467 32.8888 36.132C22.6528 33.8894 12.4168 31.6454 2.0315 29.3694V33.4707C12.3115 34.7267 22.4848 36.472 32.7542 37.3774M37.1102 31.2987C36.7662 30.9734 36.6115 30.776 36.4115 30.6454C29.0422 25.8574 21.5675 21.224 14.3448 16.2254C11.1288 13.9987 7.6795 13.596 3.5435 13.0734C3.95416 13.9534 4.05683 14.6027 4.43683 14.92C7.2995 17.308 35.6608 31.6467 37.1102 31.2987M65.8782 31.1187C65.9928 31.3667 66.1075 31.616 66.2208 31.864C66.8902 31.5934 67.5915 31.3827 68.2248 31.0454C77.9595 25.86 87.6875 20.6587 97.4155 15.46C97.9155 15.1934 98.4795 14.9854 98.8755 14.6054C99.0955 14.396 99.1302 13.8654 99.0542 13.5214C99.0102 13.3214 98.5448 13.0294 98.3368 13.076C95.7555 13.656 92.8395 13.7147 90.6768 15.016C82.7542 19.78 75.0808 24.9614 67.3195 29.996C66.8102 30.3254 66.3568 30.7427 65.8782 31.1187M100.807 42.1814C100.918 40.008 100.998 38.436 101.094 36.552C90.9648 37.308 81.1768 38.04 71.1768 38.7867C71.6608 40.5974 72.0902 42.1974 72.5635 43.9707C81.9662 42.5827 90.8635 37.3 100.807 42.1814M2.16883 42.0947C4.01416 41.552 5.46616 41.0547 6.95283 40.704C11.7902 39.56 16.4675 40.4774 21.1355 41.804C24.2075 42.6774 27.3435 43.3307 30.5022 44.0934C31.0128 41.992 31.3875 40.4574 31.7995 38.7614C21.7955 38.0134 12.0088 37.2814 1.9155 36.5254C2.00483 38.4627 2.0795 40.1267 2.16883 42.0947M64.9195 10.6627C61.9208 9.12936 59.1435 7.7067 56.1235 6.16136C55.2422 12.776 54.3915 19.1547 53.5288 25.636C55.1528 25.94 56.3888 26.1707 57.6808 26.412C60.1182 21.1094 62.4862 15.9574 64.9195 10.6627M49.4115 25.5774C48.5302 19.0867 47.6635 12.7147 46.7728 6.15737C43.6982 7.72403 40.9008 9.15069 37.9222 10.6694C40.3702 15.984 42.7928 21.244 45.2142 26.4987C46.7315 26.1654 47.9808 25.8907 49.4115 25.5774ZM86.2648 14.548C82.5715 14.228 79.4982 13.9267 76.4195 13.7267C75.8555 13.6894 75.0702 13.8894 74.7168 14.2787C70.5182 18.896 66.3822 23.572 62.0488 28.436C63.0608 29.108 63.9088 29.6707 64.8115 30.2694C71.8942 25.0787 78.8875 19.9547 86.2648 14.548ZM16.5928 14.6267C23.9795 20.0374 31.0142 25.188 38.0982 30.376C39.0515 29.6747 39.8648 29.076 40.7782 28.404C36.5728 23.6947 32.5822 19.192 28.5355 14.7414C28.1035 14.2654 27.3288 13.7894 26.7395 13.82C23.5315 13.9854 20.3315 14.3107 16.5928 14.6267ZM2.2275 45.324C2.38216 45.5507 2.53816 45.7787 2.69283 46.0067C9.24216 42.9387 15.7555 43.8627 22.2022 46.0694C29.5488 48.5854 36.7848 48.1014 43.9462 45.4694C48.9795 43.62 53.9342 43.624 58.9635 45.4574C66.1342 48.072 73.3848 48.5494 80.7008 45.9867C87.0888 43.7494 93.5155 43.0854 100.003 45.608C100.102 45.6467 100.277 45.492 101.071 45.1267C100.222 44.4347 99.6995 43.776 99.0182 43.4894C93.3502 41.0987 87.6702 41.856 82.1022 43.792C74.1488 46.5574 66.2795 46.2907 58.4595 43.4454C53.8168 41.756 49.2875 41.768 44.6462 43.4787C36.9142 46.3307 29.0875 46.6454 21.2208 43.924C20.0702 43.5254 18.8955 43.1854 17.7115 42.8974C13.0115 41.752 8.35416 41.7227 3.85416 43.7214C3.2035 44.0107 2.76483 44.7774 2.2275 45.324M35.2835 32.816C24.5435 27.8467 13.9195 22.9307 3.04616 17.9C2.79016 20.1974 2.68616 22.0667 2.3475 23.8934C2.0075 25.728 2.72083 26.4347 4.45416 26.9C13.6222 29.368 22.7728 31.908 31.8942 34.5467C33.5675 35.0307 34.5368 34.756 35.2835 32.816M99.7822 49.576C99.9768 49.3094 100.171 49.0414 100.365 48.7747C99.7582 48.2774 99.2248 47.6067 98.5328 47.312C93.3742 45.1134 88.1475 45.6 83.0315 47.3534C75.0502 50.088 67.0715 50.472 59.1195 47.532C53.8982 45.6014 48.8742 45.6974 43.6515 47.5787C36.7462 50.0654 29.6835 50.5334 22.5822 48.1734C20.9635 47.6347 19.3088 47.1867 17.6502 46.7827C13.1235 45.6787 8.61683 45.4854 4.27816 47.524C3.63016 47.828 3.2075 48.612 2.6795 49.1747L3.14083 49.824C9.6315 46.7267 16.0635 47.864 22.4128 50.016C29.6968 52.484 36.8608 51.9494 43.9328 49.3734C49.0715 47.5014 54.0808 47.5547 59.1955 49.4227C66.2915 52.016 73.4768 52.36 80.7115 49.8867C87.0115 47.732 93.3555 46.8374 99.7822 49.576M67.6395 32.7467C68.4288 35.076 69.7528 35.0574 71.5688 34.512C77.0062 32.88 82.4995 31.432 87.9675 29.8987C92.2288 28.7027 96.4848 27.4854 100.875 26.24C100.551 23.3587 100.258 20.7467 99.9262 17.7934C88.8862 22.9067 78.3088 27.8054 67.6395 32.7467ZM70.3182 44.2014C68.6755 33.836 59.8662 26.88 50.1408 27.5654C41.2648 28.1907 33.0288 35.8787 32.9795 44.196C36.5422 43.3947 40.0915 42.9334 43.3982 41.776C48.9528 39.8334 54.2875 39.8214 59.8395 41.7774C63.0742 42.9174 66.5528 43.3574 70.3182 44.2014ZM99.6982 51.7627C98.4848 51.292 97.3888 50.772 96.2395 50.44C91.2368 48.992 86.3902 50.0134 81.6502 51.6267C74.2822 54.136 66.8875 54.1987 59.6315 51.568C54.0648 49.5507 48.7808 49.5907 43.2315 51.5867C36.5742 53.9814 29.7315 54.3574 22.8742 52.148C21.1742 51.6 19.4488 51.1107 17.7142 50.684C13.5315 49.6547 9.36216 49.4067 5.24483 51.052C3.88083 51.5974 3.31016 52.2294 3.6395 53.9494C5.43283 63.328 8.08216 72.4427 11.7488 81.2467C19.4675 99.7827 30.5235 115.821 47.1795 127.483C52.5795 131.261 50.6688 131.245 56.0368 127.479C72.6915 115.793 83.6635 99.7027 91.3488 81.1587C95.2488 71.7467 98.0435 62.0107 99.6982 51.7627M2.05683 10.5494C20.6155 14.8147 37.0075 12.012 51.4635 2.8228e-05C58.2782 5.73336 65.9542 9.61069 74.6568 11.3694C83.2555 13.1094 91.7982 12.5227 100.963 10.4894C101.671 17.5627 102.913 24.4067 102.949 31.256C103.118 62.336 93.5515 90.1107 73.6688 114.137C67.9768 121.015 61.1635 126.689 53.6502 131.541C52.0942 132.545 51.0342 132.451 49.5355 131.497C34.5022 121.936 23.3822 108.835 15.2142 93.1947C4.7435 73.1454 -0.8925 51.8574 0.115499 29.0987C0.384833 23.0374 1.36083 17.0067 2.05683 10.5494" fill="#00AFED"/>
<path d="M46.6009 76.4708C48.7556 79.1828 54.8969 78.9922 56.0409 76.4708H46.6009ZM57.8489 58.8175C57.3822 59.5402 56.8196 60.0442 56.7196 60.6282C56.2182 63.5575 55.8382 66.5095 55.4196 69.4295C57.7676 69.6108 59.4702 68.0535 59.0569 65.4162C58.7329 63.3442 58.3049 61.2868 57.8489 58.8175ZM46.3729 58.0255C45.4649 60.5108 44.5662 62.6588 43.8996 64.8775C43.1116 67.4975 44.4129 69.3855 46.8009 69.2268C44.8609 65.5548 46.3729 62.5695 48.9556 59.7588C47.9662 59.0948 47.1822 58.5682 46.3729 58.0255M51.6889 103.882C50.7129 103.882 49.6636 103.658 48.7862 103.952C48.0889 104.186 47.1702 105.032 47.1436 105.642C47.1182 106.236 48.0422 107.339 48.6449 107.411C50.5662 107.64 52.5516 107.64 54.4729 107.408C55.0876 107.334 56.0289 106.242 56.0049 105.647C55.9822 105.04 55.0516 104.219 54.3449 103.954C53.5622 103.659 52.5836 103.886 51.6889 103.882M50.1236 108.83C50.1236 112.112 50.0502 115.112 50.1889 118.103C50.2142 118.672 51.0796 119.203 51.5569 119.751C51.9729 119.328 52.7142 118.934 52.7516 118.479C53.0142 115.284 53.1329 112.079 53.2996 108.83H50.1236ZM51.4129 75.1122V75.1202C52.9556 75.1202 54.5622 75.3855 56.0142 75.0242C56.9449 74.7935 57.6476 73.6388 58.4516 72.8975C57.6982 72.1908 56.9836 70.9308 56.1822 70.8722C53.0369 70.6415 49.8516 70.6482 46.7062 70.8975C45.9276 70.9588 45.2476 72.2642 44.5222 72.9975C45.2782 73.7015 45.9382 74.8188 46.8102 75.0202C48.2742 75.3575 49.8716 75.1122 51.4129 75.1122ZM48.7889 69.5575C47.8036 64.8068 48.3102 63.4215 51.7702 61.0655C50.9262 62.5575 49.8876 63.8628 49.4302 65.3468C48.9489 66.9108 49.2129 68.5655 50.8542 69.6135C50.9862 67.5308 51.1022 65.7122 51.2182 63.8948C51.3449 63.9122 51.4729 63.9308 51.6009 63.9482C51.7156 65.7335 51.8302 67.5188 51.9676 69.6535C56.9649 65.5868 56.7316 59.4175 52.4676 56.5535C51.2796 58.3175 50.2049 60.1602 48.8902 61.8122C46.7596 64.4882 46.5916 66.5282 48.7889 69.5575ZM48.3382 79.5495C48.7156 87.4402 49.0769 95.0068 49.4342 102.484H53.5996C53.9476 94.7922 54.2876 87.2948 54.6289 79.7402C53.8436 79.6548 53.3689 79.5642 52.8929 79.5575C51.5156 79.5362 50.1382 79.5495 48.3382 79.5495ZM44.3009 70.2575C41.9489 67.8522 42.2249 65.3308 43.3662 62.5268C44.1142 60.6882 44.2982 58.6215 44.8329 56.2215C46.1502 56.8122 47.9182 57.6055 49.8542 58.4735C51.5609 56.4722 49.8676 54.6188 49.0782 52.7108C49.2596 52.5708 49.4409 52.4322 49.6236 52.2922C51.8396 54.3068 54.0569 56.3215 56.2996 58.3588C57.2676 57.8895 58.4729 57.3068 59.4302 56.8428C59.7009 59.7388 60.1329 62.4375 60.1396 65.1375C60.1436 66.8095 59.5022 68.4815 59.0249 70.7455C61.6502 73.5828 57.8756 75.5895 56.8316 78.2108C56.4609 79.1402 55.8822 80.0708 55.8249 81.0268C55.4289 87.6002 55.1062 94.1788 54.8782 100.76C54.8516 101.544 55.3422 102.564 55.9302 103.112C57.8436 104.89 57.7876 106.83 55.7316 108.41C55.1422 108.864 54.5756 109.703 54.5049 110.415C54.2676 112.838 54.2542 115.284 54.1569 117.722C54.0836 119.544 53.5222 120.995 51.3542 120.908C49.3156 120.827 48.9116 119.375 48.8609 117.678C48.7969 115.564 48.7036 113.452 48.6062 111.34C48.5436 109.982 48.4649 108.815 46.9476 107.947C45.2716 106.987 45.4916 104.831 46.9076 103.323C47.4849 102.707 48.0902 101.768 48.0676 100.995C47.8796 94.4935 47.7116 87.9815 47.1609 81.5055C46.9969 79.5735 46.0022 77.4402 44.7436 75.9388C43.0849 73.9602 43.0196 72.2562 44.3009 70.2575" fill="#00AFED"/>
<path d="M69.3567 73.0863C71.1821 74.6063 74.3954 74.5729 75.7114 73.0863H69.3567ZM69.1154 60.0769C66.7621 66.3516 66.7621 66.3516 68.8207 67.5156C68.8994 66.1796 69.0514 64.8503 69.0354 63.5236C69.0207 62.4103 71.7874 61.4489 69.1154 60.0769M75.7527 67.9876C76.7194 67.3369 78.2621 66.7756 78.2634 66.2116C78.2687 64.2369 77.7434 62.2596 77.4181 60.2836C77.2754 60.3436 77.1341 60.4049 76.9914 60.4649C76.6061 62.8009 76.2221 65.1383 75.7527 67.9876ZM71.9847 103.577C72.4074 103.566 72.8287 103.556 73.2514 103.545C73.3914 101.269 73.5927 98.9929 73.5927 96.7156C73.5914 96.4503 72.4807 96.1836 71.4807 95.7383C71.6741 98.7516 71.8301 101.164 71.9847 103.577M72.7661 95.3889C73.8701 94.7543 74.7874 94.2263 75.7047 93.6983C74.6874 93.3263 73.6674 92.6529 72.6554 92.6649C71.6487 92.6769 70.6501 93.3769 69.6487 93.7743C70.6047 94.2703 71.5607 94.7649 72.7661 95.3889M72.7807 68.9663C71.6474 68.9663 70.4887 68.8276 69.3901 69.0249C68.8354 69.1249 68.3901 69.8369 67.8954 70.2716C68.3594 70.7396 68.7981 71.5743 69.2927 71.6089C71.4687 71.7609 73.6647 71.7649 75.8421 71.6249C76.3647 71.5916 76.8394 70.8023 77.3367 70.3609C76.7901 69.8943 76.3061 69.1783 75.6821 69.0209C74.7674 68.7916 73.7527 68.9623 72.7807 68.9663ZM73.2807 67.5943C76.2981 64.4956 76.3407 61.8703 73.6807 59.0743C72.7954 60.2623 71.8874 61.4796 70.9807 62.6956C69.5021 64.6783 69.6447 66.2316 71.0407 67.237C71.6327 65.5103 72.2727 63.6436 72.9127 61.7783L73.8621 62.0276C73.0327 63.7903 71.2874 65.4796 73.2807 67.5943ZM71.2927 91.201C72.9101 91.5943 73.9821 91.6823 74.0461 89.7836C74.2074 85.0343 74.4487 80.2876 74.6581 75.5623H70.5941C70.8301 80.8476 71.0581 85.9529 71.2927 91.201ZM67.0101 57.8796C68.7687 58.6023 70.2101 59.1943 72.3194 60.0609C71.7074 58.2423 71.2714 56.941 70.6247 55.017C72.5701 56.5116 74.1941 57.7583 75.8594 59.037C76.6994 58.6423 77.6967 58.1743 78.4887 57.8023C78.8847 59.9049 79.2541 61.8303 79.6074 63.7596C79.7101 64.3156 79.9754 64.9476 79.8154 65.4276C78.8007 68.4929 77.6887 71.5249 76.6074 74.5676C76.3514 75.2889 75.9061 75.9943 75.8594 76.7276C75.6181 80.4636 75.4581 84.2049 75.3154 87.9449C75.2527 89.5836 74.8194 91.2756 76.5234 92.5863C76.9314 92.9009 76.8994 94.7423 76.5247 94.9663C74.1541 96.3783 74.9394 98.6116 74.7754 100.6C74.7087 101.412 74.9301 102.356 74.5821 103.005C74.1901 103.737 73.3101 104.652 72.6327 104.66C71.9821 104.668 70.9821 103.729 70.7407 103.005C70.3661 101.885 70.5314 100.592 70.4247 99.377C70.2901 97.8383 70.7461 96.1809 68.9394 95.0636C68.5154 94.8009 68.7821 93.193 68.9607 92.2476C69.1541 91.2223 69.9247 90.2423 69.9087 89.2503C69.8461 85.0209 69.7514 80.777 69.3087 76.5756C69.1447 75.0276 67.9194 73.6116 67.3167 72.0823C66.9834 71.2383 67.0381 70.2489 66.7461 69.3836C65.6407 66.1129 66.4741 63.0236 67.4341 59.9103C67.5727 59.4609 67.2314 58.8636 67.0101 57.8796" fill="#00AFED"/>
<path d="M26.5076 73.0707C28.6022 74.8174 31.6436 74.7427 33.1662 73.0707H26.5076ZM25.7889 67.4347C26.3196 65.2427 26.8409 63.0814 27.4089 60.7281C27.2996 60.6694 26.8329 60.4161 26.3396 60.1494C24.3596 66.4041 24.3596 66.4041 25.7889 67.4347ZM33.2142 67.6121C36.5182 67.1987 36.9742 64.0481 34.2382 60.4107C33.9129 62.6947 33.5716 65.1027 33.2142 67.6121ZM28.6996 95.9587C28.9342 98.9721 29.1182 101.333 29.3022 103.695C29.7556 103.684 30.2089 103.672 30.6622 103.661C30.7289 101.331 30.8342 98.9974 30.7889 96.6681C30.7849 96.4761 29.7556 96.3041 28.6996 95.9587M29.9502 95.4774C31.1302 94.8361 32.0809 94.3201 33.0329 93.8027C32.0142 93.3961 30.9982 92.6721 29.9796 92.6694C28.9609 92.6681 27.9409 93.3894 26.9222 93.7934C27.8596 94.3147 28.7969 94.8374 29.9502 95.4774M30.0222 71.6827C30.0222 71.6734 30.0222 71.6627 30.0222 71.6534C31.1502 71.6534 32.2982 71.7747 33.3982 71.5961C33.8676 71.5201 34.5449 70.8267 34.5609 70.3947C34.5756 69.9667 33.8942 69.1534 33.4849 69.1321C31.1516 69.0054 28.8062 69.0014 26.4729 69.1187C26.0409 69.1401 25.6476 69.9081 25.2369 70.3307C25.7022 70.7814 26.1142 71.5227 26.6449 71.6214C27.7369 71.8241 28.8929 71.6827 30.0222 71.6827ZM28.1956 67.4161C28.9409 65.5241 29.6689 63.6747 30.3969 61.8241C30.6209 61.9121 30.8449 62.0001 31.0689 62.0894C29.2489 65.8574 29.2489 65.8601 30.7649 67.4987C33.5436 64.4734 33.5862 61.8987 30.9622 59.1921C29.9622 60.5254 28.8702 61.8121 27.9756 63.2227C27.0049 64.7534 26.8636 66.3067 28.1956 67.4161ZM27.8436 75.3961C28.1116 80.9267 28.3636 86.1507 28.6196 91.4281H31.2342C31.4756 86.1214 31.7129 80.8921 31.9529 75.5947C31.4289 75.5027 31.1236 75.4107 30.8156 75.4027C29.9329 75.3814 29.0502 75.3961 27.8436 75.3961M25.0302 58.1667C26.1142 58.6441 27.4196 59.2187 29.4956 60.1334C28.9382 58.2707 28.5302 56.9041 27.9556 54.9854C29.8769 56.5214 31.4676 57.7934 33.1169 59.1107C33.9369 58.7107 34.9182 58.2321 35.7262 57.8387C36.1836 60.0587 36.6156 62.0667 37.0022 64.0827C37.1089 64.6347 37.2622 65.2774 37.0862 65.7681C35.9929 68.8201 34.8129 71.8401 33.6582 74.8694C33.5209 75.2321 33.2556 75.5827 33.2356 75.9494C32.9756 80.8201 32.7382 85.6907 32.5356 90.5627C32.5209 90.9161 32.7182 91.3841 32.9782 91.6267C34.7596 93.2867 34.8756 94.7107 32.6329 96.1094C32.2636 96.3387 32.2582 97.2681 32.2116 97.8827C32.0796 99.5841 32.1876 101.327 31.8436 102.977C31.6902 103.712 30.5809 104.851 30.0756 104.767C29.2769 104.636 28.2676 103.756 27.9902 102.967C27.6036 101.868 27.8009 100.56 27.7662 99.3414C27.7209 97.8214 27.8276 96.3681 26.3236 95.2161C25.8342 94.8414 26.0369 93.3334 26.2049 92.3934C26.4116 91.2267 27.2302 90.1107 27.2262 88.9761C27.2089 85.0774 27.1156 81.1627 26.7009 77.2907C26.5236 75.6241 25.5022 74.0427 24.8342 72.4347C24.7142 72.1467 24.2822 71.9281 24.2716 71.6641C24.1396 68.7321 23.9476 65.7947 24.0196 62.8641C24.0556 61.4374 24.6116 60.0227 25.0302 58.1667" fill="#00AFED"/>
<path d="M26.5078 73.0708H33.1665C31.6438 74.7428 28.6025 74.8174 26.5078 73.0708Z" fill="#00AFED"/>
</svg>
