<svg width="198" height="135" viewBox="0 0 198 135" fill="none" xmlns="http://www.w3.org/2000/svg">
<path d="M1.82193 134.953C1.82327 126.402 1.8366 117.85 1.80593 109.299C1.80327 108.397 2.02193 107.902 2.9326 107.59C15.2019 103.377 27.6499 99.7592 40.2593 96.7405C48.4219 94.7858 56.6593 93.1392 64.8899 91.4859C69.8859 90.4819 74.9233 89.6725 79.9566 88.8752C83.8259 88.2619 87.7206 87.8112 91.6019 87.2752C95.9046 86.6792 100.198 86.0245 104.506 85.4805C107.263 85.1325 110.041 84.9579 112.805 84.6672C115.861 84.3472 118.909 83.9472 121.967 83.6512C124.399 83.4165 126.843 83.3019 129.279 83.1072C133.419 82.7765 137.558 82.4152 141.698 82.0858C143.197 81.9658 144.698 81.8752 146.201 81.8152C148.829 81.7085 151.458 81.6352 154.086 81.5472C159.257 81.3739 164.426 81.1005 169.598 81.0472C177.901 80.9632 186.206 81.0245 194.694 81.0245V134.953H1.82193Z" fill="#00AFED"/>
<path d="M0 1.56268H15.9413C15.9667 1.64401 15.9933 1.72668 16.02 1.80802C15.7667 1.99202 15.5027 2.16668 15.2587 2.36268C14.1773 3.23735 13.5093 4.26402 13.5133 5.76135C13.5467 17.7454 13.4173 29.732 13.588 41.7134C13.656 46.5414 15.4027 50.772 20.12 53.0587C24.5067 55.1854 32.5853 54.5774 36.02 50.5894C37.9493 48.3507 39.1293 45.7374 39.2573 42.8547C39.5107 37.1907 39.5533 31.5147 39.548 25.8454C39.5413 19.0014 39.3973 12.1574 39.3027 5.31335C39.2827 3.78002 38.504 2.66668 36.9427 1.70002H46.936C46.8587 1.82135 46.796 2.04135 46.6547 2.12402C45.1813 2.98268 44.7827 4.39202 44.776 5.93602C44.7507 12.0147 44.8 18.0934 44.756 24.172C44.712 30.3214 44.752 36.4774 44.4507 42.616C44.236 46.9974 42.7587 51.0787 39.576 54.256C36.944 56.8814 33.616 58.3134 29.9587 58.8574C24.7493 59.632 19.592 59.448 14.5947 57.584C8.06133 55.148 3.78933 50.7854 2.86267 43.6227C2.74667 42.732 2.61867 41.8347 2.61733 40.9414C2.60133 29.348 2.608 17.7547 2.60533 6.16135C2.60533 4.17202 1.70533 2.77468 0 2.08402L0 1.56268Z" fill="#00AFED"/>
<path d="M174.432 38.2626C171.672 31.6293 168.97 25.136 166.198 18.4733C163.474 25.1746 160.836 31.6626 158.154 38.2626H174.432ZM197.298 58.3573H179.372C179.31 58.2706 179.247 58.1826 179.184 58.0946C179.306 58.068 179.456 58.0773 179.546 58.008C181.744 56.2906 181.882 56.088 180.876 53.5093C179.474 49.9106 177.924 46.368 176.406 42.7226C173.364 42.7226 170.335 42.7226 167.307 42.7226C164.01 42.7226 160.714 42.7533 157.418 42.7C156.635 42.688 156.218 42.9693 155.946 43.6373C154.634 46.86 153.235 50.0493 152.027 53.3093C150.972 56.1533 151.095 56.2973 153.384 58.2746H141.986C142.918 57.44 144.01 56.7746 144.658 55.812C145.694 54.2746 146.523 52.5786 147.28 50.8786C149.303 46.3426 151.252 41.7733 153.21 37.208C155.268 32.4106 157.298 27.6013 159.352 22.8013C160.888 19.2106 162.444 15.628 163.991 12.0413C165.723 8.02664 167.455 4.0133 169.186 -3.21255e-05H169.707C169.72 0.214635 169.678 0.453301 169.758 0.638635C171.856 5.4653 173.964 10.2866 176.078 15.1066C177.664 18.7213 179.276 22.324 180.848 25.9453C183.046 31.0026 185.216 36.072 187.398 41.1373C189.058 44.9946 190.694 48.8626 192.384 52.7053C193.412 55.04 194.626 57.2453 197.298 58.0973V58.3573Z" fill="#00AFED"/>
<path d="M104.985 6.24077V53.9221C109.925 53.9221 114.778 54.1554 119.541 52.8928C124.506 51.5768 128.594 48.9848 131.413 44.6301C134.049 40.5568 135.008 35.9328 135.325 31.1874C135.664 26.1408 134.658 21.3114 132.2 16.8648C129.964 12.8234 126.773 9.79277 122.452 7.99544C120.03 6.98744 117.57 6.24744 114.929 6.24211C111.632 6.23544 108.333 6.24077 104.985 6.24077ZM92.0997 1.56611H93.5023C100.485 1.56611 107.468 1.53011 114.449 1.57944C118.945 1.61011 123.409 2.10744 127.698 3.49544C131.569 4.74744 135.076 6.68077 138.165 9.42211C142.813 13.5474 145.594 18.7248 146.713 24.7114C147.678 29.8808 147.102 35.0141 145.064 39.9408C143.452 43.8394 141.15 47.2621 138.012 50.0501C133.838 53.7568 128.984 56.1554 123.498 57.3488C119.864 58.1381 116.221 58.3981 112.52 58.3688C105.756 58.3168 98.9903 58.3541 91.937 58.3541C94.2917 56.6448 94.241 54.3194 94.2383 51.9621C94.217 37.0301 94.2237 22.0981 94.2303 7.16611C94.2303 5.06611 94.0583 3.05278 92.0997 1.56611" fill="#00AFED"/>
<path d="M194.635 66.4359V74.5066H193.096C182.729 74.5066 172.363 74.4532 161.997 74.5306C157.216 74.5666 152.435 74.8319 147.655 75.0386C144.737 75.1652 141.82 75.3372 138.908 75.5586C134.895 75.8652 130.889 76.2492 126.877 76.5772C124.441 76.7772 121.997 76.8879 119.565 77.1239C116.593 77.4132 113.629 77.7999 110.661 78.1279C108.112 78.4092 105.557 78.6319 103.013 78.9452C100.053 79.3092 97.1026 79.7346 94.1506 80.1479C91.5359 80.5146 88.9239 80.8906 86.3133 81.2812C82.8639 81.7999 79.4079 82.2866 75.9706 82.8786C72.3319 83.5052 68.7079 84.2172 65.0853 84.9306C60.2986 85.8719 55.4973 86.7599 50.7399 87.8359C44.6666 89.2106 38.6119 90.6826 32.5826 92.2426C27.7466 93.4946 22.9359 94.8612 18.1586 96.3199C12.7786 97.9639 7.44927 99.7679 1.7666 101.608C2.4666 101.149 2.88394 100.816 3.35061 100.581C11.8959 96.2906 20.6506 92.5039 29.6773 89.3199C37.7959 86.4559 45.9799 83.8292 54.3479 81.8106C62.5039 79.8439 70.6639 77.8799 78.8706 76.1372C84.0626 75.0359 89.3386 74.3226 94.5826 73.4732C99.0333 72.7519 103.484 72.0186 107.951 71.4106C111.841 70.8812 115.751 70.4946 119.657 70.0892C124.123 69.6266 128.592 69.1986 133.061 68.7826C136.132 68.4972 139.203 68.2279 142.277 68.0079C146.389 67.7146 150.504 67.4719 154.617 67.2172C157.532 67.0359 160.447 66.8239 163.365 66.7092C166.903 66.5719 170.444 66.4679 173.984 66.4479C180.817 66.4079 187.652 66.4359 194.635 66.4359Z" fill="#00AFED"/>
<path d="M81.9868 15.7806C81.2881 14.5513 80.5441 12.9219 79.5174 11.4953C77.1054 8.14326 73.9921 5.93792 69.7108 5.41659C66.1214 4.97792 63.1294 5.85125 60.9961 8.73259C58.5788 11.9953 58.8921 16.9606 63.1948 19.4793C66.8548 21.6219 70.7348 23.3979 74.5534 25.2606C78.8094 27.3366 82.9921 29.4939 85.1654 34.0446C87.8988 39.7659 87.0961 48.4179 82.1108 53.2179C78.2974 56.8913 73.9148 58.8366 68.6601 59.1633C62.8188 59.5259 57.3854 58.1873 52.1214 55.7939C51.1894 55.3713 50.9801 54.8486 51.0014 53.9299C51.0548 51.6739 51.0654 49.4139 51.0014 47.1579C50.9468 45.1793 50.7681 43.2046 50.9441 41.1513C51.2108 41.8073 51.4908 42.4553 51.7388 43.1166C53.2788 47.2299 55.6574 50.6993 59.5334 52.9246C64.0294 55.5073 70.1641 55.5833 73.8708 51.7179C78.1334 47.2699 77.7881 39.8539 71.4201 36.5153C68.5628 35.0179 65.5734 33.7739 62.7161 32.2779C58.8681 30.2606 55.2734 27.8913 52.8601 24.1153C51.6854 22.2793 51.0561 20.2686 51.0268 18.0926C50.9934 15.6113 50.9854 13.1766 51.9868 10.7673C53.7081 6.62992 56.7921 4.06326 60.7574 2.35393C64.3094 0.821926 68.0601 0.537925 71.8494 0.808592C75.0028 1.03393 78.0094 1.93793 80.9121 3.21659C82.1348 3.75526 81.7294 4.87793 81.9481 5.74326C82.1334 6.47793 81.9868 7.29659 81.9868 8.07793C81.9868 10.7526 81.9868 13.4259 81.9868 15.7806Z" fill="#00AFED"/>
<path d="M1.87183 74.2789V66.1043C3.58116 66.1949 5.23983 66.2816 6.89849 66.3723C7.19849 66.3883 7.49849 66.4229 7.79849 66.4363C11.6678 66.6123 15.5425 66.6936 19.4025 66.9843C23.7905 67.3136 28.1798 67.7176 32.5425 68.2896C39.9532 69.2603 47.3772 70.2109 54.6185 72.1576C58.9905 73.3336 63.3385 74.6029 67.6945 75.8389C67.8358 75.8789 67.9465 76.0283 68.2785 76.2869C66.5638 76.2029 65.0998 76.1683 63.6425 76.0509C62.0678 75.9229 60.5038 75.6629 58.9292 75.5616C55.6265 75.3483 52.3198 75.2056 49.0145 75.0269C44.2518 74.7696 39.4905 74.4843 34.7278 74.2509C30.5558 74.0469 26.3838 73.8843 22.2105 73.7296C19.1932 73.6189 16.1732 73.4469 13.1558 73.4923C9.80649 73.5443 6.45983 73.8083 3.11316 73.9976C2.74249 74.0189 2.37849 74.1603 1.87183 74.2789Z" fill="#00AFED"/>
<path d="M1.88379 87.338V79.6393C1.96379 79.598 2.07046 79.4966 2.18246 79.4926C5.02512 79.39 7.86779 79.266 10.7131 79.21C16.3305 79.1006 21.9478 78.974 27.5665 78.962C31.5798 78.9526 35.5958 79.0753 39.6078 79.2193C42.2638 79.314 44.9158 79.542 47.5678 79.7353C47.9345 79.7633 48.2905 79.9313 48.9185 80.11C33.0451 82.3633 17.3291 83.8593 1.88379 87.338Z" fill="#00AFED"/>
</svg>
