<svg width="422" height="108" viewBox="0 0 422 108" fill="none" xmlns="http://www.w3.org/2000/svg">
<path d="M417.452 41.103H414.112C411.544 41.103 411.544 41.103 410.516 43.415L398.698 67.0497L386.11 43.415C384.826 41.103 384.826 41.103 382.257 41.103H378.917C375.834 41.103 375.578 41.6163 375.578 42.6443C375.578 43.1577 375.578 43.415 376.605 44.9563L393.817 76.2977L379.432 104.042C378.661 105.327 378.661 105.84 378.661 106.354C378.661 107.382 378.917 107.895 382 107.895H385.34C387.909 107.895 387.909 107.895 389.193 105.583L420.277 44.9563C421.305 43.1577 421.305 43.1577 421.305 42.6443C420.792 41.6163 420.534 41.103 417.452 41.103ZM363.248 8.73501H360.936C358.624 8.73501 358.624 8.73502 358.109 9.24835C357.596 9.76168 357.596 9.76169 357.596 12.0737V80.4083C357.596 82.7203 357.596 82.7203 358.109 83.2337C358.624 83.747 358.624 83.747 360.936 83.747H363.248C365.56 83.747 365.56 83.747 366.073 83.2337C366.586 82.7203 366.586 82.7203 366.586 80.4083V12.0737C366.586 9.76169 366.586 9.76168 366.073 9.24835C365.56 8.73502 365.56 8.73501 363.248 8.73501ZM340.897 8.73501H338.585C336.273 8.73501 336.273 8.73502 335.76 9.24835C335.246 9.76168 335.246 9.76169 335.246 12.0737V80.4083C335.246 82.7203 335.246 82.7203 335.76 83.2337C336.273 83.747 336.273 83.747 338.585 83.747H340.897C343.209 83.747 343.209 83.747 343.724 83.2337C344.237 82.7203 344.237 82.7203 344.237 80.4083V12.0737C344.237 9.76169 344.237 9.76168 343.724 9.24835C343.466 8.73502 343.466 8.73501 340.897 8.73501ZM300.565 77.3257C293.372 77.3257 287.721 71.159 287.721 62.939C287.721 54.2043 293.116 48.039 300.308 48.039C308.272 48.039 313.41 53.947 313.41 62.6817C313.41 71.159 308.016 77.3257 300.565 77.3257ZM318.29 41.103H315.978C313.666 41.103 313.666 41.103 313.153 41.6163C312.64 42.131 312.64 42.131 312.64 44.443V47.011L311.612 45.9843C307.245 41.6163 303.648 39.819 298.253 39.819C286.693 39.819 278.216 49.5803 278.216 62.4257C278.216 75.783 286.693 85.2883 298.766 85.2883C303.905 85.2883 307.245 83.747 311.869 79.3803L312.896 78.6097V80.6643C312.896 82.9763 312.896 82.9764 313.41 83.491C313.924 84.0044 313.924 84.0043 316.236 84.0043H318.548C320.86 84.0043 320.86 84.0044 321.373 83.491C321.888 82.9764 321.888 82.9763 321.888 80.6643V44.443C321.888 42.131 321.888 42.131 321.373 41.6163C320.86 41.103 320.86 41.103 318.29 41.103ZM265.37 41.103H263.058C260.746 41.103 260.746 41.103 260.233 41.6163C259.72 42.131 259.72 42.131 259.72 44.443V65.7643C259.72 73.7283 256.893 77.3257 250.728 77.3257C244.562 77.3257 241.48 73.7283 241.48 65.7643V44.443C241.48 42.131 241.48 42.131 240.966 41.6163C240.452 41.103 240.452 41.103 238.14 41.103H235.828C233.516 41.103 233.516 41.103 233.002 41.6163C232.489 42.131 232.489 42.131 232.489 44.443V66.0217C232.489 72.7003 233.773 76.2977 236.856 79.8937C240.196 83.491 244.82 85.2883 250.47 85.2883C256.122 85.2883 260.746 83.491 264.344 79.8937C267.682 76.2977 268.71 72.7003 268.71 66.0217V44.443C268.71 42.131 268.71 42.131 268.197 41.6163C267.682 41.103 267.682 41.103 265.37 41.103M219.13 61.3977C217.332 60.1137 215.277 59.0857 210.909 57.031C206.285 54.719 204.744 53.691 204.744 51.635C204.744 49.5804 206.542 48.039 208.854 48.039C210.396 48.039 211.424 48.5524 212.965 50.6084C213.478 51.1217 213.992 51.379 214.506 51.379C214.762 51.379 215.02 51.379 216.561 50.351L218.36 49.323C220.672 48.2963 220.672 47.7817 220.672 47.011C220.672 46.755 220.672 46.2403 220.414 45.727C218.102 41.8737 213.992 39.819 209.625 39.819C202.174 39.819 196.524 45.2137 196.524 52.663C196.524 57.8017 198.578 60.3697 204.744 63.4524C213.992 68.0764 215.277 68.847 215.277 71.9297C215.277 75.0124 212.965 77.0684 209.625 77.0684C207.313 77.0684 205.257 76.0404 204.23 74.499C202.432 71.9297 202.432 71.9297 201.661 71.9297C201.404 71.9297 200.89 72.187 199.349 72.7003L197.55 73.7283C195.238 74.7563 195.238 75.0123 195.238 75.783C195.238 76.2977 195.496 77.0683 196.78 78.867C199.606 82.7203 204.486 85.0323 209.625 85.0323C218.102 85.0323 224.781 78.867 224.781 70.6457C224.268 67.0497 222.469 63.967 219.13 61.3977M180.34 41.103H178.026C175.714 41.103 175.714 41.103 175.201 41.6163C174.688 42.131 174.688 42.131 174.688 44.443V80.6643C174.688 82.9763 174.688 82.9764 175.201 83.491C175.714 84.0044 175.714 84.0043 178.026 84.0043H180.34C182.652 84.0043 182.652 84.0044 183.165 83.491C183.678 82.9764 183.678 82.9763 183.678 80.6643V44.443C183.678 42.131 183.678 42.131 183.165 41.6163C182.652 41.103 182.652 41.103 180.34 41.103ZM179.312 16.1843C175.972 16.1843 173.402 19.0097 173.402 22.0923C173.402 25.4323 176.229 28.259 179.568 28.259C182.908 28.259 185.477 25.4323 185.477 22.0923C185.22 18.7537 182.394 16.1843 179.312 16.1843ZM162.357 41.103H159.274C156.705 41.103 156.705 41.103 155.421 43.415L144.888 66.535L134.356 43.415C133.328 41.103 133.328 41.103 130.502 41.103H127.418C124.336 41.103 124.08 41.6163 124.08 42.6443C124.08 43.1577 124.08 43.415 124.85 44.9563L142.576 81.6923C143.604 84.0043 143.86 84.0043 144.888 84.0043C145.658 84.0043 145.916 84.0043 147.2 81.6923L164.925 44.9563C165.696 43.1577 165.696 43.1577 165.696 42.6443C165.696 41.6163 165.44 41.103 162.357 41.103" fill="#00AFED"/>
<path d="M17.7256 43.1582L52.1496 103.271L75.0123 63.7102L47.5256 54.2048L17.7256 43.1582Z" fill="#00AFED"/>
<path d="M111.492 0.00013543L83.2329 12.8441L47.5249 54.2041L75.0129 63.7095L111.492 0.00013543Z" fill="#00AFED"/>
<path d="M0 12.0742L17.212 42.9009L56.516 25.1755L0 12.0742Z" fill="#00AFED"/>
<path d="M47.5251 54.2046L75.0131 63.7099L52.1491 103.271" fill="#00AFED"/>
<path d="M17.2117 42.9014L17.725 43.1588L47.525 54.2041L83.233 12.8454L17.2117 42.9014Z" fill="#00AFED"/>
</svg>
