<?xml version="1.0" encoding="utf-8"?>
<!DOCTYPE svg PUBLIC "-//W3C//DTD SVG 1.0//EN" "http://www.w3.org/TR/2001/REC-SVG-20010904/DTD/svg10.dtd">
<svg version="1.0" xmlns="http://www.w3.org/2000/svg" width="1924px" height="1924px" viewBox="0 0 1924 1924" preserveAspectRatio="xMidYMid meet">
 <g fill="#2b3f45">
  <path d="M773.5 1778 c-22.1 -2.4 -41.4 -9.3 -57 -20.5 -8.3 -5.9 -22.3 -21 -29.3 -31.5 -20.2 -30.2 -42.5 -83 -75.5 -178.5 -15 -43.5 -17.3 -50.7 -24.7 -78 -2.8 -10.4 -6.9 -24.6 -9 -31.5 -2.1 -6.9 -5.4 -18.9 -7.3 -26.8 -1.9 -7.8 -3.7 -14.5 -4.1 -14.9 -1.4 -1.4 -21.2 6.6 -40.1 16.2 -31.7 16.1 -53.3 22.2 -65.1 18.5 -6.1 -1.9 -13.6 -7.5 -17.1 -12.7 -1.9 -2.8 -6.1 -13.2 -10.2 -24.8 -11.9 -34.4 -32.2 -90 -33.1 -90.9 -0.6 -0.6 -4.4 0.1 -9.7 1.7 -22.8 6.9 -42.1 10.1 -70.3 11.7 -117.6 6.4 -214.4 -62.8 -232.4 -166.3 -6.9 -39.3 -2.7 -76.6 13 -116.9 14.9 -38.5 35.3 -69 66.8 -100.3 22.1 -22 43.5 -37.8 67.4 -49.7 5.6 -2.9 10.2 -5.5 10.2 -5.8 0 -0.4 -3.2 -10.3 -7.1 -22.1 -7.3 -22 -11.9 -34.4 -24 -65 -3.8 -9.7 -7.4 -20.2 -8 -23.4 -2.8 -15.3 5.6 -29.3 22.4 -37 3.9 -1.8 69.8 -24 146.2 -49.3 274 -90.8 377.1 -124.4 388.7 -126.8 12.3 -2.6 22.7 -0.1 31.1 7.6 7.1 6.5 9.4 11 17.3 34.5 3.7 11 7 20.4 7.5 20.9 0.4 0.5 5.2 -3 10.6 -7.6 34.4 -29.7 139.1 -112.7 198.7 -157.7 14.8 -11.2 35.7 -27.2 46.5 -35.6 19.1 -15 39.1 -30.5 123.6 -95.7 45.5 -35.1 69.5 -54.9 114 -93.8 16.5 -14.4 36.1 -30.9 43.5 -36.6 7.4 -5.8 17.1 -13.6 21.5 -17.4 13.1 -11.4 27.8 -17.8 37.8 -16.6 16.2 2.1 41.4 21.3 77.9 59.4 48.3 50.4 97 119 134 188.9 l6.1 11.6 6.1 -0.7 c35.1 -3.8 63.5 0.9 94.1 15.3 11.6 5.5 28.4 15.5 37 21.9 8 6.1 23.3 21 30.5 29.7 29 35.4 44.6 85.1 42.7 136.5 -1.5 38.3 -10 71.9 -27.3 107.5 -14.1 29.2 -30.5 52.3 -54.2 76.8 l-10.5 10.7 0.6 9.3 c0.4 5 1.2 16 1.9 24.2 1.7 20.4 1.7 110.8 0 131 -6.8 80.3 -20.4 145.3 -42.9 205.5 -15.1 40.6 -23.9 54.7 -38.1 61.7 -8.1 3.9 -16.8 4 -56.2 0.4 -18.4 -1.6 -61.4 -5.3 -95.5 -8.1 -81.5 -6.7 -136 -11.2 -185.5 -15.5 -22.3 -1.9 -67.3 -5.7 -100 -8.5 -109.1 -9.3 -189.1 -17.2 -216 -21.5 -5.2 -0.9 -11.7 -1.8 -14.4 -2.2 -4.8 -0.6 -4.8 -0.6 -4.1 1.8 10.9 33.8 11.7 36.8 12.2 44.7 1.2 18.5 -6.2 28.2 -26 34.3 -5.6 1.7 -24.6 7.8 -42.2 13.4 -63.1 20.4 -69.8 22.3 -81.6 22.9 -19.4 1 -37.1 5.1 -70.5 16.2 -12.6 4.1 -27.8 8.8 -33.7 10.4 -6 1.6 -11.6 3.5 -12.4 4.2 -1.4 1.1 -1.5 3.4 -0.9 16.8 0.3 8.5 1.1 28.8 1.6 45 1.6 47.8 2.6 53.9 12.4 78.1 11.3 28.3 18.4 39.4 32.7 51.8 7 6.1 11.7 8.7 44.1 24.9 20 9.9 40.9 20.9 46.5 24.4 31.3 19.3 51 44.7 56.9 73.5 3.1 15 0.3 34.2 -7.6 51 -10.2 21.9 -24.7 37.9 -48.5 53.8 -25.3 16.9 -40.2 20.7 -85.5 21.9 -10.2 0.2 -22.1 0.1 -26.5 -0.4z m31 -53.5 c30 -3.2 37.6 -5.3 51.9 -14.9 16.4 -11.1 29 -27.3 30.4 -39.2 l0.5 -4.7 -2.9 0.6 c-1.6 0.4 -8.3 1.6 -14.9 2.8 -6.6 1.1 -19.9 3.8 -29.5 5.8 -9.6 2.1 -20.2 4.3 -23.5 5 -3.3 0.6 -7 1.4 -8.2 1.7 -1.9 0.5 -2.3 0.2 -2.3 -1.5 0 -1.8 2 -3.2 11.3 -7.6 6.1 -3 15.7 -7.1 21.2 -9.1 12.6 -4.7 37.7 -15.3 38.9 -16.4 0.9 -0.9 -6.1 -10.6 -11.3 -15.4 l-3.1 -3 -9.8 3.2 c-22.3 7.3 -65.6 15.2 -74.2 13.6 -3.5 -0.7 -4.6 -1.4 -4.8 -3.1 -0.3 -1.8 0.7 -2.7 5 -4.9 9.8 -5 21.2 -9.6 41.2 -16.8 11 -4 20.1 -7.6 20.3 -8.1 0.1 -0.6 -3.9 -3.9 -8.9 -7.5 -5.1 -3.6 -12 -8.4 -15.3 -10.8 l-6 -4.2 -12.3 5 c-24.1 9.8 -45.5 13.7 -48.6 8.8 -2.8 -4.5 13.7 -14.5 34.3 -20.8 l10.5 -3.3 -3.9 -3.1 c-2.2 -1.7 -6.4 -5.2 -9.4 -7.8 -2.9 -2.6 -7.7 -6.6 -10.6 -8.8 l-5.3 -4.1 -9.3 3.5 c-11.5 4.3 -16.8 5.5 -23.7 5.6 -4.3 0 -5.7 -0.5 -7.7 -2.5 -2.9 -2.8 -3 -3.6 -1 -7.5 1.9 -3.6 11.4 -8.4 21 -10.5 3.9 -0.9 7.6 -1.8 8.3 -2 0.9 -0.3 -0.7 -3.3 -4.6 -9.2 -3.2 -4.9 -7.1 -10.9 -8.6 -13.5 -1.5 -2.7 -3.4 -4.8 -4.2 -4.8 -0.8 0 -6.2 1.4 -12.1 3 -11.6 3.3 -22.6 4 -25.7 1.7 -1.2 -0.9 -1.7 -2.3 -1.4 -4.2 0.5 -4.4 10.1 -9 23.3 -11 5.5 -0.9 10.1 -1.8 10.4 -2 0.7 -0.8 -9.3 -22.7 -10.7 -23.2 -0.7 -0.3 -6.5 0.9 -13 2.7 -18.9 5.2 -27.8 5.1 -30.4 -0.4 -2.8 -6.4 6.6 -11.7 26 -14.8 7 -1.1 12.9 -2.2 13 -2.3 0.2 -0.2 -0.8 -4.2 -2.3 -9 -2.1 -7.1 -2.9 -8.6 -4.3 -8.2 -0.9 0.3 -6.9 2.4 -13.2 4.6 -14.5 5.1 -21.7 5.6 -24.9 1.4 -2.7 -3.3 -2 -5.8 2.5 -9.9 3.7 -3.4 8.5 -5.1 23.7 -8.4 5.5 -1.2 9.7 -2.7 9.7 -3.3 0 -2 -2.1 -14 -2.5 -14.8 -0.3 -0.4 -5.8 0.9 -12.2 2.7 -19.9 5.8 -32.8 5.6 -34.8 -0.7 -2.6 -8.1 6.7 -12.7 33 -16.4 6.6 -0.9 12.1 -1.8 12.3 -2 0.5 -0.5 -1.5 -16.6 -2.2 -17.2 -0.3 -0.3 -6.1 1.3 -13 3.6 -17.6 5.8 -26.7 5.7 -28.2 -0.5 -1.7 -6.8 4.9 -11.8 22.3 -16.8 17.7 -5.1 17 -4.7 16.5 -9 -0.2 -2 -0.8 -3.9 -1.3 -4.2 -0.5 -0.3 -4.4 0.8 -8.7 2.4 -4.2 1.7 -14.7 5.1 -23.2 7.7 -8.5 2.5 -19.5 6.3 -24.5 8.4 -4.9 2.1 -13.5 5 -19 6.5 -13.5 3.7 -14.8 4.3 -14.2 6.4 0.3 0.9 5.9 18.1 12.5 38.2 6.6 20.1 15 47.5 18.7 61 13.8 50.9 33.3 103.4 60.1 161.7 10.9 23.8 21.1 42.3 28.2 51.2 7 8.8 16.4 18.1 20.2 20.1 11 5.7 31.8 7.3 58.5 4.5z m-305.1 -358.9 c6.1 -1.9 19.4 -5.8 29.6 -8.6 34.9 -9.6 98.5 -29.2 174 -53.5 66 -21.3 138.7 -44.4 194.5 -62 9.4 -3 24 -7.4 32.5 -10 8.5 -2.5 17 -5.1 18.8 -5.6 2.3 -0.8 3.2 -1.7 3.2 -3.2 0 -1.1 -5.6 -19.4 -12.4 -40.6 -6.9 -21.2 -18.3 -56.8 -25.5 -79.1 -7.2 -22.3 -21.4 -65.5 -31.6 -96 -10.2 -30.5 -28.4 -85.9 -40.4 -123 -12.1 -37.1 -33.6 -103.3 -47.9 -147 -14.4 -43.7 -28.6 -87.5 -31.7 -97.3 -3.1 -9.8 -6.2 -18 -6.9 -18.3 -0.8 -0.3 -21.9 6.5 -46.9 15 -25.1 8.6 -134.4 45.1 -242.9 81.2 -108.5 36.1 -197.7 66 -198.2 66.5 -0.5 0.4 6.8 20 16.2 43.6 9.4 23.5 21 53.2 25.7 65.8 4.8 12.7 15.4 40.3 23.5 61.5 8.1 21.2 22.3 59 31.5 84 9.2 25 22.1 60.1 28.7 78 14.2 38.7 44.5 121.7 56.8 156 21 58.5 34 94.2 34.5 95.1 1 1.5 3.1 1.1 14.9 -2.5z m-160.9 -107.1 c14.2 -1.9 40.5 -7.3 42.2 -8.7 1.3 -1 2.3 1.9 -18.5 -56.3 -44.4 -124.4 -63.7 -179.1 -76.2 -216 -5.4 -15.9 -12.3 -34.4 -15.3 -41 -3 -6.6 -6.2 -14.1 -7.2 -16.7 -1 -2.7 -2 -4.8 -2.3 -4.8 -0.3 0 -5.8 3.9 -12.1 8.8 -35 26.4 -62.6 55.5 -79.9 84.2 -18.2 30 -27.4 58 -30.2 91.5 -3.8 45.6 13.3 89.2 46.6 118.6 24.5 21.6 61.2 36.9 98 40.8 13.6 1.4 42.4 1.2 54.9 -0.4z m1305.9 -75.7 c2.2 -3.4 9.6 -23.2 15.9 -42.3 16.3 -49.9 25.8 -97.8 31.3 -158 2.2 -24.1 3 -94.7 1.5 -121.2 -2.4 -40.5 -6.1 -71.5 -13.6 -116.3 -31.1 -182.9 -113.2 -358.3 -228.4 -487.5 -14.8 -16.6 -31.1 -33.5 -32.2 -33.5 -1.1 0 -100.5 74.5 -101.4 76 -0.3 0.5 3.7 5.8 9 11.6 40.5 44.9 77.7 101.8 112.5 171.9 40.2 81.2 69.9 163.5 93.5 259.7 25 101.8 37.3 211.4 33.7 299.1 -1.4 32.7 -3.1 52 -6.7 77.5 -2.4 16.4 -7 40.4 -10 51.9 -0.7 3.1 -0.9 5.5 -0.4 5.9 0.9 0.5 76.5 6.7 89.6 7.2 3.4 0.2 4.5 -0.2 5.7 -2z m-120 -11.9 c4.8 -16.1 10.6 -48.2 13.6 -75.4 5.9 -53.9 5.3 -123.6 -1.5 -188.5 -23.1 -218.6 -113.4 -449.3 -226.8 -579.2 -5.6 -6.4 -10.8 -11.9 -11.5 -12.2 -1.3 -0.6 -188.2 140.3 -188.2 141.9 0 0.2 3.5 2.8 7.8 5.6 29.4 19.8 61.8 48.9 86.6 77.9 79.7 93.2 136.5 224.9 152.5 354 3.8 30.8 4.5 43.1 4.5 79.5 0 27 -0.4 40.3 -1.7 53.1 -4.5 44.1 -13.1 83.1 -25.8 117.1 -2.7 7.2 -4.9 13.8 -4.9 14.5 0 1.2 9.7 2.2 49.8 5.2 27.3 2.1 69.7 5.5 94.2 7.6 24.5 2.1 45.7 3.8 47.2 3.9 2.4 0.1 2.9 -0.4 4.2 -5z m-218.2 -22.9 c13.4 -32.8 22.9 -70.9 27.9 -112.6 2.7 -22.5 3.7 -74.9 2 -99.5 -5.6 -79.6 -25.9 -160.6 -58.6 -233.4 -41.2 -92 -102.1 -171 -173.7 -225.4 -6.1 -4.6 -10.3 -7.1 -11.3 -6.8 -0.8 0.4 -15.5 11.5 -32.7 24.9 -31.1 24.1 -87 66.3 -104.6 78.9 l-9.2 6.6 11 6.2 c88.4 49.5 158.1 191.3 174.7 355.1 2.4 24.6 2.5 84 0 105.8 -3.6 31.8 -9.5 59.7 -17.6 83.6 -2.3 6.6 -3.9 12.1 -3.6 12.4 0.2 0.2 9.5 1 20.7 1.8 31.7 2.2 85 6.2 123.3 9.3 19.3 1.6 37.9 2.8 41.4 2.8 l6.5 -0.2 3.8 -9.5z m-216.7 -10.3 c8.6 -19.6 17.2 -57.4 21.2 -93.7 2.2 -19.6 2.4 -76.6 0.5 -97.5 -7.6 -80.8 -27.3 -153.8 -58.8 -217.6 -11.3 -23 -19 -36.3 -30.8 -53.9 -20.3 -30.2 -41.9 -53.4 -64.4 -69.3 -8 -5.7 -22.4 -13.7 -24.5 -13.7 -2 0 -26.7 17.6 -38.7 27.6 -9.9 8.2 -55 53.6 -55 55.3 0 1.6 32.1 103.5 57.5 182.6 21.9 68 29.8 93.3 48.4 153.5 7.7 25 20.2 64.6 27.9 88 l13.8 42.5 4 -0.3 c8.9 -0.7 65.9 -0.3 77.9 0.6 7.2 0.5 14.3 1 15.8 1.1 2.5 0.1 3.1 -0.5 5.2 -5.2z m658 -405.7 c2.1 -2.8 3.5 -5.3 3.2 -5.7 -1.1 -1 -9.2 2.2 -9.5 3.8 -0.3 1.6 1.4 6.9 2.2 6.9 0.2 0 2.1 -2.3 4.1 -5z m1.5 -19.5 c5.6 -1.9 11.4 -4.2 12.6 -5 2 -1.3 8.4 -12 8.4 -14 0 -1.1 -2.6 -0.3 -15.8 4.6 -18.6 6.9 -18.2 6.6 -16.9 12.8 0.5 2.8 1 5.1 1.1 5.1 0.1 0 4.9 -1.6 10.6 -3.5z m0.6 -26.8 c8.2 -3.5 17.9 -7.6 21.6 -9.1 5.7 -2.4 6.8 -3.3 8.1 -6.4 2.1 -5.5 4 -13.2 3.5 -13.8 -0.5 -0.5 -49.1 14.2 -52.1 15.8 -1 0.5 -1.6 1.6 -1.3 2.6 0.2 0.9 1.2 5.2 2.1 9.5 0.9 4.2 2 7.7 2.5 7.7 0.4 0 7.4 -2.8 15.6 -6.3z m5.7 -35.1 c15.7 -5.8 29.5 -10.9 30.5 -11.5 1.5 -0.8 2.2 -2.9 3 -9.7 0.7 -4.8 1 -8.9 0.8 -9.1 -0.2 -0.2 -7.3 2.1 -15.7 5.1 -29.5 10.5 -51.1 18.4 -51.5 18.9 -0.3 0.3 0 2.5 0.6 4.8 0.6 2.4 1.6 6.1 2.1 8.2 0.5 2 1.1 3.7 1.3 3.7 0.2 0 13.2 -4.7 28.9 -10.4z m0.2 -30.4 l34 -13.9 0 -9.6 c0 -5.2 -0.4 -9.9 -0.8 -10.4 -0.5 -0.4 -6.3 1.1 -13 3.4 -6.7 2.3 -22.9 7.9 -35.9 12.4 -13 4.4 -24.4 8.6 -25.2 9.2 -1.4 1.1 -1.3 2.3 1.4 11.7 1.6 5.8 3 10.6 3 10.7 0 1.1 6.7 -1.4 36.5 -13.5z m-25 -26 c9.9 -3.8 26.3 -9.9 36.5 -13.7 10.2 -3.7 18.8 -7.1 19.2 -7.4 0.7 -0.6 -2.5 -14.8 -3.6 -15.9 -0.3 -0.3 -9.3 2.3 -19.8 5.7 -51.1 16.7 -58.8 19.3 -58.8 19.9 0 0.4 1.2 4.3 2.6 8.7 1.4 4.4 2.8 8.6 3 9.4 0.2 0.7 1 1.1 1.7 0.8 0.6 -0.3 9.3 -3.6 19.2 -7.5z m-6.8 -29.6 c45 -17.3 52.8 -20.5 53.1 -21.6 0.6 -1.7 -5.7 -14 -7.1 -14 -2.4 0 -71.4 25.6 -73.4 27.2 -0.8 0.7 -0.5 2.7 1.2 7.9 2.4 6.8 3.3 8.9 4 8.9 0.2 0 10.2 -3.8 22.2 -8.4z m-14.6 -24.5 c22.2 -9.3 50 -21.1 52.2 -22.3 1.6 -0.8 1.5 -1.3 -1.5 -5.5 -1.8 -2.5 -3.8 -4.7 -4.3 -4.9 -0.6 -0.3 -16.1 5.4 -34.5 12.5 -31.2 12 -33.5 13.1 -33.3 15.3 0.1 2.2 3.9 11.8 4.6 11.8 0.2 0 7.8 -3.1 16.8 -6.9z m6.4 -28.6 c16.5 -6.9 30.4 -13 30.8 -13.4 1.3 -1.3 -7.2 -8.4 -9.1 -7.6 -1 0.3 -13.2 4.6 -27.2 9.5 -31.7 11 -31 10.7 -31 12.4 0 0.7 0.6 2.9 1.4 4.7 0.7 1.9 1.6 4.2 1.9 5.2 0.4 0.9 1.2 1.7 2 1.7 0.7 0 14.8 -5.6 31.2 -12.5z m-12.1 -21.9 c12.1 -4.7 22.1 -8.8 22.3 -9 0.7 -0.7 -5.3 -4.5 -12.6 -8 l-7.2 -3.5 -5.2 1.6 c-13.8 4.1 -33.7 11.6 -33.7 12.8 0 0.7 0.9 3.2 1.9 5.6 1.1 2.4 2.6 6.1 3.4 8.1 l1.6 3.8 3.8 -1.4 c2.1 -0.8 13.7 -5.3 25.7 -10z m-25.7 -20.2 c6.8 -2.6 12.3 -5 12.3 -5.4 0 -1.2 -29.6 -9 -34.1 -9 -1.6 0 -1 2.3 2.8 10.8 2.2 4.9 4.3 8.2 5.2 8.2 0.8 0 7 -2.1 13.8 -4.6z"/>
  <path d="M439.6 962.4 c-0.9 -0.8 -1.6 -2.2 -1.6 -2.9 0 -2 2.8 -4.5 5.1 -4.5 2.2 0 5.9 3.3 5.9 5.3 0 3.6 -6.5 5.1 -9.4 2.1z"/>
  <path d="M456 912 c-2.7 -2.7 -2.6 -7.5 0.2 -9.4 3.1 -2.2 5.2 -2 8.7 1 3.3 2.7 4.1 7 1.9 9.2 -2 2 -8.5 1.5 -10.8 -0.8z"/>
  <path d="M490.4 873 c-2.8 -1.1 -6.4 -5.8 -6.4 -8.2 0 -2.5 4.4 -6.8 6.9 -6.8 3.5 0 8.4 5.2 8.4 8.9 0 4.9 -4.4 7.9 -8.9 6.1z"/>
  <path d="M532.5 842.7 c-3.6 -3 -4.4 -9.3 -1.8 -12.6 2.8 -3.4 7 -3.1 10.5 0.8 7.1 8 -0.7 18.7 -8.7 11.8z"/>
  <path d="M700 839.2 c-4.4 -2.1 -6.3 -7 -5 -12.9 1.8 -7.7 8.3 -21.5 12 -25.4 5.3 -5.6 11.6 -5.3 14.8 0.8 2 3.7 1.4 9.1 -2.4 20.2 -4.1 12.2 -5.3 14.5 -9.7 17.1 -3.9 2.4 -5.3 2.5 -9.7 0.2z"/>
  <path d="M581 827.7 c-3.7 -1.9 -5.4 -7.8 -3.5 -12.3 1.7 -4.1 5.6 -6 8.8 -4.2 3.5 1.8 4.6 4 4.7 8.6 0 3.2 -0.6 4.9 -2.5 6.7 -2.7 2.8 -3.9 3 -7.5 1.2z"/>
  <path d="M657.6 820.4 c-5.6 -5.5 -0.6 -19.6 6.9 -19.6 3.7 0 5.5 2.5 5.5 8 0 9.4 -7.6 16.5 -12.4 11.6z"/>
  <path d="M619.4 818.7 c-2 -1.8 -2.8 -3.5 -3.2 -7.5 -0.4 -4.7 -0.2 -5.4 2.6 -8.2 3.7 -3.6 6.5 -3.8 9.7 -0.5 2 1.9 2.5 3.4 2.5 7.5 0 4.4 -0.5 5.6 -2.9 8.1 -3.6 3.5 -5.2 3.6 -8.7 0.6z"/>
 </g>
 <g fill="#aaecfd">
  <path d="M607.9 1181 c-45.1 -4.1 -84.1 -33.6 -101.2 -76.6 -17.2 -43 -10.3 -91.6 18.3 -129.6 15.6 -20.8 36.7 -36.4 59 -43.8 3.6 -1.2 8.2 -3.3 10.3 -4.6 2.1 -1.4 7.7 -3.4 12.4 -4.4 4.8 -1 9.4 -2.7 10.7 -3.8 51.7 -47.2 66.4 -59.9 70.1 -60.8 3.7 -0.9 7.3 0.3 9.2 3.2 0.9 1.5 2.5 7.7 3.5 13.8 2.9 17.7 9.8 69.4 9.8 73.2 0 2.9 1.2 4.9 7.5 12 22.1 24.7 32.8 53.2 32.8 86.9 0 27.7 -8.5 54.9 -24.5 78.3 -6.8 9.9 -23.1 26.2 -33 33 -25.5 17.4 -55.9 25.7 -84.9 23.2z m25.8 -24.1 c14.8 -2 31.2 -8.6 45 -18.1 8.4 -5.8 22.1 -19.7 28.1 -28.5 21.9 -32.3 26 -73.2 10.7 -107.8 -9.6 -21.6 -30.4 -41.9 -51.8 -50.5 -14 -5.6 -18.9 -6.5 -35.7 -6.5 -26 0 -34.2 1.1 -43.5 5.5 -17.3 8.3 -32.6 20.6 -43.5 35.2 -7.9 10.4 -16.3 27.6 -19.7 40.3 -2.5 9.1 -2.7 11.6 -2.7 28.5 -0.1 17.1 0.1 19.2 2.6 28 5.3 19.1 14.3 34.5 27.5 47.1 9.8 9.3 15 12.9 26.6 18.4 17.9 8.5 36.2 11.2 56.4 8.4z m51.9 -229.6 c-0.2 -1 -1.2 -8.8 -2.2 -17.3 -0.9 -8.5 -2 -16.1 -2.3 -16.7 -0.6 -1.2 -1.6 -0.5 -11.8 8.8 -2.1 1.9 -6.8 6.1 -10.6 9.3 -3.7 3.2 -6.6 6.1 -6.4 6.3 0.3 0.2 4.4 1.5 9.3 2.8 4.9 1.3 12.1 3.7 15.9 5.4 8.4 3.5 8.8 3.6 8.1 1.4z"/>
  <path d="M606.6 1105.9 c-10.4 -2.5 -24.7 -13.3 -31.8 -24.3 -5.1 -8 -8.8 -19.8 -8.8 -28.5 0 -16.8 10.2 -33.8 25.6 -42.6 2.7 -1.6 6.5 -4.3 8.5 -6.1 4.5 -3.9 10.8 -5.4 22.8 -5.4 14.6 0 27.2 5.1 37.1 15 9.9 10 15 22.7 15.1 38 0.1 14.7 -5.6 27.7 -17.2 39.2 -7.4 7.3 -17.3 12.8 -26.7 14.7 -6.2 1.3 -19.1 1.3 -24.6 0z"/>
 </g>
 <g fill="#ffec0e">
  <path d="M686 933.9 c-6.8 -3.6 -23.6 -9.7 -31.5 -11.4 -12.8 -2.7 -12.6 -2 -2.3 -11 13.2 -11.5 17.3 -15.2 24.7 -22.2 l6.6 -6.1 3.2 26.1 c1.8 14.4 3.1 26.2 3 26.3 -0.1 0.1 -1.8 -0.6 -3.7 -1.7z"/>
 </g>
</svg>