<?xml version="1.0" encoding="utf-8"?>
<!DOCTYPE svg PUBLIC "-//W3C//DTD SVG 1.0//EN" "http://www.w3.org/TR/2001/REC-SVG-20010904/DTD/svg10.dtd">
<svg version="1.0" xmlns="http://www.w3.org/2000/svg" width="1924px" height="1924px" viewBox="0 0 1924 1924" preserveAspectRatio="xMidYMid meet">
 <g fill="#f2f8f0">
  <path d="M522.1 1759.8 c-1.3 -0.7 -3.4 -2.6 -4.5 -4.1 -2.1 -2.8 -2.1 -4 -2.6 -56 -0.4 -41.8 -0.8 -53.1 -1.7 -53 -0.7 0.2 -1.3 -0.3 -1.3 -1.1 0 -2 14.7 -7.9 21.3 -8.4 l5.7 -0.4 0 50.2 0 50.3 34.3 -0.6 c30.2 -0.6 102.6 -2.3 236.2 -5.7 22.6 -0.6 58.6 -1.5 80 -2 21.5 -0.5 65.3 -1.7 97.5 -2.5 32.2 -0.8 78.8 -1.9 103.5 -2.5 46.5 -1.1 174.2 -4.3 239 -6 20.4 -0.5 61.8 -1.5 92 -2.1 31.1 -0.7 55.5 -1.6 56.2 -2.1 1.3 -1.1 1.4 8.4 -0.7 -266.3 -1 -142.4 -2.2 -335.8 -4 -681.5 -1.5 -279.9 -2.7 -429.1 -3.5 -429.8 -0.3 -0.3 -28.1 -1 -61.8 -1.4 -33.7 -0.5 -78.1 -1.2 -98.7 -1.6 l-37.5 -0.7 -0.3 -3.2 c-0.4 -4.3 6.7 -27.3 8.5 -27.3 0.7 0 1.3 0.7 1.3 1.5 0 0.8 1 1.7 2.3 1.9 1.2 0.3 19.1 0.7 39.7 1 92.4 1.4 155 2.8 160.4 3.6 6.9 1.1 10.2 3.7 11.6 8.9 0.5 2.1 1.4 94.4 2 225.1 0.6 121.8 1.5 280.2 2 352 1.3 182.5 3 466.2 3.9 664.5 0.8 154.5 0.7 168.3 -0.8 171.4 -3.1 6.7 -5.2 7.4 -22.3 7.7 -8.4 0.2 -25.6 0.6 -38.3 0.9 -30.6 0.7 -140.8 3.2 -202.5 4.5 -27.2 0.6 -99 2.1 -159.5 3.5 -60.5 1.4 -152.7 3.4 -205 4.5 -135.9 2.9 -309.9 6.8 -331.5 7.5 -14.2 0.5 -19.1 0.3 -20.9 -0.7z"/>
  <path d="M1423 1705.5 c0 -3.3 0.2 -3.5 3.5 -3.5 3.3 0 3.5 0.2 3.5 3.5 0 3.3 -0.2 3.5 -3.5 3.5 -3.3 0 -3.5 -0.2 -3.5 -3.5z"/>
  <path d="M1436 1704.5 c0 -3.3 0.2 -3.5 3.5 -3.5 3.3 0 3.5 0.2 3.5 3.5 0 3.3 -0.2 3.5 -3.5 3.5 -3.3 0 -3.5 -0.2 -3.5 -3.5z"/>
  <path d="M1402 1703 c0 -0.5 -1.6 -1 -3.5 -1 -1.9 0 -3.5 -0.4 -3.5 -1 0 -0.5 -1.6 -1 -3.5 -1 -1.9 0 -3.5 -0.4 -3.5 -1 0 -0.5 -1.6 -1 -3.5 -1 -1.9 0 -3.5 -0.4 -3.5 -1 0 -0.5 -1.6 -1 -3.5 -1 -1.9 0 -3.5 -0.4 -3.5 -1 0 -0.5 -1.6 -1 -3.5 -1 -1.9 0 -3.5 -0.4 -3.5 -1 0 -0.5 -1.6 -1 -3.5 -1 -1.9 0 -3.5 -0.4 -3.5 -1 0 -0.5 -1.6 -1 -3.5 -1 -1.9 0 -3.5 -0.4 -3.5 -1 0 -0.5 -1.6 -1 -3.5 -1 -1.9 0 -3.5 -0.4 -3.5 -1 0 -0.5 -1.6 -1 -3.5 -1 -3.3 0 -3.5 -0.2 -3.5 -3.5 0 -3.3 0.2 -3.5 3.5 -3.5 1.9 0 3.5 0.5 3.5 1 0 0.6 1.6 1 3.5 1 1.9 0 3.5 0.5 3.5 1 0 0.6 1.6 1 3.5 1 1.9 0 3.5 0.5 3.5 1 0 0.6 1.6 1 3.5 1 1.9 0 3.5 0.5 3.5 1 0 0.6 1.6 1 3.5 1 1.9 0 3.5 0.5 3.5 1 0 0.6 1.6 1 3.5 1 1.9 0 3.5 0.5 3.5 1 0 0.6 1.6 1 3.5 1 1.9 0 3.5 0.5 3.5 1 0 0.6 1.6 1 3.5 1 1.9 0 3.5 0.5 3.5 1 0 0.6 1.6 1 3.5 1 1.9 0 3.5 0.5 3.5 1 0 0.6 1.6 1 3.5 1 3.3 0 3.5 0.2 3.5 3.5 0 3.3 -0.2 3.5 -3.5 3.5 -1.9 0 -3.5 -0.4 -3.5 -1z"/>
  <path d="M1308 1676 c0 -0.5 -1.6 -1 -3.5 -1 -1.9 0 -3.5 -0.4 -3.5 -1 0 -0.5 -1.6 -1 -3.5 -1 -1.9 0 -3.5 -0.4 -3.5 -1 0 -0.5 -1.6 -1 -3.5 -1 -1.9 0 -3.5 -0.4 -3.5 -1 0 -0.5 -1.6 -1 -3.5 -1 -1.9 0 -3.5 -0.4 -3.5 -1 0 -0.5 -1.6 -1 -3.5 -1 -3.3 0 -3.5 -0.2 -3.5 -3.5 0 -3.3 0.2 -3.5 3.5 -3.5 1.9 0 3.5 0.5 3.5 1 0 0.6 1.6 1 3.5 1 1.9 0 3.5 0.5 3.5 1 0 0.6 1.6 1 3.5 1 1.9 0 3.5 0.5 3.5 1 0 0.6 1.6 1 3.5 1 1.9 0 3.5 0.5 3.5 1 0 0.6 1.6 1 3.5 1 1.9 0 3.5 0.5 3.5 1 0 0.6 1.6 1 3.5 1 3.3 0 3.5 0.2 3.5 3.5 0 3.3 -0.2 3.5 -3.5 3.5 -1.9 0 -3.5 -0.4 -3.5 -1z"/>
  <path d="M1256 1661 c0 -0.5 -1.6 -1 -3.5 -1 -1.9 0 -3.5 -0.4 -3.5 -1 0 -0.5 -1.6 -1 -3.5 -1 -1.9 0 -3.5 -0.4 -3.5 -1 0 -0.5 -1.6 -1 -3.5 -1 -1.9 0 -3.5 -0.4 -3.5 -1 0 -0.5 -1.6 -1 -3.5 -1 -3.3 0 -3.5 -0.2 -3.5 -3.5 0 -3.3 0.2 -3.5 3.5 -3.5 1.9 0 3.5 0.5 3.5 1 0 0.6 1.6 1 3.5 1 1.9 0 3.5 0.5 3.5 1 0 0.6 1.6 1 3.5 1 1.9 0 3.5 0.5 3.5 1 0 0.6 1.6 1 3.5 1 1.9 0 3.5 0.5 3.5 1 0 0.6 1.6 1 3.5 1 3.3 0 3.5 0.2 3.5 3.5 0 3.3 -0.2 3.5 -3.5 3.5 -1.9 0 -3.5 -0.4 -3.5 -1z"/>
  <path d="M1204 1646 c0 -0.5 -1.6 -1 -3.5 -1 -1.9 0 -3.5 -0.4 -3.5 -1 0 -0.5 -1.6 -1 -3.5 -1 -1.9 0 -3.5 -0.4 -3.5 -1 0 -0.5 -1.6 -1 -3.5 -1 -1.9 0 -3.5 -0.4 -3.5 -1 0 -0.5 -1.6 -1 -3.5 -1 -3.3 0 -3.5 -0.2 -3.5 -3.5 0 -3.3 0.2 -3.5 3.5 -3.5 1.9 0 3.5 0.5 3.5 1 0 0.6 1.6 1 3.5 1 1.9 0 3.5 0.5 3.5 1 0 0.6 1.6 1 3.5 1 1.9 0 3.5 0.5 3.5 1 0 0.6 1.6 1 3.5 1 1.9 0 3.5 0.5 3.5 1 0 0.6 1.6 1 3.5 1 3.3 0 3.5 0.2 3.5 3.5 0 3.3 -0.2 3.5 -3.5 3.5 -1.9 0 -3.5 -0.4 -3.5 -1z"/>
  <path d="M1152 1631 c0 -0.5 -1.6 -1 -3.5 -1 -3.3 0 -3.5 -0.2 -3.5 -3.5 0 -3.3 0.2 -3.5 3.5 -3.5 1.9 0 3.5 0.5 3.5 1 0 0.6 1.6 1 3.5 1 3.3 0 3.5 0.2 3.5 3.5 0 3.3 -0.2 3.5 -3.5 3.5 -1.9 0 -3.5 -0.4 -3.5 -1z"/>
  <path d="M1131 1622.5 c0 -3.3 0.2 -3.5 3.5 -3.5 3.3 0 3.5 0.2 3.5 3.5 0 3.3 -0.2 3.5 -3.5 3.5 -3.3 0 -3.5 -0.2 -3.5 -3.5z"/>
  <path d="M1114 1620 c0 -0.5 -1.6 -1 -3.5 -1 -1.9 0 -3.5 -0.4 -3.5 -1 0 -0.5 -1.6 -1 -3.5 -1 -1.9 0 -3.5 -0.4 -3.5 -1 0 -0.5 -1.6 -1 -3.5 -1 -1.9 0 -3.5 -0.4 -3.5 -1 0 -0.5 -1.6 -1 -3.5 -1 -1.9 0 -3.5 -0.4 -3.5 -1 0 -0.5 -1.6 -1 -3.5 -1 -3.3 0 -3.5 -0.2 -3.5 -3.5 0 -3.3 0.2 -3.5 3.5 -3.5 1.9 0 3.5 0.5 3.5 1 0 0.6 1.6 1 3.5 1 1.9 0 3.5 0.5 3.5 1 0 0.6 1.6 1 3.5 1 1.9 0 3.5 0.5 3.5 1 0 0.6 1.6 1 3.5 1 1.9 0 3.5 0.5 3.5 1 0 0.6 1.6 1 3.5 1 1.9 0 3.5 0.5 3.5 1 0 0.6 1.6 1 3.5 1 3.3 0 3.5 0.2 3.5 3.5 0 3.3 -0.2 3.5 -3.5 3.5 -1.9 0 -3.5 -0.4 -3.5 -1z"/>
  <path d="M1062 1605 c0 -0.5 -1.6 -1 -3.5 -1 -3.3 0 -3.5 -0.2 -3.5 -3.5 0 -3.3 0.2 -3.5 3.5 -3.5 1.9 0 3.5 0.5 3.5 1 0 0.6 1.6 1 3.5 1 3.3 0 3.5 0.2 3.5 3.5 0 3.3 -0.2 3.5 -3.5 3.5 -1.9 0 -3.5 -0.4 -3.5 -1z"/>
  <path d="M1041 1596.5 c0 -3.3 0.2 -3.5 3.5 -3.5 3.3 0 3.5 0.2 3.5 3.5 0 3.3 -0.2 3.5 -3.5 3.5 -3.3 0 -3.5 -0.2 -3.5 -3.5z"/>
  <path d="M1025.8 1595.3 c-1 -0.2 -1.8 -0.9 -1.8 -1.4 0 -0.5 -1.6 -0.9 -3.5 -0.9 -1.9 0 -3.5 -0.4 -3.5 -1 0 -0.5 -1.6 -1 -3.5 -1 -1.9 0 -3.5 -0.4 -3.5 -1 0 -0.5 -1.6 -1 -3.5 -1 -3.3 0 -3.5 -0.2 -3.5 -3.5 0 -3.3 0.2 -3.5 3.5 -3.5 1.9 0 3.5 0.5 3.5 1 0 0.6 1.6 1 3.5 1 1.9 0 3.5 0.5 3.5 1 0 0.6 1.6 1 3.5 1 1.9 0 3.5 0.5 3.5 1 0 0.6 1.2 1 2.8 1 5.7 0 7.2 1 7.2 4.6 0 3.2 -0.2 3.4 -3.2 3.3 -1.8 -0.1 -4.1 -0.3 -5 -0.6z"/>
  <path d="M986 1580.5 c0 -3.3 0.2 -3.5 3.5 -3.5 3.3 0 3.5 0.2 3.5 3.5 0 3.3 -0.2 3.5 -3.5 3.5 -3.3 0 -3.5 -0.2 -3.5 -3.5z"/>
  <path d="M972 1576.5 c0 -3.3 0.2 -3.5 3.5 -3.5 3.3 0 3.5 0.2 3.5 3.5 0 3.3 -0.2 3.5 -3.5 3.5 -3.3 0 -3.5 -0.2 -3.5 -3.5z"/>
  <path d="M514 1564.1 c0.5 -1.1 1 -6 1 -11 0 -6.9 -0.4 -9.3 -1.6 -10.6 -0.9 -0.9 -1.4 -1.8 -1.1 -2.2 0.3 -0.3 6.2 -0.2 13.1 0.2 14.6 0.9 14.2 0.5 13.1 11.9 l-0.6 7.1 -9.9 3.3 c-5.4 1.7 -11 3.2 -12.5 3.2 -2.2 0 -2.4 -0.3 -1.5 -1.9z"/>
  <path d="M512 1501 c0 -0.5 0.5 -1 1 -1 0.7 0 1 -49.5 1 -146.4 0 -128.9 -0.2 -146.5 -1.5 -147.6 -0.8 -0.7 -1.5 -1.5 -1.5 -1.9 0 -1 18.8 -5.1 23.3 -5.1 l3.7 0 -0.2 150.2 -0.3 150.3 -10 1.2 c-12.5 1.5 -15.5 1.6 -15.5 0.3z"/>
  <path d="M899 1483.5 l0 -14.5 3.5 0 3.5 0 0 14.5 0 14.5 -3.5 0 -3.5 0 0 -14.5z"/>
  <path d="M898 1319 l0 -11 3.5 0 3.5 0 0 11 0 11 -3.5 0 -3.5 0 0 -11z"/>
  <path d="M897 1134.5 c0 -4.5 0 -4.5 3.5 -4.5 3.5 0 3.5 0 3.5 4.5 0 4.5 0 4.5 -3.5 4.5 -3.5 0 -3.5 0 -3.5 -4.5z"/>
  <path d="M880 1123 c0 -2.7 -0.3 -3 -3 -3 -2.8 0 -3 -0.3 -3 -3.5 0 -3.3 0.2 -3.5 3.5 -3.5 3.2 0 3.5 0.2 3.5 3 0 2.7 0.3 3 3 3 2.8 0 3 0.3 3 3.5 0 3.3 -0.2 3.5 -3.5 3.5 -3.2 0 -3.5 -0.2 -3.5 -3z"/>
  <path d="M528.5 1107.2 c-0.6 -0.5 -4.9 -2.6 -9.7 -4.7 -4.9 -2.1 -8.8 -4.1 -8.8 -4.6 0 -0.4 0.7 -1 1.6 -1.3 1.6 -0.6 1.6 -23.5 0.9 -307.4 -0.5 -207.2 -1 -307.1 -1.7 -307.9 -0.8 -1 -0.3 -1.3 2.3 -1.3 4.6 0 20.7 3.4 21.8 4.6 0.6 0.5 1.2 84.9 1.5 213.4 0.3 116.9 0.9 256.9 1.2 311.3 l0.5 98.7 -4.3 0 c-2.4 0 -4.8 -0.4 -5.3 -0.8z"/>
  <path d="M862 1091.5 c0 -3.3 0.2 -3.5 3.5 -3.5 3.3 0 3.5 0.2 3.5 3.5 0 3.3 -0.2 3.5 -3.5 3.5 -3.3 0 -3.5 -0.2 -3.5 -3.5z"/>
  <path d="M862.3 1070.3 c0.7 -6.4 4.6 -16.3 6.3 -16.3 0.8 0 1.4 -1.1 1.4 -2.5 0 -1.8 0.5 -2.5 2 -2.5 1.4 0 2 -0.7 2 -2.2 0 -2.7 4.7 -7.8 7.2 -7.8 1 0 1.8 -0.7 1.8 -1.5 0 -0.8 0.7 -1.5 1.5 -1.5 0.8 0 1.5 -0.4 1.5 -1 0 -0.5 1.4 -1 3 -1 1.9 0 3 -0.5 3 -1.4 0 -1.7 2.2 -2.6 6.1 -2.6 2.6 0 2.9 0.3 2.9 3.4 0 3.6 -1.2 4.6 -5.6 4.6 -1.5 0 -2.4 0.6 -2.4 1.5 0 0.8 -0.7 1.5 -1.5 1.5 -0.8 0 -1.5 0.5 -1.5 1 0 0.6 -0.9 1 -2 1 -1.1 0 -2 0.6 -2 1.3 0 1.9 -5.3 6.7 -7.3 6.7 -1.1 0 -1.7 0.8 -1.7 2.5 0 1.5 -0.6 2.5 -1.4 2.5 -0.7 0 -1.6 1.2 -1.9 2.8 -0.3 1.5 -1.6 5.7 -2.9 9.4 -2.2 6.5 -2.4 6.8 -5.7 6.8 l-3.4 0 0.6 -4.7z"/>
  <path d="M896 925 l0 -10 3.5 0 3.5 0 0 10 0 10 -3.5 0 -3.5 0 0 -10z"/>
  <path d="M895 665 l0 -38 3.5 0 3.5 0 0 38 0 38 -3.5 0 -3.5 0 0 -38z"/>
  <path d="M896 580.5 c0 -3.3 0.2 -3.5 3.5 -3.5 3.3 0 3.5 0.2 3.5 3.5 0 3.3 -0.2 3.5 -3.5 3.5 -3.3 0 -3.5 -0.2 -3.5 -3.5z"/>
  <path d="M912 558.5 c0 -3.3 0.2 -3.5 3.5 -3.5 3.3 0 3.5 0.2 3.5 3.5 0 3.3 -0.2 3.5 -3.5 3.5 -3.3 0 -3.5 -0.2 -3.5 -3.5z"/>
  <path d="M922 553.6 c0 -3.7 1.2 -4.6 6.1 -4.6 2.6 0 2.9 0.3 2.9 3.4 0 3.7 -1.2 4.6 -6.1 4.6 -2.6 0 -2.9 -0.3 -2.9 -3.4z"/>
  <path d="M935 547.5 c0 -3.3 0.2 -3.5 3.5 -3.5 3.3 0 3.5 0.2 3.5 3.5 0 3.3 -0.2 3.5 -3.5 3.5 -3.3 0 -3.5 -0.2 -3.5 -3.5z"/>
  <path d="M944 543.5 c0 -3.3 0.2 -3.5 3.5 -3.5 3.3 0 3.5 0.2 3.5 3.5 0 3.3 -0.2 3.5 -3.5 3.5 -3.3 0 -3.5 -0.2 -3.5 -3.5z"/>
  <path d="M953 539.5 c0 -3.3 0.2 -3.5 3.5 -3.5 3.3 0 3.5 0.2 3.5 3.5 0 3.3 -0.2 3.5 -3.5 3.5 -3.3 0 -3.5 -0.2 -3.5 -3.5z"/>
  <path d="M962 535.5 c0 -3.3 0.2 -3.5 3.5 -3.5 2.4 0 3.5 -0.5 3.5 -1.5 0 -1 1.1 -1.5 3.5 -1.5 3.3 0 3.5 0.2 3.5 3.5 0 3.3 -0.2 3.5 -3.5 3.5 -2.4 0 -3.5 0.5 -3.5 1.5 0 1 -1.1 1.5 -3.5 1.5 -3.3 0 -3.5 -0.2 -3.5 -3.5z"/>
  <path d="M978 528.5 c0 -3.3 0.2 -3.5 3.5 -3.5 3.3 0 3.5 0.2 3.5 3.5 0 3.3 -0.2 3.5 -3.5 3.5 -3.3 0 -3.5 -0.2 -3.5 -3.5z"/>
  <path d="M987 524.5 c0 -3.3 0.2 -3.5 3.5 -3.5 2.4 0 3.5 -0.5 3.5 -1.5 0 -1 1.1 -1.5 3.5 -1.5 3.3 0 3.5 0.2 3.5 3.5 0 3.3 -0.2 3.5 -3.5 3.5 -2.4 0 -3.5 0.5 -3.5 1.5 0 1 -1.1 1.5 -3.5 1.5 -3.3 0 -3.5 -0.2 -3.5 -3.5z"/>
  <path d="M1003 517.5 c0 -3.3 0.2 -3.5 3.5 -3.5 3.3 0 3.5 0.2 3.5 3.5 0 3.3 -0.2 3.5 -3.5 3.5 -3.3 0 -3.5 -0.2 -3.5 -3.5z"/>
  <path d="M1012 513.5 c0 -3.3 0.2 -3.5 3.5 -3.5 2.3 0 3.5 -0.5 3.5 -1.4 0 -1.7 2.2 -2.6 6.1 -2.6 1.9 0 2.9 -0.5 2.9 -1.5 0 -1 1.1 -1.5 3.5 -1.5 3.3 0 3.5 0.2 3.5 3.5 0 3.3 -0.2 3.5 -3.5 3.5 -2.3 0 -3.5 0.5 -3.5 1.4 0 1.7 -2.2 2.6 -6.1 2.6 -1.9 0 -2.9 0.5 -2.9 1.5 0 1 -1.1 1.5 -3.5 1.5 -3.3 0 -3.5 -0.2 -3.5 -3.5z"/>
  <path d="M1044 499.5 c0 -3.3 0.2 -3.5 3.5 -3.5 3.3 0 3.5 0.2 3.5 3.5 0 3.3 -0.2 3.5 -3.5 3.5 -3.3 0 -3.5 -0.2 -3.5 -3.5z"/>
  <path d="M1053 495.5 c0 -3.3 0.2 -3.5 3.5 -3.5 2.4 0 3.5 -0.5 3.5 -1.5 0 -1 1.1 -1.5 3.5 -1.5 3.3 0 3.5 0.2 3.5 3.5 0 3.3 -0.2 3.5 -3.5 3.5 -2.4 0 -3.5 0.5 -3.5 1.5 0 1 -1.1 1.5 -3.5 1.5 -3.3 0 -3.5 -0.2 -3.5 -3.5z"/>
  <path d="M1069 488.5 c0 -3.3 0.2 -3.5 3.5 -3.5 2.4 0 3.5 -0.5 3.5 -1.5 0 -1 1.1 -1.5 3.5 -1.5 3.3 0 3.5 0.2 3.5 3.5 0 3.3 -0.2 3.5 -3.5 3.5 -2.4 0 -3.5 0.5 -3.5 1.5 0 1 -1.1 1.5 -3.5 1.5 -3.3 0 -3.5 -0.2 -3.5 -3.5z"/>
  <path d="M1085 481.5 c0 -3.3 0.2 -3.5 3.5 -3.5 2.4 0 3.5 -0.5 3.5 -1.5 0 -1 1.1 -1.5 3.5 -1.5 3.3 0 3.5 0.2 3.5 3.5 0 3.3 -0.2 3.5 -3.5 3.5 -2.4 0 -3.5 0.5 -3.5 1.5 0 1 -1.1 1.5 -3.5 1.5 -3.3 0 -3.5 -0.2 -3.5 -3.5z"/>
  <path d="M1101 474.5 c0 -3.3 0.2 -3.5 3.5 -3.5 2.4 0 3.5 -0.5 3.5 -1.5 0 -1 1.1 -1.5 3.5 -1.5 3.3 0 3.5 0.2 3.5 3.5 0 3.3 -0.2 3.5 -3.5 3.5 -2.4 0 -3.5 0.5 -3.5 1.5 0 1 -1.1 1.5 -3.5 1.5 -3.3 0 -3.5 -0.2 -3.5 -3.5z"/>
  <path d="M1117 467.5 c0 -3.3 0.2 -3.5 3.5 -3.5 3.3 0 3.5 0.2 3.5 3.5 0 3.3 -0.2 3.5 -3.5 3.5 -3.3 0 -3.5 -0.2 -3.5 -3.5z"/>
  <path d="M1133 460.5 c0 -3.3 0.2 -3.5 3.5 -3.5 3.3 0 3.5 0.2 3.5 3.5 0 3.3 -0.2 3.5 -3.5 3.5 -3.3 0 -3.5 -0.2 -3.5 -3.5z"/>
  <path d="M1142 456.5 c0 -3.3 0.2 -3.5 3.5 -3.5 2.4 0 3.5 -0.5 3.5 -1.5 0 -1 1.1 -1.5 3.5 -1.5 3.3 0 3.5 0.2 3.5 3.5 0 3.3 -0.2 3.5 -3.5 3.5 -2.4 0 -3.5 0.5 -3.5 1.5 0 1 -1.1 1.5 -3.5 1.5 -3.3 0 -3.5 -0.2 -3.5 -3.5z"/>
  <path d="M1158 449.5 c0 -3.3 0.2 -3.5 3.5 -3.5 2.4 0 3.5 -0.5 3.5 -1.5 0 -1 1.1 -1.5 3.5 -1.5 3.3 0 3.5 0.2 3.5 3.5 0 3.3 -0.2 3.5 -3.5 3.5 -2.4 0 -3.5 0.5 -3.5 1.5 0 1 -1.1 1.5 -3.5 1.5 -3.3 0 -3.5 -0.2 -3.5 -3.5z"/>
  <path d="M1174 442.5 c0 -3.3 0.2 -3.5 3.5 -3.5 2.4 0 3.5 -0.5 3.5 -1.5 0 -1 1.1 -1.5 3.5 -1.5 3.3 0 3.5 0.2 3.5 3.5 0 3.3 -0.2 3.5 -3.5 3.5 -2.4 0 -3.5 0.5 -3.5 1.5 0 1 -1.1 1.5 -3.5 1.5 -3.3 0 -3.5 -0.2 -3.5 -3.5z"/>
  <path d="M1190 435.5 c0 -3.3 0.2 -3.5 3.5 -3.5 2.4 0 3.5 -0.5 3.5 -1.5 0 -1 1.1 -1.5 3.5 -1.5 3.3 0 3.5 0.2 3.5 3.5 0 3.3 -0.2 3.5 -3.5 3.5 -2.4 0 -3.5 0.5 -3.5 1.5 0 1 -1.1 1.5 -3.5 1.5 -3.3 0 -3.5 -0.2 -3.5 -3.5z"/>
  <path d="M513.7 436.3 c-3.2 -0.4 -3.6 -0.7 -2.7 -1.8 0.7 -0.8 1 -3.6 0.8 -6.6 l-0.3 -5.1 3.5 0.5 c1.9 0.3 6.5 1.9 10.3 3.6 6.4 3 6.7 3.3 6.7 6.6 l0 3.5 -7.2 -0.2 c-4 -0.1 -9 -0.3 -11.1 -0.5z"/>
  <path d="M1217 432.3 c-0.8 -0.3 -1.9 -1.1 -2.3 -1.7 -0.6 -0.8 -1 -0.7 -1.4 0.2 -0.2 0.6 -2 1.2 -3.9 1.2 -3.2 0 -3.4 -0.2 -3.4 -3.5 0 -3.1 0.3 -3.5 2.5 -3.5 1.4 0 2.5 -0.4 2.5 -1 0 -0.5 1.6 -1 3.5 -1 1.9 0 3.5 0.4 3.5 0.9 0 0.5 1.6 1.2 3.5 1.5 3.2 0.6 3.5 1 3.5 4.1 0 3.3 -0.2 3.5 -3.2 3.4 -1.8 0 -4 -0.3 -4.8 -0.6z"/>
  <path d="M1226 429.6 c0 -3.1 0.3 -3.5 4.5 -4.7 2.5 -0.7 4.5 -1.9 4.5 -2.6 0 -0.8 1.3 -1.3 3.5 -1.3 3.3 0 3.5 0.2 3.5 3.5 0 2.8 -0.4 3.5 -2 3.5 -1.1 0 -2 0.6 -2 1.4 0 1.6 -5 3.6 -9.1 3.6 -2.6 0 -2.9 -0.3 -2.9 -3.4z"/>
  <path d="M1247 410.5 c0 -3.3 0.2 -3.5 3.5 -3.5 2.4 0 3.5 -0.5 3.5 -1.5 0 -1 1.1 -1.5 3.5 -1.5 3.3 0 3.5 0.2 3.5 3.5 0 3.3 -0.2 3.5 -3.5 3.5 -2.4 0 -3.5 0.5 -3.5 1.5 0 1 -1.1 1.5 -3.5 1.5 -3.3 0 -3.5 -0.2 -3.5 -3.5z"/>
  <path d="M1263 403.5 c0 -3.3 0.2 -3.5 3.5 -3.5 2.4 0 3.5 -0.5 3.5 -1.5 0 -1 1.1 -1.5 3.5 -1.5 3.3 0 3.5 0.2 3.5 3.5 0 3.3 -0.2 3.5 -3.5 3.5 -2.4 0 -3.5 0.5 -3.5 1.5 0 1 -1.1 1.5 -3.5 1.5 -3.3 0 -3.5 -0.2 -3.5 -3.5z"/>
  <path d="M1286 393.5 c0 -3.3 0.2 -3.5 3.5 -3.5 2.4 0 3.5 -0.5 3.5 -1.5 0 -1 1.1 -1.5 3.5 -1.5 3.3 0 3.5 0.2 3.5 3.5 0 3.3 -0.2 3.5 -3.5 3.5 -2.4 0 -3.5 0.5 -3.5 1.5 0 1 -1.1 1.5 -3.5 1.5 -3.3 0 -3.5 -0.2 -3.5 -3.5z"/>
  <path d="M1302 386.5 c0 -3.3 0.2 -3.5 3.5 -3.5 3.3 0 3.5 0.2 3.5 3.5 0 3.3 -0.2 3.5 -3.5 3.5 -3.3 0 -3.5 -0.2 -3.5 -3.5z"/>
  <path d="M1311 382.5 c0 -3.3 0.2 -3.5 3.5 -3.5 2.4 0 3.5 -0.5 3.5 -1.5 0 -1 1.1 -1.5 3.5 -1.5 3.3 0 3.5 0.2 3.5 3.5 0 3.3 -0.2 3.5 -3.5 3.5 -2.4 0 -3.5 0.5 -3.5 1.5 0 1 -1.1 1.5 -3.5 1.5 -3.3 0 -3.5 -0.2 -3.5 -3.5z"/>
  <path d="M1334 372.5 c0 -3.3 0.2 -3.5 3.5 -3.5 3.3 0 3.5 0.2 3.5 3.5 0 3.3 -0.2 3.5 -3.5 3.5 -3.3 0 -3.5 -0.2 -3.5 -3.5z"/>
  <path d="M519.1 368.4 c-9.7 -3.9 -9.7 -3.9 -8.3 -5.7 0.7 -0.8 1.5 -10.3 2.1 -24.3 0.8 -18.7 1.3 -24.1 3 -29.2 1.2 -3.5 1.9 -6.8 1.5 -7.3 -0.3 -0.5 0.3 -0.9 1.4 -0.9 1.1 0 4.9 2.3 8.6 5.1 l6.6 5.1 0 8.7 c0 4.7 0.3 18.4 0.7 30.4 l0.6 21.7 -3.9 -0.1 c-2.1 -0.1 -7.7 -1.6 -12.3 -3.5z"/>
  <path d="M1350 365.5 c0 -3.3 0.2 -3.5 3.5 -3.5 2.4 0 3.5 -0.5 3.5 -1.5 0 -1 1.1 -1.5 3.5 -1.5 3.3 0 3.5 0.2 3.5 3.5 0 3.3 -0.2 3.5 -3.5 3.5 -2.4 0 -3.5 0.5 -3.5 1.5 0 1 -1.1 1.5 -3.5 1.5 -3.3 0 -3.5 -0.2 -3.5 -3.5z"/>
  <path d="M1366 358.5 c0 -3.3 0.2 -3.5 3.5 -3.5 2.4 0 3.5 -0.5 3.5 -1.5 0 -1 1.1 -1.5 3.5 -1.5 3.3 0 3.5 0.2 3.5 3.5 0 3.3 -0.2 3.5 -3.5 3.5 -2.4 0 -3.5 0.5 -3.5 1.5 0 1 -1.1 1.5 -3.5 1.5 -3.3 0 -3.5 -0.2 -3.5 -3.5z"/>
  <path d="M1382 351.5 c0 -3.3 0.2 -3.5 3.5 -3.5 2.4 0 3.5 -0.5 3.5 -1.5 0 -1 1.1 -1.5 3.5 -1.5 3.3 0 3.5 0.2 3.5 3.5 0 3.3 -0.2 3.5 -3.5 3.5 -2.4 0 -3.5 0.5 -3.5 1.5 0 1 -1.1 1.5 -3.5 1.5 -3.3 0 -3.5 -0.2 -3.5 -3.5z"/>
  <path d="M1398 344.5 c0 -3.1 0.3 -3.5 2.5 -3.5 1.4 0 2.5 -0.4 2.5 -1 0 -0.5 1.6 -1 3.5 -1 3.3 0 3.5 0.2 3.5 3.5 0 3.1 -0.3 3.5 -2.5 3.5 -1.4 0 -2.5 0.5 -2.5 1 0 0.6 -1.6 1 -3.5 1 -3.3 0 -3.5 -0.2 -3.5 -3.5z"/>
  <path d="M1414.8 346.3 c-1.3 -0.3 -1.8 -1.5 -1.8 -3.9 0 -3 0.3 -3.4 2.8 -3.4 5.7 0 7.2 1 7.2 4.6 0 3.2 -0.2 3.4 -3.2 3.3 -1.8 -0.1 -4.1 -0.3 -5 -0.6z"/>
  <path d="M1428 343.5 c0 -3.5 0 -3.5 4.5 -3.5 4.5 0 4.5 0 4.5 3.5 0 3.5 0 3.5 -4.5 3.5 -4.5 0 -4.5 0 -4.5 -3.5z"/>
  <path d="M1208.6 331.3 c-1.7 -0.5 -1.8 -1.4 -1.4 -14.4 0.4 -13.6 1.1 -16.7 2.8 -14 0.6 1 4.2 1.5 13.4 1.9 10.5 0.4 12.9 0.2 15.1 -1.2 2.5 -1.6 2.5 -1.6 2.5 1.3 0 2.6 -7.2 22.5 -9.3 25.9 -0.8 1.2 -18.7 1.6 -23.1 0.5z"/>
  <path d="M1060 328.9 c-20.6 -0.4 -65.4 -1.2 -99.5 -1.8 -129.9 -2.4 -160.8 -3.1 -161.3 -3.6 -0.6 -0.6 1.7 -26.5 2.5 -27.7 0.2 -0.4 1.4 -0.2 2.6 0.6 1.8 1.1 17.2 1.6 77.2 2.5 41.3 0.6 116.8 1.8 167.9 2.7 87.5 1.5 93.1 1.5 94.2 -0.1 2.6 -3.6 3.4 -0.4 3.4 14.1 l0 14.4 -24.7 -0.2 c-13.7 -0.1 -41.7 -0.5 -62.3 -0.9z"/>
  <path d="M740 320.5 c-0.6 -1.5 -1 -2.8 -1 -3.1 0 -0.2 -1.6 -4.5 -3.5 -9.4 -3.9 -10 -4.7 -15.2 -1.8 -12.9 2.4 2.1 29 2 30.4 -0.1 1.7 -2.5 0.3 6.4 -2.8 17.5 l-2.8 10 -8.8 0.3 c-8.6 0.3 -8.7 0.2 -9.7 -2.3z"/>
  <path d="M645.9 321 l-16.6 -0.5 -5.4 -3.4 c-3 -1.9 -11.4 -7 -18.6 -11.4 -9.5 -5.7 -13.3 -8.5 -13.3 -9.8 0 -2.3 -3.6 -2.2 60.7 -0.9 25.5 0.5 46.9 0.7 47.8 0.4 0.8 -0.3 1.2 -1 0.9 -1.5 -0.3 -0.5 0.1 -0.9 0.9 -0.9 1.5 0 1.8 2.1 3.3 20.8 l0.7 8.2 -21.9 -0.2 c-12.1 -0.1 -29.4 -0.5 -38.5 -0.8z"/>
  <path d="M1171.6 313.8 c-1.4 -3.5 -2.6 -7.6 -2.6 -9.1 0 -2.4 0.2 -2.6 1.9 -1.7 3 1.5 9.2 1.2 11.3 -0.7 1.7 -1.5 1.8 -1.4 1.8 2.4 0 2.2 -0.4 5.3 -0.9 6.9 -0.5 1.6 -1.2 4.1 -1.5 5.7 -0.5 2.3 -1.1 2.7 -4 2.7 -3.1 0 -3.5 -0.4 -6 -6.2z"/>
 </g>
 <g fill="#afedfc">
  <path d="M1478 1666.5 c0 -29.7 0.2 -35.5 1.4 -35.5 0.8 0 1.7 1.1 2 2.5 0.4 1.4 0.6 17.4 0.6 35.5 -0.1 32 -0.2 33 -2 33 -1.9 0 -2 -1 -2 -35.5z"/>
  <path d="M1477 1547.5 c0 -25.3 0.2 -30.5 1.4 -30.5 0.7 0 1.6 1 2 2.3 0.3 1.2 0.6 14.9 0.6 30.5 0 27.5 0 28.2 -2 28.2 -2 0 -2 -0.7 -2 -30.5z"/>
  <path d="M1476 1398.5 c0 -22.7 0.2 -27.5 1.4 -27.5 2.3 0 2.6 3.4 2.6 29.8 0 24.5 -0.1 25.2 -2 25.2 -2 0 -2 -0.7 -2 -27.5z"/>
  <path d="M1475 1255 c0 -33.4 0.2 -40 1.4 -40 0.7 0 1.6 1 2 2.3 0.3 1.2 0.6 19.2 0.6 40 0 37 0 37.7 -2 37.7 -2 0 -2 -0.7 -2 -40z"/>
  <path d="M1474 1074 c0 -37.6 0.2 -45 1.4 -45 0.7 0 1.6 1 2 2.3 0.3 1.2 0.6 21.4 0.6 45 0 42 0 42.7 -2 42.7 -2 0 -2 -0.7 -2 -45z"/>
  <path d="M893.7 1116 c-2.7 -0.5 -9.8 -2.4 -15.8 -4.2 l-10.9 -3.3 -2.2 -5.5 c-2 -4.8 -2.2 -7.4 -2.3 -21 0 -15.5 0 -15.5 3.4 -23.5 2.8 -6.6 4.8 -9.3 11 -15.6 12.5 -12.4 22 -15.8 45.8 -15.8 l11.2 -0.1 2.9 3.8 c4.1 5.2 12.6 20.4 15.8 28.2 2.2 5.4 2.5 7.6 2.2 14.1 -0.3 6.7 -0.9 8.7 -5 17 -2.8 5.7 -6.8 11.8 -10.3 15.6 -7.7 8.5 -12.9 10.4 -29 10.9 -6.6 0.1 -14.2 -0.1 -16.8 -0.6z m-13.1 -71.2 l2.9 -3.3 -3.2 2.9 c-3.1 2.8 -3.8 3.6 -3 3.6 0.2 0 1.6 -1.5 3.3 -3.2z"/>
  <path d="M1473 897.5 c0 -25.3 0.2 -30.5 1.4 -30.5 0.7 0 1.6 1 2 2.3 0.3 1.2 0.6 14.9 0.6 30.5 0 27.5 0 28.2 -2 28.2 -2 0 -2 -0.7 -2 -30.5z"/>
  <path d="M1472 701.5 c0 -33 0.2 -39.5 1.4 -39.5 0.7 0 1.6 1 2 2.3 0.3 1.2 0.6 19 0.6 39.5 0 36.5 0 37.2 -2 37.2 -2 0 -2 -0.7 -2 -39.5z"/>
  <path d="M1471 547 c0 -26.6 0.2 -32 1.4 -32 0.7 0 1.6 1 2 2.3 0.3 1.2 0.6 15.6 0.6 32 0 29 0 29.7 -2 29.7 -2 0 -2 -0.7 -2 -32z"/>
  <path d="M1470 393.5 c0 -23.6 0.2 -28.5 1.4 -28.5 2.3 0 2.6 3.4 2.6 30.8 0 25.5 -0.1 26.2 -2 26.2 -2 0 -2 -0.7 -2 -28.5z"/>
 </g>
 <g fill="#97c9d6">
  <path d="M1412 1706.9 c-2.5 -1.1 -21.8 -7 -43 -13 -21.2 -6.1 -80.3 -23.1 -131.5 -37.9 -51.1 -14.8 -119.1 -34.4 -151 -43.6 -31.9 -9.2 -58.1 -17.1 -58.3 -17.5 -0.2 -0.5 -1.4 -0.9 -2.8 -0.9 -3.4 0 -11.4 -2.3 -11.4 -3.2 0 -0.4 -1.2 -0.8 -2.6 -0.8 -1.4 0 -12.8 -3 -25.2 -6.6 -60.2 -17.4 -75.2 -22.2 -75.2 -24 0 -0.9 -1.1 -1.4 -3 -1.4 -2.3 0 -3 -0.4 -3 -2 0 -1.3 -0.7 -2 -1.9 -2 -2.1 0 -3.1 -1.9 -3.1 -6.1 0 -2.7 0.3 -2.9 3.5 -2.9 3.1 0 3.6 0.3 4.2 3 0.4 2.1 1.1 3 2.4 3 1.1 0 1.9 0.7 1.9 1.5 0 0.9 0.9 1.5 2.5 1.5 1.4 0 4.2 0.7 6.2 1.5 3.8 1.6 36.7 11.5 71.3 21.6 11.8 3.4 21.7 6.6 21.8 7 0.2 0.5 1.5 0.9 2.8 0.9 3.7 0 11.4 2.1 11.4 3.1 0 0.5 1.2 0.9 2.6 0.9 2.1 0 57.3 15.7 163.9 46.5 57.6 16.7 117.8 34 166.8 48.1 29.6 8.5 55.2 16.1 56.8 16.9 2.3 1.3 5 1.4 13.4 0.9 l10.5 -0.7 0 3.5 0 3.5 -9.7 0.6 c-14 1 -15.3 0.9 -20.3 -1.4z"/>
  <path d="M1446 1703.5 c0 -3.5 0 -3.5 4.5 -3.5 4.5 0 4.5 0 4.5 3.5 0 3.5 0 3.5 -4.5 3.5 -4.5 0 -4.5 0 -4.5 -3.5z"/>
  <path d="M1456 1702.8 l0 -3.4 9.3 -1.3 c5 -0.7 10.6 -1.5 12.3 -1.8 2.8 -0.4 3.2 -0.2 3.7 2.4 0.3 1.5 0.3 3.1 0.1 3.5 -0.6 0.9 -9.5 2.6 -18.1 3.4 l-7.3 0.7 0 -3.5z"/>
  <path d="M1477 1592.5 c0 -16.8 0.3 -20.5 1.4 -20.5 2.2 0 2.6 3.4 2.6 22.8 0 17.5 -0.1 18.2 -2 18.2 -1.9 0 -2 -0.7 -2 -20.5z"/>
  <path d="M899 1448 l0 -27 3.5 0 3.5 0 0 27 c0 22.7 -0.2 27 -1.4 27 -0.8 0 -1.7 -0.8 -1.9 -1.7 -0.4 -1.7 -0.5 -1.7 -0.6 0 0 0.9 -0.8 1.7 -1.6 1.7 -1.3 0 -1.5 -3.7 -1.5 -27z"/>
  <path d="M1476 1440 c0 -16.4 0.3 -20 1.4 -20 2.2 0 2.6 3.4 2.6 22.3 0 17 -0.1 17.7 -2 17.7 -1.9 0 -2 -0.7 -2 -20z"/>
  <path d="M1475 1316 c0 -22.3 0.2 -27 1.4 -27 2.3 0 2.6 3.4 2.6 29.3 0 24 -0.1 24.7 -2 24.7 -2 0 -2 -0.7 -2 -27z"/>
  <path d="M898 1282.5 l0 -31.5 3.5 0 3.5 0 0 31.5 c0 26.6 -0.2 31.5 -1.4 31.5 -0.8 0 -1.7 -0.8 -1.9 -1.7 -0.4 -1.7 -0.5 -1.7 -0.6 0 0 0.9 -0.8 1.7 -1.6 1.7 -1.3 0 -1.5 -4.2 -1.5 -31.5z"/>
  <path d="M1474 1137 c0 -19.8 0.2 -24 1.4 -24 2.2 0 2.6 3.4 2.6 26.3 0 21 -0.1 21.7 -2 21.7 -1.9 0 -2 -0.7 -2 -24z"/>
  <path d="M903.8 1137.3 c-2 -0.3 -2.8 -1 -2.9 -2.6 -0.1 -1.7 -0.2 -1.8 -0.6 -0.4 -0.6 2.2 -0.9 2.2 -7.4 -0.9 -7.9 -3.8 -15.3 -9.8 -20.4 -16.6 -3.7 -4.9 -4.5 -6.8 -4.5 -10.1 0.1 -3.5 0.3 -3.9 1.3 -2.7 1.5 1.9 19.6 7.6 28.7 9.1 8.5 1.4 20.3 0.5 27.3 -2.1 7.7 -2.9 15.3 -11.4 21.5 -23.9 4.1 -8.1 4.7 -10.3 4.7 -15.5 0 -5.4 -0.6 -7.4 -5.2 -16.6 -6.4 -12.9 -13.2 -23.2 -16.1 -24.5 -3.4 -1.5 -2.7 -3.5 1.3 -3.5 7.5 0 22 8.1 28.9 16.2 4.9 5.7 8 11.1 10.7 18.8 3 8.6 3.3 29.6 0.5 37.5 -3.7 10.3 -7.2 16.1 -13.7 22.6 -7.3 7.3 -17.2 12.8 -26.7 14.8 -5 1 -21.6 1.3 -27.4 0.4z"/>
  <path d="M897 1025.6 l0 -7.6 3.5 0 3.5 0 0 4.8 0 4.7 11.5 -0.3 c9.7 -0.3 11.5 -0.1 11.5 1.2 0 1.8 -5.8 3.1 -9.4 2.2 -2.3 -0.6 -13.4 0.6 -18.3 2 -2.2 0.6 -2.3 0.4 -2.3 -7z"/>
  <path d="M1473 955.5 c0 -27.9 0.2 -33.5 1.4 -33.5 0.7 0 1.6 1 2 2.3 0.3 1.2 0.6 16.3 0.6 33.5 0 30.5 0 31.2 -2 31.2 -2 0 -2 -0.7 -2 -33.5z"/>
  <path d="M896 879 l0 -42 3.5 0 3.5 0 0 42 c0 35.7 -0.2 42 -1.4 42 -0.8 0 -1.7 -0.8 -1.9 -1.7 -0.4 -1.7 -0.5 -1.7 -0.6 0 0 0.9 -0.8 1.7 -1.6 1.7 -1.3 0 -1.5 -5.3 -1.5 -42z"/>
  <path d="M1472 759 c0 -19.8 0.2 -24 1.4 -24 2.2 0 2.6 3.4 2.6 26.3 0 21 -0.1 21.7 -2 21.7 -1.9 0 -2 -0.7 -2 -24z"/>
  <path d="M1471 598 c0 -20.6 0.2 -25 1.4 -25 2.2 0 2.6 3.4 2.6 27.3 0 22 -0.1 22.7 -2 22.7 -1.9 0 -2 -0.7 -2 -25z"/>
  <path d="M896.3 581.7 c0.7 -11.2 2.1 -16.7 4.3 -16.7 0.8 0 1.4 -0.6 1.4 -1.2 0.1 -1.3 6.3 -5.8 8.1 -5.8 0.5 0 0.9 -0.4 0.9 -1 0 -0.5 0.6 -1 1.4 -1 0.8 0 1.6 -0.4 1.8 -0.9 0.4 -1.2 5.7 -3.6 60.2 -27.7 24.2 -10.7 44.7 -19.4 45.7 -19.4 0.9 0 1.9 -0.4 2.1 -0.9 0.2 -0.5 42.5 -19.4 94.1 -42 99.9 -43.8 98.3 -43.2 105.6 -39.5 5.7 2.8 11.7 -0.5 18 -10.1 1.4 -2.2 3.3 -4.7 4.1 -5.6 0.8 -0.8 36.8 -17 80 -35.9 69.5 -30.4 79.2 -34.4 84.7 -34.8 3.5 -0.2 7.8 -0.1 9.8 0.2 3.2 0.6 3.5 1 3.5 4.3 l0 3.5 -6.3 -0.6 c-5.8 -0.7 -6.8 -0.4 -15.2 3.3 -5 2.1 -36 15.7 -69 30.1 -61 26.6 -73.5 32.1 -79.2 34.7 -1.7 0.8 -3.7 2.7 -4.3 4.4 -1.5 3.5 -8.1 10.9 -9.8 10.9 -0.6 0 -1.2 0.4 -1.2 0.9 0 1.1 -7.9 3.1 -12.6 3.1 -2 0 -5.4 -0.5 -7.4 -1.1 -3.6 -1.1 -4.6 -0.8 -22.2 6.9 -131.4 57.6 -167.4 73.2 -168.9 73.2 -0.9 0 -1.9 0.4 -2.1 1 -0.1 0.5 -16 7.8 -35.3 16.3 -52 22.9 -70 31 -70.3 31.9 -0.2 0.4 -0.9 0.8 -1.5 0.8 -0.7 0 -1.8 0.9 -2.4 1.9 -0.7 1.1 -2.8 2.5 -4.7 3.2 -2.8 1 -3.7 2 -5 6.2 -0.9 2.7 -1.6 7.8 -1.6 11.3 l0 6.4 -3.7 0 -3.6 0 0.6 -10.3z"/>
  <path d="M1470 437.5 c0 -19.3 0.2 -23.5 1.4 -23.5 2.2 0 2.4 2.8 2.6 25.6 0.1 20.9 0 21.4 -2 21.4 -2 0 -2 -0.5 -2 -23.5z"/>
  <path d="M1469 347 c0 -6.3 0.2 -7 2 -7 1.8 0 2 0.7 2 7 0 6.3 -0.2 7 -2 7 -1.8 0 -2 -0.7 -2 -7z"/>
  <path d="M1431 345.6 c0 -0.8 0.8 -1.7 1.8 -1.9 1.6 -0.4 1.6 -0.5 0 -0.6 -1 0 -1.8 -0.8 -1.8 -1.6 0 -1.2 1.6 -1.5 8.5 -1.5 l8.5 0 0 3.5 0 3.5 -8.5 0 c-6.7 0 -8.5 -0.3 -8.5 -1.4z"/>
 </g>
 <g fill="#f9e941">
  <path d="M536.7 1740.3 c-0.4 -0.3 -0.7 -3.7 -0.7 -7.5 0 -6.1 0.2 -6.8 2 -6.8 1.8 0 2 0.7 2 5.5 0 4.2 0.3 5.5 1.5 5.5 2.4 0 1.8 2.7 -0.7 3.4 -2.9 0.7 -3.3 0.7 -4.1 -0.1z"/>
  <path d="M546 1738 c0 -1.9 0.7 -2 23.5 -2 19.3 0 23.5 0.2 23.5 1.4 0 2.2 -3.4 2.6 -25.7 2.6 -20.6 0 -21.3 -0.1 -21.3 -2z"/>
  <path d="M597 1737 c0 -1.9 0.7 -2 17 -2 13.8 0 17 0.3 17 1.4 0 2.1 -3.3 2.6 -19.2 2.6 -14.1 0 -14.8 -0.1 -14.8 -2z"/>
  <path d="M633 1736 c0 -1.9 0.7 -2 19.5 -2 15.9 0 19.5 0.3 19.5 1.4 0 2.2 -3.3 2.6 -21.7 2.6 -16.6 0 -17.3 -0.1 -17.3 -2z"/>
  <path d="M677 1735.3 c0 -1.9 1.1 -2 26.3 -2.6 41.4 -1.1 49.7 -0.9 49.7 0.7 0 0.8 -1.2 1.7 -2.7 2 -1.6 0.2 -18.7 0.8 -38 1.1 -34.5 0.7 -35.3 0.7 -35.3 -1.2z"/>
  <path d="M765 1733 c0 -1.9 0.7 -2 16 -2 13 0 16 0.3 16 1.4 0 2.1 -3.3 2.6 -18.2 2.6 -13.1 0 -13.8 -0.1 -13.8 -2z"/>
  <path d="M804 1732 c0 -1.9 0.7 -2 17 -2 13.8 0 17 0.3 17 1.4 0 2.1 -3.3 2.6 -19.2 2.6 -14.1 0 -14.8 -0.1 -14.8 -2z"/>
  <path d="M849 1731 c0 -1.9 0.7 -2 12 -2 9.6 0 12 0.3 12 1.4 0 2 -3.2 2.6 -14.2 2.6 -9.1 0 -9.8 -0.1 -9.8 -2z"/>
  <path d="M887 1730 c0 -1.9 0.7 -2 15 -2 12.1 0 15 0.3 15 1.4 0 2.1 -3.3 2.6 -17.2 2.6 -12.1 0 -12.8 -0.1 -12.8 -2z"/>
  <path d="M928 1729 c0 -1.9 0.7 -2 12.5 -2 10 0 12.5 0.3 12.5 1.4 0 2 -3.2 2.6 -14.7 2.6 -9.6 0 -10.3 -0.1 -10.3 -2z"/>
  <path d="M965 1728 c0 -1.9 0.7 -2 14 -2 11.3 0 14 0.3 14 1.4 0 2 -3.3 2.6 -16.2 2.6 -11.1 0 -11.8 -0.1 -11.8 -2z"/>
  <path d="M1003 1727 c0 -1.9 0.7 -2 14 -2 11.3 0 14 0.3 14 1.4 0 2 -3.3 2.6 -16.2 2.6 -11.1 0 -11.8 -0.1 -11.8 -2z"/>
  <path d="M1045 1726 c0 -1.9 0.7 -2 16 -2 13 0 16 0.3 16 1.4 0 2.1 -3.3 2.6 -18.2 2.6 -13.1 0 -13.8 -0.1 -13.8 -2z"/>
  <path d="M1088 1725 c0 -1.9 0.7 -2 15.5 -2 12.5 0 15.5 0.3 15.5 1.4 0 2.1 -3.3 2.6 -17.7 2.6 -12.6 0 -13.3 -0.1 -13.3 -2z"/>
  <path d="M1129 1724 c0 -1.9 0.7 -2 16 -2 13 0 16 0.3 16 1.4 0 2.1 -3.3 2.6 -18.2 2.6 -13.1 0 -13.8 -0.1 -13.8 -2z"/>
  <path d="M1171 1723 c0 -1.9 0.7 -2 14 -2 11.3 0 14 0.3 14 1.4 0 2 -3.3 2.6 -16.2 2.6 -11.1 0 -11.8 -0.1 -11.8 -2z"/>
  <path d="M1209 1722 c0 -1.9 0.7 -2 14.5 -2 11.7 0 14.5 0.3 14.5 1.4 0 2.1 -3.3 2.6 -16.7 2.6 -11.6 0 -12.3 -0.1 -12.3 -2z"/>
  <path d="M1247 1721 c0 -1.9 0.7 -2 15 -2 12.1 0 15 0.3 15 1.4 0 2.1 -3.3 2.6 -17.2 2.6 -12.1 0 -12.8 -0.1 -12.8 -2z"/>
  <path d="M1286 1720 c0 -1.9 0.7 -2 16 -2 13 0 16 0.3 16 1.4 0 2.1 -3.3 2.6 -18.2 2.6 -13.1 0 -13.8 -0.1 -13.8 -2z"/>
  <path d="M1327 1719 c0 -1.9 0.7 -2 15 -2 12.1 0 15 0.3 15 1.4 0 2.1 -3.3 2.6 -17.2 2.6 -12.1 0 -12.8 -0.1 -12.8 -2z"/>
  <path d="M1366 1718 c0 -1.9 0.7 -2 17 -2 13.8 0 17 0.3 17 1.4 0 2.1 -3.3 2.6 -19.2 2.6 -14.1 0 -14.8 -0.1 -14.8 -2z"/>
  <path d="M1411 1717 c0 -1.9 0.7 -2 15.5 -2 12.5 0 15.5 0.3 15.5 1.4 0 2.1 -3.3 2.6 -17.7 2.6 -12.6 0 -13.3 -0.1 -13.3 -2z"/>
  <path d="M1451 1716 c0 -1.9 0.7 -2 13.5 -2 l13.5 0 0.1 -7.2 c0.1 -4 0.1 -7.9 0 -8.5 -0.1 -0.7 0.5 -1.3 1.4 -1.3 0.8 0 1.5 0.3 1.6 0.8 0.9 12.5 0.9 17.5 -0.2 18.8 -0.9 1.1 -4.3 1.4 -15.5 1.4 -13.7 0 -14.4 -0.1 -14.4 -2z"/>
  <path d="M1411.3 1707.8 c-2.5 -1.2 -3.3 -5.8 -1 -5.8 0.8 0 0.7 -0.4 -0.3 -1 -2.2 -1.4 4.2 -1.3 7.4 0.1 1.8 0.9 2.4 1.9 2.4 4.5 0 3.2 -0.2 3.4 -3.1 3.3 -1.8 0 -4.2 -0.5 -5.4 -1.1z"/>
  <path d="M1435 1707.1 c0 -1.4 0.8 -2.1 2.8 -2.4 l2.7 -0.4 -2.7 -0.2 c-4.9 -0.2 -3 -2.1 2.2 -2.1 l5 0 0 3.5 0 3.5 -5 0 c-4.3 0 -5 -0.3 -5 -1.9z"/>
  <path d="M536 1671.5 c0 -28.3 -0.2 -31.5 -1.6 -31.5 -0.9 0 -5.5 1.5 -10.3 3.4 -4.7 1.9 -9.4 3.4 -10.3 3.3 -3.5 -0.1 -1.7 -3.2 3.1 -5.3 l4.8 -2.1 -0.3 -22.9 c-0.2 -12.6 -0.3 -29 -0.3 -36.5 l-0.1 -13.7 -4.6 0.6 c-4.4 0.5 -4.5 0.4 -3.3 -1.6 0.8 -1.3 4.8 -3.1 11.5 -5.3 l10.2 -3.3 0.5 -4.9 c0.9 -7.1 0.4 -7.7 -6.2 -7.7 -9.4 0 -10.1 -0.4 -9.5 -5.9 0.2 -2.5 0.6 -11.7 0.7 -20.4 l0.2 -15.7 -3.2 0 c-2.2 0 -3.3 -0.5 -3.3 -1.5 0 -1.5 2.4 -2.1 13.5 -3.3 l7 -0.7 0.3 -147.2 c0.1 -88.7 -0.2 -147.3 -0.7 -147.3 -0.5 0 -5.5 1.1 -11 2.4 -5.7 1.3 -10.4 2 -10.7 1.5 -0.3 -0.5 -1 -0.7 -1.5 -0.4 -0.5 0.4 -0.9 -0.1 -0.9 -0.9 0 -0.9 1.4 -1.9 3.2 -2.4 l3.3 -0.8 0 -49.4 0 -49.3 -3.2 -1.5 c-3.7 -1.7 -4.3 -3.8 -1.5 -4.6 1.7 -0.6 7.2 1.5 17.6 6.5 2.2 1 4.3 1.9 4.7 1.9 0.3 0 0.4 -75.4 0.1 -167.5 l-0.5 -167.5 2.2 0 2.1 0 0.3 115.8 c0.3 159.6 0.9 216 2.2 218.1 0.3 0.6 0.8 52.1 1.1 114.4 0.4 107.6 0.7 137.1 1.9 197.2 0.9 43.1 1.4 80.8 1.9 146.5 0.3 34.4 0.8 75.1 1.1 90.5 0.3 15.4 0.5 30.1 0.5 32.8 0 4.6 0.1 4.7 3 4.7 2.7 0 3 0.3 3 3.3 0 3 -0.4 3.5 -5 5.5 -2.8 1.2 -5.5 2.2 -6 2.2 -0.6 0 -1 0.5 -1 1 0 0.6 -1.1 1 -2.5 1 l-2.5 0 0 -31.5z"/>
  <path d="M1388.8 1701.3 c-1.3 -0.3 -1.8 -1.5 -1.8 -3.9 0 -3.7 0.8 -4 8.2 -2.8 3.3 0.6 3.6 0.9 3.6 4 0 3.3 -0.1 3.4 -4.1 3.3 -2.3 -0.1 -5 -0.3 -5.9 -0.6z"/>
  <path d="M1362 1693 c0 -0.5 -1.6 -1 -3.5 -1 -1.9 0 -3.5 -0.4 -3.5 -1 0 -0.5 -1.1 -1 -2.5 -1 -1.4 0 -2.5 -0.4 -2.5 -1 0 -0.5 -1.7 -1 -3.7 -1 -4.2 0 -18.6 -3.9 -19.1 -5.2 -0.2 -0.4 -1.9 -0.8 -3.8 -0.8 -1.9 0 -3.4 -0.4 -3.4 -1 0 -0.5 -1.6 -1 -3.5 -1 -1.9 0 -3.5 -0.4 -3.5 -1 0 -0.5 -1.1 -1 -2.5 -1 -3.4 0 -11.5 -2.2 -11.5 -3.2 0 -0.4 -1.2 -0.8 -2.6 -0.8 -3.7 0 -11.4 -2.1 -11.4 -3.1 0 -0.5 -1.1 -0.9 -2.5 -0.9 -3.2 0 -11.5 -2.2 -11.5 -3.1 0 -0.4 -2.5 -1 -5.5 -1.4 -3 -0.3 -6.1 -1.3 -6.9 -2.1 -0.8 -0.8 -2.8 -1.4 -4.5 -1.4 -1.7 0 -3.1 -0.4 -3.1 -1 0 -0.5 -1.4 -1 -3.2 -1 -1.7 0 -4.5 -0.4 -6.2 -0.9 -1.7 -0.5 -7.4 -2.2 -12.6 -3.6 -5.2 -1.5 -10.5 -3.1 -11.8 -3.6 -1.3 -0.5 -3.4 -0.9 -4.7 -0.9 -1.3 0 -2.6 -0.4 -2.9 -0.9 -0.3 -0.5 -1.8 -1.1 -3.3 -1.4 -1.6 -0.2 -6.2 -1.4 -10.3 -2.6 -10.9 -3.2 -12.4 -3.6 -24 -6.9 -5.8 -1.6 -19.9 -5.7 -31.5 -9.1 -11.5 -3.5 -23.2 -6.9 -26 -7.6 -2.7 -0.8 -9 -2.8 -14 -4.5 -4.9 -1.7 -10.2 -3.4 -11.7 -3.7 -1.6 -0.3 -2.8 -0.9 -2.8 -1.4 0 -0.5 -1.6 -0.9 -3.5 -0.9 -1.9 0 -3.5 -0.4 -3.5 -1 0 -0.5 -1.3 -1 -3 -1 -1.6 0 -3 -0.4 -3 -1 0 -0.5 -1.4 -1 -3 -1 -1.7 0 -4.8 -0.6 -7 -1.2 -3.7 -1.2 -4 -1.6 -3.8 -4.5 0.2 -2.6 0.6 -3.3 2.4 -3.3 4 0 12.9 2 13.2 3 0.2 0.6 1.5 1 2.8 1 1.3 0 2.4 0.5 2.4 1 0 0.6 1.4 1 3 1 1.7 0 3 0.4 3 0.9 0 0.4 2.8 1.1 6.1 1.5 3.4 0.3 6.7 1 7.3 1.4 0.6 0.5 3.6 1.4 6.6 2.1 3 0.7 6.4 1.7 7.5 2.2 1.1 0.5 4.7 1.5 8 2.3 3.3 0.8 9.2 2.4 13 3.6 3.9 1.2 10.1 3 14 4.1 3.8 1.1 7.4 2.4 7.9 2.9 0.6 0.6 1.8 1 2.9 1 1 0 3.9 0.6 6.5 1.4 8.8 2.7 17.7 5.4 23.7 7.1 3.3 0.9 6.8 2.1 7.7 2.6 1 0.5 2.7 0.9 3.8 0.9 1.1 0 4.6 0.8 7.7 1.9 3.2 1 7.8 2.4 10.3 3.1 2.5 0.6 5.3 1.6 6.2 2.1 1 0.5 2.5 0.9 3.5 0.9 0.9 0 4.2 0.8 7.2 1.9 3.1 1 7.7 2.4 10.4 3.1 2.6 0.7 4.7 1.7 4.7 2.1 0 0.5 1.6 0.9 3.5 0.9 1.9 0 3.5 0.5 3.5 1 0 0.6 2 1 4.4 1 2.5 0 4.8 0.5 5.1 1 0.3 0.6 1.5 1 2.6 1 1 0 1.9 0.5 1.9 1 0 0.6 1.6 1 3.5 1 1.9 0 4.7 0.5 6.2 1.2 3.7 1.6 3.9 1.8 2.6 2.6 -0.6 0.4 1.4 0.8 4.5 0.8 6.8 0.2 12.2 1.3 12.2 2.5 0 0.5 1.2 0.9 2.6 0.9 3.7 0 11.4 2.1 11.4 3.1 0 0.5 1.6 0.9 3.5 0.9 1.9 0 3.5 0.4 3.5 0.9 0 0.4 2.6 1.1 5.7 1.5 3.1 0.4 6.2 1.1 6.8 1.6 0.6 0.5 4.3 1.6 8.1 2.4 3.7 0.8 7 1.9 7.2 2.5 0.2 0.6 1.9 1.1 3.8 1.1 1.9 0 3.4 0.5 3.4 1 0 0.6 1.4 1 3 1 1.7 0 3 0.5 3 1 0 0.6 1.6 1 3.5 1 3.3 0 3.5 0.2 3.5 3.5 0 3.4 -0.1 3.5 -4 3.5 -2.2 0 -4 -0.4 -4 -1z"/>
  <path d="M558 1687.5 c0 -3.3 0.2 -3.5 3.5 -3.5 3.3 0 3.5 0.2 3.5 3.5 0 3.3 -0.2 3.5 -3.5 3.5 -3.3 0 -3.5 -0.2 -3.5 -3.5z"/>
  <path d="M585 1673.5 c0 -3.3 0.2 -3.5 3.5 -3.5 3.3 0 3.5 0.2 3.5 3.5 0 3.3 -0.2 3.5 -3.5 3.5 -3.3 0 -3.5 -0.2 -3.5 -3.5z"/>
  <path d="M512.8 1608.9 c1.7 -1.8 1.5 -3.9 -0.3 -3.9 -0.8 0 -1.5 -0.7 -1.5 -1.5 0 -1.1 1.2 -1.5 4.6 -1.5 l4.5 0 -0.3 3.8 c-0.3 3.5 -0.5 3.7 -4.3 4 -3.2 0.3 -3.8 0.1 -2.7 -0.9z"/>
  <path d="M1051 1599.5 c0 -3.3 0.2 -3.5 3.5 -3.5 3.3 0 3.5 0.2 3.5 3.5 0 3.3 -0.2 3.5 -3.5 3.5 -3.3 0 -3.5 -0.2 -3.5 -3.5z"/>
  <path d="M740 1597.5 c0 -2.8 0.4 -3.5 2 -3.5 1.1 0 2 -0.4 2 -1 0 -0.5 1.6 -1 3.5 -1 3.3 0 3.5 0.2 3.5 3.5 0 2.8 -0.4 3.5 -2 3.5 -1.1 0 -2 0.5 -2 1 0 0.6 -1.6 1 -3.5 1 -3.3 0 -3.5 -0.2 -3.5 -3.5z"/>
  <path d="M905.2 1558.4 c-1.5 -1 -2.2 -2.5 -2.2 -4.7 0 -2.9 0.3 -3.3 3 -3.5 4.4 -0.3 7.9 2.6 8 6.6 0 3 -0.2 3.2 -3.3 3.2 -1.8 0 -4.3 -0.7 -5.5 -1.6z"/>
  <path d="M899 1507 c0 -12.3 0.3 -15 1.4 -15 0.8 0 1.7 0.8 1.9 1.8 0.4 1.6 0.5 1.6 0.6 0 0 -1 0.8 -1.8 1.6 -1.8 1.3 0 1.5 2.3 1.5 15 l0 15 -3.5 0 -3.5 0 0 -15z"/>
  <path d="M898 1376 l0 -34 3.5 0 3.5 0 0 34 0 34 -3.5 0 -3.5 0 0 -34z"/>
  <path d="M897 1196.1 l0 -60 -7.2 -3.8 c-9.3 -4.8 -18.6 -14.1 -22.7 -22.6 -5.2 -10.5 -6.4 -17.5 -5.7 -31.2 1.3 -26.5 3 -34.4 9.5 -44.7 3.6 -5.7 14 -14.5 20.3 -17.1 l4.8 -2 0 -27.8 0 -27.9 3.5 0 3.5 0 0 36.6 c0 31.4 -0.2 36.5 -1.4 36.1 -0.8 -0.3 -1.6 -0.3 -1.8 0.1 -0.2 0.4 -3.4 2.2 -7.2 4.1 -11.8 5.9 -20.7 16.2 -25.3 29.1 -2.8 8.1 -3.2 22.7 -0.7 31.1 4.1 13.9 14.5 26.8 26.5 32.8 4.1 2 6.6 4 7.1 5.4 0.6 2.2 0.6 2.2 0.7 -0.2 0.1 -2 0.3 -2.1 1.6 -1.1 1.3 1.1 1.5 9.2 1.5 62.1 0 55.3 -0.4 64.5 -2.3 59.7 -0.4 -1 -0.6 -1 -0.6 0 -0.1 0.6 -1 1.2 -2.1 1.2 -2 0 -2 -0.7 -2 -59.9z m3.7 -172.8 c-0.2 -1.6 -0.4 -0.5 -0.4 2.2 0 2.8 0.2 4 0.4 2.8 0.2 -1.3 0.2 -3.5 0 -5z"/>
  <path d="M896 953.5 c0 -3.3 0.2 -3.5 3.5 -3.5 3.3 0 3.5 0.2 3.5 3.5 0 3.3 -0.2 3.5 -3.5 3.5 -3.3 0 -3.5 -0.2 -3.5 -3.5z"/>
  <path d="M895 767 c0 -60 0.2 -70 1.4 -70 0.8 0 1.7 0.8 1.9 1.8 0.4 1.6 0.5 1.6 0.6 0 0 -1 0.8 -1.8 1.6 -1.8 1.3 0 1.5 8.4 1.5 70 l0 70 -3.5 0 -3.5 0 0 -70z"/>
  <path d="M533.6 665.8 c-0.3 -1.3 -0.6 -38.6 -0.6 -83 0 -80.1 0 -80.8 2 -80.8 2 0 2 0.7 2 83 0 70 -0.2 83 -1.4 83 -0.7 0 -1.6 -1 -2 -2.2z"/>
  <path d="M895 608.5 c0 -23.6 0.1 -24.5 1.9 -24.5 1.4 0 2.1 0.8 2.4 2.8 l0.4 2.7 0.2 -2.7 c0 -1.6 0.6 -2.8 1.1 -2.8 0.6 0 1 8.8 1 24.5 0 20.6 -0.2 24.5 -1.4 24.5 -0.8 0 -1.7 -0.8 -1.9 -1.7 -0.4 -1.7 -0.5 -1.7 -0.6 0 0 0.9 -0.8 1.7 -1.6 1.7 -1.3 0 -1.5 -3.4 -1.5 -24.5z"/>
  <path d="M896 566.4 c0 -15.2 0.2 -16.8 2.1 -19.5 1.5 -2.2 2.8 -2.9 5.4 -2.9 2.2 0 4.3 -0.9 6.4 -2.9 1.7 -1.6 6.1 -4.1 9.8 -5.6 3.8 -1.5 7.3 -3 7.8 -3.4 0.6 -0.5 6.4 -3 13 -5.6 6.6 -2.6 13.7 -5.6 15.7 -6.6 2 -1 10.8 -4.8 19.6 -8.3 8.7 -3.5 16.7 -6.9 17.8 -7.5 2.7 -1.5 23 -10 29 -12.1 2.8 -1 9.4 -3.9 14.6 -6.4 5.3 -2.5 10 -4.6 10.6 -4.6 1 0 8.8 -3.3 18.7 -7.9 6 -2.8 12.9 -5.8 24.8 -10.7 9 -3.7 14.1 -5.8 24.2 -10.2 5 -2.1 11.7 -4.9 15 -6.1 3.3 -1.2 8.3 -3.3 11 -4.6 2.8 -1.4 9.5 -4.3 15 -6.5 5.5 -2.3 13.8 -5.9 18.5 -8.1 4.7 -2.1 9.1 -3.9 9.8 -3.9 0.7 0 3.5 -1.1 6.2 -2.5 2.7 -1.4 5.5 -2.5 6.3 -2.5 0.7 0 3.1 -0.9 5.2 -2.1 2.2 -1.1 7.6 -3.6 12 -5.4 4.4 -1.8 11.8 -5 16.5 -7 4.7 -2 11.7 -5 15.5 -6.5 3.9 -1.5 13.1 -5.5 20.5 -8.8 7.4 -3.2 16.7 -7.1 20.5 -8.5 3.9 -1.3 11.1 -4.4 16 -6.7 5 -2.3 13.5 -5.9 19 -8 5.5 -2.1 12.3 -5 15 -6.4 2.8 -1.4 8.9 -3.9 13.5 -5.6 4.7 -1.7 11 -4.4 14 -5.9 3 -1.6 10.9 -4.9 17.5 -7.5 6.6 -2.6 13.2 -5.3 14.7 -6.1 2.1 -1.2 8 -1.5 32.5 -1.5 16.4 0 32.9 0.3 36.6 0.7 l6.8 0.6 -0.2 6.2 -0.2 6.2 -27 0.6 c-17.7 0.4 -28.5 0.2 -31.2 -0.5 -3.9 -1 -5.2 -0.5 -84 34 -79.2 34.6 -80 35 -83.2 39.3 -6.7 9.1 -7.8 10.2 -11.7 12 -4.6 2.1 -13.6 2.5 -18.5 0.8 -2.9 -1 -8.4 1.2 -93.9 38.6 -193.5 84.8 -201.6 88.5 -211.2 95.4 -6.6 4.7 -9 8.3 -9 13.4 0 3.9 -2.4 5.4 -3.3 2 -0.4 -1.7 -0.5 -1.7 -0.6 0 0 0.9 -0.8 1.7 -1.6 1.7 -1.3 0 -1.5 -2.5 -1.5 -16.6z m327.7 -136.5 c-2.1 -0.5 -5.1 -1.6 -6.7 -2.4 -1.7 -0.9 -3 -1.3 -3 -1 0 1.1 8.5 4.5 11 4.4 1.8 -0.1 1.5 -0.3 -1.3 -1z m15.9 -6.1 l2.9 -3.3 -3.2 2.9 c-1.8 1.7 -3.3 3.1 -3.3 3.3 0 0.8 0.8 0.1 3.6 -2.9z m202.2 -80.5 c-2.1 -0.2 -5.5 -0.2 -7.5 0 -2.1 0.2 -0.4 0.4 3.7 0.4 4.1 0 5.8 -0.2 3.8 -0.4z"/>
  <path d="M532.5 488.8 c-0.8 -1.7 -2.8 -2.5 -10.5 -4 -10.6 -2.1 -13.1 -3.7 -12.1 -7.3 0.3 -1.3 0.4 -11.3 0.1 -22.2 -0.4 -16.8 -0.3 -20 1 -21.1 1.1 -0.9 3.8 -1 9.9 -0.6 4.9 0.4 8.1 0.3 7.8 -0.2 -0.3 -0.5 -4.1 -2.4 -8.4 -4.3 -11.9 -5 -11.3 -3 -10.1 -35.1 0.7 -19.6 0.7 -27.5 -0.1 -28.3 -1.3 -1.3 -1.5 -4 -0.2 -3.2 0.5 0.3 1.2 0.1 1.5 -0.4 0.3 -0.5 4.9 0.9 10.3 3 5.3 2.2 9.8 3.9 10 3.9 0.2 0 0.3 -2 0.3 -4.5 0 -3.8 0.3 -4.5 2 -4.5 1.7 0 2 0.7 2 4.3 0 5.8 -0.9 8.7 -2.8 8.7 -1.3 0 -1.4 2.1 -0.8 17.3 0.8 19.1 2.1 37.2 3.2 43 0.4 2.3 0.2 4.3 -0.5 5.1 -0.8 1 -1 7.5 -0.6 22.7 0.3 11.7 0.7 21.5 1 21.7 0.3 0.3 0.5 2.3 0.5 4.4 0 4.3 -1.9 5.2 -3.5 1.6z"/>
  <path d="M531.6 346.8 c-0.3 -1.3 -0.6 -6.7 -0.6 -12 0 -9.1 0.1 -9.8 2 -9.8 1.9 0 2 0.7 2 12 0 9.6 -0.3 12 -1.4 12 -0.7 0 -1.6 -1 -2 -2.2z"/>
  <path d="M1339 333 c0 -1.9 0.7 -2 20.8 -2 21.8 0 25.2 0.4 25.2 2.6 0 1.2 -4.1 1.4 -23 1.4 -22.3 0 -23 -0.1 -23 -2z"/>
  <path d="M1288 332 c0 -1.9 0.7 -2 19.8 -2 20.8 0 24.2 0.4 24.2 2.6 0 1.2 -3.9 1.4 -22 1.4 -21.3 0 -22 -0.1 -22 -2z"/>
  <path d="M1270 329.6 c0 -1.9 0.4 -4.5 0.9 -5.8 l0.9 -2.3 -16.9 0.1 c-10.9 0.1 -17.3 0.5 -18.2 1.2 -0.8 0.7 -2 3 -2.7 5.2 -1.2 3.7 -1.6 4 -5.2 4 -4.2 0 -5.2 -1.9 -1.7 -3.5 1.4 -0.7 3.5 -4.6 6.6 -12.5 2.4 -6.3 5.2 -12.3 6.2 -13.3 1.5 -1.6 4.3 -1.9 21.8 -2.4 l20 -0.5 -0.8 4.9 c-0.4 2.6 -2.2 9 -3.8 14.2 -3 9.6 -3.1 11.1 -0.5 11.1 0.8 0 1.4 0.7 1.4 1.5 0 1.1 -1.1 1.5 -4 1.5 -3.9 0 -4 -0.1 -4 -3.4z"/>
  <path d="M1206 327 c0 -5.9 0.4 -5.8 -14.1 -3.8 -6.7 0.9 -9.7 0.9 -12.7 0 -2.7 -0.8 -8.2 -1 -17.5 -0.5 l-13.6 0.6 -0.3 3.6 -0.3 3.6 -17.7 0.3 c-17.3 0.2 -17.8 0.2 -17.8 -1.8 0 -1.9 0.6 -2 16.1 -2 l16 0 -0.1 -12.2 c-0.1 -6.8 -0.1 -13.1 -0.1 -14 0.1 -1.9 2.7 -2.5 3.3 -0.7 0.2 0.6 4.4 1 10.9 1.1 6.2 0 11.1 0.5 12 1.2 0.8 0.6 2.8 4.2 4.4 7.9 3.1 7.4 3.5 7.3 5.4 -1.3 2 -8.7 1.7 -8.5 16.8 -8.2 12 0.3 13.1 0.5 13.6 2.3 0.3 1.1 0.3 7.1 0 13.4 -0.6 10.8 -0.5 11.5 1.3 11.6 1 0.1 2.6 0.3 3.4 0.4 0.8 0.1 2.3 0.3 3.3 0.4 0.9 0 1.7 0.8 1.7 1.6 0 1.2 -1.4 1.5 -7 1.5 l-7 0 0 -5z"/>
  <path d="M1061 328 c0 -1.9 0.7 -2 18.8 -2 19.8 0 23.2 0.4 23.2 2.6 0 1.2 -3.8 1.4 -21 1.4 -20.3 0 -21 -0.1 -21 -2z"/>
  <path d="M549 327.5 l-9.5 -1 -0.3 -5.6 c-0.6 -11.3 3 -14.1 18.2 -13.7 5 0.1 15 -0.2 22.2 -0.6 8.2 -0.5 13.8 -0.5 15 0.2 1.3 0.6 3 0.6 5.1 -0.2 l3.3 -1.1 -6.5 -4 c-5 -3 -6.5 -4.5 -6.5 -6.3 0 -3.3 1.6 -2.6 19.9 8.6 8.6 5.2 17.4 10.5 19.6 11.8 3.9 2.2 5.1 2.3 38.6 3 l34.7 0.7 -0.5 -6.9 c-0.3 -3.8 -0.8 -9.3 -1.2 -12.1 -0.5 -3.1 -0.4 -5.3 0.1 -5.3 0.5 0 0.6 -0.4 0.3 -1 -0.3 -0.5 0 -1 0.8 -1 1.7 0 2.7 2.1 2.7 5.8 0 1.5 0.3 3.6 0.6 4.7 0.5 2.1 1.9 2.2 21.6 1.7 l5.7 -0.2 -0.6 -5.7 c-0.6 -5.7 -0.6 -5.8 1.4 -4 1.1 0.9 2.5 3.2 3.1 5 0.6 1.7 2.4 6.8 4 11.2 l3 8 5.7 0 c6.6 0 5.7 1.2 9.5 -13.2 2 -7.5 4.5 -12.3 6.5 -12.3 0.8 0 0 7.4 -1.1 10.4 -0.6 1.6 -0.4 1.7 1.7 1 1.3 -0.5 9.4 -0.9 17.9 -0.9 l15.5 0 0.8 -5.2 c0.6 -3.8 1.3 -5.3 2.4 -5.3 0.9 0 1.3 0.3 1 0.7 -0.4 0.3 -0.3 1.1 0.2 1.7 0.5 0.6 0.2 5.7 -0.5 11.6 -0.7 5.8 -1.3 11.1 -1.4 11.8 0 0.9 2.5 1.2 9.3 1.2 10.5 0 13.7 0.6 13.7 2.6 0 1.1 -2.1 1.4 -9.8 1.4 -5.8 0 -10.3 0.5 -10.9 1.1 -1.2 1.2 -6.9 1.4 -37.8 1.2 -12.1 -0.1 -33 0 -46.5 0.2 -54.9 1 -161.9 1 -171 0z"/>
  <path d="M1004 327 c0 -1.9 0.7 -2 18.8 -2 19.8 0 23.2 0.4 23.2 2.6 0 1.2 -3.8 1.4 -21 1.4 -20.3 0 -21 -0.1 -21 -2z"/>
  <path d="M954 326 c0 -1.9 0.7 -2 17.8 -2 18.8 0 22.2 0.4 22.2 2.6 0 1.1 -3.6 1.4 -20 1.4 -19.3 0 -20 -0.1 -20 -2z"/>
  <path d="M892 325 c0 -1.9 0.7 -2 19.8 -2 20.8 0 24.2 0.4 24.2 2.6 0 1.2 -3.9 1.4 -22 1.4 -21.3 0 -22 -0.1 -22 -2z"/>
  <path d="M837 324 c0 -2 0.5 -2.1 22.3 -2 23.6 0.1 26.7 0.4 26.7 2.6 0 1.2 -4.2 1.4 -24.5 1.4 -24 0 -24.5 0 -24.5 -2z"/>
  <path d="M530.5 321 c-0.4 -1.6 -0.4 -3.8 0 -4.8 0.4 -1.5 -0.9 -3 -5.9 -6.8 -7 -5.3 -8.9 -8.4 -5.2 -8.4 1.2 0 5.7 2.6 9.9 5.8 7.2 5.3 7.7 5.9 7.7 9.5 0 2.6 -0.4 3.7 -1.5 3.7 -0.8 0 -1.5 0.9 -1.5 2 0 3.1 -2.8 2.3 -3.5 -1z"/>
 </g>
 <g fill="#ffec0f">
  <path d="M297.6 1734.1 c-0.9 -1.5 2.6 -3.9 12.8 -8.6 5.4 -2.5 13.9 -6.9 18.9 -9.9 5.1 -2.9 15.3 -8.6 22.7 -12.6 7.4 -4 24.1 -13.9 37 -22 12.9 -8 28.5 -17.3 34.5 -20.5 20.6 -10.9 37 -19.9 42 -23 2.8 -1.8 8.8 -5.3 13.5 -8 4.7 -2.6 12.8 -7.5 18 -11 5.2 -3.4 12 -7.8 15 -9.6 3.6 -2.3 4.9 -3.5 3.7 -3.7 -0.9 -0.2 -9.4 0.2 -18.9 0.8 -9.5 0.6 -24.2 1.5 -32.7 2 -8.4 0.5 -16.5 1.1 -18 1.4 -1.4 0.3 -8 1 -14.7 1.6 -6.6 0.5 -17.4 1.9 -24 3 -12.8 2.3 -32.3 4.2 -33.7 3.3 -1.1 -0.7 10.1 -5.9 18.2 -8.5 3.7 -1.1 7.8 -2.7 9.2 -3.4 1.5 -0.7 13.8 -4.5 27.5 -8.5 13.6 -3.9 28.4 -8.7 32.8 -10.6 4.5 -1.9 17.6 -7.3 29.1 -12 11.6 -4.6 22.8 -9.3 25 -10.3 2.2 -1 5.1 -2.2 6.5 -2.5 l2.5 -0.6 0.2 38.1 c0 21 0.4 39.1 0.7 40.4 0.5 1.9 -0.1 2.6 -4.2 4.5 -2.6 1.2 -5.6 2.3 -6.7 2.6 -1.1 0.2 -4.7 1.3 -8 2.5 -3.3 1.1 -11.5 3.6 -18.1 5.5 -6.7 1.9 -15.2 4.9 -19 6.6 -3.8 1.7 -10.8 4.6 -15.7 6.5 -4.8 1.9 -18.5 7.9 -30.5 13.3 -11.9 5.4 -28.7 12.6 -37.2 15.9 -26.1 10.2 -47.6 19.5 -67.2 29.1 -10.2 5 -19.1 9.1 -19.6 9.1 -0.6 0 -1.3 -0.4 -1.6 -0.9z"/>
  <path d="M542.8 1696.9 c1.4 -0.5 2 -1.3 1.6 -2.1 -0.8 -1.2 -0.8 -5.5 -1.8 -106.8 -0.3 -32.7 -0.9 -76.6 -1.2 -97.5 -0.3 -20.9 -0.7 -53.3 -0.9 -72 -0.2 -18.7 -0.7 -37.8 -1.1 -42.5 -0.4 -4.7 -0.6 -11.9 -0.4 -16 0.3 -4.1 0.4 -9.7 0.3 -12.5 -1.1 -62.1 -1.2 -71.7 -1.1 -155.5 0 -67.2 -0.3 -84.9 -1.1 -85.4 -0.4 -0.3 -0.8 -14.4 -0.9 -31.3 -0.1 -16.9 -0.4 -42.3 -0.6 -56.3 -0.2 -14 -0.7 -129 -1 -255.5 -0.6 -223.2 -1.1 -275.9 -2.4 -278 -0.7 -0.9 -0.9 -10.7 -1 -34.5 0 -5.2 -0.5 -10.7 -1.1 -12.1 -0.8 -2.3 -0.7 -2.8 1 -3.2 1.6 -0.4 1.8 -0.9 1.1 -2.4 -0.5 -1 -1.2 -7.9 -1.6 -15.3 -0.4 -7.4 -1.1 -20.7 -1.6 -29.4 -0.9 -16.6 -0.7 -18.6 1.6 -18.6 0.8 0 1.5 -0.8 1.5 -1.7 0.3 -4.7 -0.2 -32.9 -0.7 -41.5 -0.6 -8.6 -0.5 -9.8 1 -9.8 2.9 0 1.7 -1.4 -6.4 -7.4 -4.4 -3.3 -8 -6.3 -8 -6.7 0 -0.9 -12.4 -11.2 -33.5 -27.7 -9.3 -7.3 -22.6 -17.7 -29.5 -23.1 -6.9 -5.4 -19 -15.8 -26.9 -23.2 -8 -7.4 -18.8 -17.2 -24 -21.8 -27.4 -24.1 -41.7 -39 -40.9 -42.8 0.9 -4.6 9.4 -1.2 30.3 12.2 45.7 29.4 99.4 62.8 121.7 75.7 32.4 18.6 72.8 40.8 74.4 40.8 1.1 0 10.2 5.3 21.9 12.9 l4 2.6 -7.5 0.8 c-4.1 0.5 -9.5 0.9 -12 0.9 -2.5 0 -7.9 -0.1 -12 -0.1 -16.3 -0.1 -34.6 0.8 -37.3 1.8 -3 1.2 -5 5.1 -4.5 9 0.3 2.4 0.8 2.7 6.3 3.3 12.2 1.5 186.1 0.7 197.2 -0.9 3.4 -0.5 7 -0.7 8 -0.5 1.9 0.5 34.7 1.5 42.2 1.3 2.5 -0.1 5 -0.6 5.8 -1.2 1.4 -1.2 62.4 -0.3 287 4.2 29.8 0.6 54.7 0.8 55.3 0.4 0.5 -0.3 1 -2.3 1 -4.3 l0 -3.7 9.8 -0.2 c5.3 -0.2 12.4 -0.4 15.7 -0.5 3.3 -0.2 7.7 0.3 9.9 0.9 3.7 1.3 13.9 0.5 16.6 -1.2 0.6 -0.4 3.5 -0.3 6.5 0 l5.5 0.7 0 4.9 0 4.9 10.3 0 10.4 0 1.3 -4.1 c2.1 -6.3 3.4 -6.7 20.5 -6.5 9 0.1 17 -0.3 20 -1 2.7 -0.7 5.1 -1.1 5.3 -1 0.1 0.2 -0.7 3.2 -1.7 6.7 -1.1 3.5 -1.9 6.5 -1.7 6.6 0.3 0.4 80.9 2.2 113.6 2.6 9.6 0.1 17.5 0.6 17.5 1 0 1.3 -6.1 4.3 -19 9.3 -6.6 2.5 -14.5 5.9 -17.5 7.5 -3 1.5 -9.3 4.2 -14 5.9 -4.6 1.7 -10.7 4.2 -13.5 5.6 -2.7 1.4 -9.5 4.3 -15 6.4 -5.5 2.1 -14 5.7 -19 8 -4.9 2.3 -12.1 5.4 -16 6.7 -3.8 1.4 -13.1 5.3 -20.5 8.5 -7.4 3.3 -16.6 7.3 -20.5 8.8 -3.8 1.5 -10.8 4.5 -15.5 6.5 -4.7 2 -12.1 5.2 -16.5 7 -4.4 1.8 -9.8 4.3 -12 5.4 -2.1 1.2 -4.5 2.1 -5.2 2.1 -0.8 0 -3.6 1.1 -6.3 2.5 -2.7 1.4 -5.5 2.5 -6.2 2.5 -0.7 0 -5.1 1.8 -9.8 3.9 -4.7 2.2 -13 5.8 -18.5 8.1 -5.5 2.2 -12.2 5.1 -15 6.5 -2.7 1.3 -7.7 3.4 -11 4.6 -3.3 1.2 -9.8 3.9 -14.5 5.9 -8.4 3.7 -17.3 7.4 -26 11 -10.7 4.3 -17.9 7.4 -23.5 10.1 -9.9 4.6 -17.7 7.9 -18.7 7.9 -0.6 0 -5.3 2.1 -10.6 4.6 -5.2 2.5 -11.8 5.4 -14.6 6.4 -6 2.1 -26.3 10.6 -29 12.1 -1.1 0.6 -9.1 4 -17.8 7.5 -8.8 3.5 -17.6 7.3 -19.6 8.3 -2 1 -8 3.5 -13.2 5.6 -9.1 3.6 -16.2 6.7 -27.8 12.2 -2.9 1.4 -6 3.5 -6.8 4.8 -1.2 1.9 -2.1 2.3 -4.8 1.8 -2.8 -0.4 -3.6 -0.1 -5.4 2.5 -1.9 2.6 -2.1 4 -1.8 11.3 0.6 12.2 0.4 11.7 2.2 9.4 1.4 -1.8 1.5 -1.2 0.7 7.5 -0.4 5.2 -0.7 107.3 -0.5 226.9 0.3 155.3 0 217.1 -0.7 216.6 -0.7 -0.4 -1.2 -10.4 -1.3 -30.3 l-0.3 -29.7 -0.5 28.5 c-0.4 23.4 -0.8 28.6 -1.9 28.8 -6.5 1.4 -18.6 10.8 -23.2 18 -6.2 9.8 -7.7 16.1 -9.5 41.7 -1.5 21.3 9.4 40.9 28.3 50.8 3.9 2 7.4 4.5 7.6 5.5 0.3 1.1 0.5 0.9 0.6 -0.7 0.1 -1.5 0.5 -2.1 1 -1.5 0.5 0.5 1.4 83.9 2.1 195.2 1.1 165.4 1.1 194.6 -0.1 195.7 -0.8 0.7 -6.8 3.6 -13.4 6.5 -6.6 2.8 -46.4 22.2 -88.5 43 -42.1 20.8 -85.5 42.1 -96.5 47.3 -26 12.3 -111.5 54.7 -136.4 67.6 -16.6 8.6 -20.1 10.1 -24 10 -3.9 0 -4.2 -0.2 -2.3 -1z m359.9 -249.1 c-0.1 -13.4 -0.2 -2.7 -0.2 23.7 0 26.4 0.1 37.3 0.2 24.3 0.2 -13 0.2 -34.6 0 -48z m-1 -87.5 c-0.1 -8.7 -0.3 -1.6 -0.3 15.7 0 17.3 0.2 24.4 0.3 15.8 0.2 -8.7 0.2 -22.9 0 -31.5z m0 -88 c-0.1 -10.3 -0.2 -2.1 -0.2 18.2 0 20.4 0.1 28.8 0.2 18.8 0.2 -10 0.2 -26.6 0 -37z m-1 -106.5 c-0.1 -16.1 -0.2 -3 -0.2 29.2 0 32.2 0.1 45.3 0.2 29.3 0.2 -16.1 0.2 -42.5 0 -58.5z m-1 -299 c-0.1 -11.7 -0.2 -2.2 -0.2 21.2 0 23.4 0.1 32.9 0.2 21.3 0.2 -11.7 0.2 -30.9 0 -42.5z m0.7 -292.3 c0.8 -1.7 0.7 -1.8 -0.5 -0.7 -1.2 1.1 -1.4 21.3 -1.5 131 l0 129.7 0.6 -129 c0.3 -71.6 0.9 -129.9 1.4 -131z"/>
  <path d="M512.6 1542.1 c-1 -0.4 -8 -0.5 -15.5 -0.3 -8.9 0.2 -21.2 -0.4 -35.6 -1.7 -24.8 -2.3 -43.3 -3.5 -78 -5.1 -47.6 -2.2 -83.2 -7.8 -80.2 -12.7 0.3 -0.5 7.7 -1.3 16.4 -1.7 8.7 -0.3 21.7 -1.3 28.8 -2.1 7.2 -0.7 20.7 -1.9 30 -2.5 28.1 -1.8 53.3 -4.7 86.5 -10 16 -2.6 34.4 -4.9 53.7 -6.7 l5.2 -0.5 -0.5 21.9 -0.4 21.8 -4.2 0.2 c-2.4 0.1 -5.2 -0.1 -6.2 -0.6z"/>
  <path d="M265.4 1253.6 c-0.3 -0.9 -0.1 -2.2 0.5 -3 1.4 -1.7 17.5 -9.6 27.8 -13.7 4.3 -1.7 13.4 -5.5 20.3 -8.4 6.9 -2.9 18.8 -7.6 26.5 -10.5 7.7 -2.9 25.5 -9.8 39.5 -15.5 25.8 -10.3 60.5 -22.8 104.9 -37.8 13.5 -4.5 24.6 -8.7 24.8 -9.2 0.2 -0.6 -2.9 -2.8 -6.9 -4.9 -20.5 -11 -34.1 -19 -53.3 -31.5 -11.5 -7.6 -25 -16.2 -30 -19.1 -4.9 -2.9 -18.4 -11.7 -30 -19.5 -48.7 -32.8 -69.3 -44.9 -132 -77.6 -15.4 -8.1 -18.8 -10.7 -18.3 -14.3 0.7 -4.9 3.7 -3.7 36.8 14 18.1 9.7 45.4 21.1 74.3 31 8.9 3.1 24.5 8.9 34.7 13.1 10.2 4.1 30.9 12 46 17.5 15.1 5.5 32.2 12 38 14.5 35.2 15.2 42.4 18.3 42.8 17.8 0.2 -0.2 2.1 0.4 4.1 1.4 l3.6 1.9 0.3 36.3 c0.2 20 0.4 43.5 0.5 52.2 l0.2 15.8 -3.5 0.8 c-1.9 0.5 -4.4 0.9 -5.5 0.9 -1.1 0 -5.4 1 -9.5 2.1 -8.9 2.5 -36.2 8.4 -85 18.6 -19.5 4.1 -44 9.2 -54.5 11.4 -10.4 2.2 -27.1 5.3 -37 7 -9.9 1.7 -24.5 4.4 -32.5 6.1 -19.9 4.1 -26.8 4.8 -27.6 2.6z"/>
  <path d="M510.5 481.2 c-0.6 -0.5 -3.7 -1.4 -7 -2.1 -3.3 -0.7 -18.2 -4.2 -33.2 -7.7 -15 -3.5 -35.4 -7.7 -45.5 -9.4 -10.1 -1.6 -26.5 -4.5 -36.4 -6.4 -10 -1.9 -29.2 -5.4 -42.5 -7.6 -45.6 -7.6 -81.4 -14.1 -88.8 -16.1 -4.1 -1 -8.6 -1.9 -10.1 -1.9 -5.8 0 -9.5 -6.2 -4.7 -7.8 2 -0.8 20.7 -0.2 38.7 1.2 4.1 0.3 16.5 1 27.5 1.6 11 0.6 32.6 1.7 48 2.6 15.4 0.8 45.3 1.9 66.5 2.4 35 0.8 50.2 1.4 60 2.5 6.6 0.7 26.5 1.9 28.3 1.7 1.5 -0.2 1.7 0.9 1.7 10.6 0 5.9 0.2 15.4 0.4 21.2 0.5 14 -0.2 17.6 -2.9 15.2z"/>
  <path d="M510.5 423.2 c-0.5 -0.6 -10 -5.1 -21 -10.2 -11 -5 -29 -13.6 -40 -19 -129.8 -63.8 -150.9 -75 -192.5 -102 -10.7 -7 -26.4 -17 -34.7 -22.4 -19.1 -12.2 -21.9 -15.5 -17.8 -21.3 3.1 -4.4 5.3 -3.9 30.3 6.1 33.4 13.3 61.9 24.4 89.2 34.6 12.9 4.8 31.4 12 41 15.8 9.6 3.8 28.3 11.1 41.5 16.2 13.2 5.1 34.7 13.7 47.8 19.2 31.7 13.2 54.6 22.1 57.1 22.2 2.1 0.1 2.1 0.4 1.8 25.6 -0.3 27.3 -1.1 36.7 -2.7 35.2z"/>
  <path d="M1447.3 339.4 c-1 -0.4 -1 -0.9 0.1 -2 0.8 -0.7 1.6 -1.9 1.8 -2.5 0.5 -1.5 15.7 -2.4 17.7 -1 2 1.3 -0.1 3.8 -3.7 4.5 -4.9 0.9 -14.7 1.5 -15.9 1z"/>
  <path d="M703 307.6 c-0.4 -1.2 -1 -5.1 -1.3 -8.7 -0.3 -3.5 -2.6 -19 -5.2 -34.4 -4.2 -25.8 -8.4 -60.4 -10 -81.8 -0.6 -8.8 -0.6 -8.9 1.6 -8.5 1.9 0.3 3.1 2.6 7.9 15.8 3.2 8.5 7.5 20 9.7 25.5 2.3 5.5 5.1 13.6 6.3 17.9 3.2 11.5 18.9 56.6 20.9 60.1 1.7 2.9 3.5 7.3 5 12.5 l0.8 2.5 -14.1 0 c-7.8 0 -15.6 0.3 -17.4 0.7 -2.8 0.5 -3.4 0.3 -4.2 -1.6z"/>
  <path d="M760.5 308 c-0.7 -1.2 1.1 -9.6 2.6 -11.5 0.4 -0.5 2.8 -6.8 5.4 -13.9 11.2 -31 28.8 -75.4 32.8 -82.9 8.9 -16.9 13.4 -22.4 15 -18.4 0.7 1.9 -1.9 27.4 -7.3 70.8 -2.7 21.8 -5.2 43 -5.5 47 -0.3 4 -0.9 7.7 -1.4 8.2 -0.5 0.5 -6.5 0.8 -13.3 0.6 -14.8 -0.3 -15.9 -0.2 -22.4 0.6 -3.6 0.5 -5.4 0.4 -5.9 -0.5z"/>
  <path d="M1169.2 305.1 c-0.7 -0.4 -6.6 -0.6 -13.2 -0.5 l-12 0.3 0 -2.4 c0 -1.3 -1.1 -8.8 -2.5 -16.7 -1.3 -7.9 -2.9 -19 -3.6 -24.8 -0.6 -5.8 -2 -14.5 -3 -19.5 -2.1 -9.5 -1.9 -12.9 0.7 -13.9 5.7 -2.2 8.9 4.6 22.4 46.8 3.6 11.3 9.5 25.3 11.7 27.8 1.7 2 1.4 4.1 -0.5 2.9z"/>
  <path d="M1209 305.3 c0 -0.6 -4.8 -1 -12.5 -1.1 -6.9 -0.1 -13 -0.4 -13.5 -0.7 -0.6 -0.4 -0.6 -1.4 0 -2.8 0.5 -1.2 3.2 -11.3 6 -22.3 6 -24.5 9.3 -35 13.2 -42.8 6.6 -13.2 13.8 -14.4 13.8 -2.4 0 2.5 -1.1 14.5 -2.5 26.9 -1.4 12.3 -2.8 27.6 -3.2 33.9 -0.3 6.3 -0.7 11.7 -0.9 11.9 -0.2 0.2 -0.4 0 -0.4 -0.6z"/>
  <path d="M1239 304 c0 -0.3 0.4 -1 0.9 -1.5 0.4 -0.6 3.6 -7.3 7 -15 13 -29.7 35.7 -65.2 46 -72.2 5.7 -3.8 10.9 -2.6 13.1 3.1 1.3 3.6 0 8.7 -8.8 34.1 -3.8 11 -9.1 27 -11.7 35.5 l-4.8 15.5 -12.6 0.2 c-6.9 0.1 -16.3 0.3 -20.8 0.5 -4.6 0.2 -8.3 0.1 -8.3 -0.2z"/>
 </g>
 <g fill="#e3d014">
  <path d="M536.1 1720.5 c-0.2 -20.9 -0.1 -21.4 4.9 -23 1.4 -0.4 11.9 -5.7 23.5 -11.7 24.5 -12.7 108.8 -54.6 138.5 -68.8 37.4 -17.9 55 -26.5 110.5 -54.2 30.3 -15.1 62 -30.5 70.5 -34.2 15.8 -7 19 -8.9 19 -11.3 0 -0.7 0.7 -1.3 1.5 -1.3 1.3 0 1.5 2.3 1.5 14.8 0 17.9 0.5 19.1 10.5 23.3 6.4 2.8 38.2 12.5 85.5 26.3 12.4 3.6 29.7 8.6 38.5 11.1 8.8 2.6 18.5 5.4 21.5 6.2 3 0.8 6 1.8 6.5 2.3 0.6 0.4 2.8 1.1 5 1.4 4.2 0.8 19.6 5.1 23 6.6 1.1 0.4 4.6 1.4 7.8 2.1 3.1 0.7 5.7 1.6 5.7 2.1 0 0.4 1.1 0.8 2.5 0.8 3.4 0 11.5 2.2 11.5 3.2 0 0.4 1.1 0.8 2.5 0.8 1.4 0 7.8 1.5 14.3 3.4 19.5 5.7 164.2 47.5 220.2 63.5 28.9 8.3 54.5 15.9 57 17 4.2 1.7 5.5 1.7 19.6 0.6 19.4 -1.7 32 -3.2 36.4 -4.5 7.1 -2 7 -2.2 7 9.5 l0 10.5 -5.9 0 c-3.3 0 -22.7 0.4 -43.3 1 -20.5 0.5 -56.6 1.4 -80.3 2 -23.6 0.6 -77.6 1.9 -120 3 -42.3 1.1 -106 2.7 -141.5 3.5 -35.5 0.8 -90.4 2.2 -122 3 -97.1 2.5 -133.7 3.4 -181.5 4.5 -78 1.7 -131.3 3 -147 3.5 -8.2 0.2 -27.6 0.7 -43 1 -15.4 0.3 -35.2 0.8 -44.1 1.1 l-16.1 0.5 -0.2 -19.6z m889.2 -15.2 c-1.3 -0.2 -3.3 -0.2 -4.5 0 -1.3 0.2 -0.3 0.4 2.2 0.4 2.5 0 3.5 -0.2 2.3 -0.4z m14.2 -0.3 c0.4 -0.6 -1 -0.9 -3.7 -0.9 l-4.3 0.2 3.5 0.7 c1.9 0.4 3.6 0.8 3.7 0.9 0.1 0 0.5 -0.3 0.8 -0.9z m-92.5 -21.1 c0 -0.5 -0.4 -0.8 -0.9 -0.4 -0.5 0.3 -1.2 0.1 -1.6 -0.5 -0.3 -0.5 -1.1 -1 -1.6 -1 -1.4 0 1.4 2.9 2.9 3 0.6 0 1.2 -0.5 1.2 -1.1z m-34.4 -10 c0.4 -0.8 0 -0.9 -1.5 -0.4 -1.4 0.4 -2.1 0.2 -2.1 -0.6 0 -0.7 -0.3 -1 -0.6 -0.6 -0.9 0.9 0.5 2.7 2.1 2.7 0.8 0 1.7 -0.5 2.1 -1.1z m-20.4 -4.6 c-0.6 -0.2 -0.9 -1 -0.5 -1.6 0.4 -0.7 0 -0.8 -1.1 -0.4 -1 0.4 -2.1 0.7 -2.4 0.8 -1 0.1 3.1 1.8 4.3 1.8 0.6 -0.1 0.4 -0.3 -0.3 -0.6z m-27.8 -8.7 c-0.3 -0.8 -1.2 -1.2 -2.1 -0.9 -1.2 0.5 -1.2 0.7 -0.1 1.4 2 1.3 2.8 1.1 2.2 -0.5z m-28.2 -7.3 c-0.6 -0.2 -1 -0.8 -0.7 -1.3 0.3 -0.4 -0.5 -0.6 -1.7 -0.2 -2.1 0.5 -2.1 0.6 -0.2 1.3 1 0.4 2.4 0.8 2.9 0.8 0.6 -0.1 0.4 -0.3 -0.3 -0.6z m-4.2 -2.4 c1.2 -0.8 1 -0.9 -0.9 -0.4 -1.8 0.5 -2.2 0.4 -1.6 -0.6 0.6 -0.9 0.3 -1.1 -0.9 -0.6 -1 0.4 -2.1 0.7 -2.4 0.8 -0.7 0 2.8 1.7 3.8 1.8 0.3 0 1.2 -0.4 2 -1z m-9.3 -2.4 c0 -1.7 0 -1.7 -2.2 -0.9 -1.3 0.5 -1.4 0.8 -0.3 1.5 1.9 1.2 2.5 1.1 2.5 -0.6z m-7.3 -2.1 c0.5 -1.2 0.2 -1.5 -1 -1 -0.8 0.3 -1.8 0.6 -2 0.6 -0.3 0 -0.2 0.5 0.1 1 0.9 1.5 2.2 1.2 2.9 -0.6z m-6.8 -1.1 c-1.5 -0.4 -1.6 -0.7 -0.5 -1.5 1 -0.7 0.8 -0.8 -0.8 -0.3 -1.5 0.4 -2.3 0.2 -2.3 -0.6 0 -0.7 -0.3 -0.9 -0.7 -0.5 -1 1 2.6 3.6 4.6 3.5 1.1 -0.1 1 -0.3 -0.3 -0.6z m-6.4 -2 c-0.6 -0.2 -0.9 -1 -0.5 -1.6 0.4 -0.7 0 -0.8 -1.1 -0.4 -1 0.4 -2.3 0.7 -2.9 0.8 -1.7 0.1 2.5 1.8 4.3 1.8 1 -0.1 1.1 -0.2 0.2 -0.6z m-7.5 -2.8 c0 -1.7 0 -1.7 -2.2 -0.9 -1.3 0.5 -1.4 0.8 -0.3 1.5 1.9 1.2 2.5 1.1 2.5 -0.6z m-6.5 -1.2 c-0.6 -0.2 -1 -0.9 -0.6 -1.4 0.6 -1.1 0.2 -1.1 -2.1 -0.3 -1.3 0.5 -1.4 0.8 -0.3 1.5 0.7 0.5 2 0.8 2.8 0.8 1 0 1.1 -0.2 0.2 -0.6z m-8.2 -3.4 c1.2 -0.8 1 -0.9 -0.9 -0.4 -1.6 0.5 -2.1 0.4 -1.7 -0.4 0.4 -0.6 0.2 -1.1 -0.3 -1.1 -0.6 0 -1.1 0.7 -1.1 1.5 0 1.7 1.8 1.9 4 0.4z m-5.8 -0.6 c-0.6 -0.2 -1 -0.8 -0.7 -1.3 0.3 -0.4 -0.5 -0.6 -1.7 -0.2 -1.5 0.3 -1.9 0.2 -1.4 -0.7 0.6 -0.9 0 -1 -2 -0.5 -1.7 0.4 -2.5 0.3 -2.1 -0.3 0.4 -0.6 -0.4 -0.8 -2.1 -0.6 -2.2 0.4 -2.4 0.2 -1.2 -0.7 1.2 -0.9 1.1 -1 -0.7 -0.5 -1.3 0.3 -2.3 0.2 -2.3 -0.3 0 -0.6 -1 -0.7 -2.2 -0.4 -1.8 0.5 -0.3 1.2 6.2 3.3 7.3 2.4 14.3 3.9 10.2 2.2z m-20.8 -6.8 c-0.4 -0.8 -1 -1.3 -1.4 -1 -0.5 0.3 -1.1 0.1 -1.5 -0.5 -0.9 -1.5 -2.5 -1.2 -2.5 0.4 0 0.8 1 1.7 2.3 1.9 1.2 0.2 2.5 0.5 2.9 0.6 0.4 0 0.5 -0.6 0.2 -1.4z m-7 -1.9 c-0.3 -0.8 -1.2 -1.2 -2 -0.9 -0.8 0.3 -1.4 0 -1.4 -0.6 0 -0.6 -0.8 -0.7 -1.7 -0.4 -1.4 0.6 -1.2 0.9 1.2 1.9 3.9 1.7 4.5 1.7 3.9 0z m-7.4 -2.2 c0 -0.8 -0.4 -1.3 -0.9 -0.9 -0.5 0.3 -1.3 0 -1.6 -0.6 -0.4 -0.5 -1.3 -0.8 -2.1 -0.5 -0.8 0.3 -1.4 0.1 -1.4 -0.5 0 -0.6 -0.6 -0.9 -1.4 -0.6 -0.7 0.3 -1.9 0 -2.5 -0.6 -0.8 -0.8 -1.1 -0.7 -1.1 0.5 0 1 1.8 2 5.3 3 2.8 0.9 5.3 1.6 5.5 1.7 0.1 0 0.2 -0.6 0.2 -1.5z m-12.6 -3.9 c-0.6 -1.4 -3 -2 -6.1 -1.6 -0.7 0.1 -1.3 -0.3 -1.3 -0.9 0 -0.7 -0.8 -0.9 -2 -0.5 -1.1 0.3 -2 0.2 -2 -0.3 0 -0.6 -1 -0.8 -2.2 -0.4 -1.4 0.3 -1.9 0.2 -1.4 -0.6 0.7 -1.1 -1.8 -1.7 -5.1 -1.3 -0.7 0.1 -1.3 -0.3 -1.3 -1 0 -0.6 -0.6 -0.9 -1.4 -0.6 -0.7 0.3 -1.9 0 -2.6 -0.6 -1 -0.9 -1.2 -0.9 -0.8 0.1 0.2 0.8 4.6 2.7 9.8 4.3 5.2 1.6 10.6 3.3 12 3.8 3.8 1.4 5 1.3 4.4 -0.4z m-29 -8.4 c0.3 -0.5 -0.6 -1.1 -2.1 -1.4 -2.6 -0.5 -2.6 -0.4 -0.8 0.9 2.2 1.7 2.2 1.7 2.9 0.5z m-27.4 -8.1 c0 -0.5 -0.4 -1 -0.9 -1 -0.5 0 -1.8 -0.3 -2.8 -0.6 -1.6 -0.5 -1.6 -0.4 0.1 1 2.3 1.8 3.6 2 3.6 0.6z"/>
  <path d="M901.6 1345.8 c-0.8 -3 -0.8 -16.6 0 -19.5 0.4 -1.3 1.3 -2.3 2 -2.3 1.1 0 1.4 2.4 1.4 12 0 9.6 -0.3 12 -1.4 12 -0.7 0 -1.6 -1 -2 -2.2z"/>
  <path d="M900.8 1138.3 c-0.6 -2.8 0.2 -5.3 1.8 -5.3 0.9 0 1.4 1.1 1.4 3.5 0 3.7 -2.4 5 -3.2 1.8z"/>
  <path d="M899.6 962.7 c-0.7 -2.9 -0.6 -30.9 0.1 -33.7 0.3 -1.1 1.2 -2 1.9 -2 1.1 0 1.4 3.5 1.4 19 0 15.6 -0.3 19 -1.4 19 -0.8 0 -1.6 -1 -2 -2.3z"/>
  <path d="M900.5 574.3 c0.3 -2.7 1.6 -5.3 2.6 -5.3 0.5 0 0.9 1.6 0.9 3.5 0 2.7 -0.4 3.5 -1.8 3.5 -1.2 0 -1.8 -0.6 -1.7 -1.7z"/>
  <path d="M1241 422.5 c0.7 -0.8 0.9 -1.5 0.4 -1.5 -0.4 0 0.1 -0.7 1.2 -1.6 1 -0.8 1.2 -1.3 0.4 -0.9 -0.8 0.4 -0.6 -0.1 0.4 -0.9 1.1 -0.9 1.6 -1.6 1.2 -1.6 -0.4 0 -0.1 -0.7 0.8 -1.5 2.1 -2.1 2.6 -1.9 2.6 1.1 0 4 -3 8.4 -5.8 8.4 -2.1 0 -2.2 -0.2 -1.2 -1.5z"/>
 </g>
 <g fill="#00b5f0">
  <path d="M1412.9 1702.6 c-0.3 -0.3 -24.7 -7.4 -54.4 -16 -48.4 -13.8 -92.3 -26.5 -170.5 -49.1 -14 -4.1 -52.3 -15.1 -85 -24.5 -136.8 -39.4 -176.7 -51.1 -186.9 -55.1 -7.1 -2.7 -10.6 -5.2 -11.9 -8.6 -0.9 -2.3 -3.3 -298.5 -3.2 -397.1 l0 -20.3 2.1 1.2 c3.4 1.7 17.1 2.3 24.1 1 19.4 -3.8 34.2 -17.2 41.3 -37.6 2.7 -7.6 2.5 -23.1 -0.4 -31.5 -4.2 -12 -10.5 -20.5 -20.1 -27 -10.5 -7.1 -14.2 -8.1 -29.8 -7.6 -7.5 0.3 -14.5 0.6 -15.5 0.8 -1.5 0.3 -1.8 -0.7 -2.1 -7.2 -1 -19.1 -1.7 -429.4 -0.8 -440.1 1.1 -12.6 2.6 -16.8 6.7 -18.7 1.5 -0.7 4.3 -2.6 6.3 -4.2 5 -4 21.5 -11.4 178.2 -80 39.9 -17.5 83.9 -36.8 97.7 -42.8 l25.3 -11.1 4.7 2.1 c4.1 1.8 5.2 1.9 9.8 0.9 6.4 -1.4 12.2 -6.1 15.6 -12.5 1.4 -2.8 3.6 -5.2 5.4 -6 5.2 -2.4 17.7 -7.8 71 -31.1 79.7 -34.8 81.5 -35.6 82.5 -35 1.6 1 1.1 6.4 -0.7 9.2 -1.6 2.5 -1.8 7.1 -2.3 48.3 -0.3 25 -0.2 102 0.1 171 0.4 69 1 184.2 1.3 256 1.2 252.2 1.8 313.9 3.2 332.5 0.6 7.5 1 87.2 1.9 315 0.4 119.6 1.4 211 2.4 215.5 0.5 2.6 1.3 3.6 2.9 3.8 1.7 0.3 2.2 1 2.2 3.3 0 2.8 -0.2 3.3 -1.1 2.5z m-24.5 -55.1 c2.5 -2.4 2.6 -2.7 2 -10.7 -0.5 -6 -0.2 -9.9 0.9 -14.1 1.2 -4.6 1.4 -8.1 0.6 -18.5 -1.2 -17.1 -4.8 -116.9 -5.9 -162.7 -0.5 -20.3 -1.6 -61.3 -2.4 -91 -0.8 -29.7 -2 -72.8 -2.7 -95.8 -0.6 -22.9 -0.9 -44.2 -0.5 -47.2 1 -8.8 -2.7 -14.9 -10.4 -17.3 -4 -1.3 -18.9 -3.2 -47.5 -6.2 -11 -1.1 -23.8 -2.5 -28.5 -3 -4.7 -0.5 -13.9 -1.4 -20.5 -2 -14.9 -1.3 -18.4 -1.6 -36.3 -3.5 -13.7 -1.5 -14.3 -1.5 -18 0.4 -6.3 3.2 -7.1 5.3 -7.6 19.8 -0.3 7 -1 18 -1.5 24.3 -2.5 28.5 -3.6 97.9 -3.5 218.5 0 68.2 0.4 125.7 0.8 127.7 1.2 6.6 4.5 9.2 17.9 14.4 15.7 6 37.8 15.7 69.7 30.4 35.3 16.3 87.6 38.9 90.1 39 0.3 0 1.8 -1.1 3.3 -2.5z m-232.2 -79.6 c1.9 -2.5 1.9 -4.4 0.8 -87.5 -0.7 -46.7 -0.9 -90.3 -0.5 -96.9 0.9 -14.5 0.9 -196.7 0 -199.5 -0.3 -1 -2.1 -2.8 -3.9 -4 -5.9 -3.6 -39.3 -10.2 -113 -22.4 -35.8 -5.9 -38 -6.2 -40.9 -4.7 -1.8 0.9 -4.1 3.1 -5.3 4.9 -1.8 2.7 -2.1 4.2 -1.7 9 0.3 3.1 0 10.4 -0.6 16.2 -5.1 46.4 -8.2 326.8 -3.7 333.2 2.4 3.5 4.9 4.6 16.2 7.3 6 1.5 26.2 7.9 44.9 14.2 18.7 6.3 43.7 14.6 55.5 18.5 11.8 3.8 26.7 8.7 33 10.8 13.2 4.5 16.5 4.6 19.2 0.9z m202.4 -587.7 c6.3 -5 6.8 -12.4 6 -79.2 -2.1 -166.9 -2.6 -203.6 -3.5 -225.5 -1.5 -34.1 -3.2 -132 -3 -164.3 l0.2 -27.3 -2.8 -2.9 c-1.6 -1.7 -3.6 -3.2 -4.5 -3.5 -0.9 -0.3 -7.4 2 -14.4 5 -7 3 -18.7 7.5 -26 10 -7.3 2.4 -20.6 7.4 -29.7 11.1 -20.2 8.2 -33 13 -52.6 19.9 -16.1 5.7 -19.7 7.5 -21.5 10.9 -1.3 2.4 -1.3 27 0.2 113.6 1.7 94.7 3 155.1 4.5 202.5 1.6 49 3.3 106.1 3.3 110.9 -0.1 3.6 5 8.6 8.7 8.6 1.3 0 5.2 0.6 8.7 1.4 3.5 0.8 13.1 1.7 21.3 2.1 16.5 0.7 26.7 1.6 45.5 3.9 6.9 0.8 20.2 1.8 29.5 2.2 9.4 0.3 18.8 1 21 1.4 6 1.2 6.8 1.1 9.1 -0.8z m-216.2 -15.1 c1.4 -1.6 1.9 -4.5 2.3 -13.8 0.8 -18.3 -1.7 -98.9 -4.7 -151 -0.5 -9.8 -1.9 -37.6 -3 -61.8 -1.2 -24.2 -2.5 -49.8 -3.1 -57 -0.5 -7.1 -1.3 -32.9 -1.7 -57.2 l-0.7 -44.1 -2.4 -2.6 c-1.4 -1.4 -3.2 -2.6 -4.1 -2.6 -2.3 0 -21.5 6.7 -42 14.5 -9.6 3.7 -27.6 10.5 -40 15 -12.4 4.6 -29.2 11.3 -37.3 14.9 -8.2 3.6 -19.3 8.2 -24.8 10.2 -7 2.6 -10.8 4.6 -12.5 6.7 -3.1 3.7 -3 4.9 0.6 9 l3 3.4 0.5 85.9 c0.3 47.3 0.7 96.6 1 109.6 0.3 13.1 0.5 40.4 0.5 60.7 0 34.2 0.1 37 1.8 39.1 1.7 2 3.1 2.4 14.3 3.1 12.7 0.8 22.8 2.1 65.9 8.2 13.5 2 35.5 4.9 49 6.7 20.3 2.6 31 4.1 35.1 4.9 0.3 0 1.4 -0.8 2.3 -1.8z"/>
  <path d="M1367.5 1628.8 c-6.3 -3.3 -56.9 -26.1 -69 -31.1 -17.1 -7 -58.2 -25.4 -66 -29.5 l-7 -3.7 0 -144.5 c-0.1 -135.9 -0.4 -158.4 -3.1 -210.2 l-0.7 -12.8 6.9 0 c6.6 0 20 1.1 52.9 4.4 8.3 0.8 20.6 1.9 27.5 2.5 6.9 0.6 21.3 1.8 32 2.7 12.8 1.1 20 2.1 20.9 2.9 1.4 1.4 1.5 3.4 6.1 126 0.5 15.4 1.4 43.3 2 62 0.5 18.7 1.4 43.5 2 55 0.5 11.6 1.7 48 2.5 81 1.8 71.7 2.3 85.3 3.1 92.3 l0.6 5.2 -3.4 0 c-1.8 -0.1 -5.1 -1 -7.3 -2.2z"/>
  <path d="M1102.5 1543.6 c-19.8 -6.7 -45.1 -14.9 -56.3 -18.4 -25.3 -7.8 -45.2 -15 -45.3 -16.6 -0.1 -0.6 -0.1 -51 0 -112.1 0.2 -104.3 -1 -178.1 -3.6 -213.7 l-0.6 -8.8 6.8 0 c3.7 0 13.8 1.1 22.4 2.5 49.1 7.7 75.6 11.5 107.5 15.4 4.3 0.5 8.3 1.4 8.8 1.9 0.7 0.7 1.3 31.7 1.8 85 0.4 46.2 1.1 84.5 1.5 85.1 0.8 1.5 2 186.1 1.1 189.5 -0.6 2.3 -1.1 2.6 -4.4 2.5 -2 -0.1 -19.9 -5.6 -39.7 -12.3z"/>
  <path d="M1338.9 967.6 c-0.9 -0.9 -30.8 -2.8 -57.4 -3.7 -39.9 -1.2 -52.5 -2.2 -54 -4.2 -0.7 -1 -1.6 -12.9 -2.4 -33.9 -4 -104 -5.7 -143.5 -7.1 -168.3 -0.6 -9.3 -1.5 -26.9 -2 -39 -1.1 -24.2 -2.5 -48.5 -4 -73 -1.8 -28.2 -4.9 -88.6 -5 -95.2 0 -3.2 0.1 -3.3 4 -3.3 2.7 0 9.4 -2.3 21.3 -7.3 9.4 -4.1 23.1 -9.7 30.2 -12.5 7.2 -2.8 20.4 -8 29.5 -11.6 9.1 -3.5 21.9 -8.8 28.5 -11.7 6.7 -2.9 14 -5.4 16.6 -5.7 l4.7 -0.4 0.6 4.3 c0.7 6.3 1.6 58.6 2.6 162.4 1.2 122.1 3.7 250.5 5.6 290.8 l0.6 12.7 -5.9 0 c-3.3 0 -6.2 -0.2 -6.4 -0.4z"/>
  <path d="M1121 960.9 c-2.5 -0.5 -11.9 -1.8 -21 -2.9 -9.1 -1.1 -23.2 -2.8 -31.5 -3.9 -8.2 -1 -19.7 -2.4 -25.5 -3.1 -38 -4.2 -58.7 -7.3 -62.1 -9 -1.6 -0.9 -1.3 9.9 -5.9 -220 -0.6 -27.8 -1.3 -55.5 -1.6 -61.6 -0.4 -8.4 -0.2 -11.3 0.8 -12.1 2 -1.6 16.4 -7.4 35.8 -14.3 9.6 -3.5 21.6 -8.1 26.5 -10.3 5 -2.2 14.2 -6.1 20.5 -8.7 17.4 -7.2 40.6 -16.8 49.4 -20.6 4.4 -1.9 9.4 -3.4 11.2 -3.4 3.2 0 3.3 0.1 3.8 5.3 2 19.3 4.6 70.2 4.6 89.6 0 9.1 0.7 31.9 1.5 50.6 0.8 18.7 1.9 50.7 2.5 71 0.5 20.4 1.7 48.9 2.5 63.5 0.8 14.6 1.7 31.5 2.1 37.5 0.3 6.1 1.2 17.5 2 25.5 0.8 8 1.4 17.5 1.4 21.3 l0 6.7 -6.2 -0.1 c-3.5 -0.1 -8.3 -0.5 -10.8 -1z"/>
  <path d="M1477 1696.9 c0 -2.2 0.5 -2.9 2 -2.9 1.4 0 2 0.7 2 2.4 0 1.5 -0.7 2.6 -2 2.9 -1.7 0.4 -2 0 -2 -2.4z"/>
  <path d="M1477 1683.5 c0 -2.8 0.4 -3.5 2 -3.5 1.6 0 2 0.7 2 3.5 0 2.8 -0.4 3.5 -2 3.5 -1.6 0 -2 -0.7 -2 -3.5z"/>
  <path d="M1477 1641 c0 -30 0.2 -36 1.4 -36 0.7 0 1.6 1 1.9 2.2 0.3 1.2 0.6 17.4 0.7 36 0 33.3 0 33.8 -2 33.8 -2 0 -2 -0.5 -2 -36z"/>
  <path d="M1476 1502.5 c0 -40.6 0.2 -48.5 1.4 -48.5 0.7 0 1.6 1 2 2.3 0.3 1.2 0.6 23 0.6 48.5 0 45.5 0 46.2 -2 46.2 -2 0 -2 -0.7 -2 -48.5z"/>
  <path d="M1474.7 1379.4 c-0.6 -27 0 -42.4 1.8 -42.4 2.2 0 2.5 3.9 2.5 34.8 0 28.7 -0.1 30.2 -1.8 30.2 -1.8 0 -1.9 -1.5 -2.5 -22.6z"/>
  <path d="M1474 1220 c0 -54.7 0.2 -65 1.4 -65 0.7 0 1.6 1 2 2.3 0.3 1.2 0.6 30.4 0.6 65 0 62 0 62.7 -2 62.7 -2 0 -2 -0.7 -2 -65z"/>
  <path d="M1473 1038.5 c0 -46.6 0.2 -55.5 1.4 -55.5 0.7 0 1.6 1 2 2.3 0.3 1.2 0.6 26.2 0.6 55.5 0 52.5 0 53.2 -2 53.2 -2 0 -2 -0.7 -2 -55.5z"/>
  <path d="M1471.8 872.8 c-0.5 -55.9 0.1 -95.8 1.6 -95.8 0.8 0 1.6 1 2 2.3 0.3 1.2 0.6 29.8 0.6 63.5 0 60 0 61.2 -1.9 61.2 -1.9 0 -2 -1.1 -2.3 -31.2z"/>
  <path d="M1471 666 c0 -41.1 0.2 -49 1.4 -49 0.7 0 1.6 1 2 2.3 0.3 1.2 0.6 23.2 0.6 49 0 46 0 46.7 -2 46.7 -2 0 -2 -0.7 -2 -49z"/>
  <path d="M1470 505 c0 -41.9 0.2 -50 1.4 -50 0.7 0 1.6 1 2 2.3 0.3 1.2 0.6 23.7 0.6 50 0 47 0 47.7 -2 47.7 -2 0 -2 -0.7 -2 -50z"/>
  <path d="M1469 373.6 c0 -12.9 -0.3 -24.1 -0.6 -25 -0.5 -1.3 -2.7 -1.6 -13.5 -1.6 -10.6 0 -12.9 -0.3 -12.9 -1.5 0 -2 4.7 -2.6 18.5 -2.3 l12 0.3 0.3 26.8 c0.3 26.4 0.3 26.7 -1.7 26.7 -2.1 0 -2.1 -0.4 -2.1 -23.4z"/>
  <path d="M1415 347 c-1.4 -0.4 -4 -0.8 -5.7 -0.9 -2.1 -0.1 -3.3 -0.6 -3.3 -1.5 0 -2 5.2 -2.9 9.7 -1.7 2.1 0.6 5 1.1 6.6 1.1 2 0 2.7 0.5 2.7 2 0 1.7 -0.6 2 -3.7 1.9 -2.1 -0.1 -4.9 -0.5 -6.3 -0.9z"/>
 </g>
 <g fill="#00a9dd">
  <path d="M1414.5 1703.4 c-1.6 -0.9 -3.3 -2.1 -3.6 -2.7 -0.4 -0.5 -1.1 -0.7 -1.7 -0.3 -0.6 0.3 -1.3 0.2 -1.7 -0.4 -0.4 -0.6 -1 -0.8 -1.4 -0.5 -0.5 0.2 -0.8 -1 -0.8 -2.8 0 -1.7 -0.3 -24.6 -0.7 -50.7 -0.5 -26.1 -1 -90.7 -1.2 -143.5 -0.9 -241.5 -1.4 -329.4 -1.9 -335 -1.3 -15.5 -2.2 -115.3 -3.1 -341.5 -0.3 -93.8 -0.8 -170.8 -1 -171.1 -0.9 -1.7 -0.5 -296.6 0.5 -299.7 0.6 -1.9 1.5 -4 2.2 -4.8 0.9 -1.1 0.8 -1.4 -0.5 -1.4 -0.9 0 -1.6 -0.7 -1.6 -1.5 0 -0.8 0.3 -1.4 0.8 -1.3 0.4 0.1 2.2 -0.6 4.1 -1.6 2.8 -1.5 4.7 -1.7 10 -1.2 7.8 0.7 40.3 0.7 51.3 0 7 -0.5 7.7 -0.4 7.6 1.3 0 1 0.3 28.6 0.6 61.3 0.9 83.6 2.6 362.7 2.6 428 0 30 0.2 60.8 0.5 68.5 0.2 7.7 0.7 81.7 1 164.5 0.3 82.8 0.8 184 1.1 225 0.3 41 1 129.9 1.4 197.5 0.5 67.7 1.1 141.9 1.3 165 0.3 23.1 0.3 42.6 0 43.2 -0.2 0.7 -2.1 1.7 -4.1 2.2 -5.8 1.5 -29.3 3.9 -44.7 4.6 -11.9 0.5 -14.4 0.3 -17 -1.1z"/>
  <path d="M1371.5 1648.9 c-16.8 -6.8 -52.6 -22.5 -79.5 -34.9 -31.9 -14.7 -54 -24.4 -69.7 -30.4 -13.4 -5.2 -16.7 -7.8 -17.9 -14.4 -1.1 -5.1 -1.1 -250.4 -0.1 -283.2 1.3 -41 2.6 -71.3 3.8 -81.8 0.5 -5.4 0.7 -12.4 0.4 -15.7 -0.8 -7.8 1.3 -12 7.7 -15.5 l4.6 -2.4 13.3 1.2 c7.4 0.7 16.8 1.7 20.9 2.2 4.1 0.5 13.6 1.4 21 2 7.4 0.6 17.1 1.5 21.5 2 4.4 0.5 17 1.9 28 3 44.1 4.6 49.1 5.5 53.7 9.8 4.1 3.7 5.1 8.2 4.3 17.5 -0.3 4.4 -0.2 24.9 0.4 45.6 2 65.1 4.2 147.2 5.1 185.1 1.2 48.3 4.7 144.6 6.1 163.9 0.9 13.5 0.8 16.4 -0.7 22.3 -1.4 5.7 -1.4 7.9 -0.5 12.7 1.3 6.8 0.2 11.1 -3.4 13.5 -3.8 2.5 -8.2 1.9 -19 -2.5z m2.6 -25.6 c-0.6 -2.1 -1.1 -12.3 -1.1 -22.8 0 -10.4 -0.5 -31.4 -1 -46.5 -0.5 -15.1 -1.2 -39.4 -1.5 -54 -0.3 -14.6 -1 -34.8 -1.5 -45 -0.6 -10.2 -1.5 -34.2 -2 -53.5 -0.6 -19.2 -1.5 -47.6 -2 -63 -4.6 -122.9 -4.7 -124.6 -6.1 -126 -0.9 -0.8 -8.1 -1.8 -20.9 -2.9 -10.7 -0.9 -25.1 -2.1 -32 -2.7 -6.9 -0.6 -19 -1.7 -27 -2.5 -30.1 -3 -53 -4.7 -53.6 -4.1 -0.4 0.4 -0.2 9.1 0.5 19.4 2.6 42.6 3.4 100.2 3 219.8 l-0.4 122 7 3.7 c7.8 4.1 48.9 22.5 66 29.5 11.4 4.7 62.1 27.5 69 31.1 2.2 1.1 4.1 1.9 4.3 1.7 0.2 -0.2 -0.1 -2 -0.7 -4.2z"/>
  <path d="M1148.5 1574.3 c-7.3 -1.8 -56.7 -17.9 -103 -33.6 -18.7 -6.3 -38.9 -12.7 -44.9 -14.2 -11.4 -2.8 -13.7 -3.8 -16.3 -7.5 -4.4 -6.3 -1.2 -296.2 3.7 -338 0.6 -4.7 0.7 -11.6 0.4 -15.5 -0.5 -6.3 -0.3 -7.4 1.8 -10.5 1.3 -1.9 4.1 -4.4 6.3 -5.4 l3.9 -1.9 41 6.7 c70.6 11.6 104.9 18.3 112.4 21.8 2.3 1.1 4.7 2.9 5.3 4.1 1.1 1.9 1.1 16.7 0.5 230.7 -0.1 14.6 0.3 56 0.7 92.1 l0.8 65.7 -2.3 2.6 c-2.3 2.6 -6.6 3.9 -10.3 2.9z m-4.9 -23.9 c0.8 -3.1 -0.3 -178.8 -1.1 -182.4 -0.4 -1.4 -1 -40.2 -1.4 -86.3 -0.6 -53.1 -1.2 -84.2 -1.9 -84.9 -0.5 -0.5 -4.5 -1.4 -8.8 -1.9 -31.9 -3.9 -58.4 -7.7 -107.5 -15.4 -8.6 -1.4 -17.3 -2.5 -19.4 -2.5 l-3.8 0 0.7 5.3 c0.3 2.8 1.3 26.8 2.2 53.2 1.1 35.3 1.5 77.2 1.3 158.5 0 60.8 -0.1 111 0 111.6 0.1 1.6 19.9 8.8 45.3 16.6 11.2 3.5 36.5 11.7 56.3 18.4 19.8 6.7 36.3 12.2 36.7 12.3 0.4 0 1.1 -1.1 1.4 -2.5z"/>
  <path d="M1351 984.9 c-1.4 -0.6 -13.7 -1.7 -27.5 -2.5 -13.7 -0.8 -28.1 -1.9 -32 -2.4 -11.1 -1.6 -24.8 -2.8 -41 -3.5 -8.2 -0.4 -17.8 -1.3 -21.3 -2.1 -3.5 -0.8 -7.4 -1.4 -8.7 -1.4 -1.4 0 -3.9 -1.3 -5.7 -2.9 l-3.2 -2.8 -0.2 -19.9 c-0.1 -10.9 -0.5 -26.2 -0.9 -33.9 -1.1 -25.9 -3.4 -103.8 -4 -134.5 -0.3 -16.8 -1 -49.4 -1.5 -72.5 -0.5 -23.1 -1.2 -65.4 -1.5 -94 -0.3 -28.6 -0.8 -57.7 -1.1 -64.7 -0.8 -18.9 -0.7 -19 22.9 -27.3 19.6 -6.9 32.4 -11.7 52.6 -19.9 9.1 -3.7 22.4 -8.7 29.7 -11.1 7.3 -2.5 18.9 -7 25.8 -9.9 6.9 -3 13.4 -5.6 14.4 -5.7 4.6 -0.4 6.7 0.4 10.2 3.9 l3.8 3.8 -0.5 20.4 c-0.6 22.5 1.2 135.2 2.8 171 0.9 21 1.9 84.5 3.5 228 0.9 73.6 0.3 79.4 -8 83.4 -3.9 1.8 -5.1 1.9 -8.6 0.5z m-3.5 -30.1 c-0.9 -20.5 -1.5 -42 -2.5 -96.6 -0.5 -30.6 -1.2 -64 -1.5 -74.2 -0.3 -10.2 -0.7 -42.8 -1 -72.5 -0.9 -96.5 -2.5 -202.9 -3.1 -206.8 -0.7 -4.5 -0.1 -4.6 -16.4 2.5 -6.3 2.7 -18.9 7.9 -28 11.4 -9.1 3.6 -22.3 8.8 -29.5 11.6 -7.1 2.8 -20.8 8.4 -30.2 12.5 -12 5 -18.5 7.3 -21.4 7.3 l-4 0 0.5 9.2 c0.3 5.1 1 19 1.6 30.8 0.6 11.8 1.5 28.3 2 36.5 2.2 33.6 3 48 4 69 1.2 25.3 1.6 34.1 3 59 1.5 27.6 2.9 59.4 7.1 168.8 0.8 20.6 1.7 32.4 2.4 33.4 1.5 2 14.1 3 54 4.2 26.6 0.9 56.5 2.8 57.4 3.7 0.2 0.2 1.7 0.4 3.3 0.4 l2.8 0 -0.5 -10.2z"/>
  <path d="M1131.5 968.9 c-2.7 -0.4 -16 -2.2 -29.5 -3.9 -13.5 -1.8 -35.5 -4.7 -49 -6.7 -43.1 -6.1 -53.2 -7.4 -65.9 -8.2 -11.2 -0.7 -12.6 -1.1 -14.3 -3.1 -1.7 -2 -1.8 -5 -1.9 -38.9 -0.1 -20.1 -0.2 -44.9 -0.4 -55.1 -0.1 -10.2 -0.6 -59.6 -0.9 -109.9 l-0.7 -91.5 -2.9 -3.3 c-3.7 -4.1 -4.6 -7.5 -3 -11.2 1.9 -4.7 4.9 -6.7 15.4 -10.6 5.4 -2.1 16.4 -6.6 24.5 -10.2 8 -3.6 24.7 -10.2 37.1 -14.8 12.4 -4.5 30.4 -11.3 40 -15 22.2 -8.5 42.8 -15.5 45.7 -15.5 1.2 0 3.7 1.3 5.5 2.9 l3.3 2.9 0.7 44.4 c0.4 24.4 1.2 50.2 1.7 57.3 0.6 7.2 1.9 32.8 3.1 57 1.1 24.2 2.5 52 3 61.8 3.1 52.5 5.5 132.4 4.8 154.5 -0.7 19 -1.3 19.6 -16.3 17.1z m3.5 -14.1 c0 -2.4 -0.4 -8.1 -1 -12.8 -0.9 -8.6 -2.5 -30 -3.5 -49 -0.3 -5.8 -1 -18.4 -1.5 -28 -0.9 -18 -1.6 -35.1 -2.5 -71 -0.4 -11.3 -1.3 -35.8 -2 -54.5 -0.8 -18.7 -1.5 -41.4 -1.5 -50.5 0 -20.8 -4.1 -93.4 -5.3 -94.6 -0.2 -0.2 -3.9 1.1 -8.3 3 -8.8 3.8 -32 13.4 -49.4 20.6 -6.3 2.6 -15.5 6.5 -20.5 8.7 -4.9 2.2 -16.9 6.8 -26.5 10.3 -19 6.8 -33.8 12.6 -35.7 14.2 -0.8 0.6 -1.1 3.1 -0.8 7.1 0.3 3.4 0.9 30.1 1.5 59.2 4 209.5 4.3 220.6 5.9 221.5 3.4 1.7 24.1 4.8 62.1 9 5.8 0.7 17.3 2.1 25.5 3.1 8.3 1.1 22.4 2.8 31.5 3.9 9.1 1.1 18.5 2.4 21 2.9 2.5 0.5 6 0.9 7.8 1 3.1 0.1 3.2 0 3.2 -4.1z"/>
 </g>
</svg>