<?xml version="1.0" encoding="utf-8"?>
<!DOCTYPE svg PUBLIC "-//W3C//DTD SVG 1.0//EN" "http://www.w3.org/TR/2001/REC-SVG-20010904/DTD/svg10.dtd">
<svg version="1.0" xmlns="http://www.w3.org/2000/svg" width="2500px" height="2500px" viewBox="0 0 2500 2500" preserveAspectRatio="xMidYMid meet">
 <g fill="#2b3f45">
  <path d="M1219 1550.4 c-30.6 -2.2 -61.4 -6.2 -88.8 -11.5 -16.1 -3.1 -16.2 -3.2 -16 -5.7 0.3 -2.1 -0.2 -2.7 -2.7 -3.4 -1.6 -0.4 -11.8 -3.1 -22.5 -5.9 -26.2 -6.9 -24.4 -6.6 -23.7 -4 0.4 1.8 0.1 2.1 -2.3 2.1 -3.2 0 -29.7 -8.9 -48.4 -16.2 -12.6 -4.9 -13.2 -5.3 -15.1 -9.2 -1.1 -2.3 -3.1 -4.6 -4.5 -5.3 -1.4 -0.7 -11.7 -5.7 -23 -11.2 -26.1 -12.6 -47.2 -24.7 -72.9 -41.8 -17.2 -11.4 -20.5 -13.3 -21.3 -11.9 -0.5 0.9 -1.8 1.6 -3 1.6 -1.1 0 -10.3 -6.7 -21.2 -15.5 -26.9 -21.8 -26.5 -21.3 -22.9 -23.4 1.4 -0.7 -1.9 -4.4 -20.4 -22.5 -12.1 -11.9 -26.6 -26.7 -32.1 -32.8 -50.8 -57 -88.9 -118.7 -117.2 -189.7 -3.2 -8 -6.4 -16.5 -7.1 -18.9 -1.9 -6.4 -2.6 -6.7 -12.6 -4.7 -11.4 2.3 -29.5 1.6 -40.3 -1.4 -10.8 -3.1 -30.4 -13 -40.1 -20.3 -29.2 -21.9 -50.1 -54.4 -58.9 -91.8 -5.9 -25.4 -5.7 -53.8 0.7 -76 10.6 -37 40.1 -64.5 73.8 -68.8 4.9 -0.6 5.9 -1.1 5.7 -2.5 -0.6 -3.3 2.7 -1.7 7.9 3.8 8.9 9.4 20.6 13.4 29.7 10.1 11.7 -4.2 20.4 -14.3 25.1 -28.9 1.6 -5.1 4.8 -19.5 7.1 -32.2 3.3 -17.4 6.6 -31.1 14 -56.5 16.3 -56 22 -74.9 26.6 -89.2 10.4 -32.2 10.9 -41.9 2.9 -53.8 -3.5 -5.2 -4.6 -9.3 -2.2 -8.5 0.7 0.3 3.9 -4.3 8.2 -11.7 9.6 -16.5 25.5 -40.3 39 -58.3 57 -76.1 126.2 -134.8 205.5 -174.5 14.1 -7 16.2 -8.5 20.9 -13.8 6.5 -7.6 11.6 -10.9 27.8 -17.8 66.2 -28.8 132.1 -45 208.3 -51.6 19.2 -1.6 73.5 -1.6 92.5 0 115 10 215.8 44.8 308.5 106.5 78.2 52.1 147 124.7 194 205 4.1 7 6.8 10.6 7.7 10.3 2.1 -0.9 1.5 3 -1.2 6.9 -1.3 2 -3.4 6.2 -4.5 9.3 -2.7 7 -2.2 12 1.9 20 1.6 3.1 6.2 15.8 10.4 28.2 4.1 12.4 10.1 29.3 13.2 37.5 10.1 26.3 24.7 73.9 28.9 94.2 2 9.3 3.3 21.2 4.6 40.4 1.2 18.8 2.9 25 7.9 30 8.2 8.3 31.9 9.2 46.3 1.8 6 -3.1 11.3 -8.4 16.5 -16.5 4.3 -6.9 7.3 -9.3 7.3 -6 0 0.9 2.6 2 7.2 3.2 23 5.6 43.9 24.3 53.7 47.9 6.2 14.7 8.3 25.2 8.8 43.5 1 32 -5.2 60 -19.2 87.9 -27.2 54.2 -73.5 87.3 -116.9 83.6 -16.8 -1.4 -14.4 -2.9 -19.7 12.2 -34.2 97.3 -93 186.6 -167.9 255.1 -6.3 5.8 -11.7 10.9 -11.9 11.4 -0.1 0.5 0.5 1.6 1.5 2.4 1.8 1.3 1.6 1.7 -3.9 6.9 -5.6 5.3 -23.9 20.2 -28.4 23.2 -1.9 1.3 -2.5 1.2 -4.7 -0.3 -3 -1.9 -1.3 -2.8 -20.6 10.9 -10.4 7.4 -11.3 8.6 -9.7 12.7 0.5 1.1 -1.5 2.8 -7.1 6.3 -7.8 4.8 -11.2 5.8 -11.2 3.3 0 -0.8 -0.4 -1.7 -0.9 -2 -0.5 -0.3 -6.7 2.8 -13.8 7.1 -16.1 9.6 -48.6 26.1 -66.3 33.7 -14.9 6.3 -16.5 7.4 -17.3 11.4 -0.5 2.6 -1.8 3.2 -17.9 9 -18.8 6.8 -33.1 11.2 -36 11.2 -1.5 0 -1.7 -0.5 -1.2 -2.7 0.6 -2.4 0.5 -2.6 -1.7 -1.9 -23.2 6.6 -55.5 14 -75.1 17.2 -10.6 1.7 -10.8 1.7 -10.8 4.4 l0 2.7 -14.2 1.7 c-7.9 0.9 -19 2.1 -24.8 2.7 -10.6 1 -77.8 2 -88 1.3z m68 -65.4 c142.2 -10 270.7 -68 370.1 -167 183.8 -183.2 221.6 -465.8 92.3 -691.1 -16.3 -28.4 -40.6 -62.8 -62.5 -88.4 -13.2 -15.4 -46 -48.2 -61.4 -61.4 -74.6 -63.9 -163.6 -107.7 -260 -128 -30.1 -6.4 -57.9 -9.7 -94.4 -11.3 -61.7 -2.7 -123.6 4.7 -183.3 21.8 -26.2 7.4 -39.3 12.3 -79.2 28.9 -7.2 3 -10.6 3.8 -17.5 4.3 -9.7 0.5 -12.2 1.6 -29.1 11.9 -46.3 28.6 -85.4 59.5 -122.5 96.7 -30.7 30.7 -48.4 52.2 -71 86.1 -54 81 -85.5 168.1 -95.5 264.5 -2.9 28 -2.9 87.3 0 116.5 12.8 129.6 68.5 248.7 160.5 343.4 61.6 63.3 140.4 113.6 223.5 142.6 46.7 16.3 100 27.2 148 30.4 18.3 1.2 65.2 1.2 82 0.1z m-653.6 -418.3 c1.8 -1.3 1.7 -2 -1.7 -16.3 -8.4 -35 -13.8 -73.4 -15.9 -113.3 -1.4 -26.2 -0.1 -24.1 -15.8 -24.1 -25 0 -40.9 12.6 -47.9 38.1 -12.4 44.5 19.1 105.5 59.6 115.3 7.6 1.9 19.4 2 21.7 0.3z m1259.8 -14.6 c12.4 -4.8 29 -19.1 38.2 -33 9.5 -14.2 17.7 -34.7 21 -52 5.9 -30.9 -4.9 -62.4 -23.4 -68.6 -4.5 -1.5 -6.9 -1.6 -14.9 -1 -5.3 0.5 -13.4 0.9 -18.1 1.1 l-8.5 0.3 -0.2 10.8 c-0.9 46.7 -5.4 89.5 -13.3 128.8 -2.1 10.6 -2.6 14.3 -1.7 15.4 1.6 1.9 13.8 0.9 20.9 -1.8z"/>
  <path d="M1216.5 1369.6 c-31.5 -5.2 -59 -18.4 -84.1 -40.4 -22.4 -19.7 -43.3 -51.3 -52.3 -79.2 -1.8 -5.8 -4.2 -12.2 -5.2 -14.2 -2.8 -5.5 -2.5 -10.9 0.9 -14 1.5 -1.5 3.9 -3 5.4 -3.3 1.4 -0.4 9.3 0.5 17.5 1.9 107.8 18.6 220 13.6 280.8 -12.4 9.8 -4.2 16.3 -1.7 15.1 5.7 -0.3 2.1 -0.8 7.4 -0.9 11.8 -0.6 14.3 -9.9 43.3 -19.4 60.5 -24 43.4 -61.9 72.4 -107.2 82.1 -12.4 2.6 -39 3.4 -50.6 1.5z m41.8 -27.1 c45.5 -9.5 81.5 -41.3 101.1 -89.2 2.5 -6.1 4.6 -11.6 4.6 -12.2 0 -0.5 -3.1 0.1 -6.9 1.4 -14.4 4.9 -41.5 9.8 -69.6 12.7 -17.4 1.7 -96 1.7 -118.5 0 -17.3 -1.4 -56.3 -5.8 -59.2 -6.8 -1 -0.3 -1.8 -0.2 -1.8 0.3 0 0.4 2.2 5.2 4.9 10.6 19 37.7 50.8 66.8 85.8 78.5 8.6 2.9 20.8 5.6 29.8 6.6 6.5 0.7 22.1 -0.3 29.8 -1.9z"/>
  <path d="M1456 1017.7 c-16.8 -7 -27.7 -20.2 -35.5 -42.6 -5.4 -15.7 -6.8 -25.7 -6.9 -46.6 0 -19.6 1.5 -31.3 6.1 -46 6.8 -21.7 19.9 -37.4 35.2 -42 1.3 -0.4 4.3 -2.2 6.6 -4 5.7 -4.3 10.1 -5 17.3 -3 11.9 3.5 19.9 9.7 28.2 22 7 10.4 8.5 13.7 12.9 29.5 11.6 40.7 6 83.7 -14.5 112.6 -5.6 8 -14 15.6 -21.1 19 -8.1 4 -20.4 4.5 -28.3 1.1z m20.5 -30.1 c8.7 -6.7 16.5 -31.4 18.1 -57.5 1.3 -21.7 -2 -40.9 -9.6 -56.1 -3.7 -7.2 -6.8 -10 -13.2 -11.6 -6.2 -1.7 -6.3 -1.6 -10.8 8.3 -8.5 18.4 -11.9 32.6 -12.7 52.4 -1.1 26.8 4.8 51.3 15.2 63.7 3.4 4.1 8.3 4.3 13 0.8z"/>
  <path d="M943 1016.9 c-14.3 -2.3 -28.4 -13.6 -36.7 -29.4 -11.7 -22.5 -15.5 -45.4 -11.9 -72.5 3.7 -27.3 11.8 -47 25.2 -61 3.4 -3.6 6.5 -7.6 6.9 -8.9 1.3 -4.3 7.4 -9.9 12.7 -11.7 14.3 -4.7 32.6 4.9 45.2 23.9 20.3 30.6 25.2 75.5 12.6 115.7 -7.6 24.4 -23.2 41 -41 43.9 -3.6 0.6 -6.7 1 -7 1 -0.3 -0.1 -3 -0.5 -6 -1z m12.2 -41.6 c6.9 -7.4 10.8 -20.6 11.5 -38.8 0.9 -22.6 -1.7 -39.6 -8.1 -53 -4.4 -9.3 -7.4 -12.1 -14.4 -13.6 -3.1 -0.6 -6.2 -1.4 -6.9 -1.6 -2.3 -0.9 -7 11.3 -8.9 22.6 -2.9 17.9 -0.6 38.7 6.7 62 3.3 10.4 6.3 16.2 11.1 21.6 3.6 4.2 5.6 4.4 9 0.8z"/>
 </g>
 <g fill="#00b4f1">
  <path d="M1324.1 2219.9 c-3.3 -1.7 -7.3 -4.6 -8.7 -6.4 -1.9 -2.6 -3.4 -3.5 -6.2 -3.7 -3.5 -0.3 -3.8 -0.6 -5.5 -5.7 -1 -3 -2.1 -8.3 -2.4 -11.7 -0.6 -6 -0.5 -6.2 1.8 -6.6 2.3 -0.3 2.4 -0.6 2.1 -6.2 -0.1 -3.3 -0.5 -6.2 -0.7 -6.5 -0.3 -0.2 -1.4 0.4 -2.5 1.4 -2 1.8 -2 1.8 -2 -7.1 0 -16.4 2 -91.6 3 -114.9 1.2 -26.5 5.3 -84 7.6 -106 4 -39.6 11.8 -97.4 16 -119 3.7 -19.2 12.4 -55.8 13.6 -57 0.6 -0.7 1.4 -0.3 2.4 0.9 0.7 1.1 1.5 1.8 1.7 1.5 0.2 -0.2 2.7 -9.6 5.6 -20.9 9.6 -37 23.8 -82.2 42 -133.2 4.1 -11.4 13.6 -34.3 25.7 -61.4 11.6 -26.3 16.1 -35.4 17.7 -35.8 7.2 -2.1 35 -11.5 42.9 -14.6 5.6 -2.2 10.4 -3.8 10.6 -3.6 1 1.1 -10.6 39.2 -23 75.6 -4.9 14.6 -12.1 35.5 -15.8 46.5 -24.5 71.6 -50.7 165.7 -60.4 216.5 -4.6 23.9 -13.3 94 -16 129 -4.6 58.7 -5.6 83.8 -6.2 158.5 -0.5 71.7 -0.5 71.6 -6.3 80.6 -7.8 12.4 -23.5 16.5 -37 9.8z"/>
  <path d="M1708.7 2202.6 c-10 -3.7 -16.2 -10.9 -19.9 -22.9 -1.9 -6.4 -2.1 -6.7 -3.8 -5.2 -1.4 1.2 -1.9 1.3 -2.7 0.3 -1.1 -1.4 -2.4 -22.1 -2.9 -47.3 -0.1 -8.8 -0.8 -22.1 -1.4 -29.5 -0.6 -7.4 -1.3 -19.6 -1.6 -27 -0.3 -7.4 -0.9 -14.8 -1.5 -16.4 -0.5 -1.7 -1.4 -10.2 -1.9 -19 -0.6 -8.9 -1.7 -22.2 -2.5 -29.6 -2.4 -21.6 -4 -40.7 -7.5 -90.5 -1.2 -15.9 -2.6 -31.8 -3.2 -35.3 -1.5 -9.1 -0.5 -56 1.4 -63.4 3 -11.4 6.7 -14.3 18 -14.3 7.4 0 7.8 0.1 11.3 3.5 4.8 4.6 6.4 7.8 5.8 11.6 -0.3 1.8 1 8.8 3 16.5 2 7.4 5 20.2 6.7 28.4 2.9 13.8 5 19.9 5 15 0.1 -4.3 2.9 1.6 3.5 7.4 0.4 3.1 1.8 12.3 3.1 20.4 1.4 8.1 4 25.2 5.9 38 1.9 12.8 3.9 25.6 4.5 28.5 0.6 2.8 1.5 8.9 2 13.5 0.4 4.5 1.6 12.9 2.4 18.7 7.1 45.9 8.8 61.6 11.6 103 0.5 6.9 1.3 16.3 1.8 21 0.6 4.7 1.1 13.5 1.1 19.5 0.1 7 0.5 11.1 1.2 11.6 0.9 0.5 0.6 1.7 -0.8 4 -1.2 2 -2.5 6.8 -3.1 11.4 -1.2 9 -2.8 13.2 -6.9 19 -5.9 8.1 -19.6 12.5 -28.6 9.1z"/>
  <path d="M1959.9 2202.6 c-7.4 -2.6 -13.4 -8.3 -17.5 -16.6 -2.3 -4.7 -3.4 -9.9 -7 -35.5 -2.3 -16.5 -5.2 -38.3 -6.4 -48.5 -1.2 -10.2 -3.9 -30.9 -6.1 -46 -7.9 -55.2 -9.5 -71.3 -16 -163 -1.8 -25.8 -0.7 -103.5 1.9 -133 5.2 -58.5 10.3 -90.3 18.7 -117.2 3.7 -11.7 7.4 -26.8 7.9 -32.4 1.8 -18.5 1.9 -17.1 -1.3 -21.7 -3.9 -5.7 -13.7 -14.8 -24.3 -22.4 -4.8 -3.5 -8.9 -6.3 -9.2 -6.3 -0.3 0 -0.6 0.7 -0.6 1.6 0 2.6 -4.6 0.9 -13 -4.8 -19.7 -13.5 -20.2 -13.9 -19.7 -16.7 0.5 -2.5 -0.4 -3.1 -29.7 -17.4 -16.7 -8.1 -31 -14.7 -32 -14.7 -0.9 0 -1.6 0.7 -1.6 1.5 0 0.8 -0.5 1.5 -1 1.5 -0.6 0 -7.6 -2.9 -15.5 -6.5 -8 -3.6 -15 -6.5 -15.6 -6.5 -0.6 0 -0.8 -0.9 -0.4 -1.9 0.7 -2.3 0.2 -2.6 -9.8 -6.8 -8.9 -3.6 -23.5 -11.6 -38.3 -20.9 -8.3 -5.2 -20.3 -11.4 -22 -11.4 -0.2 0 -0.4 0.7 -0.4 1.6 0 2.2 -5 1 -11.8 -2.9 -2.9 -1.6 -8.8 -4.5 -13 -6.3 -5.8 -2.5 -7.7 -3.8 -7.7 -5.3 0 -1.5 -2.4 -3.3 -9.8 -7.1 -11.2 -5.7 -17 -9.5 -21 -13.8 l-2.8 -2.9 2.4 -1.6 c4.2 -2.7 17.9 -13.9 25.9 -20.9 l7.7 -6.9 14.8 4.7 c16.4 5.2 47.4 18.5 62.8 26.9 20.3 11.2 32.3 16.9 43 20.5 19.5 6.6 41.5 16.3 92 40.4 24.2 11.7 58.8 36 77.5 54.6 27.3 27.1 30.7 49.2 16.9 109.2 -10.6 46.3 -12.2 57.1 -14.1 91.8 -1.4 27.6 -1.4 110.8 0.1 136 2.2 35.9 12.3 130.9 17.6 165 1.3 8.5 3.6 24.1 5 34.5 6.7 49.5 10.7 77.9 12 85.6 2 11.2 1.9 15.4 -0.5 23.1 -2.5 8 -8 14.6 -15.2 18.2 -4.2 2.1 -6.6 2.6 -12.2 2.6 -3.9 -0.1 -8.7 -0.7 -10.7 -1.4z"/>
  <path d="M496.4 2201.2 c-7.2 -2.5 -12.6 -7.1 -16.2 -13.9 -4.2 -8 -5.6 -16.4 -4.8 -29.8 0.4 -6 1.1 -34.4 1.6 -63 1.1 -66.6 3.5 -97.1 15.5 -201 4.7 -40 15.2 -125.6 17 -137.5 3.3 -22.3 5.5 -48.2 6.1 -72 0.8 -29.9 -0.1 -39.6 -5.1 -54.3 -1.8 -5.6 -5 -16.5 -7 -24.2 -3.5 -13.2 -3.7 -14.7 -3.2 -25.5 0.7 -16.4 4.8 -28.3 15 -43.5 8.3 -12.4 29.9 -30.4 53.2 -44.3 49.1 -29.2 102.8 -52.2 185 -79.3 30.8 -10.1 66.3 -21 75.7 -23.3 2.2 -0.5 3.6 0.1 7.6 3.7 8.9 7.9 39 31.7 40.1 31.7 0.6 0 1.1 0.2 1.1 0.4 0 0.2 -5.6 13.4 -12.4 29.3 -15.1 35.2 -25.1 61.5 -36.6 96.3 -11.8 35.7 -13.5 42.6 -12.6 51.3 0.7 6.5 0.9 6.8 4.4 8.6 4.8 2.4 18.5 6.5 28.7 8.6 18.7 3.7 67 17.7 69.7 20.2 3.1 2.8 4.8 6.8 4.8 11.3 0 2.2 -1.8 12.4 -4 22.5 -5.2 24.1 -7.5 40.6 -10 70.3 -2.5 30.3 -2.5 33.4 -0.2 35.5 0.9 0.8 5.1 3.1 9.2 5 12 5.5 33.4 20.7 47.4 33.8 20.3 19 62.2 80 81.9 119.5 12.7 25.2 26.7 65.8 35.2 101.8 7.8 32.9 20 100.2 21.5 118.6 0.5 5.8 1.2 12.2 1.6 14.2 0.5 3.3 0.2 4.1 -2.4 6.8 -2.6 2.5 -3.8 3 -8 3 -3.9 0 -5.7 -0.6 -8 -2.5 -4.2 -3.5 -5.8 -8.4 -7.7 -23.1 -1.8 -14.1 -7.1 -44.4 -8 -45.2 -0.3 -0.3 -0.5 0.2 -0.5 1.1 0 0.9 -0.6 1.7 -1.4 1.7 -0.9 0 -1.9 -2.6 -2.9 -7.7 -3.6 -18 -4.6 -23.3 -6.3 -32.8 -0.9 -5.5 -2.1 -10.7 -2.5 -11.5 -1.1 -1.9 -4.9 -18.5 -4.9 -21.1 0 -5.9 -11.7 -42.8 -21.5 -68 -5.1 -13 -5.4 -14.3 -4.1 -16.7 1.2 -2.4 1.1 -3.2 -1.5 -8.7 -1.5 -3.3 -3 -7.2 -3.3 -8.7 -0.3 -1.4 -2.3 -4.8 -4.4 -7.5 -2.1 -2.6 -5.8 -8.2 -8.2 -12.3 -8.8 -15.3 -20.5 -32.4 -20.8 -30.7 -0.4 1.8 -2 2.2 -3.7 0.9 -0.6 -0.4 -2.3 -2.7 -3.9 -5.2 -7.3 -11.4 -27.8 -38.2 -34 -44.4 -2.8 -2.7 -3.1 -3.5 -2.2 -5.5 0.9 -2.1 0.6 -2.8 -2.4 -5.3 -7.5 -6.4 -24.8 -18.9 -30 -21.7 -7.8 -4.1 -10 -4.6 -10 -2.5 0 1.3 -0.6 1.5 -3.2 1 -1.8 -0.3 -3.4 -1 -3.8 -1.5 -0.3 -0.4 -1.9 -1.5 -3.5 -2.4 -5.2 -2.6 -11.3 -9.3 -12.5 -13.6 -1.1 -4.4 -0.1 -27.7 2.6 -57.6 0.8 -9.3 1.9 -22.5 2.4 -29.3 0.5 -6.7 1.2 -12.7 1.5 -13.2 0.9 -1.5 3.3 -1.2 4.2 0.5 0.6 1 2.3 -4.5 5.2 -16.1 2.4 -9.6 4.2 -17.6 4 -17.8 -0.5 -0.4 -15.2 -4.6 -16.2 -4.6 -0.4 0 -0.7 0.7 -0.7 1.5 0 2.1 -4.3 1.9 -11.6 -0.4 -3.2 -1.1 -7.8 -2.5 -10.1 -3.1 -3.6 -0.9 -4.3 -1.5 -4.3 -3.5 0 -1.7 -0.7 -2.6 -2.2 -3 -3.9 -0.9 -32.2 -7.7 -34.5 -8.2 -1.7 -0.4 -2.3 -0.1 -2.3 1.2 0 1.4 -0.6 1.7 -3.4 1.2 -1.9 -0.3 -5 -1.2 -6.8 -2 -1.8 -0.8 -4.8 -2 -6.5 -2.7 -1.8 -0.7 -3.3 -1.6 -3.3 -2.1 0 -0.4 -0.8 -1 -1.7 -1.3 -2.7 -0.9 -6.8 -4.7 -9.2 -8.6 -1.7 -2.8 -2.1 -5.1 -2.1 -11.3 0 -8.2 1.5 -15.3 7.6 -35.9 1.9 -6.5 3.4 -12.8 3.4 -14.1 0 -2.7 7.5 -25.4 9 -27.2 0.6 -0.7 1.9 -3.7 2.9 -6.6 1.8 -5.3 5.1 -8.1 5.1 -4.3 0 3.1 1.2 0.7 7.7 -15.8 8.1 -20.5 17.8 -42.6 25.4 -58.1 3.3 -6.6 5.8 -12.2 5.6 -12.4 -0.2 -0.2 -4.6 1.7 -9.8 4.1 -5.2 2.5 -13.9 5.9 -19.4 7.6 -21.2 6.7 -21 6.6 -21 8.5 0 1.4 -3 2.8 -14 6.6 -7.7 2.6 -14.3 4.8 -14.7 4.9 -0.5 0 -0.8 -0.7 -0.8 -1.5 0 -0.8 -0.4 -1.5 -0.9 -1.5 -1.4 0 -49.9 16.6 -57.8 19.8 -4.9 2 -6.8 3.2 -6.8 4.6 0 1.3 -2.6 2.8 -11 6.2 -9.7 3.9 -11.1 4.2 -12.1 2.9 -1.1 -1.5 -8.6 1.4 -53.2 20.5 -1.3 0.6 -2.2 1.7 -2 2.6 0.2 1.2 -3.7 3.1 -15.7 7.9 -8.8 3.5 -16.1 6.8 -16.3 7.4 -0.6 1.7 -3.2 1.3 -3.2 -0.4 0 -2.4 -2 -1.8 -10.5 3.2 -20.8 12.1 -30.7 24.2 -35 42.7 -2 8.6 -0.9 20 2.9 29.2 1.3 3.3 5.2 19.5 8.5 36 5.1 25.6 6.1 32.5 7 48 1.1 18.1 0.3 45.5 -1.9 66.4 -0.5 5.2 -1.5 15.8 -2 23.5 -0.6 7.7 -1.8 18.7 -2.6 24.5 -2 14.5 -7.2 60.3 -8.9 79 -0.8 8.5 -3 31.5 -4.9 51 -2 19.5 -4 40.7 -4.6 47 -0.6 6.3 -1.4 14.9 -2 19 -0.5 4.1 -0.9 12.8 -1 19.2 0 14.7 -1.7 40.7 -3.1 47.3 -1.8 9 -3.9 31.8 -3.9 43.5 0 11.2 1.2 29.8 2.9 43.1 2.1 16 -2.2 31.4 -11 39.3 -7.9 7.1 -17.6 9.2 -27.5 5.8z"/>
  <path d="M701.2 2199.4 c-5.8 -2.9 -9 -6.5 -12.4 -14 -2.2 -4.6 -2.3 -6.1 -2.3 -26.4 0 -37.1 3.6 -126.4 5.9 -147.3 0.9 -7.3 2 -22 2.6 -32.7 0.5 -10.7 1.2 -23.1 1.5 -27.5 1.6 -23.2 2.5 -47.8 2.4 -68.4 0 -13.4 0.4 -23.8 1 -24.8 0.5 -1.1 1.2 -4.8 1.6 -8.3 0.8 -8.8 2.6 -19.2 3.6 -21.1 0.4 -0.9 1.5 -6.3 2.4 -12 0.9 -5.7 2.3 -12.9 3.1 -15.9 2.4 -8.6 7.4 -18 10.6 -19.6 3.8 -1.9 12.3 -1.8 15.9 0.3 2.6 1.5 2.9 2.3 2.9 6.8 0.1 2.7 0.7 7.9 1.6 11.5 2.4 10.5 3.2 181.3 1 211.3 -0.9 12 -1.6 33.7 -1.6 48.5 0 14.7 -0.4 31.7 -0.9 37.7 -0.6 6.1 -1.2 25.5 -1.6 43.2 -0.7 40.6 -1.6 45.6 -9.3 53.7 -7.6 8 -18.3 9.9 -28 5z"/>
  <path d="M1142.3 2194.9 c-6.4 -1.2 -11.6 -4.3 -16.6 -9.9 -8.4 -9.3 -8.5 -9.9 -10.7 -94 -2.7 -104.7 -6.1 -156.9 -13.6 -209 -8.7 -61.2 -21.6 -129 -31.3 -164 -6.2 -22.9 -19.5 -67.2 -25.6 -86 -3.6 -10.9 -10.3 -33.4 -15.1 -50.1 -5.7 -20.5 -11.3 -37.6 -17.1 -52.3 -4.6 -12.1 -9.5 -24.7 -10.7 -28 l-2.2 -6.1 15.3 6.1 c8.3 3.4 23 8.8 32.6 12 l17.4 5.8 4.2 7.7 c5.2 9.8 11.2 25.3 18.6 48.9 3.2 10.2 9.3 28.6 13.7 40.9 6.9 19.5 21.2 65.6 27.7 89.2 1.2 4.1 4.1 16.4 6.5 27.3 2.4 10.9 4.7 20 5.1 20.4 0.3 0.3 0.8 -0.4 1.2 -1.6 2 -7.9 5.5 6.6 14.8 61.8 13.1 78.8 18.2 128.7 21.5 212.5 0.6 14.9 1.7 43.9 2.5 64.5 0.8 20.6 1.5 45.3 1.5 54.8 l0 17.2 -2.4 -0.6 c-2.1 -0.5 -2.3 -0.2 -3 4.8 -0.5 4.6 -0.3 5.5 1.5 7 2.7 2.3 2 5.4 -2.6 12.5 -4.8 7.3 -7.5 8.9 -12.4 7.4 -2.4 -0.7 -4.8 -0.8 -6.3 -0.3 -3.9 1.5 -10.1 2 -14.5 1.1z"/>
  <path d="M1453.3 2180.8 c-1.2 -0.6 -3 -2.7 -3.9 -4.6 -1.6 -3.4 -1.6 -4.3 0 -15.2 3.5 -23.3 8.1 -38 28.3 -90.5 17.8 -46.5 25.1 -63.7 39.4 -93.7 11.7 -24.5 25.8 -55.4 32.9 -72.3 10.4 -24.7 48.4 -99.4 73.4 -144.3 l15.8 -28.3 -4 -5.2 c-2.1 -2.9 -8.7 -10.8 -14.6 -17.7 -5.9 -6.9 -14.4 -17.8 -18.9 -24.3 -4.5 -6.5 -11.8 -16.6 -16.1 -22.5 -10 -13.4 -12.8 -18.9 -13.3 -25.5 -0.3 -4.1 0.1 -6.1 1.9 -9.5 4 -7.4 19.8 -30.2 30.9 -44.8 15.9 -20.8 27.9 -38.4 27.9 -40.9 0 -1.2 -3 -7.1 -6.6 -13.1 -13 -21.4 -39.4 -71.2 -39.4 -74.2 0 -0.8 13.2 -9.6 16.1 -10.7 1 -0.4 5.9 7.3 17.3 27.2 8.8 15.3 19.2 33.2 23.2 39.8 4 6.6 8 13.7 9 15.7 1.5 3.1 1.9 3.5 3.5 2.5 1 -0.6 2.1 -0.8 2.5 -0.4 1.3 1.3 1.7 17.3 0.5 20.8 -1.2 3.7 -5.1 7.1 -5.1 4.5 0 -1.5 -14.1 11.8 -20.6 19.4 -16.7 19.6 -35.1 44.7 -40.8 55.9 -2.1 4 -1.3 5.8 7.1 15.7 3.7 4.4 11.2 14.1 16.6 21.5 8.9 12.3 27.8 35 29.8 35.7 0.5 0.2 0.9 -0.3 0.9 -1.2 0 -0.9 0.6 -1.6 1.3 -1.6 1.5 0 10.4 10.6 13.8 16.5 1.3 2.2 2.7 4.3 3.2 4.6 1.4 1 2.1 14.7 1 17.2 -3.5 7.4 -9.2 20.5 -9.8 22.5 -0.3 1.2 -1 2.2 -1.5 2.2 -0.5 0 -1.4 1.6 -2 3.6 -0.7 2 -2.6 4.9 -4.3 6.6 -2.7 2.5 -3.2 2.7 -3.7 1.3 -0.4 -1.1 -3.8 4.1 -10.4 16 -14.1 25.5 -56.6 108.3 -56.6 110.4 0 0.5 0.6 1.4 1.4 2.1 1.2 0.9 1.3 1.8 0.4 3.8 -1.1 3 -4.4 10.3 -6.4 14.5 -0.8 1.6 -1.4 3.5 -1.4 4.2 0 0.8 -0.6 1.8 -1.4 2.2 -0.7 0.4 -3 4.9 -5.1 9.8 -2.1 5 -6.2 14 -9.1 20 -2.9 6.1 -6.3 13.9 -7.4 17.5 -1.1 3.5 -3.2 8.3 -4.5 10.6 -1.4 2.4 -2.5 5 -2.5 5.8 0 0.9 -0.4 1.6 -0.9 1.6 -0.5 0 -1.1 1 -1.3 2.2 -0.4 2.8 -3.5 3.6 -4 1.1 -0.6 -2.3 -5.5 8.1 -15.3 32.2 -13 31.8 -33.1 84.6 -38 99.5 -2.7 8 -5.1 15 -5.5 15.5 -0.4 0.6 -1.5 3.7 -2.3 7 -2.2 8.3 -12 28.9 -14.8 30.9 -2.7 1.8 -3.5 1.9 -6.6 0.4z"/>
  <path d="M1222 1347 c-9.8 -1.3 -24.7 -5.1 -33.6 -8.8 -28.3 -11.5 -55.4 -35.9 -72.8 -65.5 -5.3 -9 -14 -27.7 -13.2 -28.4 0.2 -0.2 4.6 0.3 9.7 1.1 13.2 2.1 41.6 5.3 59.9 6.8 21.3 1.7 95.6 1.7 112.5 0 30.7 -3.1 56.7 -8.2 75 -14.6 5.5 -1.9 10.1 -3.3 10.2 -3.2 0.5 0.5 -4.5 15.5 -8.1 24.1 -19.2 46.1 -55.6 77.6 -100.6 87 -9.2 2 -29 2.7 -39 1.5z"/>
 </g>
 <g fill="#ffec0f">
  <path d="M1267 2209.3 c-1.9 -0.2 -9.6 -1 -17 -1.8 -7.4 -0.9 -22.3 -2 -33 -2.5 -10.7 -0.5 -22.4 -1.7 -26 -2.5 -6.7 -1.6 -21.3 -5.9 -25.7 -7.6 l-2.4 -0.9 4.9 -4.8 c2.7 -2.6 6 -7.1 7.2 -9.8 l2.3 -5.1 10.6 2.9 c8.5 2.4 13.9 3.1 27.6 3.9 9.4 0.5 25.3 1.8 35.5 2.9 11.1 1.2 25.3 2 35.6 2 l17.2 0 0.6 5.3 c0.6 4.5 2.6 11.4 5.1 17 0.7 1.6 -0.6 1.7 -19.1 1.5 -11 0 -21.5 -0.3 -23.4 -0.5z"/>
  <path d="M1251.5 2177.9 c-5.5 -0.5 -15.5 -1.3 -22.1 -1.9 -17.5 -1.5 -38.9 -7 -47 -12.1 l-3.4 -2.1 0 -15.1 c0 -8.4 -0.7 -32.1 -1.5 -52.7 -0.8 -20.6 -1.9 -49.6 -2.5 -64.5 -2.3 -59 -7 -116.3 -12.6 -155.5 -4.5 -31.5 -13.5 -85.1 -17.6 -105 l-3.2 -15.5 9.7 -38.5 c13.1 -52.4 21.4 -83.6 23.3 -87.2 0.9 -1.7 1.2 -3.4 0.7 -3.8 -0.4 -0.4 -3.5 -2.7 -6.8 -5.2 -9.4 -7.1 -19.1 -17.4 -25.7 -27.2 -6.5 -9.9 -15.7 -27.4 -19.5 -37.6 -1.3 -3.5 -3.3 -7 -4.4 -7.8 -3.6 -2.5 -6.5 -11.3 -4.4 -13.4 0.3 -0.2 8 1 17.2 2.8 19.9 3.9 45.6 7.7 68.3 10.1 20.8 2.1 81.4 2.4 102.5 0.5 13.9 -1.3 35.5 -3.8 40.8 -4.7 2.7 -0.4 2.7 -0.4 2.7 4.9 0 9.4 -9 33.5 -17.7 47.6 -5.9 9.4 -17.5 21.1 -27.4 27.8 l-7.7 5.1 3.9 9.7 c2.2 5.4 8.5 24 14 41.3 5.6 17.4 15 45.7 21 62.8 l10.9 31.2 -4.5 18.3 c-9.3 38.5 -12.7 58.4 -19.4 112.3 -9.4 74.9 -13 128.4 -15.2 222 -0.7 30 -1.5 49.5 -2.1 50.2 -3.3 4.1 -24 5.4 -50.3 3.2z"/>
 </g>
 <g fill="#59d3f8">
  <path d="M1668.7 2179.6 c-11.2 -1.1 -13.7 -2.3 -13.7 -6.5 0 -0.9 -0.9 -3.4 -1.9 -5.6 -1 -2.2 -2.1 -5.2 -2.5 -6.7 -0.6 -2.6 -0.4 -2.8 2.6 -2.8 2.9 0 15.6 2 23.1 3.6 2.6 0.5 2.7 0.4 2.7 -3.6 0 -2.3 -0.5 -4.3 -1.2 -4.5 -0.7 -0.3 -7.3 -1.1 -14.6 -1.9 -7.3 -0.7 -13.6 -1.6 -13.9 -2 -0.8 -0.8 -2.6 -21.6 -1.9 -22.4 0.4 -0.3 7.4 0.3 15.6 1.4 14.4 1.9 15 1.9 15 0.2 0 -6.5 -2.3 -37.4 -2.9 -38 -0.3 -0.3 -6.6 -1 -13.9 -1.6 -7.3 -0.5 -13.5 -1.1 -13.7 -1.4 -0.2 -0.2 -0.7 -6.6 -1.1 -14.2 l-0.7 -13.9 3.9 0.6 c2.1 0.4 8.5 1.5 14.2 2.5 l10.2 1.9 0 -4.2 c0 -2.3 -0.6 -4.7 -1.2 -5.3 -0.7 -0.5 -7 -1.3 -13.9 -1.7 l-12.6 -0.7 -0.7 -6 c-0.8 -8.3 -0.8 -17.8 0.2 -17.8 0.4 0 6.1 0.9 12.7 2 6.5 1 12.1 1.7 12.3 1.5 0.6 -0.5 -3.1 -39.4 -3.9 -40.6 -0.3 -0.6 -5.4 -1.6 -11.3 -2.4 -5.9 -0.7 -10.9 -1.5 -11.2 -1.8 -0.3 -0.3 -0.8 -6.6 -1.1 -14 l-0.6 -13.5 2.4 -0.5 c2.3 -0.4 2.3 -0.4 0.2 -0.6 -2.3 -0.1 -2.3 -0.3 -2.3 -13.6 0 -9.7 0.3 -13.5 1.2 -13.5 0.6 0 4.9 0.7 9.6 1.6 4.6 0.8 8.5 1.4 8.7 1.2 0.4 -0.4 -3.4 -48.9 -3.9 -50.4 -0.2 -0.6 -3.2 -1.4 -6.7 -1.8 -3.4 -0.3 -6.4 -0.8 -6.7 -1 -0.2 -0.3 0 -11.1 0.4 -24.1 l0.7 -23.7 5.3 0.7 c6.1 0.7 5.8 1.2 6.9 -10.8 0.3 -3.8 1 -7.6 1.5 -8.5 0.4 -0.9 1.4 -3.2 2 -4.9 0.7 -1.8 1.6 -3.3 2.1 -3.3 0.5 0 0.9 -0.6 0.9 -1.4 0 -1.6 8.8 -5.6 12.4 -5.6 1.4 0 5 0.9 8.1 2.1 7.9 3 13.3 10.5 10.6 14.7 -0.7 1.1 -1.1 1.1 -2.2 -0.3 -0.8 -0.9 -3.3 -3.8 -5.5 -6.3 -3.9 -4.3 -4.5 -4.6 -9.2 -4.6 -8.2 0 -12.3 3.9 -15 14.2 -1.7 6.9 -2.7 49.8 -1.2 58.2 0.5 3 1.8 18.6 3 34.5 1.1 16 2.5 34 3 40.1 0.6 6.1 1.3 16.1 1.6 22.3 0.2 6.3 0.7 11.7 0.9 12.1 0.7 1.1 4.3 38.2 4.9 51.2 0.3 5.8 1 11.8 1.6 13.3 0.6 1.5 1.2 8.6 1.5 15.9 0.2 7.2 0.9 19.4 1.5 27.1 0.6 7.7 1.3 22.3 1.6 32.5 0.2 10.2 0.8 22.9 1.3 28.3 0.4 5.4 0.6 10.9 0.3 12.2 -0.2 1.4 0.1 3.2 0.8 4 0.9 1.1 0.8 2 -0.9 4.3 -3.4 4.8 -3.8 4.9 -15.4 3.8z m-4.2 -217.5 c-0.6 -0.5 -4.1 -1.2 -8 -1.5 l-7 -0.5 6 1.3 c7.5 1.7 10.2 1.9 9 0.7z"/>
  <path d="M1550.5 2162.4 c-12.1 -1.9 -22.6 -3.7 -23.2 -3.9 -1 -0.3 -1.3 -6 -1.3 -24 0 -18.2 0.3 -23.5 1.3 -23.4 0.6 0 13.1 1.5 27.7 3.2 l26.5 3.2 0.3 18.5 c0.1 10.2 -0.1 21 -0.5 24 l-0.8 5.5 -4 0.2 c-2.2 0.1 -13.9 -1.4 -26 -3.3z"/>
  <path d="M770.6 2161.8 c-0.7 -2.9 -0.6 -16.6 0.2 -23.7 l0.7 -5.5 22 -5.2 c12.1 -3 23.4 -5.3 25.1 -5.4 l3 0 0.2 13.3 c0.2 7.2 0.4 14.5 0.5 16.1 l0.2 2.9 -23 4.8 c-26.9 5.6 -28 5.7 -28.9 2.7z"/>
  <path d="M1745.8 2162.2 c-1.5 -0.3 -1.8 -1.5 -1.9 -6 -0.2 -13.3 -1 -28.8 -1.5 -30.2 -0.3 -0.8 -1 -7.6 -1.4 -15 -2.5 -39.8 -4.5 -57.5 -11.6 -104 -0.8 -5.8 -2 -14.2 -2.4 -18.7 -0.5 -4.6 -1.4 -10.7 -2 -13.5 -0.6 -2.9 -2.4 -14.3 -4 -25.3 -2.6 -17.2 -6.7 -44.1 -9.9 -63.5 -0.5 -3.4 -0.5 -7.7 0.1 -11.2 l1 -5.8 3.6 0.1 c2.1 0 14.1 1.7 26.7 3.7 l23 3.7 -0.3 14.5 c-0.2 8 -0.7 14.9 -1.2 15.4 -1 1 -7.4 -0.1 -29.9 -5 -8.5 -1.9 -15.6 -3.3 -15.7 -3.1 -0.1 0.1 0.5 4 1.3 8.7 0.8 4.7 3.1 20 5.2 34 l3.7 25.5 3.9 0.3 c5.9 0.4 28.9 3.3 29.3 3.7 0.2 0.2 -0.1 7 -0.7 15.2 -0.6 8.1 -1.3 20.5 -1.7 27.6 l-0.7 12.7 -3.4 0 c-1.9 0 -6.6 -0.7 -10.4 -1.6 -3.9 -0.9 -7.2 -1.4 -7.4 -1.2 -0.2 0.1 0.8 7.7 2.1 16.8 1.3 9.1 2.9 24.6 3.6 34.5 l1.3 18 6.8 0.3 6.7 0.3 0 4.2 c0 2.3 -0.3 7.2 -0.7 11 -0.6 6.5 -0.7 6.7 -3.4 6.7 -1.5 0 -3.9 -0.4 -5.3 -1 -2.8 -1 -3.2 0 -2 4.8 0.6 1.9 1.3 2.2 5.5 2.2 5.6 0 5.5 -0.3 3.9 10 -2.1 13.2 -3.1 16.2 -5.2 15.7 -1.8 -0.5 -1.9 -0.1 -1.7 6.1 0.3 7.3 -0.6 10 -3.3 9.4z"/>
  <path d="M1827.5 2155.9 c-4.9 -0.4 -14.4 -1.3 -21.1 -2 l-12.1 -1.1 -0.7 -8.2 c-1.1 -14.8 -0.8 -20.4 1.2 -20.9 1.6 -0.4 1.6 -0.5 0 -0.6 -1.6 -0.1 -1.8 -1.5 -1.8 -13.7 l0 -13.6 6.8 0.7 c24.6 2.5 49.5 5.4 49.9 5.9 0.3 0.2 0.7 12.6 1 27.5 l0.6 27.1 -7.4 -0.1 c-4.1 -0.1 -11.4 -0.5 -16.4 -1z"/>
  <path d="M855 2130.2 l0 -16.8 23.3 -4.9 c12.7 -2.7 25.1 -5.1 27.5 -5.3 l4.4 -0.4 -0.6 16.3 c-0.3 9 -0.9 16.6 -1.3 17 -0.8 0.7 -49.3 10.9 -51.9 10.9 -1.1 0 -1.4 -3 -1.4 -16.8z"/>
  <path d="M572.3 2130.4 c0.4 -5.5 1.1 -17.9 1.7 -27.5 1.3 -23.5 1.6 -24.8 4.8 -26 7.2 -2.8 47.9 -13.9 50.8 -13.9 l3.4 0 0 8.8 c0 9.3 -2.1 52.5 -2.6 53.1 -0.7 0.8 -49.4 14.3 -53.8 14.8 l-4.9 0.6 0.6 -9.9z"/>
  <path d="M945.8 2111.3 c0.2 -9.3 0.5 -16.9 0.7 -17.1 0.7 -0.7 48.2 -11.2 50.8 -11.2 l2.7 0 0 16.4 0 16.4 -2.7 0.5 c-1.6 0.4 -13.5 3.1 -26.5 6.2 -13.1 3 -24.1 5.5 -24.5 5.5 -0.5 0 -0.6 -7.5 -0.5 -16.7z"/>
  <path d="M772 2105.5 l0 -15.4 4.2 -1.2 c8.5 -2.2 44.3 -9.9 46.5 -9.9 2.2 0 2.3 0.3 2.2 7.8 -0.1 4.2 -0.4 11.7 -0.8 16.7 l-0.6 8.9 -8.5 1.8 c-8.6 1.7 -39.6 6.8 -41.8 6.8 -0.9 0 -1.2 -4.2 -1.2 -15.5z"/>
  <path d="M1067 2106.3 c0 -5.4 -0.4 -5.5 -18.3 -1.8 -9.3 1.9 -18.1 3.5 -19.6 3.5 -2.7 0 -2.9 -0.3 -3.5 -5.2 -0.3 -2.9 -0.6 -9.9 -0.6 -15.4 l0 -10.2 2.8 -0.6 c1.5 -0.4 10.7 -0.9 20.5 -1.3 l17.7 -0.6 0 3.9 c0.1 3.5 0.6 6.4 3.8 19.9 2.4 9.9 2.4 10.5 -0.3 10.5 -2.1 0 -2.5 -0.5 -2.5 -2.7z"/>
  <path d="M855.3 2103.8 c-0.1 -1.3 0.1 -9.1 0.4 -17.5 l0.5 -15.1 4.2 -1.1 c13 -3.2 42.4 -9.1 45.7 -9.1 l3.9 0 0 16.3 0 16.3 -24.7 5.3 c-13.7 3 -25.2 5.8 -25.7 6.2 -1.9 1.7 -4.2 0.9 -4.3 -1.3z"/>
  <path d="M946 2068.6 l0 -16.4 6.8 -1.5 c20.2 -4.5 44.2 -9 44.8 -8.5 0.8 0.8 2.6 30.9 1.9 31.6 -0.8 0.8 -47.7 11.1 -50.7 11.2 l-2.8 0 0 -16.4z"/>
  <path d="M1554.6 2076 c-28.6 -4.3 -25.6 -3.2 -25.6 -9.3 0 -5.7 1.7 -22.7 2.3 -23.3 0.2 -0.2 5.9 0.3 12.8 1.1 17.2 2 17.6 1.8 1.9 -1.2 -7.4 -1.4 -13.8 -2.8 -14.2 -3.2 -0.8 -0.7 1.9 -26.1 2.8 -27 0.2 -0.3 11.7 1 25.4 2.9 l25 3.4 0 14.2 0 14.3 -3.7 0.4 -3.8 0.4 3.9 0.1 c3.5 0.2 3.8 0.4 3.2 2.5 -0.3 1.2 -0.6 7.9 -0.6 15 l0 12.7 -5.2 -0.1 c-2.9 -0.1 -13.8 -1.4 -24.2 -2.9z"/>
  <path d="M1022.6 2062.8 c-0.3 -2.9 -0.9 -9.8 -1.2 -15.4 l-0.7 -10.1 3.9 -0.7 c2.1 -0.3 9.1 -0.9 15.5 -1.3 l11.6 -0.6 -0.5 -4.4 c-0.4 -4 -0.3 -4.5 1.4 -4.1 1.9 0.3 2.3 1.8 6.5 21.8 1.2 5.8 2.5 10.9 3 11.5 2.1 2.2 0.6 3.2 -5.8 3.8 -3.8 0.4 -11.5 1.6 -17.3 2.7 -15.7 3 -15.6 3 -16.4 -3.2z"/>
  <path d="M1829.5 2038.9 c-3.8 -0.5 -13.2 -1.8 -20.7 -3 l-13.8 -2.1 0 -3.2 c0.2 -10.5 2.8 -53.8 3.3 -54.3 0.6 -0.5 45.9 5.9 52.6 7.4 l2.4 0.6 -0.7 17.1 c-0.3 9.4 -0.9 21.9 -1.3 27.9 l-0.6 10.7 -7.1 -0.1 c-3.9 -0.1 -10.2 -0.5 -14.1 -1z"/>
  <path d="M579 2027.8 c0.1 -7 4 -60.9 4.4 -61.7 0.3 -0.5 1.8 -1.2 3.3 -1.5 1.6 -0.4 12.6 -3.8 24.6 -7.7 12 -3.8 23.1 -6.9 24.7 -6.9 3.6 0 3.6 -0.2 1.9 21.4 -0.5 7.7 -1.3 20.6 -1.7 28.5 l-0.7 14.4 -14 4.4 c-22.2 7 -37.5 11.3 -40.1 11.3 -1.8 0 -2.4 -0.5 -2.4 -2.2z"/>
  <path d="M1048 2018.6 c0 -1.9 -0.5 -3.6 -1.1 -3.8 -0.6 -0.2 -1.3 -2.5 -1.6 -5.2 -0.5 -4.3 -0.4 -4.8 1.2 -4.4 1.3 0.2 2.4 2.1 3.6 5.9 3.2 11.1 3.2 10.9 0.4 10.9 -2.2 0 -2.5 -0.4 -2.5 -3.4z"/>
  <path d="M774.1 1991.6 c0.2 -9 0.7 -16.8 1.1 -17.2 1.2 -1.1 41.7 -12.4 47.1 -13.1 l4.8 -0.6 -0.3 16.6 c-0.2 9.1 -0.5 16.8 -0.8 17.1 -0.8 0.8 -48.2 13.6 -50.3 13.6 -1.8 0 -1.9 -1 -1.6 -16.4z"/>
  <path d="M1536.7 1991 c-0.3 -1.4 0 -2 1 -2 1 0 1.4 -0.6 1 -2 -0.3 -1.1 0 -2 0.6 -2 0.6 0 0.8 -0.3 0.5 -0.6 -0.6 -0.5 2.7 -4.4 3.7 -4.4 1.2 0 0.4 7 -1 8.4 -0.8 0.8 -1.5 2.2 -1.5 3 0 2.3 -3.7 2 -4.3 -0.4z"/>
  <path d="M1037.6 1988.8 c-2 -7.8 1 -10.6 3.8 -3.5 2.1 5.5 2 5.7 -0.8 5.7 -1.6 0 -2.6 -0.7 -3 -2.2z"/>
  <path d="M857 1968.1 c0 -15.3 0.2 -17 1.8 -17.5 19.4 -5.5 46.5 -12.6 48.6 -12.6 l2.6 0 -0.2 16.7 -0.3 16.8 -24 6.7 c-13.2 3.7 -25 6.8 -26.2 6.8 -2.3 0 -2.3 0 -2.3 -16.9z"/>
  <path d="M1034 1976.5 c0 -4.5 2.4 -4.7 3.9 -0.4 1.4 4.1 1.5 3.9 -1.4 3.9 -2.2 0 -2.5 -0.4 -2.5 -3.5z"/>
  <path d="M1565 1975.9 c-12.7 -2.5 -14.6 -2.7 -15.6 -1.4 -1.6 2.1 -4.1 1.9 -4.7 -0.5 -0.3 -1.1 -0.1 -2 0.5 -2 0.5 0 0.6 -0.4 0.3 -1 -0.3 -0.5 -0.2 -1 0.3 -1 0.5 0 0.9 -0.6 0.9 -1.2 0 -0.7 2 -5.3 4.3 -10.3 2.4 -4.9 4.3 -9.3 4.2 -9.7 -0.1 -0.5 0.3 -0.8 0.9 -0.8 0.5 0 0.7 -0.4 0.4 -1 -0.3 -0.5 -0.1 -1 0.5 -1 0.6 0 0.8 -0.4 0.5 -1 -0.3 -0.5 -0.1 -1 0.6 -1 0.7 0 1 -0.3 0.7 -0.6 -0.9 -0.8 7.2 -18.7 9 -20 0.8 -0.6 1.3 -1.7 1 -2.4 -0.2 -0.8 0.4 -2.2 1.5 -3.3 1.1 -1.1 1.7 -2.7 1.4 -3.8 -0.3 -1 0 -1.9 0.6 -1.9 0.6 0 0.8 -0.3 0.5 -0.6 -0.4 -0.3 0.3 -1.5 1.4 -2.6 1.2 -1.2 1.8 -2.8 1.5 -3.9 -0.3 -1 -0.1 -1.9 0.5 -1.9 0.5 0 0.6 -0.4 0.3 -1 -0.9 -1.5 2.1 -1.2 3.4 0.4 1.4 1.6 0.4 4.6 -1.5 4.6 -0.9 0 -1.4 1.1 -1.4 2.9 0 3.9 -0.9 6.1 -2.6 6.1 -0.9 0 -1.4 1.1 -1.4 3 0 2.7 0.3 3 3.3 3 1.7 0 4.8 0.3 6.8 0.6 3.1 0.5 3.8 1.1 4.3 3.6 0.3 1.7 0.3 14.2 -0.1 27.9 l-0.6 24.9 -3.6 -0.1 c-2 0 -10.1 -1.4 -18.1 -3z"/>
  <path d="M1031 1969.5 c0 -1.4 -0.4 -2.5 -1 -2.5 -0.5 0 -1 -1.6 -1 -3.5 0 -1.9 -0.4 -3.5 -1 -3.5 -1.4 0 -1.3 -1.3 0.3 -3.4 1.3 -1.8 2.2 -0.1 7.3 13.7 0.5 1.3 0.1 1.7 -2 1.7 -2.1 0 -2.6 -0.5 -2.6 -2.5z"/>
  <path d="M775 1947.6 l0 -16.5 5.3 -1.5 c2.8 -0.8 10.4 -2.9 16.7 -4.6 6.3 -1.7 14.4 -4 17.9 -5.1 3.5 -1 7.8 -1.9 9.7 -1.9 l3.4 0 0 12.4 c0 6.8 -0.3 14.4 -0.6 16.9 l-0.6 4.5 -22.7 6.1 c-12.5 3.4 -24.2 6.1 -25.9 6.1 l-3.2 0 0 -16.4z"/>
  <path d="M941 1957.3 c0 -2.7 -0.3 -10 -0.7 -16.4 l-0.6 -11.7 5.4 -1.5 c13.3 -3.7 38.1 -8.7 43.4 -8.7 l3.3 0 0.6 7.5 c0.3 4.1 0.9 10.8 1.2 14.8 l0.6 7.2 -9.4 2.4 c-5.1 1.3 -16.5 4.3 -25.3 6.7 -8.8 2.4 -16.6 4.4 -17.2 4.4 -0.9 0 -1.3 -1.6 -1.3 -4.7z"/>
  <path d="M858 1925 c0 -9.3 0.2 -17 0.4 -17 0.3 0 10.6 -2.7 23 -6.1 12.5 -3.3 23.6 -5.9 24.8 -5.7 2.9 0.4 3.7 4.4 3.7 20.4 l0.1 12.1 -24.2 6.7 c-13.4 3.6 -25.1 6.6 -26 6.6 -1.6 0 -1.8 -1.5 -1.8 -17z"/>
  <path d="M698.5 1883.5 c0 -26.4 -0.3 -49.9 -0.8 -52.2 l-0.7 -4.3 3.5 0 c3.8 0 3.7 0.3 5.4 -10.5 1.5 -9 3.2 -15.9 4.3 -16.6 0.5 -0.3 1.2 -2.5 1.5 -4.8 0.3 -2.2 1 -4.1 1.4 -4.1 0.5 0 0.9 -0.9 0.9 -2 0 -1.1 0.7 -2 1.5 -2 0.9 0 1.5 -0.9 1.5 -2.4 0 -3.9 3.5 -5.6 11.1 -5.6 8.4 0 10.8 1.7 11.6 8 0.6 4.2 0.5 4.4 -1 2.8 -1 -0.9 -1.7 -2 -1.7 -2.5 0 -1.3 -5.5 -4.3 -8 -4.3 -4.3 0 -7.5 2.8 -10.7 9.2 -3.9 7.8 -5.7 14.3 -7.8 27.7 -0.9 5.7 -2 11.1 -2.4 12 -1 1.9 -2.8 12.3 -3.6 21.1 -0.4 3.5 -1 7.2 -1.5 8.1 -0.5 0.9 -1 5.7 -1 10.5 -0.1 7.5 -2.6 51.6 -3.3 57.9 -0.1 1.1 -0.2 -19.6 -0.2 -46z"/>
  <path d="M1825.8 1918.1 c-12 -2.1 -22 -4 -22.3 -4.3 -0.5 -0.4 2.5 -29.9 3.1 -30.6 0.1 -0.2 11.5 1.7 25.3 4.2 13.8 2.5 25.3 4.6 25.6 4.6 0.7 0 0.6 9.9 -0.1 20.8 l-0.7 9.2 -4.6 -0.1 c-2.5 -0.1 -14.4 -1.8 -26.3 -3.8z"/>
  <path d="M938.7 1912.3 c-0.4 -3.7 -0.7 -10.9 -0.7 -16 l0 -9.1 9.3 -2.1 c11.8 -2.7 25.4 -5.1 29 -5.1 3.5 0 3.4 -1 -0.3 -5 -1.6 -1.8 -3 -3.6 -3 -4.1 0 -0.4 -1.2 -2.1 -2.7 -3.7 -1.6 -1.6 -3.7 -4.2 -4.8 -5.7 -1.1 -1.6 -2.6 -3.4 -3.2 -4.1 -0.7 -0.7 -1.3 -2.2 -1.3 -3.3 0 -1.2 -0.6 -2.1 -1.5 -2.1 -0.8 0 -1.5 -0.9 -1.5 -2 0 -1.1 -0.6 -2 -1.3 -2 -1.9 0 -4.7 -3.3 -4.7 -5.3 0 -1 -0.8 -1.7 -2 -1.7 -1.1 0 -2.4 -0.8 -2.7 -1.7 -0.4 -1 -1 -2.1 -1.5 -2.4 -0.4 -0.3 -0.2 -1.3 0.5 -2.3 1.3 -1.8 1.6 -1.7 4.9 1.7 6.5 6.5 26.9 33 34.4 44.7 1.6 2.5 3.2 4.7 3.5 5 0.3 0.3 0.9 4.9 1.3 10.2 l0.6 9.7 -5.2 1.5 c-24 6.8 -39.9 11 -42.9 11.4 l-3.6 0.4 -0.6 -6.9z"/>
  <path d="M587 1915.8 c0 -4.4 6.3 -62.4 6.8 -63 1.2 -1.1 49 -13.8 52.2 -13.8 1.6 0 3 0.1 3 0.3 -0.7 8.7 -5.9 60.9 -6.1 61.1 -1 0.9 -52 16.6 -53.8 16.6 -1.2 0 -2.1 -0.6 -2.1 -1.2z"/>
  <path d="M1828.3 1884.7 c-11.1 -1.8 -20.5 -3.5 -20.9 -3.9 -0.7 -0.7 1.2 -24.5 2.2 -28 0.3 -1.1 1.5 -1.8 2.9 -1.8 2.7 0 39 6.5 44.5 8 l3.5 0.9 -0.7 9.3 c-0.3 5.1 -0.7 11.4 -0.7 14.1 l-0.1 4.7 -5.2 -0.1 c-2.9 -0.1 -14.4 -1.5 -25.5 -3.2z"/>
  <path d="M777.2 1860.1 c0.2 -9.4 0.6 -17.2 0.9 -17.5 0.9 -0.9 41.2 -12.6 45.7 -13.3 l4.2 -0.6 -0.2 16.8 -0.3 16.8 -9.9 2.8 c-5.4 1.6 -16 4.9 -23.5 7.4 -7.5 2.5 -14.4 4.5 -15.5 4.5 -1.7 0 -1.8 -0.9 -1.4 -16.9z"/>
  <path d="M1746.5 1871 c-14.4 -3.1 -28.1 -6.5 -32 -8 -2.1 -0.8 -2.4 -1.4 -2.1 -4.2 0.3 -1.8 0.8 -7.7 1.1 -13 0.6 -9.2 0.8 -9.8 2.8 -9.8 3.7 0 49.2 7.3 50 8.1 0.5 0.4 0.6 7.3 0.2 15.3 l-0.8 14.6 -3.1 -0.1 c-1.7 0 -8.9 -1.3 -16.1 -2.9z"/>
  <path d="M857 1836.8 l0 -16.5 9.5 -2.2 c11.1 -2.5 31.6 -6.1 35 -6.1 2.6 0 2.8 0.9 4 19.7 l0.6 9.2 -3.8 1 c-2.1 0.5 -11.9 3.1 -21.8 5.7 -9.9 2.6 -19.2 4.9 -20.7 5.2 l-2.8 0.4 0 -16.4z"/>
  <path d="M778 1820.7 c0 -16 0.1 -16.4 2.3 -17.4 5.4 -2.5 40.8 -13.3 43.5 -13.3 3.8 0 4.2 1.9 4.2 18.9 l0 12.6 -22.3 7.8 c-12.2 4.2 -23.5 7.7 -25 7.7 l-2.7 0 0 -16.3z"/>
  <path d="M856.6 1809.8 c-0.3 -1.3 -0.6 -8.5 -0.6 -16 l0 -13.6 9.2 -2.2 c5 -1.2 11.4 -2.4 14.1 -2.7 l5 -0.6 -0.6 3.3 c-1.5 7.2 4.1 16.3 12.8 20.7 1.6 0.9 3.3 2.1 3.7 2.7 0.4 0.6 0.8 0.7 0.8 0.2 0 -1.1 3 1.4 3 2.5 0 1.7 -5.5 0.8 -9.9 -1.5 l-4.4 -2.3 -14.6 5.1 c-8 2.7 -14.7 5.4 -14.9 5.8 -0.7 1.6 -3 0.7 -3.6 -1.4z"/>
  <path d="M1860.5 1801.5 c-0.5 -0.2 -10.3 -2 -21.7 -4.1 -12.5 -2.2 -20.8 -4.2 -20.8 -4.9 0 -0.6 1.1 -7.4 2.5 -15.1 1.4 -7.6 2.5 -14.2 2.5 -14.6 0 -0.5 1.2 -0.8 2.8 -0.8 2.3 0 35.6 6.5 43.6 8.5 3.2 0.9 3.2 -0.7 0 20.8 l-1.7 10.7 -3.1 -0.1 c-1.7 0 -3.5 -0.2 -4.1 -0.4z"/>
  <path d="M598 1778.2 l0 -17.8 3.3 -1.7 3.2 -1.6 -3.2 0.6 -3.3 0.6 0 -17.7 c0 -9.7 0.1 -17.6 0.3 -17.6 0.2 0 10.8 -3.6 23.6 -8 12.8 -4.4 24.8 -8 26.6 -8 l3.4 0 0.3 14.3 c0.4 17.8 0.3 18.3 -3 19.6 l-2.7 0.9 3.3 0.1 3.2 0.1 -0.2 16.6 -0.3 16.6 -8.4 3 c-4.6 1.6 -16.2 6.3 -25.9 10.4 -9.6 4.1 -18.1 7.4 -18.8 7.4 -1.1 0 -1.4 -3.4 -1.4 -17.8z"/>
  <path d="M1745.2 1778 c-11.7 -2.6 -21.6 -5.1 -22 -5.4 -0.6 -0.7 2.6 -28.4 3.5 -29.9 0.2 -0.4 2.1 -0.5 4.1 -0.3 l3.7 0.5 -3.7 -1 c-2.9 -0.8 -3.8 -1.6 -3.8 -3.2 0 -3 3.7 -26.8 4.2 -27.3 0.3 -0.2 4.3 0.3 8.9 1.1 4.6 0.8 15.4 2.7 23.9 4.1 8.5 1.5 15.9 3.1 16.4 3.5 0.9 0.8 -2 28.8 -3 29.9 -0.3 0.2 -8.7 -1.1 -18.7 -3 -26.2 -4.8 -27.3 -4.6 -3.3 0.5 11.5 2.5 21.1 4.7 21.4 5 0.5 0.4 -2.4 23.4 -3.5 28.3 -0.7 3.1 -3 2.9 -28.1 -2.8z"/>
  <path d="M1644.6 1772.8 c-0.3 -1.3 -0.1 -2.5 0.4 -2.6 0.6 -0.2 0.8 -0.8 0.4 -1.3 -0.3 -0.5 0.1 -0.9 0.9 -0.9 1.4 0 4 -4.9 4 -7.6 0 -0.8 0.6 -1.4 1.3 -1.4 1 0 3.2 -4.5 3.9 -8 0.1 -0.3 1.5 -3.4 3.3 -7 1.7 -3.6 3.7 -8 4.4 -9.7 0.7 -1.8 1.7 -3.3 2.3 -3.3 0.5 0 8.8 1.4 18.3 3 9.6 1.7 17.5 3 17.6 3 0.5 0 -0.4 24.4 -1 27.8 -0.5 2.9 -0.8 3.3 -2.7 2.8 -1.2 -0.4 -8 -2.2 -15.2 -4.1 -7.1 -1.8 -15.6 -4.3 -18.7 -5.4 -3.2 -1.1 -5.8 -1.6 -5.8 -1 0 0.5 -0.7 0.9 -1.5 0.9 -0.8 0 -1.5 0.9 -1.5 1.9 0 3.3 -1.1 5.1 -3.1 5.1 -1.5 0 -1.9 0.7 -1.9 3.1 0 5.9 -4.1 9.5 -5.4 4.7z"/>
  <path d="M1859 1762.9 c-8.2 -1 -34.4 -5 -34.7 -5.3 -0.4 -0.4 4.7 -28.9 5.2 -29.5 0.6 -0.6 35.1 6.3 42.3 8.4 6.1 1.8 6.1 1.8 3.4 17.5 l-1.7 9.5 -3.5 0.1 c-1.9 0.1 -6.9 -0.2 -11 -0.7z"/>
  <path d="M690.2 1731.8 c0 -17.2 0.3 -33 0.6 -35.2 0.7 -3.9 0.7 -3.9 8.7 -6.3 19.6 -5.9 36.8 -10.3 40 -10.3 l3.5 0 0 12.9 c0 19.2 0.3 18.4 -9.1 21.1 -4.4 1.3 -7.7 2.5 -7.5 2.7 0.3 0.3 2.9 -0.2 5.9 -1.1 10.4 -3 9.8 -4 9.5 15 l-0.3 16.7 -5 1.4 c-15.3 4.3 -42 12.8 -42.3 13.5 -0.2 0.4 -1.2 0.8 -2.2 0.8 -1.7 0 -1.8 -1.8 -1.8 -31.2z m33.3 -13.8 c1.3 -0.5 1.4 -0.9 0.5 -0.9 -0.8 0 -2.4 0.4 -3.5 0.9 -1.3 0.5 -1.4 0.9 -0.5 0.9 0.8 0 2.4 -0.4 3.5 -0.9z"/>
  <path d="M880 1759 c0 -3.7 0.2 -4 2.6 -4 2.4 0 2.6 0.3 2 3.1 -0.3 1.7 -0.6 3.5 -0.6 4 0 0.5 -0.9 0.9 -2 0.9 -1.7 0 -2 -0.7 -2 -4z"/>
  <path d="M881 1745.5 c0 -3.1 0.3 -3.5 2.5 -3.5 2.6 0 2.9 0.9 1.9 4.8 -0.4 1.3 -1.4 2.2 -2.5 2.2 -1.5 0 -1.9 -0.7 -1.9 -3.5z"/>
  <path d="M882 1733 c0 -3.7 0.2 -4 2.6 -4 2.4 0 2.6 0.3 2 3.1 -0.3 1.7 -0.6 3.5 -0.6 4 0 0.5 -0.9 0.9 -2 0.9 -1.7 0 -2 -0.7 -2 -4z"/>
  <path d="M777.8 1724 c-0.1 -6.6 -0.2 -13.9 -0.3 -16.2 l0 -4.3 19.5 -5.2 c10.7 -2.9 21.1 -5.2 23.1 -5.3 l3.6 0 0.7 15.1 c0.4 8.3 0.5 15.4 0.2 15.7 -0.9 0.9 -42 12.2 -44.3 12.2 -2.2 0 -2.3 -0.3 -2.5 -12z"/>
  <path d="M1693.5 1734 c-1.6 -0.4 -9.2 -2.2 -16.7 -4 -11.9 -2.7 -13.8 -3.4 -13.8 -5.1 0 -1 -0.4 -1.9 -0.9 -1.9 -0.5 0 -1.4 -1.3 -2 -2.9 -0.7 -1.5 -3.9 -6.1 -7.1 -10.2 -8.4 -10.4 -8.2 -10.7 3.8 -10.2 5.3 0.3 16.7 1.5 25.2 2.9 23.5 3.7 21 2.4 21 10.3 0 3.8 -0.3 10.2 -0.6 14.4 -0.7 7.5 -0.8 7.7 -3.3 7.6 -1.4 0 -3.9 -0.4 -5.6 -0.9z"/>
  <path d="M883 1721.5 c0 -3.1 0.3 -3.5 2.5 -3.5 2.6 0 2.9 0.9 1.9 4.8 -0.4 1.3 -1.4 2.2 -2.5 2.2 -1.5 0 -1.9 -0.7 -1.9 -3.5z"/>
  <path d="M885 1712.5 c0 -2.8 0.4 -3.5 2 -3.5 2.1 0 2.4 1 1.4 4.8 -1 3.6 -3.4 2.7 -3.4 -1.3z"/>
  <path d="M855.5 1699.3 c0.4 -8.2 1 -15.1 1.4 -15.5 0.9 -1 20.9 -3.8 26.9 -3.8 2.8 0 5.4 0.5 5.8 1.1 1.5 2.4 2.3 8.4 1.3 9.6 -0.6 0.7 -1.2 4.3 -1.4 8 -0.2 3.7 -0.4 7.4 -0.4 8.2 -0.1 0.9 -0.9 1.1 -2.4 0.7 -1.4 -0.3 -7.5 0.9 -14.5 2.9 -6.6 1.9 -13.3 3.5 -14.7 3.5 l-2.7 0 0.7 -14.7z"/>
  <path d="M777 1685.1 l0 -15.8 3.3 -0.6 c1.7 -0.3 10.2 -2.2 18.7 -4.1 8.5 -2 17.1 -3.6 19.1 -3.6 l3.6 0 0.6 8.3 c0.4 4.5 0.7 10.8 0.7 13.9 l0 5.7 -4.2 1.1 c-2.4 0.7 -12.2 3.4 -21.9 6.1 -9.6 2.7 -18.1 4.9 -18.7 4.9 -0.9 0 -1.2 -4.4 -1.2 -15.9z"/>
  <path d="M1857.5 1691.9 c-9.9 -2.2 -18.7 -4.2 -19.6 -4.4 -1.3 -0.5 -0.9 -4.2 3.7 -29.6 2.9 -16 5.5 -29.3 5.8 -29.7 0.4 -0.3 3.9 0 7.9 0.6 14.4 2.4 35 6.2 35.4 6.6 0.2 0.2 -1.2 13.4 -3.1 29.3 -2 16 -3.6 29.5 -3.6 30.1 0 2.1 -7.9 1.2 -26.5 -2.9z"/>
  <path d="M856.7 1668.3 c0.3 -6.6 1 -12.3 1.7 -13 0.7 -0.8 5.5 -1.3 13.5 -1.5 l12.5 -0.3 1.3 6.5 c0.8 3.6 1.2 8 1.1 9.9 l-0.3 3.4 -14.5 3.3 c-7.9 1.9 -14.8 3.4 -15.2 3.4 -0.4 0 -0.5 -5.3 -0.1 -11.7z"/>
  <path d="M1763 1671.1 c-12.4 -2.6 -23 -4.9 -23.6 -5.2 -0.8 -0.3 0.3 -8.8 3.6 -28.7 2.7 -15.6 5 -28.5 5.2 -28.8 0.6 -0.5 47.1 8.7 48 9.5 0.3 0.3 -1.4 13.4 -3.8 29.1 -2.4 15.7 -4.4 28.6 -4.4 28.8 0 0.5 -3.1 -0.1 -25 -4.7z"/>
  <path d="M1677 1653.1 c-11.8 -2.6 -22.8 -5.1 -24.4 -5.5 l-2.9 -0.7 0.7 -17.7 c0.3 -9.7 0.9 -22.5 1.3 -28.4 l0.6 -10.8 3.1 0 c1.7 0.1 13.7 2.2 26.6 4.8 l23.5 4.8 0.3 20.9 c0.2 11.6 0 24.7 -0.3 29.3 l-0.7 8.2 -3.1 -0.1 c-1.8 0 -12.9 -2.2 -24.7 -4.8z"/>
  <path d="M595.7 1643.8 c-0.4 -4.6 -0.7 -12.7 -0.7 -18.1 l0 -9.8 11.3 -5.3 c19.6 -9.3 37.8 -16.7 40 -16.4 2.7 0.4 3.5 5 3.6 22.4 l0.1 12.2 -5.7 2.2 c-3.2 1.3 -14.7 6.5 -25.5 11.7 -10.8 5.1 -20.3 9.3 -21.1 9.3 -1 0 -1.6 -2.1 -2 -8.2z"/>
  <path d="M869 1649.4 c-4.1 -1.3 -8.3 -2.4 -9.2 -2.4 -1.3 0 -1.8 -0.8 -1.8 -2.7 0 -2 0.3 -2.4 0.9 -1.4 0.5 0.8 1.6 1.1 2.5 0.8 0.9 -0.4 1.6 -0.1 1.6 0.4 0 0.6 0.9 0.9 2 0.6 1.1 -0.3 2 -0.1 2 0.5 0 0.6 0.7 0.8 1.5 0.5 0.8 -0.4 1.7 -0.2 2 0.3 0.3 0.5 1.2 0.7 2 0.3 0.8 -0.3 1.5 0 1.5 0.7 0 0.7 0.7 1 1.5 0.6 0.8 -0.3 1.5 -0.1 1.5 0.5 0 0.6 0.7 0.9 1.5 0.5 0.8 -0.3 1.5 -0.1 1.5 0.4 0 0.6 0.7 1 1.5 1 0.8 0 1.5 0.5 1.5 1 0 1.7 -6 1 -14 -1.6z"/>
  <path d="M808.9 1633.5 c-4.1 -1.5 -12.2 -5.5 -12.9 -6.4 -0.3 -0.3 -1.8 -1.3 -3.5 -2.1 -5.8 -2.9 -10.3 -17 -5.5 -17 1.4 0 2 0.7 2 2.3 0 4.3 6.7 12.8 11.3 14.3 0.9 0.3 1.7 1 1.7 1.5 0 0.6 0.5 0.7 1 0.4 0.6 -0.3 1 -0.1 1 0.5 0 0.6 0.5 0.8 1 0.5 0.6 -0.3 1 -0.1 1 0.6 0 0.7 0.3 0.9 0.6 0.6 0.4 -0.3 1.6 -0.1 2.8 0.5 1.1 0.7 2.4 1.3 2.9 1.4 0.4 0.1 0.9 0.3 1.2 0.4 0.3 0.1 0.8 0.3 1.3 0.5 2.2 0.6 4.2 1.8 4.2 2.6 0 1.3 -5.9 1 -10.1 -0.6z"/>
  <path d="M688.7 1599.8 c-0.4 -6.2 -0.7 -14.2 -0.7 -17.8 l0 -6.5 7.8 -3.2 c4.2 -1.8 13.2 -5.5 19.9 -8.3 16.6 -6.8 16.7 -6.8 18.8 2.3 1.9 8.2 4.1 24.4 3.4 25 -1.1 1 -46 19.7 -47.2 19.7 -1.1 0 -1.5 -2.6 -2 -11.2z"/>
  <path d="M594.5 1592.6 c-0.4 -9.6 -0.4 -17.9 -0.1 -18.4 1 -1.7 41.2 -17.2 44.4 -17.2 3 0 3 0.1 4.2 7.3 0.7 3.9 2 11.3 3 16.2 l1.7 9 -9.8 3.7 c-5.3 2 -16.6 6.6 -25.1 10.2 -8.6 3.6 -16 6.6 -16.5 6.6 -0.7 0 -1.4 -6.5 -1.8 -17.4z"/>
  <path d="M815 1606.7 c-1.8 -1.4 -2.1 -6.5 -0.4 -7.1 0.8 -0.3 1.5 1 1.9 3.5 0.8 4.6 0.6 5.2 -1.5 3.6z"/>
  <path d="M1881.5 1603.4 c-11.3 -2.7 -27.5 -7.7 -27.5 -8.4 0 -0.9 4.5 -20.3 6.1 -26.4 1 -3.6 1.2 -3.8 4.2 -3.2 4.5 0.9 30.9 9.4 32.6 10.5 1.1 0.7 1.2 2.5 0.2 10.7 -2.4 20.1 -1.8 18.4 -6 18.3 -2 0 -6.3 -0.7 -9.6 -1.5z"/>
  <path d="M786 1600.5 c0 -2.8 0.4 -3.5 2 -3.5 2.1 0 2.4 1 1.4 4.8 -1 3.6 -3.4 2.7 -3.4 -1.3z"/>
  <path d="M788.2 1588.8 c0.3 -4 1.1 -7.4 1.7 -7.6 0.6 -0.2 1.1 -1.9 1.1 -3.8 0 -1.9 0.5 -3.4 1 -3.4 0.6 0 1 -1.3 1 -3 0 -1.6 -0.2 -3 -0.5 -3 -0.3 0 -4 1.6 -8.1 3.6 -4.2 2 -7.9 3.3 -8.2 2.9 -0.4 -0.4 -0.6 -8.4 -0.5 -17.8 l0.1 -17.2 14.9 -5.2 c8.1 -2.9 15.4 -5.3 16.1 -5.3 0.7 0 1.2 -1.3 1.2 -3 l0 -3 -4.7 1.9 c-2.7 1 -9.2 3.7 -14.7 6 -5.4 2.3 -10.6 4.1 -11.6 4.1 -2 0 -2.4 -2.6 -3.8 -23.7 l-0.7 -11.2 16.6 -6.5 c9.2 -3.6 18 -6.6 19.7 -6.6 3.7 0 3.9 0.8 4.8 19.1 0.7 14 -0.3 20.4 -4.3 26.8 -2 3.1 -9.3 24.9 -9.3 27.6 0 1.1 -2.1 9.5 -4.7 18.8 -3.3 11.4 -5.2 16.7 -6.2 16.7 -1.1 0 -1.3 -1.4 -0.9 -7.2z"/>
  <path d="M1789.5 1576.5 c-5.5 -1.9 -15.3 -5 -21.7 -7 -6.9 -2.1 -11.8 -4.1 -11.8 -4.9 0 -2.9 9.1 -52.3 10.1 -54.8 0.6 -1.6 1.7 -2.8 2.3 -2.8 0.6 0 8.9 1.9 18.5 4.2 l17.3 4.3 -0.5 30 c-0.5 29.9 -0.9 34.6 -3.1 34.4 -0.6 0 -5.6 -1.6 -11.1 -3.4z"/>
  <path d="M686.9 1555.5 c-0.1 -9.1 -0.2 -17.1 -0.3 -17.7 -0.1 -1.6 30.8 -14.7 34.7 -14.8 3.3 0 3.7 0.9 7.8 17.5 3.4 14 3.4 14.4 1.2 15.2 -1 0.4 -10.1 4.2 -20.2 8.5 -10.1 4.3 -19.5 7.8 -20.7 7.8 l-2.4 0 -0.1 -16.5z"/>
  <path d="M1879.5 1565.3 c-9.3 -1.9 -17.1 -3.6 -17.3 -3.8 -0.5 -0.4 5.2 -22.5 5.8 -22.5 0.3 0 7.1 4.5 15 10 8 5.5 15.1 10 15.8 10 1.3 0 1.6 4 0.6 7.8 -0.8 2.7 0.9 2.8 -19.9 -1.5z"/>
  <path d="M1653.7 1552.9 c-0.3 -1.3 0.1 -2.8 0.9 -3.7 0.8 -0.8 1.3 -2.1 1 -2.8 -0.3 -0.8 -0.1 -1.4 0.4 -1.4 0.6 0 1 -0.7 1 -1.5 0 -0.8 0.7 -1.5 1.5 -1.5 2 0 2 4.9 0.1 9.5 -1.7 3.9 -4.1 4.6 -4.9 1.4z"/>
  <path d="M1681.3 1543.5 c-12.3 -4 -22.3 -6.9 -22.3 -6.4 0 0.5 -0.4 0.9 -1 0.9 -0.5 0 -1 -0.7 -1 -1.5 0 -0.8 -0.4 -1.5 -0.9 -1.5 -0.5 0 -0.7 -0.9 -0.4 -2 0.3 -1.1 0 -2 -0.6 -2 -0.7 0 -0.8 -0.6 -0.2 -1.7 0.5 -1 1.7 -10.3 2.6 -20.8 1.7 -19.3 2.8 -27.1 3.8 -28.2 0.4 -0.3 10.1 1.9 21.6 4.8 20.2 5.2 21.1 5.5 21.6 8.1 0.8 3.6 2.4 53.6 1.7 56 -0.2 1 -0.9 1.8 -1.6 1.7 -0.6 -0.1 -11.1 -3.4 -23.3 -7.4z"/>
  <path d="M594 1532.6 c0 -2.6 2.4 -3.8 24.3 -12.2 8.2 -3.1 10 -3.5 10.8 -2.3 1.8 2.9 0.1 4.2 -11.1 8.3 -6.3 2.4 -13.4 5.3 -15.7 6.4 -5.7 3 -8.3 2.9 -8.3 -0.2z"/>
  <path d="M1786 1505.9 c-5.8 -2.6 -11.7 -5.3 -13.3 -5.8 -2.5 -0.9 -2.6 -1.2 -1.5 -3.6 1.4 -3.1 0.8 -3.2 19 4.9 10.1 4.5 13.8 6.6 13.8 7.9 0 3.1 -6.7 1.9 -18 -3.4z"/>
  <path d="M684.6 1496.8 c-0.3 -1.3 -0.6 -2.6 -0.6 -2.9 0 -0.3 5 -2.5 11.1 -4.9 10.7 -4.2 11.2 -4.3 12.5 -2.5 0.8 1 1.4 2.1 1.4 2.4 0 0.3 -3.3 1.9 -7.3 3.5 -3.9 1.6 -9 3.7 -11.1 4.7 -5 2.4 -5.2 2.4 -6 -0.3z"/>
  <path d="M773 1463.6 c0 -2.2 1.2 -2.8 14.1 -7.1 7.7 -2.6 14.2 -4.5 14.3 -4.4 0.2 0.2 0.8 1.4 1.4 2.5 1.1 2 0.5 2.3 -12.6 6.8 -15.9 5.4 -17.2 5.5 -17.2 2.2z"/>
  <path d="M1684 1454.9 c-6.3 -3.2 -12.3 -5.9 -13.2 -5.9 -2.3 0 -3 -1.4 -2.2 -4.4 l0.6 -2.4 7.1 2.9 c4 1.7 10.5 4.8 14.5 6.9 4.1 2.2 8 4 8.8 4 0.8 0 1.4 1 1.4 2.5 0 3.9 -4 3.1 -17 -3.6z"/>
 </g>
 <g fill="#abecfd">
  <path d="M1038.5 2208.3 c-4.4 -2.3 -8.3 -6.2 -11.3 -11.2 l-2.6 -4.5 0.2 -28.5 c0.1 -15.7 0.5 -35.4 0.8 -43.7 l0.7 -15 14.6 -2.9 c8 -1.5 17.3 -3.6 20.6 -4.6 7.8 -2.4 8.9 -2.4 8.2 0.1 -0.3 1.1 -0.1 2.3 0.5 2.6 0.5 0.3 0.8 1.6 0.6 2.7 -0.1 1.2 0.1 2.7 0.4 3.3 1.5 2.4 3 34.5 2.5 54.1 -0.5 21 -1.6 28.2 -5.4 35.8 -2.2 4.3 -7.2 9.4 -11.5 11.6 -4.6 2.4 -14 2.5 -18.3 0.2z"/>
  <path d="M873.9 2206 c-11.1 -5.8 -17.5 -22.4 -18.6 -47.7 l-0.6 -14.2 2.4 -0.5 c5.4 -1.3 50.7 -10.6 51.4 -10.6 1.3 0 -0.3 36.9 -2 45.9 -3 15.2 -7.4 23.5 -14.5 27.1 -5.1 2.6 -13.2 2.6 -18.1 0z"/>
  <path d="M1543.1 2198.4 c-10 -5 -15.7 -16.7 -16.8 -34.3 l-0.6 -9.4 2.9 0.6 c1.6 0.3 14 2.2 27.6 4.3 l24.6 3.8 -0.5 3.6 c-1.2 7.8 -5.4 18.7 -9 23.4 -4.6 6.1 -12.6 10.6 -18.7 10.6 -2.5 0 -6.3 -1 -9.5 -2.6z"/>
  <path d="M790.1 2198.6 c-10.3 -3.7 -19.1 -18.7 -19.1 -32.7 l0 -4.6 25.3 -5.2 c13.8 -2.8 25.5 -5.1 26 -5.1 1 0 0.9 10.2 -0.3 18.2 -1.4 9.5 -4.4 16.9 -9.2 22.3 -6.7 7.7 -14.5 10.1 -22.7 7.1z"/>
  <path d="M1814.5 2191.1 c-11 -5.1 -17.6 -17.2 -19.9 -36.9 -0.7 -5.1 -0.6 -5.2 1.6 -4.7 2.9 0.6 31.1 3.2 44.6 4.1 l10.2 0.7 0 7.3 c0 13 -6.7 25.1 -16.5 29.5 -5.3 2.5 -14.7 2.4 -20 0z"/>
  <path d="M592.2 2189.1 c-6.9 -2.4 -13.3 -8.6 -16.8 -16.5 -2.6 -5.6 -2.9 -7.3 -3.2 -20.7 l-0.4 -14.6 3.6 -0.7 c2.1 -0.4 14.7 -3.8 28.1 -7.7 13.4 -3.8 25 -6.9 25.8 -6.9 1.1 0 1.3 2.5 1 13.8 -0.9 32.5 -5.1 44.4 -18.2 51.5 -6.7 3.7 -13.1 4.3 -19.9 1.8z"/>
  <path d="M962.5 2188.1 c-5.6 -2.5 -10.4 -7.6 -13.4 -14.1 -2.3 -5.1 -2.6 -7 -3.3 -26.9 -0.4 -11.8 -0.5 -21.8 -0.3 -22.2 0.3 -0.3 2.2 -1 4.2 -1.4 2.1 -0.3 14.1 -3.1 26.7 -6.1 12.7 -3 23.1 -5.4 23.3 -5.4 0.8 0 0.1 42.3 -0.7 48.8 -1.8 13.5 -8.3 23.8 -17.6 27.7 -5 2 -14 1.9 -18.9 -0.4z"/>
  <path d="M1662.5 2182.1 c-3.4 -2.1 -7.1 -5.9 -6.3 -6.6 0.9 -1 25.8 1.9 25.5 3 -0.2 0.5 -1.8 2 -3.7 3.3 -4.2 2.8 -11.3 3 -15.5 0.3z"/>
  <path d="M1665 2163.2 l-14.5 -2.7 -0.9 -6.3 c-0.5 -3.4 -0.7 -6.5 -0.4 -6.8 0.7 -0.7 31.1 2.5 32 3.4 0.3 0.4 0.8 3.8 1 7.7 0.2 5.6 0 7 -1.2 7.1 -0.8 0.1 -8 -1 -16 -2.4z"/>
  <path d="M1747.4 2160.2 c-0.6 -0.4 -1.4 -4.7 -1.8 -9.6 l-0.6 -8.9 3.6 0.6 c2 0.3 3.9 0.9 4.2 1.2 0.8 0.7 -1.2 10 -2.9 14.2 -0.9 2 -1.8 3 -2.5 2.5z"/>
  <path d="M1576.9 2145.5 c-0.3 -0.2 -11.7 -2.7 -25.3 -5.4 -13.6 -2.7 -25.1 -5.2 -25.4 -5.5 -1.4 -1.5 1.2 -1.4 11.8 0.4 6.3 1 18.8 2.6 27.8 3.6 l16.2 1.8 0 2.8 c0 2.3 -0.4 2.8 -2.3 2.8 -1.3 0 -2.6 -0.2 -2.8 -0.5z"/>
  <path d="M771.2 2127.5 c0.2 -4.7 0.7 -8.8 1.1 -9.1 0.4 -0.4 6.2 -1.5 12.9 -2.5 6.8 -1.1 18.1 -3.1 25.1 -4.5 7.1 -1.4 13 -2.4 13.2 -2.2 0.9 0.8 -2.1 16.4 -3.1 16.1 -0.6 -0.2 -11.5 2.1 -24.2 5.2 -12.7 3 -23.6 5.5 -24.3 5.5 -0.8 0 -1 -2.4 -0.7 -8.5z"/>
  <path d="M1669.5 2133 c-2.7 -0.5 -8.9 -1.4 -13.7 -2 l-8.8 -1.2 0 -22.4 0 -22.5 9.3 0.7 c5 0.4 12.1 0.9 15.7 1.3 l6.5 0.6 0.7 8 c0.3 4.4 0.9 14.9 1.3 23.3 l0.8 15.2 -3.4 -0.1 c-1.9 -0.1 -5.6 -0.5 -8.4 -0.9z"/>
  <path d="M1823.5 2130.3 c-32.9 -3.2 -30.5 -2.7 -30.5 -6.8 0 -4 0 -4 10.1 -2.5 5 0.7 45.6 5 47.5 5 0.2 0 0.4 1.6 0.4 3.5 0 2.7 -0.4 3.5 -1.7 3.4 -1 -0.1 -12.6 -1.3 -25.8 -2.6z"/>
  <path d="M1743.6 2121.8 c-0.3 -1.3 -0.6 -4.9 -0.6 -8.1 0 -4.3 0.3 -5.7 1.3 -5.3 0.6 0.3 3.8 1.3 6.9 2.3 l5.8 1.8 0 5.8 0 5.7 -6.4 0 c-5.8 0 -6.4 -0.2 -7 -2.2z"/>
  <path d="M1552.8 2117.6 c-14.1 -1.7 -25.9 -3.4 -26.2 -3.7 -0.6 -0.5 0.7 -23.8 2 -38.2 l0.6 -6.9 3.2 0.4 c1.7 0.3 14 2 27.4 3.9 l24.3 3.4 -0.5 3.5 c-0.3 1.9 -0.8 11.9 -1.2 22.3 -0.5 16.5 -0.8 18.7 -2.3 18.6 -0.9 -0.1 -13.2 -1.6 -27.3 -3.3z"/>
  <path d="M855.1 2111.4 c0.1 -10.1 -1.6 -9.1 27.5 -15.6 14.2 -3.1 26.2 -5.7 26.7 -5.8 0.4 0 0.7 3.5 0.7 7.9 l0 7.8 -3.2 0.6 c-4 0.7 -46.4 9.6 -49.5 10.4 -2.2 0.5 -2.3 0.2 -2.2 -5.3z"/>
  <path d="M574 2110.2 c0 -1.5 4.4 -3.1 25.9 -9.5 30.5 -9.1 32.1 -9.5 32.1 -7.6 0 0.9 -3.2 2.3 -8.8 3.8 -4.8 1.3 -17.5 5.2 -28.3 8.7 -10.8 3.5 -19.9 6.4 -20.3 6.4 -0.3 0 -0.6 -0.8 -0.6 -1.8z"/>
  <path d="M1821.5 2102.3 c-12.1 -1.3 -23.5 -2.6 -25.2 -2.9 l-3.3 -0.5 0 -10.7 c0 -10 1.9 -57.4 2.3 -57.8 0.1 -0.1 3.8 0.4 8.2 1.2 12.2 2.2 38 5.4 43.2 5.4 l4.6 0 -0.7 5.3 c-0.3 2.8 -0.6 18.1 -0.6 34 l0 28.7 -3.2 -0.1 c-1.8 -0.1 -13.2 -1.2 -25.3 -2.6z"/>
  <path d="M946 2089.7 l0 -7.3 25.8 -5.7 c14.2 -3.1 26.3 -5.7 27 -5.7 0.8 0 1.2 2.3 1.2 7.3 l0 7.3 -25.7 5.7 c-14.2 3.2 -26.4 5.7 -27 5.7 -0.9 0 -1.3 -2.1 -1.3 -7.3z"/>
  <path d="M1742.1 2095.5 c-0.4 -0.5 -1.3 -9.1 -2 -19 -1.1 -15.2 -3.5 -35.3 -6.7 -54.4 -0.7 -4.3 -0.7 -4.4 1.7 -3.7 1.3 0.4 7.3 1.7 13.2 2.9 l10.9 2.2 -0.6 5 c-0.3 2.8 -0.6 19 -0.6 36.2 l0 31.1 -7.6 0.4 c-4.3 0.2 -7.9 -0.1 -8.3 -0.7z"/>
  <path d="M772 2091.2 c0 -8 2.2 -85.7 2.4 -86 0.7 -0.6 47.9 -13.2 49.7 -13.2 1.8 0 1.9 0.9 1.9 29.3 0 16 -0.3 36.2 -0.7 44.8 l-0.6 15.7 -19.1 4.1 c-10.5 2.3 -22.4 5 -26.4 6 l-7.2 1.9 0 -2.6z"/>
  <path d="M576 2077.2 c0 -2.6 0.7 -13.7 1.5 -24.7 0.8 -11 1.5 -21.2 1.5 -22.6 0 -2.3 0.7 -2.7 10.1 -5.3 5.5 -1.6 17.8 -5.3 27.2 -8.2 9.4 -3 17.7 -5.4 18.4 -5.4 1 0 1.2 0.9 0.9 3.3 -0.3 1.7 -0.8 11.3 -1.1 21.2 -0.8 25.9 -1.3 30.5 -3.5 30.5 -1.9 0 -43.7 11.8 -50.7 14.4 l-4.3 1.5 0 -4.7z"/>
  <path d="M1024.5 2076.1 c-0.3 -2.5 -0.8 -6 -1.1 -7.7 -0.5 -3 -0.4 -3.1 3.3 -3.8 2.1 -0.3 10.2 -1.7 17.9 -3 7.8 -1.4 15 -2.2 16.1 -2 1.5 0.4 2.3 2.3 3.6 9.2 0.9 4.7 1.5 8.7 1.4 8.8 -0.2 0.2 -7.5 0.5 -16.2 0.8 -8.8 0.3 -17.9 0.9 -20.2 1.4 l-4.1 0.9 -0.7 -4.6z"/>
  <path d="M856 2041.2 c0 -18.6 0.3 -39.4 0.7 -46.3 l0.6 -12.6 25.6 -7.2 c14.1 -3.9 25.9 -7.1 26.4 -7.1 0.4 0 0.7 21.6 0.7 48 l0 48 -2.4 0 c-2.1 0 -29.1 5.6 -45.3 9.4 l-6.3 1.4 0 -33.6z"/>
  <path d="M1663.5 2066.4 c-19.4 -3.5 -17.5 -2.4 -17.5 -10 l0 -6.7 14.3 0.8 c8.6 0.4 14.6 1.1 15.3 1.8 1.4 1.4 2.8 15.3 1.7 16 -0.4 0.2 -6.6 -0.6 -13.8 -1.9z"/>
  <path d="M945.2 2038 c-0.7 -9.6 -1.7 -29 -2.2 -43 -0.6 -14 -1.1 -27.9 -1.3 -30.9 l-0.2 -5.4 4.5 -1.2 c35 -9.5 43.1 -11.5 45.2 -11.5 l2.4 0 1.7 26.3 c2 29.8 2.1 41 0.7 43.7 -0.9 1.7 -0.1 14 1.6 25 l0.6 3.8 -5.8 1.3 c-3.3 0.6 -14.9 3.1 -26 5.3 l-20.1 4.2 -1.1 -17.6z"/>
  <path d="M1573 2051.3 c-1.4 -0.2 -11.3 -1.4 -22 -2.6 l-19.5 -2.2 -0.3 -4.9 -0.3 -4.9 3.3 0.7 c13.6 2.7 31 5.7 40.1 6.7 l10.7 1.3 0 3.3 c0 3.3 0 3.3 -4.7 3.2 -2.7 -0.1 -5.9 -0.4 -7.3 -0.6z"/>
  <path d="M1020.2 2024.8 c-1.1 -14.1 -1.1 -17.9 0.3 -28.3 1.8 -13.8 5.1 -32.5 6.6 -37.2 1.5 -4.8 3.7 -3.3 5.4 3.7 0 0.3 0.6 1.5 1.3 2.8 0.7 1.2 1 2.2 0.7 2.2 -0.3 0 0.1 1 1 2.3 0.8 1.2 1.6 3.2 1.8 4.2 0.2 1.1 0.8 3 1.5 4.2 0.7 1.2 1.3 3 1.5 4 0.1 1 0.6 2.4 1 3.1 0.5 0.6 0.5 1.2 0 1.2 -0.4 0 -0.3 0.4 0.3 0.8 1.4 0.9 7.5 19.2 6.8 20.3 -0.3 0.5 0 0.9 0.6 0.9 0.6 0 1 0.6 0.9 1.3 -0.1 0.6 0.3 2.5 0.9 4 0.7 1.5 1.1 3.1 1 3.5 -0.1 0.4 0.4 2 1.1 3.6 0.6 1.6 1.3 4 1.4 5.5 0.2 1.5 0.7 3.2 1.1 3.9 0.4 0.7 0.4 1.7 0.1 2.2 -0.3 0.6 -0.1 1 0.4 1 1.7 0 1.3 2.7 -0.5 3.4 -0.9 0.3 -4.4 0.6 -7.8 0.6 -6 0 -21.5 1.6 -24.6 2.5 -1.4 0.4 -1.8 -1.9 -2.8 -15.7z"/>
  <path d="M1658.5 2034.6 l-13 -2.1 -0.8 -23.4 c-0.5 -12.8 -0.6 -23.5 -0.4 -23.8 0.7 -0.6 24.7 2.4 25.5 3.2 0.8 0.8 5.1 46.7 4.5 47.8 -0.5 0.9 0.1 0.9 -15.8 -1.7z"/>
  <path d="M1558.5 2019.3 c-13.2 -1.9 -24.1 -3.5 -24.2 -3.7 -0.2 -0.2 0.3 -5.7 1.1 -12.2 1.2 -10.2 2 -13 5.4 -19.9 2.1 -4.4 4.2 -9 4.6 -10.2 1.4 -4.5 2.3 -4.5 22.2 -0.6 l18.9 3.8 -0.2 17 c-0.4 21.6 -1.1 29.5 -2.6 29.4 -0.7 -0.1 -12 -1.7 -25.2 -3.6z"/>
  <path d="M1833.5 2013 c-7.7 -1.6 -19.3 -3.7 -25.7 -4.6 -10 -1.6 -11.8 -2.1 -11.8 -3.6 0 -2.2 -1 -2.2 13.5 0.1 6.6 1.1 17.4 2.7 24 3.6 19.3 2.5 18.5 2.3 18.5 5 0 3.1 -0.3 3.1 -18.5 -0.5z"/>
  <path d="M581 1998.7 c0 -2.3 0.7 -2.7 5.8 -4.2 3.1 -0.8 15.4 -4.7 27.3 -8.5 12 -3.9 22 -7 22.3 -7 0.3 0 0.6 1.2 0.6 2.8 0 2.7 -0.3 2.8 -25.8 10.5 -33.6 10.1 -30.2 9.4 -30.2 6.4z"/>
  <path d="M1742 1999.1 l-12.5 -1.6 -0.3 -4.4 c-0.3 -4.1 -0.2 -4.3 2 -3.8 1.3 0.4 8.3 2.1 15.6 3.8 12.4 2.9 13.2 3.3 13.2 5.5 0 2.9 0 2.9 -18 0.5z"/>
  <path d="M1823.5 1982.9 c-13.2 -2.1 -24.4 -3.8 -24.9 -3.8 -1.3 -0.1 -0.1 -23 2.5 -47.1 1.2 -11.3 2.3 -20.7 2.4 -20.8 0.3 -0.3 51.9 7.8 53.2 8.3 0.3 0.1 -2.7 58.7 -3.3 63.3 -0.6 5.2 1.5 5.2 -29.9 0.1z"/>
  <path d="M775 1969.4 c0 -7.4 0.2 -8.4 1.8 -8.4 1 0 12.5 -2.9 25.7 -6.5 13.1 -3.6 24 -6.5 24.2 -6.5 0.2 0 0.3 3.5 0.3 7.8 l0 7.7 -19.3 5.2 c-10.5 2.9 -22.2 6.1 -25.9 7.2 l-6.8 2 0 -8.5z"/>
  <path d="M1748.5 1971.9 c-3.3 -0.5 -9.8 -1.3 -14.5 -1.7 l-8.4 -0.7 -3.3 -22.5 c-1.7 -12.4 -4.4 -29.4 -5.8 -37.8 -1.5 -8.5 -2.5 -15.5 -2.3 -15.7 0.2 -0.2 4.8 0.7 10.3 2.1 5.5 1.3 16.7 3.8 24.9 5.4 8.3 1.7 15 3.2 15.1 3.3 0.2 0.7 -1.4 47.2 -2 57 l-0.7 11.7 -3.7 -0.1 c-2 -0.1 -6.3 -0.5 -9.6 -1z"/>
  <path d="M583.3 1964.2 c0.3 -3.1 1.3 -15.7 2.3 -27.8 l1.7 -22.1 27.4 -8.8 c15.1 -4.7 27.7 -8.4 28 -8.1 0.3 0.3 -0.2 10.3 -1.1 22.3 -2.3 31.4 -2.6 33.3 -4.2 33.3 -1.1 0 -28 8.3 -50.3 15.6 l-4.4 1.4 0.6 -5.8z"/>
  <path d="M1663.5 1966.5 c-0.5 -0.2 -5.4 -1.1 -10.7 -2 l-9.8 -1.7 0 -3.5 0 -3.5 7.8 0.7 c15.8 1.5 16.5 1.7 17.4 5 1.3 4.8 -0.4 6.5 -4.7 5z"/>
  <path d="M857.6 1947.4 c0.4 -4.4 0.7 -8 0.8 -8.1 0.1 -0.2 50.6 -14.3 51.2 -14.3 0.2 0 0.4 3.5 0.4 7.8 l0 7.7 -25.3 6.9 c-13.8 3.8 -25.8 7.1 -26.5 7.4 -1 0.4 -1.2 -1.2 -0.6 -7.4z"/>
  <path d="M1569.5 1951.2 c-6.6 -0.9 -12.2 -1.7 -12.4 -1.8 -0.2 -0.2 0.2 -1.7 0.9 -3.4 0.9 -2.2 1.7 -2.9 2.9 -2.5 2.5 1 22.4 5.5 24.4 5.5 1 0 1.7 0.8 1.7 2 0 2.4 -0.3 2.4 -17.5 0.2z"/>
  <path d="M1654.5 1937.4 c-3.8 -0.7 -8 -1.6 -9.2 -1.9 -2.2 -0.5 -2.2 -0.5 -1.7 -21.3 0.3 -11.4 0.7 -24 1 -28.1 l0.6 -7.3 7.6 0.7 c4.3 0.4 8 1 8.4 1.3 0.6 0.6 4.8 49.4 4.8 55.8 0 2.8 -0.9 2.9 -11.5 0.8z"/>
  <path d="M775.7 1917.6 c0.2 -9.4 0.6 -23 0.9 -30.3 l0.6 -13.2 15.1 -5 c16.6 -5.5 32.4 -10.1 34.4 -10.1 1 0 1.3 6.3 1.3 30.8 l0 30.8 -4.7 1.1 c-3.9 0.8 -43 11.5 -46.8 12.7 -0.6 0.2 -0.9 -5.7 -0.8 -16.8z"/>
  <path d="M940 1931.6 c0 -0.6 -0.3 -4.3 -0.6 -8.2 -0.6 -6.9 -0.6 -7.1 1.7 -7.6 1.3 -0.3 12.4 -3.3 24.7 -6.7 12.2 -3.3 22.9 -6.1 23.7 -6.1 1.1 0 1.5 1.2 1.5 4.9 0 2.6 0.3 6.8 0.6 9.2 l0.6 4.4 -12.9 2.3 c-7 1.2 -18.8 3.8 -26 5.6 -8.5 2.1 -13.3 2.9 -13.3 2.2z"/>
  <path d="M1573.7 1925.3 c-6.8 -0.5 -6.8 0.6 -0.2 -14.1 2.3 -5.3 4.6 -9.7 5.1 -9.6 2.6 0.3 8.3 15.5 8.4 22.2 0 2.4 0.6 2.3 -13.3 1.5z"/>
  <path d="M858 1886.4 c0 -14.3 -0.3 -28.2 -0.6 -31.1 l-0.7 -5.1 5.4 -1.6 c10.8 -3.3 42.8 -11.1 43.2 -10.6 0.7 0.7 2.8 31.6 3.3 47 l0.4 13.5 -24.3 6.4 c-13.3 3.5 -24.8 6.6 -25.4 6.8 -1 0.4 -1.3 -5.1 -1.3 -25.3z"/>
  <path d="M1829 1890.5 l-22.5 -4.2 0.1 -3.7 c0.1 -2 0.3 -3.9 0.6 -4.1 0.2 -0.3 10.8 1.1 23.4 3 12.6 1.9 24.2 3.5 25.8 3.5 2.4 0 2.8 0.3 2.2 2.3 -0.3 1.2 -0.6 3.4 -0.6 5 0 2.4 -0.3 2.7 -3.2 2.6 -1.8 -0.1 -13.4 -2 -25.8 -4.4z"/>
  <path d="M699.3 1885.5 c0 -3.8 0.2 -5.3 0.4 -3.2 0.2 2 0.2 5.2 0 7 -0.2 1.7 -0.4 0.1 -0.4 -3.8z"/>
  <path d="M938.3 1875.9 c0.3 -8.5 1.3 -19.2 2.2 -23.9 1.8 -9.2 5.1 -18 6.8 -18 1.6 0 16.7 16.6 16.7 18.4 0 0.4 0.6 1.3 1.3 2 0.6 0.7 2.1 2.5 3.2 4 1.1 1.6 2.5 3.3 3.1 4 1.2 1.3 9 11.9 12.1 16.3 l2.2 3.2 -4.7 0.6 c-13.7 1.9 -34.3 5.9 -41.6 8.1 -1.8 0.6 -1.9 0 -1.3 -14.7z"/>
  <path d="M590 1885.6 c0 -2.2 1.5 -2.7 26.8 -10 14.7 -4.2 27.3 -7.6 28 -7.6 0.6 0 1.2 0.8 1.2 1.9 0 1.4 -1 2 -3.7 2.5 -2.1 0.3 -14.5 3.9 -27.5 8.1 -13 4.1 -23.9 7.5 -24.2 7.5 -0.3 0 -0.6 -1.1 -0.6 -2.4z"/>
  <path d="M1734.2 1875.2 l-22.3 -3.6 0.3 -6.1 c0.4 -7.2 -0.8 -7.1 17.8 -2.2 7.4 2 18.6 4.6 24.8 5.8 10.3 2 11.2 2.4 11.2 4.5 0 4.4 -1 5.4 -5.4 5.3 -2.2 -0.1 -14.1 -1.8 -26.4 -3.7z"/>
  <path d="M1848.5 1860.9 c-4.4 -1 -15 -3 -23.5 -4.5 l-15.6 -2.7 1.8 -16.6 c1.5 -13.9 6.4 -46.1 7.2 -46.8 0.1 -0.1 8.1 1.3 17.7 3.1 9.6 1.9 20.7 3.9 24.7 4.6 l7.3 1.2 -0.6 3.1 c-1.8 10.9 -4.5 32.1 -5.5 43.2 -1.4 16.4 -1.6 17.5 -3.8 17.4 -0.9 -0.1 -5.3 -1 -9.7 -2z"/>
  <path d="M1652.5 1860.2 c-3.9 -1.1 -6.1 -2.3 -6.3 -3.4 -0.3 -1.5 0.4 -1.6 5.5 -1.1 6.9 0.7 9.5 1.9 9.1 4 -0.4 2.3 -1.5 2.4 -8.3 0.5z"/>
  <path d="M699 1855 c0 -3.4 0.3 -4 2.1 -4 1.7 0 2 0.4 1.5 2.3 -0.3 1.2 -0.6 3 -0.6 4 0 0.9 -0.7 1.7 -1.5 1.7 -1.1 0 -1.5 -1.1 -1.5 -4z"/>
  <path d="M593.4 1852.3 c1.4 -9.1 3.7 -33.9 4.4 -46.2 l0.7 -13.4 17 -7.3 c18.1 -7.7 36.1 -14.2 36.9 -13.3 0.7 0.6 -1 37.2 -2.5 55.7 -0.9 10.9 -1.5 14.2 -2.6 14.2 -0.8 0 -12.9 3.2 -27 7 -14.1 3.9 -26 7 -26.6 7 -0.5 0 -0.6 -1.7 -0.3 -3.7z"/>
  <path d="M1739 1842.8 c-13.5 -2.2 -24.6 -4.1 -24.7 -4.2 -0.4 -0.4 3.6 -33.9 6.2 -51.4 1.4 -9.6 2.5 -17.5 2.5 -17.6 0 -0.3 49.3 10.5 49.8 10.9 0.2 0.2 -0.6 7.4 -1.7 16.1 -1.1 8.8 -2.5 23.7 -3.2 33.2 -1 14.6 -1.5 17.2 -2.8 17.1 -0.9 0 -12.6 -1.9 -26.1 -4.1z"/>
  <path d="M778 1840 c0 -4.2 0.4 -6 1.3 -6 0.7 0 11.5 -3.6 24.1 -8 12.5 -4.4 23.2 -8 23.7 -8 0.5 0 0.9 3.1 0.9 6.8 l0 6.9 -8.2 2.2 c-4.6 1.3 -15.6 4.5 -24.6 7.2 -8.9 2.7 -16.5 4.9 -16.7 4.9 -0.3 0 -0.5 -2.7 -0.5 -6z"/>
  <path d="M1650.5 1837.9 l-4 -0.9 -0.1 -12.3 c-0.1 -6.7 -0.5 -21.2 -0.9 -32.2 l-0.7 -20 5.7 -10.3 c3.1 -5.6 6.1 -10.2 6.7 -10.2 0.6 0 4.2 1.1 8 2.5 6 2.2 23.2 6.9 32.2 9 l2.9 0.6 -0.6 19.7 c-0.6 23.1 -2 32.2 -4.6 31.5 -1 -0.2 -2.6 -1.8 -3.5 -3.4 -2.1 -3.5 -7.2 -7 -9.2 -6.2 -0.8 0.3 -1.4 0.1 -1.4 -0.5 0 -1.9 -3.8 -1.9 -8.4 0 -2.5 1.1 -4.3 2.4 -4 2.9 0.3 0.5 -0.2 1.2 -1 1.5 -0.9 0.3 -1.3 1 -1 1.5 0.3 0.5 0 0.9 -0.6 0.9 -0.6 0 -0.8 0.5 -0.5 1 0.3 0.6 0.2 1 -0.4 1 -0.6 0 -0.8 0.7 -0.4 1.6 0.4 1 -0.1 2 -1.2 2.6 -1.4 0.8 -1.5 1.2 -0.4 1.9 1.2 0.7 1.1 0.9 -0.1 0.9 -1.3 0 -1.3 0.1 0 1 1.1 0.7 1.1 1 0.2 1 -0.7 0 -1 0.5 -0.7 1 0.3 0.6 0 1 -0.7 1 -0.9 0 -0.9 0.3 0.2 1 1.3 0.9 1.3 1 0 1 -1.3 0 -1.3 0.1 0 1 1.3 0.9 1.3 1 0 1 -1.3 0 -1.3 0.1 0 1 0.8 0.5 1 1 0.4 1 -0.6 0 -1.4 1.8 -1.8 4 -0.6 3.6 -0.9 4 -3.4 3.9 -1.5 -0.1 -4.5 -0.5 -6.7 -1z"/>
  <path d="M697.4 1829.5 c-0.8 -2.6 -3.5 -17.9 -4.4 -25.5 -1.2 -9.5 -2.8 -41.6 -2.3 -44.1 0.3 -0.8 2.1 -2 4.1 -2.6 2 -0.5 12 -3.5 22.2 -6.6 10.1 -3.2 19.9 -6 21.7 -6.3 l3.3 -0.6 -0.6 6.8 c-0.3 3.8 -0.9 14.1 -1.2 22.9 l-0.7 16 -2.9 -3.2 c-1.6 -1.8 -3.3 -3 -3.7 -2.7 -0.5 0.3 -0.9 0.1 -0.9 -0.3 0 -0.5 -1.7 -1 -3.7 -1 -3.9 -0.2 -8.8 2.1 -7.8 3.7 0.8 1.3 -0.5 4 -2 4 -0.8 0 -1.1 0.8 -0.8 2 0.4 1.4 0 2 -1.1 2 -1 0 -1.5 0.4 -1.2 0.8 0.7 1.1 -1.5 8.2 -2.5 8.2 -0.4 0 -0.5 0.9 -0.2 2 0.3 1.1 0.1 2 -0.4 2 -0.6 0 -0.8 1.1 -0.5 2.5 0.2 1.5 0 2.5 -0.7 2.5 -0.7 0 -1 0.4 -0.7 0.9 0.4 0.5 0 1.2 -0.6 1.4 -1 0.4 -1 0.6 0 0.6 1.7 0.1 1.5 2.9 -0.4 4.9 -1.2 1.2 -1.3 1.7 -0.4 2 0.9 0.3 0.9 0.7 -0.1 1.4 -1.1 0.7 -1.1 1.1 -0.2 1.5 1 0.3 0.9 0.9 -0.3 2 -1.2 1.2 -1.3 1.8 -0.3 2.3 0.6 0.5 -1.4 1 -4.6 1.1 -3.3 0.2 -5.9 0 -6.1 -0.6z"/>
  <path d="M857 1815.7 l0 -8.4 4.3 -1.2 c2.3 -0.7 9.7 -3.3 16.5 -5.7 l12.2 -4.5 7 3.7 7 3.6 0 5.9 c0 3.2 -0.3 5.9 -0.7 5.9 -3.8 0 -37.3 6.5 -44.5 8.6 -1.6 0.5 -1.8 -0.3 -1.8 -7.9z"/>
  <path d="M778 1770.8 l0 -37.4 22.3 -6.2 c12.2 -3.5 22.7 -6.2 23.2 -6.2 1.1 0 3.5 44.9 3.5 63.3 0 7.6 -0.2 8.7 -1.7 8.7 -1.5 0 -40.4 12.4 -45.5 14.5 -1.7 0.7 -1.8 -1.5 -1.8 -36.7z"/>
  <path d="M855.7 1769.8 c-0.4 -7.9 -0.7 -24.2 -0.7 -36.3 l0 -22 15.8 -4.5 c8.7 -2.5 16.4 -4.4 17.2 -4.2 1.3 0.2 1.4 1.6 0.6 9.2 -0.5 5 -1.2 9 -1.5 9 -0.3 0 -0.4 2.5 -0.3 5.5 0.2 3 0 5.5 -0.5 5.5 -0.5 0 -0.7 2.9 -0.5 6.5 0.2 3.6 0 6.5 -0.4 6.5 -0.5 0 -0.7 2.9 -0.6 6.5 0.2 3.6 0 6.5 -0.5 6.5 -0.4 0 -0.6 4.4 -0.5 9.8 l0.4 9.8 -12.6 2.7 c-6.9 1.5 -13.2 3 -13.9 3.3 -1.1 0.4 -1.5 -2.3 -2 -13.8z"/>
  <path d="M1856.5 1771.5 c-5.5 -1.3 -15.3 -3.3 -21.8 -4.6 l-11.9 -2.2 0.7 -4.6 c0.4 -2.5 0.9 -4.8 1.1 -5.1 0.3 -0.2 5.7 0.4 12.2 1.4 6.4 0.9 17.3 2.4 24.2 3.2 6.8 0.8 12.5 1.6 12.6 1.7 0.1 0.1 -0.3 3 -0.9 6.5 -1.2 7.3 -0.7 7.2 -16.2 3.7z"/>
  <path d="M598.2 1759.3 l0.3 -4.6 24.5 -8.8 c13.5 -4.9 25.5 -8.8 26.8 -8.9 1.4 0 2.2 0.6 2.2 1.8 0 0.9 0.3 2.6 0.6 3.7 0.4 1.7 -0.2 2.2 -4.3 3.1 -6.1 1.5 -28 9.4 -40 14.5 -5.1 2.1 -9.5 3.9 -9.8 3.9 -0.3 0 -0.5 -2.1 -0.3 -4.7z"/>
  <path d="M1749 1750.1 c-14.3 -3 -22.5 -5.2 -22.4 -5.9 0.1 -0.7 0.2 -2.5 0.3 -4.1 0.1 -2.9 0.1 -2.9 4.4 -1.9 2.3 0.5 13.6 2.7 25.1 4.9 11.6 2.2 21.1 4.1 21.3 4.2 0.1 0.2 0 2 -0.4 4 -0.7 4.7 0.2 4.7 -28.3 -1.2z"/>
  <path d="M1868 1739.4 c-2.5 -0.8 -12.1 -3 -21.3 -4.8 -9.3 -1.9 -17.1 -3.7 -17.4 -4 -0.6 -0.6 7.1 -45.4 8 -46.2 0.3 -0.3 8.9 1.3 19.1 3.5 10.1 2.3 20.6 4.4 23.1 4.8 l4.6 0.6 -0.6 5.1 c-0.6 4.9 -4.9 32.6 -6 39.4 -0.7 3.7 -2.1 3.9 -9.5 1.6z"/>
  <path d="M1680.2 1737 c-8.4 -1.5 -15.4 -2.9 -15.6 -3.1 -0.2 -0.2 -0.6 -2.8 -1 -5.7 -0.6 -4.9 -0.5 -5.3 1.1 -4.8 3.1 0.9 17.5 4.3 27.6 6.6 l9.7 2.2 0 3.9 c0 3.8 -0.1 3.9 -3.2 3.8 -1.8 -0.1 -10.2 -1.4 -18.6 -2.9z"/>
  <path d="M691 1727 c0 -2.2 0.2 -4 0.3 -4 0.2 0 10.7 -3.1 23.3 -7 12.6 -3.8 23.9 -7 25.1 -7 2 0 2.3 0.5 2.3 3.9 l0 3.9 -8.2 2.2 c-4.6 1.2 -15.6 4.4 -24.6 7.1 -8.9 2.7 -16.7 4.9 -17.2 4.9 -0.6 0 -1 -1.8 -1 -4z"/>
  <path d="M597.7 1721.8 c-0.4 -2.9 -0.9 -20.4 -1.3 -38.9 l-0.7 -33.6 14.9 -7.2 c19.2 -9.4 38.3 -17.5 39 -16.8 0.6 0.6 2.3 51.3 2.3 72.5 0.1 11.4 0 12.2 -1.8 12.2 -1.1 0 -12.5 3.6 -25.3 8.1 -12.8 4.4 -24 8.3 -24.9 8.6 -1.3 0.4 -1.8 -0.6 -2.2 -4.9z"/>
  <path d="M1759 1719.4 c-10.2 -1.9 -20.6 -3.7 -23.2 -4.1 -4.3 -0.5 -4.8 -0.9 -4.8 -3 0 -2.1 6 -39.8 7.6 -47.4 l0.5 -2.5 24.2 5 c13.3 2.7 24.4 5.1 24.6 5.3 0.3 0.2 -4.8 37.1 -6.6 47.1 -0.3 2.1 -1.1 3.2 -2.2 3.1 -0.9 0 -9.9 -1.6 -20.1 -3.5z"/>
  <path d="M1681 1705.9 c-9.7 -1.7 -19.6 -2.8 -24.1 -2.7 -4.2 0 -8.2 -0.3 -8.9 -0.7 -0.9 -0.5 -1 -3.3 -0.6 -10.4 0.3 -5.3 1.1 -18.1 1.7 -28.6 0.6 -10.4 1.3 -19.2 1.5 -19.4 0.2 -0.2 12.5 2.3 27.5 5.5 l27.1 5.8 -0.6 15.1 c-0.4 8.2 -0.9 20.3 -1.2 26.8 l-0.6 11.7 -2.7 -0.1 c-1.4 -0.1 -10 -1.4 -19.1 -3z"/>
  <path d="M777.2 1702.3 l0.3 -4.7 20.5 -5.7 c21.5 -6.1 25 -6.7 25 -4.6 0 0.6 0.3 2.9 0.6 5 0.6 3.3 0.4 3.7 -1.4 3.7 -1.1 0 -11.4 2.5 -22.7 5.5 -11.4 3 -21.2 5.5 -21.7 5.5 -0.5 0 -0.8 -2.1 -0.6 -4.7z"/>
  <path d="M690.7 1672.6 c-0.3 -13.2 -0.5 -27.9 -0.4 -32.6 0.1 -4.7 0 -13.8 -0.3 -20.4 l-0.5 -11.8 23.3 -9.9 c12.8 -5.4 23.7 -9.9 24.2 -9.9 0.6 0 1 0.6 1 1.3 0 0.6 0.9 9.5 2 19.7 1.2 11 2.3 29.8 2.7 46.3 l0.6 27.7 -2.2 0 c-2.1 0 -22.8 5.6 -40.2 10.8 l-9.7 2.9 -0.5 -24.1z"/>
  <path d="M856.2 1681.9 l0.3 -5.4 11.5 -2.7 c17.8 -4.2 19 -4.3 19 -2.1 0 1.1 0.4 2.3 0.9 2.9 0.6 0.5 1.4 2.9 2 5.3 l0.9 4.3 -4.3 -0.6 c-3.7 -0.6 -17.1 0.9 -27.3 3 l-3.3 0.7 0.3 -5.4z"/>
  <path d="M776.5 1669.3 c-1 -4.9 -0.7 -97.5 0.2 -98.4 1.4 -1.4 19.6 -8.9 21.5 -8.9 1 0 1.8 0.4 1.8 1 0 1 -2.2 6.3 -3 7 -0.3 0.3 -0.6 1.8 -0.7 3.4 -0.1 1.6 -0.6 3.2 -1 3.5 -0.4 0.3 -0.9 1.9 -1 3.6 -0.1 1.6 -0.7 3.1 -1.2 3.3 -0.5 0.2 -0.7 1.2 -0.4 2.2 0.3 1.2 0 2 -0.6 2 -0.7 0 -0.9 0.4 -0.6 1 0.3 0.5 0 3.6 -0.9 6.7 -1.3 5.2 -2.1 14.1 -1.6 16.8 0.1 0.6 0.2 1.3 0.1 1.8 0 0.4 0.4 0.7 1 0.7 0.5 0 0.8 0.4 0.5 0.8 -1.6 2.7 10.7 11.2 22.1 15.2 7 2.5 6.7 1.9 7.8 17.5 0.3 4.4 0.8 9.6 1.1 11.5 l0.5 3.5 -9.4 1.8 c-5.2 1 -15 3.1 -21.8 4.7 -6.8 1.7 -12.7 3 -13 3 -0.4 0 -1 -1.7 -1.4 -3.7z"/>
  <path d="M1871.5 1665.6 c-6 -1.3 -15.3 -3.3 -20.6 -4.5 -9.3 -2.1 -9.6 -2.3 -9.1 -4.7 0.3 -1.7 0.9 -2.3 2.1 -2 2 0.7 25.9 5 36.4 6.7 7.2 1.1 7.8 1.4 7.3 3.3 -0.3 1.2 -0.6 2.4 -0.6 2.9 0 1.1 -3.7 0.7 -15.5 -1.7z"/>
  <path d="M857.3 1656.6 c0.4 -1 0.7 -4.3 0.7 -7.3 l0 -5.6 3.8 0.6 c2.7 0.5 20.9 5.6 21.8 6.1 0.1 0.1 0.4 1.3 0.7 2.7 l0.7 2.6 -9.8 0.7 c-5.3 0.4 -11.7 0.9 -14.1 1.3 -3.9 0.5 -4.3 0.4 -3.8 -1.1z"/>
  <path d="M1764.3 1642.2 c-15.6 -3.4 -21.3 -5 -21.3 -6 0 -1 0.8 -1.3 2.3 -1 1.2 0.3 12.4 2.4 25 4.9 13.1 2.5 22.6 4.8 22.4 5.4 -0.7 2 -7.7 1.2 -28.4 -3.3z"/>
  <path d="M1878 1636.4 c-29.4 -5.3 -31 -5.7 -31 -7.3 0 -3.6 6.4 -35.3 7.4 -36.8 0.1 -0.1 6.4 1.5 13.9 3.7 7.5 2.2 16.6 4.5 20.2 5.1 3.6 0.7 6.5 1.7 6.5 2.3 0 0.6 -0.9 8.1 -2 16.6 -1.1 8.5 -2 16.1 -2 16.8 0 1.5 -3.1 1.4 -13 -0.4z"/>
  <path d="M1677 1624.6 c-25.1 -5.1 -25.5 -5.2 -25.8 -7.7 l-0.3 -2.6 15.8 3.7 c8.7 2 21.1 4.8 27.6 6.1 9.6 1.9 11.7 2.7 11.7 4.1 0 2.4 0.6 2.4 -29 -3.6z"/>
  <path d="M1771 1616.3 c-12.4 -2.6 -22.7 -4.8 -22.9 -5 -0.4 -0.3 7.7 -48.5 8.2 -49 0.1 -0.1 9.4 2.7 20.7 6.3 11.3 3.5 21.5 6.6 22.8 7 2.9 0.8 2.8 2.9 -0.6 26.4 -2.1 14.3 -3 18.5 -4.2 18.6 -0.8 0.1 -11.6 -1.8 -24 -4.3z"/>
  <path d="M595 1613.4 l0 -6.5 7.3 -3.3 c12.8 -5.9 40.4 -16.6 42.6 -16.6 1.3 0 2.2 0.8 2.5 2.3 0.3 1.2 0.7 3.4 1.1 5 0.3 1.6 0.1 2.7 -0.5 2.7 -1.6 0 -25.2 10.1 -39.9 17.1 -6.8 3.3 -12.6 5.9 -12.8 5.9 -0.1 0 -0.3 -3 -0.3 -6.6z"/>
  <path d="M815.3 1606.9 c-1.6 -1.6 -1.7 -4.9 -0.3 -4.9 1.3 0 2.3 2.4 1.8 4.5 -0.2 1.3 -0.5 1.4 -1.5 0.4z"/>
  <path d="M1677.2 1597.7 l-25.4 -5.2 0.6 -5 c0.3 -2.7 0.8 -11.7 1.2 -20 0.4 -9.7 1.1 -16.5 2.1 -19.3 1.1 -2.9 1.4 -6.1 1 -10.2 -0.3 -3.7 -0.1 -6 0.5 -6 0.5 0 11.7 3.4 24.8 7.7 l23.8 7.6 0.6 4.5 c0.8 5.9 0.8 44 0 48.1 -0.4 2 -1.2 3.1 -2.3 3 -0.9 -0.1 -13 -2.4 -26.9 -5.2z"/>
  <path d="M687.5 1574.8 c-0.4 -2.7 -0.5 -5 -0.4 -5.2 1.5 -1 40 -16.9 42 -17.3 2.5 -0.5 2.7 -0.2 3.3 4.2 0.4 2.6 0.6 4.8 0.4 4.9 -0.2 0.1 -5.5 2.3 -11.8 4.8 -6.3 2.5 -16.3 6.6 -22.2 9.1 l-10.6 4.5 -0.7 -5z"/>
  <path d="M1882.8 1575 c-5.9 -2 -13.4 -4.5 -16.7 -5.4 l-5.9 -1.6 1.3 -4.8 c0.7 -2.6 1.6 -4.6 2.1 -4.6 0.5 0.1 8.7 1.6 18.2 3.5 l17.2 3.3 0 3.7 c0 2 -0.3 5.1 -0.6 6.8 -0.8 3.9 -1.8 3.9 -15.6 -0.9z"/>
  <path d="M594 1555.2 l0 -22.9 6.8 -3.1 c7.6 -3.5 25.7 -10.2 27.5 -10.2 1.5 0 9.1 20.2 11.8 31.5 2.3 9.7 2.3 9.5 0.4 9.5 -1.4 0 -31.3 11.5 -42.7 16.4 l-3.8 1.6 0 -22.8z"/>
  <path d="M1781 1544.7 c-18.8 -5.7 -20.5 -6.4 -20.2 -8.3 0.3 -2.1 0.6 -2.1 19.5 2.7 10.6 2.7 20.2 4.9 21.5 4.9 1.9 0 2.2 0.5 2.2 3.5 0 2.2 -0.5 3.5 -1.2 3.4 -0.7 0 -10.5 -2.8 -21.8 -6.2z"/>
  <path d="M775 1537.6 l0 -5.4 17.8 -7.2 c21.8 -9 21.2 -8.8 21.2 -6.1 0 1.1 -0.4 2.1 -1 2.1 -0.5 0 -0.7 0.7 -0.4 1.5 0.4 0.8 0.2 1.5 -0.2 1.5 -0.5 0 -1 1.4 -1.1 3.2 -0.1 1.7 -0.6 3.5 -1 3.9 -1 0.9 -32.5 11.9 -34.1 11.9 -0.8 0 -1.2 -2 -1.2 -5.4z"/>
  <path d="M686.4 1538.5 c-0.4 -0.8 -0.7 -11 -0.8 -22.6 l-0.1 -21 9.4 -4 c5.2 -2.1 10.2 -3.9 11.2 -3.9 2.1 0 9.9 14.6 15.5 29.2 3.9 10.1 3.9 9.8 1.9 9.8 -0.9 0 -9.1 3.2 -18.4 7 -9.2 3.9 -17.1 7 -17.5 7 -0.3 0 -0.9 -0.7 -1.2 -1.5z"/>
  <path d="M1679.8 1516.3 c-12.6 -3.6 -22.8 -6.9 -22.8 -7.2 0 -0.3 0.4 -1.2 0.9 -2 0.7 -1.1 2.6 -0.8 10.2 1.7 13 4.3 34 10.2 36.1 10.2 1.1 0 1.8 0.7 1.8 2 0 1.3 -0.6 2 -1.7 1.9 -1 0 -12 -3 -24.5 -6.6z"/>
  <path d="M1785 1514.6 c-9.1 -2.3 -17 -4.4 -17.6 -4.7 -0.8 -0.3 -0.4 -2.6 1.3 -7.2 3.1 -8.2 2 -8.1 19.6 -0.1 6.6 3 12.8 5.4 13.8 5.4 1.6 0 1.9 0.8 1.9 5.5 0 3.8 -0.4 5.5 -1.2 5.4 -0.7 0 -8.7 -2 -17.8 -4.3z"/>
  <path d="M772.6 1501.5 c-0.4 -1.5 -0.4 -10.7 0 -20.5 l0.7 -17.9 13.4 -4.5 c7.3 -2.5 14 -4.6 14.7 -4.6 0.8 0 2.1 1.6 3.1 3.5 2 4.3 6 19.9 7 27.3 0.6 4.5 0.5 5.2 -1 5.2 -1.3 0 -19 6.7 -36.1 13.7 -0.6 0.2 -1.5 -0.8 -1.8 -2.2z"/>
  <path d="M1681 1488.5 c-11.3 -3 -20.5 -5.5 -20.6 -5.5 -0.7 -0.2 6 -32.2 7.6 -36.6 l0.9 -2.3 5.3 2 c2.9 1 10.1 4.3 15.9 7.2 l10.5 5.2 1.8 15.5 c0.9 8.5 1.8 16.5 2 17.8 0.2 1.5 -0.2 2.2 -1.3 2.1 -0.9 0 -10.8 -2.5 -22.1 -5.4z"/>
  <path d="M998.5 1185.1 c-8.9 -3.9 -7.5 -15.4 2.2 -18.5 3.7 -1.2 33.9 -19.6 52.9 -32.3 34.9 -23.3 65.1 -39.3 81.7 -43.4 12.6 -3.1 24.9 -3.1 33.8 -0.1 14.1 4.8 25.8 14.2 31.1 24.9 2.8 5.8 3 6.9 2.6 14.1 -1.2 20.7 -16.9 36.6 -45.6 46.2 -16.7 5.6 -22.1 6 -72.5 6 -34 0 -48.4 0.4 -56 1.4 -14.2 2 -27.8 2.8 -30.2 1.7z"/>
  <path d="M1272.5 1174 c-20.5 -4.1 -39.4 -16.6 -46 -30.5 -2.6 -5.2 -2.9 -7.2 -3 -15 0 -8.2 0.3 -9.6 3.4 -15.7 6.4 -12.8 19.2 -22.8 32.9 -25.7 13.4 -2.8 35.1 -0.6 50.9 5.1 11 4 53.5 25.2 70.8 35.3 7.2 4.2 15.3 8.8 18 10.2 8.2 4.1 28.2 16.3 29.5 17.9 1 1.1 0.8 2.4 -1.1 6.4 -3.4 7.2 -5 7.6 -27.7 6 -22.5 -1.6 -41.5 -0.9 -66.2 2.4 -32.8 4.4 -51.7 5.5 -61.5 3.6z"/>
  <path d="M602.5 876.6 c-5.8 -1.8 -8.3 -3.3 -13.7 -8.3 -6.7 -6.4 -12 -17.6 -16.3 -34.6 -4.3 -17 -4.5 -24.4 -1 -42.6 1.4 -7.7 2.9 -20.6 3.5 -30.6 0.5 -9.5 2.1 -25.3 3.4 -35.2 1.4 -9.8 3 -23.7 3.6 -30.9 1 -12.1 2.6 -19.8 6.3 -30 3.6 -10 7.2 -15.1 19.6 -27.9 6.9 -7.2 14.6 -15.9 17.1 -19.4 8.9 -12.7 23.6 -20.1 40 -20.1 10.2 0 16 1.3 24 5.4 4.8 2.4 7.3 4.5 9.7 8 8.3 12.2 7.6 26.2 -3.1 59.4 -4.6 14.3 -10.3 33.2 -26.6 89.2 -7.4 25.4 -10.7 39.1 -14 56.5 -2.3 12.7 -5.5 27.1 -7.1 32.2 -4.7 14.6 -13.5 24.8 -25 28.8 -5 1.8 -14.9 1.8 -20.4 0.1z m38.7 -205.7 c2.5 -5.1 2.1 -5.8 -1.2 -1.9 -3.1 3.5 -4 6.5 -1.7 5.8 0.6 -0.3 2 -2 2.9 -3.9z m21.4 -51.4 c1.9 -1.4 1.9 -1.4 -0.3 -1.5 -2.8 0 -5.3 1 -5.3 2.1 0 1.4 3.4 1.1 5.6 -0.6z"/>
  <path d="M1883.2 874.9 c-15.6 -1.9 -21.6 -5.8 -24.6 -16 -0.9 -2.8 -2 -12.2 -2.6 -20.8 -1.3 -19.2 -2.6 -31.1 -4.6 -40.4 -4.2 -20.3 -18.8 -67.9 -28.9 -94.2 -3.1 -8.2 -9.1 -25.1 -13.2 -37.5 -4.2 -12.4 -9 -25.3 -10.7 -28.7 -2.7 -5.5 -3.1 -7.3 -3.1 -14.5 0 -11.5 3.3 -18.6 11.9 -25.9 9.1 -7.8 15.3 -10.3 25.1 -10.3 9.3 -0.1 14.1 1.9 19.4 8 3.6 4.1 4.8 6.7 6.6 13.9 l1.1 5 10 0.6 c19.2 1.3 30 5.4 34 13.1 1 1.8 2.5 6.4 3.3 10.2 l1.6 7 7.5 1.6 c13.9 2.9 22 8.6 26.6 18.4 3 6.3 3.1 12.7 0.4 22.4 -2.6 9.2 -2.5 9.7 0.9 14.1 9.5 12 11.7 24.6 7.5 43 -1.5 6.4 -1.5 6.5 1.3 12.5 2.4 5.3 2.8 7.3 2.8 15.1 -0.1 10.6 -2 15.8 -11.2 29.2 -5.2 7.6 -5.5 8.4 -4.9 12.5 1.9 13.7 1.8 19.2 -0.3 24.8 -1.2 3 -2.1 6.2 -2.1 7.1 0 2.5 -9.2 16 -13.4 19.6 -9.2 8.1 -24.9 12.1 -40.4 10.2z m-4.6 -191 c-2.9 -2.3 -4.2 -2 -3.3 0.6 0.4 0.8 1.8 1.5 3.3 1.5 l2.7 0 -2.7 -2.1z m5.5 -44.3 c-1 -1.2 -7.1 -2.8 -7.1 -1.9 0 0.1 1.7 1.3 3.8 2.7 3.6 2.3 5.5 1.9 3.3 -0.8z m-49.1 -30.6 c0 -0.5 -1.9 -0.9 -4.2 -0.9 l-4.3 0.2 3.5 0.7 c1.9 0.4 3.8 0.8 4.3 0.9 0.4 0 0.7 -0.3 0.7 -0.9z"/>
 </g>
</svg>