<?xml version="1.0" encoding="utf-8"?>
<!DOCTYPE svg PUBLIC "-//W3C//DTD SVG 1.0//EN" "http://www.w3.org/TR/2001/REC-SVG-20010904/DTD/svg10.dtd">
<svg version="1.0" xmlns="http://www.w3.org/2000/svg" width="2500px" height="2500px" viewBox="0 0 2500 2500" preserveAspectRatio="xMidYMid meet">
 <g fill="#00b4f1">
  <path d="M1229 1807.9 c-11.9 -1.4 -21.9 -3.9 -29.5 -7.4 -7.4 -3.4 -19.5 -11.8 -19.5 -13.5 0 -1.8 -2.3 -1.1 -12.5 4 -13.4 6.7 -34 12 -46.4 12 -16 0 -33.4 -3.6 -44.1 -9 -12.7 -6.5 -32.9 -23.8 -44.3 -38 l-3.6 -4.5 -2.8 1.8 c-10.5 6.8 -21.5 9.3 -37.8 8.4 -18.5 -1 -29.3 -4.9 -39.5 -14.4 -8.1 -7.4 -13.7 -16.2 -21.8 -33.9 -6.7 -14.6 -6.8 -14.9 -9.7 -14.6 -10 1.1 -27.4 0.5 -32.7 -1.1 -12.2 -3.7 -29.7 -18.6 -35.6 -30.3 -7 -14 -13.2 -37.1 -13.2 -49.5 0 -5.7 -0.8 -6.3 -9.3 -7.4 -3.8 -0.4 -8.9 -2.2 -15 -5.2 -19.6 -9.8 -30 -25.5 -35.8 -54.3 -1.7 -8.5 -3.4 -20.4 -3.7 -26.5 l-0.7 -11 -4 -0.9 c-11.1 -2.3 -18.2 -6.5 -23.7 -14 -3.3 -4.5 -5.5 -5.5 -7.5 -3.5 -1.3 1.3 -4.2 -2.5 -7.4 -10.1 -1.2 -3 -2.6 -5.7 -3 -6 -0.4 -0.3 -1.7 -3.6 -3 -7.5 -1.7 -5.4 -2.2 -9.2 -2.1 -16.2 0 -5.1 -0.4 -9.3 -0.9 -9.3 -0.5 0 -0.9 -2.8 -0.9 -6.2 0 -5.1 0.4 -6.6 2.4 -8.7 2.1 -2.3 2.4 -3.8 2.8 -12.9 l0.5 -10.3 -9.2 -4.4 c-12 -5.7 -17.7 -11.8 -24.5 -26 -9.4 -19.5 -11.4 -29.3 -11.1 -53.5 0 -8 0.2 -15.6 0.4 -16.9 0.2 -2.6 -0.5 -3.1 -7.8 -5.7 -3.6 -1.2 -6.9 -3.7 -12.1 -8.8 -8.6 -8.6 -13.3 -15.6 -17.3 -25.7 -5.8 -14.6 -6 -24.5 -1 -53.9 1.8 -10.8 1.9 -11.6 0.2 -12.7 -0.9 -0.7 -2.1 -1.3 -2.6 -1.3 -1.6 0 -13.1 -7.2 -16.6 -10.4 -4.8 -4.5 -15.1 -20 -17.2 -26.3 -1.1 -2.9 -2.5 -8.7 -3.1 -12.8 -0.9 -5.7 -1.6 -7.6 -3 -8.1 -1.2 -0.4 -1.8 -1.5 -1.8 -3.7 0.1 -3.5 1.6 -20.4 2.6 -27.9 0.5 -3.9 0.4 -4.8 -0.9 -4.8 -2.7 0 -12.2 -9.7 -18.1 -18.3 -6 -9.1 -7.2 -12.9 -3.4 -11.9 1.6 0.4 2 0.2 1.5 -0.9 -0.3 -0.8 -1.8 -4.3 -3.3 -7.9 -3.9 -9.3 -4.4 -22.2 -1.4 -39.4 1.2 -7.2 3 -15.7 4.1 -19 2.6 -8.5 2.4 -10.2 -1.9 -15.5 -5.4 -6.5 -8.7 -12.5 -11.1 -20.5 -3.1 -10.1 -2.7 -19.4 1.4 -37.3 0.4 -1.8 0.1 -2.3 -1.5 -2.3 -1.1 0 -2 -0.5 -2 -1.1 0 -2.7 5.5 -18.9 8.3 -24.4 1.6 -3.3 4.2 -9 5.7 -12.7 l2.8 -6.8 -2.4 -6.5 c-2.8 -7.7 -3 -9.5 -0.9 -9.5 2.1 0 1.9 -2.4 -1.1 -18 -2.4 -12.5 -2.5 -15.1 -2.1 -34 0.2 -11.3 0.9 -25.7 1.5 -32 0.6 -6.3 1.6 -17.8 2.2 -25.5 3.2 -42.5 6.9 -61.6 19 -97.5 22.6 -67.5 38.1 -107.1 53.1 -135.5 16 -30.3 22.3 -41.8 29.9 -54 4.7 -7.7 12.4 -20.7 17 -29 20.6 -37.1 71.9 -109.9 98.8 -140.3 12.4 -14 23.2 -16.7 31.1 -7.7 2.3 2.6 3.1 4.7 3.6 9.2 0.8 7.5 2.5 15.3 3.3 15.2 0.4 0 4.2 -5.3 8.5 -11.7 11 -16.5 45.1 -64.5 51.7 -72.8 26.3 -33 75.1 -84 107.5 -112.3 30.1 -26.3 60.6 -46.4 85 -56.2 10.7 -4.2 30.1 -9.9 33.9 -9.9 4.4 0 10.6 3.9 12.7 8 2.6 4.7 2.4 9.9 -0.5 16.9 -6 14.2 -10 37.7 -9.4 55.4 l0.3 8.8 9.1 -6.4 c10.9 -7.7 58.3 -38.8 66.9 -43.9 15.4 -9.1 44.1 -21.3 53 -22.4 5.1 -0.6 10.1 1.8 13.2 6.5 2.7 3.9 2.8 6.7 0.8 17.6 -1.3 7.3 -2.1 34.5 -1 34.5 0.2 0 2.8 -1.4 5.6 -3.1 17.2 -10.1 68.5 -31.6 99.9 -41.7 38.5 -12.5 58.8 -17.2 100 -23.3 43.7 -6.5 41.9 -6.4 46.3 -4.5 8.1 3.3 9.8 12.4 4.6 24.6 -5.8 13.7 -9.9 35.5 -9.9 52.6 0 5.3 -0.7 16.1 -1.6 24 -0.9 8 -1.4 14.7 -1.1 15 0.3 0.3 7 -1.5 14.8 -4 19.7 -6.3 39.5 -10.6 78.9 -17.1 47.2 -7.9 45.7 -7.7 51.5 -6.5 10.2 2.2 15.7 8.5 16.3 18.7 0.4 6.2 0.2 6.9 -5.2 17.7 -7.8 15.7 -10.4 26.5 -11.6 48.1 -0.5 9.4 -1.6 22.4 -2.5 29 -0.8 6.5 -1.5 13.7 -1.5 15.9 l0 3.9 11.3 -0.6 c14.6 -0.8 24.5 -2.7 44.1 -8.8 24.6 -7.6 32.6 -9.5 58.9 -13.9 13.3 -2.2 29.3 -4.9 35.6 -6 21.7 -3.8 30.5 -2.2 36.2 6.8 2.3 3.7 2.9 5.7 2.9 10.4 0 6.9 -1.3 10.3 -8.5 22.3 -7.6 12.8 -35.2 79.3 -33.5 80.8 0.3 0.2 5.7 -0.2 12 -0.9 15.9 -1.8 21.1 -0.7 27.2 6 5.2 5.7 5.9 10.2 6.8 44.6 0.9 32.5 2.9 60.2 5.5 75 2.9 16.3 10.7 39.9 23.4 70.8 2.8 6.7 6.4 16.6 8 22 8.3 27.2 11.3 37.8 14.1 49.7 1.7 7.2 4.4 18.6 6 25.5 4.6 19.2 9.1 46.2 11 65.5 0.6 6.6 1.7 15.4 2.5 19.6 0.8 4.1 2.1 14.2 3 22.5 0.9 8.2 2.8 21.4 4.2 29.4 1.6 9.4 2.6 19.4 2.8 28.5 0.3 11.2 0.7 14.1 1.8 14.3 0.9 0.2 1.7 2 2 4.5 0.3 2.3 1.5 8.5 2.6 13.7 1.6 7.5 2.1 13.2 2.1 26.8 0 15.9 -0.1 17.2 -1.8 17.2 -1.6 0 -1.9 1.9 -3 21.8 -1.3 23.8 -5.8 58 -9.7 73.7 -2.9 11.6 -7.7 22.2 -12.8 28.3 -3.4 4 -3.6 4.7 -3 9 0.3 2.5 1.3 7.6 2.2 11.2 1.4 5.6 1.9 6.5 3.8 6.4 3.2 -0.1 3.7 2.1 3.6 18.6 -0.1 15 -1.4 24 -5.4 37.8 -1.9 6.1 -2.5 7.2 -4.4 7.2 -2.9 0 -4.5 2.1 -8 10 -7.5 17.4 -13.7 27.7 -22.3 37.1 l-5 5.5 2.8 11.6 c4.2 17 5.4 31.8 4.6 54.8 -0.7 21.8 -2 29.8 -6.6 41.7 -5 13.1 -30.5 49.3 -39 55.3 -1.7 1.2 -3 2.9 -3 3.9 0 1 3.7 12.6 8.2 25.7 8.1 23.6 8.2 24 8.2 33.9 0 12.1 -2 19.6 -10 36.4 -3 6.3 -5.4 11.5 -5.4 11.7 0 0.1 0.8 1 1.7 1.9 1.6 1.6 1.5 2 -1.2 6.9 -7.3 13.1 -19.9 29.2 -28.6 36.6 -4.2 3.6 -5.1 3.9 -7 2.9 -3.1 -1.6 -3.6 -0.1 -2.8 7.8 1.5 13.5 1 39.2 -1 48.8 -3.9 18.7 -14.2 38.1 -28.5 53.3 -7.5 8 -13.3 11.9 -31 20.8 -15.4 7.8 -16.1 8.3 -15.9 11 0.1 1.6 0.5 7.6 0.9 13.4 1 15.9 -2.5 27.1 -14.1 44.6 -10.4 15.5 -21.4 24 -38.5 29.5 -14.6 4.7 -25.8 5.7 -41.9 3.5 -7.5 -1.1 -13.6 -1.5 -14 -1 -0.4 0.5 -3.7 4.6 -7.4 9.1 -16.5 20 -32.6 29.5 -61.2 35.8 -11.3 2.5 -13.1 2.7 -31.5 2.2 -24.2 -0.5 -29.7 -1.8 -50.3 -12 l-14.9 -7.3 -3.5 5.5 c-8.1 12.9 -16.4 19.2 -39.8 30.5 -18.7 9 -23.4 10.3 -41.5 11.2 -21.1 1.1 -34 -2.2 -43.8 -11 -2.2 -2 -4.3 -3.6 -4.7 -3.6 -0.4 0 -2.9 2 -5.7 4.4 -9.5 8.3 -17.8 11.1 -37.1 12.6 -14.2 1.1 -23.2 1.1 -33.7 -0.1z m-35 -125.3 c2.2 -1.4 4 -3.3 4 -4.1 0 -0.8 0.8 -1.5 1.9 -1.5 1 0 3.5 -1.9 5.6 -4.2 2 -2.4 4.9 -5.6 6.4 -7.3 3.6 -3.8 8.1 -10 8.1 -10.9 0 -0.4 -4.2 3.6 -9.4 8.8 -5.1 5.3 -9.8 9.6 -10.4 9.6 -0.6 0 -1.6 0.9 -2.2 2 -0.6 1.2 -2.1 2 -3.5 2 -1.4 0 -2.5 0.5 -2.5 1 0 1.8 -13.3 1.1 -19.6 -1 -8.1 -2.8 -12.6 -6 -16 -11.4 -3.5 -5.5 -4.7 -6.1 -7 -3.5 -1.6 1.8 -1.6 1.9 0 1.9 1 0 5 3.4 8.8 7.5 12.6 13.5 25.9 17.6 35.8 11.1z m-73.2 -7.6 c0.2 -0.5 2 -1 4 -1 3.6 0 11.7 -3.3 15.7 -6.3 1.8 -1.4 1.6 -1.4 -2.5 -0.6 -18.3 3.5 -24.6 3.5 -34.5 -0.2 -9.7 -3.6 -23.5 -18.7 -23.5 -25.6 0 -3 -1.3 -3.6 -3.3 -1.2 -0.9 1 -2.7 2 -3.9 2 -1.6 0.1 -1.2 0.4 1 0.8 2.9 0.5 3.6 1.3 5.7 6.5 2.6 6.3 11.7 16.7 18.4 20.8 8.8 5.5 21.8 8.2 22.9 4.8z m-73 -16.1 c3.5 -1.5 9.3 -5.5 14.7 -10.2 0.6 -0.4 -0.3 -0.3 -2 0.3 -6.1 2.3 -16.9 4 -25.6 4 -10.8 0 -15.8 -2 -23 -9.1 -5.5 -5.6 -13.4 -20.5 -14.4 -27.4 -0.4 -2.5 -1.1 -4.5 -1.6 -4.5 -1.1 0 -1.1 -30.6 0 -37.2 1.9 -11.4 -4.6 2.5 -7.4 15.7 -2.4 11.7 0.2 29.1 6.2 41 9.5 18.7 20.7 27.8 36.1 29.4 8.7 0.9 10.9 0.6 17 -2z m374.8 -119 c2.5 -0.7 4.8 -1.8 5.1 -2.5 0.3 -0.8 1.5 -1.4 2.7 -1.4 1.1 0 2.6 -0.4 3.2 -0.8 0.7 -0.4 -4.7 -0.7 -12 -0.8 -10.7 -0.1 -14.2 -0.5 -18.9 -2.2 -9.6 -3.5 -20.5 -11.7 -26.7 -20 -1.4 -1.9 -3.1 -4 -3.8 -4.7 -0.6 -0.8 -3 -4.8 -5.3 -8.9 -6 -11.2 -7.4 -8.3 -2 4 12.1 27.3 36 42.7 57.7 37.3z m74.2 -35.1 c2.3 -1.1 4.2 -2.6 4.2 -3.4 0 -0.8 0.9 -1.4 2 -1.4 2.4 0 10.8 -10.3 11.7 -14.2 0.3 -1.6 1.1 -2.8 1.8 -2.8 1 0 4.3 -6.2 5.9 -11.4 0.6 -1.6 1.3 -1.8 6.2 -1.2 6.5 0.8 12.4 -0.7 16 -4.1 1.4 -1.3 2.9 -2.3 3.4 -2.3 1.4 0 7.2 -7.9 8.6 -11.8 1.6 -4.4 1.8 -11.2 0.4 -11.2 -0.5 0 -1 -2.1 -1 -4.6 0 -6 -2.1 -17.4 -3.2 -17.4 -0.4 0 -0.8 -1.5 -0.9 -3.2 0 -1.8 -0.7 -4.9 -1.4 -6.8 -1.8 -4.6 -1.8 -3 0.1 5 2.1 9.3 3 32.3 1.4 38 -1.8 6.6 -7.1 11.5 -14.3 13 -3.1 0.6 -8.2 1 -11.3 0.9 -6.5 -0.3 -8.4 1.2 -8.4 6.8 0 1.8 -0.3 3.3 -0.7 3.3 -0.5 0 -1.6 2 -2.6 4.5 -1.1 2.5 -2.3 4.5 -2.8 4.5 -0.5 0 -0.9 0.7 -0.9 1.5 0 0.8 -0.4 1.5 -1 1.5 -0.5 0 -1 0.5 -1 1.2 0 1.6 -4.1 5.8 -5.6 5.8 -0.7 0 -1.8 0.9 -2.4 1.9 -0.5 1.1 -3 2.7 -5.5 3.7 -3.9 1.4 -6.3 1.6 -16.8 0.9 -18.2 -1.1 -19 -1.1 -19.4 0.3 -0.3 0.8 0.7 1.2 3.2 1.2 2 0 6.2 0.7 9.2 1.6 12.3 3.6 17.7 3.6 25.1 0.2z m-565.3 -102.4 c-9.8 -2 -19.6 -5.2 -22.3 -7.4 -3.2 -2.7 -5.4 -8.4 -6.2 -16.8 -0.9 -9.3 -2.7 -11.6 -7.4 -9.7 -6.2 2.6 -19.7 4.8 -26.7 4.3 -7.9 -0.6 -15.9 -4.7 -21.3 -11 -3.3 -3.8 -9.6 -20.1 -9.6 -24.5 0 -1.3 -0.5 -2.3 -1.1 -2.3 -1.3 0 -0.8 -4.8 1.4 -13.5 2 -7.6 1 -10 -3.6 -9.1 -1.8 0.4 -8.1 0.9 -14.2 1.2 -9.7 0.6 -11.7 0.4 -16.7 -1.5 -16.3 -6.2 -22.9 -24.3 -18.4 -50.7 0.9 -5.5 1.9 -11.4 2.2 -13.1 0.3 -1.8 0.9 -3.3 1.5 -3.3 0.5 0 1.2 -0.8 1.6 -1.7 3 -8.6 7.9 -17.1 12.9 -22.3 6.2 -6.5 5.9 -7.3 -1.4 -3.6 -4.2 2.1 -9.2 6.7 -14.2 13.2 -5.2 6.6 -13 28.5 -13.7 38.4 -1.7 23.4 17.8 48.2 38.1 48.3 3.4 0 9.7 -0.3 14 -0.8 l7.9 -0.8 -0.7 5.4 c-1.8 14.7 -1.8 15.6 0.3 23.9 3.9 15.3 11 24.8 23.3 31.1 7.4 3.7 17.1 4.1 26.8 1 3.6 -1.1 8.2 -2.1 10.2 -2.1 3.5 0 3.8 0.2 4.8 4.1 1.9 7 6.1 14.7 9.6 17.8 2.1 1.9 5.3 3.3 9.1 4.1 3.2 0.7 7.4 1.6 9.3 2 1.9 0.4 5.3 0.8 7.5 0.8 3.3 0 2.7 -0.3 -3 -1.4z m334 -58.8 c47.1 -8.6 86.9 -42.4 98.9 -83.9 2.5 -8.5 5 -29.4 4 -32.2 -0.8 -2 -2.6 -1.9 -11.4 0.8 -13.2 4.1 -65 14.9 -84.7 17.7 -7.6 1.1 -24.1 2.3 -36.8 2.8 -48.2 1.9 -78.2 -2.1 -124.3 -16.4 -6.3 -2 -11.5 -3.4 -11.7 -3.2 -0.2 0.2 0.5 4.9 1.6 10.6 11 57 51.4 94.9 111.4 104.7 11.6 1.9 40.4 1.4 53 -0.9z m447.6 -6.2 c3.8 -0.9 7.6 -2.2 8.3 -3 0.8 -0.8 2.6 -1.4 4.1 -1.4 1.4 0 2.8 -0.7 3.1 -1.5 0.4 -0.8 1.7 -1.5 3 -1.5 1.3 0 2.4 -0.6 2.4 -1.3 0 -0.7 1.6 -1.9 3.5 -2.7 4.4 -1.7 13.4 -11.4 14.2 -15.2 0.3 -1.5 1.1 -2.8 1.8 -2.8 0.7 0 2.5 -2.8 4.1 -6.2 2.4 -5.2 2.9 -7.5 2.8 -13.3 -0.1 -7.4 -2.6 -17.9 -4.5 -19.1 -0.8 -0.5 -0.9 0.3 -0.3 2.7 0.5 1.9 0.9 8.1 0.9 13.9 0 8.8 -0.4 11.3 -2.4 15.8 -1.3 2.8 -2.7 5.2 -3.2 5.2 -0.5 0 -0.9 0.7 -0.9 1.5 0 0.7 -0.6 1.8 -1.3 2.2 -0.7 0.4 -2 2 -3 3.6 -1 1.5 -2.4 2.7 -3.3 2.7 -0.8 0 -1.7 0.7 -2 1.5 -0.4 0.8 -1.2 1.5 -2 1.5 -0.8 0 -1.4 0.4 -1.4 1 0 1.5 -9.2 5.8 -17.6 8.1 -6.2 1.7 -9.8 2 -18.4 1.7 -10.4 -0.3 -10.8 -0.4 -19.9 -5.1 -8.3 -4.4 -9.1 -4.6 -7.6 -2.3 2.1 3.1 8.8 8.7 13.5 11.1 9 4.7 15.3 5.4 26.1 2.9z m29.9 -88 c0 -0.9 3.3 -4.8 7.3 -8.8 3.9 -3.9 8.3 -9.4 9.7 -12.1 2.6 -5.4 4.1 -16.5 2.1 -16.5 -0.6 0 -1.1 -0.8 -1.1 -1.7 -0.1 -1 -0.6 -2.8 -1.3 -4 -1 -1.8 -1.2 -0.8 -1.2 6.5 0 6.5 -0.5 9.9 -1.9 13 -1 2.3 -2.3 4.2 -2.8 4.2 -0.4 0 -0.8 0.7 -0.8 1.5 0 0.8 -0.3 1.5 -0.8 1.5 -0.4 0 -1.2 1 -1.7 2.3 -0.6 1.2 -2 2.6 -3.2 3.2 -1.3 0.5 -2.3 1.3 -2.3 1.7 0 0.4 -1.7 1.6 -3.8 2.7 -6.2 3.1 -6.8 4.6 -3 6.4 4.1 2.1 4.8 2.1 4.8 0.1z m-394.9 -143.3 c7.1 -5.5 30.8 -15.3 47.9 -19.7 8.1 -2.1 11.8 -2.5 19.3 -2.2 8.1 0.3 10.1 0.7 16.7 3.9 4.1 2 11.1 6.5 15.4 10 4.3 3.5 8.4 6.8 9.1 7.3 0.9 0.7 3.6 -1.2 9.1 -6.3 9.1 -8.4 17.8 -13 35.4 -18.6 20.5 -6.6 33.4 -5.9 51.7 3.1 10.4 5.1 17.8 10.2 26.9 18.7 3.4 3.1 6.5 5.7 6.9 5.7 0.4 0 6.5 -5.3 13.7 -11.7 19.5 -17.9 22.2 -19.8 36.5 -26.8 17.9 -8.7 23.8 -10.6 35.6 -11.2 16.2 -0.9 27 2.6 40.1 13.2 3.8 3.1 7.3 5.4 7.7 5.3 0.3 -0.2 5.1 -5.7 10.6 -12.3 11.1 -13.4 16.4 -18.4 27.1 -25.7 12.3 -8.3 20.4 -11.6 35.1 -14.3 7.3 -1.3 14.7 -3.2 16.4 -4.2 5.5 -3.2 13.1 -14.6 19.7 -29.7 3.5 -7.7 8.2 -17.9 10.5 -22.6 6.2 -12.4 10.4 -25.5 11.1 -34.6 0.7 -8.6 2.8 -13.7 12.2 -29.2 8 -13.2 10 -19.5 10.5 -34.2 0.4 -11.7 0.2 -13.3 -2.9 -25.5 -1.8 -7.1 -5.3 -18.8 -7.9 -25.9 -2.5 -7.1 -6.3 -19.2 -8.5 -27 -5.6 -19.9 -11.8 -35.3 -20.1 -49.8 -2.8 -4.8 -6.5 -13.1 -8.3 -18.5 -4.5 -13.3 -8 -19.9 -20.8 -39.6 -6 -9.2 -15.2 -24.5 -20.5 -34 -16.8 -30.2 -27.6 -44.6 -60.3 -80.2 -7.6 -8.2 -16.4 -18.1 -19.5 -22 -10 -12.1 -16.7 -18.5 -27 -25.8 -12.5 -8.8 -18.3 -13.6 -31.7 -26.3 -16.3 -15.5 -33.7 -26.2 -67.3 -41.5 -15.1 -6.9 -21 -8.9 -37 -13 -34.6 -8.9 -68.6 -10.5 -119 -5.8 -24 2.3 -25.4 2.5 -43 8.1 -20.8 6.5 -37.1 13.4 -47.5 20.1 -5.2 3.4 -13.1 7.6 -17.5 9.5 -13.9 5.8 -16.8 7.3 -27.1 14.1 l-10 6.8 -9.2 0.7 c-7.3 0.5 -9.9 0.3 -12.9 -1 -2.1 -0.8 -8.1 -3.1 -13.3 -4.9 -5.2 -1.9 -14.9 -5.9 -21.5 -9 -13.6 -6.5 -64.7 -26.7 -86.5 -34.3 -8 -2.8 -24.4 -7.9 -36.5 -11.3 l-22 -6.2 -23.5 -0.1 c-28.2 -0.1 -33.5 0.7 -58 8 -21.9 6.5 -43.7 16.7 -67 31.5 -8 5 -21.5 13.4 -30 18.7 -28.2 17.2 -61.8 41 -77.1 54.5 -9.6 8.6 -22.7 23.3 -42 47.2 -19.7 24.5 -34.8 44.7 -40.5 54.3 -12.9 21.8 -44.8 92.9 -54.4 121.2 -6 17.8 -14 43.9 -16.5 54 -1.5 5.8 -4 15.2 -5.6 20.9 -3.7 13.3 -9.9 50.5 -10.6 63.9 -0.6 9.6 -0.5 10.4 1.6 12.6 1.2 1.3 4 6.9 6.1 12.5 2.2 5.5 5.9 14 8.4 18.8 2.4 4.9 6.3 13.3 8.6 18.8 2.3 5.5 7.1 16.1 10.7 23.5 3.6 7.4 9.8 21 13.7 30.1 7.3 16.5 17.9 34.2 24.2 40.1 3.5 3.2 10.3 6.4 17.1 7.8 4.3 0.9 5.6 0.8 9.8 -1 15.3 -6.6 37.2 -8.4 50 -4.2 9.1 3 18.2 8 27.7 15.3 l7.8 5.9 5.2 -2.6 c7.7 -3.9 37.9 -10.4 51.3 -11.1 14.8 -0.7 18.9 0.5 34.6 10.8 16.3 10.7 17.5 11.2 23.1 9.5 2.4 -0.7 11.1 -4.9 19.4 -9.3 8.3 -4.4 18 -9.2 21.5 -10.6 7.1 -2.8 26.1 -7.2 35.4 -8.2 12.7 -1.4 28.8 4.9 47.1 18.5 5.9 4.4 11.4 8 12.1 8 0.7 0 4.1 -1.5 7.5 -3.4 9.1 -5 15.4 -7.3 26.5 -9.5 5.4 -1.1 15.4 -3.6 22.2 -5.6 15 -4.3 32.6 -6.1 44.2 -4.5 10.9 1.5 23.5 8 33.2 17 l7.6 7.1 10.3 -2.5 c5.7 -1.4 13.5 -3 17.3 -3.6 10.7 -1.5 36 -1.2 45.9 0.5 15.6 2.7 29.3 9.8 39 20.1 2.8 3 5.4 5.4 5.7 5.4 0.4 0 1.7 -0.8 3 -1.9z m-589 -588.3 c1.2 -2.2 1.1 -6 -0.7 -34.5 -0.4 -5.7 -1 -10.3 -1.4 -10.3 -0.3 0 -0.6 -5.2 -0.7 -11.5 0 -6.3 0.4 -11.5 0.9 -11.5 0.4 0 0.8 -2.4 0.8 -5.2 0 -7.1 3.4 -27.8 5.9 -35.8 1.1 -3.5 1.9 -6.6 1.7 -6.8 -1.2 -1.2 -9.7 26.7 -12.8 42.1 -2 9.8 -2.3 14.2 -2.3 35.7 0 20.2 0.3 25.7 1.8 31.5 2.2 8.6 4.5 10.7 6.8 6.3z m895.9 -50.2 c1.1 -3.3 2 -6.8 2 -7.9 0 -1.1 0.7 -2.5 1.6 -3.2 0.9 -0.6 1.8 -3.2 2.1 -5.8 0.3 -2.6 0.9 -4.7 1.3 -4.7 1.2 0 3 -5.9 3 -9.6 0 -1.9 0.4 -3.4 0.9 -3.4 0.5 0 1.4 -1.5 2.1 -3.2 1.7 -4.5 15.4 -33.2 16.1 -33.8 0.3 -0.3 2.1 -3.4 4 -7 1.9 -3.6 3.6 -6.7 3.9 -7 1.7 -1.6 7 -10.9 7 -12.3 0 -1 0.6 -1.7 1.3 -1.7 1.1 0 8.7 -9.1 8.7 -10.4 0 -0.3 1 -1.6 2.3 -2.9 1.2 -1.3 5.1 -5.9 8.7 -10.1 3.6 -4.3 8.2 -9.2 10.3 -10.8 2 -1.7 4.3 -4 4.9 -5.1 0.8 -1.6 -0.1 -1.2 -3.5 1.6 -2.5 2 -4.8 3.7 -5.1 3.7 -0.5 0 -22.6 22.2 -22.6 22.8 0 0.2 -5.7 7.4 -15.8 19.8 -2 2.5 -2.9 3.9 -12.4 19.9 -3.9 6.6 -7.9 13.2 -8.9 14.7 -2.7 3.8 -11.3 25.7 -14.2 35.8 -1.4 4.7 -3.1 12 -3.8 16.2 -1.2 7.2 -1.1 7.9 0.6 9.8 2.3 2.5 2.9 1.9 5.5 -5.4z m-752.3 -41.6 c0.3 -1.1 0.9 -2 1.4 -2 0.5 0 0.9 -1.8 0.9 -4 0 -2.2 0.4 -4 0.9 -4 1 0 2.7 -22 2.2 -28.7 -0.2 -2.7 0.1 -4.3 0.9 -4.3 0.8 0 0.9 -1.8 0.4 -6 -0.4 -3.6 -0.3 -6 0.3 -6 0.5 0 1.5 -4.1 2.2 -9.1 1.1 -8.4 8.7 -40 11.1 -46.3 0.5 -1.5 1 -3.9 1 -5.3 0 -1.4 0.6 -3.1 1.3 -3.7 0.8 -0.6 3.8 -7.2 6.7 -14.6 2.9 -7.4 7.9 -18.8 11.2 -25.2 3.2 -6.5 5.8 -12.7 5.8 -13.8 0 -1.1 0.6 -2 1.3 -2 0.6 0 2.7 -2.8 4.6 -6.3 1.9 -3.4 7.1 -11.9 11.7 -18.9 4.6 -7.1 8.2 -12.8 8 -12.8 -0.5 0 -12 15.6 -16.4 22.2 -1.8 2.5 -3.8 5.2 -4.4 6 -0.7 0.7 -2.2 3 -3.3 5.1 -1.1 2.1 -2.8 4.7 -3.7 5.7 -1 1.1 -1.8 2.2 -1.8 2.6 0 0.3 -2.3 4.4 -5.1 9.1 -6.3 10.4 -18.2 35.3 -23.8 49.5 -10.2 26.4 -17.4 61.5 -19.1 93.7 -0.8 15.3 -0.6 17.9 1.9 19.8 2.3 1.8 3.2 1.6 3.8 -0.7z m361.5 -20.5 c0.8 -1.9 0.8 -2.8 -0.2 -4 -1 -1.2 -1 -3.9 -0.2 -12.7 0.6 -6.2 1.4 -16 1.7 -21.8 0.6 -11 3.6 -29.6 6 -37.7 0.8 -2.7 1.5 -6 1.5 -7.5 0 -1.6 0.4 -2.8 0.9 -2.8 1.2 0 3.1 -5.6 3.1 -9 0 -1.6 0.6 -3 1.4 -3.3 0.7 -0.3 1.6 -1.7 2 -3.2 0.4 -1.5 3.1 -8.4 6.1 -15.4 3 -7 5.5 -13.7 5.5 -14.8 0 -1.1 1.1 -3.2 2.5 -4.7 1.4 -1.5 3.8 -5.3 5.4 -8.4 1.6 -3.2 7.4 -13.4 13 -22.7 5.5 -9.4 10.1 -17.8 10.1 -18.7 0 -1 0.6 -1.8 1.4 -1.8 0.7 0 2.2 -1.2 3.1 -2.7 4 -6.3 15.4 -21.4 22.2 -29.5 4 -4.7 7.3 -9 7.3 -9.4 0 -1.1 -18.4 16.8 -19.2 18.7 -0.3 0.8 -2 2.7 -3.7 4.2 -1.7 1.4 -3.1 2.8 -3.1 3.1 0 0.4 -17.3 22.5 -22.8 29.1 -0.9 1.1 -2.3 3.3 -3.1 4.8 -0.8 1.5 -1.8 2.7 -2.3 2.7 -0.4 0 -0.8 0.5 -0.8 1.1 0 1 -7.8 14.8 -9 15.9 -1 0.9 -14.4 28.5 -16 33 -0.9 2.5 -2.4 6.1 -3.3 8 -5.3 11.9 -12.1 38.7 -15.9 63 -2.9 18.7 -0.3 49 4.3 49 0.5 0 1.4 -1.1 2.1 -2.5z m57.7 -10.3 c0.5 -1 1.9 -5.5 3 -10 3.3 -12.7 10.5 -34.8 14.5 -44.5 5 -12 15.8 -33.4 21.7 -42.9 2.7 -4.4 4.9 -8.8 4.9 -9.9 0 -1 0.6 -1.9 1.3 -1.9 0.6 0 3.2 -3.3 5.6 -7.3 7.3 -12 27.1 -38.7 34.6 -46.7 l7 -7.4 -9.2 8.4 c-5.1 4.7 -9.3 9 -9.3 9.6 0 0.6 -1.9 3 -4.2 5.2 -6 5.9 -8.8 9.1 -8.8 10.2 0 0.6 -0.9 1.5 -2 2.2 -1.1 0.7 -2 1.7 -2 2.3 0 0.6 -1.2 2.4 -2.7 4.1 -1.6 1.7 -3.5 4.3 -4.3 5.8 -0.8 1.5 -2.5 3.9 -3.7 5.2 -1.3 1.4 -2.3 2.7 -2.3 2.9 0 0.3 -3.3 5.3 -7.4 11.2 -10.1 14.8 -24.2 40 -29.6 52.8 -3.7 8.7 -13 42.8 -13 47.6 0 4.5 4 6.6 5.9 3.1z m225 -18.9 c0.3 -7.6 0.5 -19.8 0.5 -27 -0.1 -8.1 0.3 -13.3 0.9 -13.3 0.6 0 0.7 -2.6 0.3 -7.1 -0.4 -4 -0.4 -7.5 0.1 -7.8 0.9 -0.7 5.3 -27.6 5.3 -32.8 0 -1.7 0.4 -3.3 1 -3.5 1.1 -0.4 7 -19.7 7 -22.9 0 -1.2 0.7 -2.7 1.5 -3.3 0.9 -0.6 1.8 -2.9 2.2 -5.1 0.3 -2.2 1.2 -4.4 1.9 -5 0.7 -0.5 2.5 -3.9 3.9 -7.5 1.5 -3.6 4.7 -10.4 7.1 -15.2 2.4 -4.9 4 -8.8 3.4 -8.8 -0.5 0 -1 0.7 -1 1.5 0 0.8 -0.4 1.5 -1 1.5 -0.5 0 -1 0.5 -1 1.1 0 1.1 -6.8 12.9 -8 13.9 -0.3 0.3 -1.2 2 -2 3.8 -0.7 1.9 -1.8 3.9 -2.4 4.5 -1.4 1.5 -7.2 13.3 -12.6 25.5 -10.7 24.4 -15.8 47.8 -18 82.2 -1.8 29.2 1.8 47 8.3 40.9 1.8 -1.6 2.1 -3.6 2.6 -15.6z m-411.8 -25.6 c0.8 -1.7 0.6 -4.2 -1 -10.3 -3.6 -14.3 -4.4 -23.7 -3.7 -40.3 0.4 -8.6 0.7 -17.6 0.6 -20 0 -2.4 0.3 -4.7 0.8 -5 1 -0.7 5.2 -17 5.2 -20.5 0 -1.3 0.4 -2.6 1 -2.8 0.5 -0.1 2.9 -5.5 5.3 -11.8 2.4 -6.3 5.1 -13 6.1 -14.7 0.9 -1.8 1.6 -4.3 1.6 -5.8 0 -1.4 0.5 -2.5 1 -2.5 0.6 0 1 -0.9 1 -1.9 0 -1 0.6 -2.1 1.4 -2.4 0.7 -0.3 3.3 -4.1 5.7 -8.4 5.5 -9.8 5.7 -10.4 2.5 -7.1 -1.4 1.5 -2.6 3.1 -2.6 3.7 0 0.5 -0.3 1.1 -0.7 1.3 -0.5 0.2 -1.7 2.1 -2.8 4.2 -1.1 2.2 -2.4 4.4 -3 5.1 -4.6 5.1 -21.8 48 -25 62.5 -2.2 10.1 -4.5 28.9 -4.5 37.1 0 10.4 4.8 36.1 7.7 41.2 0.8 1.4 2.4 0.7 3.4 -1.6z m606.4 -26.2 c1.7 -1.4 2.5 -2.5 1.8 -2.5 -0.7 0 -2.4 1.1 -3.9 2.5 -3.5 3.2 -1.8 3.2 2.1 0z m-375.4 -158.7 c1.6 -2.9 0.5 -2.1 -3.6 3 -3.5 4.3 -3.6 4.5 -0.6 1.7 1.8 -1.6 3.7 -3.8 4.2 -4.7z"/>
 </g>
 <g fill="#abecfd">
  <path d="M1709.3 2210.9 c-10.6 -2 -19.1 -10 -22.2 -20.8 -3.8 -13 -3.5 -85.6 0.5 -150.6 2.3 -36.2 1.5 -190.5 -1.1 -214.3 -1.9 -17.9 -1.1 -24.8 3.2 -28.2 1.4 -1.1 3.2 -2 4 -2 2.3 0 7 2.8 7.7 4.6 0.4 1 1.8 11.8 3.1 24.2 2.6 23.9 4.5 33.2 9.8 49.4 1.9 5.7 4 13.2 4.7 16.6 l1.3 6.4 7.6 -0.6 c28.2 -2.3 117.8 -6.8 160.1 -8.1 36.9 -1.1 50.8 -1.9 51.7 -2.8 3.2 -3.1 4.7 -62.6 2.3 -90.2 -8.7 -101.9 -50.2 -195.3 -117.5 -264.3 -10.6 -11 -30.1 -29 -34.4 -31.9 -0.2 -0.1 3.4 -4 8 -8.5 9.4 -9.3 16.4 -18.3 23.4 -29.9 2.5 -4.4 4.8 -7.9 5.1 -7.9 1.4 0 26.7 22.4 37.8 33.4 56.5 56.5 97.5 126.6 120.6 206.6 15.5 53.5 22.7 119.1 18.9 170.5 -0.5 7.7 -1.2 18.5 -1.4 24 -0.2 5.5 -1.1 15 -1.9 21 -0.8 6.1 -1.8 15.2 -2.2 20.3 -0.4 5.1 -1.2 9.6 -1.8 10.1 -2.9 2.2 -10.3 3.5 -24.6 4 -15.3 0.6 -15.5 0.6 -15.4 2.9 0.1 2.2 -0.1 2.2 -12 2.2 -6.7 0 -16.5 -0.3 -21.8 -0.7 -8.9 -0.5 -9.7 -0.8 -10 -2.7 -0.3 -2 -0.9 -2.1 -18.3 -2.3 -29 -0.4 -78.9 -2.1 -123.9 -4.3 -23.1 -1.1 -42.2 -1.8 -42.4 -1.5 -0.3 0.3 0.7 8.9 2.1 19.3 4.8 33.9 6.5 56.6 7.7 102.2 1.1 44.5 1.8 59 4.6 95 1.9 24.6 1.6 34.5 -1.5 41.6 -5.3 12.2 -19.2 19.8 -31.8 17.3z"/>
  <path d="M745.3 2203.6 c-9.9 -3.1 -15.9 -9.5 -19.4 -20.6 -1.9 -5.7 -2.3 -10.8 -3.2 -41.5 -1.7 -52.1 -1.2 -85.6 1.9 -118.5 1.4 -15.1 3.2 -32.2 4 -37.9 0.8 -5.8 1.4 -11.9 1.4 -13.6 l0 -3.2 -33.2 -0.7 c-18.3 -0.3 -56.9 -1.3 -85.8 -2.1 -66.8 -1.9 -60.1 -1.9 -60.7 0.6 -0.6 2.1 -0.8 2.1 -17.2 1.5 -21.1 -0.8 -32 -1.7 -31.9 -2.5 0.3 -3.1 -0.5 -4 -4.4 -4.6 -13.6 -2.3 -22.8 -10.7 -26.3 -24 -1.8 -7 -2.1 -35.2 -0.5 -54 4.4 -51.8 16.9 -106.2 36 -156.5 28.7 -75.5 75 -151.7 130.7 -215 21.5 -24.4 52.8 -54.5 75.8 -72.9 l9 -7.2 0.3 6 c0.2 3.4 0.8 6.1 1.3 6.1 0.7 0 0.9 2.8 0.7 7.5 -0.2 4.1 0.1 7.5 0.6 7.5 0.4 0 0.6 1.1 0.4 2.5 -0.3 1.4 -0.1 2.8 0.4 3.1 0.5 0.3 0.7 1.2 0.4 2 -0.3 0.8 -0.1 1.4 0.5 1.4 0.6 0 0.9 0.6 0.6 1.4 -0.3 0.7 0 1.9 0.6 2.5 0.6 0.6 0.7 1.1 0.3 1.1 -0.5 0 -0.3 0.7 0.4 1.5 0.7 0.8 0.9 1.5 0.4 1.5 -0.5 0 -0.4 0.4 0.2 0.8 0.5 0.4 2.1 3.2 3.3 6.2 1.3 3 3.3 6.8 4.4 8.4 l2 2.9 -3.9 3.5 c-41.2 36.9 -77.6 78.8 -106.9 123.2 -46.7 70.7 -81 154.5 -93.5 228.4 -3.7 21.7 -6.2 45.8 -5.8 55 l0.3 6.8 88 0.7 c48.4 0.3 95.4 0.6 104.4 0.6 l16.5 0 2.2 -9.5 c2.4 -9.9 5.6 -36.6 7.3 -60.5 1.6 -21.7 6.9 -49.8 11.3 -59.1 2.6 -5.7 5.9 -8.6 9.3 -8.2 7.1 0.8 9 10.5 7.5 37.8 -0.5 10.3 -1.8 25 -2.7 32.6 -2 16.1 -2.3 67.3 -0.5 83.4 1.3 11.3 2.8 58.3 4.2 128.5 0.6 28.1 1.5 67.7 2 88.1 1 36.4 1 37.3 -1 42.7 -2.7 7.3 -9.8 14 -17.1 16.1 -6.2 1.9 -9 1.9 -14.6 0.2z"/>
  <path d="M1174.5 1687.5 c-8 -2.6 -12.3 -5.5 -19.2 -12.9 l-7 -7.5 -4.8 3.5 c-5.7 4 -14.8 7.6 -17.1 6.7 -0.9 -0.3 -2 0 -2.4 0.7 -0.5 0.7 -3.3 1.5 -6.3 1.8 -6.4 0.5 -15.9 -2.3 -22.8 -6.7 -7 -4.5 -16.3 -14.9 -18.4 -20.6 -1 -2.7 -2.1 -5.3 -2.4 -5.7 -0.3 -0.4 -4.9 2.5 -10.1 6.4 -13.3 9.9 -16.3 11.1 -28.5 11.4 -5.5 0.1 -10.4 -0.1 -11 -0.4 -0.5 -0.4 -1.8 -0.8 -2.8 -0.9 -3.3 -0.5 -11.7 -5.3 -15.8 -9 -4.6 -4.2 -10.2 -12 -14.5 -20.3 -1.5 -3 -2.8 -5.7 -2.9 -6 -0.3 -1.7 -2.7 -11.7 -3.1 -13 -0.3 -0.8 -0.7 -5.6 -1 -10.7 -0.7 -15 4.1 -33.3 9.9 -37.7 2.5 -1.9 2.8 -1.9 4.4 -0.4 1.4 1.5 1.5 2.6 0.4 10.8 -1.3 8.9 -1.2 32 0 32 0.4 0 1 2 1.4 4.5 1 6.9 8.9 21.8 14.4 27.4 9.1 9 17.4 10.9 33.3 7.6 7.9 -1.7 19.8 -6.7 19.8 -8.4 0 -0.6 0.9 -1.1 2 -1.1 1.1 0 3.2 -1.3 4.7 -3 1.4 -1.6 3.2 -3 3.8 -3 1.8 0 4.5 3.4 4.5 5.6 0 6.6 14.1 21.8 23.2 25.2 7.5 2.8 13.6 3.7 15.3 2.2 0.8 -0.6 1.9 -0.9 2.4 -0.6 0.5 0.4 4.9 -0.1 9.8 -1.1 7 -1.4 9.4 -2.3 12.3 -4.8 1.9 -1.8 4.2 -3.4 5 -3.7 2 -0.7 4.8 1.6 8.8 7.4 3.1 4.6 9.6 9.3 13.7 10.1 1.1 0.2 3.2 0.9 4.8 1.5 2.9 1.2 10.7 1.2 10.7 0 0 -0.5 1.1 -0.8 2.5 -0.8 1.4 0 2.9 -0.8 3.5 -2 0.6 -1.1 1.5 -2 2.1 -2 3 0 24.8 -24.9 24.9 -28.4 0 -0.6 1.2 -1.9 2.5 -2.9 1.9 -1.4 2.9 -1.5 4.5 -0.7 1.1 0.6 2 1.8 2 2.7 0 2.8 -5.2 13.3 -6.7 13.3 -0.8 0 -1.1 0.5 -0.8 1.1 0.8 1.2 -3.1 7.4 -8 12.7 -1.8 2.1 -5 5.6 -7 8 -2.1 2.3 -4.5 4.2 -5.4 4.2 -0.9 0 -2.1 1 -2.6 2.2 -0.6 1.2 -3 3.2 -5.4 4.5 -5.1 2.7 -14 3 -20.6 0.8z"/>
  <path d="M1397.5 1541.5 c-13 -4.6 -23.4 -13.8 -31.3 -27.7 -4.6 -8.2 -8.2 -17.4 -8.2 -21.2 0 -4.5 1.8 -7.8 4.1 -7.4 1.6 0.2 3.6 2.9 7.1 9.2 2.7 4.9 5.5 9.5 6.1 10.2 0.7 0.7 2.3 2.7 3.7 4.6 8.4 11.3 27.2 23 34.7 21.5 1.3 -0.2 2.6 0 2.9 0.4 0.9 1.5 10.7 1 17.7 -1 8 -2.2 10.3 -4.1 15.5 -13 4.5 -7.5 6.2 -12.1 6.2 -16.3 0 -4.1 2.5 -4.6 13.8 -3.1 5.4 0.7 11.8 1.2 14.4 1.3 5.7 0 12.5 -2.5 13.9 -5.1 0.5 -1.1 1.6 -1.9 2.3 -1.9 1.5 0 5.6 -4.2 5.6 -5.8 0 -0.7 0.5 -1.2 1 -1.2 0.6 0 1 -0.7 1 -1.5 0 -0.8 0.4 -1.5 0.9 -1.5 0.5 0 1.7 -2 2.8 -4.5 1 -2.5 2.1 -4.5 2.6 -4.5 0.4 0 0.7 -1.5 0.7 -3.3 0 -1.8 0.7 -4.3 1.6 -5.6 1.5 -2.1 2.1 -2.3 8.1 -1.6 4.3 0.4 6.8 0.3 7.8 -0.5 0.8 -0.6 1.9 -0.9 2.4 -0.6 1.7 1.1 7.5 -1.9 10.4 -5.3 1.4 -1.8 3.2 -5.1 3.8 -7.4 3.2 -11.8 -3.7 -50.1 -10.4 -57.4 -2.4 -2.7 -1.6 -5.3 1.8 -5.3 4.7 0 8.4 5.7 12.9 19.8 1.4 4.6 2.4 8.8 2.1 9.3 -0.4 0.5 -0.2 0.9 0.3 0.9 1.1 0 4.6 18.5 3.8 20.5 -0.3 0.8 -0.1 1.5 0.4 1.5 1.5 0 1.1 12.9 -0.4 17.2 -1.4 3.9 -7.2 11.8 -8.6 11.8 -0.5 0 -2 1 -3.4 2.3 -3.4 3.2 -9.6 4.9 -16.4 4.6 -4.2 -0.2 -5.7 0.1 -5.9 1.2 -1.1 4 -4.8 10.9 -5.9 10.9 -0.8 0 -1.1 0.6 -0.9 1.3 0.8 1.9 -9.6 15.2 -12.2 15.5 -1.3 0.2 -2.3 0.9 -2.3 1.7 0 0.7 -2.1 2.4 -4.7 3.6 -6.3 3.1 -17.6 3.1 -28.6 0.1 -9.6 -2.7 -9.7 -2.7 -9.7 0.1 0 2.5 -5 13.4 -8.2 17.9 -2.7 3.8 -16.3 12.8 -19.3 12.8 -1.3 0 -2.5 0.6 -2.8 1.4 -0.8 2 -8.6 3.6 -17.9 3.6 -6.2 0 -10 -0.7 -15.3 -2.5z"/>
  <path d="M918.6 1404.9 c-4.9 -1 -10 -2.6 -11.2 -3.4 -2.4 -1.5 -7.6 -8 -8.1 -9.9 -0.4 -1.7 -4.4 -13.1 -4.8 -13.4 -0.2 -0.2 -3.4 0.6 -7.2 1.8 -4.5 1.5 -10 2.3 -16.3 2.5 -9 0.3 -9.8 0.1 -16 -3 -8.9 -4.5 -14.3 -9.5 -18.5 -16.9 -3.5 -6.3 -7.5 -19.4 -7.5 -24.7 0 -1.5 -0.4 -2.9 -0.9 -3.1 -0.4 -0.1 0 -3.7 1 -7.8 0.9 -4.1 1.6 -7.7 1.4 -7.9 -0.2 -0.2 -3.4 0.2 -7.1 0.9 -15.6 3 -29 -1.3 -38.8 -12.3 -3.1 -3.4 -5.6 -6.5 -5.6 -6.9 0 -0.4 -1.4 -3.1 -3.1 -6 -1.7 -2.9 -3.1 -5.4 -3 -5.6 0.2 -0.1 -0.3 -2.7 -1 -5.6 -1.8 -8.3 -0.7 -23.5 2.5 -32.5 3.1 -8.8 8.5 -20.8 10.6 -23.5 7.6 -9.8 14.4 -14.6 22.3 -16.1 3.9 -0.8 6.7 0.6 6.7 3.2 0 0.7 -3 4.5 -6.6 8.4 -5.9 6.3 -10.6 14.2 -13.7 23.2 -0.4 0.9 -1.1 1.7 -1.6 1.7 -0.6 0 -0.8 0.7 -0.5 1.5 0.4 0.8 0.2 1.5 -0.2 1.5 -0.5 0 -0.9 1.2 -1 2.8 -0.1 1.5 -0.9 6.3 -1.8 10.7 -4.6 21 2.7 38.7 18.2 44.5 5 1.9 6.9 2.1 14.7 1.5 5 -0.4 10.7 -1.3 12.7 -2 3.5 -1.2 3.9 -1.1 7 1.6 l3.2 2.9 -1.8 7.3 c-1 3.9 -2.2 8.2 -2.7 9.5 -0.5 1.4 -0.5 2.2 0.1 2.2 0.6 0 1 1 1 2.3 0 1.2 1.4 6.4 3.2 11.5 3.7 10.7 7 15.2 15.4 20.2 5.4 3.2 6.4 3.5 13.4 3.3 4.5 -0.1 10.3 -1 14.5 -2.3 15.2 -4.8 17.3 -3.8 18.5 8.2 0.8 8.4 3 14.1 6.2 16.8 5 4.1 23.9 8.6 28.8 6.9 2.3 -0.8 3.4 -0.8 4.5 0.1 2.3 1.9 1.8 3.9 -1.7 6 -4.2 2.6 -12.9 2.5 -25.2 -0.1z"/>
  <path d="M1691.5 1340.6 c-9.4 -3 -17.7 -9.1 -22.5 -16.6 -5.2 -8 -2.6 -12.8 4.2 -7.7 5.1 3.8 19.1 10.8 20.5 10.3 0.7 -0.3 1.5 -0.1 1.8 0.4 1.1 1.7 13.8 1.1 21.4 -1 8 -2.3 17.1 -6.5 17.1 -8 0 -0.6 0.6 -1 1.4 -1 0.8 0 1.6 -0.7 2 -1.5 0.3 -0.8 1.2 -1.5 2 -1.5 0.9 0 2.3 -1.2 3.3 -2.7 1 -1.6 2.3 -3.2 3 -3.6 0.7 -0.4 1.3 -1.5 1.3 -2.2 0 -0.8 0.4 -1.5 0.9 -1.5 0.5 0 1.9 -2.4 3.2 -5.2 3.5 -7.7 3.3 -19.6 -0.4 -29.7 -3.7 -10.3 -4.9 -11.8 -12.2 -15.2 -9.2 -4.5 -9.4 -9.3 -0.5 -13.9 2.2 -1.1 4 -2.4 4 -2.8 0 -0.4 1 -1.2 2.3 -1.7 1.2 -0.6 2.6 -2 3.2 -3.2 0.5 -1.3 1.3 -2.3 1.7 -2.3 0.5 0 0.8 -0.7 0.8 -1.5 0 -0.8 0.4 -1.5 0.8 -1.5 2.1 0 4.7 -8.6 4.6 -14.9 -0.3 -11.1 -9.7 -27.1 -21.7 -36.9 -2.8 -2.3 -2.8 -4.2 0 -4.2 2.8 0 9.8 4.7 13.7 9.2 7.5 8.5 18.4 26.7 16.9 28.2 -0.4 0.3 -0.2 0.6 0.4 0.6 2 0 2.5 9.1 0.8 15.2 -2 7.7 -5.4 13 -13.3 20.5 l-6.5 6.2 2.9 3.8 c1.5 2.1 4.7 5.7 7.1 8.1 5.6 5.7 7.6 12.4 7.7 25.7 0.1 9 -0.2 10.6 -2.8 16.3 -1.6 3.4 -3.5 6.2 -4.3 6.2 -0.8 0 -1.1 0.4 -0.8 1 1.4 2.3 -9.1 14.3 -14.9 17 -1.8 0.8 -3.4 2 -3.4 2.5 -0.1 0.6 -1.1 1.1 -2.2 1.3 -1.2 0.2 -3 1.2 -4.1 2.3 -1 1 -2.5 1.6 -3.4 1.3 -0.8 -0.3 -2.1 0.1 -3 0.9 -3.8 3.9 -24.6 5.9 -33 3.3z"/>
  <path d="M752.7 522.5 c-0.9 -0.6 -2.5 -4.3 -3.4 -8.1 -1.5 -5.8 -1.8 -11.4 -1.8 -34.4 0 -30.7 1 -38.3 8.1 -61.9 7.2 -23.7 30.1 -71.1 34.4 -71.1 1.5 0 1.2 3.2 -0.5 5.7 -2.5 3.6 -13.2 30.6 -18.9 48.1 -5.6 17.1 -9.6 36.5 -9.6 47 0 2.8 -0.3 5.2 -0.7 5.2 -0.5 0 -0.8 3.8 -0.8 8.5 0 4.7 0.3 8.5 0.6 8.5 0.7 0 1.6 12.8 2.5 34.5 0.5 12.2 0.3 15.4 -0.8 16.9 -1.7 2.2 -6.7 2.8 -9.1 1.1z"/>
  <path d="M1649.5 478 c-5.4 -2.1 -5.9 -7.3 -2.4 -23.7 3 -14 12.3 -39.6 16.8 -46.2 1 -1.4 5 -8 8.9 -14.6 9.5 -16 10.4 -17.4 12.4 -19.9 10.1 -12.4 15.8 -19.6 15.8 -19.8 0 -0.5 22.1 -22.8 22.5 -22.8 0.8 0 14 -10.3 14.3 -11.1 0.2 -0.5 1 -0.9 1.7 -0.9 0.7 0 4.8 -2 9 -4.5 15.8 -9.4 30.9 -15.6 33.6 -13.9 1.5 0.9 0.3 1.9 -9.1 7.4 -5 2.8 -14.3 9 -20.6 13.6 -6.3 4.6 -11.7 8.4 -12 8.4 -1 0 -18.6 18.4 -22.5 23.6 -2.3 3 -4.5 5.4 -5 5.4 -0.5 0 -0.9 0.5 -0.9 1 0 1.8 -7.4 11 -8.8 11 -0.7 0 -1.1 0.4 -0.7 1 0.4 0.7 -5.4 10.9 -7.5 13 -0.3 0.3 -2 3.4 -3.9 7 -1.9 3.6 -3.7 6.7 -4 7 -0.7 0.6 -14.4 29.3 -16.1 33.8 -0.7 1.7 -1.7 3.2 -2.2 3.2 -0.5 0 -0.6 0.5 -0.3 1 0.9 1.4 -2.3 12 -3.6 12 -0.6 0 -0.7 0.4 -0.4 1 0.9 1.4 -1.6 9.1 -3.2 9.7 -0.7 0.3 -1 0.9 -0.7 1.4 0.8 1.3 -4.5 15.2 -6.3 16.7 -1.9 1.4 -2 1.4 -4.8 0.2z"/>
  <path d="M896.8 430.3 c-3.7 -2.3 -4 -5.5 -2.9 -25.3 2 -34.5 8.8 -68 19.2 -94.8 5.6 -14.2 17.5 -39.1 23.8 -49.5 2.8 -4.7 5.1 -8.8 5.1 -9.1 0 -0.4 0.8 -1.5 1.8 -2.6 0.9 -1 2.6 -3.6 3.7 -5.7 1.1 -2.1 2.6 -4.4 3.3 -5.2 0.7 -0.7 3.1 -4.1 5.4 -7.5 2.3 -3.3 6.8 -9.6 10 -13.8 3.2 -4.2 5.8 -8.2 5.8 -8.7 0 -0.6 0.4 -1.1 0.8 -1.1 0.4 0 5.1 -5.3 10.3 -11.7 12 -15 23.3 -26.9 38.3 -40 13.1 -11.6 19.8 -16.3 23.3 -16.3 3.1 0 2.9 2.4 -0.4 4.6 -6.2 3.9 -20.3 16.7 -28.6 25.8 -4.9 5.3 -9.6 9.6 -10.4 9.6 -0.8 0 -1.1 0.5 -0.8 1 0.3 0.6 -1.6 3.6 -4.3 6.8 -11.2 13 -34.3 46.3 -42.3 60.9 -1.9 3.5 -4 6.3 -4.7 6.3 -0.7 0 -1.1 0.4 -0.7 1 0.3 0.5 -2.3 6.7 -5.8 13.7 -3.5 7 -8.8 18.9 -11.7 26.3 -2.9 7.4 -5.9 14 -6.6 14.6 -0.8 0.6 -1.1 1.4 -0.8 1.7 0.3 0.3 -0.3 3.4 -1.5 6.9 -3.8 11.5 -10 37.5 -11.2 46.7 -0.7 5 -1.5 9.1 -1.8 9.1 -0.3 0 -0.4 2.7 -0.3 6 0.3 4 0 6 -0.8 6 -0.6 0 -0.9 0.4 -0.5 1 0.7 1.2 -1.7 32 -2.5 32 -0.4 0 -0.5 1.3 -0.2 2.8 0.2 1.8 -0.2 3.5 -1.3 4.5 -0.9 1 -1.3 1.7 -0.9 1.7 0.4 0 -0.1 0.9 -1.1 2 -2.2 2.4 -5.1 2.5 -8.7 0.3z"/>
  <path d="M1258.1 410.1 c-4.2 -4.2 -6.1 -35.9 -3.3 -54.1 3.9 -24.5 10.6 -51.2 15.9 -63 0.9 -1.9 2.4 -5.5 3.3 -8 1.6 -4.5 15 -32.1 16 -33 1.2 -1.1 9 -14.9 9 -15.9 0 -0.6 0.4 -1.1 0.8 -1.1 0.5 0 1.5 -1.2 2.3 -2.7 0.8 -1.5 2.2 -3.7 3.1 -4.8 5.3 -6.3 22.8 -28.7 22.8 -29.1 0 -0.3 1.6 -1.8 3.5 -3.5 1.9 -1.7 3.5 -3.4 3.5 -3.9 0 -0.9 29.1 -30 30.1 -30 0.4 0 2.7 -2.2 5.2 -5 2.5 -2.7 4.8 -5 5.1 -5 0.3 0 5.5 -4 11.6 -8.9 24.6 -20 40.2 -30.3 63.2 -41.7 14.3 -7 21.3 -9.4 17.8 -6 -0.8 0.8 -6 3.9 -11.5 6.9 -9.1 4.9 -31.6 19.8 -45.1 29.8 -11.3 8.3 -24.3 19.8 -36.6 32.1 -7 7 -13.2 12.8 -13.8 12.8 -0.6 0 -0.9 0.4 -0.5 0.9 0.3 0.6 -2.1 4.1 -5.4 7.9 -6.2 7.2 -18.9 23.8 -23.6 31 -1.5 2.3 -3.4 4.2 -4.2 4.2 -0.8 0 -1.2 0.4 -0.9 0.9 0.4 0.5 -4 8.7 -9.7 18.3 -5.7 9.5 -12.1 20.6 -14.2 24.6 -2.1 4.1 -4.4 7.6 -5.2 7.9 -0.7 0.3 -1 0.9 -0.7 1.4 0.3 0.5 0.1 0.9 -0.5 0.9 -0.6 0 -0.8 0.6 -0.5 1.4 0.3 0.8 -0.5 3.4 -1.7 5.8 -1.2 2.3 -4.4 9.7 -7 16.3 -2.7 6.6 -5.3 12.1 -5.9 12.3 -0.5 0.2 -0.8 0.8 -0.4 1.3 0.8 1.3 -2.5 10.9 -3.7 10.9 -0.6 0 -0.7 0.4 -0.4 1 0.3 0.5 -0.3 3.8 -1.4 7.4 -3.4 10.9 -6 28.3 -7.1 46.8 -0.6 9.8 -1.3 18.4 -1.6 19.2 -0.3 0.8 -0.1 1.7 0.5 2.1 0.6 0.3 1.1 2.6 1.1 5.1 0 7.2 -5.5 10.9 -9.9 6.5z"/>
  <path d="M1315.8 399.9 c-2.5 -1.8 -2.8 -2.7 -2.8 -7.7 0 -6.6 2.5 -17.4 8.1 -35.7 4.7 -15.3 4.3 -14.1 11 -27.5 7.4 -14.9 15 -27.8 23.5 -40.3 4.1 -5.9 7.4 -10.9 7.4 -11.2 0 -0.2 1 -1.5 2.3 -2.9 1.2 -1.3 2.9 -3.7 3.7 -5.2 0.8 -1.5 2.7 -4.1 4.3 -5.8 1.5 -1.7 2.7 -3.5 2.7 -4.1 0 -0.6 0.9 -1.6 2 -2.3 1.1 -0.7 2 -1.6 2 -2.2 0 -1 2.9 -4.3 9.3 -10.7 2.3 -2.3 3.9 -4.5 3.5 -4.8 -0.4 -0.4 1.9 -2.8 5 -5.4 3.2 -2.7 8.5 -7.8 11.8 -11.4 3.4 -3.7 6.6 -6.7 7.2 -6.7 0.6 0 2.8 -2 5 -4.5 2.2 -2.5 4.2 -4.5 4.6 -4.5 0.3 0 4.8 -3.5 9.8 -7.8 16.9 -14.1 34 -25.1 37.1 -23.8 0.7 0.2 0.4 0.5 -0.5 0.5 -1 0.1 -1.8 0.7 -1.8 1.4 0 0.7 -6 6.2 -13.2 12.2 -7.3 6.1 -18.3 15.8 -24.4 21.8 -6.1 5.9 -11.7 10.7 -12.3 10.7 -0.7 0 -1 0.4 -0.7 0.8 0.3 0.5 -3.5 5.3 -8.5 10.7 -9.3 10.1 -28.2 35.5 -36 48.2 -2.4 4 -5 7.3 -5.7 7.3 -0.7 0 -1 0.5 -0.7 1 0.3 0.6 -1.9 5 -4.9 9.9 -6.4 10.4 -17.1 31.4 -22.2 43.8 -4 9.7 -12.1 34.7 -14.9 46.1 -2.6 10.8 -6.4 14 -11.7 10.1z"/>
  <path d="M1538.3 396.2 c-3 -2.3 -4.2 -6.1 -5 -14.8 -0.3 -4.1 -0.9 -7.4 -1.3 -7.4 -0.4 0 -0.6 -1 -0.4 -2.2 0.2 -1.3 0.8 -10.8 1.4 -21.3 2 -36.3 7 -59.5 18 -84.7 5.4 -12.2 11.2 -24 12.6 -25.5 0.6 -0.6 1.7 -2.6 2.4 -4.5 0.8 -1.8 1.7 -3.5 2 -3.8 1.2 -1 8 -12.8 8 -13.9 0 -0.6 0.5 -1.1 1 -1.1 0.6 0 1 -0.7 1 -1.5 0 -0.8 0.4 -1.5 0.8 -1.5 0.5 0 3.1 -3.3 5.8 -7.2 6 -8.9 22.8 -26.6 30.8 -32.5 6.3 -4.7 11.6 -5.8 11.6 -2.5 0 1.1 -1.3 2.3 -3.5 3.1 -4.2 1.5 -15.1 12.4 -23.1 23.1 -3.2 4.4 -6.5 7.9 -7.2 8 -0.7 0 -1 0.5 -0.7 1 0.4 0.6 -0.9 3.6 -2.8 6.8 -4.4 7.2 -11.6 21.7 -15.2 30.2 -1.4 3.6 -3.2 7 -3.8 7.5 -0.7 0.6 -1.3 1.9 -1.4 3.1 -0.3 3.3 -2.2 7.4 -3.3 7.4 -0.6 0 -0.9 0.4 -0.5 0.9 0.6 1 -6.1 24.2 -7.3 25.1 -0.4 0.3 -0.7 1.6 -0.8 3 -0.2 4.1 -4.8 32.5 -5.4 32.7 -0.3 0.2 -0.4 3.7 -0.2 7.8 0.2 4.1 0 7.5 -0.5 7.5 -0.4 0 -0.8 6 -0.8 13.3 -0.1 7.2 -0.3 19.3 -0.5 26.8 -0.5 12.8 -0.6 13.8 -3 16.2 -2.9 3.1 -5.6 3.4 -8.7 0.9z"/>
  <path d="M1129.8 356.3 c-0.9 -1 -2.1 -3.6 -2.8 -5.8 -0.7 -2.2 -1.5 -4.4 -1.8 -4.9 -0.3 -0.6 -0.6 -1.9 -0.7 -3 -0.3 -4 -1.8 -12.1 -2.3 -13.1 -0.4 -0.5 -0.5 -2.2 -0.3 -3.7 0.1 -1.4 -0.1 -2.8 -0.6 -3.1 -0.4 -0.3 -0.4 -7.9 0.1 -16.9 0.5 -8.9 0.9 -18.1 1 -20.3 0 -2.2 0.3 -4.2 0.7 -4.5 0.9 -0.9 4 -17 3.4 -18 -0.3 -0.6 -0.2 -1 0.3 -1 0.5 0 1.9 -2.8 3.2 -6.2 7.4 -20.7 17.6 -44.1 20.5 -47.3 0.6 -0.7 1.9 -2.9 3 -5.1 1.1 -2.1 2.3 -4 2.8 -4.2 0.4 -0.2 0.7 -1 0.7 -1.7 0 -0.7 0.4 -1.5 0.8 -1.7 0.4 -0.1 4.3 -4.9 8.6 -10.5 9.8 -12.9 16.6 -20.5 25.3 -28.4 6.5 -6 16.3 -11.6 18.1 -10.5 0.5 0.3 -4.1 5.6 -10.2 11.8 -6.2 6.2 -13.4 14.3 -16.1 18.1 -2.7 3.7 -5.5 6.7 -6.3 6.7 -0.7 0 -1.1 0.4 -0.7 1 0.8 1.2 -5.6 11 -7.3 11 -0.7 0 -1.1 0.4 -0.7 0.9 0.7 1.2 -9.4 19.1 -11.1 19.8 -0.7 0.3 -1 1.1 -0.7 1.9 0.3 0.7 -0.2 1.7 -1.1 2 -0.9 0.3 -1.4 1 -1.1 1.5 0.3 0.4 -1.4 5.4 -3.8 11.1 -2.4 5.7 -5.2 12.7 -6.1 15.6 -1 2.9 -2.4 5.8 -3.1 6.6 -0.8 0.7 -1.2 1.6 -0.9 1.8 0.5 0.5 -4.7 21 -5.5 21.8 -0.3 0.3 -0.6 2.5 -0.7 5 -0.1 2.5 -0.5 10.1 -0.9 17.1 -0.8 13.5 0.1 23.3 3.6 37.1 2.6 10.6 2.5 15.3 -0.6 18.3 -2.9 2.9 -4.6 3.1 -6.7 0.8z"/>
 </g>
 <g fill="#2b3f45">
  <path d="M1922.3 2194.5 c-5.1 -2.2 -11.9 -9.1 -14.4 -14.8 -2.2 -4.8 -2.4 -6.7 -2.8 -25.7 -0.4 -23 1.5 -123.5 3 -158 0.9 -22.6 2 -35 4 -46.8 l1.1 -6.3 21.2 0.7 c12.4 0.4 21.4 1.1 21.8 1.7 0.6 1 1.9 11.4 3.4 27.2 1.1 11.7 0.5 190 -0.7 197.4 -1.9 12.2 -6.4 19.2 -15.1 23.5 -6 3 -16 3.5 -21.5 1.1z"/>
  <path d="M521.5 2188.9 c-6.9 -2.6 -12.5 -8 -16.2 -15.8 -3.8 -7.9 -4.2 -21.3 -4.2 -122.5 l-0.1 -87.9 10.8 0.7 c5.9 0.3 16.9 0.9 24.4 1.2 l13.7 0.7 0.5 5.1 c2.1 18.8 9.1 182.1 8.2 190.8 -1.1 11.6 -5.7 19.7 -13.8 24.9 -4.3 2.8 -6 3.3 -12.7 3.6 -4.2 0.1 -8.9 -0.2 -10.6 -0.8z"/>
  <path d="M587 1140.8 c-21.7 -1.7 -41 -9.6 -61.9 -25.3 -59.6 -44.9 -79.2 -137.1 -41.9 -197.3 6.6 -10.7 20.9 -25.4 30.6 -31.7 16.7 -10.7 29.2 -14.5 50.4 -15.2 13.8 -0.5 14.8 -0.4 15.4 1.3 0.4 1.1 1.8 4.8 3.2 8.3 l2.4 6.3 -2.2 5.2 c-1.3 2.8 -4.1 8.9 -6.3 13.6 -2.2 4.7 -5.2 12.3 -6.6 16.9 l-2.7 8.5 -6.2 1.4 c-8.4 1.8 -17.4 8 -23.4 15.9 -16.7 22.2 -15.5 60.8 2.8 91.5 8.3 13.9 26.6 31.2 36.1 34.2 1.2 0.4 4.7 4.5 7.9 9.2 5.7 8.5 15.4 18.4 17.9 18.4 2.5 0 2.6 1.8 1.1 12.2 -0.8 5.7 -1.7 14.1 -2.1 18.8 -0.7 9.8 0.7 9 -14.5 7.8z"/>
  <path d="M1901.6 1116.6 c5.4 -15 8.2 -38.9 6 -52.1 l-0.6 -4 9.2 -4.4 c8.2 -3.8 10.4 -5.5 19.3 -14.5 10.6 -10.7 14.5 -16.5 20.1 -29.4 7.1 -16.4 10.4 -36.9 8.4 -51.9 -2.9 -22.7 -14.9 -42.4 -30.1 -49.5 l-4.8 -2.3 -0.1 -15.5 c0 -11.8 -0.5 -17.8 -2.1 -25 -1.1 -5.2 -2.3 -12.1 -2.6 -15.3 l-0.5 -5.8 6.3 0.7 c34.8 3.8 66.2 27 82 60.8 7.6 16.4 11.3 30.9 12.9 51.6 3.3 42.7 -10.1 83.9 -38.5 118 -20.4 24.5 -51 41.3 -81.2 44.6 l-6.1 0.6 2.4 -6.6z"/>
  <path d="M1541 1036.5 c-13.3 -3.8 -25.2 -15.9 -34 -34.8 -10.1 -21.7 -14.6 -54.5 -11.1 -80.7 4.2 -31.4 11.2 -48.6 25.7 -63.2 8.9 -9.1 14.1 -11.5 27.6 -13 9.4 -1 11 -1 15 0.5 12 4.6 23.3 21.2 31.3 46 5.7 17.6 6.9 28.7 6.3 59.5 -0.5 21.4 -0.7 23.4 -3.6 34.6 -3.5 13.2 -7.1 21.6 -13 30.3 -11.5 17 -28.8 25.1 -44.2 20.8z m14.4 -54.4 c4.1 -12.8 6.5 -25.9 7.3 -40.1 0.7 -13 -2.5 -37.7 -6.3 -49 -2.6 -7.4 -6.6 -14 -8.5 -14 -1.6 0 -3.9 6.6 -6.7 19 -2.4 10.6 -2.6 13.3 -2.6 34.5 0 28.5 2.2 43.5 8.3 57.9 2.9 6.5 4.1 5.3 8.5 -8.3z"/>
  <path d="M903.7 1021.6 c-7.7 -3.2 -12.8 -6.9 -18.4 -13 -24.7 -27.4 -35.6 -83.1 -24.8 -127.4 3 -12.5 7 -22 12.9 -31.2 9.2 -14.2 18.3 -20.1 34.2 -22.1 7.8 -1 9.9 -0.9 14.6 0.5 11.2 3.2 23.5 15 30.8 29.6 10.2 20.2 17 51.6 17 78 -0.1 43.1 -12.7 72.5 -36.4 84.8 -4.2 2.1 -6.7 2.6 -14.6 2.9 -8.3 0.3 -10.2 0.1 -15.3 -2.1z m18.8 -58.7 c4 -17.9 3.6 -48.5 -0.9 -66.3 -2.5 -9.8 -10.8 -28.6 -12.5 -28.6 -4.5 0 -7.3 41.2 -4.2 62 2.3 15.7 7.8 34.7 11.8 40.9 1.5 2.3 1.6 2.3 2.9 0.7 0.7 -1 2 -4.9 2.9 -8.7z"/>
  <path d="M1850.7 935.5 c1.3 -5.5 0.9 -79.2 -0.5 -92.5 -4.3 -41.3 -12.4 -81.6 -23.2 -115.2 -2.1 -6.5 -3.6 -11.8 -3.5 -11.8 0.6 0 18.5 31.8 20.6 36.5 5.5 12.8 9.2 23.1 12.9 36.1 2.2 7.8 6 19.9 8.5 27 5.8 16.2 12 38.9 11.7 42.9 -0.1 1.7 -0.4 8.2 -0.6 14.5 -0.3 13.8 -2.5 20.6 -11.3 35.2 -4.8 7.9 -9.1 16.4 -14.1 27.8 -1.1 2.4 -1.1 2.3 -0.5 -0.5z"/>
 </g>
 <g fill="#ffec0d">
  <path d="M1381.5 2210.7 c-10.4 -5 -14.8 -12 -15.3 -24.7 -0.3 -7.8 0.1 -9.8 4.2 -23.4 8 -25.9 11.1 -46.3 9.6 -61.5 -1.3 -11.9 -7.3 -40.1 -10.1 -47.3 -2.2 -5.7 -17.5 -32 -23.4 -40.3 -8.1 -11.4 -28.6 -27.6 -42.5 -33.5 -10.6 -4.5 -15.3 -7.9 -18.5 -13.4 -6.5 -11.1 -2.3 -24.6 9.5 -30.6 5.4 -2.7 15.2 -4.4 22.9 -3.7 10 0.8 18.2 4 32.1 12.5 28.9 17.7 38.2 27.1 57 58.1 14.6 24 17.6 31.3 23.4 56.6 8.1 35.3 9.1 55.1 4.3 84.5 -5.3 32.1 -11.3 49.3 -20.7 58.9 -9.5 9.6 -22.3 12.7 -32.5 7.8z"/>
  <path d="M1012.2 2194.5 c-11.5 -3.6 -18 -11.7 -24.3 -30.4 -6.2 -18.2 -8.7 -39.2 -6.9 -57.1 1.3 -14 3.2 -21.3 11 -44.4 16 -47.2 36.2 -75.4 70.5 -98.1 21.1 -14 32.5 -18.5 46.4 -18.5 10.2 0 15 1.8 19.9 7.4 4.4 5 4.2 10.1 -0.3 12.9 -20.8 12.8 -20.6 12.7 -35.1 30.2 -20.9 25.1 -27.4 35 -36.3 55.3 -5.6 12.6 -17.6 48.2 -19 56.6 -2.3 12.9 -0.7 29.6 4.6 45.8 5.1 15.9 3.1 27.5 -6 35.3 -4.3 3.7 -11.9 6.5 -17.1 6.4 -1.7 0 -5 -0.6 -7.4 -1.4z"/>
  <path d="M1185.8 2047 c-6.1 -3.3 -10.6 -11.3 -13.2 -23.8 -3.3 -15.6 -4.1 -33.7 -4.1 -95.7 0 -56.1 0.1 -61.5 1.8 -67.4 3.4 -12 8.9 -19.5 17.2 -23.6 5.6 -2.8 18.4 -2.8 23.9 -0.1 9 4.5 15.4 14.7 15.6 24.6 0.2 8.1 -1.7 99 -2.5 117 -1.4 33.6 -5.6 51.6 -14.7 63.3 -5.9 7.4 -16.1 9.8 -24 5.7z"/>
 </g>
</svg>