<?xml version="1.0" encoding="utf-8"?>
<!DOCTYPE svg PUBLIC "-//W3C//DTD SVG 1.0//EN" "http://www.w3.org/TR/2001/REC-SVG-20010904/DTD/svg10.dtd">
<svg version="1.0" xmlns="http://www.w3.org/2000/svg" width="1924px" height="1924px" viewBox="0 0 1924 1924" preserveAspectRatio="xMidYMid meet">
 <g fill="#2b3f45">
  <path d="M750.3 1915 c-13.8 -1.2 -23.9 -7.8 -29.6 -19.3 -4.5 -9.1 -19.8 -44.5 -48.7 -112.7 -6.2 -14.6 -12.8 -30.1 -14.7 -34.5 -1.9 -4.4 -6.1 -14.3 -9.3 -22 -3.2 -7.7 -11.8 -28.4 -19.3 -46 -54.8 -130.1 -80.7 -193.5 -87.2 -213.2 -1.4 -4.6 -3.2 -8.6 -3.8 -9 -0.6 -0.4 -21.9 -1 -47.2 -1.3 -44.4 -0.6 -46.2 -0.7 -51.7 -2.9 -9.9 -3.8 -16.4 -12 -18.7 -23.1 -1 -5.1 -2.6 -37.6 -5.2 -104.5 -1.4 -34.1 -0.6 -80.8 1.5 -91.8 0.8 -4.2 2.4 -9.8 3.6 -12.2 2.8 -5.8 11.7 -13.7 20 -17.8 l6.4 -3.2 26.1 -0.6 c14.3 -0.3 47.6 -0.6 74 -0.7 94.2 -0.4 351.7 -2.2 393.2 -2.8 37.7 -0.6 42.2 -0.8 42.8 -2.3 1.4 -3.5 1.7 -29.5 0.6 -45.1 -3.3 -46.3 -7.5 -69.6 -19.7 -109.8 l-2.5 -8.2 -9.2 9.2 c-11.9 12 -23.9 20.4 -41.1 28.9 -42.6 20.9 -94.5 26.4 -146.5 15.4 -30.9 -6.5 -62.1 -21.2 -75.4 -35.4 -5.3 -5.6 -5.6 -7 -2.6 -10.3 1.1 -1.3 3.9 -5.2 6.2 -8.8 5.4 -8.6 22 -24.9 33.5 -33 18.8 -13.2 33.6 -20.5 57.7 -28.5 26 -8.6 48.5 -11.9 81.5 -11.9 25.3 0 42 1.9 61.8 6.8 5 1.3 9.2 2 9.2 1.6 0 -0.5 -0.9 -3 -2.1 -5.7 -12 -27.7 -21.3 -52.2 -29.4 -77.9 -8.3 -26 -11.7 -39.8 -15.4 -61.4 -4.3 -25.7 -5.5 -41.3 -4.8 -64 0.7 -21.3 1.4 -28.6 5.4 -52.4 2.5 -15.1 2.5 -16 0.8 -17.2 -2.2 -1.6 -1.8 -4.1 3.2 -21.4 3.6 -12.5 9.9 -29.3 12.7 -33.5 0.8 -1.2 2.8 -2.5 4.4 -2.8 1.8 -0.4 3.9 -1.9 5.3 -3.9 4.7 -6.8 14.6 -16.1 20.4 -19.4 9.1 -5 14.2 -6.5 22.3 -6.5 6 0 8.5 0.5 13.5 2.9 5.3 2.5 21.3 14 20.5 14.7 -0.2 0.2 -4.2 1.7 -9 3.3 l-8.6 3.1 -5.1 -2 c-7.1 -2.7 -13.2 -2.5 -19.5 0.7 -7.6 3.8 -13 9.4 -9.1 9.4 2.2 0 1.9 1.3 -2.1 7.1 -7.2 10.8 -13.1 24.9 -17.9 43.4 -2 7.7 -2.6 9.1 -4.6 9.5 -2.1 0.5 -2.6 1.7 -4.1 8.5 -6.7 31.3 -7.6 79.4 -2.2 112 0.8 5 1.7 9.6 1.9 10.3 0.3 0.9 3.2 -1.4 7.7 -6.3 14.8 -15.9 47.3 -37 70.1 -45.7 10.4 -3.9 31.1 -10.4 42.5 -13.3 36.9 -9.3 93.9 -9.5 133.7 -0.3 13.1 3 42 13 52.8 18.3 12.5 6 17.7 10.5 17.7 15.1 0 12.8 -18.3 36.3 -40.7 52.2 -45.8 32.6 -111.9 49.8 -183.3 47.9 -29.5 -0.8 -55.1 -4.3 -77.5 -10.6 -3.8 -1.1 -7.2 -1.8 -7.4 -1.5 -1.1 1.1 13.1 39.7 24.1 65.3 16 37.5 28.8 72.8 38.3 106.1 10.4 36.1 17.3 90.4 16.3 128.6 l-0.5 18.6 79.1 -0.6 c43.5 -0.3 105 -0.8 136.6 -1.1 166.2 -1.4 251.8 -1.6 258.8 -0.6 4.1 0.6 9.6 2.1 12.3 3.2 5.7 2.5 12.1 9.1 15.2 15.7 l2.2 4.7 0.3 110.9 c0.3 121.8 0.5 116.2 -5.8 125.7 -3.4 5.1 -8.7 9.3 -15.2 11.7 -3.8 1.5 -10.3 1.7 -53.8 1.8 -27.2 0 -50 0.1 -50.7 0.2 -0.6 0.1 -1.9 2.8 -2.8 6 -5.6 19.8 -29.2 99.2 -52.6 177.2 -8.3 27.8 -17.7 59.3 -20.9 70 -3.2 10.7 -8.3 27.8 -11.3 38 -3.1 10.2 -10.6 35.4 -16.7 56 -23.6 78.9 -24.6 81.7 -32 88.4 -8.9 8 -8.4 8 -54.5 8.7 -22.5 0.4 -122 1 -221 1.3 -99 0.3 -187.9 0.8 -197.5 1 -9.6 0.2 -21.2 0 -25.7 -0.4z m354.2 -56.8 l105 -0.7 9.3 -31.5 c5.2 -17.3 13.1 -43.9 17.7 -59 8 -26.3 12.4 -41.1 34 -114 5.3 -17.9 13.2 -44.2 17.5 -58.5 4.3 -14.3 13.1 -43.5 19.5 -65 6.5 -21.4 13.3 -43.9 15.1 -49.9 2.7 -8.6 3.2 -11.1 2.2 -11.8 -0.7 -0.4 -11 -0.8 -22.8 -0.8 -11.8 0 -56.4 -0.5 -99 -1 -42.6 -0.5 -115.5 -1.4 -162 -2 -115.3 -1.4 -287.2 -3.8 -358 -5 -78.6 -1.4 -91 -1.3 -91 0.3 0 0.7 1.6 4.6 3.6 8.7 3.9 8.1 30.4 67.8 30.4 68.5 0 0.2 2.8 6.6 6.1 14.2 12.7 28.5 84 194.5 109.9 255.8 21.2 50.2 21.9 51.8 22.9 52.4 1 0.7 184.7 0.3 339.6 -0.7z m332.5 -448.5 c0 -0.8 -3.8 -8.3 -8.4 -16.8 -16.1 -29.6 -31.6 -59.5 -51.7 -99.5 l-20.3 -40.4 -21.3 0 c-14.7 0 -21.3 0.3 -21.3 1.1 0 0.6 3.3 7.2 7.4 14.7 4 7.6 13.1 25 20.1 38.7 7 13.8 15.3 29.7 18.5 35.5 3.1 5.8 10.1 18.8 15.5 29 5.4 10.2 12.2 22.9 15.2 28.2 l5.4 9.7 12.7 0.3 c7 0.2 16.2 0.4 20.5 0.6 6.1 0.2 7.7 0 7.7 -1.1z m16.4 -0.3 c0.3 -0.9 0.6 -21.9 0.6 -46.8 l0 -45.2 -10.1 -18.4 c-5.6 -10.2 -13.6 -24.6 -17.8 -32 l-7.6 -13.5 -24.2 -0.3 c-15 -0.1 -24.3 0.1 -24.3 0.7 0 0.5 2.6 5.6 5.8 11.3 3.1 5.7 10.2 19.8 15.7 31.3 12.1 25.5 52.6 106.7 55.4 111.3 2.2 3.4 5.5 4.3 6.5 1.6z m-128.4 0 c0 -0.4 -2.9 -5.2 -6.4 -10.8 -3.5 -5.5 -13.9 -22.2 -23.1 -37.1 -9.2 -14.8 -20.7 -33.3 -25.5 -41 -14.9 -24 -22.2 -36.5 -30 -51.5 l-7.5 -14.5 -34.7 0 c-23.7 -0.1 -34.8 0.3 -34.8 1 0 0.6 1.5 3.3 3.3 6 4.7 7 20.7 33.1 31.2 51 4.8 8.3 13.1 22.2 18.5 31 5.4 8.8 15.5 25.5 22.5 37 7.1 11.6 13.9 22.7 15.3 24.7 l2.4 3.8 19.7 0.3 c10.8 0.1 26.2 0.3 34.4 0.5 8.1 0.1 14.7 -0.1 14.7 -0.4z m59 -0.6 c0 -0.6 -4.4 -8.9 -9.9 -18.2 -5.4 -9.4 -13.4 -23.6 -17.8 -31.6 -4.4 -8 -11.4 -20.6 -15.5 -28 -18 -32.4 -24 -43.5 -32.2 -59.3 -4.8 -9.3 -9.3 -17 -10 -17.3 -0.6 -0.2 -12.5 -0.3 -26.4 -0.2 l-25.2 0.3 3.4 5 c6.9 10.3 28.1 45.8 52.1 87.5 6.5 11.3 14.4 24.8 17.5 30 3.2 5.2 7.9 13.3 10.5 18 2.6 4.7 5.8 10 7.2 11.8 l2.4 3.2 22 0 c16.2 0 21.9 -0.3 21.9 -1.2z m-196 -0.7 c0 -1.9 -45 -70.5 -64.9 -99.1 -14.2 -20.3 -28.6 -41.8 -32.9 -48.7 l-3.2 -5.3 -30.5 0 c-18 0 -30.5 0.4 -30.5 0.9 0 0.5 1 2.2 2.3 3.8 7 8.5 17.7 25.5 50.7 80.3 22.5 37.4 33.2 54.9 37.6 61.5 l4 6 28.4 0.5 c15.7 0.3 30.9 0.6 33.8 0.8 2.8 0.1 5.2 -0.2 5.2 -0.7z m54 -0.1 c0 -0.5 -4.2 -7.2 -9.2 -14.9 -5.1 -7.7 -12.8 -19.5 -17.1 -26.3 -4.3 -6.8 -11.2 -17.7 -15.4 -24.3 -12.9 -20.4 -34.8 -56.3 -50.7 -83.2 l-2.5 -4.3 -22.6 0 c-15.5 0 -22.5 0.3 -22.5 1.1 0 0.6 3.3 5.6 7.4 11.2 6.6 9.2 11.5 16.7 34.2 52 15.3 23.9 30.9 48.9 45.7 73.2 4.3 7.2 8.6 13.8 9.4 14.8 1.4 1.5 3.9 1.7 22.5 1.7 12.9 0 20.8 -0.4 20.8 -1z m-190 -0.8 c0 -0.4 -2.8 -5.3 -6.1 -10.7 -3.4 -5.5 -9.9 -16.1 -14.4 -23.5 -12.7 -20.8 -41.1 -65.9 -51 -81.2 -5 -7.6 -12.1 -18.6 -16 -24.5 l-7 -10.8 -37.2 -0.3 c-20.5 -0.1 -37.3 0 -37.3 0.3 0 0.2 2 3.7 4.4 7.7 2.4 4 14.1 23.5 25.9 43.3 11.8 19.8 26.5 44.3 32.7 54.5 6.2 10.2 13.9 23 17.2 28.5 3.3 5.5 7.1 11.5 8.4 13.2 l2.5 3.3 38.2 0.3 c21 0.1 38.5 0.3 39 0.5 0.4 0.1 0.7 -0.2 0.7 -0.6z m56 -0.4 c0 -0.6 -0.6 -1.9 -1.4 -2.7 -0.7 -0.9 -4 -5.9 -7.3 -11.1 -3.3 -5.2 -10.9 -17.1 -16.8 -26.5 -5.9 -9.3 -16.4 -26 -23.3 -37 -6.8 -11 -15.7 -25.2 -19.6 -31.5 -7.9 -12.6 -21 -36.2 -22.1 -39.7 -0.6 -2.3 -0.7 -2.3 -23.6 -2.3 -12.6 0 -22.9 0.2 -22.9 0.4 0 0.3 3.7 6.3 8.3 13.3 11.6 17.8 52.2 85.6 76.2 127.1 2.6 4.6 5.4 9 6.2 9.8 1.9 1.9 46.3 2.1 46.3 0.2z m-146.3 -1.3 c-0.4 -0.8 -3 -5 -5.9 -9.2 -2.9 -4.3 -11 -16.8 -17.9 -27.8 -7 -11 -16.6 -26.1 -21.4 -33.5 -4.7 -7.4 -12.8 -20.2 -18 -28.5 -5.2 -8.2 -12.2 -19.5 -15.7 -24.9 -3.5 -5.5 -8.1 -13.1 -10.3 -17 l-4.1 -7.1 -24.7 -0.3 c-14 -0.1 -24.7 0.2 -24.7 0.7 0 0.5 5.3 9 11.8 18.9 36.8 56.6 60.6 92.9 71.9 109.7 l12.8 19 11 0.5 c27.9 1.3 35.8 1.2 35.2 -0.5z m-127.7 -0.2 c0 -0.5 -5.4 -9.1 -12 -19.3 -6.6 -10.2 -15 -23.4 -18.8 -29.5 -3.8 -6 -12 -18.9 -18.2 -28.5 -12.8 -20 -31.3 -49.6 -38.6 -61.7 -2.7 -4.6 -5.3 -8.4 -5.9 -8.6 -2.3 -0.7 -80.5 0.6 -80.5 1.3 0 0.5 4.7 8.2 10.4 17.2 19.4 30.2 26.3 41.2 41 64.8 18.6 29.8 21 33.5 31.9 50.2 l8.9 13.7 8.6 0.4 c18.5 0.7 73.2 0.7 73.2 0z m67 0.1 c0 -0.4 -2.2 -3.6 -4.8 -7.3 -2.7 -3.6 -9.1 -12.7 -14.2 -20.1 -5.2 -7.4 -11.6 -16.6 -14.4 -20.5 -13.3 -18.5 -47 -68.9 -54.6 -81.4 -4.7 -7.8 -9.3 -15.3 -10.3 -16.6 l-1.8 -2.5 -22 0 c-15.5 0 -21.9 0.3 -21.9 1.1 0 0.6 2.4 5 5.4 9.8 12.7 20.3 18.7 30.2 23.4 38.1 4.2 7.3 27.1 45.3 52.1 86.5 4.1 6.6 7.8 12.3 8.5 12.7 1.3 0.9 54.6 1.1 54.6 0.2z m-251 -1 c0 -0.3 -8.7 -12.8 -19.3 -27.7 -18.5 -26.1 -28.1 -39.7 -45.3 -64.7 -9 -13 -30 -45.2 -32.6 -49.9 l-1.7 -3.1 -23.1 0 c-16.7 0 -23 0.3 -23 1.2 0 2 67.8 105.1 80.5 122.4 3.3 4.5 8.1 11.1 10.7 14.7 4.6 6.5 4.7 6.6 10 7 9.1 0.6 43.8 0.7 43.8 0.1z m91 0.1 c0 -0.3 -1.9 -3.1 -4.1 -6.2 -6.9 -9.2 -35.4 -52.9 -68.5 -104.8 -4.6 -7.1 -11.6 -18.1 -15.5 -24.2 l-7.3 -11.3 -28 0.1 c-15.5 0.1 -33.8 0.4 -40.9 0.8 l-12.7 0.6 25.3 38.5 c28.1 42.7 67.8 101.3 71 104.8 l2 2.2 39.4 0 c21.6 0 39.3 -0.2 39.3 -0.5z m-208 -7.4 c-12 -16.9 -47 -70.4 -56.4 -86.1 -3.2 -5.2 -6.1 -9.9 -6.7 -10.5 -1.2 -1.2 -1.1 0.4 0.2 30 l1 24 7.3 11 c4 6.1 10.8 17 15.1 24.2 l7.8 13.3 17.1 0.2 c9.4 0.2 17.3 -0.1 17.5 -0.6 0.2 -0.4 -1.1 -2.9 -2.9 -5.5z m56 6.3 c0 -0.4 -2.4 -3.8 -5.3 -7.8 -26.5 -35.4 -67.6 -95.9 -84.2 -123.9 -3.9 -6.5 -7.8 -12 -8.9 -12.3 -1 -0.3 -7 -0.3 -13.3 0.1 l-11.5 0.7 0.7 9.7 c0.6 8.4 1.1 10.3 4 15.1 10.7 18.1 43.8 72.6 46.7 77.1 1.9 3 8.6 13.3 14.8 22.9 6.2 9.6 11.8 17.8 12.4 18.2 1.3 0.9 44.6 1.1 44.6 0.2z m-95 -0.8 c0 -0.5 -13.5 -21.9 -18.4 -29.3 -1.6 -2.4 -3.2 -4.3 -3.6 -4.3 -0.8 0 -0.3 27.6 0.6 31.8 0.4 2.1 0.9 2.2 10.9 2.2 5.8 0 10.5 -0.2 10.5 -0.4z m960.9 -133.2 c0.1 -12.1 -0.2 -15.4 -1.3 -16.4 -2.1 -1.7 -18.6 -1 -18.6 0.8 0 0.8 4.2 9 9.3 18.3 7.6 14 9.3 16.6 9.9 14.7 0.3 -1.3 0.6 -9.1 0.7 -17.4z m-616.2 -198.9 c39.5 -5 69.4 -17.3 94.4 -38.8 5.5 -4.6 15.5 -16.5 14.6 -17.3 -0.2 -0.3 -4.5 0.2 -9.3 1.1 -4.9 0.8 -20.4 2.6 -34.4 4 -14 1.4 -33.6 3.6 -43.5 5 -9.9 1.3 -22.3 3 -27.5 3.6 -9.4 1.1 -9.4 1.1 -13.3 5.6 -6.7 7.5 -30.5 24.7 -33.5 24.1 -3.9 -0.7 -2.2 -3.9 6.8 -13.2 5 -5.1 9.9 -10.4 10.7 -11.6 l1.6 -2.3 -7.9 0.7 c-6.8 0.6 -17.3 1.6 -42.1 4.1 -5 0.5 -7.1 -0.6 -3.8 -1.9 0.9 -0.3 9.4 -1.7 19.1 -3.1 9.6 -1.4 27.5 -4.5 39.8 -7 12.3 -2.4 25.3 -4.9 28.8 -5.5 3.4 -0.6 7.3 -1.3 8.6 -1.6 1.8 -0.3 -1.3 -2.3 -13.5 -8.4 -17.8 -9 -22 -11.8 -21 -14.3 0.9 -2.5 3.9 -2.1 15.7 1.7 5.8 1.9 16.7 5.3 24.4 7.5 7.6 2.3 16 5.3 18.6 6.7 l4.8 2.6 13.2 -2.1 c7.2 -1.1 22.6 -4.1 34.1 -6.6 11.5 -2.5 21.9 -4.5 22.9 -4.5 2.4 0 2.4 -0.1 0.6 -4.4 -1.3 -3.2 -2.1 -3.6 -14.2 -7.5 -23.6 -7.5 -43 -10.3 -72.9 -10.4 -34.6 -0.1 -59.7 4.7 -91.8 17.4 -25.1 10 -43.6 21.7 -64.9 41 -4.3 3.9 -7.8 7.4 -7.8 7.8 0 1.7 31.6 15.3 46.3 20 8.4 2.7 31.6 7.2 42.7 8.4 10 1.1 42.9 0.6 53.7 -0.8z m225.1 -202.9 c23.5 -3.1 52.6 -9.6 69.8 -15.7 22.8 -8 49.7 -22.8 65.3 -36 7.2 -6 23.2 -23.9 22.5 -25.1 -1.6 -2.5 -51.3 -15 -68.4 -17.2 -41.1 -5.2 -71.6 -4.5 -104.4 2.3 -12 2.5 -34.6 9.1 -45.2 13.2 -19.1 7.3 -44.4 22.5 -60.5 36.3 -5.9 5 -15.4 15.9 -14.2 16.3 0.5 0.2 13.3 -2.1 28.4 -5.1 15.1 -3 31.7 -6.2 36.9 -7.1 13.7 -2.3 28 -5.7 28 -6.6 0 -2.1 7.2 -8.7 15.4 -14.2 5 -3.3 12.7 -8.8 17.1 -12.2 17.4 -13.4 25 -17.5 26.2 -13.8 0.4 1.1 -10.2 11.8 -20.2 20.3 -8.6 7.4 -17.6 16 -16.7 16 0.5 0 9.9 -1.8 20.8 -3.9 25 -4.9 58.5 -8.4 59.8 -6.3 2.1 3.5 -48.1 19.4 -90.9 28.7 -11.5 2.6 -21.4 5 -21.8 5.4 -0.5 0.5 1.6 1.1 4.5 1.5 10 1.3 40.3 8.7 41.8 10.1 3.2 3.3 -0.1 3.5 -34.8 2.1 -32.7 -1.3 -34.4 -1.4 -39.1 -3.7 -4.5 -2.3 -5.2 -2.4 -9.7 -1.2 -2.7 0.7 -10.5 2.5 -17.4 3.9 -18.3 3.9 -18.7 4.3 -5.5 7 13.6 2.8 29 5.2 41.5 6.4 13.9 1.3 56.3 0.5 70.8 -1.4z"/>
  <path d="M796.9 1770.5 c-3.2 -1.7 -5.9 -7.1 -5.9 -11.8 0 -4.5 3.8 -9.2 8 -10.1 9.1 -1.8 18.3 10.4 14 18.5 -2.4 4.4 -10.9 6.2 -16.1 3.4z"/>
  <path d="M836.1 1729.3 c-4.9 -2.6 -7.1 -6.1 -7.8 -12.5 -0.5 -4.7 -0.2 -5.9 1.4 -7.5 1.7 -1.7 3.1 -2 9.4 -1.6 6.3 0.3 7.7 0.7 10 2.9 9.5 9.1 -1.5 24.8 -13 18.7z"/>
  <path d="M776 1717.8 c-6.3 -3.4 -11.8 -15.4 -10.3 -23 1 -5.3 6.4 -13.6 9.9 -15.3 12.8 -6.1 28.4 5.1 28.4 20.3 0 5.9 -3.6 11.9 -9.6 15.9 -4.6 3.2 -14.2 4.3 -18.4 2.1z"/>
  <path d="M1128.3 1653 c-3.5 -2.1 -5.3 -6.7 -5.3 -13.7 0 -7.5 5.9 -11 12.7 -7.6 9.7 4.7 11 17.3 2.3 21.8 -3.8 2 -5.8 1.9 -9.7 -0.5z"/>
  <path d="M1172.4 1609 c-5.6 -2.2 -7.4 -11.8 -3.1 -15.8 3.3 -3.1 10.5 -3.1 13.5 0.1 4.4 4.7 2.1 13.5 -4 15.6 -3.6 1.3 -3.6 1.3 -6.4 0.1z"/>
  <path d="M1109.5 1590.1 c-5.1 -2.3 -13 -10.8 -15.6 -16.7 -3.2 -7.1 -2.9 -16.2 0.8 -23.2 2.3 -4.7 4.2 -6.6 10.1 -10.7 6.7 -4.5 7.9 -5 14.1 -5.3 5.7 -0.3 7.5 0 11.8 2.2 9.6 4.8 14.5 13.7 14.4 26.6 0 8.3 -2.1 13.8 -7.7 20 -7.4 8.2 -19 11.2 -27.9 7.1z"/>
  <path d="M1035 698.1 c-4.6 -1.5 -11.5 -5.4 -17.7 -10 -6.3 -4.6 -7.5 -6.1 -4.9 -6.1 0.7 0 2.4 -0.8 3.7 -1.9 1.4 -1 4.8 -2 8.1 -2.4 4.8 -0.5 5.9 -0.2 7.5 1.5 2.6 2.9 8.7 5.8 12.1 5.8 1.6 0 4.1 -0.9 5.6 -2.1 5.4 -4.3 7.4 -21.4 2.4 -20.7 -1.6 0.2 -2.3 -0.7 -3.7 -5.2 -3.3 -10.5 -11.2 -23.8 -22 -37.5 -5.7 -7.1 -6 -7.8 -4.6 -9.7 1.3 -1.9 1.1 -2.5 -1.8 -6.2 -1.8 -2.3 -12 -13.1 -22.7 -24.1 -36.9 -37.9 -52.6 -59.3 -65.6 -89.7 -3.9 -9 -10.2 -31.2 -13 -45.1 -1.4 -7.4 -2.1 -9 -3.9 -9.7 -2.2 -0.8 -2.3 -1.5 -2.9 -16.7 -0.3 -8.7 -0.9 -21.9 -1.2 -29.4 -0.6 -13.3 -0.6 -13.6 1.5 -14.2 2 -0.5 2.1 -1 1.6 -8.4 -0.3 -4.3 -1.2 -18.1 -2.1 -30.8 -1.5 -23.1 -4.2 -48.9 -7 -66.5 -2.1 -14 -2.2 -14.2 -4.3 -13.5 -1.5 0.4 -2.1 0 -2.5 -2.2 -1.9 -9.1 -5.5 -42.7 -5.6 -51.4 0 -3.9 0.4 -5.9 1.4 -6.2 0.9 -0.4 1.6 -3.2 2 -8.4 1 -10.7 5.1 -19.4 11.2 -23.3 2.5 -1.5 7.7 -3.6 11.8 -4.5 9 -2.1 10.6 -1.5 19 7.6 6.5 7 9.8 11.7 12.1 17.3 l1.6 3.8 -4.8 -0.6 c-2.6 -0.3 -6.9 -0.7 -9.5 -0.8 -4.6 -0.2 -4.6 -0.2 -7.2 -5.9 -1.5 -3.1 -3.5 -6.4 -4.6 -7.4 -4.4 -3.9 -10 2.3 -10 11.3 0 4.5 0.3 5.2 2 5.2 2.3 0 2.5 0.9 4 14 0.6 5.2 2 16.6 3.2 25.3 2.1 15.3 2.1 15.7 0.3 17.1 -1.7 1.2 -1.8 1.9 -0.7 9.7 5.2 36.1 8.4 68.6 10.1 102.4 0.9 16.8 1.2 19.1 2.9 20.5 1.7 1.3 2.1 3.9 3.1 25.5 0.7 13.2 1.5 26.6 1.8 29.8 0.5 4.8 0.3 5.7 -1.1 5.7 -2.3 0 -2.1 2 1.8 17.2 3.9 15.6 6.7 22.8 15.1 39.8 9.2 18.3 22.6 36.3 54 72.5 5.8 6.6 13 15.3 16.1 19.3 6.1 7.9 7.6 9.1 9.8 7.3 1.7 -1.4 4.8 2.8 17.6 23.9 9.5 15.7 14.8 28.4 12.8 30.7 -0.9 1.2 -1.3 5.6 -1.3 15.2 -0.1 10.9 -0.4 14.4 -1.9 17.6 -2.9 6.4 -6.6 10.6 -11.1 12.6 -4.9 2.2 -14.8 3.2 -18.5 2z"/>
  <path d="M956 259.7 c-4.1 -1 -6.6 -3.1 -8.6 -6.9 -2.1 -4 -1.8 -4.8 1.9 -4.8 2.9 -0.1 3 -0.2 1.5 -1.4 -2.8 -2.1 -2.2 -2.6 3.7 -2.6 5.1 0 5.6 -0.2 7.1 -3.1 0.9 -1.8 1.9 -6.4 2.3 -10.3 0.6 -7 -0.2 -26.3 -1.4 -33.8 -0.5 -3 -0.4 -3.8 0.9 -3.8 0.8 0 1.7 -0.4 2 -0.9 0.7 -1 -3.5 -28.7 -6.5 -42.6 -1.1 -5.5 -5 -19.2 -8.6 -30.5 -11.7 -37 -14 -45.4 -18.2 -67.2 -4.5 -22.8 -4.8 -29.3 -1.8 -31.2 3 -1.8 5 2 10.2 19.6 2.6 8.9 8 25.1 12 35.8 10.5 28.4 17.1 47.3 20 57.5 2.7 9.4 7.4 35.6 9.6 53.3 1 8.8 1.6 10.6 3.6 12.1 1.9 1.6 2.3 2.8 2.3 7.4 0 11.8 -2.2 31.3 -4.4 38.2 -1.8 5.9 -2.5 7 -4.6 7.3 -1.4 0.2 -4.1 1.9 -6.1 3.8 -4 3.9 -11 5.6 -16.9 4.1z"/>
 </g>
 <g fill="#abecfd">
  <path d="M924.2 692.3 l-8.4 -0.4 0.7 -4.2 c1 -6.1 7.2 -26.1 10.6 -34.3 1.6 -3.8 4.8 -10.1 7.2 -14 l4.2 -6.9 11 -1.2 c13.2 -1.3 24.2 -3.9 43.5 -9.9 15.6 -5 26.9 -9.6 28.5 -11.8 0.9 -1.1 2.3 0.2 7 6.2 11.9 15.1 19.9 28.9 23 39.6 0.9 3.2 1.5 5.9 1.3 6.1 -1.9 1.7 -19.2 10 -25.8 12.4 -9.9 3.5 -36.4 11.3 -46.4 13.6 -16.5 3.7 -38.2 5.6 -56.4 4.8z"/>
  <path d="M885.4 685.6 c-8.9 -3.3 -16.5 -7.8 -28.9 -17.1 -18.6 -14 -27 -23 -36.4 -38.8 -12.8 -21.8 -17.3 -35.8 -17.5 -54.7 -0.1 -10.7 0.1 -11.9 2.7 -17.2 7.1 -14.5 24.5 -19.9 38.9 -12.1 8.7 4.8 12.9 11.6 17.7 28.9 3.5 12.7 9.4 24.9 15.3 31.7 9.3 10.9 29.1 24.6 33.8 23.4 1.9 -0.5 1.8 -0.1 -0.9 4.6 -5.7 9.9 -10.6 24.1 -17.7 50.4 l-0.9 3.1 -6.1 -2.2z"/>
  <path d="M1065.4 650.4 c-4.2 -11.9 -16.5 -34.1 -26.7 -48.3 l-3.2 -4.3 4 -4.2 c4.7 -4.8 10.7 -16 12.4 -23 1.9 -7.9 1.5 -24.8 -0.8 -35.6 -5.5 -25.1 -27.5 -56.5 -51.8 -74 -13.8 -9.8 -24.9 -14.2 -49.1 -19.1 -5.9 -1.3 -10.8 -2.3 -10.9 -2.3 -0.7 -0.4 -2.3 -23.4 -2.9 -40.5 -0.7 -19.7 -0.7 -20.3 1.2 -19.8 1 0.3 9.6 2 18.9 3.7 29.6 5.5 41.2 9.1 60.3 19 33.9 17.4 70.6 59 84.7 96 22.1 57.7 11.6 110.7 -29.2 148.4 -5.4 5 -6.4 5.5 -6.9 4z"/>
  <path d="M902 432.5 c-28.4 -5.9 -51.3 -16.6 -67.5 -31.7 -7.5 -7 -21.8 -26.1 -27.1 -36.2 -14.7 -28.1 -13.8 -62.7 2.3 -95.1 5.8 -11.5 17.6 -28.5 25.5 -36.6 13.6 -14 34.7 -28 53.4 -35.2 l6 -2.4 1.2 15.6 c0.7 8.6 2.2 21.7 3.2 29.1 1.1 7.4 2 13.8 2 14.2 0 0.4 -1.9 1.7 -4.2 2.9 -11.1 5.6 -24.5 18.8 -32.4 31.9 -8 13.1 -9.7 18.6 -9.8 31 -0.1 9.4 0.2 11.1 2.6 16.2 3.3 7.2 13.5 20.6 18.6 24.6 6 4.8 12.7 7.8 25.3 11.4 6.3 1.8 11.5 3.3 11.7 3.4 0.1 0 0.7 12.2 1.2 27 0.6 14.8 1.2 28.1 1.5 29.7 0.5 3.2 1.3 3.2 -13.5 0.2z"/>
  <path d="M1026 263.3 c-1.4 -0.2 -10.1 -2.4 -19.5 -4.8 -9.3 -2.4 -19.8 -4.9 -23.1 -5.5 l-6.1 -1.2 2.8 -8.7 c3.1 -9.7 5.5 -32.7 4.3 -40.8 -0.6 -4 -0.5 -4.6 0.7 -3.7 0.8 0.6 4.6 2.2 8.4 3.4 18.7 6.2 30.3 12.4 40.8 22 11.2 10.3 15.2 21.6 10.9 31.2 -1.1 2.6 -3.2 5.4 -4.7 6.4 -2.7 1.7 -10 2.6 -14.5 1.7z"/>
  <path d="M954.4 247.1 c0.5 -0.7 0.1 -0.7 -13.9 -1.7 -5.8 -0.4 -11.5 -0.2 -13.6 0.4 l-3.6 1 -1.6 -11.2 c-2.7 -18.2 -5.8 -44.8 -5.3 -45.4 0.3 -0.3 7.3 -0.6 15.5 -0.7 11.4 -0.2 16.9 0.2 23.7 1.6 4.8 1.1 9.1 2.2 9.5 2.7 0.4 0.4 1.2 7.5 1.8 15.7 1.1 17.3 0.2 30 -2.6 34.8 -1.6 2.7 -2.5 3.2 -6.1 3.3 -2.3 0.1 -4 -0.1 -3.8 -0.5z"/>
 </g>
</svg>