<?xml version="1.0" encoding="utf-8"?>
<!DOCTYPE svg PUBLIC "-//W3C//DTD SVG 1.0//EN" "http://www.w3.org/TR/2001/REC-SVG-20010904/DTD/svg10.dtd">
<svg version="1.0" xmlns="http://www.w3.org/2000/svg" width="1924px" height="1924px" viewBox="0 0 1924 1924" preserveAspectRatio="xMidYMid meet">
 <g fill="#ffffff">
  <path d="M554 1865.4 c-14.6 -1.7 -23.8 -3.9 -32 -7.6 -8.5 -3.8 -19 -10.7 -19 -12.4 0 -1.8 4.6 -1.8 10.2 0 5.4 1.7 8.5 2.3 22.8 4.2 9.2 1.2 13.3 1.3 21 0.4 11.6 -1.3 24.1 -3.7 29.5 -5.6 2.3 -0.8 6 -1.4 8.3 -1.4 l4.2 0 -2.5 6.7 c-5.6 14.7 -9 17.4 -22.1 17.2 -4.9 -0.1 -14.1 -0.7 -20.4 -1.5z"/>
  <path d="M533.5 1797 c-7 -0.8 -12.8 -2.5 -17.5 -5.2 -6.5 -3.7 -9 -5.4 -9 -6 0 -0.5 -0.6 -0.8 -1.4 -0.8 -1.4 0 -15.5 -14.5 -18.5 -19 -0.9 -1.3 -2.8 -3.8 -4.3 -5.4 -1.6 -1.7 -2.8 -3.6 -2.8 -4.2 0 -0.7 -0.4 -1.4 -0.8 -1.6 -0.9 -0.3 -6.4 -8.4 -19.9 -28.8 -11.5 -17.4 -13.1 -19.7 -17.3 -24.9 -5.1 -6.3 -8.7 -9.8 -28.3 -27.4 -1.7 -1.5 -4.8 -3.8 -6.9 -4.9 -2.1 -1.2 -3.8 -2.5 -3.8 -3 0 -0.4 -0.5 -0.8 -1.2 -0.8 -0.6 0 -2.1 -0.8 -3.2 -1.9 -1.2 -1 -4.6 -3.2 -7.6 -4.8 -11.2 -6.2 -12.4 -6.8 -13.4 -7.5 -0.6 -0.4 -4.9 -2.7 -9.6 -5.1 -16.4 -8.2 -27 -16.1 -32 -23.7 -0.8 -1.3 -2.5 -3.5 -3.7 -5 -1.3 -1.5 -2.3 -3.3 -2.3 -3.9 0 -0.6 -0.3 -1.1 -0.7 -1.1 -0.7 0 -5.2 -8.3 -7.3 -13.5 -0.5 -1.1 -3 -8.5 -5.6 -16.5 -2.6 -8 -5.1 -15.4 -5.5 -16.5 -2.3 -5.4 -6.9 -32.9 -6.9 -41.2 0 -3.7 1 -12.3 2.2 -19 l2.2 -12.3 3.6 -0.5 c8.3 -1.3 33.6 -8.1 47.5 -12.7 24.7 -8.3 50.9 -21.1 67.9 -33.2 15.6 -11.2 38.9 -39.7 79.3 -97.4 16.2 -23.1 26.7 -37.7 28.8 -39.7 0.5 -0.5 2.2 -1.6 3.7 -2.4 1.5 -0.7 4.3 -2.9 6.3 -4.8 3.6 -3.4 30.7 -23 38.4 -27.8 0.9 -0.5 1.8 -1.3 2.1 -1.6 1 -1.2 18.7 -12.6 25.4 -16.3 3.8 -2.1 8.8 -5.1 11.1 -6.7 2.4 -1.6 4.6 -2.9 4.9 -2.9 0.3 0 3.4 -1.9 6.9 -4.3 3.4 -2.4 6.9 -4.6 7.7 -5 0.8 -0.4 3.1 -1.7 5 -2.8 10.3 -6.2 26.2 -13 37.5 -16 1.7 -0.4 4.8 -1.4 7 -2.2 6.7 -2.5 38.2 -4.7 78.1 -5.7 59.9 -1.4 134.4 1 143.8 4.6 1.8 0.7 2.1 5.7 0.7 11.3 -0.6 2 -1.7 6.5 -2.6 10.1 -3.2 12.3 -4.8 14 -23.5 23.2 -15.5 7.7 -22.3 11.5 -34.5 19.3 -2.7 1.8 -8.4 5.2 -12.5 7.6 -4.1 2.4 -8.2 5.1 -9.1 5.9 -0.9 0.8 -2.7 2.4 -4 3.5 -6 5 -10 8.3 -13.8 11.4 -2.3 1.9 -5.9 5.9 -8 9 -7.2 10.8 -7.9 19.8 -2.3 29.9 1.4 2.4 6.8 8.2 7.7 8.2 0.3 0 2.2 1.1 4.3 2.4 6 4 19.8 6.8 36.7 7.5 20.8 0.8 59.5 0.5 62.2 -0.5 1.2 -0.5 6.5 -4.9 11.7 -9.7 7.5 -6.9 11.7 -12 20.2 -24.5 12.8 -18.7 21.1 -35.4 32.4 -64.7 13.5 -35.3 17.8 -46.6 21.6 -57 2 -5.5 5.2 -13.2 7.1 -17.2 l3.4 -7.3 12.5 0.1 c6.8 0.1 12.4 0.5 12.4 1 0 0.5 -1.5 1.6 -3.2 2.5 -4.2 2.1 -6.8 4.4 -6.8 5.9 0 0.6 2.4 1.7 5.3 2.5 2.8 0.7 11 3 18 5.1 7.1 2.2 13.3 3.9 13.8 3.9 2.6 0 -2.4 -11.5 -6.8 -15.6 -1.5 -1.3 -2.3 -2.7 -2 -3 0.4 -0.4 6.2 -0.3 12.9 0.2 l12.2 0.9 1.9 5 c6.2 16.6 6.2 38.9 -0.1 70.5 -1.1 5.2 -1.7 9.7 -1.5 10 0.5 0.6 1.8 -1 15 -18.5 5.8 -7.7 14.1 -19.8 18.5 -27 13 -20.9 20 -31.5 20.8 -31.5 0.4 0 2.3 1.5 4.2 3.3 6.1 5.8 9 6.2 41.3 6.2 16 0 33.8 0.1 39.8 0.3 l10.7 0.2 0 4.9 c0 3.9 -0.7 6 -3.8 10.7 -5.8 9.1 -6.1 9.7 -7.3 12.4 -0.6 1.4 -2.1 3.8 -3.3 5.5 -1.3 1.6 -3.1 4.6 -4.1 6.5 -2.3 4.5 -10.8 17.4 -11.7 17.8 -0.5 0.2 -0.8 0.9 -0.8 1.6 0 0.7 -0.8 2.1 -1.7 3.2 -1 1 -3.1 3.9 -4.8 6.4 -1.6 2.5 -3.3 4.7 -3.6 5 -0.3 0.3 -2.9 3.9 -5.7 8 -9.5 13.8 -11.5 16.5 -12.2 17 -0.4 0.3 -1.3 1.6 -2 2.9 -1.1 2.1 -6.1 9.1 -9.6 13.4 -0.8 0.9 -1.4 2.2 -1.4 2.7 0 0.6 -0.4 1 -0.9 1 -0.5 0 -1.2 0.9 -1.6 2 -0.8 2.5 -10.2 14.9 -17.2 22.6 -1.8 1.9 -3.3 3.9 -3.3 4.2 0 0.4 -3 3.9 -6.7 7.9 -3.8 3.9 -8.6 9.2 -10.8 11.8 -2.2 2.5 -5.1 5.9 -6.5 7.4 -1.4 1.6 -3.5 4.1 -4.7 5.7 -1.2 1.6 -3.3 4.2 -4.7 5.7 -1.4 1.6 -4 4.7 -5.8 7 -1.8 2.2 -4.6 5.5 -6.3 7.3 -13.2 14.1 -17.5 19.7 -22.5 28.7 -3.8 7 -4.6 11.6 -2.6 15.6 4.5 8.7 13.1 7.2 25.4 -4.3 2.9 -2.7 7 -6.1 9 -7.5 2.1 -1.4 10.8 -8 19.3 -14.5 28.2 -21.8 78.8 -76 110.2 -118.1 7 -9.3 33.9 -52.3 35.7 -56.9 0.4 -1.2 4 -8.6 7.9 -16.5 3.9 -7.8 7.1 -14.7 7.1 -15.2 0 -0.6 1.3 -3.8 2.9 -7.2 1.5 -3.4 3.1 -7.5 3.5 -9.2 0.4 -1.6 1.6 -5.5 2.7 -8.6 2 -5.5 2.1 -5.7 6.6 -6.3 2.5 -0.3 11.8 -0.6 20.5 -0.6 l16 0 -0.7 7.3 c-1.8 20.5 -3.9 30.6 -8.9 42.7 -1.3 3 -3.8 9.3 -5.5 14 -1.8 4.7 -3.7 9.5 -4.2 10.8 -1.3 3.2 -2.5 6.2 -4.1 10.7 -0.9 2.2 -2.9 7.6 -4.6 12 -1.7 4.4 -3.5 9.6 -4 11.5 -1.3 4.5 -5.6 15.7 -7.5 19.5 -0.8 1.7 -2.2 4.8 -3.2 7 -5.7 13.4 -17.6 35 -29.4 53.3 -2.3 3.5 -4.1 6.7 -4.1 7.2 0 0.6 -0.4 1 -1 1 -0.5 0 -1 0.4 -1 1 0 1.1 -6.2 10.3 -7.2 10.8 -0.5 0.2 -0.8 1 -0.8 1.7 0 0.8 -0.6 1.8 -1.3 2.2 -0.7 0.4 -2.8 3.3 -4.7 6.3 -1.9 3 -6.3 9.1 -9.8 13.5 -12.9 16.6 -15.6 20 -17.2 21.7 -0.8 0.9 -2.6 3.1 -4 4.9 -1.4 1.7 -3.7 4.5 -5.2 6.1 -1.6 1.6 -2.8 3.1 -2.8 3.4 0 0.4 -3.9 5 -8.2 9.6 -1.6 1.6 -2.8 3.2 -2.8 3.4 0 0.3 -1.2 1.8 -2.7 3.4 -1.6 1.5 -4.4 4.7 -6.3 7 -4.5 5.4 -22.4 23.4 -28.1 28.2 -2.4 2 -6.6 5.7 -9.4 8.2 -2.7 2.5 -5.3 4.6 -5.7 4.6 -0.4 0 -1.8 1 -3.2 2.3 -2.9 2.7 -19.9 14.1 -27.1 18.3 -2.7 1.6 -5.9 3.4 -7 4.1 -2.4 1.4 -28 14.1 -45 22.3 -12.9 6.2 -34.5 13.6 -49 16.9 -2.7 0.6 -8.1 1.9 -12 2.8 -3.8 0.8 -9 1.9 -11.5 2.4 -2.5 0.4 -9.7 1.9 -16 3.3 -6.3 1.4 -12.9 2.5 -14.7 2.6 -1.7 0 -4.3 0.4 -5.6 0.9 -2.4 0.9 -16.1 2.9 -34.5 5.1 -11.1 1.3 -35.7 2.7 -70.2 4 -24.2 0.9 -40.6 2.6 -49.5 5.1 -20.5 5.6 -44.7 17 -58 27.2 -1.3 0.9 -2.8 1.7 -3.4 1.7 -0.6 0 -1.1 0.4 -1.1 0.9 0 0.5 -1.7 2 -3.7 3.2 -2.1 1.3 -4 2.6 -4.3 2.9 -1 1.2 -8.8 7 -9.4 7 -0.3 0 -1.8 1.2 -3.4 2.8 -1.6 1.5 -5.1 4.8 -7.8 7.3 -2.7 2.5 -7.6 7.6 -10.9 11.4 -3.3 3.7 -7.5 8.3 -9.2 10.2 -1.8 1.9 -3.3 3.7 -3.3 4 0 0.2 -0.6 1 -1.2 1.7 -0.7 0.8 -5.1 6.6 -9.8 13 -4.7 6.5 -10.9 14.7 -13.7 18.4 -6.6 8.4 -7 9 -14 18.9 -10.3 14.6 -31.7 36.9 -41.9 43.8 -7.9 5.4 -18.1 10.3 -24 11.6 -11.6 2.6 -26.3 3.3 -38.9 1.9z m-161.8 -215.6 c18.1 -9 23.9 -31.6 11.2 -44.2 -6.1 -6.1 -12.2 -7.5 -26.1 -5.7 -7.4 1 -12.6 5.2 -16.7 13.8 -5.5 11.4 -5 21.6 1.4 30 6.8 8.9 19.6 11.5 30.2 6.1z m580.2 -224.1 c10.9 -3.1 28.4 -10.4 27.4 -11.4 -0.4 -0.4 -5.1 -2.3 -10.3 -4.3 l-9.5 -3.5 -2.4 3.2 c-1.3 1.8 -6.2 6.9 -10.9 11.5 -9.4 9.2 -9.7 8.9 5.7 4.5z m43.4 -18 c5.3 -2.6 9.6 -5.1 9.4 -5.7 -0.2 -0.5 -6 -2.5 -12.9 -4.2 -6.9 -1.8 -14.2 -4 -16.3 -4.8 -2 -0.9 -4.1 -1.6 -4.4 -1.6 -1.2 0 -9.5 12.4 -8.5 12.7 0.5 0.2 4.7 2.1 9.4 4.2 4.7 2.2 9.6 4 11 4 1.4 0.1 6.9 -2 12.3 -4.6z m21.6 -12 c7 -4 9.6 -6.2 8 -6.7 -1.3 -0.4 -10.7 -2.6 -36.4 -8.5 -5 -1.2 -9.4 -2.1 -9.7 -2.1 -0.3 0 -1.6 1.6 -2.8 3.6 -2.2 3.9 -2.1 6.4 0.4 6.4 0.8 0 7.6 2 15.3 4.4 20.5 6.6 19.2 6.4 25.2 2.9z m21.4 -14.8 c3.7 -2.9 6.4 -5.5 6 -5.8 -0.4 -0.2 -8.9 -2.4 -18.8 -4.7 -9.9 -2.3 -22.4 -5.7 -27.8 -7.4 -6.8 -2.3 -10 -2.9 -10.6 -2.2 -1 1.3 -5.2 10.9 -4.9 11 1.4 0.7 47.1 14.4 48.3 14.5 0.6 0 4.1 -2.4 7.8 -5.4z m13 -10.3 c0.9 -1 2 -3.8 2.3 -6.3 l0.6 -4.4 -12.9 -3.4 c-11.5 -3.1 -41.3 -11.4 -45.4 -12.6 -1.2 -0.4 -2.2 0.9 -3.9 5 -1.2 3.1 -2 5.8 -1.7 6.1 0.3 0.3 3.4 1.2 6.8 2 3.5 0.8 13.6 3.7 22.4 6.4 17.8 5.5 28.7 8.8 29.6 8.9 0.3 0.1 1.3 -0.7 2.2 -1.7z m5.6 -21.3 c0.7 -3.4 1.1 -6.2 0.9 -6.4 -0.2 -0.1 -5 -1.6 -10.8 -3.3 -8.6 -2.6 -18.2 -5.7 -43.8 -14.3 -1.3 -0.4 -6.5 10.8 -5.6 12.3 0.3 0.4 1.3 0.8 2.3 0.8 0.9 0 10 2.7 20.2 6.1 17.5 5.7 33.7 10.7 35 10.8 0.4 0.1 1.2 -2.6 1.8 -6z m4 -19.1 c1.3 -5.9 0.9 -7.8 -1.3 -7.8 -1.7 0 -18.9 -5.1 -35.5 -10.6 -7.3 -2.4 -13.9 -4.4 -14.6 -4.4 -1.1 0 -4.5 7.7 -4.5 10.2 0 0.4 1 0.8 2.3 0.9 1.2 0 13.2 4.2 26.7 9.3 13.5 5.2 24.8 9.1 25.1 8.7 0.3 -0.3 1.1 -3.2 1.8 -6.3z m3.5 -16.9 c0.7 -4.3 0.2 -5.9 -1.8 -5.9 -2.2 0 -39.6 -12.8 -43.7 -14.9 l-4 -2.1 -0.8 2.3 c-2.5 6.7 -2.7 6.3 5.1 9 9.5 3.3 30 10.9 36.3 13.5 7.3 3 8.1 2.9 8.9 -1.9z m1.6 -23.3 l0 -10.3 -7.2 -1.2 c-4 -0.6 -13.8 -2.8 -21.7 -4.7 -7.9 -2 -14.7 -3.2 -15.1 -2.7 -0.8 1 -5 11.3 -5 12.4 0 0.5 1.1 0.9 2.5 0.9 2.5 0 9.3 2.4 30.5 10.8 6.9 2.8 13.3 5.1 14.3 5.1 1.5 0.1 1.7 -1 1.7 -10.3z"/>
  <path d="M1238.3 1495.4 c-1.9 -0.8 -1.7 -7.4 0.2 -7.4 0.8 0 1.5 -0.7 1.5 -1.5 0 -1.3 1 -2.6 7.8 -10.1 1.2 -1.4 2.2 -2.7 2.2 -3.1 0 -0.3 1.2 -2 2.8 -3.7 1.5 -1.7 4.1 -4.9 5.7 -7.1 1.7 -2.1 3.7 -4.6 4.5 -5.4 0.8 -0.9 3.7 -4.7 6.3 -8.4 2.7 -3.7 5.9 -8 7.2 -9.5 4 -4.4 4.5 -5.1 4.5 -5.8 0 -0.3 0.8 -1.6 1.8 -2.9 0.9 -1.2 2.4 -3.3 3.2 -4.5 0.8 -1.2 2.1 -2.8 2.8 -3.6 0.6 -0.7 1.2 -1.7 1.2 -2.2 0 -0.6 1.2 -2.3 2.8 -3.9 1.5 -1.7 3.2 -4.3 3.7 -5.9 0.9 -2.5 1.6 -2.9 5.3 -3.2 l4.2 -0.3 -1.2 2.8 c-2.2 5 -15.8 26.4 -26.4 41.8 -7.7 11.1 -14.1 18.8 -24.7 29.7 -8 8.3 -14.7 14.4 -15.4 14.2z"/>
  <path d="M1347.3 1324.3 c-2.3 -0.9 -1.3 -7.9 2.7 -19.4 2.2 -6.3 4.4 -12.3 4.9 -13.4 0.5 -1.1 2.1 -5.4 3.6 -9.5 2.4 -6.9 4.6 -12.5 8.2 -20.8 1.6 -3.6 4 -10.5 8.1 -22.9 2.5 -7.8 2.9 -8.3 5.5 -8.3 l2.8 0 -0.6 5.8 c-1 8.4 -5 25.1 -9.2 37.7 -9.1 27.7 -21.8 52.5 -26 50.8z"/>
  <path d="M1734 991.3 c-44.2 -20.7 -108.5 -41.7 -157.5 -51.3 -25.9 -5.1 -34.1 -3.6 -38.8 6.8 -3.1 7.1 -3.3 15.5 -0.7 22.6 2.8 7.5 7.6 12.7 16.9 18.7 l7.4 4.8 -3.7 0.6 c-5.4 1.1 -13 -3.1 -20.4 -10.9 -6.8 -7.3 -9.8 -13 -11.4 -21.3 -2.4 -12.9 2.5 -26.7 11.5 -32.9 9.4 -6.5 18.6 -7 40 -2.3 53.5 11.6 124.6 37.2 163.1 58.6 7.4 4.1 9.3 6.1 8.3 8.7 -1 2.6 -6.4 1.8 -14.7 -2.1z"/>
  <path d="M1733.5 951.5 c-32.4 -6.7 -56.4 -14.2 -97 -30.2 -15.7 -6.2 -45.5 -21.8 -56.5 -29.6 -17.1 -12.2 -22.7 -19.5 -21.8 -28.7 1.1 -11.1 10.8 -18.5 41.1 -31.4 56.4 -24 116 -40.9 165.3 -47 10.8 -1.3 12.4 -1.2 12.4 1 0 1.6 -1.9 2.1 -11.5 2.9 -25.9 2.4 -86.5 18.8 -128.5 34.9 -29.1 11.2 -60.6 26 -67.3 31.6 -10.7 9.1 -8.3 16.7 9.3 29.9 15.6 11.7 32.7 20.8 61.3 32.5 28.1 11.6 45.6 17.4 89.7 29.6 10.2 2.8 20.1 5.7 22 6.5 l3.5 1.4 -3 0 c-1.6 0 -10.2 -1.5 -19 -3.4z"/>
  <path d="M374 899 c-1.3 -1.3 -2 -3.4 -2.1 -6 -0.3 -7.7 -0.6 -7.9 -5.8 -4.2 -6 4.4 -9.8 5.7 -11.6 4.2 -0.8 -0.7 -1.5 -2.1 -1.5 -3.1 0 -2.4 5.5 -8.5 12.5 -13.9 3 -2.3 5.5 -4.6 5.5 -5.1 0 -0.4 -2.5 -1.5 -5.6 -2.4 -12.1 -3.5 -26.4 -9.6 -28.4 -12.2 -2.5 -3.2 -2.6 -7.4 -0.2 -10.3 2.8 -3.4 8.2 -3.5 21.2 -0.2 6.3 1.6 11.6 2.9 11.7 2.8 0 0 -2.5 -4 -5.7 -8.7 -9.1 -13.6 -12.1 -23.9 -6.9 -23.9 2.1 0 9 8.7 13.6 17.1 1.4 2.7 2.7 4.8 2.8 4.7 0.2 -0.2 0.8 -7.3 1.5 -15.8 1.5 -20 3.7 -35.9 5.2 -37.7 0.6 -0.8 2.1 -1.3 3.2 -1.1 2.1 0.3 2.1 0.8 2.6 35.8 0.5 33 0.6 35.5 2.3 35.8 1.1 0.2 4.9 -2.4 9.9 -6.8 5.4 -4.7 8.9 -7 10.3 -6.8 3.7 0.5 2.8 4 -2.9 10.8 -3.1 3.6 -5.5 6.9 -5.3 7.3 0.1 0.5 3.1 2.1 6.6 3.6 3.4 1.4 7.4 3.6 8.7 4.8 3.1 2.8 3.1 6.8 0 8.8 -2.1 1.4 -3.3 1.4 -11 0.2 -8.2 -1.3 -8.6 -1.3 -8.6 0.5 0 2.5 -2.4 2.2 -5.1 -0.7 -4.2 -4.4 -5.3 -3.4 -6.6 5.8 -2 14.5 -6 21 -10.3 16.7z"/>
  <path d="M1610.5 763.9 c-12.9 -1.2 -33.4 -6.3 -41.1 -10.2 -12.2 -6.2 -17.1 -13.9 -19.9 -30.7 -1.8 -11.1 -2 -41.2 -0.5 -54 2.8 -22.5 9.2 -43.9 18.6 -62 10.1 -19.5 38.4 -51 38.4 -42.6 0 0.8 -3.8 5.6 -8.5 10.7 -21.4 23.5 -32.3 45 -39 76.9 -6.3 30.2 -5 69.5 2.8 85 3 6 3.7 6.7 9.7 9.7 7.5 3.7 19.3 6.7 35.2 8.9 12.3 1.8 46.2 1.5 58.8 -0.5 3.6 -0.6 13.5 -1.7 22 -2.6 8.5 -0.9 23.4 -2.7 33 -4 17.4 -2.4 46.8 -5 47.7 -4.2 1 1.1 -8.3 3.7 -18.7 5.2 -6.3 0.9 -20.9 3.1 -32.5 5 -59 9.5 -83.4 11.6 -106 9.4z"/>
  <path d="M394.6 613.2 c-0.3 -0.5 1.3 -2.9 3.5 -5.3 9.1 -10 12.4 -22.1 11.7 -42.4 -0.4 -11.8 -0.5 -12.6 -4.2 -20 -7 -14.2 -22.4 -27.7 -40.9 -35.7 -10.4 -4.5 -30.8 -9.8 -47.2 -12.3 -21.6 -3.3 -62.2 -2.1 -119 3.5 -16.5 1.6 -32.9 3.2 -36.5 3.5 -13.7 1.2 -58.9 7.7 -66.2 9.6 -4.2 1 -8.6 1.9 -9.7 1.9 -2.8 0 -2.7 -2.8 0.2 -3.5 1.2 -0.3 7.8 -1.8 14.7 -3.4 11.5 -2.7 60.1 -10.1 76.5 -11.6 3.9 -0.4 18 -2 31.5 -3.5 68.2 -8 97.8 -8.1 126 -0.4 5.2 1.4 11.8 3.2 14.7 4 2.8 0.7 9.8 3.1 15.5 5.2 31.3 11.6 49 31.8 50.5 57.6 0.7 11.9 -0.9 22.7 -4.9 32.9 -3.9 10 -6.6 14.5 -10.8 18 -3.3 2.8 -4.5 3.2 -5.4 1.9z"/>
  <path d="M97 481.3 c0 -2 4.8 -5.3 11.4 -7.8 3.7 -1.4 16.1 -4.8 27.4 -7.5 11.4 -2.7 29.5 -7 40.2 -9.5 43.9 -10.4 80.3 -23 115.7 -40 23.9 -11.5 39.3 -22.6 51.5 -37 11.4 -13.5 14.5 -21.6 12.8 -33.8 -2.1 -14.6 -9.6 -26.5 -24 -38.1 -9.7 -7.9 -51.5 -35.9 -77.1 -51.7 -50.7 -31.3 -86.6 -51.5 -111.6 -62.8 -6.9 -3.1 -9.1 -5.5 -6 -6.7 2.7 -1 30.7 11.6 55.7 25.1 56.2 30.3 125.7 73.3 146.2 90.4 14.6 12.2 23.8 26.2 27.8 42.6 4.8 19.2 -0.9 33.5 -21.5 54 -19.3 19.3 -42.2 31.5 -90.5 48.5 -30.1 10.6 -53.2 16.1 -100 24 -24.1 4 -51.3 9.2 -55.7 10.5 -1.3 0.4 -2.3 0.3 -2.3 -0.2z"/>
  <path d="M1573.7 304.3 c-1.2 -1.1 -0.7 -21.8 0.8 -40.8 0.8 -9.9 1.5 -18.4 1.5 -18.9 0 -0.7 -12.3 -0.4 -28 0.7 -2 0.2 -2.6 -0.3 -2.8 -2.5 -0.5 -4.5 5.6 -7.1 21.6 -9.1 0.6 -0.1 -1.3 -2.1 -4.4 -4.5 -4.6 -3.6 -5.5 -4.7 -5.2 -7 0.5 -4.4 4.7 -4.1 12.4 0.9 3.6 2.3 6.6 4 6.8 3.8 0.2 -0.2 1.1 -5.3 2.1 -11.3 1.7 -11.2 4.9 -23.1 6.7 -25.3 0.6 -0.7 2.1 -1.3 3.4 -1.3 5.1 0 5.7 14.4 1.8 40.8 -0.6 3.9 -0.4 4.4 1.1 4 1 -0.1 2.9 -2.3 4.2 -4.8 6.9 -13.2 14.9 -23 17.5 -21.4 1.8 1.1 -0.1 8.2 -4.7 17.3 -2.4 4.9 -4.1 9.1 -3.8 9.5 0.4 0.3 5.5 0.6 11.4 0.6 8 0 10.8 0.3 11.2 1.3 1.4 3.8 -3.5 5.7 -16.4 6.4 -6 0.3 -10.9 0.8 -10.9 1 0 0.3 1.5 2.3 3.4 4.5 4.6 5.4 6 9.3 4 11.3 -1.9 1.8 -3 1.2 -7.3 -3.7 -1.8 -2.1 -3.9 -3.8 -4.6 -3.8 -0.7 0 -3.4 4.2 -6 9.3 -4.3 8.5 -4.8 10.4 -6.9 24.9 -1.3 8.7 -2.9 16.4 -3.6 17.3 -1.3 1.5 -4.2 2 -5.3 0.8z"/>
  <path d="M1272 252.1 c-0.6 -1.2 -1 -10.1 -1 -22 l0 -20.1 -7.7 0 c-8.6 0 -14.5 -2.1 -15.1 -5.4 -0.6 -2.8 1.2 -3.3 7.8 -2.3 3.3 0.5 6.3 0.7 6.7 0.4 0.3 -0.4 -0.9 -2.9 -2.7 -5.6 -3.7 -5.8 -3.6 -8.5 0.2 -8.9 2.2 -0.3 3.4 0.6 6.8 5 2.3 2.9 4.6 5.4 5 5.6 0.4 0.1 1 -3.5 1.4 -8 1 -13.7 3.8 -22.1 7.8 -23.4 3.4 -1 5.8 2.7 5.8 9 0 4.7 -1.3 14.8 -2.5 20.4 -0.9 3.8 1.1 2.5 6.4 -4.3 5.1 -6.5 8.1 -8.2 8.1 -4.6 0 1 -2.2 5.3 -4.9 9.4 -5.5 8.3 -5.6 7.8 2.4 9.2 5.1 0.9 9.7 3.3 9.2 4.8 -0.2 0.7 -1.5 1.1 -2.8 1 -1.3 -0.1 -6.1 -0.5 -10.6 -0.9 -4.6 -0.4 -8.3 -0.4 -8.3 0 0 0.3 0.6 1.6 1.3 2.7 1 1.8 0.9 2.3 -1.1 3.9 -2.1 1.8 -2.5 3.4 -3.8 16.7 -0.9 8.2 -1.9 15.8 -2.4 17.1 -1.2 2.7 -4.6 2.9 -6 0.3z"/>
  <path d="M765.9 237.2 c-3 -3.2 -9.4 -10.6 -14.3 -16.5 -8.4 -10.1 -10.6 -12.1 -10.6 -9.6 0 0.6 -0.7 0.9 -1.6 0.7 -1 -0.2 -2.6 -2.9 -3.9 -6.5 -2.1 -5.9 -8.6 -15.3 -10.5 -15.3 -0.5 0 -4.5 4.4 -8.8 9.8 -9 11 -22.4 25.1 -26.4 27.6 -1.6 1.1 -3.5 1.5 -4.8 1.1 -5.8 -1.9 0.9 -15.3 16.1 -31.9 l5.4 -5.9 -4.5 0.7 c-10.1 1.6 -12.6 1.7 -15.2 0.7 -3.7 -1.4 -3.7 -4.6 0 -6.5 1.5 -0.8 8.2 -2.7 14.8 -4.2 6.5 -1.5 12.3 -3.1 12.7 -3.5 0.5 -0.4 -1.5 -3.5 -4.3 -7 -6.8 -8.4 -16.9 -23.7 -17.7 -26.8 -1.4 -5.6 3.7 -7.7 8.6 -3.5 3.4 2.8 11.9 13.7 19 24.2 2.4 3.5 4.5 6.2 4.7 6 0.2 -0.3 -0.9 -5.3 -2.5 -11.4 -4.1 -15.3 -4.7 -20.8 -2.7 -23.9 1.8 -2.7 5.7 -3.4 7.3 -1.2 0.6 0.6 2 7 3.2 14.2 1.2 7.1 2.4 13.1 2.5 13.3 0.2 0.1 4.1 -3.6 8.8 -8.3 6.4 -6.4 9.2 -8.5 11.2 -8.5 3.1 0 4.3 2.2 2.8 5.3 -0.6 1.2 -4.3 6.2 -8.2 11.1 -3.9 4.8 -7 9 -6.8 9.2 0.8 0.7 10.4 -2.7 16.4 -5.8 6.2 -3.1 9.4 -3.2 9.4 -0.4 0 2.8 -9.7 9.3 -19.6 13.2 l-9.6 3.8 0.6 4.5 c0.6 4.5 8 15 31.3 44.6 6.3 7.9 7.5 11.6 4.2 12.3 -0.9 0.2 -3.9 -2.2 -7 -5.6z"/>
  <path d="M395.5 238.4 c-8.1 -0.9 -31.3 -5.6 -40 -8.1 -19.8 -5.6 -48.9 -18.7 -73.8 -32.9 -20.6 -11.8 -44.9 -28 -52.2 -34.8 l-6 -5.5 11 5.6 c9.4 4.7 27.1 14.2 38 20.3 30.4 16.9 59.2 28.7 84.2 34.6 21.3 4.9 50.4 6.9 61 4 8.7 -2.3 11.9 -4.9 15.8 -12.9 8.6 -17.7 16.5 -59.4 16.5 -87.9 0 -8.6 0.3 -10.1 2.1 -11.9 1.8 -1.8 2.3 -1.9 4.2 -0.6 3 2 3.5 6.5 3.6 30.7 0.1 27.3 -2.9 48.9 -9.6 68.9 -6.1 18.2 -12.2 24.5 -27.9 28.5 -6.4 1.6 -20.4 2.6 -26.9 2z"/>
  <path d="M555 210.4 c-19 -4 -38 -15.3 -49.5 -29.4 -4.9 -5.9 -12.3 -19.5 -14.9 -27.2 -2.2 -6.6 -3.7 -20.5 -2.7 -25.5 1.1 -5.5 4 -10.1 5.2 -8.2 0.5 0.8 0.9 2.8 0.9 4.5 0 5.3 4.6 21.7 8.3 29.7 5.9 12.7 15.3 23.3 28.9 32.6 7.2 4.8 20.5 10.9 28.1 12.7 6.3 1.6 7.1 1.6 13.1 0 9.6 -2.6 18 -8 27.9 -17.9 6.5 -6.4 9.5 -8.7 11 -8.5 3.6 0.5 3 3.1 -2 9.9 -11.3 15.3 -25.5 25.4 -39.2 27.9 -6.5 1.2 -6.9 1.2 -15.1 -0.6z"/>
  <path d="M1167 207.1 c-1 -2 -2.8 -21.2 -3.3 -35.1 l-0.2 -7.5 -2.4 2.8 c-2.5 2.8 -4.5 3.4 -5.6 1.7 -0.3 -0.5 1.2 -4.5 3.5 -8.9 3.3 -6.7 4 -9 4 -14.1 0 -3.5 -0.4 -6 -1 -6 -0.6 0 -3.2 1.1 -5.8 2.4 -6.1 3.1 -21.7 9.2 -25.8 10 -2.2 0.5 -3.7 0.2 -5.2 -1.1 -4.4 -3.6 -0.2 -7.8 13.3 -13.1 2.8 -1.1 7.2 -3 9.9 -4.2 l5 -2.1 -7.6 -4.8 c-7.7 -5 -9.9 -8 -7.8 -10.6 1.9 -2.3 3.2 -1.9 13.6 3.5 5.3 2.8 9.8 5 10 5 0.2 0 0.4 -11.6 0.5 -25.7 0.1 -30.9 0.6 -35.7 3.5 -36.1 5.4 -0.8 7.4 8.4 8.1 37.4 0.7 27.9 0.9 28.1 10.1 10.1 3.4 -6.7 7.8 -14.4 9.7 -17 3.3 -4.4 7 -7 8.6 -6.1 1.3 0.8 -1.4 8.5 -6.7 19 -3 5.9 -5.2 10.9 -5 11.1 0.1 0.2 2.3 -0.4 4.7 -1.3 2.4 -0.8 7.3 -2.2 10.8 -2.9 7 -1.5 10.1 -0.8 10.1 2.4 0 1.3 -2.5 2.7 -10.2 5.6 -16.3 6.1 -24.5 10.1 -25.8 12.5 -1.4 2.7 -1.4 2.7 8.8 7.7 5.1 2.5 7.2 4.1 7.2 5.4 0 2.8 -7 2.5 -14.5 -0.6 -3.3 -1.4 -6.3 -2.5 -6.7 -2.5 -0.5 0 -0.8 13.8 -0.8 30.6 0 19.1 -0.4 31.3 -1 32.5 -1.4 2.5 -4.6 2.5 -6 0z"/>
 </g>
 <g fill="#eff2ef">
  <path d="M540 1853.7 c-0.3 -0.3 -3.9 -0.8 -8 -1.2 -4.1 -0.4 -7.7 -0.8 -8 -1 -0.3 -0.1 -2.7 -0.6 -5.4 -0.9 -2.7 -0.4 -5.9 -1.2 -7 -1.8 -2.5 -1.4 -2.6 -1.3 -3.7 0.4 -0.7 1 -0.9 0.9 -0.9 -0.4 0 -1 -0.5 -1.5 -1.3 -1.2 -2 0.7 -15.3 -13.6 -21.9 -23.6 -8.1 -12.3 -13.7 -24 -21.3 -45 -8.8 -24.1 -11.1 -28.9 -18.9 -38.5 -13.7 -17.1 -41.1 -36.2 -79.6 -55.5 -31 -15.5 -50.9 -32.2 -67.4 -56.4 -10.1 -14.8 -18.4 -35.4 -20.7 -51.5 -1.5 -10.5 -0.6 -25.7 2.1 -36.6 2.2 -9.3 14.1 -38.8 16.7 -41.8 4.5 -5 15.6 -7.5 16.8 -3.7 0.3 1.1 0.4 2.3 0.2 2.7 -0.3 0.5 -1.3 4.4 -2.2 8.8 -2 9.7 -2.7 21.4 -1.5 27.5 0.4 2.5 1.8 9.6 3 15.9 1.2 6.3 2.5 12.1 2.9 13 0.8 1.6 8.1 22.8 8.5 24.6 1.4 6.3 8.4 21.5 9.9 21.5 0.4 0 0.7 0.5 0.7 1.1 0 0.6 1 2.4 2.3 3.9 1.2 1.5 2.9 3.7 3.7 5 5 7.6 15.6 15.5 32 23.7 4.7 2.4 9 4.7 9.6 5.1 1 0.7 2.2 1.3 13.4 7.5 3 1.6 6.4 3.8 7.6 4.8 1.1 1.1 2.6 1.9 3.2 1.9 0.7 0 1.2 0.4 1.2 0.8 0 0.5 1.7 1.8 3.8 3 2.1 1.1 5.2 3.4 6.9 4.9 27.6 24.9 26.8 23.9 45.6 52.3 13.5 20.4 19 28.5 19.9 28.8 0.4 0.2 0.8 0.9 0.8 1.6 0 0.6 1.2 2.5 2.8 4.2 1.5 1.6 3.4 4.1 4.3 5.4 3 4.5 17.1 19 18.5 19 0.8 0 1.4 0.4 1.4 0.8 0 0.5 1 1.4 2.3 2.1 1.2 0.6 3.6 2 5.2 3 1.7 1 3.3 1.6 3.8 1.4 0.4 -0.2 0.7 0 0.7 0.5 0 2.3 12.7 4.5 25.5 4.4 19.9 -0.2 30.7 -3.4 45.9 -13.7 10.2 -6.9 31.6 -29.2 41.9 -43.8 7 -9.9 7.4 -10.5 14 -18.9 2.8 -3.7 9 -11.9 13.7 -18.4 4.7 -6.4 9.1 -12.2 9.8 -13 0.6 -0.7 1.2 -1.5 1.2 -1.7 0 -0.3 1.5 -2.1 3.3 -4 1.7 -1.9 5.9 -6.5 9.2 -10.2 3.3 -3.8 8.2 -8.9 10.9 -11.4 2.7 -2.5 6.2 -5.8 7.8 -7.3 1.6 -1.6 3.1 -2.8 3.4 -2.8 0.6 0 8.4 -5.8 9.4 -7 0.3 -0.3 2.2 -1.6 4.3 -2.9 2 -1.2 3.7 -2.7 3.7 -3.2 0 -0.5 0.5 -0.9 1.1 -0.9 0.6 0 2.1 -0.8 3.4 -1.7 14 -10.8 39.3 -22.4 60.1 -27.7 12.5 -3.2 20.5 -4 53.4 -5.1 10.2 -0.4 21.2 -0.8 24.5 -1 3.3 -0.3 11 -0.7 17 -1 12.4 -0.6 18.9 -1.1 25.5 -2.1 2.5 -0.3 6.1 -0.8 8 -1 1.9 -0.2 4.9 -0.6 6.5 -0.8 1.7 -0.2 5.5 -0.7 8.6 -1 3.1 -0.3 6.8 -1 8.3 -1.6 1.5 -0.5 4 -1 5.6 -1 2.3 0 19.4 -3.2 23.5 -4.4 3.8 -1.1 6.4 -1.7 9 -2 4.2 -0.6 20.8 -4.2 23.7 -5.2 1.2 -0.4 2.8 -0.8 3.3 -0.9 6 -0.6 32 -9.8 44 -15.5 17 -8.2 42.6 -20.9 45 -22.3 1.1 -0.7 4.3 -2.5 7 -4.1 7.2 -4.2 24.2 -15.6 27.1 -18.3 1.4 -1.3 2.8 -2.3 3.2 -2.3 0.4 0 3 -2.1 5.7 -4.6 2.8 -2.5 7 -6.2 9.4 -8.2 5.7 -4.8 23.6 -22.8 28.1 -28.2 1.9 -2.3 4.7 -5.5 6.3 -7 1.5 -1.6 2.7 -3.1 2.7 -3.4 0 -0.2 1.2 -1.8 2.8 -3.4 4.3 -4.6 8.2 -9.2 8.2 -9.6 0 -0.3 1.2 -1.8 2.8 -3.4 1.5 -1.6 3.8 -4.4 5.2 -6.1 1.4 -1.8 3.2 -4 4 -4.9 1.6 -1.7 4.3 -5.1 17.2 -21.7 3.5 -4.4 7.9 -10.5 9.8 -13.5 1.9 -3 4 -5.9 4.7 -6.3 0.7 -0.4 1.3 -1.4 1.3 -2.2 0 -0.7 0.3 -1.5 0.8 -1.7 1 -0.5 7.2 -9.7 7.2 -10.8 0 -0.6 0.5 -1 1.2 -1 0.6 0 0.8 -0.3 0.5 -0.6 -0.4 -0.4 0.6 -2.3 2.2 -4.3 1.5 -2 4.1 -5.8 5.6 -8.6 1.6 -2.7 4.9 -8.3 7.4 -12.4 6.6 -10.9 14.5 -25.9 18.6 -35.6 1 -2.2 2.4 -5.3 3.2 -7 1.9 -3.8 6.2 -15 7.5 -19.5 0.5 -1.9 2.3 -7.1 4 -11.5 1.7 -4.4 3.7 -9.8 4.6 -12 1.6 -4.5 2.8 -7.5 4.1 -10.7 0.5 -1.3 2.4 -6.1 4.2 -10.8 1.7 -4.7 4 -10.5 5.1 -13 1 -2.5 2 -5.2 2.1 -6 0.2 -0.8 0.5 -1.9 0.9 -2.5 0.3 -0.5 1.3 -3.5 2.1 -6.6 1.6 -5.3 2 -8 3.3 -21.9 0.3 -3.6 0.8 -6.8 1 -7.2 0.3 -0.5 -1.1 -0.8 -3 -0.8 -2.9 0 -3.6 -0.4 -3.6 -1.9 0 -1.9 0.9 -1.9 20.5 -1.7 l20.5 0.2 3.5 3.4 c8.8 8.6 15.5 23.2 17 37.3 0.7 6.1 0.6 6.7 -1.1 6.8 -1.1 0 -1.4 0.3 -0.6 0.6 1.7 0.7 1.5 3.3 -0.3 3.3 -1.3 0 -1.6 0.4 -1.5 2.5 0 0.3 -0.7 1.9 -1.5 3.5 -0.9 1.7 -1.3 3 -1 3 0.3 0 -0.3 1.7 -1.3 3.8 -1.1 2 -2.2 5 -2.6 6.6 -0.4 1.5 -1.5 4.7 -2.5 7 -3.7 8.4 -6 14.3 -8.6 21.6 -1.5 4.1 -3.3 8.9 -4 10.5 -4.3 10.2 -8.7 24.8 -7.6 25.4 0.8 0.5 0.1 2.7 -2.4 7.2 -1.9 3.5 -5.9 11.2 -9 17.1 -4.9 9.5 -23.7 43.7 -25.4 46.3 -0.4 0.6 -2.4 4.9 -4.5 9.8 -2.8 6.4 -4.3 8.7 -5.7 8.7 -2.2 0 -4.8 4.2 -3 4.8 1.8 0.6 1.3 2.2 -0.8 2.2 -1.7 0 -6.1 4.7 -6.1 6.5 0 0.3 -0.6 1.2 -1.2 1.9 -0.7 0.8 -2 2.4 -2.8 3.6 -0.8 1.2 -2.3 3.3 -3.3 4.5 -0.9 1.3 -1.7 2.6 -1.7 2.9 0 0.7 -0.5 1.4 -4.5 5.8 -1.3 1.5 -4.5 5.8 -7.2 9.5 -2.6 3.7 -5.5 7.5 -6.3 8.4 -0.8 0.8 -2.8 3.3 -4.5 5.4 -1.6 2.2 -4.2 5.4 -5.7 7.1 -1.6 1.7 -2.8 3.4 -2.8 3.7 0 0.4 -1 1.7 -2.2 3.1 -7.7 8.5 -8 8.9 -6.8 9.6 1.9 1.2 0.3 2.9 -2.3 2.3 -1.7 -0.4 -1.9 -0.2 -0.7 0.6 1.2 0.8 1.2 1.2 -0.1 2.8 -0.9 1 -2.7 3.1 -4 4.7 -7.9 9.5 -38.2 35.5 -55.9 48.1 -32.7 23.1 -80.5 47.2 -119.8 60.5 -35.2 11.8 -91.3 22.7 -144.7 28 -54.1 5.4 -74.9 8 -94.4 11.5 -64.4 11.7 -103.1 27.6 -130.5 53.6 -37.3 35.3 -77.6 95.6 -90.6 135.4 -3.2 9.8 -3.3 10 -6.4 10.1 -2.7 0.1 -8.7 1.5 -13.6 3.2 -0.8 0.3 -2.2 0.6 -3 0.7 -0.8 0.1 -2.9 0.5 -4.7 0.9 -5.6 1.3 -32.5 3.1 -33.3 2.3z"/>
  <path d="M1067.2 1459 c-10.8 -4.9 -9.7 -18.8 3 -36.6 3 -4.1 7.8 -9.7 16.3 -18.8 1.7 -1.8 4.5 -5.1 6.3 -7.3 1.8 -2.3 4.4 -5.4 5.8 -7 1.4 -1.5 3.5 -4.1 4.7 -5.7 1.2 -1.6 3.3 -4.1 4.7 -5.7 1.4 -1.5 4.3 -4.9 6.5 -7.4 2.2 -2.6 7 -7.9 10.8 -11.8 3.7 -4 6.7 -7.5 6.7 -7.9 0 -0.3 1.5 -2.3 3.3 -4.2 7 -7.7 16.4 -20.1 17.2 -22.6 0.4 -1.1 1.1 -2 1.6 -2 0.5 0 0.9 -0.4 0.9 -1 0 -0.5 0.6 -1.8 1.4 -2.7 3.5 -4.3 8.5 -11.3 9.6 -13.4 0.7 -1.3 1.6 -2.6 2 -2.9 0.7 -0.5 2.7 -3.2 12.2 -17 2.8 -4.1 5.4 -7.7 5.7 -8 0.3 -0.3 2 -2.5 3.6 -5 1.7 -2.5 3.8 -5.4 4.8 -6.4 0.9 -1.1 1.7 -2.5 1.7 -3.2 0 -0.7 0.3 -1.4 0.8 -1.6 0.9 -0.4 9.4 -13.3 11.7 -17.8 1 -1.9 2.8 -4.9 4.1 -6.5 1.2 -1.7 2.7 -4.1 3.3 -5.5 1.2 -2.7 1.5 -3.3 7.3 -12.4 5.7 -8.8 5.6 -9 -6.5 -9.5 -5.6 -0.3 -16 -0.4 -23.2 -0.4 -33.3 0.3 -38.3 0.3 -42.9 -0.3 -2.7 -0.3 -6 -1 -7.3 -1.5 -1.3 -0.5 -2.3 -0.6 -2.3 -0.3 0 1 -7.1 -4.9 -8.1 -6.8 -0.8 -1.4 -0.5 -2.5 1 -4.7 l2 -2.8 34.3 -0.7 c18.9 -0.4 41.1 -1.1 49.3 -1.7 44 -2.7 44.4 -2.7 44.5 2.7 0 2.8 -6.8 18.4 -11.7 26.9 -2.2 3.9 -7 12.9 -10.6 20 -3.7 7.2 -9.6 17.5 -13.2 23 -3.6 5.5 -8.4 13.6 -10.6 18 -4.9 9.7 -25.4 40 -38.4 56.5 -2.8 3.6 -7.2 9.5 -9.8 13.1 -2.5 3.7 -11.2 14.7 -19.3 24.5 -8 9.9 -17 21.1 -20 25.1 -10.3 13.6 -35.3 37.7 -49 47.2 -2.9 2 -4.4 3.6 -3.6 3.9 1.6 0.5 12.1 -5 18 -9.5 2.4 -1.8 5.3 -3.8 6.4 -4.4 4.6 -2.5 -11.8 15.9 -17.2 19.2 -2.3 1.4 -11.6 4.9 -12.9 4.9 -0.3 0 -2.5 -0.9 -4.9 -2z"/>
  <path d="M845.7 1368.4 c-0.1 -0.1 -3 -0.5 -6.3 -0.8 -3.4 -0.3 -6.8 -0.8 -7.5 -1.1 -0.8 -0.2 -2.5 -0.7 -3.9 -0.9 -7.8 -1.6 -11.9 -3 -15.2 -5.1 -2.1 -1.4 -4 -2.5 -4.3 -2.5 -0.9 0 -6.3 -5.8 -7.7 -8.2 -4 -7.3 -5.1 -17.7 -2.6 -26.2 1.6 -5.6 7.8 -14.6 12.9 -18.7 3.8 -3.1 7.8 -6.4 13.8 -11.4 1.3 -1.1 3.1 -2.7 4 -3.5 0.9 -0.8 5 -3.5 9.1 -5.9 4.1 -2.4 9.8 -5.8 12.5 -7.6 12.2 -7.8 19 -11.6 34.5 -19.3 18.7 -9.2 20.3 -10.9 23.5 -23.2 0.9 -3.6 2.1 -8.2 2.6 -10.3 0.6 -2.2 0.8 -4.1 0.6 -4.3 -0.7 -0.8 -6.9 -1.9 -16.2 -3 -2.7 -0.3 -5.5 -0.7 -6.2 -0.9 -1.5 -0.5 -67.7 -2 -80.8 -1.9 -43.8 0.5 -82.4 1.8 -90 2.9 -1.6 0.2 -6.8 0.7 -11.5 1.1 -4.7 0.3 -10.3 1.3 -12.5 2.1 -2.2 0.8 -5.3 1.8 -7 2.2 -11.3 3 -27.2 9.8 -37.5 16 -1.9 1.1 -4.2 2.4 -5 2.8 -0.8 0.4 -4.3 2.6 -7.7 5 -3.5 2.4 -6.6 4.3 -6.9 4.3 -0.3 0 -2.5 1.3 -4.9 2.9 -2.3 1.6 -7.3 4.6 -11.1 6.7 -6.7 3.7 -24.4 15.1 -25.4 16.3 -0.3 0.3 -1.2 1.1 -2.1 1.6 -7.7 4.8 -34.8 24.4 -38.4 27.8 -2 1.9 -4.8 4.1 -6.3 4.8 -1.5 0.8 -2.9 1.7 -3.2 2 -1.3 1.6 -4.9 2.8 -5.5 1.9 -0.8 -1.4 -0.8 -1.5 12.9 -18.5 19.9 -24.6 48.2 -52.5 70 -68.9 15.6 -11.7 45.4 -28.8 64.7 -36.9 14.1 -6 21.3 -6.8 63.9 -7.3 19 -0.1 49.4 -0.8 67.5 -1.4 40.4 -1.3 70.3 -1.6 94 -1.1 l18 0.5 3.9 4 c2.2 2.3 5.5 7.5 7.5 11.6 3.1 6.5 3.6 8.6 3.9 16.8 0.4 8.2 0.1 10.4 -2.3 17.9 -3 9.2 -10.2 22 -16.1 28.6 -12.3 13.9 -29.4 22.4 -64.3 32.1 -14.2 4 -24.1 9.6 -33.8 19.1 -12 11.8 -14.8 19.7 -10.3 29.1 5.5 11.3 20.7 19.9 43.4 24.4 7.5 1.5 6.2 3.1 -3.4 3.9 -3.9 0.4 -7.2 0.6 -7.3 0.5z"/>
  <path d="M1062.8 1189.3 c-1 -0.2 -1.8 -1.1 -1.8 -1.9 0 -1.1 1.5 -1.4 6 -1.4 5.3 0 6 0.2 6 2 0 1.7 -0.6 2 -4.2 1.9 -2.4 -0.1 -5.1 -0.3 -6 -0.6z"/>
  <path d="M1294 1188 c0 -1.7 0.7 -2 4 -2 4.5 0 5.7 2.3 1.8 3.4 -4.2 1.1 -5.8 0.7 -5.8 -1.4z"/>
  <path d="M1021.8 1187.3 c-1 -0.2 -1.8 -1.1 -1.8 -1.9 0 -1.1 1.7 -1.4 7.5 -1.4 5.7 0 7.5 0.3 7.5 1.4 0 2.2 -7.8 3.3 -13.2 1.9z"/>
  <path d="M1345 1154.2 c0 -3.6 0.3 -4.1 3.1 -5.1 1.8 -0.6 5.4 -1.1 8 -1.1 4.9 0 4.9 0 4.9 3.3 0 1.7 -0.4 3.7 -0.8 4.3 -0.4 0.7 -4 1.5 -7.9 1.9 l-7.3 0.7 0 -4z"/>
  <path d="M1089.4 938 c-5.4 -2.7 -8.2 -6.7 -10.1 -14.7 -1.4 -5.4 -1.5 -7.7 -0.6 -12.9 1.5 -8.3 4.4 -12.8 10.7 -16.4 8.2 -4.8 16.9 -4 24.8 2.2 8.5 6.6 10.7 11.2 10.8 22.3 0 10.5 -2.5 15.9 -8.9 19.2 -6.1 3.2 -20.6 3.3 -26.7 0.3z"/>
  <path d="M1135.6 933.9 c-1.6 -1.2 -3.5 -3.7 -4.2 -5.5 -1.7 -4.1 -1.7 -16.6 0 -21.4 1.6 -4.3 6.8 -8 11.3 -8 3.9 0 10.3 2.4 10.3 3.9 0 0.6 1.6 1.1 3.6 1.1 5.5 0 10.8 1.9 15 5.4 3.5 2.8 4.3 3 10 2.7 5.8 -0.3 6.4 -0.1 7.9 2.3 3.5 5.3 0.5 13.6 -6.6 18.4 -3.1 2.2 -4.4 2.4 -14.9 2.2 -6.3 0 -15.6 0.2 -20.5 0.6 -8.3 0.5 -9.2 0.4 -11.9 -1.7z"/>
  <path d="M1251.4 927.5 c-2.8 -0.8 -7.2 -2.5 -9.8 -3.9 l-4.7 -2.5 -8.4 3 c-14 4.8 -25.2 3.2 -29.1 -4.3 -2.1 -4 -3 -17.1 -1.5 -21.1 2.4 -6.1 14.4 -7.5 19.7 -2.2 l2.3 2.3 6.8 -2 c9.5 -2.7 19.6 -2.1 28.3 1.7 3.6 1.6 8.3 2.9 10.5 2.9 2.2 0 9.6 -1.8 16.5 -3.9 12 -3.8 13 -4 25 -3.8 6.9 0.1 22.6 0.1 35 0.2 18.3 0 27.7 0.6 50 3.1 41.7 4.6 52.2 6.6 54 10 1.1 2.1 1.3 8.2 0.4 12.9 -0.9 4.3 -4.1 5.7 -14.4 6.4 -10.2 0.7 -37.9 -0.7 -58.5 -2.9 -8.2 -0.9 -22.4 -1.6 -31.5 -1.5 -9.1 0 -21.1 -0.6 -26.7 -1.3 -11.5 -1.5 -14.4 -1.2 -27.9 3.3 -15.3 5.1 -26.4 6.2 -36 3.6z"/>
  <path d="M1092.5 820.1 c-12.2 -3 -18.7 -17.7 -14.3 -32.5 2.3 -7.6 12.8 -15.6 20.6 -15.6 6.9 0 9.8 1.7 15.1 8.9 6.1 8.2 7.1 10.7 7.1 17.9 0 8.4 -1.5 12.5 -5.9 16.5 -5.7 5.2 -13.9 6.9 -22.6 4.8z"/>
  <path d="M960 809.1 c-23.3 -10.4 -49.4 -22.8 -72 -34.1 -10.2 -5.1 -30.4 -15 -45 -22 -14.6 -7 -40.2 -19.4 -57 -27.4 -29.8 -14.4 -35 -17.6 -35 -21.7 0 -1 -0.4 -1.9 -1 -1.9 -0.5 0 -1 -1.5 -1 -3.4 0 -2.5 0.5 -3.5 2 -3.9 1.1 -0.3 2.2 -1.1 2.4 -1.9 0.2 -0.7 0.9 -3.1 1.5 -5.3 1 -4 10.6 -15.5 12.8 -15.5 0.6 0 1.3 -0.7 1.7 -1.5 0.3 -0.8 1 -1.5 1.6 -1.5 0.6 0 2.5 -1.3 4.3 -3 1.8 -1.6 4.7 -3.7 6.5 -4.5 1.7 -0.9 3.2 -2 3.2 -2.4 0 -0.5 1.2 -1.4 2.8 -2 1.5 -0.7 4.7 -3 7.2 -5.2 2.5 -2.2 6.2 -4.9 8.3 -6 2 -1.1 3.7 -2.3 3.7 -2.8 0 -0.5 1.5 -1.6 3.3 -2.4 1.7 -0.9 5.6 -3.4 8.6 -5.6 3 -2.2 6.2 -4.3 7.3 -4.6 1 -0.4 1.8 -1 1.8 -1.5 0 -0.5 1 -1.2 2.2 -1.6 1.3 -0.4 4.6 -2.4 7.5 -4.5 2.9 -2.2 5.7 -3.9 6.3 -3.9 0.5 0 1 -0.4 1 -1 0 -0.5 0.7 -1 1.5 -1 0.8 0 1.5 -0.3 1.5 -0.8 0 -0.7 3 -2.5 6.3 -3.8 0.9 -0.3 1.7 -1 1.7 -1.5 0 -0.5 0.5 -0.9 1.1 -0.9 0.6 0 3.3 -1.6 5.9 -3.5 2.6 -1.9 5.3 -3.5 5.9 -3.5 0.6 0 1.1 -0.4 1.1 -1 0 -0.5 0.7 -1 1.5 -1 0.8 0 1.5 -0.4 1.5 -1 0 -0.5 0.7 -1 1.5 -1 0.8 0 1.5 -0.3 1.5 -0.7 0 -0.5 1.8 -1.7 4 -2.7 2.2 -1.1 4 -2.3 4 -2.7 0 -0.4 1.1 -1 2.5 -1.3 1.4 -0.4 2.5 -1.1 2.5 -1.6 0 -0.6 0.6 -1 1.4 -1 0.8 0 2.1 -0.6 2.8 -1.3 0.7 -0.7 2 -1.6 2.8 -2 0.8 -0.4 3.3 -1.8 5.5 -3.2 2.2 -1.4 5.2 -3 6.8 -3.6 1.5 -0.6 2.7 -1.5 2.7 -2 0 -0.5 0.6 -0.9 1.4 -0.9 0.8 0 2.1 -0.6 2.8 -1.3 0.7 -0.7 3.2 -2.1 5.6 -3.1 2.3 -1.1 4.2 -2.3 4.2 -2.7 0 -0.5 1.2 -1.2 2.8 -1.5 1.5 -0.4 4.1 -1.7 5.9 -3 1.7 -1.3 4.2 -2.9 5.5 -3.4 2.5 -1.2 4.9 -2.6 8.8 -5.2 1.5 -1 5.6 -2 9.6 -2.4 6.4 -0.6 7.4 -0.4 11 1.9 7.1 4.6 16.8 15.8 22.4 26.2 15.6 28.4 23.5 53.1 29.2 90 2 13.3 2.3 18.6 2.2 46.5 0 35.6 -0.6 40.1 -8.5 63.9 -5.1 15.6 -7.8 21 -13.7 27.4 -5.7 6 -9.3 7.7 -16.9 7.7 -5.1 0 -8 -1 -23.3 -7.9z"/>
  <path d="M1144.8 812.3 c-7 -1.1 -10.2 -8.5 -10.3 -23.4 0 -8.1 0.3 -10 1.9 -11.8 2.4 -2.7 7.6 -3.6 12.8 -2.3 3.6 0.9 4.7 0.8 7.4 -0.9 6.1 -3.7 17.8 -2 22 3.4 1.9 2.3 2.8 2.5 12 3 5.4 0.3 11.8 1.1 14.2 1.8 3.5 1.1 4.9 1.1 8.5 0 2.3 -0.8 6.1 -1.4 8.5 -1.5 2.3 0 4.2 -0.4 4.2 -0.8 0 -2.2 4.7 -4.8 8.6 -4.8 5.4 0 8.7 1.2 13.5 5.1 2.1 1.6 6 3.6 8.7 4.3 l5 1.3 0.6 -3.8 c0.8 -5.3 4.5 -7.9 10.9 -7.9 2.9 0 6.8 0.8 9.1 1.9 3.1 1.5 7.3 2 17.6 2.4 7.5 0.3 15.5 1.2 18 2 3.5 1.1 8.2 1.4 20 1 12.3 -0.4 20.6 0 40.3 2.1 13.7 1.5 25.8 3.1 26.8 3.7 1.7 0.9 1.9 1.9 1.7 7.2 -0.5 9.3 0 9.2 -35.8 9.2 -19.1 -0.1 -32.2 -0.5 -37.2 -1.3 -5.8 -1 -8.7 -1 -11.9 -0.2 -2.3 0.6 -14.4 1.3 -26.8 1.6 -25.5 0.5 -27.7 0 -31.3 -6.7 -1.4 -2.7 -1.8 -3 -1.8 -1.2 0 1.2 -1.4 3.3 -3.1 4.7 -2.7 2.3 -4 2.6 -10.2 2.6 -8 0 -13.5 -2.1 -18.1 -6.9 l-2.7 -2.9 -2.7 2.5 c-4 3.7 -8.8 5.9 -17.6 7.8 -10.7 2.4 -17.9 1.6 -27.5 -3.1 l-7.4 -3.7 -2.1 2.9 c-7.7 11 -14.6 14.4 -25.8 12.7z"/>
  <path d="M1086 701.9 c-7.9 -3.1 -14 -14.2 -14 -25.3 0 -17.3 10.2 -25.5 26.4 -21.2 12.3 3.4 18.6 9.3 20.7 19.6 2.3 11.1 -2.1 21.4 -11.2 26.1 -4.2 2.1 -17.3 2.6 -21.9 0.8z"/>
  <path d="M1142.3 697.5 c-2.8 -1.9 -10.1 -13.7 -15 -24 -3 -6.3 -3.7 -9.1 -3.8 -13.8 0 -5.2 0.3 -6.1 2.8 -8.3 3 -2.6 6.6 -3 11.4 -1.4 3.2 1.2 4.8 3.6 5.8 9.4 0.6 3.2 2.5 5.2 2.5 2.6 0 -0.5 1.8 -2.2 4 -3.6 3.6 -2.4 4.7 -2.6 10.4 -2.2 3.5 0.3 7.5 1.3 8.7 2.2 1.7 1.1 4.6 1.6 10 1.6 8.9 0 11.5 1.3 21.7 11.3 3.9 3.9 7.6 6.5 10 7.2 3.7 1 3.7 1.1 4 6.7 0.3 5.2 0.1 5.8 -2.2 7.4 -2 1.2 -4.2 1.5 -9.3 1.2 -7.4 -0.4 -11 -2.3 -22.3 -11.7 -5.4 -4.5 -5.6 -4.6 -11.7 -4.3 l-6.2 0.3 -2.1 4.4 c-1.2 2.5 -3.3 5.3 -4.6 6.4 -1.5 1.2 -2.4 2.9 -2.4 4.8 0 1.6 -0.5 3.4 -1.2 4.1 -1.7 1.7 -7.9 1.5 -10.5 -0.3z"/>
  <path d="M1251.6 684.5 c-1.6 -0.9 -5.5 -1.5 -9.3 -1.5 -7.8 0 -12 -1.9 -13.9 -6.5 -1.7 -4.2 -1.8 -13.4 -0.2 -17 1.7 -3.9 7 -6.7 12 -6.4 2.4 0.1 5.7 -0.4 7.3 -1.1 1.8 -0.7 5.2 -1 8.4 -0.7 6 0.6 9.5 3.1 11.7 8.4 l1.4 3.1 5.2 -2 c7 -2.7 19 -2.2 26.3 1.1 l5 2.3 20.5 -1.8 20.5 -1.7 16 2.7 c19.6 3.3 25.6 4.6 27.3 5.9 0.7 0.5 1.2 3.2 1.2 6.3 0 8.3 -0.9 8.7 -24.3 8.8 -17.3 0.1 -20 -0.1 -27 -2.2 -8.5 -2.5 -13.3 -2.5 -29.1 0.4 -9.4 1.7 -15.8 1.8 -24.3 0.3 -5.7 -1 -6.9 -0.9 -11.3 1 -6 2.6 -18.9 2.9 -23.4 0.6z"/>
  <path d="M1083.2 565.9 c-5.1 -2.5 -9.9 -8.1 -11.2 -12.9 -1.5 -5.4 -1.2 -16.6 0.5 -20.8 2 -4.7 4.9 -7.7 10.3 -10.9 3.7 -2.2 5.2 -2.5 11.7 -2.1 6.7 0.3 7.9 0.7 13.1 4.3 3.2 2.2 7.2 6 8.9 8.3 2.7 4 3 5.1 3 12.5 0 9.9 -2.5 15.4 -9.3 20.2 -4 2.7 -5.2 3 -13.5 3.3 -7.8 0.3 -9.8 0 -13.5 -1.9z"/>
  <path d="M1151 559.9 c0 -0.6 -1.3 -2.7 -3 -4.6 -1.6 -1.8 -3 -4.1 -3 -4.9 0 -0.9 -2.3 -4.8 -5.1 -8.8 -5.4 -7.8 -6.9 -13 -5 -17.8 1 -2.6 1.4 -2.8 7.1 -2.8 5.9 0 6 0.1 9.1 4.3 1.7 2.3 4 5.9 5 8 1.8 3.4 2.2 3.6 4.2 2.6 1.2 -0.7 3.8 -2.5 5.8 -4.1 3.4 -2.8 3.5 -3.1 3.1 -8.3 -0.4 -4.8 -0.2 -5.6 2.3 -8 2.3 -2.4 3.2 -2.7 7.7 -2.3 3 0.3 5.7 1.3 6.8 2.4 1.1 1.1 3.2 5.9 4.9 10.9 1.6 5 4 11.3 5.3 14 2.1 4.6 2.3 4.8 2.6 2.3 0.4 -3.1 1.1 -3.8 7.2 -6.3 2.5 -1.1 6.1 -3.2 8.1 -4.7 2.2 -1.7 4.9 -2.8 6.8 -2.8 2.8 0 3.1 -0.3 3.1 -3.3 0 -4.6 1.5 -5.7 8 -5.7 6.5 0 7 0.4 12.1 9.6 l3.4 6.2 4.3 -3 c7.2 -5 15.4 -7.8 22.5 -7.8 3.6 0 6.8 0.5 7.5 1.2 0.9 0.9 1.2 0.5 1.2 -1.9 0 -4.9 2.8 -7.5 8.6 -8 6.6 -0.6 11.2 1.9 14.3 7.5 l2.3 4.4 3.2 -3.1 c2.2 -2.2 4.2 -3.1 6.4 -3.1 2.7 0 3.4 -0.5 4.6 -3.4 1.2 -2.8 2.2 -3.6 5.1 -4.2 2 -0.4 5.4 -0.2 7.4 0.5 4.2 1.2 6.1 4.1 8.6 13.2 l1.5 5.7 3.7 -1.4 c5.1 -1.8 10.8 -1.7 17.2 0.2 4.8 1.4 5.7 1.4 9.9 0 7.7 -2.7 28.5 -1.4 31.2 1.9 0.6 0.8 1 3.3 0.8 5.6 l-0.3 4.3 -7 1.9 c-3.9 1.1 -11.3 2.1 -16.7 2.3 -8.3 0.3 -10.2 0.7 -12.9 2.6 -4.1 3 -16.5 3.8 -22.3 1.4 -2.1 -0.9 -6 -1.6 -8.6 -1.6 -5.7 0 -9.2 -2.5 -13.7 -9.5 -1.5 -2.5 -3.1 -4.5 -3.4 -4.5 -0.4 0 -2.3 3.3 -4.4 7.3 -5.5 10.6 -5.7 10.7 -13.6 10.7 -7.6 0 -7.6 0.1 -15.9 -12.3 -4.5 -6.7 -6 -8 -6 -5.2 0 0.8 -1.2 2.2 -2.7 3.2 -1.6 1 -5.9 4.1 -9.8 6.9 -9.4 6.9 -9.8 7.1 -19.1 7.9 l-8.1 0.7 -6.5 -8.4 c-3.6 -4.5 -7.5 -9.2 -8.7 -10.2 -1.9 -1.7 -2.1 -1.7 -2.1 -0.2 0 2.7 -2.9 6.4 -8.8 11.2 -4.7 3.8 -6 4.4 -10.2 4.4 -3.1 0 -5.4 -0.6 -6.4 -1.6 -1.5 -1.4 -1.6 -1.3 -1.6 1 0 3 -3.1 4.2 -8.3 3.2 -3.7 -0.7 -5.9 -2.8 -10.2 -9.3 l-2.7 -4.1 -3.7 3.6 c-2 2 -5.3 4.8 -7.3 6.2 -2.1 1.4 -4 3.7 -4.5 5.5 -0.8 2.8 -1.2 3 -6.1 3.3 -3.5 0.2 -5.2 -0.1 -5.2 -0.9z"/>
 </g>
 <g fill="#abecfd">
  <path d="M1136 1192.5 c1.3 -1.4 2.5 -2.5 2.7 -2.5 0.2 0 0.3 1.1 0.3 2.5 0 2 -0.5 2.5 -2.7 2.5 l-2.6 0 2.3 -2.5z"/>
  <path d="M1167 1192.6 c0 -2.3 0.3 -2.4 9.4 -3.1 10.4 -0.8 13.6 -0.2 13.6 2.4 0 1.5 -1.1 1.9 -6.1 2.5 -3.4 0.3 -8.6 0.6 -11.5 0.6 -5 0 -5.4 -0.2 -5.4 -2.4z"/>
  <path d="M1193 1191.6 c0 -2.3 0.3 -2.3 11.3 -3 12.1 -0.8 14.7 -0.4 14.7 2.4 0 2.1 -5.2 3 -17.6 3 -8.2 0 -8.4 -0.1 -8.4 -2.4z"/>
  <path d="M1220 1190.7 c0 -2.8 0.3 -2.9 18.5 -4.2 9 -0.7 11.5 -0.1 11.5 2.5 0 2 -2.8 2.5 -19.3 3.6 l-10.7 0.7 0 -2.6z"/>
  <path d="M1068.7 1189.3 c-2.4 -0.6 -1.9 -4.7 0.6 -5.1 1.1 -0.2 3.4 -0.1 5.3 0.3 2.8 0.5 3.4 1 3.4 3 0 2.2 -0.4 2.5 -3.7 2.4 -2.1 -0.1 -4.6 -0.3 -5.6 -0.6z"/>
  <path d="M1290.2 1187.3 c0.7 -1.5 1.3 -3 1.4 -3.1 0.2 -0.2 1.7 -0.1 3.4 0.3 2.5 0.5 3.1 1.1 2.8 2.8 -0.2 1.8 -1.1 2.3 -4.6 2.5 l-4.2 0.3 1.2 -2.8z"/>
  <path d="M687 1187.3 c1.9 -0.9 6.7 -2.7 10.5 -4.1 6.8 -2.4 7.9 -2.5 39 -2.9 34.9 -0.4 38.5 -0.2 38.5 2.6 0 1.7 -1.4 1.9 -18.2 2.4 -10.1 0.3 -23.9 0.5 -30.8 0.5 -6.9 0 -18.3 0.7 -25.5 1.6 -16.1 2 -18.2 1.9 -13.5 -0.1z"/>
  <path d="M1053.6 1187.5 c-2.5 -1.9 -1.3 -4.5 2.1 -4.5 5.2 0 7.3 1.1 7.3 3.6 0 2.1 -0.5 2.4 -3.7 2.4 -2.1 0 -4.6 -0.7 -5.7 -1.5z"/>
  <path d="M1299 1186.6 c0 -2.3 0.4 -2.5 8.3 -3.1 4.5 -0.4 18.3 -0.4 30.6 -0.1 19.1 0.4 22.6 0.8 24.2 2.2 1.1 0.9 1.9 2 1.9 2.3 0 0.4 -14.6 0.8 -32.5 0.9 l-32.5 0.2 0 -2.4z"/>
  <path d="M1010.9 1185.2 c1.7 -3.1 3.4 -3.9 7.4 -3.5 3.1 0.4 3.7 0.9 3.7 2.9 0 2.3 -0.3 2.4 -6 2.4 -5.6 0 -6 -0.1 -5.1 -1.8z"/>
  <path d="M783 1182.6 c0 -2.1 0.5 -2.4 6.1 -3 12.5 -1.3 16.9 -0.7 16.9 2.4 0 1.9 -5.7 3 -16.7 3 -6 0 -6.3 -0.1 -6.3 -2.4z"/>
  <path d="M815 1181.6 c0 -2.1 0.5 -2.4 6.1 -3 7.8 -0.8 17.3 -0.8 19.3 0 0.9 0.3 1.6 1.4 1.6 2.4 0 1.4 -1.3 1.8 -8.2 2.3 -4.6 0.4 -10.7 0.7 -13.5 0.7 -4.9 0 -5.3 -0.2 -5.3 -2.4z"/>
  <path d="M908.3 1183.3 c-5.9 -0.4 -6.3 -0.5 -6.3 -2.8 l0 -2.5 11.3 0 c6.1 0 11.9 0.5 12.7 1 1.2 0.7 1.2 1 0.1 1 -0.7 0 -1.1 0.6 -0.8 1.4 1 2.6 -0.8 2.8 -17 1.9z"/>
  <path d="M852 1180.6 c0 -2.2 0.2 -2.3 13.4 -2.9 7.4 -0.4 16.2 -0.4 19.5 0 5.5 0.5 6.1 0.8 6.1 2.8 0 2.2 0 2.2 -19.5 2.3 l-19.5 0.1 0 -2.3z"/>
  <path d="M1118.5 1168.9 c-8.2 -0.4 -24.9 -1.2 -37 -1.9 -16.7 -0.8 -25.8 -0.8 -38 0.1 -16.1 1.1 -33.2 0.7 -89.5 -2.2 -23.5 -1.2 -80.4 -0.7 -115.5 1 -29 1.4 -102.3 1.5 -173.5 0.1 -28.9 -0.5 -70.5 -1 -92.5 -1.1 -36.3 0 -67.3 -1.2 -100.5 -3.9 -12.3 -1 -33.7 -5.5 -57 -12 -8 -2.2 -21.5 -5.8 -30 -7.9 -16.9 -4.3 -50.3 -14.7 -67 -20.9 -24 -9 -60.9 -27.7 -74.5 -37.9 -10.1 -7.6 -24.5 -21 -24.5 -22.8 0 -2.2 2.6 -2.5 15.4 -1.5 6.9 0.4 35.6 0.7 63.8 0.4 28.2 -0.2 76.5 -0.6 107.3 -0.8 50.8 -0.4 56 -0.6 57.1 -2.1 1.1 -1.5 5.6 -1.7 45.6 -2.2 108.3 -1.2 176.4 -0.9 198.8 0.9 35.1 2.8 74.5 3.1 210.5 1.7 142.8 -1.5 193.5 -1.5 231.5 0.4 30.1 1.4 123.2 1.3 163.5 -0.2 61.9 -2.3 81.7 -3.9 99.5 -7.7 10.5 -2.3 13.4 -2.5 33 -2.3 11.8 0.1 22.7 -0.1 24.2 -0.5 2.1 -0.6 2.7 -0.4 3 1.1 0.3 1.7 4.6 1.8 117.3 1.8 97.9 0 117.7 0.2 121.3 1.4 2.3 0.8 4.2 2 4.2 2.6 0 0.7 -1.7 2.5 -3.7 4.1 -2.1 1.5 -6.7 5.6 -10.3 9 -5.9 5.6 -22.5 18.1 -32.5 24.5 -12.6 8 -51.1 22.6 -79.2 29.9 -8.7 2.3 -22.1 5.9 -29.8 8 -21.9 6.1 -72.1 15.9 -94.5 18.5 -3 0.3 -13.8 1.7 -24 3 -10.2 1.3 -25 2.8 -33 3.5 -8 0.6 -23.3 1.8 -34 2.6 -10.7 0.8 -21.1 1.9 -23 2.4 -1.9 0.6 -10.2 1 -18.4 1 -27.6 0 -66.1 2.9 -81.1 6.1 -21.6 4.5 -27.3 4.9 -73.7 4.7 -24.4 0 -51 -0.5 -59.3 -0.9z m238.9 -16.4 c0.3 -1 -0.1 -1.5 -1.2 -1.5 -3.1 0 -6.2 1.2 -5.6 2.1 0.9 1.5 6.1 1 6.8 -0.6z"/>
  <path d="M749.4 700.4 c-1 -5.2 0.1 -15.9 3 -29.9 11.2 -54 17.6 -82.6 29.1 -130 8.2 -33.9 15.5 -71.4 15.5 -80.2 0 -6.7 0.3 -7.6 2.6 -9.8 4.5 -4.2 11.6 -4.4 33.4 -1.1 16.1 2.5 26.5 5.8 41.5 13.4 7.2 3.6 13.2 6.8 13.5 7.2 0.3 0.4 1.5 1 2.8 1.4 1.2 0.4 2.2 1.2 2.2 1.7 0 0.5 0.6 0.9 1.3 0.9 0.7 0 2.3 0.9 3.5 2 1.2 1.1 2.5 2 3 2 0.4 0 1.7 0.8 2.8 1.8 1 0.9 3.2 2.4 4.7 3.2 1.6 0.8 4 2.5 5.3 3.7 1.4 1.3 2.8 2.3 3.1 2.3 0.8 0 8.7 6.3 9.6 7.7 0.4 0.7 1.4 1.3 2 1.3 0.7 0 2 0.8 2.9 1.8 3.5 3.6 5.5 5.2 6.4 5.2 1.3 0 9.4 8.6 9.4 9.9 0 0.6 0.7 1.1 1.5 1.1 0.8 0 1.5 0.5 1.5 1 0 0.6 0.5 1.6 1 2.3 0.6 0.7 2.9 3.7 5.1 6.7 2.1 3 4.8 6.6 5.9 8 3.4 4.3 7 12.2 7 15.5 0 1.8 -0.5 4.6 -1.1 6.4 -1.1 3.1 -1.2 3.1 -3.5 1.6 -2.8 -1.8 -9.5 -1.2 -13.4 1.4 -4.4 2.8 -6.4 4 -8.8 5.1 -1.3 0.5 -3.8 2.1 -5.5 3.4 -1.8 1.3 -4.4 2.6 -5.9 3 -1.6 0.3 -2.8 1 -2.8 1.5 0 0.4 -1.9 1.6 -4.2 2.7 -2.4 1 -4.9 2.4 -5.6 3.1 -0.7 0.7 -2 1.3 -2.8 1.3 -0.8 0 -1.4 0.4 -1.4 0.9 0 0.5 -1.2 1.4 -2.7 2 -1.6 0.6 -4.6 2.2 -6.8 3.6 -2.2 1.4 -4.7 2.8 -5.5 3.2 -0.8 0.4 -2.1 1.3 -2.8 2 -0.7 0.7 -2 1.3 -2.8 1.3 -0.8 0 -1.4 0.4 -1.4 1 0 0.5 -1.1 1.2 -2.5 1.6 -1.4 0.3 -2.5 0.9 -2.5 1.3 0 0.4 -1.8 1.6 -4 2.7 -2.2 1 -4 2.2 -4 2.7 0 0.4 -0.7 0.7 -1.5 0.7 -0.8 0 -1.5 0.5 -1.5 1 0 0.6 -0.7 1 -1.5 1 -0.8 0 -1.5 0.5 -1.5 1 0 0.6 -0.5 1 -1.1 1 -0.6 0 -3.3 1.6 -5.9 3.5 -2.6 1.9 -5.3 3.5 -5.9 3.5 -0.6 0 -1.1 0.3 -1.1 0.8 0 0.7 -3 2.5 -6.2 3.8 -1 0.3 -1.8 1 -1.8 1.5 0 0.5 -0.7 0.9 -1.5 0.9 -0.8 0 -1.5 0.5 -1.5 1 0 0.6 -0.5 1 -1 1 -0.6 0 -3.4 1.7 -6.3 3.9 -2.9 2.1 -6.2 4.1 -7.5 4.5 -1.2 0.4 -2.2 1.1 -2.2 1.6 0 0.5 -0.8 1.1 -1.8 1.5 -1.1 0.3 -4.3 2.4 -7.3 4.6 -3 2.2 -6.9 4.7 -8.6 5.6 -1.8 0.8 -3.3 1.9 -3.3 2.4 0 0.5 -1.7 1.7 -3.7 2.8 -2.1 1.1 -5.8 3.8 -8.3 6 -2.5 2.2 -5.7 4.5 -7.2 5.2 -1.6 0.6 -2.8 1.5 -2.8 2 0 0.4 -1.5 1.5 -3.2 2.4 -1.8 0.8 -4.6 2.8 -6.3 4.3 -1.6 1.5 -3.8 3.1 -4.7 3.5 -1 0.3 -1.8 1.1 -1.8 1.7 0 0.5 -0.5 1 -1.2 1 -1.7 0 -10.9 10.1 -12.4 13.7 -0.8 1.8 -1.4 4.1 -1.4 5.1 0 1.1 -0.7 2.5 -1.6 3.3 -1 0.8 -1.4 2.3 -1.2 4.1 0.4 2.4 0.1 2.8 -1.8 2.8 -1.9 0 -2.4 -0.7 -3 -3.6z"/>
  <path d="M1343 548.5 c0 -0.3 0.8 -1.4 1.8 -2.5 1.7 -1.8 1.7 -1.8 2.9 0.6 1 2.2 0.9 2.4 -1.8 2.4 -1.6 0 -2.9 -0.2 -2.9 -0.5z"/>
  <path d="M1343.6 540.3 c-0.3 -1 -1 -2.8 -1.6 -4 -0.8 -2 -0.6 -2.3 1.4 -2.3 1.7 0 2.5 0.7 2.8 2.3 0.5 2.8 -0.1 5.7 -1.2 5.7 -0.4 0 -1 -0.8 -1.4 -1.7z"/>
  <path d="M602 413 c-23.3 -1.3 -51.3 -5.2 -68.1 -9.5 -20.6 -5.3 -30.9 -16.4 -33.1 -35.9 -2.2 -18.1 1.8 -31.7 12.7 -43.4 7 -7.5 11.3 -10.2 24.2 -14.9 8.6 -3.2 11.3 -3.6 21.7 -4.1 12.5 -0.5 19.7 0.5 27.1 3.8 3.2 1.4 7.9 1.9 23 2.5 10.5 0.3 30 1 43.5 1.5 13.5 0.5 35.3 0.9 48.5 1 25 0 118.7 -2.2 167 -4 15.4 -0.6 54.1 -1.5 86 -2 31.9 -0.5 78.3 -1.4 103 -2 83.1 -1.9 231.5 -3.1 246.3 -2 24.6 1.9 45.3 4.6 80.2 10.6 23.9 4.1 37.7 20.5 35.6 42.3 -0.8 7.7 -5 17.3 -9.9 22.1 -10.1 10.1 -31.7 20.2 -49 23 -25.3 3.9 -91.9 6 -198.7 6 -55.2 0 -101.8 0.5 -117.5 1.2 -16.4 0.7 -52.7 1.1 -98 0.9 -164 -0.7 -197.6 -0.5 -224.5 1.3 -29.1 2 -96.3 2.9 -120 1.6z"/>
 </g>
 <g fill="#93dcf0">
  <path d="M1136 1193.7 c0 -0.7 2.5 -4.3 5.5 -8 3 -3.6 5.5 -6.9 5.5 -7.2 0 -0.3 -16.4 -0.5 -36.5 -0.5 -23.9 0 -36.5 0.3 -36.5 1 0 0.6 1.4 2.9 3 5.2 3.6 5 3.7 5.8 0.5 5.8 -1.4 0 -2.5 -0.4 -2.5 -0.9 0 -1.2 -3.9 -2.1 -4.6 -1 -0.7 1.2 -10.4 1.2 -10.4 0 0 -1.2 -3.9 -2.1 -4.6 -1 -0.3 0.5 -1.9 0.2 -3.6 -0.7 -2.2 -1.2 -4.6 -1.4 -9.2 -1 -16.2 1.6 -23.6 1.8 -23.6 0.7 0 -0.6 -1.3 -1.1 -2.8 -1.1 -3.8 0 -4.4 -0.8 -2.5 -3.6 l1.5 -2.4 -21.8 0 c-39 0 -68.6 1.1 -68 2.6 0.4 1 -0.1 1.1 -2 0.4 -3.5 -1.4 -8.8 -1.2 -10.2 0.2 -1 1 -1.7 1 -3.2 0 -2.4 -1.5 -5 -1.6 -5 -0.2 0 1.5 -16.7 1.3 -17.2 -0.2 -0.6 -1.6 -32.1 -1.4 -32.6 0.2 -0.5 1.4 -14.5 1.3 -17.7 -0.2 -2.1 -0.9 -2.8 -0.9 -3.4 0 -0.5 0.9 -1.5 1 -3.2 0.4 -2.9 -1.1 -12.9 -0.3 -12.9 1 0 0.6 -3.3 0.7 -8.2 0.3 -12.4 -0.9 -23.1 -0.6 -23.9 0.6 -0.4 0.8 -3.2 0.9 -8.5 0.4 -4.4 -0.3 -20.2 -0.7 -35.2 -0.8 -22.8 -0.2 -27.4 0 -28.2 1.2 -0.7 1.2 -1.3 1.3 -3.5 0.3 -3.4 -1.6 -4 -1.5 -5.9 0.3 -1.2 1.2 -2 1.3 -3.5 0.5 -2.6 -1.4 -3.7 -1.3 -5.5 0.5 -1.4 1.4 -4.6 1.1 -4.6 -0.4 0 -0.5 1.8 -1.3 4 -2 2.1 -0.6 4.2 -1.6 4.6 -2.3 0.5 -0.7 -6.4 -0.9 -24.7 -0.4 -14 0.3 -82.3 0.8 -151.9 1.1 -69.6 0.3 -146.7 1 -171.5 1.6 -51 1 -58.4 0.6 -68.1 -4.1 -8 -3.9 -16.7 -13.1 -30.4 -32 -15.7 -21.7 -25 -33 -32.5 -39.6 -14 -12.1 -16.2 -14.5 -19 -19.5 -7.1 -13.2 -0.4 -27.5 14.3 -30.4 l5.7 -1.2 8.2 7.8 c4.6 4.2 12.1 10.6 16.8 14.1 13.6 10.3 50.4 29 74.5 38 16.7 6.2 50.1 16.6 67 20.9 8.5 2.1 22 5.7 30 7.9 23.3 6.5 44.7 11 57 12 31 2.5 64.1 3.8 100 3.9 21.7 0.1 63.4 0.6 92.5 1.1 73.2 1.4 138.2 1.3 168.5 -0.2 34.8 -1.7 114.8 -1.7 142 0.1 11.9 0.8 32.2 1.3 45.5 1.1 37.4 -0.5 64.8 -0.1 79.5 1 7.4 0.6 35.9 1.4 63.3 1.7 52.8 0.6 57 0.4 79.7 -4.2 17.7 -3.6 50.8 -6.2 85.5 -6.7 7.7 -0.1 15.4 -0.5 17 -1 1.7 -0.4 11.8 -1.4 22.5 -2.2 10.7 -0.8 26 -2 34 -2.6 8 -0.7 22.8 -2.2 33 -3.5 10.2 -1.3 21 -2.7 24 -3 22.4 -2.6 72.6 -12.4 94.5 -18.5 7.7 -2.1 21.1 -5.7 29.8 -8 28.1 -7.3 66.6 -21.9 79.2 -29.9 10.3 -6.7 26.8 -19.2 34.2 -26.1 10.6 -9.9 12.3 -10.8 17.1 -9.1 15.9 5.7 23.9 24.4 16.6 38.9 -3.3 6.7 -7.3 10 -23.1 19.4 -10.9 6.5 -14.3 9.2 -22.8 18 -5.5 5.6 -13.3 14.7 -17.4 20.1 -5 6.6 -9.4 11.2 -13.6 14.2 -7.2 5.2 -11.4 6.9 -24 9.7 -8.7 2 -13.7 2.1 -144.5 3 -74.5 0.6 -135.7 1.3 -136 1.5 -0.3 0.3 0.4 1 1.4 1.7 1.1 0.6 3.4 2.4 5.3 4 3.9 3.3 3.1 4.6 -2.9 4.6 -2.1 0 -3.8 0.5 -3.8 1 0 0.6 -1.1 1 -2.5 1 -1.4 0 -2.5 -0.4 -2.5 -0.9 0 -1.4 -19.2 -2.4 -20 -1.1 -0.6 1 -1.6 1 -4.5 0 -4 -1.3 -20.5 -0.5 -20.5 1 0 1.1 -6.4 1.9 -7.1 0.8 -0.3 -0.5 -1.5 -1 -2.6 -1.1 -2 -0.1 -2 -0.3 -0.7 -4.1 0.8 -2.1 1.9 -4.5 2.5 -5.3 1 -1.1 -2.1 -1.3 -17.5 -1.3 -10.2 0 -18.6 0.3 -18.6 0.8 0 0.4 1.4 3.4 3.1 6.7 l3 6 -8 0.3 c-4.5 0.1 -8.9 -0.2 -9.9 -0.7 -2 -1.1 -6.3 -0.4 -7.4 1.2 -0.4 0.7 -1.7 0.6 -3.6 -0.2 -3.3 -1.4 -12.2 -0.6 -12.2 1.1 0 0.6 -1.7 0.7 -4.2 0.3 -6.3 -0.9 -22.2 -0.5 -22.9 0.7 -0.4 0.6 -2.5 0.8 -5.5 0.3 -6.8 -0.9 -19.8 -0.6 -20.2 0.5 -0.2 0.6 -7.4 1 -17.3 1 -13.2 0 -16.9 -0.3 -16.9 -1.3z"/>
  <path d="M1185.8 1060.3 c-1 -0.2 -1.8 -1.1 -1.8 -1.9 0 -1.1 1.7 -1.4 8 -1.4 7.3 0 8 0.2 8 2 0 1.8 -0.6 2 -6.2 1.9 -3.5 -0.1 -7.1 -0.3 -8 -0.6z"/>
  <path d="M1234 1059 c0 -1.9 0.7 -2 11 -2 8.7 0 11 0.3 11 1.4 0 1.9 -3.2 2.6 -13.2 2.6 -8.1 0 -8.8 -0.2 -8.8 -2z"/>
  <path d="M747.8 1059.3 c-1 -0.2 -1.8 -1.1 -1.8 -1.9 0 -1.1 2.2 -1.4 11.5 -1.4 10.8 0 11.5 0.1 11.5 2 0 1.9 -0.6 2 -9.7 1.9 -5.4 -0.1 -10.6 -0.3 -11.5 -0.6z"/>
  <path d="M791 1058 c0 -2 0.7 -2 37.5 -2 31.3 0 37.5 0.2 37.5 1.4 0 0.7 -1 1.6 -2.2 2 -1.3 0.3 -18.2 0.6 -37.5 0.6 -34.6 0 -35.3 0 -35.3 -2z"/>
  <path d="M1155.8 1059.3 c-1 -0.2 -1.8 -1.1 -1.8 -1.9 0 -1.1 2.1 -1.4 10.5 -1.4 9.8 0 10.5 0.1 10.5 2 0 1.9 -0.6 2 -8.7 1.9 -4.9 -0.1 -9.6 -0.3 -10.5 -0.6z"/>
  <path d="M1283 1058 c0 -1.9 0.7 -2 11 -2 8.7 0 11 0.3 11 1.4 0 1.9 -3.2 2.6 -13.2 2.6 -8.1 0 -8.8 -0.2 -8.8 -2z"/>
  <path d="M718.8 1058.3 c-1 -0.2 -1.8 -1.1 -1.8 -1.9 0 -1.1 1.7 -1.4 7.5 -1.4 6.8 0 7.5 0.2 7.5 2 0 1.8 -0.6 2 -5.7 1.9 -3.2 -0.1 -6.6 -0.3 -7.5 -0.6z"/>
  <path d="M886 1057 c0 -2 0.7 -2 53.5 -2 44.9 0 53.5 0.2 53.5 1.4 0 0.7 -1 1.6 -2.2 2 -1.3 0.3 -25.4 0.6 -53.5 0.6 -50.6 0 -51.3 0 -51.3 -2z"/>
  <path d="M1132.8 1058.3 c-1 -0.2 -1.8 -1.1 -1.8 -1.9 0 -1.1 1.9 -1.4 9.5 -1.4 8.8 0 9.5 0.1 9.5 2 0 1.8 -0.6 2 -7.7 1.9 -4.3 -0.1 -8.6 -0.3 -9.5 -0.6z"/>
  <path d="M1322 1057 c0 -1.8 0.7 -2 8 -2 6.1 0 8 0.3 8 1.4 0 1.8 -3.1 2.6 -10.2 2.6 -5.1 0 -5.8 -0.2 -5.8 -2z"/>
  <path d="M703.8 1057.3 c-1 -0.2 -1.8 -1.1 -1.8 -1.9 0 -1.1 1.6 -1.4 7 -1.4 6.3 0 7 0.2 7 2 0 1.8 -0.6 2 -5.2 1.9 -2.9 -0.1 -6.1 -0.3 -7 -0.6z"/>
  <path d="M1001 1056 c0 -1.9 0.7 -2 26 -2 21.5 0 26 0.2 26 1.4 0 2.3 -3.4 2.6 -28.2 2.6 -23.1 0 -23.8 -0.1 -23.8 -2z"/>
  <path d="M1075.8 1057.3 c-1 -0.2 -1.8 -1.1 -1.8 -1.9 0 -1.1 2.4 -1.4 13 -1.4 12.3 0 13 0.1 13 2 0 1.9 -0.6 2 -11.2 1.9 -6.2 -0.1 -12.1 -0.3 -13 -0.6z"/>
  <path d="M1341 1056 c0 -1.8 0.7 -2 6.5 -2 4.9 0 6.5 0.3 6.5 1.4 0 1.7 -3.1 2.6 -8.7 2.6 -3.6 0 -4.3 -0.3 -4.3 -2z"/>
  <path d="M462.7 1055 c0.5 -1.8 1.4 -2 8.9 -2 6.5 0 8.4 0.3 8.4 1.4 0 1.8 -3.1 2.6 -11.2 2.6 -6.1 0 -6.6 -0.1 -6.1 -2z"/>
  <path d="M482.8 1056.3 c-1 -0.2 -1.8 -1.1 -1.8 -1.9 0 -1 1.3 -1.4 5 -1.4 4.3 0 5 0.3 5 2 0 1.6 -0.6 2 -3.2 1.9 -1.8 -0.1 -4.1 -0.3 -5 -0.6z"/>
  <path d="M503 1055 c0 -1.7 0.7 -2 5 -2 3.6 0 5 0.4 5 1.4 0 1.5 -3 2.6 -7.2 2.6 -2.1 0 -2.8 -0.5 -2.8 -2z"/>
  <path d="M688.8 1056.3 c-1 -0.2 -1.8 -1.1 -1.8 -1.9 0 -1.1 1.5 -1.4 6.5 -1.4 5.8 0 6.5 0.2 6.5 2 0 1.7 -0.6 2 -4.7 1.9 -2.7 -0.1 -5.6 -0.3 -6.5 -0.6z"/>
  <path d="M1358 1055 c0 -1.8 0.7 -2 8 -2 6.1 0 8 0.3 8 1.4 0 1.8 -3.1 2.6 -10.2 2.6 -5.1 0 -5.8 -0.2 -5.8 -2z"/>
  <path d="M568 1054 c0 -2.3 -1.2 -2.2 19.3 -2.4 14 -0.1 15.7 0 15.7 1.5 0 2.2 -5.6 2.9 -22.1 2.9 -12.2 0 -12.9 -0.1 -12.9 -2z"/>
  <path d="M669.8 1055.3 c-1 -0.2 -1.8 -1.1 -1.8 -1.9 0 -1.1 1.7 -1.4 8 -1.4 7.3 0 8 0.2 8 2 0 1.8 -0.6 2 -6.2 1.9 -3.5 -0.1 -7.1 -0.3 -8 -0.6z"/>
  <path d="M1380.2 1053.9 c0.3 -2.1 0.8 -2.4 5.3 -2.5 2.8 -0.1 5.7 -0.3 6.5 -0.6 2.2 -0.8 20.5 -3.7 28.3 -4.4 5.6 -0.6 6.7 -0.4 6.7 0.9 0 1 -2.1 2 -7.2 3.1 -10.9 2.5 -22.3 4.3 -31.6 5.1 l-8.4 0.7 0.4 -2.3z"/>
  <path d="M1444.8 1049.3 c-11.9 -0.3 -12.8 -0.5 -12.8 -2.3 0 -3 3.8 -3.4 17.9 -2.1 6.9 0.6 14.5 1.1 16.9 1.1 2.9 0 4.2 0.4 4.2 1.4 0 1.8 -3.3 2.6 -9 2.4 -2.5 -0.1 -10.2 -0.4 -17.2 -0.5z"/>
  <path d="M1085 780 c0 -2.3 0.5 -3.3 1.9 -3.7 1.1 -0.3 2.1 -1.3 2.4 -2.4 0.4 -1.5 1.4 -1.9 4.6 -1.9 5.1 0 5.5 2.2 0.9 4.6 -1.8 0.9 -4.8 2.8 -6.5 4.2 l-3.3 2.4 0 -3.2z"/>
  <path d="M959.4 537.5 c-0.4 -0.8 -1.1 -1.5 -1.8 -1.5 -0.6 0 -1.2 -0.9 -1.3 -2 -0.1 -1.5 0.4 -2 2.3 -2 2.1 0 2.4 0.5 2.4 3.5 0 3.7 -0.7 4.5 -1.6 2z"/>
  <path d="M951.5 527.2 c-1.1 -1 -2.1 -2.4 -2.3 -3.2 -0.2 -0.8 -0.8 -1.6 -1.3 -1.8 -0.5 -0.2 -0.9 -1 -0.9 -1.8 0 -0.8 -0.7 -1.4 -1.5 -1.4 -0.8 0 -1.5 -0.5 -1.5 -1.1 0 -1.4 -8.2 -9.9 -9.5 -9.9 -0.6 0 -1.8 -0.8 -2.7 -1.7 -3.7 -3.8 -5.5 -5.3 -6.6 -5.3 -0.6 0 -1.5 -0.6 -1.9 -1.3 -0.9 -1.4 -8.8 -7.7 -9.6 -7.7 -0.3 0 -1.7 -1 -3.1 -2.3 -1.3 -1.2 -3.7 -2.9 -5.3 -3.7 -1.5 -0.8 -3.7 -2.3 -4.7 -3.2 -1.1 -1 -2.6 -1.8 -3.3 -1.8 -0.7 0 -1.3 -0.4 -1.3 -0.8 0 -0.5 -1.2 -1.5 -2.7 -2.3 -1.6 -0.8 -3.4 -2 -4.1 -2.6 -0.7 -0.7 -2 -1.3 -2.8 -1.3 -0.8 0 -1.4 -0.4 -1.4 -0.8 0 -0.5 -1.8 -1.6 -4 -2.6 -5 -2.2 -5.1 -3.6 -0.4 -3.6 3.6 0 11.4 3.6 11.4 5.2 0 0.4 0.7 0.8 1.5 0.8 0.8 0 1.5 0.7 1.5 1.5 0 0.9 0.9 1.5 2.3 1.5 1.3 0 3.2 0.8 4.3 1.8 1 1 2.7 2.1 3.7 2.5 0.9 0.3 1.7 1.6 1.7 2.7 0 1.6 0.7 2 3 2 1.7 0 3 0.5 3 1 0 0.6 0.7 1 1.5 1 0.9 0 1.8 0.7 2.1 1.5 0.4 0.8 1.3 1.5 2 1.5 0.8 0 1.7 0.7 2 1.5 0.4 0.8 1.3 1.5 2 1.5 0.8 0 1.7 0.7 2 1.5 0.4 0.8 1.3 1.5 2 1.5 0.8 0 1.7 0.7 2 1.5 0.4 0.8 1.2 1.5 2 1.5 0.7 0 1.9 0.8 2.6 1.8 0.7 1 2.1 2.1 3.1 2.5 1 0.4 1.7 1.7 1.7 3.1 0 1.9 0.6 2.5 2.8 2.8 1.9 0.2 2.8 0.9 3 2.6 0.2 1.4 1 2.2 2.4 2.2 1.1 0 2.2 0.8 2.5 2 0.3 1.1 0.9 2 1.4 2 0.5 0 0.9 0.9 0.9 2 0 1.1 0.7 2 1.5 2 1 0 1.5 1.1 1.5 3.5 0 4 0.1 4 -2.5 1.7z"/>
  <path d="M864.3 462.3 c-4.4 -2.2 -4.3 -4.3 0.2 -4.3 3.2 0 3.5 0.2 3.5 3 0 1.7 -0.1 3 -0.2 2.9 -0.2 0 -1.8 -0.8 -3.5 -1.6z"/>
  <path d="M798 453.4 c0 -2.7 0.5 -3.7 2 -4.1 1.1 -0.3 2 -0.9 2 -1.4 0 -1.2 10.1 -1.1 23.5 0.2 20.3 1.9 19.5 1.7 19.5 4.5 0 2 -0.4 2.4 -2.2 1.9 -1.3 -0.2 -7.2 -1.2 -13.3 -2.1 -6 -0.9 -12.1 -1.8 -13.5 -2 -5.2 -0.8 -10.9 0.7 -13.9 3.7 -1.6 1.6 -3.2 2.9 -3.5 2.9 -0.3 0 -0.6 -1.6 -0.6 -3.6z"/>
  <path d="M613.5 415.4 c-23.1 -1.1 -41.1 -2.9 -56.5 -5.5 -29.7 -5 -38.6 -8.2 -47.6 -17.5 -6.3 -6.4 -9.1 -13.3 -10.5 -25.2 -1.9 -16.4 2.2 -32.3 10.3 -40.3 1.9 -1.9 3.8 -4.2 4.1 -5.2 0.4 -0.9 1.1 -1.7 1.7 -1.7 0.6 0 2.1 -1.1 3.3 -2.3 2.9 -3.1 12.5 -7.9 22.8 -11.3 7.6 -2.6 9.8 -2.8 21.9 -2.8 12.4 0 14 0.2 19.5 2.6 5.6 2.5 7.3 2.7 24.5 3.2 10.2 0.3 30.4 1 45 1.7 36.1 1.5 117.5 0.4 219.5 -3.1 16.5 -0.6 56.3 -1.5 88.5 -2 32.2 -0.6 77.2 -1.5 100 -2 45.1 -1.1 121.2 -2 196 -2.3 50.4 -0.2 66 0.7 92.5 5.4 6.1 1.1 16.2 2.6 22.5 3.5 22.9 3 30.7 5.9 39.6 14.8 6.2 6.3 8.8 11.1 10.4 19.4 2.5 12.5 -1 26.1 -8.8 34.4 -10.7 11.4 -29.3 20.5 -49.6 24.3 -22.9 4.2 -93.9 6.5 -203.8 6.5 -53.4 0 -100.1 0.4 -115.5 1.1 -34.4 1.6 -141.8 1.7 -181.8 0.2 -36.5 -1.3 -100.6 -0.3 -142 2.2 -23.5 1.5 -90.6 2.7 -106 1.9z m96 -6.3 c51.2 -3.5 128.8 -4.3 182 -2.1 31.4 1.4 110.6 0.8 151.5 -1 11.3 -0.5 62.6 -0.9 114 -1 108.9 0 175.4 -2.1 200.7 -6 17.2 -2.8 39 -12.9 48.8 -22.8 7.4 -7.3 11.5 -19.8 9.5 -28.8 -3.5 -15.8 -16.1 -26.6 -35 -29.8 -34.7 -6 -55.8 -8.7 -80.3 -10.6 -13.9 -1 -159.5 0.2 -240.2 2 -25.3 0.6 -72.1 1.5 -104 2 -31.9 0.5 -69.2 1.4 -83 2 -97.4 3.9 -209.2 4.8 -250.5 2 -7.4 -0.5 -18.5 -0.9 -24.6 -1 -8.6 0 -11.9 -0.4 -15 -1.9 -11.6 -5.5 -27.1 -5.4 -42.7 0.2 -12.9 4.7 -17.2 7.4 -24.2 14.9 -10.5 11.3 -14.6 24.4 -12.6 39.3 2.5 17.9 13.3 28.9 33 34 16.8 4.3 44.8 8.2 68.1 9.5 19 1 84 0.5 104.5 -0.9z"/>
 </g>
 <g fill="#ffec0e">
  <path d="M753 953.3 c-48 -2.9 -90.7 -17.3 -129.5 -43.4 -49.2 -33.2 -86.3 -86.4 -100.9 -144.5 -5 -20.1 -6.7 -33.3 -7.3 -55.9 -0.8 -29 1.6 -50.9 8.3 -75.1 11.6 -42.7 32.1 -78.1 62.7 -108.8 20.9 -20.9 39.9 -34.5 66.2 -47.2 13.5 -6.6 39.5 -16.4 43.6 -16.4 0.8 0 2.6 -1.1 3.9 -2.5 2.8 -3 8.1 -4.6 25 -7.7 10.9 -1.9 16 -2.2 40 -2.3 15.1 0 30.1 0.4 33.3 0.8 5.2 0.8 5.7 1 4 2.2 -1.4 1.1 -1.8 2.9 -2 9.7 -0.2 9.7 -7.4 46.9 -15.8 81.3 -9.8 40.1 -13.5 56.2 -20.1 87.5 -13.7 64.5 -13.8 65.2 -10.2 71.5 2.6 4.6 0.5 3.4 53.3 28.9 19.3 9.3 55 26.7 79.5 38.6 65 31.8 91.9 44 96.7 44 1.6 0 4.5 -0.9 6.6 -1.9 l3.7 -1.9 0 2.4 c0 3 -8.1 17.6 -17.1 30.9 -36.2 53.4 -91.5 90.9 -154 104.3 -18.6 4.1 -51.7 6.7 -69.9 5.5z"/>
  <path d="M982.1 575 c-5.1 -6.7 -13.2 -15 -16.3 -16.6 -2.6 -1.4 -2.7 -1.5 -1.2 -4.9 0.8 -2 1.2 -4 0.9 -4.5 -0.4 -0.6 0.5 -1 1.9 -1 2.1 0 3.7 1.8 9.6 10.7 3.8 5.8 7 11.2 7 11.9 0 0.7 0.5 1.4 1.1 1.6 0.6 0.2 0.9 1.9 0.7 3.8 l-0.3 3.4 -3.4 -4.4z"/>
 </g>
 <g fill="#00b0eb">
  <path d="M1169 1059.5 c-52.5 -2.3 -110.7 -2.7 -223 -1.5 -168.2 1.7 -203.5 1.6 -240.5 -0.9 -33.7 -2.2 -90.9 -2.6 -169.5 -1.1 -21.2 0.4 -46.3 0.5 -55.7 0.2 l-17.3 -0.5 0 -17.1 c0 -9.4 0.4 -53.5 1 -98.1 1.2 -96.2 3.6 -324.1 5 -478.5 1.1 -114.4 2.3 -164 4.1 -174.7 1.2 -7.1 3.5 -9.8 7.4 -9 1.9 0.3 3.3 -0.2 5 -1.9 1.2 -1.2 4 -2.6 6.1 -3 2.1 -0.4 29.1 -0.2 59.9 0.5 92.9 1.9 202.7 3.7 380.5 6.1 41.5 0.6 112.9 1.7 158.5 2.5 45.7 0.8 116.5 1.9 157.5 2.5 115.5 1.6 194.2 3 197.8 3.7 4.6 0.8 8.2 5.4 8.2 10.6 0 2.3 0.4 18.2 1 35.2 0.5 17.1 1.9 71 3 120 3.5 158 4 180.4 5 220 0.6 21.5 1.9 79.1 3 128 3.3 146.1 4 178.4 5 213 0.5 18.1 0.8 33.1 0.7 33.2 -0.6 0.6 -12.3 0.4 -20.2 -0.3 -9.8 -0.9 -10.8 -0.8 -23.5 0.6 -4.7 0.5 -10.9 1.1 -13.9 1.4 -2.9 0.3 -6 1.1 -6.7 1.7 -0.8 0.6 -2.1 0.8 -3 0.5 -0.9 -0.4 -2.3 -0.1 -3 0.5 -0.8 0.6 -2.4 0.9 -3.6 0.6 -1.2 -0.4 -2.8 -0.1 -3.5 0.5 -0.7 0.6 -3.3 0.8 -5.8 0.6 -2.5 -0.3 -4.8 -0.2 -5.1 0.3 -0.3 0.5 -3.6 0.9 -7.4 0.9 -3.8 0 -19 0.7 -33.7 1.5 -26.2 1.4 -114.9 3.6 -134.8 3.4 -5.5 -0.1 -22.8 -0.7 -38.5 -1.4z m-371 -111.1 c37.7 -4.5 72.9 -17.4 105.5 -38.6 32.9 -21.3 63.4 -54 81.6 -87.3 2.4 -4.4 7.1 -11 10.5 -14.6 7.5 -8 10 -12.7 15.3 -29 7.8 -23.3 8.5 -28.6 8.5 -60.9 0.1 -24.7 -0.2 -30.5 -2.2 -43.5 -3.2 -21.1 -6.7 -35.7 -12.4 -52.4 -4.3 -12.6 -7.1 -19.1 -15.4 -35.1 -2.8 -5.5 -14.2 -23.9 -18.9 -30.5 -2.4 -3.4 -5 -7.8 -5.9 -9.8 -2.6 -6.3 -19.2 -29 -25.8 -35.3 -3.5 -3.3 -11.9 -10.2 -18.8 -15.2 -6.9 -5 -13.7 -10.1 -15.2 -11.2 -1.4 -1.1 -3.1 -2 -3.7 -2 -0.6 0 -1.1 -0.4 -1.1 -0.8 0 -0.5 -1.2 -1.5 -2.7 -2.3 -1.6 -0.8 -4.8 -2.8 -7.3 -4.5 -2.5 -1.7 -9.1 -5.3 -14.7 -7.9 -5.7 -2.6 -10.3 -5.1 -10.3 -5.5 0 -0.4 -0.6 -0.7 -1.2 -0.8 -1.3 -0.1 -17.9 -5.6 -20.8 -6.9 -0.8 -0.3 -1.9 -0.5 -2.4 -0.4 -0.4 0.1 -1.4 -0.3 -2 -0.9 -0.7 -0.5 -1.5 -0.8 -1.8 -0.5 -0.3 0.3 -5.4 -0.2 -11.5 -1 -10.7 -1.5 -20.3 -1.8 -20.3 -0.6 0 0.3 -1.2 1.2 -2.7 1.8 -2.1 1 -4.8 1 -12.1 0.2 -15.6 -1.9 -47.9 -0.6 -65 2.5 -15.6 2.8 -19.7 4.2 -22.6 7.5 -1.1 1.1 -2.6 2.1 -3.5 2.1 -4.1 0 -30.1 9.8 -43.6 16.4 -26.3 12.7 -45.3 26.3 -66.2 47.2 -48 48.1 -73.2 112.5 -71 180.9 1.2 37.6 9.7 70.8 26.8 104.5 37.6 74.3 109.2 124.4 192.4 134.4 21.8 2.7 38.3 2.7 60.5 0z m315.1 -13.7 c8.1 -4.2 11.4 -16 6.9 -25.2 -2.4 -5 -3.4 -6.1 -9.3 -10.7 -6.8 -5.2 -11.3 -5.7 -17.8 -2.1 -9.2 4.9 -13.1 14.3 -10.4 24.7 0.8 3.1 2.5 7 3.7 8.6 5.1 7 18.1 9.3 26.9 4.7z m41.2 -3.6 c3.4 -1.7 4.1 -1.8 8.4 -0.5 9.1 2.7 16.1 1.5 21 -3.8 3.5 -3.7 4.4 -7.2 2.6 -9.8 -1.6 -2.2 -2.2 -2.3 -9.5 -0.4 -2.3 0.5 -3.5 -0.1 -7.3 -3.4 -5.3 -4.7 -11.7 -6.8 -15.8 -5.3 -2.5 1 -2.9 0.8 -3.7 -1.3 -0.5 -1.3 -2.3 -2.8 -4.1 -3.5 -6.3 -2.2 -11.8 3.4 -12.7 13 -0.9 10 4.2 16.9 12.7 16.9 2.6 0 6.3 -0.8 8.4 -1.9z m114.6 -6.2 c3.5 -0.5 11.1 -2.5 16.7 -4.4 12.9 -4.2 19 -5 27.9 -3.4 3.9 0.6 16.5 1.3 28 1.4 11.6 0.2 25.1 0.8 30 1.4 31.3 3.6 63.1 4.4 68.3 1.7 3.6 -1.8 5.2 -7.2 3.4 -11.1 -1.8 -3.9 -10.8 -5.7 -54.2 -10.5 -22.6 -2.5 -31.4 -3.1 -50.5 -3.1 -12.6 0 -27 0 -32 -0.1 -8 -0.2 -10.4 0.2 -21.5 3.7 -15.8 5 -23.4 5.3 -32.7 1.2 -9.5 -4.2 -13.5 -4.4 -24.8 -1.2 l-9.7 2.8 -2.2 -2.7 c-4.9 -6.1 -13.8 -4.5 -15.2 2.9 -1.5 8 1.8 15.8 7.9 18.6 5.6 2.5 7.3 2.4 17.4 -1.1 10.5 -3.7 12.7 -3.7 18.8 -0.4 4.6 2.4 13.2 5.2 16.5 5.3 0.8 0.1 4.4 -0.4 7.9 -1z m-160.8 -109.4 c7 -3.7 11.1 -12.6 9.4 -20.4 -1.1 -5.1 -11 -17.8 -14.8 -19 -6.2 -1.9 -9 -1 -14.8 4.9 -7.6 7.7 -9.4 14.4 -6.4 23.1 4.1 11.4 16.3 16.7 26.6 11.4z m50.6 -9 c1.3 -0.9 4.3 -4.1 6.6 -7 3.7 -4.8 4.6 -5.5 7.8 -5.5 2 0 5.8 1.2 9 2.9 8.6 4.7 13.9 5.5 22.9 3.5 4.1 -0.9 9.1 -2.5 11.1 -3.5 4.8 -2.4 9.9 -7.6 9.9 -10 0 -2.8 -3.7 -3.9 -7.7 -2.3 -4.4 1.9 -13.9 1.8 -19.8 -0.2 -3.6 -1.3 -6.7 -1.5 -12.5 -1.1 l-7.7 0.6 -2.2 -3 c-2.5 -3.3 -7.5 -5.9 -11.5 -5.9 -1.3 0 -4.5 1.6 -7.1 3.6 -4.1 3.1 -4.8 3.3 -5.8 2 -1.8 -2.4 -7.1 -3.6 -9.8 -2.2 -3.8 1.8 -5.1 5.4 -4.5 12.1 0.8 8.5 2.4 13.4 5.3 16.1 3.9 3.6 10.3 3.6 16 -0.1z m161.1 -7.7 c4.1 -0.9 7.8 -0.8 17 0.3 16.7 2 59.6 1.9 63.7 -0.1 3.8 -1.9 4.8 -7.2 1.7 -8.9 -2.6 -1.4 -48.1 -6.1 -58.8 -6.1 -4.6 0 -10.5 0.5 -13.1 1 -4 0.9 -6.2 0.7 -12.8 -1.1 -5.4 -1.4 -12.3 -2.3 -21 -2.6 -9.9 -0.4 -14 -0.9 -17.1 -2.4 -5.3 -2.5 -7.7 -2.4 -10.9 0.4 -5.7 4.9 -3.8 15.9 3.4 19.8 3 1.6 5.6 1.7 23 1.3 10.8 -0.2 22 -0.9 24.9 -1.6z m-63.8 -1.4 c2.5 -2.1 3 -3.3 2.8 -5.8 -0.3 -2.8 -0.8 -3.2 -5.1 -4.3 -2.6 -0.6 -6.5 -2.5 -8.6 -4.3 -5.6 -4.3 -9.6 -5.6 -12.7 -3.9 -5 2.7 -4 9.4 2.4 15 7.4 6.5 15.8 7.8 21.2 3.3z m-151.2 -99.3 c9 -4.7 13.3 -13.9 10.7 -22.9 -2.8 -9.4 -14.2 -17.4 -24.7 -17.4 -8 -0.1 -14.4 6.9 -15.6 16.8 -0.9 8.6 5.8 20.7 13.3 24 4.4 1.9 12 1.7 16.3 -0.5z m45.2 -3.5 c0.6 -0.8 1 -2.5 0.9 -3.8 -0.2 -1.5 1 -3.6 3.3 -6 2 -2.1 4.1 -5.3 4.7 -7.1 1.1 -3.3 1.2 -3.4 6.5 -2.9 3.9 0.3 6 0 8 -1.3 2.6 -1.7 2.6 -1.7 8.2 3.5 13.2 11.9 22.5 16.1 27.9 12.6 4 -2.6 3.1 -6.7 -1.6 -8.1 -2.3 -0.6 -6.5 -3.7 -11.2 -8.2 -10 -9.5 -12.4 -10.7 -19.9 -9.9 -4.9 0.6 -6.5 0.4 -9.3 -1.3 -9.1 -5.4 -15.9 -3 -20.4 7.2 l-2.7 6 -2.3 -7.9 c-3.4 -12 -4 -13.2 -7.2 -14.3 -4.1 -1.4 -8.3 2.1 -8.1 6.8 0.1 6 13.6 31.2 18.5 34.6 2.7 1.9 3.2 1.9 4.7 0.1z m123 -14.1 l6 -2.5 9.1 1.6 c8.6 1.6 9.8 1.6 18.8 0 17.8 -3 26.5 -3.2 35.6 -0.5 7.1 2.1 9.9 2.3 24.3 2.2 17.8 -0.1 21.2 -1 21.2 -5.7 0 -4.2 -1.5 -4.7 -28 -9.1 -15.5 -2.6 -15.5 -2.6 -31.5 -1 -21.2 2 -25.3 1.9 -30.9 -0.6 -7.3 -3.2 -14.1 -3.5 -20.6 -1 -8 3.1 -10.7 2.8 -12.4 -1.1 -3.1 -7.4 -9.6 -10.2 -15.8 -6.8 -3 1.6 -4.2 1.7 -6.7 0.9 -2.6 -0.9 -3.6 -0.7 -6.4 1 -5.5 3.4 -7 8.9 -4.3 15.6 2.3 5.4 10.4 8.3 15.7 5.5 1.5 -0.9 2.6 -0.7 4.7 0.8 3.8 2.7 5 3 10.5 3.1 3 0.1 7 -0.8 10.7 -2.4z m-165.8 -119.1 c9.3 -6.5 12 -18.3 6.2 -26.6 -4.2 -6 -13 -11.9 -18.7 -12.5 -7.3 -0.9 -15.8 4.9 -19.2 12.9 -4.2 10.3 0.5 22.5 10.7 27.7 6.3 3.2 15.2 2.6 21 -1.5z m51.7 -5.6 c0.5 -1.3 0.7 -2.6 0.5 -2.9 -0.2 -0.3 2.4 -2.6 5.7 -4.9 9.3 -6.8 13.3 -13 9.7 -15.3 -1.4 -0.9 -2.5 -0.5 -5.5 2 -3.4 2.7 -11.4 7.3 -12.7 7.3 -0.3 0 -1.7 -2.1 -3 -4.7 -4.6 -9.1 -8.3 -13.3 -11.6 -13.3 -2.3 0 -3.3 0.6 -3.9 2.3 -1.1 2.9 0 5.5 5.6 13.4 2.6 3.6 4.8 7.4 4.8 8.5 0.1 1 1.4 3.1 2.8 4.6 1.5 1.6 2.7 3.3 2.7 4 0 2.2 4 1.3 4.9 -1z m37.1 -5.2 c0 -0.7 -1.2 -3.6 -2.6 -6.6 -1.4 -2.9 -3.9 -9.4 -5.5 -14.4 -3.1 -9.3 -4.8 -11.9 -8.6 -13.1 -3.4 -1 -7.7 3.7 -6.8 7.3 0.8 3.2 13.6 24.1 16.2 26.4 3.3 2.8 7.3 3 7.3 0.4z m52.8 0.8 c0.7 -1.3 1.2 -1.4 2.9 -0.4 3 1.9 6.3 0.6 15 -5.8 4.3 -3.1 9 -6.5 10.4 -7.4 5.4 -3.5 3.7 -9.8 -2.7 -9.8 -7.7 0 -23.1 8.5 -25.4 14 l-1.3 3.1 -4.9 -9.3 c-6.1 -11.3 -7.3 -12.8 -10.8 -12.8 -6.5 0 -6.6 5.2 -0.2 12.2 2.6 2.9 6.9 8.1 9.5 11.6 5.1 6.6 6.1 7.2 7.5 4.6z m61.4 -1.1 c0.9 -1 3.9 -6.4 6.8 -12 4.5 -8.6 5.1 -10.5 4 -11.8 -2 -2.4 -3.2 -1.9 -9 4 l-5.3 5.4 -2.3 -5.5 c-2.7 -6.7 -4 -8.3 -8.1 -10 -6.1 -2.6 -11.1 1.6 -10 8.4 0.6 3.2 8.3 15.7 13 21 2.5 2.8 8.7 3 10.9 0.5z m58.1 -2.4 c2.8 -2.1 4.3 -2.4 12.7 -2.5 10.8 -0.2 23.3 -3.1 23.8 -5.6 0.4 -2.3 -1.7 -3.5 -8.2 -4.7 -8.3 -1.5 -12.2 -1.4 -19.3 0.9 -6.1 1.9 -6.2 1.9 -13.2 -0.1 -8.2 -2.3 -13.7 -1.5 -16.9 2.6 -1.1 1.4 -2.2 2.5 -2.5 2.5 -0.7 0 -4.4 -9.1 -5.2 -13 -2.2 -10.7 -11.6 -14.3 -14.5 -5.6 -1.4 4.4 -0.3 8.9 4 15.7 5.7 8.8 11.7 12.1 15.3 8.4 1.3 -1.3 1.7 -1.2 2.9 0.2 4 4.8 15.4 5.5 21.1 1.2z m-154.1 -2.3 c5.7 -4.6 8.8 -8.5 8.8 -11 0 -2.8 -2 -2.7 -5.8 0.1 -2 1.6 -5.7 3.7 -8.2 4.8 -2.5 1 -5.1 2.3 -5.7 2.8 -2.9 2.1 -0.2 7.7 3.7 7.7 1 0 4.3 -2 7.2 -4.4z m-497.7 -135.1 c42.8 -2.6 108.5 -3.6 147 -2.2 42 1.5 141.9 1.4 177.5 -0.2 16.1 -0.7 61.3 -1.2 115.1 -1.2 108.9 0.1 180.6 -2.2 203.5 -6.4 25.7 -4.8 49.2 -18.6 55.3 -32.6 6.6 -14.9 4.2 -28 -7.3 -39.5 -8.9 -8.9 -16.7 -11.8 -39.6 -14.8 -6.3 -0.9 -16.4 -2.4 -22.5 -3.5 -19 -3.4 -43.8 -5.4 -68 -5.5 -38.5 -0.2 -172.5 1.3 -215 2.4 -22 0.5 -66.5 1.4 -99 2 -32.4 0.5 -72.5 1.4 -89 2 -104.8 3.6 -187.4 4.7 -226 3 -15.4 -0.7 -35.9 -1.4 -45.5 -1.6 -16.4 -0.4 -17.9 -0.5 -23.5 -3.1 -5.3 -2.3 -7.3 -2.7 -16.5 -2.7 -8.8 0 -11.8 0.5 -18.9 2.8 -10 3.3 -19.8 8.1 -22.6 11.1 -1.1 1.1 -2.9 2.4 -3.8 2.8 -1 0.4 -1.6 1.1 -1.3 1.6 0.4 0.5 -0.4 1.8 -1.7 2.8 -1.3 1 -2.4 2.2 -2.5 2.6 0 0.4 -1 1.6 -2.1 2.5 -1.1 0.9 -2.1 2.4 -2.3 3.2 -0.2 0.8 -0.9 2.1 -1.5 2.8 -2.5 2.6 -4.5 12.3 -4.4 21 0.1 18.3 7.1 30.5 21.8 38 13 6.7 49.9 12.5 92.8 14.6 14.7 0.7 76.1 -0.4 100 -1.9z"/>
 </g>
</svg>