<?xml version="1.0" encoding="utf-8"?>
<!DOCTYPE svg PUBLIC "-//W3C//DTD SVG 1.0//EN" "http://www.w3.org/TR/2001/REC-SVG-20010904/DTD/svg10.dtd">
<svg version="1.0" xmlns="http://www.w3.org/2000/svg" width="1924px" height="1924px" viewBox="0 0 1924 1924" preserveAspectRatio="xMidYMid meet">
 <g fill="#aaebfc">
  <path d="M1029.5 1072.4 c-1.6 -0.2 -8.6 -0.9 -15.5 -1.5 -68.5 -6 -141.6 -31.7 -200.9 -70.6 -116.9 -76.7 -189.9 -201.4 -200.1 -341.8 -3.1 -43.6 1.4 -91.7 13 -137.5 28.5 -112.7 101.5 -210.5 200.2 -267.8 5.7 -3.3 9.9 -6.4 10.2 -7.5 0.3 -1.3 1 -1.8 2.1 -1.4 0.9 0.4 7.6 -2.3 15.9 -6.2 42.1 -20.3 95 -35.7 132.3 -38.6 16.8 -1.3 16.4 -1.2 19.9 -4.6 2 -2 3 -3.7 2.6 -4.7 -0.4 -1.1 -0.1 -1.4 1.1 -0.9 1.1 0.4 1.7 0.1 1.7 -0.8 0 -1.8 2 -2 2.1 -0.2 0 0.6 0.4 0.2 0.9 -1 0.9 -2.2 3 -3.2 3 -1.4 0 0.4 2.4 0.3 5.3 -0.4 8.6 -2 34.7 -2.7 55.2 -1.5 51.9 2.9 95.7 12.6 143.9 31.6 10.3 4.1 19.1 7.3 19.4 7 0.3 -0.3 1.2 0.2 2.1 1.2 2.6 2.8 19.9 11.2 20.5 9.8 0.3 -0.7 0.5 -0.7 0.5 0.2 0.1 0.7 0.6 1 1.1 0.7 0.6 -0.3 1 0.1 1 0.9 0 0.9 0.4 1.6 0.9 1.6 0.5 0 7.4 3.9 15.3 8.6 93.8 56.6 162 141.7 195.6 244.4 42 128.5 23.6 267.7 -50.6 382 -31.1 48 -74 91.8 -121.3 124 -19.1 13 -32.4 20.7 -53.4 31 -48.4 23.7 -93.3 36.9 -148.5 43.6 -12.7 1.5 -67.8 2.9 -75.5 1.8z m38.2 -86.9 c21.6 -2.7 42.5 -7.3 63.8 -14.2 15.5 -5 33.7 -12.9 35.8 -15.5 1.2 -1.5 2 -1.9 2.3 -1.1 0.7 1.5 24 -10.2 38.3 -19.2 81.1 -51.1 139.6 -131.7 162.5 -224 8.7 -35.1 11.1 -55.5 11 -93.5 -0.1 -32.4 -1 -39.7 -6.1 -49.8 -3.6 -7.1 -11.8 -14.5 -19.1 -17.2 -8.2 -3.1 -19.5 -2.6 -27.4 1.3 -6.4 3.2 -13 9.3 -16 15.2 -4.1 7.8 -4.6 12.4 -4 44.2 0.5 31.1 0 38.6 -3.9 61.3 -10.3 59.6 -40 116.3 -83.8 160.1 -15.2 15.2 -28.5 26.1 -45.4 37.4 -11.8 7.8 -37.5 21.4 -48.2 25.5 -27.6 10.5 -49.6 15.9 -79 19.5 -7.1 0.9 -20.2 2.7 -29 4.1 -17.2 2.8 -18.3 2.8 -82.9 0.8 -22.3 -0.7 -28.9 0.1 -32.6 4.1 -4.7 5 -2.1 11.4 8.1 20.9 8.1 7.6 13.3 10.9 25.3 16.7 18.6 8.9 47.2 17 80.6 22.9 13.2 2.3 33.4 2.5 49.7 0.5z m202.5 -477.2 c14.9 -5.2 29.7 -14.8 49.1 -31.8 13.8 -12 19 -20.4 23.3 -37.3 6.8 -26.9 2.5 -55 -11.9 -76.2 -17.3 -25.6 -44.7 -40.4 -71.2 -38.7 -41.3 2.8 -77.6 33.9 -89.6 76.7 -2.1 7.5 -2.4 10.5 -2.3 25 0.1 14.7 0.4 17.6 2.8 26.5 3.2 11.9 8.8 24 14.6 31.7 8.4 11.3 23.5 20.9 38.7 24.7 4.3 1.1 8.7 2.2 9.8 2.5 1.1 0.3 7.9 0.4 15 0.2 11.5 -0.2 14 -0.6 21.7 -3.3z"/>
 </g>
 <g fill="#2b3f45">
  <path d="M435.5 1892.6 c-57.3 -9.7 -93.5 -49.7 -105.7 -117.2 -2.1 -11.6 -2.3 -15.8 -2.3 -42.9 0 -33.4 1 -43.8 7 -74 4.1 -20.3 9.7 -41.3 17 -63 5.6 -16.8 17 -46.5 18.3 -47.5 0.4 -0.3 0.8 -1.2 1 -2 0.5 -3 9.6 -22 10.5 -22 0.4 0 0.5 -0.4 0.2 -1 -0.3 -0.5 -0.1 -1 0.6 -1 0.7 0 1 -0.3 0.6 -0.6 -0.7 -0.8 9.1 -20.6 10.7 -21.6 0.6 -0.4 0.7 -0.8 0.3 -0.8 -1.1 0 5.4 -12 6.5 -12 0.5 0 0.7 -0.4 0.3 -0.9 -0.3 -0.5 0.3 -1.7 1.2 -2.7 1 -1 1.7 -2 1.5 -2.3 -0.1 -0.3 0.6 -1.5 1.5 -2.6 0.9 -1.1 1.6 -2.1 1.4 -2.3 -0.6 -0.6 6.2 -12.2 7.1 -12.2 0.4 0 0.8 -0.7 0.8 -1.5 0 -0.8 0.5 -1.5 1.1 -1.5 0.5 0 0.8 -0.4 0.5 -0.9 -0.3 -0.5 0.1 -1.2 1 -1.5 0.8 -0.3 1.2 -1 0.9 -1.6 -0.3 -0.5 -0.1 -1 0.5 -1 0.6 0 0.8 -0.5 0.5 -1 -0.3 -0.6 0.1 -1.3 0.9 -1.6 0.9 -0.3 1.3 -1 1 -1.5 -0.3 -0.5 0.2 -1.2 1 -1.5 0.9 -0.3 1.3 -1 1 -1.5 -0.3 -0.5 0 -0.9 0.6 -0.9 0.6 0 0.8 -0.5 0.5 -1 -0.3 -0.6 0.1 -1.3 0.9 -1.6 0.9 -0.3 1.3 -1 1 -1.5 -0.3 -0.5 0.2 -1.2 1 -1.5 0.9 -0.3 1.4 -1 1.1 -1.4 -0.3 -0.4 0.2 -1.1 1.1 -1.4 0.8 -0.3 1.2 -1 0.9 -1.6 -0.3 -0.6 0.1 -1.3 0.9 -1.6 0.9 -0.3 1.3 -1 1 -1.5 -0.3 -0.5 0.2 -1.2 1 -1.5 0.9 -0.3 1.3 -1 1 -1.5 -0.3 -0.5 0 -0.9 0.5 -0.9 0.6 0 1.1 -0.6 1.1 -1.4 0 -0.8 1.4 -2.8 3.1 -4.5 1.7 -1.7 2.7 -3.1 2.2 -3.1 -0.4 0 0 -0.5 1 -1.1 0.9 -0.6 1.5 -1.4 1.2 -2 -0.4 -0.5 0.1 -1.2 0.9 -1.5 0.9 -0.3 1.4 -1 1.1 -1.5 -0.3 -0.4 0.4 -1.3 1.5 -1.9 1.1 -0.6 1.8 -1.5 1.5 -2 -0.3 -0.5 0.4 -1.4 1.5 -2 1.1 -0.6 1.8 -1.5 1.5 -2 -0.3 -0.5 0.4 -1.4 1.5 -2 1.1 -0.6 1.8 -1.5 1.5 -2 -0.3 -0.5 0.4 -1.4 1.5 -2 1.1 -0.6 1.8 -1.5 1.5 -2.1 -0.4 -0.5 0.1 -1.2 0.9 -1.5 0.9 -0.3 1.6 -1.2 1.6 -2 0 -0.8 0.9 -1.9 2 -2.6 1.1 -0.7 2 -1.8 2 -2.5 0 -0.7 1.1 -2 2.5 -2.9 1.4 -0.9 2.2 -2 2 -2.5 -0.3 -0.4 0.8 -1.8 2.4 -3 1.7 -1.2 2.8 -2.6 2.5 -3 -0.2 -0.5 0.7 -1.6 2.1 -2.5 1.3 -0.9 2.3 -2 2 -2.4 -0.3 -0.5 1.3 -2.3 3.5 -4 2.2 -1.7 3.8 -3.5 3.5 -4 -0.3 -0.4 1.5 -2.4 4 -4.5 2.5 -2 4.3 -4 4 -4.5 -0.3 -0.4 3.4 -4.3 8 -8.5 4.7 -4.3 8.3 -8 8 -8.3 -0.8 -0.8 9.6 -11.2 11.1 -11.2 0.7 0 4 -3.1 7.5 -7 3.4 -3.8 6.7 -7 7.4 -7 0.7 0 2.5 -1.6 3.9 -3.5 1.5 -1.9 3.3 -3.5 4.1 -3.5 0.8 0 2.2 -1.1 3.1 -2.5 0.9 -1.4 2.2 -2.5 3 -2.5 0.8 0 1.9 -0.9 2.6 -2 0.7 -1.1 1.8 -2 2.5 -2 0.7 0 1.7 -0.9 2.3 -2 0.6 -1.1 1.7 -2 2.4 -2 0.8 0 1.6 -0.7 2 -1.5 0.3 -0.8 1.2 -1.5 2.1 -1.5 0.8 0 1.5 -0.4 1.5 -1 0 -0.5 0.7 -1 1.5 -1 0.9 0 1.8 -0.7 2.1 -1.5 0.4 -0.8 1.2 -1.5 2 -1.5 0.8 0 1.4 -0.4 1.4 -1 0 -0.5 0.7 -1 1.5 -1 0.8 0 1.5 -0.4 1.5 -1 0 -0.5 0.7 -1 1.5 -1 0.8 0 1.5 -0.4 1.5 -1 0 -0.5 0.7 -1 1.5 -1 0.8 0 1.5 -0.4 1.5 -1 0 -0.5 0.7 -1 1.5 -1 0.8 0 1.5 -0.4 1.5 -1 0 -0.5 1.1 -1.2 2.5 -1.6 1.4 -0.3 2.5 -1 2.5 -1.5 0 -0.5 0.6 -0.9 1.4 -0.9 0.8 0 2.1 -0.6 2.8 -1.3 0.7 -0.8 3.1 -2.2 5.3 -3.3 2.2 -1 4.6 -2.4 5.3 -3.1 0.7 -0.7 1.7 -1.3 2.2 -1.3 0.5 0 2.8 -1.8 5.2 -4.1 11.4 -10.7 54.2 -26.2 78.8 -28.5 7.3 -0.6 12.3 -2.2 11.4 -3.5 -0.3 -0.5 0 -0.9 0.6 -0.9 0.6 0 0.8 -0.4 0.5 -1 -0.3 -0.5 -0.1 -1 0.5 -1 0.6 0 0.8 -0.4 0.5 -1 -0.3 -0.5 -0.1 -1 0.5 -1 0.6 0 0.8 -0.4 0.5 -1 -0.3 -0.5 -0.1 -1 0.5 -1 0.6 0 0.9 -0.4 0.6 -0.9 -0.3 -0.5 0.1 -1.2 1 -1.5 0.8 -0.3 1.2 -1 0.9 -1.6 -0.3 -0.5 -0.1 -1 0.5 -1 0.6 0 0.9 -0.4 0.6 -0.9 -0.3 -0.5 0.1 -1.2 1 -1.5 0.8 -0.3 1.2 -1 0.9 -1.6 -0.3 -0.5 -0.1 -1 0.5 -1 0.6 0 0.9 -0.4 0.6 -0.9 -0.3 -0.5 0.1 -1.2 1 -1.5 0.8 -0.3 1.3 -1 1 -1.5 -0.3 -0.5 0.1 -1.2 1 -1.5 0.9 -0.4 1.4 -0.9 1.1 -1.2 -0.3 -0.3 0.3 -1.4 1.4 -2.5 1.1 -1.1 1.7 -2.4 1.4 -2.8 -0.2 -0.5 0.2 -1.2 1.1 -1.5 0.8 -0.3 1.2 -1 0.9 -1.6 -0.3 -0.5 -0.1 -1 0.5 -1 0.6 0 0.8 -0.4 0.5 -1 -0.3 -0.5 -0.1 -1 0.5 -1 0.6 0 0.8 -0.4 0.5 -1 -0.3 -0.5 -0.2 -1 0.4 -1 1.3 0 5.2 -7.5 4.4 -8.4 -0.4 -0.3 -0.1 -0.6 0.6 -0.6 0.7 0 0.9 -0.4 0.6 -1 -0.3 -0.5 -0.1 -1 0.5 -1 0.6 0 0.8 -0.4 0.5 -1 -0.3 -0.5 -0.1 -1 0.5 -1 0.6 0 0.8 -0.4 0.5 -1 -0.3 -0.5 -0.2 -1 0.4 -1 1.3 0 4.2 -5.5 3.4 -6.4 -0.4 -0.3 -0.2 -0.6 0.4 -0.6 1.1 0 9.2 -12.2 9.6 -14.4 0.1 -0.6 0.9 -1.6 1.7 -2.3 0.8 -0.7 1.1 -1.3 0.6 -1.3 -0.6 0 -0.1 -0.7 1 -1.5 1 -0.8 1.6 -1.5 1.2 -1.5 -0.4 0 0.4 -1.1 1.8 -2.5 3.3 -3.3 2.3 -5.1 -5.8 -10 -44.9 -27.3 -98.5 -74.7 -138.4 -122.5 -45.1 -54 -83.7 -123.1 -105.8 -189.4 -15.6 -46.9 -24.3 -87.2 -29.3 -136.6 -2.2 -22 -2.5 -90.4 -0.5 -110 2.2 -21.5 5.1 -42.3 8.2 -58.7 3 -16 10.5 -47.6 11.7 -49.7 0.4 -0.6 0.8 -1.7 0.8 -2.6 0.3 -3.2 4.9 -17.5 5.9 -18.2 0.6 -0.4 0.8 -1 0.4 -1.3 -0.7 -0.7 9.8 -32.6 11 -33.5 0.4 -0.3 0.9 -1.4 1 -2.5 0.2 -1.1 0.8 -2.1 1.2 -2.3 0.5 -0.2 0.7 -0.9 0.4 -1.6 -0.3 -0.8 0.1 -2 0.8 -2.7 0.7 -0.8 1.5 -2.3 1.6 -3.4 0.2 -1.1 0.8 -2.2 1.3 -2.3 0.5 -0.2 0.7 -0.8 0.3 -1.3 -0.3 -0.5 0 -0.9 0.6 -0.9 0.7 0 1 -0.7 0.6 -1.5 -0.3 -0.8 -0.1 -1.5 0.5 -1.5 0.6 0 0.7 -0.4 0.4 -1 -0.3 -0.5 -0.1 -1 0.5 -1 0.6 0 0.8 -0.4 0.5 -1 -0.3 -0.5 -0.1 -1 0.5 -1 0.6 0 0.9 -0.4 0.5 -0.9 -0.3 -0.5 -0.1 -1.2 0.5 -1.6 0.6 -0.4 0.8 -1.1 0.5 -1.6 -0.4 -0.5 -0.1 -0.9 0.5 -0.9 0.6 0 0.8 -0.4 0.5 -1 -0.3 -0.5 -0.1 -1 0.5 -1 0.6 0 0.8 -0.4 0.5 -1 -0.3 -0.5 -0.1 -1 0.5 -1 0.6 0 0.8 -0.4 0.5 -1 -0.3 -0.5 -0.1 -1 0.6 -1 0.7 0 1 -0.3 0.6 -0.6 -0.3 -0.4 0.1 -1.3 0.9 -2.1 0.8 -0.9 1.3 -2.2 1 -2.9 -0.3 -0.8 -0.1 -1.4 0.5 -1.4 0.6 0 0.7 -0.5 0.4 -1 -0.3 -0.6 -0.1 -1 0.5 -1 0.6 0 0.8 -0.5 0.5 -1 -0.3 -0.6 -0.1 -1 0.5 -1 0.6 0 0.8 -0.5 0.5 -1 -0.3 -0.6 -0.1 -1 0.5 -1 0.6 0 0.8 -0.5 0.5 -1 -0.3 -0.6 -0.1 -1 0.5 -1 0.6 0 0.8 -0.4 0.5 -1 -0.3 -0.5 -0.1 -1 0.5 -1 0.6 0 0.8 -0.4 0.5 -1 -0.3 -0.5 -0.1 -1 0.5 -1 0.6 0 0.8 -0.5 0.5 -1 -0.3 -0.6 -0.1 -1 0.5 -1 0.6 0 0.8 -0.4 0.5 -1 -0.3 -0.5 -0.1 -1 0.5 -1 0.6 0 0.8 -0.4 0.5 -1 -0.3 -0.6 -0.1 -1 0.5 -1 0.6 0 0.8 -0.5 0.5 -1 -0.3 -0.5 -0.1 -1 0.5 -1 0.6 0 0.9 -0.4 0.6 -0.9 -0.3 -0.5 0.1 -1.2 1 -1.5 0.8 -0.3 1.2 -1 0.9 -1.6 -0.3 -0.5 -0.1 -1 0.5 -1 0.6 0 0.8 -0.4 0.5 -1 -0.3 -0.5 -0.1 -1 0.5 -1 0.6 0 0.8 -0.5 0.5 -1 -0.3 -0.6 -0.1 -1 0.5 -1 0.6 0 0.8 -0.4 0.5 -1 -0.3 -0.5 -0.1 -1 0.5 -1 0.6 0 0.8 -0.4 0.5 -1 -0.3 -0.5 -0.1 -1 0.5 -1 0.6 0 0.9 -0.4 0.6 -0.9 -0.3 -0.5 0.1 -1.2 1 -1.5 0.8 -0.3 1.2 -1 0.9 -1.6 -0.3 -0.5 -0.1 -1 0.5 -1 0.6 0 0.8 -0.4 0.5 -1 -0.3 -0.5 -0.1 -1 0.6 -1 0.7 0 1 -0.3 0.6 -0.6 -0.3 -0.3 0.3 -1.4 1.4 -2.5 1.1 -1.1 1.7 -2.4 1.4 -2.9 -0.4 -0.6 -0.1 -1 0.5 -1 0.6 0 0.9 -0.4 0.5 -0.9 -0.3 -0.6 0.3 -1.4 1.2 -2 1 -0.6 1.5 -1.1 1.1 -1.1 -0.5 0 0.1 -0.9 1.2 -2 1.2 -1.2 1.8 -2.5 1.5 -2.9 -0.2 -0.5 0.2 -1.2 1.1 -1.5 0.8 -0.3 1.2 -1 0.9 -1.6 -0.3 -0.5 -0.1 -1 0.5 -1 0.6 0 0.9 -0.4 0.6 -0.9 -0.3 -0.5 0.1 -1.2 1 -1.5 0.8 -0.3 1.3 -1 1 -1.5 -0.3 -0.5 0.1 -1.2 1 -1.5 0.8 -0.3 1.3 -1 1 -1.5 -0.3 -0.5 0.1 -1.2 1 -1.5 0.8 -0.3 1.2 -1 0.9 -1.6 -0.3 -0.5 -0.1 -1 0.5 -1 0.6 0 0.9 -0.4 0.6 -0.9 -0.3 -0.5 0.1 -1.2 1 -1.5 0.8 -0.3 1.3 -1 1 -1.5 -0.3 -0.5 0.1 -1.2 1 -1.5 0.8 -0.3 1.3 -1 1 -1.5 -0.3 -0.5 0.1 -1.2 1 -1.5 0.8 -0.3 1.3 -1 1 -1.5 -0.3 -0.5 0.1 -1.2 1 -1.5 0.8 -0.3 1.3 -1 0.9 -1.5 -0.3 -0.6 0.4 -1.5 1.5 -2.1 1.1 -0.6 1.8 -1.5 1.5 -1.9 -0.3 -0.5 0.2 -1.2 1.1 -1.5 0.9 -0.4 1.4 -0.9 1 -1.3 -0.3 -0.3 0.3 -1.3 1.4 -2 1.1 -0.8 1.8 -1.9 1.5 -2.4 -0.4 -0.5 0.1 -1.2 0.9 -1.5 0.9 -0.3 1.4 -1 1.1 -1.5 -0.3 -0.4 0.4 -1.3 1.5 -1.9 1.1 -0.6 1.8 -1.5 1.5 -2 -0.3 -0.5 0.4 -1.4 1.5 -2 1.1 -0.6 1.8 -1.5 1.5 -1.9 -0.2 -0.5 0.7 -1.6 2.1 -2.6 1.4 -0.9 2.3 -1.9 2 -2.2 -0.3 -0.4 0.3 -1.3 1.4 -2 1.1 -0.8 1.8 -1.8 1.5 -2.3 -0.3 -0.4 0.7 -1.5 2 -2.4 1.4 -0.9 2.3 -2 2.1 -2.5 -0.3 -0.4 0.8 -1.8 2.5 -3 1.6 -1.2 2.7 -2.6 2.5 -3 -0.3 -0.4 0.8 -1.8 2.5 -3 1.6 -1.2 2.7 -2.6 2.5 -3 -0.3 -0.5 1.3 -2.3 3.4 -4 2.2 -1.8 3.8 -3.6 3.6 -4 -0.3 -0.4 2.4 -3.3 6 -6.5 3.6 -3.2 6.2 -6.1 5.9 -6.4 -0.8 -0.8 16.6 -18.2 18.2 -18.2 0.6 0 4 -3.1 7.5 -7 3.5 -3.8 6.8 -7 7.5 -7 0.7 0 2.7 -1.8 4.4 -4 1.8 -2.2 3.8 -4 4.5 -4 0.8 0 2.3 -1.3 3.6 -3 1.2 -1.6 2.8 -3 3.5 -3 0.7 0 2 -1.1 2.9 -2.5 0.9 -1.4 2.2 -2.5 3 -2.5 0.7 0 1.8 -0.9 2.4 -2 0.6 -1.1 1.7 -2 2.5 -2 0.8 0 1.9 -0.9 2.5 -2 0.6 -1.1 1.7 -2 2.5 -2 0.8 0 1.9 -0.9 2.5 -2 0.6 -1.1 1.7 -2 2.6 -2 0.8 0 1.7 -0.7 2 -1.5 0.4 -0.8 1.2 -1.5 1.9 -1.5 0.7 0 1.5 -0.7 1.9 -1.5 0.3 -0.8 1.2 -1.5 2.1 -1.5 0.8 0 1.5 -0.4 1.5 -1 0 -0.5 0.7 -1 1.5 -1 0.8 0 1.9 -0.9 2.5 -2 0.6 -1.1 1.7 -2 2.4 -2 0.8 0 3.7 -2.7 6.5 -5.9 4.9 -5.7 20.2 -17.1 22.9 -17.1 0.6 0 1.2 -0.4 1.2 -1 0 -0.5 0.5 -1 1 -1 0.6 0 1.9 -0.8 3 -1.7 1 -1 4 -2.9 6.7 -4.3 2.6 -1.4 5 -2.8 5.3 -3.1 0.9 -1.2 20.6 -11.9 21.8 -11.9 0.7 0 1.2 -0.4 1.2 -0.8 0 -0.4 5.1 -3.2 11.3 -6.1 6.1 -3 13.2 -6.4 15.7 -7.7 7.7 -3.8 30.8 -13.4 45.7 -19 45.7 -17.2 99.6 -29.5 153.3 -34.9 21.3 -2.2 74 -3.1 96 -1.6 142.3 9.6 276.7 69 378.6 167.4 64.9 62.7 115 139.1 146.9 224.2 48.6 129.6 50.7 273.9 5.9 404.6 -3.7 10.7 -6.7 20 -6.7 20.7 0 0.6 -0.4 1.2 -0.8 1.2 -0.4 0 -1 1.1 -1.3 2.4 -1.2 4.7 -12.9 31.4 -21.6 49.1 -4.8 9.9 -8.8 18.4 -8.8 18.9 0 0.5 -0.4 1.2 -0.9 1.5 -1.7 1.1 -5.3 7.8 -4.6 8.4 0.3 0.4 0.1 0.7 -0.6 0.7 -0.7 0 -0.9 0.5 -0.6 1 0.3 0.6 0.1 1 -0.5 1 -0.6 0 -0.9 0.4 -0.6 0.9 0.3 0.5 -0.1 1.2 -1 1.5 -0.9 0.4 -1.4 0.9 -1.1 1.2 0.3 0.4 -0.3 1.5 -1.3 2.7 -1.1 1.1 -1.7 2.4 -1.4 2.9 0.3 0.4 0 0.8 -0.7 0.8 -0.7 0 -1 0.3 -0.6 0.6 0.3 0.3 -0.3 1.4 -1.4 2.5 -1.1 1.1 -1.7 2.4 -1.4 2.8 0.2 0.5 -0.2 1.2 -1.1 1.5 -0.8 0.3 -1.2 1 -0.9 1.6 0.3 0.5 0.2 1 -0.3 1 -1 0 -6.4 8.4 -6.2 9.6 0.1 0.3 -0.7 1.2 -1.7 2 -1 0.7 -1.4 1.4 -0.9 1.4 0.6 0 0.2 0.6 -0.7 1.3 -0.9 0.6 -1.7 1.9 -1.9 2.7 -0.2 0.8 -1.1 2.1 -2.1 2.8 -0.9 0.7 -1.5 1.7 -1.2 2.2 0.3 0.4 -0.2 1.1 -1.1 1.4 -0.8 0.3 -1.3 1 -1 1.5 0.3 0.5 -0.1 1.2 -1 1.5 -0.9 0.4 -1.4 0.9 -1 1.3 0.3 0.3 -0.3 1.3 -1.4 2 -1.1 0.8 -1.8 1.8 -1.5 2.3 0.3 0.4 -0.2 1.1 -1.1 1.4 -0.9 0.4 -1.4 0.9 -1 1.3 0.3 0.3 -0.3 1.2 -1.4 2 -1.1 0.8 -2 2 -2 2.7 0 0.8 -0.7 1.7 -1.6 2 -0.9 0.4 -1.4 0.9 -1 1.3 0.3 0.3 -0.3 1.3 -1.4 2 -1.1 0.8 -1.8 1.8 -1.5 2.3 0.3 0.5 -0.4 1.4 -1.6 2 -1.1 0.7 -1.8 1.4 -1.5 1.7 0.3 0.3 -0.6 1.5 -2 2.5 -1.4 1.1 -2.3 2.3 -2 2.6 0.3 0.3 -0.3 1.1 -1.4 1.9 -1.1 0.8 -2 1.9 -2 2.5 0 0.5 -1.1 1.9 -2.5 3 -1.4 1.1 -2.3 2.3 -2.1 2.7 0.3 0.4 -0.9 1.7 -2.5 3 -1.6 1.3 -2.7 2.7 -2.4 3.1 0.2 0.4 -1.4 2.2 -3.5 3.9 -2.2 1.8 -3.8 3.6 -3.5 4 0.2 0.5 -1.8 2.7 -4.5 5 -2.7 2.3 -4.9 4.5 -4.8 4.9 0.3 0.9 -33.1 34.2 -34.2 34.2 -0.4 0 -2.7 2.2 -5.1 5 -2.4 2.7 -4.9 5 -5.5 5 -0.7 0 -2.6 1.6 -4.3 3.5 -1.7 1.9 -3.5 3.5 -4 3.5 -0.5 0 -1.8 1.1 -2.9 2.5 -1.1 1.4 -2.4 2.5 -2.8 2.5 -0.5 0 -2.9 1.8 -5.3 4 -2.4 2.2 -4.7 4 -5.2 4 -0.5 0 -1.4 0.9 -2.1 2 -0.7 1.1 -1.9 2 -2.6 2 -0.7 0 -1.5 0.7 -1.8 1.5 -0.4 0.8 -1 1.5 -1.5 1.5 -0.5 0 -5.1 3.1 -10.2 6.9 -49.9 37 -114.7 69.4 -176.5 88.2 -40.3 12.2 -78.1 19.9 -120.7 24.4 -20.5 2.2 -77 3.1 -99 1.6 -56.1 -3.9 -114.8 -16.4 -165.2 -35.2 -7.2 -2.7 -13.4 -4.9 -13.7 -4.9 -0.3 0 -0.6 0.7 -0.6 1.5 0 0.8 -0.4 1.5 -1 1.5 -0.5 0 -0.7 0.6 -0.4 1.4 0.3 0.7 -0.1 2 -0.9 2.7 -0.7 0.8 -1.2 1.9 -1 2.5 0.2 0.7 -0.3 1.8 -1.1 2.7 -0.8 0.8 -1.3 1.7 -1 2 0.7 0.7 -1.8 5.7 -2.8 5.7 -0.5 0 -0.6 0.5 -0.3 1 0.3 0.6 0.1 1 -0.5 1 -0.6 0 -0.9 0.4 -0.5 0.9 0.7 1.2 -1.5 6.1 -2.7 6.1 -0.5 0 -0.6 0.5 -0.3 1 0.3 0.6 0.2 1 -0.4 1 -0.6 0 -0.8 0.7 -0.5 1.5 0.4 0.8 0.1 1.5 -0.6 1.5 -0.6 0 -0.8 0.5 -0.5 1 0.3 0.6 0.1 1 -0.5 1 -0.6 0 -0.8 0.5 -0.5 1 0.3 0.6 0.2 1 -0.4 1 -0.6 0 -0.8 0.7 -0.5 1.5 0.4 0.8 0.1 1.5 -0.6 1.5 -0.6 0 -0.8 0.5 -0.5 1 0.3 0.6 0.1 1 -0.5 1 -0.6 0 -0.8 0.5 -0.5 1 0.3 0.6 0.2 1 -0.4 1 -0.6 0 -0.8 0.7 -0.5 1.5 0.4 0.8 0.1 1.5 -0.6 1.5 -0.6 0 -0.8 0.5 -0.5 1 0.3 0.6 0.2 1 -0.4 1 -0.6 0 -0.8 0.7 -0.5 1.5 0.4 0.8 0.1 1.5 -0.6 1.5 -0.6 0 -0.8 0.5 -0.5 1 0.3 0.6 0.1 1 -0.5 1 -0.7 0 -1 0.7 -0.6 1.5 0.3 0.8 0.1 1.5 -0.5 1.5 -0.6 0 -0.8 0.4 -0.5 0.9 0.4 0.5 0.1 1.1 -0.4 1.3 -0.6 0.2 -1.2 1.3 -1.3 2.6 0 1.2 -0.5 2.2 -1 2.2 -0.5 0 -0.7 0.7 -0.3 1.5 0.3 0.8 0.1 1.5 -0.5 1.5 -0.6 0 -0.7 0.5 -0.4 1 0.3 0.6 0.1 1 -0.5 1 -0.6 0 -0.8 0.5 -0.5 1 0.3 0.6 0.1 1 -0.5 1 -0.7 0 -1 0.7 -0.6 1.5 0.3 0.8 0.1 1.5 -0.5 1.5 -0.6 0 -0.7 0.5 -0.4 1 0.3 0.6 0.1 1 -0.5 1 -0.6 0 -0.8 0.5 -0.5 1 0.3 0.6 0.1 1 -0.5 1 -0.6 0 -0.8 0.5 -0.5 1 0.3 0.6 0.1 1 -0.5 1 -0.6 0 -0.8 0.5 -0.5 1 0.3 0.6 0.1 1 -0.5 1 -0.6 0 -0.8 0.5 -0.5 1 0.3 0.6 0.1 1 -0.5 1 -0.6 0 -0.8 0.5 -0.5 1 0.3 0.6 0.1 1 -0.5 1 -0.6 0 -0.8 0.5 -0.5 1 0.3 0.6 0.1 1 -0.5 1 -0.6 0 -0.8 0.5 -0.5 1 0.3 0.6 0.1 1 -0.5 1 -0.6 0 -0.9 0.4 -0.6 0.9 0.4 0.5 0 1.1 -0.6 1.4 -0.9 0.3 0.3 3.5 3.9 10.3 9.5 18.2 15.3 36.4 19 59.9 2.5 15.8 2.5 60.5 0 80 -4 31.5 -14 72.3 -25.6 105.3 -2.7 7.8 -4.7 14.2 -4.3 14.2 0.4 0 0.2 0.4 -0.3 0.8 -1.2 0.8 -6.8 14.9 -6.8 16.9 0 0.7 -0.4 1.3 -0.8 1.3 -0.7 0 -1.9 3.6 -1.8 5.4 0.1 0.5 -0.3 1.2 -0.8 1.5 -1.1 0.8 -10.7 21.7 -10.3 22.7 0.1 0.4 -0.3 1 -0.8 1.3 -1.3 0.9 -12.4 23.1 -11.5 23.1 0.5 0 0.3 0.4 -0.3 0.8 -1.5 1 -8.6 14.2 -7.7 14.2 0.4 0 0.3 0.4 -0.3 0.8 -1.5 1 -8.5 13.2 -7.6 13.2 0.4 0 0.2 0.4 -0.4 0.8 -1.6 1 -9.6 14.2 -8.6 14.2 0.4 0 0.2 0.4 -0.3 0.8 -1.7 1.1 -5.7 7.2 -4.9 7.2 0.4 0 0.1 0.6 -0.7 1.3 -1.6 1.3 -15.4 21.8 -15.3 22.7 0.1 0.3 -0.6 1 -1.5 1.7 -0.9 0.7 -1.3 1.3 -0.9 1.3 0.4 0 -0.6 1.4 -2.2 3.2 -1.6 1.7 -2.7 3.5 -2.4 4 0.3 0.4 0 0.8 -0.6 0.8 -0.6 0 -1.3 0.7 -1.7 1.5 -0.3 0.9 -1.9 3.1 -3.5 5 -1.7 1.8 -2.8 3.5 -2.7 3.8 0.2 0.3 -0.7 1.4 -2.1 2.6 -1.4 1.1 -2.1 2 -1.5 2.1 0.5 0 -0.1 0.7 -1.3 1.6 -1.2 0.8 -2.2 1.9 -2.2 2.3 0 0.5 -1.8 2.8 -4 5.2 -2.1 2.4 -3.8 4.4 -3.6 4.6 0.1 0.2 -1.9 2.7 -4.6 5.6 -2.6 2.8 -4.8 5.4 -4.8 5.7 0 0.3 -3.6 4.4 -8 9 -4.4 4.7 -8 8.8 -8 9.1 0 0.8 -35.3 35.9 -36.1 35.9 -0.3 0 -2.5 2 -4.8 4.5 -2.3 2.5 -4.5 4.5 -5 4.5 -0.5 0 -2.1 1.4 -3.4 3 -1.4 1.7 -2.9 3 -3.2 3 -0.4 0 -3.2 2.1 -6.3 4.8 -3.1 2.6 -6.1 5.1 -6.7 5.5 -3.3 2.7 -25.4 17.7 -33 22.5 -26.6 16.4 -56 28.7 -82 34.2 -12.9 2.7 -38.5 3.5 -50 1.6z m34.7 -66.4 c0.6 -0.6 -0.3 -1.6 -2.4 -2.6 -1.8 -0.9 -5.5 -3 -8.3 -4.6 -2.7 -1.5 -6.3 -3.6 -8 -4.4 -1.6 -0.9 -4.8 -2.8 -7 -4.1 -2.2 -1.3 -5.3 -3.1 -7 -3.9 -1.6 -0.9 -3.7 -2 -4.5 -2.5 -4 -2.6 -30.9 -18.1 -31.4 -18.1 -1.4 0 -0.3 3.3 3.6 11.1 7.5 15.2 21.7 26.8 36.3 29.8 5.8 1.2 27.3 0.7 28.7 -0.7z m30.7 -8.8 c4.7 -2 11.6 -5.2 15.4 -7.1 6.7 -3.5 6.7 -3.6 4.5 -5.2 -1.3 -0.8 -2.9 -1.6 -3.6 -1.7 -0.7 -0.2 -1.8 -0.7 -2.5 -1.2 -0.7 -0.6 -8.4 -4.7 -17.2 -9.2 -15.2 -7.8 -30 -15.4 -47.9 -24.7 -4.4 -2.4 -8.8 -4.7 -9.6 -5.3 -0.8 -0.5 -8.6 -4.7 -17.4 -9.2 -8.7 -4.6 -18.6 -9.8 -22 -11.5 -3.3 -1.8 -6.4 -3.3 -6.8 -3.3 -2.2 0 0.3 25.8 2.8 29.7 0.7 1.2 2.5 2.8 3.9 3.5 1.4 0.7 12.5 7.4 24.7 14.8 12.1 7.4 23.7 14.4 25.7 15.5 2 1.2 6.1 3.7 9.1 5.7 3 1.9 7.8 4.7 10.5 6.2 2.8 1.5 7 3.9 9.5 5.5 5.3 3.3 7.4 3 20.9 -2.5z m37.2 -19.9 c3.8 -2.5 7.2 -4.5 7.4 -4.5 0.2 0 1.6 -1.1 3.1 -2.5 1.5 -1.4 3.2 -2.5 3.8 -2.5 1.1 0 4.1 -3.9 3.4 -4.4 -1.8 -1.3 -10.7 -5.9 -12 -6.1 -1.6 -0.3 -71.4 -35.9 -93.6 -47.6 -4.8 -2.6 -10.2 -5.4 -11.9 -6.2 -1.8 -0.9 -6.1 -3.2 -9.5 -5.3 -3.5 -2 -9.7 -5.5 -13.8 -7.7 -4.1 -2.2 -9.4 -5.3 -11.8 -6.8 -2.3 -1.6 -5.3 -3.1 -6.6 -3.5 -2.1 -0.5 -2.3 -0.2 -2.9 4.8 -0.4 2.9 -0.7 8.5 -0.7 12.5 l0 7.1 5.4 3.6 c3 2 6.5 4.1 7.7 4.6 1.3 0.6 4 2.1 6.1 3.3 8.3 5 61.1 34.8 66.3 37.5 6.5 3.2 43.7 23.2 48 25.8 2.2 1.3 4.1 2.4 4.3 2.4 0.2 0 3.5 -2 7.3 -4.5z m29.9 -21.5 c0.6 -1.1 1.7 -2 2.4 -2 0.8 0 2.1 -1.1 3 -2.5 0.9 -1.4 2 -2.5 2.5 -2.5 1.1 0 9.1 -8 9.1 -9 0 -0.5 -2.4 -1.9 -5.2 -3.1 -5.3 -2.4 -39.9 -19.7 -49.3 -24.7 -2.7 -1.5 -14 -7.4 -25 -13.1 -11 -5.8 -22.5 -11.8 -25.5 -13.3 -3 -1.6 -8.6 -4.7 -12.5 -6.8 -3.8 -2.1 -8.8 -4.7 -11 -5.8 -7 -3.4 -47.9 -26.3 -49.6 -27.8 -0.8 -0.7 -2.6 -1.5 -3.9 -1.6 -2.3 -0.3 -2.6 0.2 -4.2 7.7 -1 4.4 -1.7 9.6 -1.5 11.5 0.2 3.3 0.8 3.9 9.7 9.2 5.2 3.2 9.9 5.7 10.4 5.8 0.5 0 1.7 0.6 2.5 1.4 0.9 0.8 4.1 2.8 7.1 4.5 3 1.6 10.2 5.6 15.9 8.8 5.8 3.2 13.9 7.7 18 10.1 9 5 16.4 9 24.6 13.3 3.3 1.7 7.8 4.1 10 5.3 17.3 9.4 69.6 36.5 70.7 36.6 0.4 0 1.2 -0.9 1.8 -2z m33.6 -30 c8.1 -8.4 17.6 -19.2 17.2 -19.6 -0.3 -0.2 -3.6 -2 -7.4 -3.9 -3.8 -1.9 -7.6 -3.9 -8.4 -4.5 -0.8 -0.5 -6.8 -3.8 -13.3 -7.2 -6.5 -3.5 -14.3 -7.7 -17.5 -9.4 -3.1 -1.7 -7.9 -4.3 -10.7 -5.8 -2.7 -1.4 -8.8 -4.7 -13.5 -7.3 -23.7 -13.3 -39.4 -21.8 -50.5 -27.7 -12.6 -6.5 -45.5 -24.9 -56.5 -31.6 -0.8 -0.5 -4.4 -2.6 -7.9 -4.7 -3.5 -2.1 -8 -4.8 -10 -6.1 -5.6 -3.5 -8.1 -4.6 -8.7 -3.9 -1 0.9 -9.4 29.6 -9.4 31.8 0 1.9 6 6.3 15.9 11.6 2.5 1.4 5.8 3.2 7.3 4.1 3.4 2.2 63.8 36.7 65.8 37.6 0.8 0.4 3.6 1.9 6.2 3.4 2.6 1.5 14.1 7.8 25.5 14 11.4 6.2 21.5 11.7 22.3 12.3 1.5 0.9 6 3.3 23 12.2 5 2.6 11.9 6.3 15.3 8.1 6 3.2 6.3 3.3 9.1 1.7 1.6 -0.9 4.4 -3.2 6.2 -5.1z m26 -28 c0.9 0 1.3 -0.4 0.9 -0.9 -0.3 -0.6 0.8 -2 2.4 -3.2 1.7 -1.2 2.8 -2.6 2.6 -3 -0.3 -0.4 0.6 -1.6 2 -2.7 1.4 -1.1 2.5 -2.3 2.5 -2.7 0 -0.3 1.4 -2.4 3.2 -4.6 1.7 -2.1 2.9 -4.2 2.5 -4.5 -0.6 -0.6 -33 -18.4 -45.7 -25 -3.6 -1.9 -9.2 -5 -12.5 -6.8 -3.3 -1.9 -7.8 -4.3 -10 -5.5 -2.2 -1.1 -4.7 -2.5 -5.5 -3 -0.8 -0.5 -7.3 -4.2 -14.5 -8.1 -7.1 -3.9 -13.7 -7.5 -14.5 -8 -1.9 -1.2 -19.2 -10.6 -25 -13.7 -2.5 -1.3 -6.3 -3.5 -8.5 -4.8 -2.2 -1.3 -4.7 -2.7 -5.5 -3.1 -2.3 -1 -48.8 -27.6 -51.8 -29.6 -1.5 -1 -3.6 -2.2 -4.7 -2.8 -3.5 -1.8 -8.9 -5.2 -11.4 -7.1 -4.2 -3.4 -5.7 -2.5 -8.9 5.4 -5.4 13.2 -5.8 14.7 -4.2 15.8 2.9 1.9 32.5 19.6 34 20.2 0.8 0.4 2.9 1.6 4.5 2.7 1.7 1.1 3.9 2.4 5 3 1.1 0.6 3.2 1.8 4.7 2.8 4.6 2.9 55.2 32.8 56.8 33.6 0.8 0.3 3.2 1.6 5.2 2.9 4.3 2.5 36.9 21.3 40.7 23.5 1.5 0.7 4.4 2.5 6.6 3.8 2.2 1.3 5.4 3.1 7 4 1.7 0.8 4.8 2.6 7 4 2.2 1.3 5.4 3.1 7 3.9 1.7 0.9 8.2 4.6 14.5 8.3 6.3 3.8 11.7 6.5 11.8 6 0.2 -0.4 1 -0.8 1.8 -0.8z m31 -39.4 c1.7 -2 2.8 -3.6 2.5 -3.6 -0.3 0 0.2 -0.5 1.2 -1.1 0.9 -0.6 1.5 -1.4 1.2 -1.9 -0.3 -0.4 0.9 -2.2 2.6 -3.9 1.7 -1.7 2.7 -3.1 2.2 -3.1 -0.4 0 -0.2 -0.4 0.6 -0.9 0.8 -0.5 1.6 -2 1.8 -3.3 0.3 -2.1 -1.3 -3.1 -14.9 -10 -8.4 -4.3 -21.6 -11.1 -29.3 -15.2 -7.7 -4.1 -17.6 -9.3 -22 -11.5 -4.4 -2.3 -11.6 -6.1 -16 -8.4 -13.9 -7.3 -39.5 -21.1 -46.4 -24.8 -3.6 -2 -8.8 -4.8 -11.6 -6.3 -2.7 -1.4 -6.8 -3.7 -9 -5.1 -2.2 -1.3 -4.7 -2.7 -5.5 -3.1 -0.8 -0.4 -6.1 -3.5 -11.8 -6.8 -5.7 -3.4 -12.2 -7.2 -14.5 -8.5 -2.3 -1.3 -5.6 -3.4 -7.4 -4.7 -1.7 -1.3 -3.5 -2.4 -3.8 -2.4 -0.4 0 -3.5 -2 -6.9 -4.5 -3.5 -2.5 -6.7 -4.5 -7.1 -4.5 -0.4 0 -3.9 -2.2 -7.9 -5 -4 -2.7 -7.7 -5 -8.2 -5 -1.1 0 -10 17.8 -9.6 19.1 0.1 0.5 -0.2 0.9 -0.7 0.9 -1.2 0 -3.3 6.2 -2.4 7.1 0.7 0.6 22 13.1 28.3 16.6 1.4 0.8 3.9 2.3 5.5 3.3 1.7 1.1 3.9 2.4 5 3 1.1 0.6 3.2 1.8 4.7 2.8 1.5 0.9 13.8 8.4 27.5 16.5 13.6 8.1 25.5 15.2 26.3 15.7 5.7 3.5 60.8 35.4 63 36.4 0.8 0.4 3.3 1.8 5.5 3.1 2.2 1.4 5.4 3.2 7 4.1 1.7 0.8 11.8 6.6 22.5 12.8 l19.5 11.4 2.5 -2.8 c1.4 -1.5 3.9 -4.4 5.6 -6.4z m21.8 -31.7 c-0.2 -0.3 0.6 -1.6 1.7 -2.7 1.1 -1.2 1.7 -2.2 1.4 -2.2 -0.8 0 3.5 -6.2 5 -7.2 0.5 -0.4 0.7 -0.8 0.2 -0.8 -0.9 0 4.1 -8.2 5.7 -9.2 0.6 -0.4 0.7 -0.8 0.2 -0.8 -0.4 0 -0.1 -1.2 0.9 -2.6 0.9 -1.4 1.5 -2.7 1.3 -2.8 -0.2 -0.2 -9.1 -5.1 -19.8 -11.1 -10.7 -5.9 -20.2 -11.3 -21 -11.9 -0.8 -0.7 -2.6 -1.8 -4 -2.5 -1.4 -0.6 -4.3 -2.3 -6.5 -3.6 -2.2 -1.3 -5.3 -3.1 -7 -3.9 -1.6 -0.9 -3.7 -2 -4.5 -2.5 -0.8 -0.6 -10.3 -6 -21 -12.2 -10.7 -6.1 -20.6 -11.9 -22 -12.8 -1.4 -0.9 -3.6 -2.2 -5 -2.8 -1.4 -0.7 -3.8 -2.2 -5.5 -3.3 -1.6 -1.1 -3.7 -2.3 -4.5 -2.7 -1.7 -0.7 -40.5 -23.8 -44.8 -26.5 -1.5 -1 -3.6 -2.2 -4.7 -2.8 -1.1 -0.6 -3.3 -1.9 -5 -3 -1.6 -1.1 -3.7 -2.3 -4.5 -2.7 -0.8 -0.3 -4 -2.3 -7 -4.3 -4.9 -3.2 -29.8 -19.9 -33.6 -22.5 -1.1 -0.8 -2 -0.4 -3.4 1.5 -1 1.3 -1.6 2.8 -1.4 3.2 0.3 0.4 0.1 0.8 -0.4 0.8 -1 0 -6.8 10.1 -6.4 11.3 0.1 0.4 -0.2 0.7 -0.7 0.7 -0.5 0 -2.5 3.2 -4.6 7.1 -3.6 6.9 -3.7 7.2 -1.9 8.9 1.6 1.4 27.8 17.6 34.6 21.3 1.3 0.7 4.8 2.9 7.8 4.8 3 2 6.2 3.9 7 4.2 0.8 0.4 2.7 1.5 4.2 2.5 3.8 2.4 36.6 22.2 39.2 23.6 1.2 0.6 4 2.4 6.3 3.9 2.4 1.5 4.6 2.7 5.1 2.7 0.4 0 1.8 0.8 3.2 1.8 1.3 0.9 4.8 3.1 7.7 4.7 2.9 1.7 16 9.1 29 16.6 13.1 7.5 24.5 13.9 25.3 14.3 0.8 0.4 3.8 2 6.5 3.6 2.8 1.6 7 4 9.5 5.3 2.5 1.3 11.4 6.3 19.9 11 11.9 6.6 15.7 8.2 16.6 7.4 0.7 -0.7 1.1 -1.5 0.9 -1.8z m24.3 -40.9 c-0.2 -1.2 2.7 -6 3.6 -6 0.6 0 0.8 -0.3 0.4 -0.6 -0.3 -0.4 0 -1.9 0.9 -3.5 l1.4 -2.9 -9.7 -5 c-5.4 -2.8 -12.5 -6.6 -15.8 -8.5 -3.3 -1.8 -6.7 -3.7 -7.5 -4.1 -1.6 -0.7 -34.6 -19 -42.8 -23.6 -2.6 -1.5 -5.4 -3 -6.2 -3.4 -1.4 -0.7 -46.7 -26.3 -54.8 -31.1 -2 -1.2 -5 -2.9 -6.7 -3.7 -1.6 -0.9 -4.7 -2.6 -6.7 -3.9 -2.1 -1.2 -5.9 -3.4 -8.5 -4.8 -2.7 -1.5 -8.4 -5 -12.8 -7.8 -4.4 -2.8 -9.3 -5.8 -11 -6.7 -3.4 -1.9 -12 -7.4 -28.3 -18.2 -8.5 -5.6 -11.6 -7.2 -12.5 -6.3 -0.6 0.6 -0.7 1.1 -0.2 1.1 0.5 0 0 0.6 -1 1.4 -1.7 1.2 -1.7 1.6 -0.5 3 0.7 1 3.4 2.9 5.9 4.4 2.5 1.4 7.8 4.7 11.6 7.2 3.9 2.6 11.7 7.7 17.5 11.5 5.8 3.7 16.8 10.9 24.5 16 7.7 5.1 17.2 11.2 21 13.7 3.9 2.5 12.3 8 18.8 12.2 6.5 4.2 12.1 7.6 12.4 7.6 0.4 0 1.4 0.6 2.2 1.4 0.9 0.8 2.7 2.1 4.1 2.8 1.4 0.7 5 3 8 5 3 2 15.9 9.9 28.5 17.7 12.7 7.8 23.7 14.6 24.5 15.1 0.8 0.6 2.4 1.5 3.5 2 1.1 0.6 9.2 5.5 18 10.9 11.7 7.2 16.3 9.5 17.1 8.7 0.7 -0.6 1.2 -1.3 1.1 -1.6z m13.4 -27.2 c1.2 -2.4 2.4 -4.5 2.8 -4.8 0.3 -0.3 0.7 -1.2 0.9 -2 0.2 -0.8 1.9 -5 3.8 -9.3 1.9 -4.3 3.4 -8.3 3.4 -9 0 -1.4 -1.8 -2.6 -11 -7.5 -3.6 -1.9 -8.4 -4.7 -10.8 -6.3 -2.4 -1.6 -4.5 -2.9 -4.7 -2.9 -0.3 0 -14.4 -8.2 -20.5 -12 -0.8 -0.5 -7.8 -4.7 -15.4 -9.2 -7.6 -4.6 -15.1 -9.1 -16.5 -10 -1.4 -1 -3.3 -2.1 -4.1 -2.5 -0.8 -0.3 -4.1 -2.4 -7.3 -4.5 -3.2 -2.1 -6.1 -3.8 -6.3 -3.8 -0.3 0 -3.2 -1.8 -6.4 -4 -3.2 -2.2 -6.2 -4 -6.5 -4 -0.3 0 -3.2 -1.7 -6.3 -3.8 -3.1 -2.1 -6.4 -4.2 -7.2 -4.5 -1.6 -0.7 -3.9 -2.1 -8.5 -5.2 -3.6 -2.4 -5.9 -3.8 -10.2 -6 -1.8 -0.9 -3.7 -2.3 -4.4 -3.1 -0.6 -0.8 -1.5 -1.4 -1.9 -1.4 -1.1 0 -23 -13.5 -32.7 -20.1 -2.3 -1.6 -4.4 -2.9 -4.7 -2.9 -0.3 0 -6 -3.6 -12.7 -8.1 -11.5 -7.7 -12.1 -8 -13.9 -6.4 -1.1 1 -1.8 2.1 -1.5 2.4 0.2 0.4 -1.2 2.2 -3.1 4 -1.9 1.9 -3.4 3.7 -3.4 4.2 0 0.4 -1.3 2.2 -3 4 -1.6 1.8 -2.8 3.5 -2.6 3.7 0.2 0.2 -0.6 1.4 -1.9 2.8 -1.3 1.4 -2.2 3.1 -2.1 3.9 0.2 1.2 30.8 20.5 32.4 20.5 0.2 0 1.8 1 3.5 2.3 1.8 1.2 4 2.7 4.9 3.2 3.8 2.2 31.7 20.1 38.5 24.6 4 2.7 7.5 4.9 7.8 4.9 0.4 0 2.1 1.1 3.9 2.5 1.8 1.4 3.6 2.5 4 2.5 0.4 0 2.2 1.1 3.9 2.4 1.8 1.3 5.1 3.4 7.4 4.7 2.4 1.3 12.7 7.6 22.9 13.9 10.3 6.3 19.4 11.8 20.3 12.3 0.9 0.4 3 1.6 4.6 2.7 1.7 1.1 3.9 2.4 5 3 1.1 0.6 3.2 1.8 4.7 2.8 5.6 3.6 44.6 26.2 45.3 26.2 0.4 0 1.8 0.9 3.2 2 1.4 1.1 2.9 2 3.4 2 0.5 0 1.8 -1.9 3 -4.2z m17.2 -39 c0.7 -0.7 1.4 -2.2 1.5 -3.3 0.2 -1.1 0.9 -2.3 1.5 -2.7 0.7 -0.4 0.9 -0.8 0.5 -0.8 -0.4 0 1.1 -5 3.3 -11.1 l4 -11.2 -2.3 -1.6 c-1.3 -0.9 -4.3 -2.6 -6.8 -3.8 -2.5 -1.3 -5.2 -2.7 -6 -3.3 -1.4 -0.9 -28.5 -16 -37.3 -20.8 -2.3 -1.2 -6 -3.3 -8.2 -4.7 -2.2 -1.3 -5.3 -3.1 -7 -4 -5 -2.7 -8.3 -4.6 -28.9 -16.5 -10.8 -6.3 -22.1 -12.8 -24.9 -14.4 -2.9 -1.5 -5.9 -3.4 -6.7 -4 -0.8 -0.7 -2.2 -1.6 -3 -2 -0.8 -0.3 -2.8 -1.5 -4.5 -2.6 -1.6 -1.1 -3.7 -2.3 -4.5 -2.7 -1.6 -0.7 -26.5 -15.7 -30.5 -18.3 -1.2 -0.8 -4.4 -2.8 -7.1 -4.5 -2.7 -1.6 -8.7 -5.5 -13.3 -8.7 -4.6 -3.2 -9 -5.8 -9.6 -5.8 -1.4 0 -4.7 3.4 -4 4.2 0.3 0.2 -1.3 1.9 -3.6 3.7 -2.2 1.8 -3.8 3.6 -3.5 3.9 0.4 0.3 -0.4 1.6 -1.6 2.9 -2.6 2.7 -2.2 3.3 5.3 7.8 8 4.9 21.4 13.5 56.4 36.7 39.7 26.3 69.3 45.6 84.7 55.3 0.9 0.6 7 4.4 13.5 8.6 26.3 17 38.9 24.8 40.1 24.8 0.7 0.1 1.9 -0.5 2.5 -1.1z m17.2 -49.3 c0.9 -3.6 1.6 -6.7 1.4 -6.8 -0.2 -0.1 -1.8 -1.2 -3.5 -2.4 -1.7 -1.2 -4.7 -2.9 -6.5 -3.7 -5.4 -2.5 -16.3 -8.6 -18 -10.2 -0.8 -0.8 -1.9 -1.4 -2.3 -1.4 -0.6 0 -33.1 -19.1 -39.4 -23.2 -1.5 -1 -3.6 -2.2 -4.7 -2.8 -2.6 -1.3 -5.2 -3 -9.2 -5.7 -1.7 -1.3 -3.4 -2.3 -3.7 -2.3 -0.3 0 -8.5 -5 -18.3 -11.1 -9.8 -6.1 -18.7 -11.6 -19.8 -12.2 -1.1 -0.7 -3.4 -2.2 -5.2 -3.4 -1.7 -1.3 -3.5 -2.3 -3.9 -2.3 -0.4 0 -2.2 -1.1 -4 -2.5 -1.8 -1.4 -3.5 -2.5 -3.9 -2.5 -0.7 0 -31.5 -20.9 -37.5 -25.4 l-4.5 -3.4 -5.7 5.4 -5.7 5.5 7.6 4.7 c4.1 2.6 9.6 6.1 12.2 7.7 5.4 3.5 6.3 4 15.1 9.5 7.2 4.5 8.2 5.2 30.6 19.5 8.7 5.5 16.2 10.2 16.8 10.4 0.6 0.2 2.5 1.5 4.2 2.8 1.7 1.2 3.4 2.3 3.7 2.3 0.3 0 3.2 1.7 6.4 3.8 3.2 2 6.7 4.2 7.8 4.9 1.1 0.6 6.7 4.1 12.5 7.6 50.2 30.7 72 43.6 74.1 43.6 1.1 0.1 2.1 -1.8 3.4 -6.4z m5.4 -22.2 c0.6 -1.3 5.1 -21.1 5.1 -22.8 0 -0.4 -6.8 -4.6 -11 -6.7 -1.9 -1 -5.3 -2.9 -7.5 -4.3 -2.2 -1.3 -4.7 -2.7 -5.5 -3.1 -0.8 -0.4 -6.1 -3.5 -11.8 -6.8 -5.7 -3.4 -11.1 -6.5 -12 -7.1 -18.5 -10.7 -22.9 -13.3 -25.1 -14.7 -1.4 -0.9 -4.3 -2.6 -6.5 -3.8 -2.1 -1.1 -6.4 -3.7 -9.5 -5.8 -3.1 -2 -6.5 -4.1 -7.6 -4.7 -1.9 -1.1 -23.8 -14.5 -30.9 -19 -9.7 -6.1 -22 -14.6 -28.7 -19.6 -8.3 -6.3 -10.5 -6.6 -13.4 -2.3 -0.8 1.3 -2.2 2.4 -3 2.4 -0.8 0 -1.9 0.9 -2.5 2 -0.6 1.2 -2.2 2.5 -3.5 3 -1.4 0.5 -2.2 1.6 -2.1 2.6 0.2 1.5 4.3 5.3 5.7 5.4 1.2 0 30.8 19.2 58.9 38 4.7 3.1 15.5 10.1 24 15.5 8.5 5.4 18 11.4 21 13.4 3 2 6.4 4.2 7.5 4.8 3.8 2.4 36.1 22.6 46 28.9 5.5 3.4 10.3 6.3 10.7 6.3 0.4 0.1 1.1 -0.7 1.7 -1.6z m7.6 -40.5 c1.2 -5.1 2 -26 1 -26.8 -0.5 -0.4 -6.4 -3.5 -13 -6.8 -6.6 -3.3 -16.7 -8.6 -22.5 -11.7 -5.8 -3.2 -13.4 -7.3 -17 -9.2 -3.6 -1.9 -9.2 -4.9 -12.5 -6.8 -3.3 -1.8 -7.3 -4 -9 -4.9 -7.2 -3.8 -41.4 -23.6 -46.3 -26.8 -1.5 -1 -3.4 -2.1 -4.2 -2.4 -0.8 -0.4 -2.9 -1.7 -4.6 -3 -4.5 -3.3 -10.3 -6.4 -12 -6.4 -0.8 0 -1.7 0.7 -2 1.5 -0.4 0.8 -1.2 1.5 -2 1.5 -0.8 0 -1.4 0.5 -1.4 1 0 0.6 -0.7 1 -1.5 1 -0.9 0 -1.8 0.7 -2.1 1.5 -0.4 0.8 -1.1 1.5 -1.8 1.5 -0.6 0 -1.9 1.2 -2.9 2.5 l-1.7 2.4 4.7 2.7 c2.7 1.5 11.3 6.5 19.2 11.3 8 4.7 15.6 9.3 17 10.1 1.4 0.8 4.6 2.9 7.1 4.5 2.5 1.7 5.3 3.5 6.2 4 0.9 0.6 12.6 7.9 26 16.4 13.4 8.5 25.2 15.9 26.3 16.5 1.1 0.6 3.4 2 5 3.1 3.6 2.4 4.6 3 15 9.3 4.4 2.7 11.6 7.1 16 9.9 11.3 7.1 12.2 7.3 13 4.1z m1.5 -49.3 c0 -13.5 -5.2 -35.1 -11.5 -48.1 -5 -10.3 -12.5 -19.3 -20.4 -24.3 -14.4 -9.3 -35.6 -10.5 -60 -3.5 -12 3.5 -28.2 10.6 -27.9 12.2 0.3 1.3 6 5 13.3 8.7 1.7 0.9 4.4 2.4 6 3.5 1.7 1.1 4.1 2.5 5.5 3.1 1.4 0.6 3.2 1.6 4 2.4 0.8 0.7 4 2.6 7 4.2 5.3 2.9 34 19.4 37 21.4 0.8 0.5 2.9 1.6 4.5 2.5 1.7 0.8 4.8 2.6 7 4 2.2 1.3 5.4 3.1 7 3.9 1.7 0.9 8.4 4.6 15 8.4 6.6 3.7 12.3 6.6 12.8 6.4 0.4 -0.2 0.7 -2.4 0.7 -4.8z m353.5 -211 c67.3 -7.1 124.8 -23.8 185.5 -53.8 12.4 -6.1 23 -11.5 23.5 -11.9 0.6 -0.5 6.9 -4.3 14 -8.6 7.2 -4.3 14.1 -8.4 15.4 -9.2 1.4 -0.8 3.4 -2.3 4.5 -3.2 1.1 -1 2.4 -1.8 2.8 -1.8 0.5 0 1.8 -0.9 3 -2 1.2 -1.1 3.4 -2.6 5 -3.2 1.5 -0.7 2.8 -1.6 2.8 -2 0 -0.5 0.4 -0.8 0.9 -0.8 0.6 0 2.2 -1.1 3.7 -2.5 1.5 -1.4 3.3 -2.5 4 -2.5 0.8 0 1.4 -0.4 1.4 -0.8 0 -0.9 9.6 -8.2 10.7 -8.2 0.5 0 1.4 -0.9 2.1 -2 0.7 -1.1 1.8 -2 2.5 -2 0.7 0 1.8 -0.9 2.5 -2 0.7 -1.1 1.8 -2 2.5 -2 0.7 0 1.8 -0.9 2.5 -2 0.7 -1.1 1.8 -2 2.5 -2 0.7 0 2.3 -1.3 3.5 -3 1.3 -1.6 2.8 -3 3.5 -3 0.7 0 2.5 -1.6 4 -3.5 1.5 -1.9 3.3 -3.5 3.9 -3.5 0.6 0 3.5 -2.7 6.5 -6 3 -3.3 6 -6 6.7 -6 1.5 0 20.8 -19.4 20.1 -20.2 -0.4 -0.3 1.9 -2.7 4.9 -5.3 3 -2.7 5.3 -5.2 5 -5.6 -0.2 -0.4 1.4 -2.2 3.6 -4 2.1 -1.7 3.7 -3.5 3.5 -4 -0.3 -0.4 1 -2 3 -3.4 1.9 -1.5 3.3 -3.1 3 -3.5 -0.3 -0.4 0.7 -1.5 2 -2.4 1.4 -0.9 2.3 -2.1 2 -2.5 -0.2 -0.5 0.7 -1.6 2 -2.5 1.4 -0.9 2.3 -2.1 2 -2.6 -0.3 -0.5 0.6 -1.7 2 -2.6 1.3 -0.9 2.2 -2 2 -2.5 -0.3 -0.4 0.4 -1.3 1.5 -1.9 1.1 -0.6 1.8 -1.5 1.5 -2.1 -0.4 -0.5 0.1 -1.2 0.9 -1.5 0.9 -0.3 1.6 -1.2 1.6 -2 0 -0.7 0.9 -1.9 2 -2.7 1.1 -0.8 1.7 -1.6 1.4 -2 -0.3 -0.3 0.4 -1 1.5 -1.7 1.2 -0.6 1.9 -1.5 1.6 -2.1 -0.4 -0.5 -0.1 -0.9 0.4 -0.9 0.6 0 1.1 -0.7 1.1 -1.5 0 -0.9 0.7 -1.8 1.5 -2.1 0.8 -0.4 1.3 -1 1 -1.5 -0.3 -0.4 0.4 -1.3 1.5 -1.9 1.1 -0.6 1.8 -1.5 1.5 -1.9 -0.3 -0.5 0.2 -1.2 1.1 -1.5 0.8 -0.3 1.3 -1 1 -1.5 -0.3 -0.5 0.1 -1.2 1 -1.5 0.8 -0.3 1.3 -1 1 -1.5 -0.3 -0.5 0.1 -1.2 1 -1.5 0.8 -0.3 1.2 -1 0.9 -1.6 -0.3 -0.5 -0.1 -1 0.5 -1 0.6 0 0.8 -0.5 0.5 -1 -0.3 -0.6 0.1 -1.3 0.9 -1.6 0.9 -0.3 1.3 -1 1 -1.5 -0.3 -0.5 0.2 -1.2 1 -1.5 0.9 -0.3 1.4 -1 1.1 -1.4 -0.3 -0.4 0.2 -1.1 1.1 -1.4 0.8 -0.3 1.2 -1 0.9 -1.6 -0.3 -0.5 -0.1 -1 0.5 -1 0.6 0 0.9 -0.4 0.6 -0.9 -0.3 -0.5 0.1 -1.2 1 -1.5 0.8 -0.3 1.2 -1 0.9 -1.6 -0.3 -0.5 -0.1 -1 0.5 -1 0.6 0 0.8 -0.4 0.5 -1 -0.3 -0.5 -0.2 -1 0.3 -1 0.6 0 1.3 -1.1 1.6 -2.5 0.4 -1.4 1.1 -2.5 1.7 -2.5 0.6 0 0.7 -0.5 0.4 -1 -0.3 -0.6 0.1 -1.3 0.9 -1.6 0.9 -0.3 1.3 -1 1 -1.5 -0.3 -0.5 0 -0.9 0.6 -0.9 0.6 0 0.8 -0.4 0.5 -1 -0.3 -0.5 -0.1 -1 0.5 -1 0.6 0 0.9 -0.4 0.6 -0.8 -0.3 -0.5 0.3 -1.8 1.4 -2.9 1 -1.2 1.6 -2.4 1.3 -2.7 -0.4 -0.3 -0.1 -0.6 0.5 -0.6 0.7 0 1.1 -0.3 1 -0.7 -0.4 -1.5 1.4 -5.3 2.4 -5.3 0.6 0 0.9 -0.3 0.5 -0.6 -0.7 -0.8 5.1 -12.6 6.7 -13.6 0.6 -0.4 0.8 -0.8 0.3 -0.8 -0.4 0 0.7 -2.8 2.5 -6.2 1.8 -3.5 3.2 -6.5 3.3 -6.8 0.5 -2.4 1.8 -5 2.6 -5 0.5 0 0.8 -0.3 0.8 -0.7 -0.3 -2.1 0.2 -4.3 1.4 -5.5 0.6 -0.7 1.3 -2 1.5 -2.8 0.2 -0.8 2.7 -7.8 5.6 -15.5 38.3 -100.7 45.9 -209.7 22 -313.5 -23 -99.4 -72.3 -188.2 -144.4 -260 -19.7 -19.7 -34 -32.1 -55.5 -48.3 -113.2 -85.3 -252.1 -122.8 -392.1 -105.7 -44 5.4 -92.7 18 -134.9 35 -13.1 5.3 -53.5 24.4 -54.5 25.8 -0.3 0.5 -2 1.4 -3.8 2.2 -4.7 1.8 -34.6 19.9 -35 21.1 -0.2 0.5 -1 0.9 -1.7 0.9 -0.7 0 -1.5 0.4 -1.7 0.8 -0.1 0.4 -4.8 3 -10.3 5.7 -5.5 2.8 -10.1 5.3 -10.3 5.8 -0.2 0.4 -1 0.7 -1.7 0.7 -0.7 0 -1.5 0.7 -1.9 1.5 -0.3 0.8 -1.2 1.5 -2 1.5 -0.7 0 -1.6 0.7 -2 1.5 -0.3 0.8 -1.1 1.5 -1.8 1.5 -0.7 0 -1.9 0.9 -2.6 2 -0.7 1.1 -1.8 2 -2.5 2 -0.7 0 -1.8 0.9 -2.5 2 -0.7 1.1 -1.8 2 -2.5 2 -0.7 0 -1.8 0.9 -2.5 2 -0.7 1.1 -1.8 2 -2.5 2 -0.7 0 -2.3 1.4 -3.5 3 -1.3 1.7 -2.8 3 -3.5 3 -0.7 0 -2.5 1.6 -4 3.5 -1.5 1.9 -3.3 3.5 -3.9 3.5 -0.5 0 -3.9 3.1 -7.5 7 -3.6 3.8 -7 7 -7.7 7 -1.5 0 -11.8 10.4 -11.1 11.2 0.3 0.3 -2.7 3.6 -6.7 7.4 -4 3.8 -7.2 7.2 -7.1 7.5 0.1 0.4 -1.4 2.2 -3.5 4 -2 1.8 -3.6 3.6 -3.5 4 0.2 0.4 -1.5 2.2 -3.7 3.9 -2.2 1.8 -3.8 3.6 -3.5 4 0.3 0.5 -0.8 1.8 -2.5 3 -1.7 1.2 -2.8 2.5 -2.5 3 0.3 0.5 -0.6 1.7 -2 2.8 -1.3 1.1 -2.2 2.2 -1.9 2.5 0.3 0.3 -0.6 1.3 -2 2.2 -1.4 1 -2.4 2.1 -2.1 2.5 0.3 0.5 -0.4 1.5 -1.5 2.3 -1.1 0.7 -1.7 1.6 -1.4 2 0.3 0.3 -0.6 1.3 -2 2.2 -1.4 1 -2.3 2.1 -2 2.6 0.3 0.5 -0.2 1.2 -1 1.5 -0.9 0.3 -1.4 1 -1.1 1.4 0.3 0.5 -0.5 1.6 -1.7 2.4 -1.2 0.9 -1.8 1.6 -1.3 1.6 0.6 0.1 0 0.9 -1.2 1.9 -1.2 1 -1.9 2.1 -1.6 2.5 0.3 0.3 -0.2 0.8 -1.1 1.2 -0.9 0.3 -1.4 1 -1.1 1.4 0.3 0.5 -0.4 1.5 -1.5 2.3 -1.1 0.7 -1.7 1.7 -1.4 2 0.4 0.4 -0.1 0.9 -1 1.3 -0.9 0.3 -1.3 1 -1 1.5 0.3 0.5 -0.2 1.2 -1 1.5 -0.9 0.3 -1.3 1 -1 1.5 0.3 0.5 -0.2 1.2 -1 1.5 -0.9 0.3 -1.3 1 -1 1.5 0.3 0.5 -0.2 1.2 -1 1.5 -0.9 0.3 -1.3 1 -1 1.5 0.3 0.5 -0.2 1.2 -1 1.5 -0.9 0.3 -1.4 1 -1.1 1.4 0.3 0.4 -0.2 1.1 -1.1 1.4 -0.8 0.3 -1.2 1 -0.9 1.6 0.3 0.5 0.1 1 -0.5 1 -0.6 0 -0.8 0.5 -0.5 1 0.3 0.6 -0.1 1.3 -0.9 1.6 -0.9 0.3 -1.3 1 -1 1.5 0.3 0.5 0 0.9 -0.6 0.9 -0.6 0 -0.8 0.5 -0.5 1 0.3 0.6 -0.1 1.3 -0.9 1.6 -0.9 0.3 -1.3 1 -1 1.5 0.3 0.5 -0.2 1.2 -1 1.5 -0.9 0.3 -1.3 1 -1 1.5 0.3 0.5 0 0.9 -0.6 0.9 -0.6 0 -0.9 0.4 -0.5 1 0.3 0.5 -0.3 1.8 -1.4 2.9 -1.1 1.1 -1.7 2.2 -1.4 2.5 0.4 0.3 0.1 0.6 -0.6 0.6 -0.7 0 -1 0.4 -0.6 1 0.3 0.5 -0.3 1.8 -1.4 2.9 -1.1 1.1 -1.7 2.2 -1.4 2.5 0.4 0.3 0.1 0.6 -0.6 0.6 -0.7 0 -0.9 0.5 -0.6 1 0.3 0.6 0.1 1 -0.5 1 -0.6 0 -0.8 0.5 -0.5 1 0.3 0.6 0.1 1 -0.5 1 -0.6 0 -0.8 0.4 -0.5 1 0.3 0.5 0.1 1 -0.5 1 -0.6 0 -0.8 0.5 -0.5 1 0.3 0.6 -0.1 1.3 -0.9 1.6 -0.9 0.3 -1.3 1 -1 1.5 0.3 0.5 0 0.9 -0.6 0.9 -0.6 0 -0.8 0.5 -0.5 1 0.3 0.5 0.1 1 -0.5 1 -0.6 0 -0.8 0.4 -0.5 1 0.3 0.5 0.1 1 -0.5 1 -0.6 0 -0.8 0.5 -0.5 1 0.3 0.5 0.1 1 -0.5 1 -0.6 0 -0.8 0.4 -0.5 1 0.3 0.5 0.1 1 -0.5 1 -0.6 0 -0.8 0.4 -0.5 1 0.3 0.5 0.1 1 -0.5 1 -0.6 0 -0.8 0.5 -0.5 1 0.3 0.6 0.1 1 -0.5 1 -0.6 0 -0.8 0.5 -0.5 1 0.3 0.6 0.1 1 -0.5 1 -0.6 0 -0.8 0.5 -0.5 1 0.3 0.5 0.1 1 -0.5 1 -0.6 0 -0.9 0.4 -0.6 0.9 0.4 0.5 0.1 1.1 -0.4 1.3 -0.6 0.2 -1.2 1.3 -1.3 2.6 0 1.2 -0.5 2.2 -1 2.2 -0.4 0 -0.5 0.4 -0.2 1 0.3 0.5 0.1 1 -0.5 1 -0.6 0 -0.8 0.5 -0.5 1 0.3 0.6 0.1 1 -0.5 1 -0.6 0 -0.8 0.5 -0.5 1 0.3 0.5 0.1 1 -0.5 1 -0.7 0 -1 0.6 -0.8 1.2 0.3 0.7 -0.1 1.9 -0.9 2.6 -0.7 0.8 -1.1 1.8 -0.8 2.3 0.4 0.5 0.1 0.9 -0.5 0.9 -0.7 0 -1 0.7 -0.6 1.5 0.3 0.8 -0.2 2.1 -1 3 -0.8 0.8 -1.3 1.9 -1 2.4 0.4 0.5 0.2 1.1 -0.3 1.3 -0.5 0.1 -1.1 1 -1.3 1.8 -0.2 0.8 -0.6 1.7 -1 2 -0.4 0.3 -1 1.7 -1.2 3 -0.2 1.4 -0.5 2.6 -0.5 2.8 -0.1 0.1 -0.1 0.5 0 0.8 0 0.4 -0.4 1 -1.1 1.4 -0.6 0.4 -1.2 1.7 -1.3 2.8 -0.1 1.2 -0.4 2.2 -0.8 2.2 -0.6 0 -1.7 3.3 -2.4 7 0 0.3 -0.6 1.5 -1.3 2.8 -0.7 1.2 -1 2.6 -0.7 3.1 0.3 0.5 0 1.1 -0.6 1.3 -0.6 0.2 -1.1 1.6 -1.1 3.1 0 1.5 -0.4 2.7 -0.9 2.7 -0.5 0 -0.6 0.7 -0.3 1.5 0.4 0.8 0.1 1.5 -0.5 1.5 -0.6 0 -0.8 0.7 -0.5 1.5 0.4 0.8 0.2 1.5 -0.3 1.5 -0.9 0 -3.4 6.7 -3.7 10 -0.1 0.9 -0.5 2 -0.8 2.6 -1.2 1.8 -8.6 32.3 -11.2 45.9 -14.4 74.8 -13.8 140.9 2 217 13 63.1 42.4 132.2 80.7 189.5 29.2 43.7 71.5 89.3 113.3 122 59.9 47 122.4 78.1 195.4 97.6 33 8.7 62.7 13.9 94.5 16.4 7.7 0.5 15.8 1.2 18 1.4 9.6 0.9 66 -0.4 80 -1.9z"/>
  <path d="M1167 956 c0.6 -1.1 1.5 -2 2 -2 1.7 0 1.1 1.5 -1.1 2.8 -1.9 1.2 -1.9 1.1 -0.9 -0.8z"/>
  <path d="M836.2 245.9 c0.2 -0.7 1 -1.5 1.7 -1.7 0.8 -0.3 1.2 0.1 0.9 0.9 -0.2 0.7 -1 1.5 -1.7 1.7 -0.8 0.3 -1.2 -0.1 -0.9 -0.9z"/>
  <path d="M1009.7 191.3 c-1.3 -1.2 -0.7 -2.5 0.8 -1.9 0.9 0.3 1.5 0 1.5 -0.9 0 -0.8 0.5 -1.5 1 -1.5 0.6 0 1 0.4 1 0.8 0 1.4 -3.6 4.3 -4.3 3.5z"/>
  <path d="M1015.2 186.8 c0.5 -1.5 2.8 -2.3 2.8 -1 0 0.5 -0.7 1.3 -1.6 1.6 -1 0.4 -1.4 0.1 -1.2 -0.6z"/>
 </g>
</svg>