<?xml version="1.0" encoding="utf-8"?>
<!DOCTYPE svg PUBLIC "-//W3C//DTD SVG 1.0//EN" "http://www.w3.org/TR/2001/REC-SVG-20010904/DTD/svg10.dtd">
<svg version="1.0" xmlns="http://www.w3.org/2000/svg" width="2500px" height="2500px" viewBox="0 0 2500 2500" preserveAspectRatio="xMidYMid meet">
 <g fill="#2b3f45">
  <path d="M904 1767.2 c-4.9 -5.1 -12 -18.1 -19 -34.7 -2.3 -5.5 -7.9 -17.9 -12.5 -27.5 -10.2 -21.5 -13.5 -31.6 -13.5 -41.1 0 -7 0 -7 -7.2 -17.9 l-7.1 -10.9 -2.8 1.5 c-3.4 1.7 -12 1.9 -13.7 0.2 -0.7 -0.7 -1.2 -2.9 -1.2 -5 0 -3.5 -0.2 -3.8 -2.8 -3.8 -4.1 0 -5.2 -1.7 -5.2 -8 0 -4.6 0.6 -6.5 3.4 -11 2.7 -4.3 3.2 -5.8 2.5 -7.8 -0.5 -1.3 -0.9 -5.4 -0.9 -9.1 0 -9.7 2 -12.1 9.9 -12.1 4.4 0 6.6 0.6 9.2 2.3 3.2 2.2 3.7 2.2 6.9 0.9 4 -1.6 17.3 -1 19.6 0.9 2.7 2.2 1.6 8.8 -2.6 16.1 -2.2 3.9 -4 7.3 -4 7.6 0 0.6 12.9 26.2 13.6 27.1 0.2 0.2 2.7 -1.4 5.6 -3.7 10.1 -7.7 25.4 -17.3 34.8 -22 l9.5 -4.7 11.2 0 c6.2 0 11.3 -0.1 11.3 -0.1 0 -1.6 -16.2 -38.9 -21.6 -49.5 -7 -14 -7.4 -15 -7.4 -21.5 0 -9.1 2.3 -13.5 11.8 -22.6 8.8 -8.4 23.8 -20.6 32.9 -26.7 9.1 -6 34.6 -18.6 45.5 -22.3 11.8 -4 25.4 -5 32.3 -2.4 8.4 3.2 11.4 7.6 27.2 39 8 15.9 21 40.8 28.8 55.1 22.7 41.3 27.9 54.5 27.9 69.5 0 6.7 -0.4 9.3 -2.1 12.5 -2.7 5 -8.7 10.7 -17.8 17 -3.8 2.6 -10.8 8 -15.5 12 -4.7 4 -12.1 9.6 -16.5 12.5 -4.4 2.9 -13.2 9.4 -19.5 14.4 -22.3 17.7 -31.4 23.6 -36.7 23.6 -3.7 0 -4.7 0.8 -7.2 5.7 -2.3 4.7 -11.3 13.9 -18 18.6 -2.4 1.6 -7.9 4.5 -12.1 6.3 -7.6 3.2 -23.8 12.1 -31.5 17.4 -2.2 1.5 -5 3.2 -6.2 3.9 -3.7 1.9 -21.1 5.1 -28.1 5.1 -6.5 0 -6.6 0 -11.2 -4.8z m18.7 -25.1 c6.5 -1.8 6.6 -2.1 3.4 -8.2 -1.7 -3 -4.7 -10.4 -6.7 -16.4 -4.8 -14.4 -4.5 -19.2 1.7 -24.7 10.4 -9.4 22.9 -7 30.4 5.8 2.9 4.9 7.5 17.6 7.5 20.6 0 1 0.2 1.8 0.5 1.8 2.2 0 14.3 -6.9 18.1 -10.3 l4.6 -4.2 -4.4 -8.5 c-2.5 -4.7 -9.5 -18.1 -15.6 -29.9 -10.7 -20.4 -19.5 -34.1 -23.1 -36.1 -4.1 -2.2 -33.8 15.4 -47.5 28.2 l-7 6.4 2.8 7.8 c2.6 7.3 7.3 18.6 22 52.1 3.6 8.3 6.6 15.6 6.6 16.4 0 0.7 0.6 1.1 1.4 0.8 0.8 -0.3 3.2 -1.1 5.3 -1.6z m93.2 -66.9 c2 -1.6 7.8 -5.7 12.9 -9.1 5 -3.5 9.2 -6.5 9.2 -6.7 0 -0.2 -2 -3.4 -4.4 -7.1 -2.4 -3.7 -6.7 -11.1 -9.7 -16.3 -5 -8.8 -5.4 -10 -5.4 -16.2 0 -8.4 1.7 -10.9 11.1 -16.3 5.9 -3.3 8 -4 14 -4.3 9.7 -0.5 14.1 1.7 19.4 10 3.5 5.4 10 20.2 10 22.8 0 1.6 0.5 1.3 7.3 -3.8 3.5 -2.6 7.4 -5.4 8.8 -6.3 l2.4 -1.6 -2.4 -5.9 c-1.3 -3.3 -9.7 -20.6 -18.7 -38.6 -9 -17.9 -18.6 -37.7 -21.5 -43.9 -5.8 -12.9 -14.1 -27.8 -17.2 -31.4 l-2.2 -2.5 -10 4.4 c-22.3 9.6 -51.3 25.7 -64.5 35.6 l-2.2 1.7 2.5 5 c1.4 2.8 6.4 14.7 11.1 26.4 4.6 11.8 13.2 31.8 19.1 44.4 10.7 23 22.2 50.2 24.6 58.3 0.7 2.3 1.4 4.2 1.7 4.2 0.2 0 2.1 -1.3 4.1 -2.8z"/>
  <path d="M894.6 1685.9 c-2.2 -2.6 -2.6 -4 -2.6 -9.4 0 -5.8 0.3 -6.6 3.2 -9.5 3.1 -3.1 3.4 -3.2 10.5 -2.8 l7.3 0.3 0 -4.2 c0 -5.6 3.3 -8.3 10.1 -8.3 2.6 0 5.5 0.3 6.4 0.6 3.8 1.5 5.8 10.5 3.4 15.8 -1.4 3 -6.6 5 -11.5 4.4 -3.3 -0.4 -3.4 -0.3 -3.4 3.4 0 4.9 -2.2 10.3 -4.8 11.7 -1.2 0.6 -5.2 1.1 -9 1.1 -6.6 0 -7.2 -0.2 -9.6 -3.1z"/>
  <path d="M997.2 1602.8 c-1.5 -1.5 -1.6 -9.2 -0.2 -11.9 0.9 -1.5 2.2 -1.9 6.3 -1.9 2.9 0 5.8 0.5 6.5 1.2 1.5 1.5 1.6 9.2 0.2 11.9 -0.9 1.5 -2.2 1.9 -6.3 1.9 -2.9 0 -5.8 -0.5 -6.5 -1.2z"/>
  <path d="M984.4 1586 c-3.8 -1.5 -5.4 -5 -5.4 -11.8 0 -5.3 0.4 -6.7 2.4 -8.6 l2.3 -2.4 -3.8 -0.6 c-5.5 -0.9 -7.9 -4.4 -7.9 -11.8 0 -4.9 0.4 -6.3 2.5 -8.3 2.1 -2.1 3.3 -2.5 8.9 -2.5 5.4 0 7 0.4 9.2 2.3 3.7 3.2 4.5 11.4 1.6 17 l-2 3.7 2.5 0 c1.3 0 3.5 1.1 4.8 2.5 2.2 2.1 2.5 3.3 2.5 9.2 -0.1 7 -0.9 9.1 -4.7 11.1 -2.5 1.4 -9.8 1.5 -12.9 0.2z"/>
  <path d="M1034.9 1582.9 c-2.7 -2.8 -2.9 -3.7 -2.9 -10.4 l0 -7.3 -4.5 -0.6 c-6.3 -1 -8.5 -4.3 -8.5 -12.9 0 -5 0.5 -7 2.1 -9.1 l2 -2.6 -4.1 0 c-3.3 0 -4.8 -0.6 -7.1 -2.9 -2.6 -2.7 -2.9 -3.5 -2.9 -9.8 0.1 -9.8 3.4 -13.3 12.7 -13.3 6.3 0 10.7 2.7 12.3 7.5 1.6 5 0.6 12.3 -2.2 15.2 l-2.1 2.3 4.4 0 c2.5 0 5.4 0.7 6.6 1.5 2.8 2 4.7 7.8 4 12.6 -0.5 3.8 -0.4 3.9 2.5 3.9 3.7 0 9.6 2.7 10.7 4.9 1.7 3.1 2.3 10.7 1.2 14.8 -0.7 2.5 -2.4 5.2 -4.2 6.7 -2.6 2.3 -4 2.6 -10.1 2.6 -6.5 0 -7.2 -0.2 -9.9 -3.1z"/>
  <path d="M1605.4 1399.6 c-1.7 -0.7 -4.1 -2.7 -5.3 -4.2 -1.2 -1.6 -4.1 -3.6 -6.4 -4.4 -7.9 -2.9 -10.7 -11.6 -16.1 -50 -7.9 -55.7 -14.1 -125.4 -14.1 -157.5 0.1 -10.2 1.9 -15.2 7.7 -20 3.6 -3.1 14.8 -8.6 21.6 -10.6 5 -1.4 4.7 1 2.6 -26.2 -0.8 -11.1 -1.6 -30.8 -1.7 -43.8 -0.2 -28.2 -0.3 -27.9 9.6 -27.9 5.3 0 6.2 0.3 8.7 3 5.9 6.3 11.6 27 17 61.3 1.7 10.9 3.4 20.5 3.7 21.3 0.3 0.8 1.4 1.2 2.7 0.9 8.5 -1.9 12.4 -2.5 20.7 -3.1 10.4 -0.7 16 0.3 20.4 3.8 3.5 2.7 8.5 13.6 11.4 24.6 3.7 14 17.8 81.7 23.1 111.4 2.8 15.5 5.3 28.4 5.5 28.6 0.2 0.3 0.3 -5.8 0.2 -13.4 -0.2 -15.4 0.3 -17.2 6.5 -23 4.7 -4.5 7.8 -5.8 24 -10.4 21.4 -6.1 30.4 -7.3 48.8 -6.7 20.6 0.7 26.4 2.9 30.1 11.2 1.6 3.7 10.8 47.8 15.5 74.5 0.9 5.4 1.7 15.5 1.8 23.6 0.1 13.3 0 14.2 -2.3 17.6 -5.8 8.5 -11.6 10 -40.1 10.5 -11.8 0.2 -27.5 0.6 -34.7 0.9 -13 0.6 -13.4 0.6 -18.8 -2 -3.2 -1.6 -6.2 -3.9 -7.2 -5.7 -1.5 -2.5 -2.3 -2.9 -6.3 -2.9 -4.3 0 -4.7 0.2 -5.9 3.5 -1.7 4.9 -5.6 9.2 -10.5 11.7 -5.7 2.9 -21 3.9 -59.1 3.8 -17 0 -35.3 0.2 -40.5 0.5 -7 0.4 -10.3 0.2 -12.6 -0.9z m18.4 -32.2 l3.2 -0.5 -2.7 -4.7 c-2.6 -4.3 -2.8 -5.6 -2.8 -14.7 0.1 -22.8 8.1 -34.4 23.9 -34.5 15.8 0 24.3 13.2 23.4 36.6 -0.3 8.2 -0.6 9.6 -3.6 14.4 l-3.3 5.3 16 -0.6 c8.9 -0.3 16.5 -0.8 17 -1.1 0.5 -0.3 -0.7 -7 -2.6 -14.8 -5.4 -22.5 -13.3 -63.8 -18.3 -95.8 -3.6 -23.1 -13.1 -71 -15.8 -79.5 -1.8 -5.9 -1.9 -6 -5.3 -5.7 -1.9 0.1 -9.5 2 -16.9 4.2 -7.4 2.1 -18.4 5.3 -24.3 7 -15.5 4.4 -16.3 4.9 -17.1 11 -0.7 5.1 1.1 37.6 4 71.5 0.8 9.9 3.5 32 5.9 49 2.4 17.1 4.7 34.6 5 39 0.3 4.4 0.8 9.7 1.1 11.8 l0.6 3.8 4.6 -0.6 c2.6 -0.3 6.2 -0.8 8 -1.1z m137 -10 c12 -2.5 13.7 -2.6 30.5 -1.9 l17.8 0.7 -0.6 -5.3 c-0.4 -3 -2.2 -14.6 -4.1 -25.9 -1.8 -11.3 -3.8 -24.3 -4.4 -29 -1.6 -12.2 -1.5 -12 -6.3 -12 -6.9 0.1 -18.5 2.5 -33.3 7 -7.6 2.3 -14 4.3 -14.2 4.5 -0.1 0.1 -0.3 14.9 -0.5 32.8 -0.2 26.1 0.1 32.6 1.1 32.2 0.7 -0.2 7 -1.6 14 -3.1z"/>
  <path d="M1611.7 1288.9 c-5 -2.9 -6.5 -14.7 -2.4 -19.4 3.8 -4.4 18.8 -6.2 22 -2.7 3.3 3.6 1.5 16.4 -2.8 20.8 -2 2 -3.4 2.4 -8.7 2.4 -3.5 0 -7.1 -0.5 -8.1 -1.1z"/>
  <path d="M1642.5 1266.4 c-3.5 -3.8 -3.5 -12.1 -0.1 -16.1 2.1 -2.5 3.1 -2.8 8.3 -2.8 4.5 0 6.5 0.5 9.1 2.3 2.9 2.2 3.2 2.8 3.2 7.8 0 4.8 -0.4 6 -2.9 8.5 -2.6 2.6 -3.6 2.9 -9.1 2.9 -5.3 0 -6.4 -0.3 -8.5 -2.6z"/>
  <path d="M1607.2 1231 c-4.3 -1.8 -6.4 -10.3 -4.1 -16.9 1.5 -4.2 5.5 -6.1 12.9 -6.1 5.1 0 6.5 0.4 8.5 2.5 2.2 2.1 2.5 3.3 2.5 9 0 6 -0.3 6.9 -2.9 9.6 -2.6 2.6 -3.6 2.9 -8.8 2.8 -3.2 0 -6.8 -0.4 -8.1 -0.9z"/>
  <path d="M1640.4 1223 c-3.7 -1.5 -5.4 -5.4 -5.4 -12.5 0 -6 0.3 -6.9 2.9 -9.6 2.6 -2.5 3.7 -2.9 8.6 -2.9 10 0 13.5 3.5 13.5 13.6 0 5 -0.3 5.9 -3.4 9 -3 3 -4 3.4 -8.7 3.3 -3 0 -6.3 -0.4 -7.5 -0.9z"/>
  <path d="M1762.4 1351.9 c-4.9 -2.4 -7.6 -12.3 -5.2 -19.4 1.9 -5.7 6.5 -8.5 14 -8.5 11.1 0 14.8 3.7 14.8 14.8 0 7.1 -0.1 7.5 -3.4 10.8 -3.3 3.3 -3.7 3.4 -10.7 3.3 -4.1 0 -8.3 -0.5 -9.5 -1z"/>
  <path d="M1776.6 1316 c-4.5 -5.4 -4.6 -15.1 -0.3 -19.7 1.7 -2 3.1 -2.3 8.6 -2.3 4 0.1 7.3 0.6 8.4 1.4 4.3 3.3 4.5 16.9 0.4 21.4 -1.7 1.8 -3.1 2.2 -8.3 2.2 -5.7 0 -6.4 -0.3 -8.8 -3z"/>
  <path d="M626.4 880 c-3.1 -1.2 -7.6 -7 -15.3 -19.5 -6 -9.9 -6.6 -11.3 -5.7 -13.8 0.8 -2.1 0.7 -3.4 -0.4 -5 -10.5 -16.7 -13.5 -22.7 -18.9 -37.2 -3.5 -9.5 -10 -23.9 -15.9 -35.5 -12.9 -25 -21.5 -45 -28.6 -67 -5 -15.6 -17.2 -43 -19.8 -44.6 -0.4 -0.3 -6.5 2 -13.6 5.1 -7 3.1 -19.7 8.5 -28.2 11.9 -8.5 3.5 -20 8.6 -25.5 11.5 -12.4 6.4 -19.1 8 -27 6.2 -10.5 -2.4 -17.5 -11.8 -16.1 -21.5 1.3 -8.3 15 -25.8 30.1 -38.4 5.4 -4.5 20.3 -15.5 33.2 -24.3 12.9 -8.9 23.3 -16.7 23.3 -17.6 0 -0.8 -0.9 -6 -2 -11.4 -3.5 -17.2 -10.8 -40.7 -18.7 -60.4 -8.5 -21.3 -9.6 -26.6 -6.4 -30.7 8.3 -10.5 22.3 0.8 65.4 52.7 8.2 9.9 15.5 18.4 16.2 18.9 0.9 0.7 5.7 -1.8 16.1 -8.4 24 -15.1 32 -18.6 53.5 -23.4 22.9 -5.1 31 -6.1 37.2 -4.7 16.7 3.7 24.3 18.5 17 33.2 -7.2 14.4 -44.9 44.1 -81.5 64.3 -3.7 2 -7 4 -7.3 4.5 -0.3 0.5 1.4 3.3 3.8 6.3 2.4 2.9 9.7 13 16.2 22.3 6.5 9.4 15.3 21.5 19.5 27 4.2 5.5 13.1 18.1 19.7 28 24.2 36.4 24.4 36.7 26.7 35.2 1.9 -1.3 2.6 -0.5 12.4 14.2 5.7 8.5 12.4 19.5 14.8 24.3 2.6 5.2 5 8.8 5.9 8.8 2.6 0 5.5 3.8 5.5 7.3 -0.1 4.6 -2.9 10.3 -11.6 23 -9.3 13.6 -11.9 16.4 -20.9 23.1 -3.8 2.9 -10.4 8.4 -14.6 12.2 -4.2 3.8 -9.2 8 -11.1 9.4 -2.4 1.6 -4 3.7 -4.7 6.2 -0.7 2.2 -2.5 4.8 -4.5 6.3 -2.8 2.1 -4.3 2.5 -9.7 2.4 -3.5 0 -7.4 -0.4 -8.5 -0.9z m24 -41.8 c3 -3.8 9.8 -11.3 15.3 -16.8 5.4 -5.4 11.3 -11.8 13 -14 l3.3 -4.2 -6.8 -7.8 c-15.4 -17.9 -23.1 -28.9 -21.4 -30.6 0.7 -0.7 1.2 -1.8 1.2 -2.5 0 -2.4 -20.3 -31.4 -30.9 -44.1 -5.8 -7 -15.9 -18.2 -22.4 -25.1 -6.4 -6.8 -15.9 -17.8 -20.9 -24.5 -11.1 -14.6 -20.7 -26 -22.4 -26.4 -1.8 -0.5 -7.4 2.6 -7.4 4.1 0 0.6 2.3 6.4 5.1 12.7 2.7 6.3 7.9 18.7 11.5 27.4 3.6 8.8 8.8 21 11.6 27 2.8 6.1 7.4 17.2 10.3 24.6 7.1 18.1 12.8 30 22.4 46.6 4.3 7.7 8.7 15.6 9.7 17.7 2 4.1 2.8 4.5 4.3 2 0.5 -1 1.2 -1.5 1.6 -1.2 0.3 0.4 2.8 6.7 5.6 14 5 13.6 10.9 27.9 11.5 27.9 0.2 0 2.8 -3.1 5.8 -6.8z m-129.2 -257.8 l7.1 -3.6 -11.4 -11.4 c-6.2 -6.2 -11.4 -11.2 -11.6 -11.1 -0.1 0.2 1.1 4.4 2.7 9.4 1.5 5 3.3 11.7 4 14.7 0.6 3.1 1.3 5.6 1.6 5.6 0.2 0 3.7 -1.6 7.6 -3.6z"/>
  <path d="M1657.1 862.3 c-1.4 -0.3 -5.2 -3.3 -8.6 -6.6 -7.5 -7.5 -9.5 -12.3 -13 -31.3 -6.7 -36.5 -10.5 -72.1 -10.5 -99.5 0 -10.6 -0.4 -19 -0.9 -19.4 -0.5 -0.3 -3.1 0 -5.8 0.6 -2.6 0.6 -9.7 1.4 -15.7 1.7 l-10.9 0.7 -8.7 26.5 c-4.8 14.6 -10.4 30.5 -12.4 35.4 l-3.6 9 2.8 -2.6 c5.9 -5.6 10.9 -7.3 21.2 -7.3 8.7 0 10.1 0.3 16.2 3.3 3.9 1.9 7.8 4.7 9.3 6.6 3.4 4.4 10 18.8 12 26.1 2.2 8.2 3.3 36.2 1.5 40.5 -2.1 5.1 -5.5 7 -12.2 7 -6.7 0 -10.7 -1.7 -13.3 -5.6 -2.5 -3.8 -6.2 -15.4 -8 -24.8 -0.8 -4.5 -2.4 -10.7 -3.6 -13.8 l-2.1 -5.7 -2.4 2.8 c-1.3 1.6 -5.8 8.4 -10 15.2 -4.2 6.8 -9.1 14.3 -11.1 16.7 -3.3 4.1 -3.6 4.2 -9.4 4.2 -5.6 0 -6 -0.2 -7.9 -3.2 -1.4 -2.4 -2 -5.1 -2 -9.6 l0 -6.4 -5.1 7.6 c-6.9 10.3 -12.1 13.9 -21.1 14.4 -9.5 0.6 -13.3 -0.4 -17.8 -4.4 -5.8 -5.3 -7.4 -10.4 -6.7 -22.1 0.6 -13.1 3.4 -21.2 15.8 -46.3 11.9 -24.2 19.5 -41.7 25.6 -59 12.8 -36.5 16 -43.9 19.7 -45.4 0.7 -0.3 0.6 -0.8 -0.4 -1.5 -1.3 -0.9 -0.9 -2.7 2.7 -13.3 3.6 -10.5 7.6 -24 12.3 -41.6 0.9 -3.6 1.4 -4.2 3 -3.7 1.5 0.5 2.3 0 3 -1.7 2.2 -5.2 8.8 -38.1 14.5 -72.8 1.4 -8.5 2.7 -16.5 3 -17.7 0.4 -1.8 -0.1 -2.5 -2.9 -3.7 -1.8 -0.8 -4.1 -2.4 -5 -3.7 -2.2 -3.2 -0.2 -6.1 5.5 -7.5 4.7 -1.1 5.6 -2.6 5.8 -9.4 0.1 -4.1 2.7 -8.4 4.6 -7.6 0.8 0.3 1.9 -1.3 3 -4.2 4.9 -13 16.2 -32.6 21.4 -36.9 5.6 -4.8 14.6 -1.9 18.7 5.9 2.1 4 4.4 16.7 4.4 24.1 0 8.5 0.7 10.7 3.3 10.4 3 -0.3 4.6 3.6 5.8 14 0.5 4.8 1.1 8.9 1.3 9.1 0.2 0.2 2.9 0.6 6 0.9 5.8 0.6 8.2 2.5 7 5.6 -0.7 2 -4.8 3.7 -8.8 3.7 l-3.4 0 -0.3 44.8 c-0.2 24.6 -0.3 56.3 -0.2 70.6 0.2 24 0.3 26 2.1 28 1.8 1.9 2 4.2 2.5 26.6 1 42.4 7.7 88.5 18 124 3.7 12.7 4.2 15.7 4.2 24.5 0 14.4 -2.8 21.1 -10.6 26.1 -3.3 2.1 -5 2.4 -11.6 2.3 -4.3 -0.1 -8.9 -0.4 -10.2 -0.6z m-37.6 -182.2 l4 -0.7 0.6 -20.4 c0.8 -25.6 0.5 -23.7 2.9 -24.3 1.4 -0.4 2 -1.4 2 -3.2 0 -2.6 -0.2 -2.7 -3.6 -2.2 -4.5 0.7 -5 1.2 -3.5 3.1 1 1.2 0.7 1.6 -2.1 2 -1.8 0.3 -5.1 0.7 -7.2 0.8 l-3.9 0.3 -2.4 13 c-2 11 -5 24.2 -6.9 30.7 -0.3 1.1 0.2 1.8 1.8 2.1 2.5 0.4 11.9 -0.2 18.3 -1.2z m11.2 -84.6 c0.6 -8.8 1.6 -23.2 2.1 -32.1 0.6 -8.8 2.3 -22.9 3.8 -31.2 1.5 -8.4 2.5 -15.4 2.2 -15.7 -0.2 -0.2 -5.5 -0.6 -11.6 -0.7 l-11.3 -0.3 -0.3 19 c-0.3 15.3 -1.2 24.5 -4.4 47.5 -2.2 15.6 -3.8 28.8 -3.5 29.3 0.2 0.4 5.3 0.6 11.1 0.5 l10.7 -0.3 1.2 -16z m5 -94.9 c-0.6 -1.5 -2.6 -21.6 -3 -29.6 l-0.2 -5.5 -3.2 9.5 c-3.7 11.3 -7.3 23.4 -7.3 24.8 0 1 3.5 1.7 10.9 2 2.4 0.2 3.2 -0.2 2.8 -1.2z"/>
  <path d="M871.3 829.3 c-3.7 -0.7 -7.3 -5.9 -7.3 -10.4 0 -2.1 -0.4 -3.9 -0.9 -3.9 -2 0 -5.1 -9.2 -7.6 -22.3 -3.8 -21.1 -7.4 -49.1 -8.5 -67 -1.4 -23.4 -1.2 -91.3 0.3 -95.7 1 -3 2.4 -4.2 9.2 -7.7 4.4 -2.3 12.2 -5.8 17.3 -7.9 l9.2 -3.6 0 -10.7 c0 -5.8 0.7 -20.5 1.5 -32.6 0.8 -12.1 1.5 -28.4 1.5 -36.3 0 -15.3 0.9 -19 5.1 -21.3 3.1 -1.6 8.6 -1.4 11.5 0.6 3.8 2.5 5.7 7.8 10.8 30.5 2.6 11.2 6.9 28.2 9.7 37.7 4.7 15.8 5.4 17.3 7.4 17.3 2.5 0 3.5 1.7 3.5 5.8 0 5.9 1 7.2 5.1 7.2 11.3 0 21.4 8 24.8 19.7 2.3 8 8.4 44.9 14.1 86 2.3 16 5.4 35.8 7 44 1.6 8.2 3.2 17.5 3.6 20.8 0.5 3.6 1.6 7.2 3.1 9.3 3.3 4.9 3.3 16 0 21.4 -3.8 6.3 -11.3 10.8 -18.1 10.8 -1.8 0 -7.6 1.1 -12.7 2.4 -5.2 1.4 -14.3 2.9 -20.4 3.5 -6 0.6 -14.4 1.5 -18.5 2 -7.6 0.9 -46.7 1.2 -50.7 0.4z m25.3 -54.7 c-0.1 -22.8 0.7 -24.3 15.1 -28 11 -2.9 19.4 -1.5 22.8 3.8 2.9 4.3 4.5 12.7 4.5 23.5 0 10.2 0 10.3 2.3 9.8 1.2 -0.4 4.1 -0.9 6.5 -1.3 4.2 -0.6 4.2 -0.7 4.2 -4.8 0 -2.2 -0.5 -8.2 -1 -13.1 -0.5 -5 -1.4 -16.5 -2 -25.5 -0.9 -14.9 -3.4 -38.7 -7.5 -72.8 -0.8 -6.8 -2.2 -13.9 -3 -15.9 l-1.5 -3.6 -6.3 0.7 c-3.4 0.3 -14.7 1.1 -25.2 1.6 -23.3 1.3 -25.1 1.6 -24.9 5.6 0.9 16.6 2.9 100.1 2.9 117.9 l0 23.1 6.6 -2 6.5 -1.9 0 -17.1z"/>
 </g>
 <g fill="#00b3ef">
  <path d="M1205.5 2024.4 c-121.1 -7.1 -233.7 -40.4 -336.6 -99.5 -163.6 -93.9 -287.7 -249.6 -342.3 -429.8 -23.5 -77.4 -33.8 -152.2 -32.3 -235.1 0.8 -39.9 2.9 -62.9 9.7 -104.8 9.6 -58.9 29.7 -125.9 54 -180.7 9.3 -20.9 15.1 -32.5 16.1 -32.5 1.4 0 1 4.8 -1.1 13 -2.2 8.5 -4.9 19.8 -8.1 34.5 -1.2 5.5 -3.2 14.1 -4.5 19 -10.1 40.5 -9.7 38.3 -12.8 60 -3.3 23 -5 42.4 -4.1 48.2 0.6 4.1 3.6 14.7 5.1 17.8 1.8 4 13.3 20 16.3 22.9 3.2 3.1 4.4 8 1.7 7 -1.1 -0.4 -1.6 0.4 -2.1 2.8 -4.9 28.5 -8.5 75.8 -8.5 111 0 89.9 19.3 183.2 55.2 267.3 12.6 29.5 34.9 72.8 35.6 69.3 0.2 -1 0.9 -1.8 1.6 -1.8 0.8 0 1.6 3.3 2.4 9.3 1.4 11.4 8.3 34.7 10.2 34.7 0.5 0 1.3 1.2 1.9 2.8 1 2.4 2.2 4.6 4.3 7.6 13.9 19.7 27.7 32 52.6 47.3 2.5 1.5 3.2 5.6 0.7 4.7 -2.8 -1.1 -1.5 0.9 5.7 9 44 49.3 85.1 85 138.3 120.2 101.3 67 213.5 104.2 337.9 112 9.8 0.6 10.9 0.5 10.3 -1 -1.2 -3.2 3.4 -1.6 11.8 3.9 4.5 3 8.8 5.5 9.6 5.5 0.8 0 2.8 0.7 4.4 1.6 1.7 0.9 5.7 1.8 9 2.1 3.3 0.3 6.8 1 7.7 1.4 1 0.6 1.9 0.5 2.3 -0.1 0.3 -0.5 1.8 -1 3.3 -1 3 0 11.2 -6.4 11.2 -8.7 0 -0.7 0.4 -1.3 0.8 -1.3 0.5 0 2.2 -1.3 3.8 -3 3.3 -3.4 7.5 -4.1 6.7 -1.1 -0.5 2.1 -1.3 2.1 26.2 -0.5 87.6 -8.3 176.8 -35.4 255.5 -77.5 45.6 -24.3 85.8 -51.9 126.3 -86.8 7.7 -6.6 8.6 -7.7 7.1 -8.8 -3.1 -2.3 -0.4 -3.3 8.5 -3.2 7 0.1 10.7 -0.5 17.7 -2.6 4.9 -1.5 9.6 -3.3 10.5 -4.1 0.8 -0.8 2.3 -1.4 3.3 -1.4 0.9 0 1.9 -0.7 2.2 -1.5 0.4 -0.8 1.5 -1.5 2.5 -1.5 2.3 0 9.9 -4.6 9.9 -6 0 -0.6 0.7 -1 1.7 -1 2 0 11.3 -5.8 11.3 -7.1 0 -0.5 0.7 -0.9 1.5 -0.9 0.9 0 1.8 -0.7 2.1 -1.5 0.4 -0.8 1.3 -1.5 2 -1.5 0.8 0 1.7 -0.7 2 -1.5 0.3 -0.8 1.4 -1.7 2.5 -2 1 -0.4 1.9 -1.3 1.9 -2.1 0 -0.8 0.7 -1.4 1.5 -1.4 2.3 0 34.5 -22 34.5 -23.6 0 -0.8 0.9 -1.4 2.1 -1.4 1.2 0 2.3 -0.8 2.6 -1.8 0.2 -1 1.8 -2.3 3.4 -2.9 1.6 -0.6 2.9 -1.7 2.9 -2.5 0 -0.7 1.5 -2 3.3 -2.9 1.7 -0.8 3.6 -2.5 4.2 -3.7 0.5 -1.2 1.5 -2.2 2.2 -2.2 1.3 0 10.3 -8.7 10.3 -10.1 0 -0.5 0.5 -0.9 1.2 -0.9 1.5 0 9.8 -8 9.8 -9.5 0 -0.6 1.3 -1.9 3 -2.8 1.6 -1 3.3 -2.9 3.6 -4.2 0.3 -1.3 1.5 -2.7 2.5 -3 1 -0.4 1.9 -1 1.9 -1.4 0 -0.4 0.9 -1.9 2 -3.2 1.1 -1.3 2.3 -2.8 2.8 -3.4 4.3 -5.3 11.2 -16.9 11.2 -18.8 0 -0.7 0.9 -1.8 2 -2.5 1.1 -0.7 2 -1.8 2 -2.6 0 -0.7 0.7 -1.9 1.5 -2.6 0.8 -0.7 1.5 -2.2 1.5 -3.3 0 -1.1 0.6 -2.5 1.4 -3.1 3.1 -2.4 19.4 -34.4 26.3 -51.6 8.6 -21.2 18.3 -52.2 18.3 -58.1 0 -1.5 0.4 -2.9 0.9 -3.1 1.2 -0.4 8.1 -21.2 8.1 -24.4 0 -1.4 0.6 -3.1 1.3 -3.9 1.5 -1.4 6.3 -19.2 7.2 -26.7 0.3 -2.7 1 -4.8 1.6 -4.8 0.5 0 0.9 -1.8 0.9 -4 0 -2.2 0.4 -4 0.9 -4 2.2 0 9.3 -43.3 8.4 -51.3 -0.4 -3.2 -0.2 -4.7 0.6 -4.7 0.9 0 1 -1.7 0.5 -6 -0.5 -4.4 -0.3 -6 0.6 -6 0.9 0 1 -1.6 0.5 -6.1 -0.5 -4.3 -0.4 -6.4 0.4 -6.9 1.8 -1.1 2.9 -56.4 1.1 -58.5 -0.8 -1 -1 -3.1 -0.6 -6.9 0.5 -3.5 0.3 -5.6 -0.4 -6.1 -0.5 -0.3 -1 -2.7 -0.9 -5.3 0.2 -6.4 -1.1 -16.2 -2.2 -16.2 -0.5 0 -0.9 -2.2 -0.9 -4.9 0 -2.8 -0.4 -5.3 -1 -5.6 -0.5 -0.3 -1 -2.5 -1 -4.8 0 -2.3 -1.4 -10.7 -3 -18.7 -4.2 -20.2 -4.2 -20 -5.1 -20 -0.5 0 -0.9 -1.1 -0.9 -2.5 0 -1.4 -0.4 -3.3 -0.9 -4.3 -0.5 -0.9 -1.5 -4.3 -2.2 -7.4 -0.7 -3.2 -1.6 -5.8 -2.1 -5.8 -0.4 0 -0.8 -1.3 -0.8 -3 0 -1.6 -0.4 -3 -1 -3 -0.5 0 -1.3 -1.8 -1.6 -4 -0.4 -2.2 -1 -4 -1.5 -4 -0.5 0 -0.9 -0.7 -0.9 -1.5 0 -3.4 -16.8 -34.6 -22 -40.8 -0.6 -0.7 -2.4 -3 -4 -5.2 -1.7 -2.2 -3.7 -4.9 -4.5 -6 -0.8 -1 -1.5 -3.2 -1.5 -4.8 0 -2.5 0.2 -2.8 1.5 -1.7 2 1.6 2 2 -1.9 -14.4 -9 -37.3 -26 -89.2 -30.2 -92.3 -0.9 -0.7 -1.4 -1.9 -1 -2.8 0.6 -1.6 1.2 -1.9 5.6 -2.9 3.7 -0.8 12 -7.9 12 -10.3 0 -0.7 0.6 -1.3 1.3 -1.3 1.5 0 5.3 -8 6.3 -13.5 1.8 -9.8 -0.2 -39.5 -2.8 -39.5 -0.4 0 -0.8 -1.7 -0.8 -3.7 0 -2.1 -0.7 -5.1 -1.5 -6.7 -0.8 -1.5 -1.5 -3.7 -1.5 -4.7 0 -2.4 -5.1 -16.3 -6.2 -16.7 -0.4 -0.2 -0.8 -1.1 -0.8 -2 0 -2.1 -5.2 -15.6 -6.2 -16 -0.5 -0.2 -0.8 -2.1 -0.8 -4.3 0 -2.1 -0.4 -3.9 -1 -3.9 -0.5 0 -1 -1.6 -1 -3.5 0 -1.9 0.4 -3.5 0.9 -3.5 1.3 0 19.2 32.1 29.9 53.5 44.2 88.7 69.6 181.9 77.4 284.5 1.8 24.4 1.5 86.1 -0.6 109 -9.2 100.4 -33.9 188.6 -77.2 275.2 -59.1 118.5 -145.9 216.6 -255.9 289.3 -27.4 18.1 -45.5 28.6 -76 44 -87.1 44 -175.2 69 -275.5 78.1 -16.4 1.4 -83.4 2.7 -98.5 1.8z"/>
  <path d="M1634.8 1370.8 c-5.7 -1 -5.8 -1.1 -5.8 -4.5 l0 -3.4 4.1 3.3 c3.7 3 4.6 3.3 11.2 3.3 4 0 8.2 -0.4 9.5 -0.8 1.8 -0.7 2.2 -0.5 2.2 1.2 0 2 -0.5 2.1 -7.7 2 -4.3 -0.1 -10.4 -0.6 -13.5 -1.1z"/>
  <path d="M1796.2 781.7 c-2.3 -2.3 -3.2 -4.2 -3.2 -6.6 0 -4.4 1.2 -3.8 7.8 3.7 l5.5 6.2 -3.5 0 c-2.5 0 -4.2 -0.8 -6.6 -3.3z"/>
  <path d="M1777.1 762.7 c-13.5 -11.2 -42.1 -30.8 -67.7 -46.4 -1 -0.6 -7.5 -4.7 -14.3 -9 -6.9 -4.3 -12.9 -8 -13.4 -8.2 -0.5 -0.2 -3.2 -1.8 -6 -3.7 -3.2 -2.1 -6.4 -3.4 -8.4 -3.4 l-3.3 0 0 -16.6 0 -16.5 6.8 4.8 c23.2 16.4 46.2 34.5 68.2 53.7 12.8 11.2 49.1 46.6 52.2 50.9 l1.9 2.7 -3 0 c-2.2 0 -5.3 -2 -13 -8.3z"/>
  <path d="M1557 669.1 c0 -0.5 0.6 -1.1 1.3 -1.4 1.8 -0.6 1.4 -0.9 -13.8 -8.5 -34.4 -17.1 -72.8 -31.9 -113.5 -43.7 -15.8 -4.6 -18.7 -5.2 -19.6 -3.9 -1.8 2.3 -3 1.6 -4.2 -2.4 -1.5 -4.8 -5.3 -12.1 -8.4 -15.8 -11.4 -13.9 -22.4 -22.8 -36.1 -29.6 -30.3 -14.9 -50.4 -18 -80.2 -12.4 -7.7 1.4 -18.7 3 -24.5 3.5 -11.2 1 -19.9 3.6 -32.4 9.7 -3.7 1.9 -7.4 3.4 -8.1 3.4 -0.7 0 -1.5 0.4 -1.7 0.9 -0.4 1.2 -16.6 12.1 -17.9 12.1 -0.5 0 -0.9 0.4 -0.9 1 0 0.5 -1.9 2.4 -4.2 4.1 -2.4 1.6 -5.1 4.4 -6.1 6 -2 3.1 -7.2 4.3 -6.1 1.4 0.8 -1.9 0.3 -1.9 -19.7 0.5 -28.3 3.5 -47.3 7 -81.8 15.1 -19.4 4.6 -22.3 5 -31.5 4.7 -8 -0.2 -11.1 0.2 -14.9 1.6 -3.2 1.3 -4.6 2.4 -4.3 3.3 1 2.6 -4 1.3 -7 -1.8 -4.8 -5 -15.4 -12.3 -22.9 -15.7 -12.2 -5.5 -18.8 -6.5 -37.7 -5.9 -24.5 0.8 -24.1 0.4 13.9 -12.9 10 -3.5 25.1 -8.2 33.5 -10.5 17 -4.6 17.3 -4.7 24.3 -10 6.4 -4.8 12.2 -7 29.4 -11.4 35.6 -9 74.8 -15.3 122.1 -19.7 21.8 -2 101.2 -1.7 123 0.5 94.7 9.6 176.9 32.2 258.1 70.9 l12.6 6 -5.3 19.1 c-6 21.5 -13.2 42.7 -14.5 42.7 -0.5 0 -0.9 -0.4 -0.9 -0.9z"/>
  <path d="M1617 665.8 c-3 -1.1 -6.7 -2.9 -8.1 -3.9 -1.4 -1 -3.7 -2.1 -5.2 -2.4 -1.5 -0.4 -2.7 -1 -2.7 -1.4 0 -0.3 1.1 -6.2 2.4 -13.1 l2.3 -12.5 7.3 -0.7 c6.4 -0.5 7.8 -0.4 10.1 1.3 1.5 1 3.3 1.9 4 1.9 0.9 0 1 2 0.6 8.3 -0.4 4.5 -0.7 11.9 -0.7 16.5 0 7.9 -0.1 8.2 -2.2 8.1 -1.3 0 -4.8 -0.9 -7.8 -2.1z"/>
 </g>
 <g fill="#aaebfc">
  <path d="M1252 1977.1 c-0.8 -0.6 -1.7 -0.8 -2.1 -0.5 -1 0.6 -12.2 -1.7 -13.6 -2.8 -0.7 -0.6 -1.3 -0.7 -1.3 -0.2 0 0.4 -0.5 0.3 -1.2 -0.4 -0.7 -0.7 -1.8 -1.2 -2.6 -1.2 -1.8 0 -18.2 -10.8 -18.2 -11.9 0 -0.5 -6.7 -6.1 -14.9 -12.4 -8.2 -6.4 -19.7 -16 -25.5 -21.4 -25.7 -23.6 -30.7 -27.8 -40.1 -34.2 -47.6 -32.3 -93.4 -51.3 -150.9 -62.6 -34.8 -6.9 -49.5 -13.4 -105.4 -46.8 -7.3 -4.3 -17.9 -10 -23.5 -12.7 -12.4 -5.8 -50 -20 -81.7 -30.9 -22.7 -7.7 -29 -10.1 -45 -17.3 -24.5 -10.9 -45.4 -28.3 -61.8 -51.4 -2.1 -3 -3.3 -5.2 -4.3 -7.6 -0.6 -1.6 -1.5 -2.8 -1.9 -2.8 -0.8 0 -2.6 -4.1 -2.1 -4.8 0.1 -0.1 -0.6 -1.7 -1.6 -3.5 -0.9 -1.7 -1.8 -3.5 -1.9 -3.9 -0.1 -0.5 -0.3 -1 -0.4 -1.3 -0.1 -0.3 -0.3 -0.9 -0.4 -1.4 0 -0.5 -0.4 -1.2 -0.8 -1.6 -0.4 -0.4 -0.4 -1.3 -0.2 -2 0.3 -0.7 0 -1.6 -0.5 -2 -0.6 -0.3 -0.9 -1.1 -0.6 -1.6 0.4 -0.5 0.3 -1.4 -0.1 -2.1 -0.4 -0.6 -0.9 -3.4 -1.1 -6.2 -0.2 -2.8 -0.7 -5.2 -1.1 -5.3 -0.4 -0.2 -0.4 -9.4 -0.1 -20.5 1.3 -37.9 7.4 -61.1 34.4 -130.8 11.3 -29.2 16.9 -45.9 18.7 -55.9 1.5 -8.9 1.5 -25.3 0 -58.3 -1.4 -30.6 -3.1 -44.6 -6.2 -51.6 -2.8 -6.2 -12.5 -22 -22 -35.6 -4.3 -6.1 -10.1 -15.8 -13 -21.6 -4.2 -8.3 -6.7 -11.9 -11.9 -17 -7.8 -7.7 -26.2 -23.2 -41.7 -35.2 -6.1 -4.8 -15.8 -12.9 -21.5 -18 -5.7 -5.1 -13.7 -12.2 -17.6 -15.6 -6 -5.3 -12.4 -13.2 -17.8 -22 -0.5 -0.9 -1.8 -2.7 -2.7 -4.1 -1 -1.3 -1.5 -2.7 -1.2 -3.2 0.3 -0.5 0 -0.9 -0.6 -0.9 -0.6 0 -0.9 -0.4 -0.6 -0.8 0.3 -0.5 -0.1 -2 -0.9 -3.5 -0.7 -1.4 -1.1 -2.8 -0.8 -3.1 0.3 -0.2 0.1 -1 -0.3 -1.8 -2.5 -4.1 -1.2 -29 3.2 -59.3 3.1 -21.7 2.7 -19.5 12.8 -60 1.3 -4.9 3.3 -13.5 4.5 -19 1.2 -5.5 3.3 -14.7 4.8 -20.5 1.4 -5.8 2.6 -11.6 2.8 -13 0.1 -1.4 0.3 -2.5 0.4 -2.5 0.4 0 10.5 -30 17.6 -52.5 9.2 -29 17.4 -51.2 19 -51.2 0.6 0 4.4 5.4 8.5 12.1 9.5 15.3 12.3 18.2 18.4 18.8 3.9 0.5 5.1 0.2 8.1 -2.1 2.1 -1.6 3.9 -4.1 4.6 -6.4 0.7 -2.5 2.3 -4.6 4.7 -6.2 1.9 -1.4 6.9 -5.6 11.1 -9.4 4.2 -3.8 10.8 -9.3 14.6 -12.2 9.3 -6.9 11.7 -9.7 21.7 -24.4 10.2 -15.2 11.5 -18.3 8.8 -21 -1.1 -1.1 -2.7 -2 -3.5 -2 -0.9 0 -3.3 -3.6 -5.9 -8.8 -2.4 -4.8 -9.1 -15.8 -14.9 -24.5 l-10.5 -15.7 8.2 -7.8 c11.4 -10.9 17.6 -16 37.7 -31 32.4 -24.1 52.4 -37 79.9 -51.7 9.1 -4.9 21.2 -11.8 27 -15.4 10.6 -6.5 41.9 -22.6 42.6 -21.8 0.2 0.2 -1.9 1.4 -4.7 2.7 -6.1 2.9 -11.4 8.5 -12.8 13.7 -1.4 4.9 -1.4 67 -0.1 89 1.1 17.9 4.7 45.9 8.5 67 2.5 13.1 5.6 22.3 7.6 22.3 0.5 0 0.9 1.8 0.9 4 0 3 0.7 4.8 2.9 7.2 l2.9 3.3 19.4 0.1 c10.6 0 22.7 -0.3 26.8 -0.8 4.1 -0.4 12.5 -1.3 18.5 -1.9 6.1 -0.6 15.2 -2.1 20.4 -3.5 5.1 -1.3 10.9 -2.4 12.7 -2.4 14.2 0 25.1 -15.8 18.1 -26.2 -1.5 -2.1 -2.6 -5.7 -3.1 -9.3 -0.4 -3.3 -2 -12.6 -3.6 -20.8 -1.6 -8.2 -4.7 -28 -7 -44 -5.7 -41.1 -11.8 -78 -14.1 -86 -3.4 -11.8 -13.5 -19.7 -24.9 -19.7 -3.8 0 -3.9 -0.2 -4.5 -3.8 -0.3 -2 -0.9 -5.6 -1.4 -7.8 l-0.8 -4.2 5.1 -1.1 c15.7 -3.3 40.8 -4.4 51.4 -2.1 3 0.7 5.9 1.3 6.5 1.4 1.4 0.3 6.2 2.4 13.7 6 17.3 8.3 37.8 34.8 45.6 59 6.7 20.9 7.8 27.7 7.9 51.1 l0 21 -3.7 10.8 c-8.2 23.5 -19.8 41.9 -43.8 69.2 -29.7 33.7 -53 69.4 -65 99.4 -15.3 38.6 -15.8 67.2 -1.3 83.2 4.4 4.9 9.9 7.8 25.8 13.6 21.2 7.8 31.8 13.9 43.7 25.1 5 4.8 7.8 8.4 10.6 14 3.3 6.8 3.7 8.4 3.7 15.2 0 6.6 -0.4 8.2 -3.4 13.8 -5.9 10.9 -23.6 25.8 -42.1 35.5 -12.4 6.5 -25 11.4 -49 19.3 -20.9 6.8 -52.8 19.1 -62.1 24 -8.5 4.5 -18.3 12.6 -25 20.6 -6 7.2 -29.8 42.7 -33.3 49.7 -9.4 18.6 -14 44.8 -14 79.1 0 28 3.1 43.4 12 61.3 10.5 21 20.7 29.2 43.4 35.1 31.5 8.1 50.3 8.1 135.9 0.4 34.5 -3.1 35.9 -3.2 56 -2 25.2 1.5 44 4.1 63.1 8.8 50 12.3 76.4 33.8 98 79.7 12.3 26.3 20.9 67.4 24.5 117.7 1.7 23.9 2.8 32.9 5.2 40.9 2.5 8.8 18.8 47 37.3 87.6 28.3 62.1 35.7 91.3 34.8 136.4 -0.4 18.9 -0.8 23.1 -3.2 33.5 -3.4 14.8 -7.7 27.1 -12.3 35.6 -6.5 11.7 -14.6 23.7 -17.4 25.6 -1.5 1 -2.6 2.1 -2.3 2.5 0.5 0.9 -8.7 8.9 -10.5 9 -0.9 0.1 -2.1 0.1 -2.8 0 -0.6 -0.1 -1.4 0.3 -1.8 0.9 -0.8 1.2 -6.5 1.3 -8.5 0.1z m-323.6 -210.1 c10.2 -2.1 11.7 -2.7 18.1 -7 7.7 -5.3 23.9 -14.2 31.5 -17.4 4.2 -1.8 9.7 -4.7 12.1 -6.3 6.7 -4.7 15.7 -13.9 18 -18.6 2.5 -4.9 3.5 -5.7 7.2 -5.7 5.3 0 14.4 -5.9 36.7 -23.6 6.3 -5 15.1 -11.5 19.5 -14.4 4.4 -2.9 11.8 -8.5 16.5 -12.5 4.7 -4 11.7 -9.4 15.5 -12 15 -10.3 19.9 -17 19.8 -27 -0.2 -12.1 -6.7 -27.5 -27.8 -66 -7.8 -14.3 -20.8 -39.2 -28.8 -55.1 -15.8 -31.4 -18.8 -35.8 -27.3 -39 -9.5 -3.6 -25.1 0.4 -50.5 13.1 -16.7 8.3 -23.1 12.4 -36.9 23.4 -13.7 10.9 -24.6 21.6 -27 26.5 -3.4 7.2 -2.8 10.3 5.5 26.7 7.1 14 26 58.8 25.1 59.6 -0.2 0.2 -2.1 -0.6 -4.2 -1.9 -3.3 -1.9 -5.3 -2.3 -12.9 -2.3 -8.7 0 -9.3 0.2 -18.5 4.7 -11 5.4 -29.9 17.8 -38.3 25 -3.2 2.8 -6 4.9 -6.1 4.7 -0.2 -0.2 -4.2 -8 -9 -17.3 l-8.6 -16.9 5.2 -9 c6 -10.5 5.8 -11.8 -2.1 -13 -4.6 -0.8 -5.9 -0.6 -10.2 1.6 l-5 2.5 -2.7 -2.3 c-6.4 -5.3 -11 -5.9 -14.1 -1.9 -2.5 3.2 -2.7 8.3 -0.5 14.6 l1.5 4.6 -4 6.2 c-5.8 9 -5.3 14 1.4 14 1.7 0 3.7 -0.6 4.4 -1.2 0.8 -0.7 0.6 -0.1 -0.3 1.4 -2 3.1 -1.8 7.7 0.5 9.1 2.3 1.4 6.3 0.1 10.1 -3.2 l3.3 -2.9 6.5 10.4 c3.5 5.7 7.6 11.7 9.2 13.4 2.3 2.6 2.6 3.5 1.8 5.6 -2.8 7.3 0.6 19.2 12.5 44.4 4.6 9.6 10.2 22 12.5 27.5 7 16.6 14.1 29.6 19 34.7 5.5 5.7 6.8 5.8 21.4 2.8z"/>
  <path d="M911.6 1741.8 c-1.6 -4 -6.6 -15.6 -11.1 -25.8 -9.7 -21.8 -16.9 -39.6 -18.7 -46.4 l-1.3 -4.9 7.5 -6.9 c8.1 -7.6 13.9 -11.8 27.3 -19.8 16.1 -9.4 22.1 -11.5 26.7 -9 3.7 2 12.4 15.5 22.9 35.6 5.9 11.5 12.6 24.3 14.8 28.4 2.3 4.1 4.6 9.3 5.3 11.5 l1.3 3.9 -5 4.6 c-3.3 3 -9.7 6.9 -18.7 11.3 -7.6 3.7 -13.9 6.7 -14.2 6.7 -0.2 0 -0.4 -0.4 -0.4 -1 0 -0.5 0.9 -1 1.9 -1 2.2 0 6.1 -4.4 6.1 -7 0 -2.6 -4.7 -15.8 -7.1 -19.8 -5.7 -9.5 -12.2 -13.3 -18.4 -10.8 -4.7 2 -10.2 7.2 -10.8 10.3 -1 5.4 8.3 30 13.3 35.1 2.2 2.4 2.2 2.4 0.3 4.3 -1.6 1.6 -8.8 4.7 -17.3 7.5 -1.2 0.4 -2.3 -1.3 -4.4 -6.8z m-0.9 -57.3 c1.2 -0.8 2.7 -3.1 3.3 -5.1 3.2 -9.7 -8.6 -16.6 -15.9 -9.3 -4 3.9 -4.2 8.5 -0.5 12.8 2.1 2.6 3.3 3.1 6.8 3.1 2.3 0 5.1 -0.7 6.3 -1.5z m15.1 -15.6 c4.2 -1.4 5.9 -5.7 3.8 -9.7 -2.4 -4.7 -6.6 -5.5 -11 -2.1 -4.1 3.2 -3.1 9.9 1.7 11.9 1.2 0.5 2.2 0.9 2.3 0.9 0.1 0.1 1.5 -0.4 3.2 -1z"/>
  <path d="M1009.7 1684.3 c-0.2 -0.4 -1.5 -3.9 -2.7 -7.8 -3.7 -11.3 -13 -33.4 -24.5 -58 -5.9 -12.6 -14 -31.5 -18.1 -42 -4.1 -10.4 -9.6 -23.4 -12.1 -28.7 -2.6 -5.4 -4.5 -10 -4.2 -10.2 1.7 -1.6 28 -18.2 34.4 -21.8 9 -4.9 27.7 -13.9 40.3 -19.2 l8.3 -3.4 2.3 2.5 c3.4 3.7 12.5 20 18.6 33.2 2.8 6.3 12.3 25.6 21 43.1 15.8 31.5 23.4 48.5 22.5 50 -0.3 0.5 -3.6 3 -7.3 5.6 -3.7 2.6 -8.8 6.5 -11.4 8.7 -3.4 2.7 -4.9 3.5 -5.3 2.5 -0.2 -0.7 -1.6 -4.7 -3.1 -8.8 -7.1 -20.2 -14.9 -28.9 -24.8 -27.8 -5.1 0.6 -17.2 7.3 -20 11.1 -3.5 4.7 -2.6 9.1 4 20.8 3.2 5.7 8.2 13.9 11.1 18.1 l5.2 7.7 -4.2 3.4 c-2.3 1.9 -7.7 5.7 -11.9 8.6 -4.3 2.8 -9.3 6.4 -11 7.9 -5.6 4.7 -6.6 5.3 -7.1 4.5z m-2.5 -85.9 c1.6 -3.4 0 -5.9 -3.8 -5.9 -2.2 0 -3.1 0.6 -3.8 2.7 -1.9 5.4 5.2 8.4 7.6 3.2z m-12.9 -15.6 c3.4 -1.8 4.6 -3.9 4.7 -8.1 0 -2.7 -0.7 -4.5 -2.5 -6.2 -5.2 -5.3 -14.5 -1.6 -14.5 5.7 0 7 6.6 11.7 12.3 8.6z m58.3 -3.2 c3.3 -3.3 3.9 -5.2 3.4 -10.6 -0.3 -3.8 -1.6 -5.6 -5.5 -7.4 -10.6 -5.1 -20.7 9.6 -12.6 18.3 2.4 2.5 3.7 3.1 7.1 3.1 3.4 0 4.8 -0.6 7.6 -3.4z m-14.9 -20.2 c3.2 -2 4.6 -7.8 2.8 -12 -1.6 -3.9 -4.1 -5.4 -9 -5.4 -7.9 0 -12.2 9.3 -7.5 16 3 4.2 8.6 4.7 13.7 1.4z m-47 -2 c2.7 -4.1 2.2 -9.2 -1.1 -12 -7.7 -6.7 -18.8 2.2 -13 10.4 3.4 4.9 11.4 5.7 14.1 1.6z m37.5 -23.1 c3.3 -3.7 4 -6.9 2.3 -10.9 -1.7 -4.1 -7 -7 -11 -6 -4.3 1.1 -7.5 5.3 -7.5 9.8 0 8.7 10.5 13.2 16.2 7.1z"/>
  <path d="M1694.1 1784.4 c-9.9 -2.2 -26.9 -13.3 -38.2 -25.1 -11.4 -11.7 -19.2 -26.1 -23.5 -43.2 -2.7 -10.5 -4.4 -34.4 -4.4 -63.1 0 -18.2 -1.3 -31.1 -7.4 -74.5 -2.4 -17.6 -5 -38.7 -5.6 -47 -1.9 -24.7 -4.5 -33.2 -13.4 -44.6 -15.5 -19.8 -52.2 -40.6 -94.6 -53.9 -25.6 -8 -66.1 -23.5 -81 -31 -21.3 -10.8 -30.7 -17.6 -45.6 -32.4 -15.4 -15.5 -25.6 -30 -36.8 -52.6 -16 -32.2 -20 -53.4 -16.1 -85 2 -16.1 8.6 -48.8 12.3 -61 8.1 -26.6 19.7 -53 28.4 -64.5 7 -9.3 33.9 -36.7 45.8 -46.7 21.2 -17.8 56.1 -38.6 79.1 -47.1 12.6 -4.7 29.2 -9.4 40.4 -11.3 12.1 -2.1 53.3 -3 69.1 -1.5 34.1 3.3 73 12.5 125 29.5 14.3 4.6 34.1 11 44.1 14 23.1 7.2 64.2 22.9 79.8 30.5 7.1 3.5 14.7 8.2 18.6 11.4 7.2 6 21.4 21.4 33.9 36.6 4.3 5.3 8.9 10.8 10.2 12.3 1.3 1.5 3.4 4.4 4.8 6.3 1.4 2 3 4.2 3.7 4.9 4.7 5.2 24.4 41.6 22.6 41.6 -0.5 0 -0.2 0.4 0.4 0.8 0.7 0.4 1.4 1.7 1.6 2.7 0.1 1.1 0.6 2.6 1 3.3 0.5 0.6 0.5 1.2 0 1.2 -0.4 0 -0.2 0.4 0.5 0.9 0.8 0.5 1.5 2 1.5 3.5 0.1 1.4 0.5 2.6 0.8 2.6 0.5 0 3.2 8.9 3.5 11.5 0 0.6 0.6 2.3 1.3 3.8 0.6 1.6 0.9 3.3 0.5 3.8 -0.3 0.5 -0.1 0.9 0.4 0.9 1.4 0 10 40.6 8.8 41.8 -0.3 0.3 -0.1 1.1 0.4 1.8 0.6 0.6 1.2 3.3 1.3 5.8 0.1 2.5 0.5 4.6 0.8 4.6 0.9 0 3.3 18.6 2.5 19.8 -0.3 0.6 -0.1 1.4 0.5 1.7 0.6 0.4 1 3.2 0.8 6.4 -0.1 3.1 0.2 6.4 0.6 7.5 1.1 2.4 -0.1 63 -1.2 63.3 -0.4 0.2 -0.6 3.2 -0.5 6.8 0.2 3.6 0 6.5 -0.5 6.5 -0.4 0 -0.6 2.7 -0.5 6 0.2 3.3 0 6 -0.5 6 -0.5 0 -0.8 1.3 -0.5 3 0.8 5.8 -6.6 51.4 -8.6 53 -0.4 0.3 -0.8 2.1 -0.9 4 -0.1 1.9 -0.6 3.6 -1.1 3.8 -0.6 0.2 -0.8 1.2 -0.5 2.2 0.3 1.1 0 2 -0.6 2 -0.5 0 -0.8 0.6 -0.6 1.3 0.7 1.7 -6.1 26.1 -7.4 26.5 -0.6 0.2 -0.8 0.8 -0.5 1.3 0.8 1.3 -7.6 26.9 -8.8 26.9 -0.5 0 -0.7 0.4 -0.3 1 1.3 2 -10.1 38.5 -18.8 60 -6.8 17.2 -23.2 49.2 -26.2 51.6 -0.8 0.6 -1.2 1.4 -0.8 1.8 0.4 0.3 -0.3 2 -1.5 3.6 -1.2 1.6 -2.2 3.4 -2.2 4 0 0.5 -0.9 1.5 -1.9 2.2 -1 0.6 -1.7 1.7 -1.5 2.3 0.3 0.7 -0.2 1.8 -1.1 2.5 -0.8 0.7 -1.5 1.7 -1.5 2.2 0 0.8 -6.8 11.3 -9.2 14.3 -0.5 0.6 -1.7 2.1 -2.8 3.4 -1.1 1.3 -2 2.8 -2 3.2 0 0.4 -0.9 1.1 -2 1.4 -1.1 0.4 -1.8 1 -1.5 1.5 0.6 1 -5.2 7 -6.7 7 -0.6 0 -0.8 0.3 -0.4 0.7 0.8 0.9 -8.4 10.3 -10.1 10.3 -0.7 0 -1.3 0.4 -1.3 0.9 0 1.4 -9 10.1 -10.3 10.1 -0.7 0 -1.7 1 -2.2 2.2 -0.6 1.2 -2.5 2.9 -4.2 3.7 -1.8 0.9 -3.3 2.2 -3.3 2.9 0 0.7 -1.5 1.9 -3.2 2.7 -1.8 0.8 -2.9 1.4 -2.4 1.5 1.7 0 -1.7 3 -3.5 3 -1.1 0 -1.8 0.5 -1.6 1.1 0.3 1.5 -32.1 23.8 -34.6 23.8 -1 0.1 -1.6 0.5 -1.2 1 0.3 0.6 -0.5 1.5 -1.7 2.2 -1.3 0.7 -2.7 1.8 -3.1 2.5 -0.4 0.8 -1.4 1.4 -2.1 1.4 -0.8 0 -1.6 0.7 -2 1.5 -0.3 0.8 -1.2 1.5 -2.1 1.5 -0.8 0 -1.5 0.4 -1.5 0.9 0 1.3 -9.4 7.1 -11.5 7.1 -1 0 -1.5 0.3 -1.1 0.7 0.9 0.9 -7.9 6.3 -10.5 6.3 -1.1 0 -1.7 0.4 -1.4 1 0.3 0.5 -0.7 1.2 -2.2 1.6 -1.5 0.4 -3.5 1.2 -4.3 1.9 -0.8 0.7 -5.5 2.6 -10.5 4.1 -10 3 -24.4 3.9 -33.4 1.8z m-38.6 -387.5 c37.3 0.2 53.4 -0.8 59 -3.7 6.4 -3.3 11.5 -10.2 11.5 -15.7 0 -2.9 -0.1 -2.9 3.6 -1 4 2 5.7 1.9 8.1 -0.7 3.9 -4.4 4.7 -12.2 4.9 -48.6 0.1 -18.9 0.4 -34.5 0.5 -34.6 0.2 -0.2 6.7 -2.3 14.3 -4.6 16.5 -5 26.5 -6.9 36.3 -7 8.3 0 7.7 -0.8 9.3 12 0.6 4.7 2.6 17.7 4.5 29 1.9 11.3 3.7 24.3 4.1 28.9 l0.7 8.4 -18.4 -0.7 c-17.3 -0.6 -19.1 -0.5 -30.8 2 -17 3.5 -20.6 5.6 -21.8 12.7 -0.8 5.3 2.5 9.9 9.3 13.3 5.2 2.5 5.9 2.6 15.7 2 5.6 -0.4 19.9 -0.9 31.7 -1 28.4 -0.4 34.2 -1.9 40.1 -10.4 2.2 -3.3 2.4 -4.5 2.2 -14.6 0 -6.1 -0.8 -15.4 -1.7 -20.6 -4.4 -25.1 -13.8 -70.7 -15.5 -74.5 -3.5 -7.9 -9.4 -10.3 -27.1 -11.1 -15.1 -0.7 -25.1 0.7 -45.8 6.6 -16.2 4.6 -19.3 5.9 -24 10.4 -6.2 5.8 -6.6 7.4 -6.4 25.1 0.1 8.8 0.5 20.6 0.8 26.3 0.4 6.1 0.3 10.2 -0.3 10.2 -1.4 0 -7.7 -27.9 -12.8 -56.4 -4.9 -27.7 -18.2 -91.5 -22.2 -107.1 -3.2 -12.4 -8.1 -23.4 -11.8 -26.3 -6 -4.8 -14.5 -5 -33 -1.1 -4.9 1 -9.2 1.9 -9.6 1.9 -1 0 -2.3 -6.6 -5.4 -27 -4.8 -30.6 -10.8 -51.9 -16.5 -58 -3.4 -3.6 -7.8 -4 -10.6 -0.9 -1.8 2 -1.9 3.7 -1.7 23.1 0.2 18.5 2.2 53.7 3.9 66.8 l0.5 4.6 -4.7 1.2 c-6.7 1.8 -18.3 7.4 -22.2 10.7 -5 4.2 -7.6 10 -7.6 17 -0.1 28.5 6.4 100.8 14 154.5 5.4 38.4 8.2 47.1 16.1 50 2.3 0.8 5.2 2.8 6.4 4.4 3.5 4.4 7.4 5.8 14.9 5 3.6 -0.4 20.5 -0.6 37.5 -0.5z m124.1 -50.3 c2.8 -2.8 3.4 -4.1 3.4 -7.8 0 -5 -1.8 -8.2 -6 -10.3 -3.9 -2 -7.9 -1.9 -11.7 0.5 -5.6 3.4 -7.2 10 -3.7 15.8 2.2 3.8 4.7 5 10.3 5.1 3.6 0.1 4.8 -0.4 7.7 -3.3z m11.1 -32.8 c3.4 -3.6 3.4 -11.7 0.1 -14.8 -4.7 -4.3 -12.5 -1.6 -14.1 4.9 -1.3 5.2 3.7 12.1 8.8 12.1 2 0 3.9 -0.8 5.2 -2.2z"/>
  <path d="M1608 1373.1 c0 -5.1 -3.8 -37.2 -6.9 -58.6 -5.6 -38.3 -11.1 -108.3 -9.6 -122.1 0.7 -6.6 0.7 -6.6 4.8 -8.4 2.3 -1 9.4 -3.3 15.7 -5 6.3 -1.7 15.8 -4.5 21 -6 8.5 -2.6 22.7 -6 25 -6 2.5 0 12.8 47.4 19.5 89.8 1.9 12.2 4.8 29.1 6.4 37.5 1.6 8.3 3.9 20.2 5 26.2 1.1 6.1 4.1 19.3 6.5 29.5 3.7 15.6 4.2 18.7 3.1 19.9 -1.8 1.9 -48.5 3.1 -48.5 1.2 0 -0.6 0.5 -1.1 1.1 -1.1 0.6 0 3 -1.3 5.4 -3 8.7 -6 11.4 -16.5 7.9 -31 -2.1 -9.2 -5.3 -14.1 -11.2 -17.3 -5.8 -3.2 -9.2 -3.3 -14.7 -0.8 -5.7 2.6 -9.1 7.1 -11.7 15.4 -3.2 10.5 -3.1 19.9 0.4 25.8 1.5 2.5 4.1 5.9 5.7 7.5 l3.1 3 -11.5 1.2 c-6.3 0.7 -12.6 1.7 -14 2.2 -1.4 0.5 -2.5 0.6 -2.5 0.1z m17.5 -88.5 c2.2 -2.2 4.5 -8.1 4.5 -11.7 0 -0.9 -0.8 -2.4 -1.9 -3.3 -1.5 -1.4 -2.9 -1.6 -7.2 -1 -6 0.8 -10.9 4.6 -10.9 8.4 0 2.8 2.6 7.7 4.7 8.9 3.2 1.9 8.2 1.3 10.8 -1.3z m31.6 -21.5 c3.9 -3.9 3.8 -7.3 -0.2 -10.2 -4.4 -3.1 -8.6 -2.9 -11.6 0.5 -3 3.5 -2.9 6.6 0.2 10 3.3 3.6 7.8 3.5 11.6 -0.3z m-36 -37 c3.8 -3.8 4 -9.1 0.4 -12.6 -4.4 -4.5 -13.3 -2.4 -15.4 3.6 -3.2 9.1 8.1 15.9 15 9z m32.5 -8.5 c3.7 -3.7 4.3 -7 2 -11.5 -1.6 -3 -5.3 -5.1 -9.2 -5.1 -3.9 0 -8.4 5.1 -8.4 9.5 0 9.5 9.1 13.6 15.6 7.1z"/>
  <path d="M1857.5 1024.3 c-11.5 -1.8 -31 -8.6 -41.2 -14.4 -10.9 -6.2 -18.5 -16.7 -22 -30.2 -1.8 -7.4 -2.1 -19 -0.9 -42.7 l0.9 -17.5 -2.7 -3.2 c-4.1 -4.9 -11.8 -8.2 -20.6 -8.9 -10.8 -0.8 -14.6 1.4 -22.2 12.6 -10.7 15.8 -16.4 19 -34.3 19 -10.8 0 -23.7 1 -45.5 3.6 -15.8 1.9 -27.1 1.4 -38 -1.6 -10.8 -3 -36.1 -15.8 -44.4 -22.5 -3.8 -3 -6.9 -5.5 -7 -5.5 -0.2 0 -2.7 -0.5 -5.8 -1 -6.2 -1.2 -15.7 -0.1 -24 2.6 -5.9 1.9 -15.5 8.2 -32.5 21 -14.6 11.1 -24.2 16.5 -38.7 21.9 -18.2 6.7 -32.4 8.1 -49.3 4.6 -18.3 -3.8 -27.3 -10.3 -33.9 -24.5 -8 -17.3 -11.4 -36.7 -9.5 -54.2 1.4 -13.7 5.3 -25.2 14.5 -42.9 12.4 -24.1 22.5 -38 55.1 -75.9 18.4 -21.4 25.3 -30.6 33 -44.3 8 -14.2 23.4 -28.6 41.5 -38.8 7.4 -4.2 30.3 -14.8 29.6 -13.7 -0.7 1.2 -12.6 33.1 -17.6 47.2 -6.4 18.2 -13.9 35.5 -25.9 60 -11.1 22.5 -14.9 33 -15.8 43.2 -0.7 8.5 1.3 14.3 6.7 19.2 9.7 8.7 22.7 5.1 32.4 -9.1 9.4 -13.8 27.2 -56.1 40.4 -95.9 l9.7 -29.1 3 0.9 c4.1 1.2 17.3 0.2 26.7 -2 l7.6 -1.9 0.6 2.1 c0.3 1.2 0.6 10.2 0.6 20.2 0 26.8 3.8 62.7 10.5 98.8 3.5 18.9 5.5 23.8 12.9 31.2 6.3 6.3 8.9 7.4 16.7 7.4 4.6 0 10.7 -3.5 13.7 -7.7 6 -8.6 6.1 -19.4 0.4 -39.3 -7.2 -25.1 -10.7 -44.1 -15.1 -82.5 -2.8 -23.5 -3.6 -39.3 -2.2 -42.8 l1.1 -2.8 2.9 2 c1.6 1.2 3.3 2.1 3.8 2.1 0.5 0 3.2 1.5 6 3.4 2.8 1.9 5.5 3.5 6 3.7 0.5 0.2 6.5 3.9 13.4 8.2 6.8 4.3 13.3 8.4 14.3 9 27 16.5 54.6 35.5 70 48.3 12 10 15.6 13.4 14 13.4 -0.4 0 2.8 3.5 7.2 7.8 22.7 22.1 62.3 75.5 79.9 107.7 1.5 2.8 3.2 5.6 3.7 6.3 0.7 0.8 0.7 1.2 -0.1 1.2 -1.1 0 -1.1 2 -0.1 3 0.7 0.6 5.8 13.8 6.2 16 0.2 0.8 0.6 1.7 0.9 2 0.8 0.7 6.9 17.8 6.7 18.8 -0.1 0.4 0.4 2.1 1.1 3.7 0.7 1.7 1.3 4.5 1.4 6.2 0.1 1.8 0.5 3.3 0.8 3.3 0.8 0 4 18.7 3.9 22.5 -0.1 1.7 0.1 4.7 0.4 6.8 0.2 2 0.1 3.7 -0.3 3.7 -0.4 0 -0.6 1.3 -0.3 3 0.9 5.9 -4.8 23 -7.6 23 -0.7 0 -1.1 0.4 -0.8 0.8 1.3 2.1 -13.1 13.2 -14.7 11.5 -0.4 -0.3 -1.4 0 -2.3 0.8 -1.6 1.3 -18.7 2.2 -24.9 1.2z m-234.3 -176.3 c4.4 -3.4 5.2 -6.9 4.5 -20.8 -0.7 -14.7 -2.3 -21.4 -7.8 -33.1 -5.5 -11.7 -7.8 -14.5 -15.7 -18.2 -13.2 -6.4 -24.5 -3.9 -35 7.5 -10.6 11.7 -17.2 26.7 -17.9 41.1 -0.4 6.8 -0.1 8.5 1.6 11.3 1.6 2.4 2.8 3.2 5 3.2 3.8 0 7.2 -4.1 17.5 -20.8 8.2 -13.4 14.1 -21.2 16.1 -21.2 1.7 0 6.1 12.6 8 22.6 1.8 9.4 5.5 21 8 24.8 3.6 5.5 11.2 7.2 15.7 3.6z"/>
  <path d="M639.6 843.9 c-2.1 -4.5 -6.2 -14.8 -9.2 -23 l-5.6 -14.9 5.7 -9.3 c5.8 -9.5 15.6 -23.1 21.7 -30.1 l3.3 -3.8 6.7 9.3 c3.6 5.2 9.4 12.6 12.8 16.4 3.3 3.9 7.5 8.9 9.1 11.3 l3 4.3 -8.7 10.1 c-4.9 5.5 -10.5 11.4 -12.6 13.2 -2.1 1.7 -7.7 7.9 -12.4 13.9 -4.7 5.9 -8.9 10.7 -9.3 10.7 -0.5 0 -2.5 -3.6 -4.5 -8.1z"/>
  <path d="M1257.4 826 c-9.5 -1.4 -16.8 -5.6 -24.9 -14.2 -13.8 -14.6 -19.7 -23 -30 -42.4 -5.5 -10.4 -13.2 -23.8 -17.2 -30 -9.7 -15 -12.3 -21.8 -15.7 -41.6 -2.3 -13.1 -2.4 -74 -0.2 -82.1 2 -7.2 5.3 -13.7 11.2 -22.1 2.5 -3.6 4.2 -6.6 3.8 -6.6 -0.4 0 1.3 -1.3 3.9 -3 2.6 -1.6 5 -3.7 5.3 -4.5 0.4 -0.8 1 -1.5 1.4 -1.5 1.3 0 17.4 -11 17.8 -12.1 0.2 -0.5 1 -0.9 1.7 -0.9 0.7 0 4.5 -1.6 8.4 -3.5 11.4 -5.6 24 -9.5 31 -9.5 3.4 0 6.1 -0.4 6.1 -1 0 -0.6 1.5 -0.8 3.9 -0.4 2.4 0.4 4.1 0.2 4.5 -0.5 0.4 -0.6 1.8 -0.8 3.1 -0.5 1.2 0.3 2.6 0.1 3 -0.6 0.4 -0.6 1.5 -0.8 2.5 -0.5 1 0.3 2.1 0.1 2.5 -0.5 0.4 -0.6 1.5 -0.8 2.5 -0.5 1 0.3 2.1 0.1 2.5 -0.5 0.3 -0.5 1.7 -0.7 3 -0.4 1.2 0.3 2.5 0.1 2.9 -0.4 0.3 -0.5 2.6 -0.7 5.1 -0.4 3.1 0.3 4.5 0.1 4.5 -0.7 0 -1.2 1.1 -1.2 18.5 0.8 4.4 0.6 8.1 0.8 8.4 0.5 0.2 -0.2 1 0.1 1.7 0.7 0.8 0.6 2 0.9 2.9 0.6 0.8 -0.4 1.7 -0.2 2.1 0.4 0.3 0.6 1.2 0.8 2 0.5 0.7 -0.3 1.6 -0.1 2 0.5 0.3 0.6 1.2 0.8 1.9 0.5 0.7 -0.2 1.6 -0.2 2 0.2 0.4 0.4 1 0.7 1.3 0.7 0.4 0.1 1.6 0.6 2.7 1.2 1.1 0.6 2.3 1.1 2.8 1.2 0.4 0 2.1 0.8 3.7 1.6 1.6 0.8 3.1 1.4 3.2 1.3 0.9 -0.6 20.6 10.2 26 14.2 8 6 19.4 18 24.1 25.2 2.2 3.5 5.7 12.3 6.1 15.7 0.2 1.4 1.6 7.1 3 12.5 5 19 4.5 38.8 -1.6 56.9 -3.8 11.7 -11.5 26.6 -18 35.4 -7.6 10.1 -29.3 31.2 -46.7 45.3 -25 20.2 -29.5 24.4 -40.5 37.9 -10.7 13.1 -19.3 20.7 -27.4 24.2 -3.6 1.6 -15.5 4.2 -17.2 3.8 -0.3 -0.1 -2.8 -0.5 -5.6 -0.9z"/>
  <path d="M879.4 799.3 c2 -7.5 1.5 -51.1 -1.4 -125.3 -0.6 -13.9 -0.6 -24.8 -0.1 -25.3 0.5 -0.5 5.8 -1.3 11.7 -1.7 11.8 -1 42.1 -3.1 46.9 -3.4 5.7 -0.2 6 1.1 12 53.9 1.4 12.1 2.9 29.2 3.5 38 0.6 8.8 1.7 23.2 2.5 32 0.7 8.8 1.1 16.3 0.7 16.7 -0.9 0.8 -17.5 3.6 -18.4 3.1 -0.5 -0.2 -0.8 -5 -0.8 -10.6 0 -16.2 -3 -24.6 -9.8 -27.4 -3.1 -1.3 -4.5 -1.3 -9.2 -0.3 -15.4 3.4 -17.5 6.2 -17.5 23.5 0 6.6 0.4 14.4 0.8 17.3 0.7 4.6 0.6 5.2 -1 5.2 -1 0 -5.6 1.4 -10.3 3 -10 3.5 -10.3 3.5 -9.6 1.3z"/>
  <path d="M1597.5 684.1 c-1.9 -0.4 -2.9 -1.2 -2.6 -2.2 0.2 -0.8 1.8 -7 3.5 -13.7 l3.1 -12.4 3.7 0.5 c2 0.3 5.1 1.5 6.8 2.7 1.6 1.2 3 1.9 3 1.5 0 -0.3 1 0.1 2.3 1 1.2 0.8 3.2 1.6 4.2 1.8 5.1 0.8 5.6 1.8 5.3 10.7 l-0.3 8.5 -4 0.6 c-7 1.2 -21.9 1.8 -25 1z"/>
  <path d="M869 616.7 c0 -0.3 2.4 -1.4 5.3 -2.5 2.8 -1.1 6 -2.3 7 -2.7 1.1 -0.5 1.7 -0.2 1.7 0.7 0 1 -2 1.9 -5.7 2.8 -3.2 0.7 -6.4 1.5 -7 1.7 -0.7 0.3 -1.3 0.3 -1.3 0z"/>
 </g>
</svg>