<?xml version="1.0" encoding="utf-8"?>
<!DOCTYPE svg PUBLIC "-//W3C//DTD SVG 1.0//EN" "http://www.w3.org/TR/2001/REC-SVG-20010904/DTD/svg10.dtd">
<svg version="1.0" xmlns="http://www.w3.org/2000/svg" width="2500px" height="2500px" viewBox="0 0 2500 2500" preserveAspectRatio="xMidYMid meet">
 <g fill="#00b4f1">
  <path d="M1030.7 2159 c-3.4 -0.4 -7.3 -1.8 -9.7 -3.4 -6.8 -4.5 -21.9 -24.6 -46.6 -62.1 -6.2 -9.3 -23.3 -35.3 -38.1 -57.7 -19.2 -29.2 -27.3 -40.7 -28.7 -40.8 -1 0 -12 3.3 -24.5 7.4 -50.7 16.6 -90.7 28.8 -109.6 33.5 -22.2 5.5 -49.8 13.3 -55.4 15.7 -5 2.2 -13.8 2.1 -18.3 0 -4.6 -2.2 -9.5 -9.3 -10.3 -15 -1 -6.4 0.8 -11.3 7.9 -21.8 7.3 -10.7 36 -57.5 72.6 -118.3 49.4 -82 98.4 -160.7 134.4 -215.8 37.7 -57.8 42.3 -64.6 48.3 -73.1 3.5 -4.7 6.3 -9.1 6.3 -9.7 0 -1.3 -10.6 -6.1 -27 -12.4 -6.9 -2.6 -19.1 -7.4 -27.2 -10.6 -21.2 -8.4 -41.6 -14.5 -62.3 -18.5 -37.6 -7.2 -47.8 -10.7 -55.9 -18.8 -6.1 -6 -8.1 -11.4 -11.6 -30.1 -6.2 -33.7 -20.2 -69.3 -41.1 -104.1 -16.1 -26.8 -29.9 -44.4 -53.9 -68.9 -9.7 -9.9 -19.1 -20.2 -21 -22.9 -6.2 -9.1 -7.5 -18.9 -4.1 -30.6 1 -3.6 3.2 -11.2 4.9 -17 5.2 -17.8 7.4 -30.8 18.3 -111 2.7 -19.8 0.9 -64.2 -3.7 -94.5 -1.7 -10.7 -10.9 -39.6 -17.2 -53.8 -3.2 -7.3 -3.6 -9.2 -3.6 -16.8 -0.1 -7.8 0.2 -9 2.9 -13.5 3 -4.7 4.1 -5.7 20.5 -16.3 13.3 -8.7 26.1 -25 39 -49.6 12.7 -24.1 14.7 -28.5 22.5 -49 12.5 -32.8 19.4 -59.3 25.5 -98.4 5 -32.3 9.7 -37.5 38 -43.6 17.3 -3.7 26.2 -6.7 39.3 -13.4 27.2 -13.8 49.9 -31.1 76.7 -58.7 11.5 -11.9 16.7 -18.2 43.7 -53.8 10.4 -13.6 15.3 -17.9 22.6 -20.1 7.2 -2.1 9 -2 27.7 2.5 28.8 6.8 46.1 8.8 62.5 7 14.3 -1.5 30.5 -4.7 41.5 -8.2 28.2 -9 88.5 -38.9 124.5 -61.6 25.4 -16.1 31.6 -17.9 42.4 -12.6 5.8 2.9 9.3 7.4 11.1 14.3 2 7.4 29.2 35.5 58 59.6 8.3 6.8 18.3 14.9 22.2 17.8 14.9 10.9 37.5 23.1 53 28.6 11.4 3.9 45.8 11.6 61.8 13.7 15.2 1.9 75.7 3.5 88.2 2.3 4.8 -0.5 17 -1 27 -1.1 20.7 -0.3 22.5 0.1 30.3 7.3 5.5 5.1 7.6 9.6 11.3 24.5 5.4 22 17.9 48.2 47.2 98.4 27 46.5 38.7 63.3 65.7 94.2 17.1 19.6 33.9 36.3 56 55.6 17.5 15.3 22.3 21.5 24.7 32.1 1.3 5.7 1.6 13.9 1.6 44.3 0 20.5 0.5 44.7 1 53.8 0.5 9.1 1.4 26.6 2 39 1.6 33.4 3.8 57.4 7.1 76.9 3.7 21.9 6.6 33.2 13 51.2 8.1 22.9 9.1 26.7 8.6 33 -0.9 10.7 -5.6 17.7 -16.7 24.7 -7.1 4.5 -34.5 28 -43.1 36.9 -18.2 18.7 -44.6 51.3 -57 70.5 -7.7 12 -19.8 47.9 -23.9 71.2 -2.7 15.5 -3.8 26 -5 49.2 -1.2 25 -2.7 30.7 -10.1 38.8 -6.7 7.3 -11.2 9.3 -28.1 12.2 -27.6 4.8 -40.8 8.8 -68.3 20.9 -7.1 3.1 -19.2 8.3 -26.8 11.6 -19.3 8.3 -68.2 33.1 -75 38.1 -1.7 1.3 -1.4 1.9 4.6 9.8 14.4 19.2 32.7 45.5 55.4 79.5 13.3 19.8 40.8 60.8 61.3 91 20.4 30.3 55.5 82.5 77.8 116 22.4 33.6 42.6 63.6 45 66.7 2.3 3.2 6.7 7.5 9.6 9.7 7.3 5.4 10 11 9.4 19.5 -0.5 7.7 -3.9 12.9 -10.2 15.6 -11.4 4.9 -64.8 4.4 -102.6 -1 -26 -3.7 -65.3 -7.3 -94.5 -8.7 l-12 -0.5 -11 9.9 c-16.7 15.2 -57.3 54.7 -94 91.7 -21.5 21.7 -34.4 33.9 -37 35.1 -5.2 2.4 -13.3 2.4 -17.6 -0.1 -1.7 -1 -4.5 -3.5 -6.1 -5.5 -2.6 -3.2 -3.5 -7 -10.3 -40.2 -4.1 -20.2 -11.6 -54.8 -16.5 -77 -5 -22.1 -11.6 -51.4 -14.6 -65.2 -3 -13.7 -7.7 -34.7 -10.5 -46.5 -8.9 -38.3 -15.9 -71 -31 -144.5 -9.7 -47.7 -12 -56.9 -20.3 -81 -3.6 -10.4 -6.6 -20 -6.6 -21.3 0 -1.2 -0.7 -2.5 -1.6 -2.9 -2.2 -0.8 -48.6 1.6 -61.4 3.2 -11.3 1.4 -32.6 5.9 -37.4 7.9 -2.9 1.2 -3 1.6 -12.6 40.7 -10.5 42.5 -17.3 67.9 -42.2 158.9 -8.9 32.2 -20.5 74.9 -26 95 -5.4 20.1 -14.4 52.5 -19.9 72 -5.5 19.5 -13.9 49.2 -18.6 66 -9.3 33.4 -10.6 37.1 -14.9 41.3 -5.6 5.6 -11.3 7.1 -21.7 5.7z m-2.8 -56.5 c1.6 -5.5 2.9 -10.1 2.8 -10.2 -0.6 -0.6 -24.1 -9.3 -24.3 -9 -0.2 0.2 3.5 7.2 8.3 15.5 4.8 8.4 9 14.9 9.5 14.4 0.4 -0.4 2.1 -5.2 3.7 -10.7z m417.1 -7.1 c9.9 -9.7 17.9 -17.8 17.8 -18 -0.2 -0.1 -6.7 1.3 -14.4 3.1 -7.8 1.8 -17.4 3.9 -21.4 4.6 -4 0.7 -7.4 1.8 -7.7 2.4 -0.4 1.1 1 7.3 4.8 21.8 0.5 2 1.4 3.7 1.9 3.7 0.5 0 9 -7.9 19 -17.6z m-410.1 -16.5 c1.2 -4.1 2.1 -8 2.1 -8.5 0 -0.5 -1.8 -1.5 -4 -2.2 -2.3 -0.7 -10.9 -4.4 -19.3 -8.3 -22.4 -10.5 -31 -14.1 -30.4 -12.7 0.2 0.7 4.3 7.3 9.1 14.6 5.9 9.1 9.2 13.2 10.5 13.2 1 0 7.9 2.9 15.2 6.4 7.4 3.6 13.7 6.2 14.1 5.8 0.3 -0.4 1.5 -4.1 2.7 -8.3z m409.3 -9.4 c12.8 -3.6 25.8 -6.8 28.9 -7.2 l5.7 -0.6 16.8 -16.8 c9.3 -9.3 16.3 -16.9 15.6 -16.9 -0.7 0 -10.1 2.2 -21 4.9 -24 6 -31.7 7.5 -49.8 10.1 -17.9 2.4 -28.5 4.6 -30.1 6.2 -1 1.1 -0.6 3.7 1.8 13.3 1.6 6.6 3.2 12.6 3.4 13.4 0.6 1.6 -1.5 2 28.7 -6.4z m-402.2 -15.6 c1.7 -5.7 3 -10.7 3 -11.1 0 -0.4 -9.7 -5.4 -21.6 -11.2 -11.9 -5.8 -32.6 -16.5 -46.1 -23.7 -13.4 -7.2 -24.6 -12.9 -24.8 -12.7 -0.2 0.2 4.6 8.8 10.8 19.1 9.7 16.3 11.5 18.7 13.7 18.7 3.2 0 10.2 3.3 26.4 12.4 20.7 11.8 35 19.5 35.4 19.2 0.1 -0.2 1.6 -5 3.2 -10.7z m384 -18 c13.8 -3.7 35.7 -8.5 75.5 -16.4 9.9 -1.9 19.6 -4.1 21.6 -4.8 2.5 -0.8 6.6 -4.6 13.9 -12.6 6.9 -7.5 11.7 -11.9 14.4 -13.1 5.9 -2.7 3 -2.5 -20.7 1 -41.4 6.2 -77.6 12.5 -123.1 21.3 -3.2 0.6 -6 1.7 -6.3 2.4 -0.4 1.1 1.9 12.3 4.8 23.6 0.9 3.4 1.3 3.8 3.2 3.2 1.2 -0.4 8.7 -2.5 16.7 -4.6z m-373.8 -16.9 c2.6 -9.1 4.4 -16.7 4 -17.1 -0.4 -0.4 -5.4 -2.8 -11.2 -5.3 -5.8 -2.6 -19.3 -9.4 -30 -15.1 -10.7 -5.6 -27.4 -14.1 -37 -18.8 -9.6 -4.7 -26.5 -13.4 -37.5 -19.2 -11 -5.9 -32.8 -17.4 -48.4 -25.7 -30.7 -16.1 -44.8 -24.1 -58 -32.5 -4.6 -3 -8.7 -5.1 -9.1 -4.6 -2.4 2.6 -12.8 20.9 -12.2 21.4 0.4 0.4 9 5.1 19.2 10.4 10.2 5.4 25.7 13.7 34.5 18.5 8.8 4.8 20.3 11 25.7 13.9 l9.6 5.1 7 -0.6 c6 -0.6 7.7 -0.4 11.6 1.5 5.4 2.7 8.5 6.4 16.3 19.7 3.5 5.8 6.9 10.4 8.3 11.1 1.4 0.6 14 6.8 28 13.7 14 6.8 36.1 18.7 49 26.4 12.9 7.7 23.9 13.9 24.5 13.8 0.5 -0.1 3.1 -7.6 5.7 -16.6z m-294.7 -8.5 c16.6 -7.1 23.8 -10.5 23.4 -11 -1.2 -1.2 -22.1 -9.5 -22.8 -9.1 -0.9 0.6 -15.1 24.1 -15.1 25.1 0 0.9 3.1 -0.2 14.5 -5z m659.5 -13.6 c29.2 -6.3 73.4 -14.1 132 -23.5 22.8 -3.6 58.8 -9.4 80 -12.9 33.1 -5.5 71.7 -11.5 74.3 -11.5 0.4 0 -3.2 -5.9 -8 -13 l-8.8 -13 -4 0.3 c-2.2 0.2 -13.7 2.2 -25.5 4.5 -38.3 7.3 -94.7 17.1 -128.4 22.2 -48.1 7.4 -136.1 22.1 -137 23 -0.4 0.5 4.5 23.1 5.9 26.9 0.3 0.8 1.3 1.1 2.8 0.7 1.2 -0.3 8.7 -2 16.7 -3.7z m321 2.4 c0 -0.5 -0.9 -2.3 -2 -4 -2.3 -3.8 -3 -3.9 -16.1 -2.3 -16.6 2.1 -16.6 2.2 -0.4 4.5 17.8 2.7 18.5 2.7 18.5 1.8z m-932.8 -7.9 c7.1 -2.6 12.7 -4.8 12.6 -4.9 -0.2 -0.2 -8.2 -4 -17.8 -8.5 -9.6 -4.5 -19.4 -9.5 -21.8 -11.1 -2.5 -1.7 -4.5 -2.9 -4.6 -2.7 -1.4 2 -8.6 13.8 -9.5 15.6 -1.1 2.1 -0.7 2.5 13 9.2 7.8 3.9 14.4 7 14.6 7 0.3 0 6.4 -2.1 13.5 -4.6z m258.7 -11.9 c2.4 -8 4.2 -14.7 4 -14.9 -0.2 -0.3 -19.1 -9.7 -41.9 -21 -69.2 -34.2 -149.5 -78.4 -173.3 -95.2 -2.6 -1.9 -5.1 -3.4 -5.6 -3.4 -1.5 0 -16.5 26 -15.5 27 3.2 3.2 56.7 31.3 134.9 71 43.8 22.2 65.5 34.1 81.5 44.6 5.2 3.5 10 6.3 10.5 6.3 0.6 0.1 3 -6.4 5.4 -14.4z m588.6 10.5 c5 -0.6 20.6 -2.1 34.8 -3.5 37.3 -3.6 38.7 -3.7 39.2 -4.5 0.6 -0.9 -14.4 -22 -15.8 -22 -0.6 0 -9.2 1.6 -19.1 3.6 -10 1.9 -40.8 7.3 -68.5 12 -44.4 7.4 -54.2 9.2 -50.5 9.5 0.5 0 15.3 1.5 32.9 3.3 17.6 1.9 33.4 3.2 35 3 1.7 -0.2 7.1 -0.8 12 -1.4z m-816.6 -9.5 c15 -5.4 21.3 -8.1 21 -9.1 -0.1 -0.5 -9.3 -5 -20.3 -10 -23 -10.4 -30.4 -14 -39.9 -19.7 -3.7 -2.2 -6.9 -3.8 -7.1 -3.6 -1 1.1 -11.7 18.9 -12.2 20.3 -0.4 1 -0.1 1.6 0.7 1.6 0.8 0 11.5 5.4 23.9 12 12.4 6.6 22.9 12 23.4 12 0.5 0 5.2 -1.6 10.5 -3.5z m46.8 -16.6 c10.9 -3.8 15.3 -6.1 15.3 -7.9 0 -0.4 -3.9 -2.5 -8.7 -4.5 -4.9 -2.1 -12.2 -5.7 -16.3 -8 -4.1 -2.3 -17.1 -9.1 -28.9 -14.9 -11.8 -5.9 -24.7 -12.8 -28.8 -15.3 -4.1 -2.5 -7.8 -4.1 -8.3 -3.7 -1.5 1.8 -12 19.4 -12 20.3 0 0.4 2.1 1.6 4.8 2.6 7.9 3.1 21.6 9.9 46.2 22.9 12.9 6.9 23.8 12.6 24.2 12.6 0.4 0 6 -1.9 12.5 -4.1z m524.8 -4 c18.9 -4.9 46.8 -10.2 94 -17.9 20.4 -3.2 49.8 -8.2 65.5 -11 33.2 -5.9 66 -10.9 91.8 -14.1 10 -1.3 18.8 -2.6 19.4 -3 1.8 -1.1 -16.5 -26.5 -18.8 -26.2 -5.8 0.6 -52.9 9.4 -85.4 15.8 -20.6 4.1 -57.1 11 -81 15.4 -23.9 4.4 -55.4 10.2 -70 12.9 -14.6 2.8 -29.5 5.4 -33.2 5.7 -5 0.5 -6.8 1.1 -6.8 2.2 0 1.3 2 9.6 5.1 21.6 0.8 3.1 1.4 3.7 2.7 3.2 0.9 -0.4 8.5 -2.4 16.7 -4.6z m-336.1 -4.6 c0.3 -1.6 2.8 -10.2 5.5 -19.3 3.6 -12 4.6 -16.7 3.8 -17.2 -0.7 -0.4 -11.8 -5.6 -24.7 -11.4 -12.9 -5.9 -32.7 -15.3 -44 -20.9 -11.3 -5.6 -32.2 -15.8 -46.5 -22.5 -33.5 -15.7 -83 -40.5 -91.9 -45.9 -3.8 -2.3 -7.5 -4 -8.1 -3.7 -1.1 0.4 -14.5 22.1 -14.5 23.4 0 0.8 13.7 8.5 84.3 47.6 27.1 15 61.4 33.6 76.2 41.4 14.9 7.7 33.8 17.9 42 22.6 8.3 4.7 15.5 8.5 16.1 8.6 0.6 0 1.4 -1.2 1.8 -2.7z m319.4 -29.2 c17.6 -4.5 56.5 -12.4 101.2 -20.5 13.5 -2.5 36.4 -7 51 -10 14.6 -3.1 44.5 -8.6 66.5 -12.1 22 -3.6 40.8 -6.9 41.8 -7.3 1.5 -0.6 0.4 -2.7 -8 -15.2 -7.4 -11 -10.3 -14.5 -11.8 -14.4 -1.1 0.1 -23.4 4.2 -49.5 9.2 -46.6 9 -165.1 30.1 -194.3 34.7 -8.2 1.3 -15 2.5 -15.2 2.7 -0.2 0.2 0.2 2.8 0.9 5.8 0.8 3 2.6 10.8 4.1 17.3 1.9 8.6 3.1 11.7 4.2 11.7 0.8 0 4.9 -0.9 9.1 -1.9z m-301.8 -30.9 c2.3 -8 3.8 -14.7 3.4 -15.2 -1.2 -1.1 -41.1 -19.6 -59.9 -27.7 -27.8 -12.1 -106.5 -52.2 -135.2 -68.9 -5.1 -3 -9.6 -5.4 -10.1 -5.4 -1 0 -15.2 23.2 -15.2 24.7 0 0.4 36.3 18.8 80.6 40.8 44.3 22 91.8 46.1 105.7 53.7 13.9 7.5 25.5 13.3 25.8 13 0.4 -0.4 2.6 -7.2 4.9 -15z m294 -15.2 c5.8 -1.7 21.3 -5.1 34.5 -7.6 13.2 -2.5 35.5 -6.7 49.5 -9.4 14 -2.7 36.3 -6.7 49.5 -8.9 13.2 -2.2 38.9 -6.7 57 -10 18.2 -3.3 36.8 -6.5 41.5 -7.2 4.7 -0.7 8.9 -1.5 9.3 -1.9 0.5 -0.4 -3.7 -7.4 -9.4 -15.5 -8.5 -12.2 -10.6 -14.6 -12.3 -14.2 -25 5.4 -49.6 10.4 -65.3 13.3 -10.9 1.9 -34.6 6.4 -52.8 9.9 -18.1 3.5 -42.9 8.3 -55 10.5 -36.8 6.9 -66.5 13.6 -66.5 15.2 0 1 5.8 25.6 6.5 27.6 0.6 1.7 1.7 1.6 13.5 -1.8z m-281 -28.5 c3.8 -13.1 6 -21.9 5.4 -22.5 -1 -1 -15.2 -7.3 -30.6 -13.6 -5.9 -2.4 -14.7 -6.3 -19.5 -8.8 -4.9 -2.4 -16 -7.6 -24.8 -11.6 -26.2 -11.8 -95.1 -44.7 -108.2 -51.6 -6.7 -3.5 -12.6 -6.4 -13.2 -6.4 -1 0 -17.1 27.1 -17.7 29.9 -0.3 1.2 10.5 7.3 43.3 24.6 60.7 32 156.6 81.4 157.9 81.5 0.6 0 3.9 -9.7 7.4 -21.5z m275.1 -13.4 c14.5 -5 22.7 -6.8 96.7 -21.7 34.1 -6.8 87.6 -16 110.2 -19 7.4 -0.9 13.7 -1.8 13.8 -2 0.9 -0.7 -20.4 -30.4 -21.8 -30.4 -1.9 0 -60.7 13.5 -97.5 22.4 -40.6 9.8 -102.7 23.3 -113.6 24.6 -5.3 0.7 -10.2 1.5 -10.8 2 -0.9 0.5 -0.6 3.3 1.4 11.1 4.4 17.4 4.5 17.9 5.9 17.9 0.7 0 7.8 -2.2 15.7 -4.9z m-260 -36.6 c3.2 -10.4 5.5 -19.3 5.1 -19.6 -0.4 -0.3 -8.8 -3.9 -18.7 -7.9 -9.9 -4 -28.1 -11.6 -40.5 -17 -12.4 -5.3 -30.6 -12.8 -40.5 -16.5 -34.5 -13 -74.6 -31.1 -85.5 -38.4 -2.4 -1.7 -4.8 -2.7 -5.1 -2.3 -2.2 2.3 -15.8 27.7 -15.2 28.3 0.5 0.3 5.5 2.7 11.3 5.2 9.1 3.9 31.5 14.2 76.5 34.9 16.9 7.8 64.7 31.7 80.2 40.1 20 10.9 23.6 12.7 25.1 12.4 0.9 -0.1 3.7 -7.7 7.3 -19.2z m245.9 0.4 c9.3 -3.2 35.2 -9.6 52.3 -12.8 16.9 -3.3 54.5 -11.6 84.2 -18.6 14.9 -3.5 36.5 -8.3 48 -10.6 11.6 -2.3 21.4 -4.6 21.9 -5 0.7 -0.6 -11.3 -19.1 -13.2 -20.3 -0.4 -0.3 -8.9 1.3 -18.7 3.5 -29.5 6.5 -64.9 13.6 -93.8 18.8 -15 2.8 -36.6 7.1 -48.2 9.6 -11.5 2.6 -27.7 5.9 -35.8 7.5 -8.2 1.5 -15.1 3.1 -15.5 3.5 -0.6 0.6 5.3 25.7 6.5 27.8 0.3 0.5 1.2 0.5 2.2 0.2 0.9 -0.4 5.4 -2 10.1 -3.6z m-238 -26.3 c0 -0.3 1.6 -5.7 3.5 -12 1.9 -6.4 3.5 -12.2 3.5 -13 0 -1.5 -24.8 -14 -53.7 -27.2 -17.7 -8.1 -78.6 -39.1 -106.2 -54.1 -14.2 -7.7 -17.6 -9.2 -18.6 -8.1 -1.6 1.7 -17.8 30.9 -17.3 31.2 0.1 0.2 3.6 1.3 7.5 2.5 4 1.2 16.4 6.2 27.5 11.2 11.2 5 25.7 11.5 32.3 14.3 22.6 10 79 35.8 99.5 45.7 19.6 9.4 22 10.5 22 9.5z m235.8 -13 c29.5 -7.4 55.6 -12.7 97.7 -20.1 8.3 -1.5 25.4 -4.8 38 -7.5 12.7 -2.7 28.6 -5.8 35.5 -7 16.7 -2.8 17.3 -2.9 16.7 -4.3 -0.2 -0.7 -4 -6.3 -8.3 -12.4 -5.9 -8.6 -8.4 -11.3 -10 -11.3 -3.4 0 -41.1 7.8 -101.4 21 -62.5 13.7 -77 16.6 -85.7 17.6 -9.8 1 -9.8 1 -6.2 14.4 3.8 14.4 3.6 14 4.9 14 0.6 0 9 -2 18.8 -4.4z m-217.6 -45.1 c4.3 -13.1 7.6 -24 7.4 -24.3 -0.7 -0.6 -11.6 4 -11.6 4.9 0 0.4 1.4 1.6 3 2.6 1.7 0.9 3 2.6 3 3.6 0 2.2 -1.4 2 -9 -0.9 l-4.5 -1.7 -6.7 4.1 c-10.9 6.7 -20.6 11.2 -26.4 12.4 -3.9 0.8 -5.2 1.4 -4.5 2.1 1.9 1.9 39.6 21.7 40.6 21.3 0.5 -0.1 4.5 -11 8.7 -24.1z m207.8 8.1 c15.5 -3.8 56.3 -12.7 93 -20.1 12.3 -2.5 26.5 -5.5 31.4 -6.6 5 -1.1 18 -3.5 28.9 -5.4 10.9 -1.8 20.1 -3.6 20.4 -3.9 0.5 -0.5 -12.5 -21.4 -15.1 -24.3 -0.8 -0.9 -9.8 0.8 -36.5 6.8 l-35.4 7.9 -6 5.1 c-9.7 8.1 -14.8 10.3 -23.8 10.4 -5.9 0 -8.6 -0.5 -12.7 -2.4 l-5.2 -2.4 -10.3 2.2 c-37.2 8.1 -43.3 9.2 -48 8.6 -3.6 -0.4 -4.9 -0.2 -5.3 0.9 -0.6 1.5 0.4 7.9 3.2 20.4 1.9 8.6 -0.6 8.3 21.4 2.8z m-287.3 -23.8 c-0.3 -0.7 -2.1 -5.2 -4 -9.9 -4.1 -10.4 -8.9 -18.5 -17 -28.8 -11.6 -14.6 -15.3 -17.7 -29.7 -25.8 -7.4 -4.2 -18.4 -10.5 -24.4 -14 -6 -3.5 -11 -6.2 -11.1 -6.1 -1.1 1.4 -16.5 30.7 -16.5 31.4 0.1 0.5 4 2.7 8.7 4.9 10.3 4.7 53.2 27.6 75.8 40.3 15.7 8.9 19.2 10.4 18.2 8z m271.3 -10.8 c3 -0.6 10.2 -2.2 16 -3.5 5.8 -1.3 14.7 -3.2 19.8 -4.1 5 -0.9 9.2 -2 9.2 -2.4 0 -1.9 -36.6 -10.8 -52.5 -12.6 -6.4 -0.8 -6.2 -1.6 -4.4 13.1 1.3 11.5 1.4 11.9 4.2 11.1 1.2 -0.3 4.7 -1 7.7 -1.6z m142.2 -30 c10.9 -2.2 20.6 -4 21.5 -4 4.8 -0.1 4.7 -1.5 -1.3 -11.4 -3.3 -5.3 -6.4 -9.6 -6.9 -9.6 -1.7 0 -29.6 21.4 -34 26 -3.6 3.9 -3.8 4.2 -1.5 3.6 1.4 -0.4 11.4 -2.4 22.2 -4.6z m-370.3 -4.8 c29.7 -16.8 69.8 -29.2 108.1 -33.6 28.7 -3.4 88.5 -4.7 108.8 -2.6 20.5 2.3 61 11.4 75.4 17.1 2.7 1 5.1 1.9 5.5 1.9 0.3 0 6.9 -6.2 14.7 -13.8 24.8 -24.2 48.5 -41.3 87.1 -62.7 28.3 -15.8 47.1 -25 82 -40 31.6 -13.7 50.8 -20.3 69.5 -24.1 7.4 -1.5 14 -3.1 14.6 -3.6 0.7 -0.5 1.4 -6 1.8 -13.1 1.6 -29.4 3.8 -44.5 9.8 -68.2 5.2 -20.7 11.6 -39 18.7 -54 8.4 -17.5 30.7 -47.4 57.8 -77.5 16.5 -18.3 24.4 -25.8 41.6 -39.3 7 -5.6 12.7 -10.8 12.7 -11.7 0 -0.9 -1.6 -6.3 -3.5 -12.1 -12.9 -38.1 -17.9 -69.1 -21 -132.4 -0.8 -16.5 -1.9 -40.1 -2.6 -52.5 -0.7 -15.7 -0.8 -30.2 -0.1 -48 0.6 -14.9 0.6 -26.2 0.1 -27.2 -0.5 -0.9 -6.4 -6.4 -13.1 -12.1 -24 -20.6 -61.3 -60.6 -81.3 -87.2 -14.1 -18.8 -22.6 -31.8 -43.9 -67.5 -26.3 -43.8 -42.5 -75.7 -51.1 -100.5 l-3.1 -9 -5.5 0.2 c-3 0.1 -22.7 0.2 -43.9 0.3 -44.1 0.2 -59.9 -1.1 -91.7 -7.6 -39.2 -8 -54.3 -13.5 -86.8 -31.7 -24.3 -13.6 -54.3 -37.7 -73.9 -59.4 -10.2 -11.1 -14.3 -16.9 -20.7 -28.7 -2.2 -4.2 -4.5 -7.6 -5 -7.6 -0.6 0 -3.3 1.5 -6.2 3.3 -17.6 11.3 -87 47.8 -109.5 57.6 -29.8 13.1 -59 19.3 -90.5 19.2 -21 0 -29.2 -1 -49 -5.7 -11.9 -2.9 -15 -3.4 -16.2 -2.4 -0.9 0.7 -5.9 7.4 -11.2 14.9 -17.3 24.4 -30.4 38.9 -55.8 62.3 -15.4 14.2 -20.9 18.1 -49.5 35.1 -22.3 13.3 -30.8 17.3 -46.4 22.3 -6.1 2 -13.3 4.3 -16 5.2 l-5 1.7 -2.2 16.5 c-3.4 24.9 -9.1 49.8 -16.4 72 -6.6 19.9 -21 51.6 -32.5 71.7 -16.1 28.1 -21.5 35.3 -40.6 54.5 l-16.6 16.6 3.4 8.9 c8.6 22.8 12.5 36.7 15.9 57.2 4.8 29.6 5.4 36 5.4 61.3 0 25.5 -0.8 33 -7.5 72.3 -7.1 41.3 -10.8 58.2 -18 81.5 -1.9 6.3 -3.5 11.9 -3.5 12.3 0 0.5 5.3 6.4 11.8 13 50 51.6 88.9 119.7 105.3 184.6 2.1 8.4 4.3 15.9 4.9 16.6 0.6 0.7 3.8 1.8 7.3 2.4 14.4 2.8 48.2 11.6 61.7 16.1 21.4 7.1 66.8 25.3 80.2 32.1 12.9 6.6 41.6 24.3 51.1 31.6 29.7 22.6 48.6 42.3 72.4 75.1 1.3 1.7 2.7 3.2 3 3.2 0.3 0 4.4 -2.2 9.2 -4.8z"/>
  <path d="M1092.6 1609.8 c-3.5 -4.9 -1.4 -24.7 6.4 -62.6 2.7 -13.3 5 -24.9 5 -25.6 0 -1.2 -14.4 -7.6 -17 -7.6 -0.4 0 -1.6 4.2 -2.5 9.3 -4.6 23.8 -12.6 35.6 -19.5 28.7 -3.9 -3.9 -2.4 -12.9 5.3 -31.5 2.5 -6 4.3 -11.3 3.9 -11.6 -1.8 -1.7 -22.3 -10.1 -23.4 -9.6 -0.7 0.3 -7.4 11.2 -14.8 24.2 -18.3 32.2 -24.2 39.2 -30.7 36.9 -2.4 -0.8 -2.8 -1.5 -3.1 -5.3 -0.5 -6.4 4.6 -16.1 21.5 -41.3 8.1 -12 14.5 -21.9 14.2 -22.1 -0.2 -0.2 -6.7 -3.8 -14.4 -8.1 -27.8 -15.5 -53.9 -34.5 -80 -58.3 -58.6 -53.4 -104.1 -132.7 -122.3 -213.3 -5.7 -25 -10.2 -57.7 -10.2 -73.9 0 -3.8 -0.4 -7.2 -0.8 -7.5 -0.5 -0.3 -4 2 -7.8 5.1 -8.4 6.8 -15.6 10.3 -21 10.3 -4.8 0 -7.4 -2.3 -7.4 -6.4 0 -5.1 8.6 -10.9 20.7 -13.9 3.4 -0.9 8.2 -2.6 10.7 -3.8 l4.6 -2.1 0 -6.8 0 -6.8 -11.3 2.9 c-18.4 4.7 -25.6 3.5 -25.7 -4.2 0 -5.6 4.8 -7.5 23.2 -9.4 7.7 -0.7 14.2 -1.5 14.4 -1.7 0.2 -0.2 0.5 -3.5 0.6 -7.3 l0.3 -7 -3 -0.3 c-7.4 -0.8 -33.8 -6.4 -40.1 -8.6 -14 -4.7 -19.4 -8.7 -19.4 -14.1 0 -4.9 3 -7 9.8 -6.9 6.7 0.1 10.4 0.9 35.5 7.7 10.3 2.7 18.9 4.8 19.2 4.5 0.3 -0.3 1.7 -6.9 3 -14.8 9.7 -55.4 29.2 -105 59.3 -151 24.9 -38.1 52.4 -69 86.7 -97.4 24.8 -20.5 40.6 -31.1 64.5 -43.1 l13.4 -6.7 -2.5 -1.9 c-1.3 -1 -5.5 -4 -9.4 -6.6 -13 -8.7 -28.5 -26.3 -28.5 -32.5 0 -3.2 3.9 -7.8 6.6 -7.8 6.4 0 21.4 12.8 32.5 27.6 9.5 12.7 8.9 12.4 14.5 6.8 3.2 -3.3 4.4 -5.1 3.8 -6 -8.4 -12.1 -11.6 -17.2 -12.5 -20.4 -2.3 -7.6 1.3 -12.5 7.1 -9.5 3.7 1.9 7.7 7.2 13.2 17.7 2.3 4.3 4.7 7.8 5.2 7.8 2.5 0 13.9 -4.6 14.3 -5.7 0.3 -0.7 -1.5 -5.9 -4.1 -11.5 -11.6 -26.1 -14 -37.5 -9.1 -42.3 5.3 -5.4 11.7 -1.9 15.5 8.3 3.1 8.2 9 27.8 10.4 34.7 0.9 4 1.8 6 2.7 5.9 0.8 -0.1 7.5 -2 14.9 -4.3 47.1 -14.4 107.5 -21.5 154.5 -18.2 42.5 3 76.3 9.6 115 22.6 41.6 13.8 79.7 33.2 114 57.9 7.2 5.1 13.4 9.1 13.8 8.9 0.5 -0.3 3.9 -6.9 7.7 -14.7 11.8 -24.5 19.9 -32.7 26 -26.6 4.3 4.3 1.7 11.6 -10 28 -3.7 5.2 -8.5 12.1 -10.6 15.4 l-3.9 5.9 5.5 4.8 c3 2.7 5.8 4.9 6.2 4.9 0.3 0 4.5 -4.7 9.2 -10.4 13.2 -16 18.8 -20.2 24.2 -17.7 1.8 0.8 2.4 1.8 2.4 4.4 0 3 -1.4 4.7 -14 16.6 -7.7 7.3 -14 13.6 -14 14 0 0.4 3.8 4.2 8.4 8.4 l8.4 7.6 8.3 -6.5 c26.7 -21 44.8 -32.4 51.3 -32.4 3.3 0 6.6 2.5 6.6 4.9 0 3.1 -10.5 11.7 -32.1 26.2 -13.1 8.7 -24 16.3 -24.4 16.9 -0.3 0.5 2.2 4 5.7 7.7 22.2 23.8 49.3 64.7 65.3 98.8 19.5 41.4 31 80.7 38.2 130.5 3.5 24.2 1.9 78.3 -3.2 109.5 -0.8 4.9 -1.3 9 -1.2 9.1 0.1 0.1 2.7 -0.4 5.7 -1.2 10.2 -2.6 23.1 -3.7 38 -3 23.4 1 31.3 3.5 31.3 10.2 0 4.2 -4.1 7.1 -11 8 -3.2 0.4 -16.9 0.7 -30.6 0.8 -22.6 0.1 -24.8 0.2 -25.3 1.8 -0.7 2.4 -4.6 3.3 -8.4 2 -3.4 -1.2 -3.6 -1 -4.5 4 -0.8 4.3 -1.4 4 13.5 6.3 12.2 1.8 18.8 3.8 22.4 6.6 3.4 2.6 3.4 6.3 0.1 8.5 -3.3 2.1 -8.1 1.4 -24.4 -3.7 -6.9 -2.1 -13.1 -3.9 -13.7 -3.9 -1.2 0 -3.4 5.1 -3.4 7.9 0 1.1 1.8 2.3 5.3 3.5 8.3 2.9 39.3 16.3 50.4 21.8 16.9 8.3 21.8 14.3 16.3 19.8 -4.6 4.6 -10.6 2.6 -48 -15.9 -14.6 -7.2 -27.1 -13 -27.8 -12.9 -0.7 0.2 -3 5.3 -5.1 11.3 -14.7 41.9 -34.2 78.2 -61.8 115.3 -33.8 45.2 -80.2 85.5 -131.5 114.4 -6 3.3 -10.8 6.2 -10.8 6.4 0 0.1 2.6 2.6 5.8 5.5 20.8 19.1 36.5 37.2 37.8 43.7 1.3 6.5 -4.1 10.5 -10.3 7.5 -5.1 -2.4 -19.8 -17.3 -34.2 -34.5 -6.7 -8.2 -12.9 -14.8 -13.8 -14.8 -1.6 0 -13.2 4.8 -14.7 6.1 -0.5 0.4 2.4 5.3 6.5 10.9 13.3 18.1 15.8 22.1 17.4 27.2 1.3 4.6 1.3 5.4 0 7.5 -4.1 6.2 -10.5 -0.9 -21.9 -24.3 -4.8 -9.8 -8.9 -18 -9 -18.1 -0.4 -0.4 -16.6 5.7 -16.6 6.2 0 0.2 3.9 10.4 8.6 22.7 10.3 26.6 13.5 38.3 13.7 49.4 0.2 6.8 -0.1 8.5 -1.7 10.3 -4.6 5.1 -10.5 0.3 -15.5 -12.8 -1.7 -4.5 -6.8 -20.6 -11.2 -35.8 -4.4 -15.3 -8.2 -28 -8.5 -28.2 -0.2 -0.2 -6.1 1.2 -13.1 3.2 -26.4 7.4 -44.3 11.1 -71.8 14.9 -14.9 2 -21.2 2.3 -50.5 2.3 -48.6 0 -78.4 -3.8 -118.5 -15 -4.9 -1.3 -9.5 -2.5 -10.1 -2.5 -0.6 0 -1.7 6.9 -2.8 17.3 -5.5 54.6 -9 68.7 -17.3 69.5 -2.3 0.2 -3.5 -0.3 -4.7 -2z m182.9 -103.8 c57.8 -4.3 115.4 -22 166 -50.9 15 -8.6 40.1 -25.4 51.2 -34.3 26.3 -21.1 52.5 -48.1 72.5 -74.5 30.8 -40.9 56 -95.1 66.3 -142.5 5.7 -26.6 9.3 -65.7 8.1 -87.7 -1.8 -32.6 -6.2 -63.6 -12.5 -88.5 -17.3 -67.6 -51.3 -126.8 -102.6 -178.2 -30.7 -30.8 -62.7 -53.5 -103 -73 -47.3 -22.9 -93.3 -35.4 -144.9 -39.5 -19.1 -1.5 -64.8 -0.6 -80.6 1.6 -38.9 5.3 -68.6 13.2 -102.6 27.3 -9.3 3.9 -19.1 7.3 -21.9 7.7 -15.9 2.1 -39.5 15.1 -73.4 40.4 -30.9 23.1 -55.7 48.8 -80.6 83.6 -19.4 27.2 -40.1 69.1 -51.9 105.3 -7.5 23.2 -12 43.2 -15.8 70.6 -1.9 13.8 -2.3 20.6 -2.3 47.1 0 38.5 2.2 58.6 10 89.7 14.2 56.7 40 107.8 76.4 151.7 13.8 16.5 43.8 46.5 57.4 57.3 40.1 31.9 77.8 52.9 118.3 66.2 33.1 10.8 63.6 17.1 101.4 20.9 8.2 0.9 51.6 0.6 64.5 -0.3z"/>
  <path d="M1412.4 1397.1 c-3.2 -2 -6.4 -7.4 -6.4 -11.1 0 -1.2 1.5 -3.7 3.4 -5.6 2.8 -2.8 4.2 -3.4 7.6 -3.4 2.3 0 5 0.5 6.1 1 4.1 2.3 6.4 11.4 3.9 16.1 -1.3 2.3 -6.1 4.9 -9.2 4.9 -1.3 0 -3.7 -0.9 -5.4 -1.9z"/>
  <path d="M1462 1352.2 c-3.9 -1.9 -5.6 -5.5 -4.6 -9.5 1.6 -6.5 9.1 -8.8 14.2 -4.3 3.7 3.1 3.9 8.6 0.4 12 -3.5 3.4 -6 3.8 -10 1.8z"/>
  <path d="M1192 1338.2 c-2.4 -2 -20.4 -17.3 -40 -34 -19.5 -16.7 -51.4 -43.6 -70.8 -59.8 -22.6 -18.9 -36.2 -31 -37.9 -33.7 -5.3 -8.3 -9.5 -21.4 -10.1 -31.3 -0.4 -8.3 -0.2 -9.6 2.3 -15.3 3 -6.6 6.9 -10.7 13.8 -14.3 3.5 -1.9 5.8 -2.3 13.2 -2.3 8.3 0 9.6 0.3 16.6 3.6 8 3.8 31.4 22.7 54.4 43.8 6.4 5.9 13.3 11.3 16.5 12.8 4.9 2.4 13.3 8.2 25.4 17.3 l3.8 2.9 2.7 -3.1 c1.4 -1.8 5.6 -6.4 9.2 -10.3 3.7 -3.8 8.8 -9.5 11.5 -12.5 2.6 -3 9.6 -10.7 15.5 -17 6 -6.3 12.8 -14.2 15.2 -17.5 10.8 -14.9 23.2 -34.3 31.5 -49.5 4.9 -9.1 13.4 -24 18.9 -33.2 5.4 -9.2 15.4 -26.7 22.3 -39 14.1 -25.2 18.8 -32.6 37.8 -59.3 19.3 -27 23.4 -32.5 34.5 -45.9 5.4 -6.5 13.6 -16.9 18.2 -23 10.1 -13.5 16.7 -19.9 24.3 -23.4 11.4 -5.2 25.5 -2.8 34.1 5.9 9.1 9 11.3 23.6 5.4 35.9 -1.7 3.6 -16.7 25.4 -33.3 48.5 -30.2 42 -56.5 80.5 -71.7 105 -38.6 62.2 -51.5 83.4 -68.5 112.5 -10.7 18.4 -26 45.2 -33.8 59.5 -29.2 53.1 -41.9 71.7 -53.7 78.7 -2.8 1.6 -2.9 1.6 -7.3 -2z"/>
  <path d="M1402.2 1328.5 c-3.9 -3.2 -4.8 -7.4 -2.7 -11.5 2.8 -5.4 8.6 -6.5 13.4 -2.4 2.5 2 3.1 3.4 3.1 6.4 0 5.2 -0.8 6.8 -4.1 8.5 -4 2.1 -6.3 1.9 -9.7 -1z"/>
  <path d="M960.3 973.6 c-3.7 -3.2 -4 -10.3 -0.5 -13.8 1.7 -1.7 3.4 -2.3 6.8 -2.3 5.9 0 9.4 3.6 9.4 9.5 0 7.7 -9.6 11.8 -15.7 6.6z"/>
  <path d="M1013.1 962.3 c-1.2 -1 -2.4 -3.5 -2.7 -5.5 -0.5 -3 -0.2 -4.1 1.9 -6.2 1.5 -1.4 3.6 -2.6 4.7 -2.6 3.3 0 8 5.3 8 8.9 0 6.1 -7.1 9.3 -11.9 5.4z"/>
  <path d="M999.5 920.8 c-7.4 -4 -5.3 -13.8 3 -13.8 8.1 0 10.5 9.9 3.4 13.5 -3.3 1.8 -3.8 1.8 -6.4 0.3z"/>
 </g>
</svg>