<?xml version="1.0" encoding="utf-8"?>
<!DOCTYPE svg PUBLIC "-//W3C//DTD SVG 1.0//EN" "http://www.w3.org/TR/2001/REC-SVG-20010904/DTD/svg10.dtd">
<svg version="1.0" xmlns="http://www.w3.org/2000/svg" width="2500px" height="2500px" viewBox="0 0 2500 2500" preserveAspectRatio="xMidYMid meet">
 <g fill="#2b4046">
  <path d="M1233 1545.3 c-62.8 -2.7 -131.3 -15.2 -187 -34.1 -25.3 -8.6 -32.1 -11.4 -33.5 -14.1 -0.7 -1.4 -2.4 -3.6 -3.7 -4.8 -2.6 -2.5 -28.4 -14.4 -29.3 -13.5 -0.3 0.3 -0.5 1.4 -0.5 2.4 0 2.8 -3.1 2.2 -12.4 -2.4 -8.1 -4 -8.5 -4.4 -8.8 -7.7 -0.3 -3.5 -0.6 -3.8 -15.3 -11.9 -16.3 -9.1 -32.8 -18.8 -44.5 -26.4 -5 -3.3 -8.1 -4.7 -9.5 -4.4 -1.1 0.3 -2.9 0.8 -4 1.1 -1.4 0.4 -5 -1.6 -12.2 -6.7 -11 -7.9 -28.2 -21.2 -34.4 -26.7 -4 -3.4 -5 -6.1 -2.4 -6.1 3.4 0 0.8 -3.1 -11.2 -13.5 -25.4 -22.1 -58 -56.4 -80.4 -84.6 -32.3 -40.9 -63 -91.2 -83.1 -136.6 l-3.7 -8.2 -14 0.6 c-13.7 0.6 -14.1 0.6 -14.1 -1.4 0 -1.1 1.5 -4.6 3.4 -7.7 8.2 -13.7 6.9 -27.7 -3.9 -40.3 -2.6 -3.1 -3.5 -5 -3.5 -7.7 0 -3 0.4 -3.6 2.1 -3.6 1.6 0 1.9 -0.4 1.4 -2.1 -12.2 -38.4 -22.8 -94.2 -25.6 -134.9 -0.6 -9.1 -1.3 -17.5 -1.5 -18.8 -0.5 -2.3 -0.5 -2.3 -3.6 -0.5 -9.2 5.3 -19.4 18.1 -24.9 31.1 -4.5 10.9 -7.2 26 -6.4 36.7 1.8 25.4 13 49.8 31.2 68.4 5.6 5.7 7.3 8 7.3 10.2 0 2.9 -0.1 2.9 -6.1 2.9 -17.9 0 -34.2 9.7 -41.5 24.7 -1.5 2.9 -3 5.2 -3.4 5.1 -1.7 -0.7 -12.6 -14 -18.1 -22.2 -32.5 -48.3 -35.7 -114.9 -7.8 -161.9 6.1 -10.2 17.7 -23.6 26.9 -31 9.2 -7.3 23 -14.8 31.8 -17.2 3.1 -0.9 6.3 -1.8 7.1 -2.1 0.8 -0.3 -0.4 -1.7 -3.3 -4 -12.3 -9.4 -22.4 -27.5 -23.4 -41.9 -0.4 -6.2 -0.1 -7.8 2.1 -12.1 1.4 -2.7 3.7 -6.1 5.2 -7.6 l2.7 -2.7 -4.1 -4.8 c-5.4 -6 -12.7 -17.7 -15.4 -24.5 -1.6 -4.1 -2.1 -7.6 -2.1 -15.3 0 -8.9 0.3 -10.6 2.6 -15 3 -5.8 14.9 -17.5 22.5 -22.4 2.9 -1.8 5.3 -3.5 5.3 -3.8 0 -0.2 -1.3 -2.3 -2.9 -4.6 -5.6 -8.2 -8.3 -20.2 -8.4 -38.2 -0.1 -10.3 0.2 -12.8 2.1 -17.3 4.5 -10.8 14.7 -22.9 25.4 -30.1 3.9 -2.6 20.5 -11.2 23.9 -12.3 0.6 -0.2 0 -3.4 -1.7 -8.3 -2.6 -7.8 -2.6 -8.5 -2.1 -24 0.4 -9.1 1.3 -18.5 2.2 -21.7 2.1 -8.2 6.9 -18.4 11 -23.4 4.5 -5.4 15 -12.4 24.1 -15.9 l7.2 -2.8 -2 -4.4 c-2.8 -6.3 -4.2 -21.1 -2.8 -29.1 3.9 -22.6 23.1 -44.1 43.8 -49.2 4 -1 4.2 -1.2 3.5 -3.8 -0.5 -1.5 -0.8 -8.5 -0.7 -15.7 0 -11 0.4 -13.9 2.2 -18.6 4.4 -11.2 15.8 -25.5 24.8 -31.1 9.7 -6.2 27.3 -10.3 41.2 -9.6 l7.5 0.3 1.4 -5.8 c1.9 -8.6 8.8 -21.1 15.5 -28.3 6 -6.4 19.4 -16.2 28.3 -20.7 7.9 -4 15.2 -5.7 26.2 -6.4 l10.2 -0.6 1.6 -4.8 c4.3 -12.9 24.4 -31.2 42 -38.3 16.3 -6.5 35.8 -9.4 45.3 -6.7 3.2 1 3.3 0.9 5.7 -3.9 4.9 -9.6 23 -25.2 37.8 -32.5 21.6 -10.6 49.5 -12.3 66.1 -4.1 l6.9 3.4 4.6 -4.3 c9.5 -8.9 30.1 -19.5 45.8 -23.6 5.2 -1.3 11.1 -2 17.8 -2.1 16.6 -0.1 29.2 4.4 39.7 14.1 l5.9 5.4 9.8 -4.6 c13.4 -6.4 23.4 -8.6 41.1 -9.4 21.1 -0.8 29.1 1.6 42.2 12.9 l5.8 4.9 6.6 -4 c13.6 -8.2 40.6 -18.2 57 -21.1 10.1 -1.8 27.1 -0.8 35.1 2 12.2 4.3 23.2 13.1 31.4 25.2 2.2 3.2 4.4 5.8 4.9 5.8 0.5 0 5.4 -1.1 10.7 -2.5 17.4 -4.6 31.5 -3.4 48.4 3.9 15.1 6.5 23.5 13.8 29.8 25.6 1.8 3.3 3.3 6 3.4 6 0.1 0 3.8 -0.7 8.2 -1.5 10.5 -1.9 23.8 -1.9 33.3 0.1 9.5 1.9 22.2 7.9 28.4 13.4 6.9 6 14.3 17.6 17.4 27.3 3 9.2 4.2 21.9 2.6 26.6 -0.6 1.7 -0.8 3.1 -0.5 3.1 0.3 0 4.9 -1.7 10.2 -3.7 8.6 -3.3 10.5 -3.7 18.6 -3.6 17.3 0.1 38.6 7.8 51.7 18.7 12.4 10.3 20.9 21.9 24.9 34.1 l2.6 8 14.6 5.1 c7.9 2.8 16.5 6.3 19 7.7 7 4.1 16 12.1 24.3 21.5 10.4 11.9 13.4 16.5 16.5 25.2 2.6 7.3 2.8 7.6 7.3 9.3 15.2 5.7 31.4 21.8 42.2 42.1 5 9.4 7.4 18.7 7.4 28.9 0 5.5 0.3 6.9 1.8 7.3 12.5 4.3 21.4 11.3 29.7 23.9 10.4 15.8 16.1 29.3 17.2 40.9 l0.6 7.1 6.8 6.7 c15.4 15.1 24.9 36.2 24.9 55.2 0 8.6 -2.3 18.2 -6.4 27 l-3.5 7.7 4.6 5.1 c15.2 17.1 17.7 45.3 6.3 69.7 -1.7 3.5 -3 7 -3 7.7 0 0.8 1.1 3.2 2.5 5.2 7.6 11.5 9.2 27.9 4.1 42.7 -1.5 4.4 -3.8 9.9 -5.2 12.2 -1.3 2.3 -2.4 4.3 -2.4 4.6 0 0.2 4.2 0.7 9.3 1 11 0.7 20.3 3.4 31.2 9 10.5 5.4 24.9 19.6 31.6 31.2 6.2 10.6 11.4 24.1 14.6 37.3 2.1 8.9 2.6 13.9 3 30.4 0.6 20.9 -0.3 32.1 -3.8 49.3 -4.8 23.6 -17.1 53.2 -30.7 73.5 -7.3 11.1 -20.8 27.5 -22.4 27.5 -0.6 0 -1.9 -2.4 -3 -5.3 -4.5 -12 -19.9 -23.5 -33.5 -24.8 l-6.3 -0.7 0 -3.4 c0 -2.7 1.2 -4.8 6.6 -10.9 8.7 -10 16.3 -21.8 22.9 -35.6 6.2 -13 9.2 -21.9 13.1 -38.5 2.5 -10.5 2.8 -13.6 2.8 -28.8 -0.1 -14 -0.5 -18.3 -2.2 -24.6 -6.4 -23.7 -18.9 -35.9 -37.4 -36.8 l-7.8 -0.3 0.6 17.3 c1.6 46.6 -6 115.9 -18 162.8 -2 7.9 -3 9.9 -6.4 13.5 -5.6 5.8 -9.7 12.9 -12.2 21.4 -2.5 8.1 -2.3 13.3 0.4 21.2 0.9 2.5 1.6 5.7 1.6 7.1 0 2.5 -0.2 2.6 -4.3 2.2 l-4.4 -0.5 -5.6 14 c-27.5 68.8 -65.2 130.1 -114.3 185.8 -10.1 11.5 -37.6 39.1 -51.4 51.7 -8.6 7.9 -9.3 8.9 -7.7 10.1 0.9 0.7 1.7 1.8 1.7 2.3 0 2.3 -36.4 30.7 -57.7 45.1 -5.2 3.5 -7 4.2 -11.1 4.2 -5.6 0 -8.7 1.5 -32.7 15.4 -17.4 10.1 -40.3 21.8 -59.3 30.2 l-13.3 5.9 0.6 3.1 0.5 3.1 -9.5 3.7 c-11 4.2 -13.5 4.5 -13.5 1.6 0 -1.1 -0.5 -2 -1.1 -2 -1 0 -39.1 12.3 -43.7 14.1 -1.3 0.5 -2.8 2.2 -3.3 3.9 -1.1 3.2 -2.3 3.6 -19.9 7.9 -59.4 14.5 -127.7 21.1 -189 18.4z m62.5 -71.3 c123.3 -8.1 242.1 -54.8 334 -131.3 28.8 -24 50.6 -45.2 72 -70.2 68.6 -80 115.2 -183.2 129.4 -286.5 4.1 -29.9 4.6 -39.5 4.6 -82.2 l0 -41.8 3.2 0 c1.7 0 4.7 0.9 6.6 2 4.4 2.6 8.6 1.8 13 -2.5 3.3 -3.2 3.4 -3.6 4 -13.1 1.1 -16 0.8 -56.2 -0.4 -63.3 -0.6 -3.6 -1.8 -7.8 -2.5 -9.2 -1.2 -2.4 -6.7 -5.9 -9.2 -5.9 -0.6 0 -4.6 -1.6 -8.9 -3.6 -4.3 -2 -12.1 -5.4 -17.3 -7.5 l-9.5 -3.7 -2.2 -5.9 c-1.2 -3.2 -2.2 -7.7 -2.2 -10.1 -0.1 -3.6 0.4 -4.7 2.8 -6.8 4.5 -3.7 7.1 -10.3 7.1 -17.8 0 -4.2 0.7 -7.9 2.1 -11 2.5 -5.7 1.9 -8.2 -4.6 -19.6 -2.3 -4.1 -5.9 -10.6 -8 -14.5 -16.1 -29.4 -47 -75.2 -69.5 -103 -5.4 -6.6 -13 -16.9 -17 -23 -8.3 -12.5 -15.1 -19.7 -29.5 -31 -5.5 -4.3 -14.3 -11.7 -19.5 -16.5 -87.4 -79.4 -200.5 -136.8 -308.9 -156.6 -10.8 -2 -24.3 -4.4 -29.9 -5.5 -39.3 -7.2 -102.3 -9.8 -145.7 -5.9 -39.6 3.5 -80.5 10.9 -114 20.6 -90.5 26.2 -170.7 71.3 -239.4 134.8 -21.2 19.5 -40.4 41.1 -64.2 72.1 -14.4 18.7 -16 21 -27.3 40.3 -5.1 8.6 -11.2 18.9 -13.6 22.7 -14.7 23.7 -37.3 76.3 -47.8 111.5 -6 20 -15.3 56.5 -15.9 62.2 -0.8 7.6 1.1 10.8 6.4 10.8 l3.6 0 -0.7 5.8 c-0.4 3.1 -1.5 11.8 -2.5 19.2 l-1.8 13.4 -4.9 4.5 c-2.7 2.4 -9 7.5 -14 11.2 -9.8 7.3 -12.1 10 -13.1 15.2 -0.3 1.7 -1.2 4.1 -2 5.2 -1.8 2.7 -1.7 5.6 1.1 18.1 2.7 12.2 5.9 21.4 8.9 25.9 3.4 5 9 10.6 12.7 12.5 1.9 1 4.6 3 5.9 4.4 1.4 1.4 3 2.6 3.6 2.6 0.7 0 1.6 4.4 2.4 12.3 14.6 144.8 90.8 286.1 206.6 383.2 59.5 49.8 134.8 91 203.1 111.1 53.6 15.7 94.9 23.2 148.4 26.7 11.2 0.8 50.9 0.6 64.5 -0.3z m-719.1 -717.3 c0.4 -1.9 0.3 -2.6 -0.4 -2.2 -0.5 0.3 -1 1.8 -1 3.2 0 3.2 0.5 2.8 1.4 -1z"/>
  <path d="M1219 1369 c-18.9 -2.7 -34.3 -7.2 -49.4 -14.5 -39.8 -19.2 -69.9 -55.4 -86 -103.5 -4 -11.8 -4.6 -14.6 -4.6 -22 0 -9.4 1 -11.9 6 -14.5 4.7 -2.4 10.5 -1.8 18.9 1.9 42.2 19 170.6 20.6 248.5 3.1 15.6 -3.5 22.1 -5.9 26.3 -9.6 3.4 -2.9 4 -3.1 10.1 -2.7 5.6 0.4 6.8 0.8 9 3.3 2.4 2.8 2.4 3.3 1.9 13 -1.6 26.5 -19.7 65.8 -42.6 92 -12.7 14.6 -32.2 29.7 -49.1 38.1 -10.9 5.4 -27.1 10.9 -39.8 13.5 -11.2 2.3 -38.9 3.3 -49.2 1.9z m47 -30.9 c17.2 -4.6 27.8 -9.4 43.3 -19.8 17.1 -11.4 35.6 -31.5 46.7 -51 4 -6.9 11.3 -23.4 10.6 -24 -0.1 -0.1 -3.1 0.6 -6.7 1.7 -51.4 15.6 -171.9 18.1 -236.2 4.9 -5.4 -1.1 -10 -1.9 -10.2 -1.7 -0.8 0.8 9 19.8 14.8 28.5 22 32.9 54.2 55.8 87.7 62.2 3 0.6 6.4 1.3 7.5 1.5 1.1 0.3 9.4 0.3 18.5 0.1 12.5 -0.2 18.3 -0.8 24 -2.4z"/>
 </g>
 <g fill="#00b4f1">
  <path d="M1467.5 2203.1 c-10 -4.6 -12.2 -12.8 -9 -33.1 2 -12.5 5.7 -25.4 16.4 -57.2 11.7 -34.8 22.2 -63.1 33.8 -91.8 12.2 -30.2 18.5 -44.1 41 -90.5 21.9 -45 25.8 -53.5 35.9 -77.6 16.3 -39.3 16.1 -37.8 7.5 -57.1 -3.2 -7.3 -8.9 -21.2 -12.6 -30.8 -4.1 -10.4 -13.5 -30.5 -23.1 -49.5 -25.8 -51 -41.6 -92.4 -54.5 -143.3 -7.6 -29.9 -11 -47.3 -12.4 -62.8 l-0.6 -7 8.8 -3.3 c4.8 -1.8 9.8 -3.9 11 -4.7 1.9 -1.2 2.2 -1.1 3.1 1.4 0.6 1.5 5.3 14 10.5 27.7 5.2 13.8 12.9 35.1 17.2 47.5 14.3 41.6 30.4 79.7 57.5 136 14.1 29.3 31.6 69.7 37.2 86 5.4 15.5 4.8 29.9 -2.1 50.3 -8.5 24.8 -25.4 63.3 -45.4 103.3 -34.4 68.8 -54.5 120.8 -82.2 213.4 -5.2 17.5 -12.1 32.9 -16.8 37.9 -3.8 4 -10 7.1 -14.2 7.1 -1.6 0 -4.8 -0.9 -7 -1.9z"/>
  <path d="M538 2199.7 c-10.2 -2.8 -17.9 -10.3 -21 -20.3 -1.8 -5.8 -1.8 -8.7 -1.3 -48 0.4 -27.3 0.2 -48.5 -0.6 -60.9 -0.7 -10.4 -1.6 -33.2 -2.1 -50.5 -0.5 -17.4 -1.6 -42.4 -2.4 -55.5 -0.8 -13.2 -2 -40.2 -2.7 -60 -2.7 -77.1 2 -121.7 20.7 -195.8 16.5 -65.5 38 -105.5 87.9 -163.7 36.9 -43 94.1 -92.4 131 -113.2 38.4 -21.6 64.9 -34.4 83.7 -40.3 l5.7 -1.8 3.9 3.4 c6.7 5.8 23.8 19 35.6 27.4 l11.3 8 -7.6 3.4 c-4.2 1.9 -12.3 5 -18.1 6.9 -13.8 4.5 -33.4 13.6 -47.9 22.1 -6.4 3.7 -18.6 10.8 -27.1 15.6 -18.1 10.2 -26.2 15.6 -42 27.6 -53.4 40.6 -100.8 92 -128.4 139.2 -16 27.3 -25.7 54.1 -36 100.2 -5 22.4 -10 48 -12.1 63 -2.4 16.5 -3.9 66.6 -2.6 87.7 0.6 10.1 1.1 23.3 1.1 29.4 0 6.1 0.9 22.3 2 36 1 13.7 2.4 35.3 3 47.9 0.6 12.7 1.5 29.5 2.1 37.5 3.1 45.5 2.9 118.4 -0.4 130.5 -4.9 17.9 -20.4 28.4 -35.7 24.2z"/>
  <path d="M724.2 2198.9 c-6.9 -3.5 -13.1 -11.3 -20.9 -26.5 -3.9 -7.7 -9 -18.6 -11.3 -24.4 -2.3 -5.8 -7.7 -18.5 -12.1 -28.3 -12.6 -28.3 -21.7 -66 -24.4 -101.2 -0.3 -4.4 -1 -13 -1.6 -19 -1.7 -18.4 2.5 -49.3 9.2 -67.5 7.6 -21 13.2 -36.9 18.9 -54 6.9 -20.7 12.9 -36.9 15.7 -42.5 1.1 -2.2 3.5 -8 5.3 -13 5.7 -15.8 10.2 -23 16.2 -26.1 4.4 -2.3 6.8 -1.1 6.8 3.6 0 3.4 -2.4 11 -13.5 43.1 -4.1 11.6 -17.7 73.7 -22 100.4 -2.2 13.1 -2 38.2 0.4 53 1.1 6.6 2.4 16.1 3.1 21 1.8 14 5.5 30.4 10.5 46.4 3.7 11.7 7.7 20.9 20.3 46.1 8.6 17.3 17.1 33.9 19 36.9 1.9 2.9 5 8.8 7.1 13 3.4 7.1 3.6 8.2 3.6 17.1 0 11.3 -1.9 15.9 -8.4 20.5 -5.6 4 -15.4 4.6 -21.9 1.4z"/>
  <path d="M1772.9 2198.5 c-1.4 -0.8 -3.9 -4 -5.6 -7.2 -1.6 -3.2 -4.3 -8 -5.9 -10.8 -2.5 -4.3 -2.9 -6 -2.8 -12.5 0 -6.5 0.6 -9 4.6 -19 5.7 -14.2 26.9 -82.5 30.3 -97.5 4.9 -21.9 5.8 -29.4 5.8 -46.5 0 -9.1 -0.5 -20.8 -1.1 -26 -1.6 -12.8 -7.2 -35.4 -13.1 -53 -2.7 -8 -6.8 -20.4 -9 -27.6 -2.4 -7.6 -6.4 -17.5 -9.6 -23.7 -5.9 -11.2 -9.7 -22.1 -17.1 -48.2 -6.2 -21.9 -6.8 -25.3 -4.9 -28.2 2.2 -3.3 6 -3 9.9 1 3.9 3.9 12 17 23.6 37.9 4.8 8.7 10.6 18.2 12.9 21.2 9.9 12.8 33.6 64.6 40.9 89.2 9.3 31.4 10.7 70.7 4.1 109.8 -3.5 21 -16.4 82.2 -20.4 97.4 -4.9 18.5 -13.2 31.6 -22.7 35.7 -2.4 1.1 -6.2 3.6 -8.5 5.7 -4.5 4 -7.2 4.6 -11.4 2.3z"/>
  <path d="M1192 2195.6 c-2.5 -0.7 -6.2 -2.4 -8.2 -3.9 -3.5 -2.7 -9 -11.7 -10.2 -16.9 -0.8 -3.6 -2.1 -3.5 -3.6 0.1 -1.5 3.8 -4.6 6.6 -9.2 8.6 -8.7 3.6 -17.7 0.4 -27.3 -9.5 -3.3 -3.4 -11.4 -10.9 -18 -16.7 -6.6 -5.9 -19.2 -17.9 -28 -26.8 -20.5 -20.7 -36.2 -34.1 -55 -46.7 -16.5 -11.2 -26.3 -18.6 -46.5 -35.4 -15.8 -13.2 -56.7 -55.1 -68.7 -70.4 -4.5 -5.8 -10.9 -13.9 -14.3 -18 -3.4 -4.1 -9.1 -11.8 -12.8 -17 -10.8 -15.4 -23 -31.9 -27.1 -36.3 -6 -6.5 -7.4 -10 -6.9 -17.2 0.3 -5.1 0.9 -7 3.3 -10 4.6 -5.7 7.4 -10.6 8.6 -15 0.5 -2.2 6 -19.1 12 -37.5 10 -30.3 14.3 -44.1 30.8 -99.5 5.9 -19.9 24.7 -96 34.5 -140 4.4 -19.7 8.5 -45.7 9.6 -61 1.2 -15.9 2.9 -46.5 2.9 -52.7 l0.1 -3.8 10.5 5.2 c10.4 5.2 10.4 5.3 10.9 9.3 0.3 2.2 1.1 8.1 1.8 13 1.9 12.9 1.6 49.7 -0.5 67.5 -6.2 53.2 -22.7 120 -43.2 175.5 -5.1 13.8 -12 32.7 -15.4 42 -15 42.1 -24.7 69.2 -29.8 84.3 l-5.6 16.3 5 5.2 c2.8 2.9 10.8 13.3 17.9 23.2 21.5 30 33.4 43.5 66.6 75.5 29.6 28.6 50.3 45.4 78.8 64.2 8 5.3 18.1 12.6 22.5 16.2 8.1 6.8 62.4 57.7 81.2 76.2 6.7 6.6 10.3 9.5 10.3 8.4 0 -1 -0.9 -6.2 -2 -11.6 -2 -9.5 -5.5 -29.8 -17.5 -99.4 -3.1 -17.9 -9.8 -53.9 -15 -80 -5.2 -26.1 -11.2 -57.2 -13.4 -69 -3.7 -20.1 -11.9 -62.5 -26.2 -136.5 -12.3 -63.5 -34 -142.1 -49.9 -180.5 -3.8 -9.1 -8.7 -22.6 -11.1 -30 -2.8 -9.1 -7.2 -19.6 -13.4 -32.1 l-9.2 -18.6 10.1 4 c57.3 22.2 119.3 36.2 186.7 42.1 61.8 5.5 130.4 1 192.9 -12.4 11.9 -2.6 34.3 -8.1 39.3 -9.6 1.4 -0.5 1.7 -0.1 1.3 1.8 -3.5 16.1 -6.5 26.3 -11.5 39.1 -7.4 19.1 -18.2 57.2 -17.5 61.9 0.4 2.3 -0.2 4.6 -1.9 7.9 -1.4 2.5 -4.1 11.8 -6.2 20.5 -3.9 17.2 -17.7 70.9 -25.5 99.9 -5.6 20.7 -22.6 90.1 -27 110.3 -4 18.3 -7.4 37.7 -10.5 60.7 -1.4 10.5 -3.9 26.9 -5.5 36.5 -11.6 70.2 -14.2 135.3 -7.5 189.6 2.1 16.6 1.2 22.8 -4.2 30.7 -7.6 11 -24 12.5 -33.8 3 -7.2 -7 -9.6 -15.8 -12.4 -45.7 -0.6 -6 -1.3 -11.1 -1.6 -11.4 -0.3 -0.3 -1.3 0.3 -2.4 1.2 -1.8 1.7 -1.9 1.3 -2.6 -14.1 -2.2 -45.4 2.4 -112.9 11.1 -163.8 3.3 -19.6 5.7 -34.9 8.9 -59 5.7 -42 26.2 -124.1 54.2 -217.8 3.6 -12.2 7.1 -23.9 7.6 -25.9 0.6 -2.1 1.5 -3.8 1.9 -3.8 0.4 0 0.8 -1 0.8 -2.3 0 -2.9 3 -12 4.2 -12.8 0.5 -0.3 1.2 -2.5 1.5 -4.8 0.3 -2.2 0.9 -4.1 1.3 -4.1 0.4 0 1 -1.2 1.4 -2.7 0.3 -1.6 1 -4.5 1.5 -6.7 l0.9 -3.8 -4.6 0.7 c-2.6 0.3 -11.7 2.2 -20.3 4 -8.5 1.9 -19.7 3.9 -24.8 4.5 -5.1 0.6 -15 2.1 -22 3.5 -33.2 6.4 -50.6 7.3 -104.1 5.7 -30.4 -1 -59.9 -3.7 -66.5 -6.2 -1.1 -0.4 -4.9 -1.4 -8.6 -2.2 l-6.5 -1.4 7.2 21.2 c11.1 32.5 19.2 67 30.4 129.9 2.2 12.7 7.2 39.2 11 59 3.8 19.8 9 47.1 11.4 60.6 2.5 13.5 7.4 38.5 11 55.5 8.3 39.4 12.5 61.6 23.1 120.4 4.7 26.1 10.4 57 12.6 68.5 4 20.8 6.8 39.4 6.9 44.8 0 2.1 -0.4 2.7 -1.7 2.5 -1.2 -0.2 -2 1 -2.9 4.6 -3.4 13 -14.5 20.3 -26.4 17.2z"/>
  <path d="M1947 2193.1 c-9 -2.9 -15.6 -8.8 -19.4 -17 -2.6 -5.9 -2.7 -17.1 -0.4 -41.6 5.4 -55.3 5.5 -136.2 0.2 -199.5 -9.9 -119.6 -39.7 -236.5 -82.4 -323.5 -29.8 -60.6 -65.4 -107.1 -104.5 -136.5 -18.5 -13.9 -43.9 -26.3 -64.2 -31.5 -14.6 -3.6 -27.6 -4.9 -45.6 -4.2 l-15.8 0.5 11.8 -8 c16.5 -11.3 38.5 -28 53.3 -40.6 l3.5 -3 13 3.7 c28.8 8.2 52.2 20.4 81 42 14.9 11.3 39.1 34.1 53 50.1 53.9 62.2 99.9 158.1 126.5 264 13.9 55.4 24.2 119.3 29.4 183 5.8 70.2 5.5 150.2 -0.9 221.7 -2.1 23.5 -5.8 31.3 -17.5 37.7 -5.6 3.1 -15.9 4.4 -21 2.7z"/>
  <path d="M1228 1477.3 c-76.9 -5.1 -147.4 -21.9 -211.5 -50.2 -80.3 -35.6 -156.8 -93.2 -213.6 -161.1 -74.1 -88.6 -121.9 -200 -133 -309.7 -0.9 -8.9 -1.6 -12.3 -2.6 -12.3 -0.7 0 -1.3 -0.7 -1.3 -1.5 0 -1.2 1.3 -1.5 5.6 -1.5 3 0 6.5 -0.5 7.7 -1.1 1.2 -0.6 5.7 -4.7 9.9 -9 4.3 -4.4 8.4 -7.9 9.2 -7.9 0.7 0 1.6 -0.7 2 -1.5 0.3 -0.8 1 -1.5 1.5 -1.5 0.6 0 2.1 -1 3.5 -2.3 1.3 -1.2 7.7 -5.5 14.1 -9.5 9.8 -6.1 12.4 -7.3 15.4 -7 l3.6 0.3 1.2 9 c1.1 8.7 2.5 21.8 7.8 71 5.4 49.9 10.5 81.8 16.1 101 5.7 19.3 17.7 43.5 29.6 59.7 7.9 10.8 22.4 25.1 31.6 31.2 13.8 9.1 40.3 18.4 61.7 21.6 8.8 1.3 60 0 79 -2 31.4 -3.4 72.1 -9.8 86.5 -13.6 5.2 -1.4 17.1 -4.5 26.3 -7 34.9 -9.1 68.7 -29.2 78 -46.3 1.5 -2.7 5.8 -13.6 9.6 -24.3 9.1 -25.6 18.8 -49 21 -50.8 0.3 -0.3 1.9 -3.1 3.6 -6.2 1.6 -3.2 3.3 -5.8 3.7 -5.8 0.4 0 0.8 -0.7 0.8 -1.5 0 -0.8 0.9 -1.9 2 -2.5 1.1 -0.6 2 -1.6 2 -2.3 0 -1.6 6.2 -7.7 7.8 -7.7 0.7 0 1.2 -0.4 1.2 -0.9 0 -0.5 3.4 -2.8 7.5 -5.1 l7.5 -4.2 18.3 0.7 c33 1.2 41.1 2.9 49.5 10.8 6.4 6.1 18.3 20.7 23.8 29.2 2.1 3.3 9 16.1 15.4 28.5 9.8 18.8 22.8 40.7 28.2 47 3.5 4.2 18.1 11.6 28.5 14.5 1.2 0.3 10.9 4.8 21.5 10 10.6 5.1 22.2 10.3 25.7 11.4 12.4 4.1 64 13 88.1 15.2 6.3 0.6 27.9 1.1 48 1.1 33 0 38.7 -0.2 59.5 -2.6 12.7 -1.5 27.1 -3.4 32 -4.3 24.7 -4.3 59.9 -17.9 74.2 -28.7 19.7 -14.9 30.9 -37.2 35.8 -71.4 0.8 -5.9 2.8 -20.4 4.5 -32.2 6.9 -48.3 7.3 -52.5 10.1 -97.5 0.7 -10.4 1 -31.8 0.8 -47.5 -0.1 -15.7 -0.3 -35.7 -0.3 -44.5 l-0.1 -16 3.4 -0.3 c2.7 -0.3 8.2 2 25.5 10.4 12.2 5.8 22.8 11 23.6 11.4 1.9 0.9 2.7 6.2 0.8 5.5 -1.1 -0.4 -1.3 7.1 -1.3 41.2 0 42.7 -0.6 52.5 -4.6 82.3 -14.2 103.3 -60.8 206.5 -129.4 286.5 -21.4 25 -43.2 46.2 -72 70.2 -91.9 76.5 -210.7 123.2 -334 131.3 -13.5 0.9 -59.2 1.1 -70.5 0.3z m37.2 -113.2 c46.8 -9.4 85.7 -38.4 110.4 -82.3 10.9 -19.4 19.9 -44.4 21.1 -58.7 0.5 -6 0.3 -7 -1.8 -9.4 -1.5 -1.7 -3.8 -3 -6 -3.3 -3 -0.5 -4.1 -0.1 -7.2 2.5 -4.2 3.7 -10.7 6.1 -26.3 9.6 -63.2 14.2 -164.4 16.4 -226.2 5 -13.6 -2.5 -20.1 -4.4 -28.5 -8.2 -8.9 -3.9 -11.3 -3.8 -15.8 0.7 -4.4 4.4 -4 11 1.7 28 16.1 48.1 46.2 84.3 86 103.5 15.1 7.3 30.5 11.8 49.4 14.5 9.5 1.3 32 0.3 43.2 -1.9z"/>
  <path d="M627 1094.3 c-1.3 -0.3 -4.5 -2.2 -7.1 -4.4 -5.1 -4.2 -13.2 -8.6 -17.6 -9.5 -1.6 -0.3 -4 -1.5 -5.3 -2.6 l-2.5 -1.9 3.6 0.6 3.7 0.5 -7.2 -7.2 c-34 -34.6 -41.4 -88.2 -17.2 -124.7 2.6 -3.8 6.8 -8.9 9.5 -11.3 5.9 -5.2 15.8 -11 16.7 -9.7 0.6 1 0.7 1.8 2.5 25.4 3 40 12.3 89.2 24.4 128.9 1.9 6.5 3.3 12.1 3 12.6 -0.3 0.6 -1.6 0.5 -3 0 -2.9 -1.1 -3.2 -0.4 -0.8 2.2 0.9 1 1.2 1.7 0.7 1.7 -0.5 -0.1 -2 -0.4 -3.4 -0.6z"/>
  <path d="M1883.7 1065.9 c3.5 -10.4 11 -48.5 14.2 -72.7 4.1 -30.2 5.4 -50.7 5.5 -83 l0 -31.4 10.6 0.4 c9.6 0.3 11.2 0.6 17.2 3.6 8 3.9 13.1 9.4 17.7 18.7 6.2 12.9 7.4 19.6 7.5 42 0 18.5 -0.2 20.9 -2.7 31.8 -4 16.7 -7 25.5 -13.2 38.5 -6.6 13.8 -14.2 25.6 -22.9 35.6 -3.6 4.1 -6.6 7.8 -6.6 8.1 0 0.3 1 0.5 2.2 0.5 4.1 0 0.2 2.2 -5.4 3.1 -2.9 0.5 -8.9 2.6 -13.3 4.9 -4.4 2.2 -9 4 -10.1 4 -2.1 0 -2.1 -0.1 -0.7 -4.1z"/>
  <path d="M668 839.4 c0.8 -0.8 2.1 -7.7 3.1 -15.2 1 -7.5 2.1 -14.7 2.4 -15.9 0.4 -1.8 0.1 -2 -1.6 -1.6 -1.8 0.5 -2 0.3 -1.4 -1.6 0.3 -1.2 1.7 -3.3 2.9 -4.6 2.1 -2.2 3.6 -6.5 7.5 -20 1.3 -4.6 16.7 -23.6 23.4 -28.8 2.3 -1.7 7.8 -6.8 12.2 -11.2 4.5 -4.4 10.4 -9.3 13.1 -11 2.8 -1.8 8.6 -7.3 13.9 -13.5 14.4 -16.9 27 -28.9 42.2 -40.3 26.5 -19.8 44.7 -31.3 79 -49.8 76.9 -41.6 156.3 -70.6 239.3 -87.3 28.5 -5.7 35.7 -6.9 67 -10.5 56.2 -6.6 89.4 -8.6 130 -7.8 26.4 0.5 29.5 0.7 79 7.1 74.7 9.5 95.2 12.3 107 14.7 19.6 3.9 65.5 18.1 92.5 28.6 12.7 4.9 75.4 35.6 85 41.6 43.4 27.1 73.7 53.9 101.6 90 14.8 19.1 18.5 22.7 23.7 22.7 1 0 3.4 1.6 5.3 3.6 5.1 5.3 8.5 6.8 15.4 6.6 5.5 -0.2 5.8 -0.1 4.1 1.3 -2 1.5 -2 1.6 0.3 8.5 1.2 3.8 3 7.4 3.9 7.9 1.4 0.8 1 1 -1.7 1.1 -1.9 0 -22.6 -6.3 -46 -13.9 -73.3 -24 -99.3 -31.8 -133.6 -40.2 -13.7 -3.3 -29.3 -7.3 -34.6 -8.9 -29.6 -8.7 -98.9 -18.6 -178.9 -25.4 -62.8 -5.5 -145 -6.5 -199 -2.6 -28.1 2 -83.6 8.4 -124 14.1 -18.7 2.6 -85.4 16.1 -122 24.5 -46 10.6 -99.7 27.1 -137.5 42.1 -21.1 8.4 -69 30.2 -70.5 32.1 -0.3 0.4 -3.3 2 -6.7 3.6 -3.5 1.6 -6.3 3.3 -6.3 3.8 0 0.4 -0.6 0.8 -1.2 0.8 -1.2 0 -22.8 11.7 -23.8 12.9 -0.3 0.3 -2.6 1.7 -5.2 3 -2.7 1.3 -4.8 2.8 -4.8 3.2 0 0.5 -0.5 0.9 -1.2 0.9 -1.6 0 -19.8 12 -19.8 13.1 0 0.5 -0.7 0.9 -1.5 0.9 -0.8 0 -1.5 0.5 -1.5 1 0 0.6 -0.7 1 -1.5 1 -0.9 0 -1.8 0.7 -2.1 1.5 -0.4 0.8 -1.2 1.5 -2 1.5 -0.8 0 -1.9 0.9 -2.6 2 -0.7 1.1 -1.8 2 -2.5 2 -0.7 0 -1.7 0.9 -2.3 2 -0.6 1.1 -1.7 2 -2.5 2 -0.8 0 -1.9 0.9 -2.5 2 -0.6 1.1 -1.7 2 -2.5 2 -0.7 0 -2.3 1.4 -3.5 3 -1.6 2.2 -2.9 3 -5.2 3 -2.6 0 -2.9 -0.2 -1.8 -1.6z"/>
 </g>
 <g fill="#97a3a2">
  <path d="M960 1017.6 c-23.1 -6.7 -38.4 -27.6 -46.2 -63.1 -2.1 -9.7 -1.7 -44.8 0.6 -56.2 1 -5.1 2.2 -9.3 2.6 -9.3 0.5 0 1.1 -1.4 1.5 -3 0.5 -2.4 0.1 -3.8 -2.3 -6.8 -4 -5.2 -16 -24.5 -18.3 -29.5 -2.3 -5.2 -2.5 -14.4 -0.3 -17.5 1.3 -1.9 2.4 -2.2 7.8 -2.2 8.4 0 12.7 2.9 22.6 15.1 9.8 12.1 11.7 11.9 6.1 -0.5 -4.4 -9.8 -7.1 -19.7 -7.1 -26.5 0 -5.3 0.4 -6.6 2.6 -8.8 2.3 -2.3 3.1 -2.5 8.2 -2.1 5.2 0.5 5.9 0.8 9.9 5.4 2.4 2.6 5.1 6.7 6 9.1 1 2.4 2.1 4.3 2.4 4.3 0.3 0 1.4 1.8 2.4 4 1 2.2 2.1 4 2.4 4 0.3 0 0.4 -7.5 0.3 -16.7 -0.4 -16.3 -0.3 -16.9 2 -20.3 2.2 -3.3 2.7 -3.5 8.5 -3.8 5.2 -0.2 6.4 0 8.2 1.9 2.9 3.1 7 22.8 7.1 33.7 0 3.7 0.4 4.4 2.6 5.3 3.2 1.2 3 1.3 5.3 -4.7 6.1 -16.5 11.1 -22.4 18.8 -22.4 11.6 0 12.5 11.1 2.6 34.9 -3.4 8.5 -3.8 12.6 -0.8 10.1 0.8 -0.7 1.5 -1.6 1.5 -2.1 0 -1.5 11 -11.4 15.3 -13.7 3.2 -1.8 5.3 -2.3 8.9 -1.9 6.8 0.6 7.8 1.8 7.8 9.2 0 5.6 -0.4 6.9 -3.6 11.6 -2 3 -6.7 9.1 -10.6 13.7 -6.7 7.8 -7 8.4 -5.9 10.9 3.5 7.7 6.3 23.2 7.1 39.8 1.3 27.6 -1.6 44 -11.5 64 -4.9 10.1 -12.1 20.4 -14.8 21.4 -0.7 0.2 -2 1.4 -3 2.7 -0.9 1.3 -2.7 2.6 -3.9 3 -1.2 0.4 -2.8 1.2 -3.5 2 -0.7 0.7 -3.9 2.2 -7 3.4 -7.3 2.8 -25.3 3.7 -32.3 1.6z m17.4 -55 c1.6 -2.5 3.2 -6.6 3.6 -8.9 0.4 -2.3 1.3 -7.6 2 -11.7 1.5 -9.2 0.7 -28.1 -1.5 -36.5 -2.5 -9 -7.2 -17.5 -9.7 -17.5 -0.5 0 -2 2.4 -3.2 5.3 -6.6 14.9 -9.3 37.9 -6.1 52.2 2.6 12 8.1 23.1 10.9 22.2 0.6 -0.2 2.4 -2.5 4 -5.1z"/>
  <path d="M1512.4 1017.1 c-16.5 -4.8 -28.2 -17.2 -36.2 -38.4 -6.4 -17 -7.6 -25.3 -7.6 -50.7 0.1 -18.4 0.5 -24.1 2 -31.2 l2 -8.6 -3.8 -4.4 c-2 -2.3 -3.8 -4.7 -3.8 -5.1 0 -0.5 -1 -2.3 -2.2 -4 -2.5 -3.4 -3.8 -5.6 -7.5 -12.6 -3.6 -7 -2.7 -17.3 1.9 -20.2 1.8 -1.2 6.6 -1.1 11.3 0.2 4 1.1 10.2 6.6 15.8 13.9 4.6 6 4.1 2.4 -1.1 -8.2 -8.7 -17.9 -11.4 -31.8 -7.1 -37.2 1.7 -2.2 2.8 -2.6 7 -2.6 2.8 0 5.9 0.5 7 1.1 2.7 1.4 10.6 13.7 14.9 23.1 3.5 7.6 4.3 8.5 6.7 7 1 -0.6 0.8 -2.4 -0.9 -7.7 -1.1 -3.9 -2.5 -7.9 -2.9 -9 -0.5 -1.1 -0.5 -7 0 -13.6 0.8 -10.8 1 -11.8 3.6 -14.3 2.5 -2.6 3.3 -2.8 7.6 -2.3 2.7 0.3 5.8 1.1 6.9 1.7 4.9 2.6 7.5 14.9 6.5 31 l-0.7 10.5 6.4 1.6 c3.5 0.9 7 1.9 7.9 2.3 1.3 0.6 1.8 -1 3.1 -10.6 1.8 -12.5 4.7 -21.3 8.5 -25.8 2.3 -2.8 3 -3 8.9 -3 9 0 9.8 1.4 9.2 15.8 -0.4 9.6 -1 12.4 -5.7 26.5 -4.3 12.9 -5 16.1 -4 17.3 1 1.3 1.5 1.2 3.6 -0.7 1.2 -1.3 2.3 -2.6 2.3 -2.9 0 -1 9.1 -10 10.1 -10 0.4 0 1.2 -0.6 1.6 -1.3 1.1 -1.6 7 -3.6 13 -4.3 4.2 -0.5 5.1 -0.3 7.6 1.9 2.4 2.3 2.7 3.3 2.7 8.7 0 3.4 -0.6 7.3 -1.4 8.8 -1.9 3.6 -11.6 12.8 -19.4 18.2 -4.6 3.2 -6.1 4.8 -5.6 5.9 4 9.4 5.3 52.3 2 69.6 -2.1 11.2 -8.4 30.4 -12.4 38 -2.9 5.4 -14.8 18.5 -16.8 18.5 -0.7 0 -1.4 0.4 -1.6 0.8 -0.1 0.4 -3.4 2.3 -7.2 4.2 -6.2 3.1 -7.9 3.4 -16.5 3.7 -6.9 0.1 -11.3 -0.3 -15.7 -1.6z m22.8 -56.8 c5.7 -12 8.1 -30.6 5.7 -43.7 -1.4 -7.6 -8.2 -29.5 -9.1 -29.6 -0.9 0 -4.4 9.6 -6.7 18.7 -5.7 22.7 -5.2 43.4 1.5 58.3 3.2 7.2 3.4 7.1 8.6 -3.7z"/>
  <path d="M663.9 941.4 c-1.3 -1.4 -4 -3.4 -5.9 -4.4 -3.7 -1.9 -9.3 -7.5 -12.7 -12.5 -3.1 -4.7 -6.2 -13.8 -9.4 -28.3 -3.1 -13.4 -3.1 -17.4 -0.5 -21.7 0.7 -1.1 1.6 -3.5 1.9 -5.2 1 -5.2 3.3 -7.9 13.3 -15.3 5.1 -3.9 12.3 -9.8 15.9 -13.1 l6.5 -6.1 0 3.5 c0 1.9 -0.4 3.7 -1 3.9 -2 0.7 -3.2 29.2 -2.7 62.8 0.4 18.4 0.9 34.7 1.3 36.3 0.6 2.4 0.3 2.7 -1.8 2.7 -1.4 0 -3.5 -1.2 -4.9 -2.6z"/>
  <path d="M1840.1 865.6 c-2.9 -2 -5.6 -3.6 -6.1 -3.6 -0.4 0 -1.1 -3.3 -1.4 -7.2 -2.3 -24.4 -7.3 -52.7 -14.2 -80.2 -2.4 -9.8 -4.4 -19.4 -4.4 -21.3 0 -3.4 0.1 -3.5 2.3 -2.1 1.2 0.8 4.5 2.2 7.2 3.2 2.8 1.1 10.3 4.3 16.8 7.2 6.5 3 12.3 5.4 12.9 5.4 0.5 0 2.5 0.7 4.4 1.6 7.4 3.5 8.5 10.7 8.3 54.7 -0.1 37.5 -0.2 38.3 -6 42.6 -2 1.5 -5.1 2.5 -8.8 2.8 -5.2 0.5 -6 0.3 -11 -3.1z"/>
 </g>
 <g fill="#ffec11">
  <path d="M584.8 1161.1 c-15.2 -5 -27.3 -18 -31.3 -33.7 -1 -4 -1.4 -8.9 -1.1 -14.7 0.3 -7.2 0.9 -9.5 3.1 -13.3 6.7 -11.4 16.1 -17.9 30.9 -21.4 10.5 -2.5 18 -1.8 26.8 2.5 6.5 3.1 16.7 12 20.8 18 9.3 13.6 9.7 29.6 0.9 44.1 -1.8 3 -3.7 5.4 -4.1 5.4 -0.5 0 -3.4 2.1 -6.5 4.7 -8.5 6.9 -15.1 9.5 -25.3 9.9 -6.5 0.3 -9.9 0 -14.2 -1.5z"/>
  <path d="M1900 1149.9 c-7.5 -1.5 -14.4 -5.5 -19.9 -11.7 -2.9 -3.1 -6.5 -7.1 -8.1 -8.8 -3.8 -4.3 -6.2 -11.3 -6.8 -20.6 -1.4 -23.1 17.2 -47.2 39.5 -50.7 13.5 -2.1 29 3.5 38.6 13.9 7.9 8.5 9.7 13.9 8.6 25.6 -1.4 15.3 -5.7 24 -19.4 39 -10.9 12 -20.2 15.8 -32.5 13.3z"/>
  <path d="M666.3 804.4 c-2.4 -2.4 -2.5 -2.9 -2 -11.7 0.7 -14.2 13.3 -60.5 25.7 -94.7 10.2 -28 27.4 -65.5 38 -82.5 2.4 -3.8 8.5 -14.1 13.6 -22.7 11.3 -19.3 12.9 -21.6 27.3 -40.3 37.6 -49 69.4 -80.6 113.7 -113.1 33.3 -24.4 56.5 -38.6 89 -54.6 68.6 -33.9 136.6 -52.8 214.9 -59.8 19.9 -1.8 67.1 -2.4 87.5 -1.1 22.6 1.4 50.3 4.5 64.2 7 5.6 1.1 19.1 3.5 29.9 5.5 108.4 19.8 221.5 77.2 308.9 156.6 5.2 4.8 14 12.2 19.5 16.5 14.4 11.3 21.2 18.5 29.5 31 4 6.1 11.6 16.4 17 23 27.4 33.9 61.7 86.3 80.8 123.8 3.5 6.8 3.9 13.2 1.3 19.2 -1.4 3.2 -2.1 6.8 -2.1 11 0 20.4 -17.4 28.4 -30.9 14.1 -1.9 -2 -4.3 -3.6 -5.3 -3.6 -5.2 0 -8.9 -3.6 -23.7 -22.7 -27.9 -36.1 -58.2 -62.9 -101.6 -90 -9.6 -6 -72.3 -36.7 -85 -41.6 -27 -10.5 -72.9 -24.7 -92.5 -28.6 -11.8 -2.4 -32.9 -5.3 -107 -14.7 -47.2 -6 -53.5 -6.6 -76 -7.1 -37 -0.8 -71.6 1.3 -127 7.8 -31.3 3.6 -38.5 4.8 -67 10.5 -83 16.7 -162.4 45.7 -239.3 87.3 -34.3 18.5 -52.5 30 -79 49.8 -15.2 11.4 -27.8 23.4 -42.2 40.3 -5.3 6.2 -11.1 11.7 -13.9 13.5 -2.7 1.7 -8.6 6.6 -13.1 11 -4.4 4.4 -9.9 9.5 -12.2 11.2 -6.7 5.2 -22.1 24.2 -23.4 28.8 -4.2 14.6 -5.4 17.9 -8.1 20.6 -3.6 3.6 -6.1 3.7 -9.5 0.3z"/>
 </g>
 <g fill="#87d9f1">
  <path d="M1220.5 2173.1 c-0.3 -0.6 -1 -4.7 -1.6 -9.3 -0.5 -4.6 -1.9 -13.1 -3 -19 -1.1 -5.8 -1.9 -11 -1.7 -11.5 0.1 -0.4 -0.4 -2.6 -1 -4.9 -0.7 -2.2 -6.2 -31.5 -12.2 -65 -12.7 -69.9 -14.8 -80.5 -23.6 -122.8 -3.6 -17 -8.5 -42 -11 -55.5 -2.4 -13.5 -7.6 -40.8 -11.4 -60.6 -3.8 -19.8 -8.8 -46.3 -11 -59 -13.1 -73.4 -21.9 -108.5 -38.7 -153.7 -1.8 -4.8 -1.5 -6.6 0.9 -5.2 0.7 0.5 1.8 0.9 2.3 0.9 1.2 0.1 16.4 3.5 18.5 4.2 0.8 0.3 2.6 0.6 4 0.8 1.4 0.1 8.4 1.2 15.5 2.4 9.9 1.6 21 2.4 46.5 3.2 50.9 1.7 65.7 0.8 99.1 -5.6 7 -1.4 16.9 -2.9 22 -3.5 5.1 -0.6 16.3 -2.6 24.8 -4.6 19.3 -4.3 31.5 -5.4 32.4 -3 0.4 0.9 0.2 1.6 -0.4 1.6 -0.6 0 -0.7 0.5 -0.4 1 0.3 0.6 0.3 1.6 -0.2 2.3 -0.4 0.6 -0.8 1.4 -0.8 1.7 -0.4 2.9 -3.1 11 -3.7 11 -0.4 0 -0.7 0.3 -0.6 0.8 0.4 1.6 -1.3 8.2 -2.2 8.2 -0.5 0 -0.7 0.7 -0.4 1.5 0.4 0.8 0.1 1.5 -0.5 1.5 -0.6 0 -0.8 0.7 -0.5 1.5 0.4 0.8 0.1 1.5 -0.5 1.5 -0.6 0 -0.8 0.7 -0.5 1.5 0.4 0.8 0.1 1.5 -0.5 1.5 -0.6 0 -1.1 1.4 -1.1 3 0 1.7 -0.4 3 -0.8 3 -0.6 0 -3.3 8.1 -3.7 11 0 0.3 -0.4 1.1 -0.8 1.8 -0.5 0.6 -0.5 1.7 -0.2 2.2 0.3 0.6 0.2 1 -0.2 1 -0.8 0 -4.8 13 -4.8 15.5 0 0.6 -0.2 1.2 -0.5 1.5 -0.6 0.5 -5.8 17.7 -6.4 21 -0.2 0.8 -0.6 2.2 -0.9 3 -0.8 1.8 -8.9 30.5 -15.8 55.5 -6.9 25 -22.2 88.8 -25.7 107.5 -1.7 8.5 -3.8 20.9 -4.7 27.5 -3.2 24.1 -5.6 39.4 -8.9 59 -7.9 46.1 -10.9 82.7 -11.1 134.5 -0.1 40.2 -0.1 40.5 -2.2 40.8 -2 0.3 -2.1 -0.2 -2.7 -17.5 -0.7 -19 0.7 -71 2.4 -90.8 2.3 -25.5 5.3 -49 9.5 -74 2.4 -14.3 5.3 -33.2 6.5 -42 4.2 -32.4 6.5 -44 18.6 -94.4 12.9 -53.7 34.1 -129.1 50.1 -177.4 4.1 -12.6 7.2 -23.1 6.9 -23.5 -0.4 -0.3 -9.5 1.3 -20.4 3.6 -10.8 2.3 -24 4.6 -29.2 5.3 -5.2 0.6 -14.7 2.1 -21 3.4 -29.2 5.9 -50.3 7.1 -100 5.6 -32.9 -1 -42.5 -2 -69 -7.1 -5.8 -1.1 -10.8 -2 -11.1 -2 -0.3 0 2.5 9.1 6.2 20.2 11.1 33 19.5 69.9 31.9 140.8 1.7 9.6 5.7 31.2 9 48 3.3 16.8 8 41.8 10.5 55.5 2.5 13.8 8.1 42.1 12.5 63 7.3 35.3 10.9 53.9 27 142 3.3 18.2 7.6 41.3 9.5 51.5 4.3 22.5 5.6 39 3.2 39 -0.9 0 -1.8 -0.4 -2.2 -0.9z"/>
  <path d="M1220.5 1343.4 c-1.1 -0.2 -4.5 -0.9 -7.5 -1.5 -7.8 -1.5 -20.5 -5.6 -27 -8.6 -7 -3.2 -19 -10.5 -19 -11.5 0 -1.8 8 -0.8 10 1.2 1.1 1.1 2.9 2 3.9 2 1 0 2.1 0.7 2.5 1.5 0.3 0.8 1.7 1.5 3.1 1.5 1.4 0 2.5 0.5 2.5 1 0 0.6 0.9 1 2 1 1.1 0 2 0.3 2 0.8 0 0.4 2.3 1.3 5.2 2 2.8 0.6 5.4 1.6 5.7 2 0.3 0.4 4.2 1.4 8.6 2.1 4.4 0.7 8.1 1.6 8.3 2.1 0.2 0.4 2.3 0.5 4.7 0.2 4.3 -0.4 4.5 -0.4 4.5 2.2 0 2.4 -0.3 2.6 -3.7 2.5 -2.1 -0.1 -4.7 -0.3 -5.8 -0.5z"/>
  <path d="M1247 1341.8 c0 -2.4 0.4 -2.6 6.5 -3.2 3.5 -0.4 10.3 -1.8 15 -3.1 4.7 -1.4 10.3 -2.5 12.5 -2.5 2.2 0 4 -0.4 4 -1 0 -0.5 0.9 -1 2 -1 1.3 0 2 -0.7 2 -1.8 0 -1.1 1.1 -2.4 2.4 -3 3.3 -1.5 14.6 -2.7 14.6 -1.6 0 0.5 -2 2.1 -4.4 3.5 -12.7 7.7 -32.4 14.1 -47.7 15.5 -6.9 0.7 -6.9 0.7 -6.9 -1.8z"/>
  <path d="M875.3 1196.6 c-21.4 -4.6 -41.1 -12 -53.6 -20.3 -9.1 -6 -23.6 -20.3 -31.5 -31.1 -11.9 -16.2 -23.9 -40.4 -29.6 -59.7 -5.6 -19.3 -10.7 -51.4 -16.1 -101.5 -1.4 -12.9 -3.4 -31.6 -4.5 -41.5 -1.1 -9.9 -2.5 -22.4 -3.1 -27.8 -0.6 -5.3 -1.5 -9.9 -1.9 -10.2 -0.9 -0.6 -22.8 12.8 -26.5 16.1 -1.2 1.2 -3 2.4 -3.9 2.7 -0.9 0.4 -1.6 1.1 -1.6 1.7 0 0.5 -0.7 1 -1.5 1 -0.9 0 -5 3.5 -9.3 7.9 -4.2 4.3 -8.8 8.4 -10.1 9.1 -3.2 1.6 -12.7 1.8 -14.3 0.2 -2.9 -2.9 -1.9 -102.1 1 -104.2 0.4 -0.3 1.8 -2 3.1 -3.7 1.2 -1.8 2.9 -3.3 3.6 -3.3 0.8 0 1.9 -0.9 2.5 -2 0.6 -1.1 1.7 -2 2.5 -2 0.8 0 1.9 -0.9 2.5 -2 0.6 -1.1 1.6 -2 2.3 -2 0.7 0 1.8 -0.9 2.5 -2 0.7 -1.1 1.8 -2 2.6 -2 0.8 0 1.6 -0.7 2 -1.5 0.3 -0.8 1.2 -1.5 2.1 -1.5 0.8 0 1.5 -0.4 1.5 -1 0 -0.5 0.7 -1 1.5 -1 0.8 0 1.5 -0.4 1.5 -0.9 0 -1.1 18.2 -13.1 19.8 -13.1 0.7 0 1.2 -0.4 1.2 -0.9 0 -0.4 2.1 -1.9 4.8 -3.2 2.6 -1.3 4.9 -2.7 5.2 -3 1 -1.2 22.6 -12.9 23.8 -12.9 0.6 0 1.2 -0.4 1.2 -0.8 0 -0.5 2.8 -2.2 6.3 -3.8 3.4 -1.6 6.4 -3.2 6.7 -3.6 1.5 -1.9 49.4 -23.7 70.5 -32.1 37.8 -15 91.5 -31.5 137.5 -42.1 36.6 -8.4 103.3 -21.9 122 -24.5 40.1 -5.7 95.7 -12 123.8 -14.1 55.1 -4 141.3 -2.9 205.2 2.6 46.2 3.9 81.6 8 114.5 13 38.8 6 49.6 8 64.4 12.4 5.3 1.6 20.9 5.6 34.6 8.9 34.6 8.5 73.6 20.3 143 43.3 21.2 7.1 33.9 11.8 33.8 12.5 -0.2 0.7 1.7 9.2 4.2 19 7 28.2 11.9 56.6 14.3 82.4 l0.8 8.6 -2.6 -0.7 c-1.4 -0.4 -11.7 -5.3 -22.9 -10.9 -13.1 -6.5 -20.8 -9.8 -21.4 -9.2 -0.7 0.7 -0.6 13.2 0.1 34.8 1 33 0.9 38.6 -1.7 89.6 -1 18.7 -3.9 47.5 -6.1 59.7 -0.5 3 -2.1 13.8 -3.5 24 -4.9 35.8 -5.6 40 -8.1 50.2 -4.1 16.3 -9.8 27.4 -20.6 40 -11.6 13.5 -32.4 24.5 -64.8 34.1 -14.5 4.3 -23.7 6 -52.5 9.3 -21.2 2.4 -26.1 2.6 -62.5 2.6 -21.7 0 -44.7 -0.5 -51 -1.1 -24.3 -2.3 -75.7 -11.2 -88.1 -15.2 -3.5 -1.1 -15.1 -6.3 -25.7 -11.4 -10.6 -5.2 -20.3 -9.7 -21.5 -10 -1.2 -0.3 -6.2 -2.2 -11.2 -4.2 -9.4 -3.8 -14.6 -7 -18 -11.2 -5.6 -6.8 -18.6 -28.6 -26.6 -44.5 -5 -9.8 -11.3 -21.5 -13.9 -26 -8.2 -13.9 -25.9 -34.8 -32.2 -38.2 -5.5 -2.9 -15.8 -4.5 -35.6 -5.4 l-20.4 -1.1 -7.4 4.1 c-4.1 2.3 -7.4 4.6 -7.4 5.1 0 0.5 -0.6 0.9 -1.3 0.9 -1.6 0 -8 6.4 -7.1 7.2 0.3 0.4 -0.6 1.4 -2 2.3 -1.4 1 -2.3 2.1 -2 2.6 0.3 0.5 -0.2 1.2 -1 1.5 -0.9 0.3 -1.3 1 -1 1.5 0.3 0.5 0 0.9 -0.6 0.9 -0.6 0 -0.9 0.4 -0.6 0.9 0.3 0.5 -0.1 1.2 -1 1.5 -0.8 0.3 -1.2 1 -0.9 1.6 0.3 0.5 0.1 1 -0.5 1 -0.6 0 -0.8 0.5 -0.5 1 0.3 0.6 0.1 1 -0.5 1 -0.6 0 -0.8 0.5 -0.5 1 0.3 0.6 -0.1 1.3 -0.9 1.6 -0.9 0.3 -1.3 1 -1 1.5 0.3 0.5 0 0.9 -0.6 0.9 -0.6 0 -0.8 0.5 -0.5 1 0.3 0.6 0.1 1 -0.5 1 -0.6 0 -0.8 0.5 -0.5 1 0.3 0.6 0.1 1 -0.5 1 -0.6 0 -0.8 0.5 -0.5 1 0.3 0.6 0.1 1 -0.5 1 -0.6 0 -0.8 0.5 -0.5 1 0.3 0.6 0.2 1 -0.2 1 -0.9 0 -6.5 13.8 -6.3 15.4 0.1 0.5 -0.3 1.2 -0.8 1.5 -0.6 0.3 -1.2 1.5 -1.4 2.6 -0.1 1.1 -0.6 2.2 -1 2.5 -0.4 0.3 -0.9 1.5 -1.1 2.5 -0.1 1.1 -0.6 2.5 -0.9 3.1 -0.4 0.6 -3.2 8.1 -6.2 16.7 -3 8.6 -6.7 17.9 -8.2 20.7 -6.4 11.8 -22.6 23.8 -48.1 35.8 -9.8 4.7 -17.3 7.3 -30 10.6 -9.2 2.5 -20.8 5.5 -25.8 6.9 -13.2 3.6 -70.3 12.7 -79.5 12.7 -2.5 0 -9 0.7 -14.5 1.4 -5.8 0.8 -23.7 1.7 -42.5 2 -31.6 0.6 -32.8 0.5 -43.7 -1.8z m114 -183.6 c3.1 -1.2 6.3 -2.7 7 -3.4 0.7 -0.8 2.3 -1.6 3.5 -2 1.2 -0.4 2.9 -1.7 3.9 -3 1 -1.2 2.7 -2.5 3.7 -2.9 1 -0.4 1.6 -1 1.3 -1.3 -0.3 -0.4 0.6 -1.7 2.1 -2.9 2.7 -2.3 8.8 -11.7 9.4 -14.5 0.2 -0.8 0.6 -1.7 1 -2 0.3 -0.3 0.8 -1.2 1 -2 0.2 -0.8 0.9 -2.1 1.6 -2.9 0.7 -0.7 1.1 -2 0.8 -2.7 -0.3 -0.8 -0.1 -1.4 0.4 -1.4 1.2 0 4.3 -9.7 3.5 -11 -0.3 -0.5 -0.2 -1 0.3 -1 1.2 0 2.4 -5.6 3.8 -17 0.8 -6.8 0.4 -30.6 -0.7 -36.5 -1.6 -9.2 -4.7 -20.8 -6.9 -26 l-2 -4.6 7.6 -8.7 c11.3 -13.1 15.6 -19.8 15.2 -24.1 -0.2 -2.8 -0.9 -3.9 -3.1 -4.9 -2.4 -1.2 -3.3 -1.1 -7 0.7 -5.2 2.6 -14.5 11.5 -17.2 16.5 -2.8 5.2 -4.2 4.9 -9 -1.9 -1.3 -1.9 -1.1 -3.1 3 -12.5 5.4 -12.8 8 -22 7.1 -25.4 -0.8 -3.1 -4.8 -6 -7.3 -5.2 -4.8 1.7 -10.6 10.8 -15 23.5 -1 2.9 -2.3 5.5 -2.9 5.7 -0.5 0.3 -3.1 -0.5 -5.7 -1.6 -4.5 -2 -4.7 -2.3 -4.7 -6.3 -0.1 -10.8 -4.2 -30.5 -7.1 -33.6 -3.1 -3.3 -7.7 -2.5 -10.7 1.9 -2.3 3.4 -2.4 3.9 -1.9 18.5 0.3 8.3 0.8 15.7 1.1 16.6 0.5 1 -0.4 2 -2.9 3.2 l-3.5 1.7 -2.6 -5.3 c-1.5 -2.8 -3 -5.4 -3.3 -5.7 -0.4 -0.3 -1.5 -2.4 -2.5 -4.6 -2.4 -5.6 -9.4 -13.2 -12.8 -14 -2.1 -0.4 -3.3 0 -5.2 2 -3.3 3.2 -3.3 7.1 -0.1 16.7 1.4 4.1 2.6 7.5 2.6 7.6 0 0.4 2.7 6.7 5.3 12.7 l2.4 5.4 -2.7 2.6 c-1.5 1.4 -3.4 2.6 -4.2 2.6 -0.8 0 -5.2 -4.7 -9.7 -10.4 -9 -11.4 -15.5 -16.6 -20.8 -16.6 -6.1 0 -8 5.9 -4.5 13.7 2.6 5.5 14.5 24.6 19.2 30.6 l3.7 4.7 -1.6 5 c-0.9 2.8 -1.9 5 -2.3 5 -0.4 0 -0.5 0.9 -0.2 2 0.3 1.1 0.1 2 -0.4 2 -0.6 0 -0.8 1.1 -0.5 2.5 0.2 1.4 0 2.5 -0.5 2.5 -0.6 0 -0.8 1.1 -0.5 2.5 0.2 1.4 0 2.5 -0.7 2.5 -0.6 0 -0.8 1.1 -0.5 3 0.4 1.6 0.2 3.6 -0.4 4.3 -1.6 1.9 -0.8 31.7 1.1 40.2 7.7 34.1 22.9 54.5 45.7 61.1 6.3 1.9 19.2 1.1 26.3 -1.6z m545.2 1.7 c2.7 -0.4 13.9 -5.8 14.3 -6.9 0.2 -0.4 0.9 -0.8 1.5 -0.8 1.9 0 13 -11.9 16.1 -17.1 3.3 -5.8 8.8 -20.7 8.1 -22 -0.4 -0.5 -0.2 -0.9 0.3 -0.9 1.9 0 6.8 -23.4 5.8 -28.2 -0.3 -1.5 -0.1 -2.8 0.3 -2.8 0.6 0 0.8 -5.8 0.5 -13.2 -0.2 -7.3 -0.4 -14.6 -0.4 -16.1 0 -1.6 -0.3 -3.4 -0.7 -4 -0.7 -1.1 -0.9 -2.8 -1.4 -9.7 -0.1 -1.4 -0.8 -4.4 -1.5 -6.8 -0.8 -2.3 -1.4 -4.7 -1.4 -5.2 0 -0.4 3.3 -3.2 7.3 -6 8.5 -6.2 17.3 -14.4 19.3 -18.2 3.6 -6.9 -0.4 -14.4 -6.9 -12.8 -6.8 1.8 -8.2 2.4 -9 3.7 -0.4 0.7 -1.2 1.3 -1.6 1.3 -0.9 0 -10.1 8.9 -10.1 9.8 0 1.4 -5.5 6.2 -7.1 6.2 -2.3 0 -6.9 -3.8 -6.9 -5.8 0 -0.9 2.5 -9.1 5.5 -18.2 8.7 -26 8.7 -38 0.1 -38 -6.8 0 -11.7 10 -14.3 29 -0.9 6.3 -2 11.9 -2.4 12.4 -0.5 0.6 -2.8 0.1 -5.6 -1.2 -4.9 -2.3 -7.9 -3.2 -12.3 -3.7 -1.4 -0.1 -2.7 -0.3 -3 -0.4 -0.3 0 -0.2 -5.2 0.2 -11.3 1.2 -19.3 -1.4 -29.2 -8.5 -31.5 -3.4 -1.2 -3.8 -1.1 -6.3 1.4 -2.4 2.4 -2.8 3.7 -3.3 11.9 -0.3 5.1 -0.3 9.8 0.1 10.6 0.3 0.7 1.8 5.5 3.4 10.7 2.6 9.1 2.6 9.5 0.9 10.8 -1.1 0.7 -2.7 1.3 -3.7 1.3 -1 0 -1.8 0.5 -1.8 1 0 1.6 -3.7 1.2 -4.4 -0.5 -0.3 -0.8 -0.5 -1.7 -0.5 -2 0 -1.4 -10.6 -20.6 -13.6 -24.7 -5.2 -7.1 -10 -7.6 -13.5 -1.5 -1.3 2.3 -1.2 3.3 0.9 10.4 1.3 4.3 2.4 8.3 2.5 8.8 0.6 2.5 6.8 15 9.5 19.1 2.5 3.6 2.8 4.6 1.6 5 -0.8 0.4 -1.3 1 -1 1.4 0.3 0.5 -0.5 1.6 -1.7 2.5 -1.3 0.8 -2.2 1.9 -2 2.3 0.1 0.4 -0.2 0.7 -0.7 0.7 -0.4 0 -3.5 -3.4 -6.8 -7.6 -3.3 -4.2 -7.3 -8.5 -8.8 -9.7 -3.1 -2.5 -9 -4.3 -11.1 -3.5 -1.6 0.6 -4.4 5.9 -4.4 8.3 0 2.2 5.5 12.7 9.8 18.7 1.2 1.7 2.2 3.4 2.2 3.8 0 0.4 1.8 2.9 4.1 5.6 3.8 4.6 6 10.9 3.8 10.9 -0.6 0 -0.8 0.9 -0.4 2 0.4 1.2 0.2 2 -0.5 2 -0.6 0 -0.8 1 -0.4 2.5 0.4 1.5 0.2 2.5 -0.5 2.5 -0.6 0 -0.8 1.1 -0.4 3 0.3 1.8 0.1 3 -0.5 3 -1.2 0 -1.4 2.9 -1.4 24 -0.1 18.9 1.7 29.5 7.4 44.7 11 29.2 30.4 42.9 55.3 39z"/>
  <path d="M970.2 971.5 c-7.4 -6.2 -12.6 -24 -12.4 -42 0.1 -12.7 0.5 -17.8 1.3 -18.5 0.6 -0.6 3.4 -11.8 3.4 -14 0 -0.8 0.3 -1.7 0.6 -2 0.3 -0.3 1.8 -3.1 3.2 -6.3 2.9 -6.3 3.8 -6.6 9.4 -3.1 4.4 2.8 9.3 15.6 10.7 27.9 0.9 8.1 1.1 27.3 0.3 28.1 -0.4 0.4 -0.4 2.3 -0.1 4.1 0.4 2 0.2 3.3 -0.4 3.3 -0.6 0 -0.8 0.9 -0.5 2 0.3 1.1 0 2 -0.6 2 -0.5 0 -0.8 0.7 -0.4 1.5 0.8 2.1 -4.9 13.4 -8.5 16.8 l-2.9 2.8 -3.1 -2.6z"/>
  <path d="M1526 971.8 c-5.9 -9.6 -8.4 -23.3 -7.7 -42.4 0.2 -7.1 0.6 -13.6 0.9 -14.4 0.8 -2.6 6 -23.4 6.1 -25 0.1 -0.8 0.6 -1.9 1 -2.5 0.5 -0.5 1.8 -2.8 3.1 -5 2.3 -4.3 4.9 -5.2 5.4 -2 0.7 4.7 5.6 19.5 6.4 19.5 0.5 0 0.7 0.4 0.3 0.9 -0.3 0.5 0 1.3 0.6 1.6 0.5 0.4 0.8 1.3 0.5 2.1 -0.3 0.7 -0.1 1.6 0.4 1.9 0.6 0.3 1 2 1 3.8 0 1.8 0.3 8.6 0.6 15.2 0.9 18.3 -3.4 36 -11.2 46.2 -3.1 4.1 -4.9 4.2 -7.4 0.1z"/>
 </g>
 <g fill="#abecfd">
  <path d="M1244.3 2182 c-2.3 -0.5 -8.4 -2.5 -13.6 -4.6 l-9.4 -3.7 -0.7 -8.6 c-0.3 -4.7 -2.2 -16.9 -4.1 -27.1 -1.9 -10.2 -6.2 -33.3 -9.5 -51.5 -16.1 -88.1 -19.7 -106.7 -27 -142 -4.4 -20.9 -10 -49.2 -12.5 -63 -2.5 -13.7 -7.2 -38.7 -10.5 -55.5 -3.3 -16.8 -7.3 -38.4 -9 -48 -14.2 -80.8 -23 -118 -37.2 -155.8 -2.7 -7.4 -4.8 -13.6 -4.6 -13.7 0.2 -0.2 2.1 0.1 4.3 0.7 8.1 2.1 27.2 5.9 39.9 7.9 9.5 1.4 21.8 2.2 44.6 2.9 47.3 1.4 66.1 0.3 95 -5.5 6.3 -1.3 16 -2.9 21.5 -3.5 5.5 -0.7 18.2 -3 28.2 -5.1 16.3 -3.5 29.3 -5 29.3 -3.3 0 0.3 -3.8 12.1 -8.4 26.2 -17.1 52 -37.9 125.5 -51 180.3 -12.1 50.4 -14.4 62 -18.6 94.4 -1.2 8.8 -4.1 27.7 -6.5 42 -8.4 49.7 -11.5 86.6 -11.8 138.8 -0.2 30 0 36.9 1.2 37.6 1.1 0.7 1 1.3 -0.4 3.5 -1.9 2.9 -1.8 4.1 1.4 15.5 4.1 14.7 1.9 26.4 -6.5 34.1 -7 6.4 -15.1 8.8 -24.1 7z"/>
  <path d="M1232.3 1344.2 c-2.9 -0.2 -5.3 -0.8 -5.3 -1.4 0 -0.7 -0.4 -0.7 -1.2 0 -1.4 1.1 -7.8 0.4 -7.8 -0.8 0 -0.5 -0.9 -0.6 -2.1 -0.3 -1.2 0.4 -2.5 0 -3 -0.8 -0.6 -1 -0.9 -1 -0.9 -0.2 0 1.4 -3.1 0.6 -4.2 -1.1 -0.5 -0.8 -0.8 -0.7 -0.8 0.1 0 0.8 -0.7 0.8 -3 0 -1.6 -0.6 -3 -1.5 -3 -1.9 0 -0.4 -0.7 -0.5 -1.5 -0.2 -0.8 0.4 -1.5 0.1 -1.5 -0.5 0 -0.6 -0.7 -0.8 -1.5 -0.5 -0.8 0.4 -1.5 0.1 -1.5 -0.5 0 -0.6 -0.6 -0.8 -1.4 -0.5 -0.7 0.3 -2 -0.1 -2.7 -0.9 -0.8 -0.7 -2 -1.2 -2.7 -0.9 -0.6 0.2 -1.5 -0.3 -1.8 -1.2 -0.3 -0.8 -1.2 -1.2 -1.9 -1 -0.7 0.3 -2.3 -0.4 -3.4 -1.5 -1.2 -1.2 -2.1 -1.9 -2.1 -1.6 0 0.3 -1.3 -0.1 -3 -1 -1.6 -0.9 -3 -2 -3 -2.6 0 -0.6 -0.4 -0.8 -0.9 -0.5 -0.5 0.3 -3.5 -1.2 -6.7 -3.4 -14.2 -9.5 -29.2 -25 -40.1 -41.3 -8.4 -12.6 -18.7 -34.6 -17.1 -36.3 0.4 -0.3 5.7 0.6 12 2 66.4 15.2 185.8 12.8 241.6 -4.9 5.9 -1.9 10.8 -3.3 11 -3.1 0.5 0.5 -7.2 20.5 -10.3 26.6 -7.3 14.6 -23 35 -35 45.6 -11 9.8 -27.3 20.3 -28.8 18.7 -1.1 -1 -6.6 1.8 -6.1 3.1 0.6 1.5 -6.6 4.7 -11.4 5.1 -4.8 0.3 -9.2 1.5 -9.2 2.5 0 0.5 -0.9 0.6 -2 0.3 -1.1 -0.3 -2 0 -2 0.6 0 0.5 -0.7 0.8 -1.5 0.5 -0.8 -0.3 -2.2 0.2 -3.2 1.1 -1.1 1.2 -1.8 1.4 -2.1 0.6 -0.5 -1.4 -2.9 -1.5 -3.4 -0.1 -0.4 1.3 -4.8 2.2 -4.8 0.9 0 -1.1 -2.7 -1.2 -3.2 0 -0.4 1 -10.2 1.7 -17.5 1.3z"/>
 </g>
</svg>