<?xml version="1.0" encoding="utf-8"?>
<!DOCTYPE svg PUBLIC "-//W3C//DTD SVG 1.0//EN" "http://www.w3.org/TR/2001/REC-SVG-20010904/DTD/svg10.dtd">
<svg version="1.0" xmlns="http://www.w3.org/2000/svg" width="1924px" height="1924px" viewBox="0 0 1924 1924" preserveAspectRatio="xMidYMid meet">
 <g fill="#2b3f45">
  <path d="M987 1527.9 c-6.3 -0.5 -15.3 -1.6 -20 -2.5 -16.2 -3.2 -37.2 -11.1 -50 -18.9 -3.2 -1.9 -6.2 -3.5 -6.6 -3.5 -0.5 0 -3.4 2 -6.4 4.5 -6.6 5.5 -20 12.5 -29.5 15.5 -8.7 2.8 -34.7 3.9 -47.6 2 -28.9 -4.2 -54.9 -21.4 -65.9 -43.6 -2.4 -4.9 -4.6 -9.1 -4.8 -9.4 -0.2 -0.3 -7 -0.8 -15 -1.2 -16.5 -0.7 -24.9 -2.5 -40 -8.8 -14.3 -5.9 -24.5 -12.4 -34.1 -22 -10.1 -10 -14.1 -16.4 -19 -30.3 l-3.6 -10.2 -12 -0.7 c-6.6 -0.3 -15.1 -1.3 -18.8 -2.2 -8 -1.9 -21.7 -7.4 -30.2 -12.1 -16.8 -9.4 -33 -30.9 -38.1 -50.5 l-1.8 -7.1 -12.1 0.7 c-26.5 1.4 -49.1 -6.6 -66.5 -23.6 -12.3 -12 -18.9 -23.5 -23.7 -40.7 -2.4 -8.8 -2.7 -11.5 -2.7 -26.3 0 -12.1 0.5 -18.3 1.7 -23.3 1 -3.8 1.5 -7.3 1.1 -7.8 -0.7 -1.2 -16 -1.1 -26.4 0.2 -4.7 0.5 -15.5 2.4 -24 4.1 -11.2 2.3 -18.3 3.2 -25.5 3.2 -9.3 0 -11 -0.4 -23.5 -4.7 -17 -5.8 -54.3 -14.9 -76.7 -18.7 -17.1 -2.9 -67.9 -15.4 -78.3 -19.3 -12.3 -4.5 -24.1 -15.2 -28.1 -25.5 -1.5 -3.9 -2.4 -8.6 -2.7 -15.3 -0.4 -9.2 -0.1 -10.6 6.8 -39 10 -41 13.5 -53.9 25.4 -93.7 5.7 -19.1 15.9 -53 22.5 -75.5 14.8 -49.6 23.4 -75.8 38.1 -115.7 19.9 -53.9 45.5 -115.2 71.4 -170.3 16.1 -34.4 19.2 -38.8 32.1 -44.9 6.5 -3.1 7.7 -3.3 17 -3.3 8.3 0.1 11.4 0.6 18 2.9 15.6 5.5 83.5 39.4 101 50.4 2.2 1.4 9.4 5.7 16 9.5 14.2 8.2 24 15.5 34.7 25.5 l7.8 7.2 3.7 -1.6 c9.9 -4.3 26.8 -8.1 52.3 -11.8 28.3 -4.1 91.3 -11.4 136 -15.7 71.3 -6.8 78 -7.1 121 -6.4 21.2 0.3 43.7 1 50 1.6 15.2 1.4 35.3 5.3 46.8 9.2 l9.2 3.1 13.8 -2 c11.6 -1.6 19.1 -1.9 49.7 -1.8 32.2 0.1 38.4 0.4 58.8 2.8 25.4 2.9 37.7 5.1 57.7 10.1 7.4 1.9 21.2 5.2 30.5 7.4 9.4 2.2 30.5 7.7 47 12.1 57.7 15.5 66.5 16.9 103.7 15.5 14.3 -0.5 20.8 -1.1 21.1 -1.9 0.3 -0.6 -0.1 -4.1 -0.8 -7.8 -2.4 -13 0.8 -22.3 10.9 -32.3 7.3 -7.1 16.1 -12 36.6 -20 8 -3.2 23.5 -9.8 34.5 -14.7 22.5 -10.1 52.2 -20.3 81.5 -28 17.2 -4.5 20.7 -5.1 30 -5.2 9.4 -0.1 11.1 0.2 16.2 2.6 7.1 3.3 14.7 10.3 17.6 16.1 1.2 2.4 5.7 18.5 10.1 35.8 13.4 53.7 45 141.6 70.6 196.9 3.2 6.9 8.6 19.3 12 27.5 3.5 8.3 11.3 26.7 17.5 41 6.1 14.3 14.5 34 18.6 43.9 4.2 9.8 10.7 24.6 14.5 32.8 8.9 19.1 26.2 58.8 30.4 69.8 6.8 17.9 21.5 64 22.6 71 1.9 12.5 -1.1 23.5 -8.8 32.1 -8.3 9.1 -16.8 13.2 -44.3 21 -19.2 5.5 -37.3 9.1 -56.8 11.4 -7 0.8 -16.3 2.2 -20.7 3 -17 3.3 -53 4.7 -64.5 2.5 -3 -0.5 -10.1 -2.4 -15.6 -4.1 l-10.2 -3.2 -6.3 4.5 c-8 5.7 -14 8.7 -28.2 14.2 -15.1 5.8 -25.6 9.1 -35.2 11.2 -4.4 0.9 -8.5 2 -9.1 2.5 -0.7 0.6 -0.8 2.5 -0.3 5.6 1.3 7.8 1 21.7 -0.6 29.1 -4 19.1 -16.5 42.2 -30.8 57 -5.7 5.8 -17.7 14.2 -27.2 19 -12.7 6.3 -34.6 11.2 -56.7 12.7 l-9.7 0.7 -3.7 11.1 c-5.9 17.9 -9.4 24 -19.3 33.7 -6.8 6.7 -10.4 9.4 -17.1 12.6 -10.1 5 -22 8.7 -35 11 -12.9 2.3 -39.5 2.3 -50.5 0.1 -4.4 -0.9 -8.5 -1.7 -9.1 -1.7 -0.7 0 -1.4 3 -1.8 7.3 -2.7 29.4 -15.6 50.9 -40.1 66.6 -16.4 10.5 -30.8 14.4 -53.5 14.4 -16.3 0 -22.4 -0.9 -37.3 -5.6 l-7.7 -2.5 -3.5 4.8 c-9.8 13.4 -25.6 21.2 -48.5 24 -9.4 1.1 -15.1 1.1 -32 -0.1z m28.5 -64.1 c0.4 -0.4 -8.5 -9.8 -19.7 -21 -11.1 -11.2 -25 -25.6 -30.8 -32.2 l-10.5 -11.8 -0.7 12.1 c-0.8 13.8 -3.2 24.8 -8.3 36.4 -1.9 4.5 -3.1 8.4 -2.7 8.8 0.9 0.8 20.6 5.8 29.7 7.5 7.2 1.3 41.7 1.5 43 0.2z m-152.5 -6.6 c5.2 -3.8 10.4 -10.6 17.8 -23.1 7.4 -12.6 9.4 -18.1 9.4 -26.2 0.1 -14 -5.5 -22.4 -17.3 -25.9 -12.9 -3.9 -11.7 -4.3 -17.9 5.7 -7 11.2 -23.9 33.7 -32.2 42.8 -9.2 10 -9.2 9.9 -5.7 17.2 4.9 10.2 13.1 13.5 31.5 12.9 9.6 -0.2 10.4 -0.4 14.4 -3.4z m269.4 -15.7 c6.2 -3 12.3 -9.1 14 -14.3 2 -5.8 6.6 -26.5 6.6 -29.7 0 -2.9 0.4 -2.5 -13.3 -12 -21.2 -14.9 -61 -47.8 -93.5 -77.5 -5.7 -5.2 -11.4 -10.3 -12.7 -11.2 -1.9 -1.5 -47.3 -48.6 -75.5 -78.3 -5.2 -5.5 -15.4 -16 -22.6 -23.5 -14.6 -15 -17.5 -19.1 -20 -27.6 -4.4 -15.4 1.7 -29.9 15.5 -36.7 5.6 -2.7 7.6 -3.2 14.1 -3.2 15.4 0 24.1 7 72.7 58.5 37.4 39.7 57.5 59.8 75.8 76.1 7.7 6.8 14.2 12.6 14.5 12.9 2.2 2.2 19 16.8 25 21.7 4.1 3.4 12 9.9 17.5 14.4 31 25.6 48.3 35.7 71.5 42.1 7.2 1.9 10.9 2.3 24 2.3 16.9 0 27.2 -1.9 30.6 -5.6 1 -1.1 3.3 -5.4 5.1 -9.7 l3.4 -7.7 -2.3 -1.9 c-1.3 -1 -10.4 -7 -20.3 -13.3 -18.8 -12.1 -31 -20.9 -43.7 -31.5 -4.1 -3.5 -15.5 -13 -25.4 -21.3 -9.8 -8.2 -26.9 -23.3 -37.9 -33.5 -11 -10.2 -25 -23 -31 -28.5 -6.1 -5.5 -17.7 -16.5 -26 -24.5 -8.2 -8.1 -21.1 -19.8 -28.5 -26.2 -20.2 -17.2 -50.5 -46.3 -54.1 -52 -13.1 -20.4 -3.3 -44.7 20.2 -49.8 14.7 -3.2 26.6 3.5 55.3 31 7.2 6.9 18.3 16.9 24.7 22.2 6.4 5.4 19.9 17.7 30 27.5 10.1 9.9 22 21.2 26.4 25.3 9.7 9 19.5 18.3 32.9 31.1 5.6 5.3 14.2 13.2 19.2 17.5 46.4 40.4 47.8 41.5 76.7 60.3 19.7 12.9 29.6 18 38.6 20.1 10.1 2.4 35.4 -0.6 45 -5.2 6.7 -3.2 13 -10.1 17.8 -19.4 5.6 -10.7 6.3 -14.4 5.2 -26.7 -1.7 -18.6 -2.3 -20.4 -9.3 -27.2 -13.8 -13.5 -60.6 -56.3 -83.1 -76 -21.1 -18.5 -66.5 -53.8 -100.8 -78.4 -10.9 -7.8 -27.4 -19.8 -36.7 -26.6 -9.4 -6.8 -22.3 -15.7 -28.7 -19.7 -13.9 -8.7 -53.4 -34.7 -68.3 -44.9 -13 -9 -49.3 -33 -63.7 -42.3 -12.6 -8 -13.2 -8.1 -33.7 -7.1 l-14.5 0.7 -9 18.2 c-8.4 17.1 -23.4 41.3 -33.9 55 -12.6 16.4 -23.9 27 -40.1 37.8 -23.4 15.5 -42.7 21.9 -66.1 21.9 -21 0.1 -39.4 -6.1 -61.6 -20.8 -24.1 -15.8 -35.7 -36.9 -37.1 -67.3 -1.2 -26.4 5.4 -45.3 31.1 -89 6 -10.2 13.3 -23.8 16.2 -30.2 11 -24.3 36 -69.2 46.8 -83.8 6.9 -9.4 19 -23.1 28.5 -32.4 5 -4.9 9.1 -9.1 9.1 -9.4 0 -1.2 -49.2 0.8 -67 2.7 -10.7 1.1 -33.7 3.5 -51 5.1 -17.3 1.7 -40.5 4.2 -51.5 5.5 -11 1.3 -30.8 3.6 -44 5 -25.3 2.7 -47.3 5.9 -51.5 7.6 -2.8 1.1 -2.8 1.1 -18 29.9 -13.6 25.7 -24.6 50.6 -34 77 -4 11.3 -10.4 27.9 -14.2 37 -3.8 9.1 -8.7 20.8 -10.8 26.1 -2.2 5.3 -7.5 18.2 -11.9 28.5 -4.3 10.4 -10 24.5 -12.6 31.4 -2.6 6.9 -8.5 21.5 -13 32.5 -4.5 11 -10.6 26.1 -13.5 33.5 -2.9 7.4 -9.1 23.2 -13.8 35 -9.8 24.6 -25.3 69 -24.6 70.2 0.3 0.4 4.9 0.5 10.2 0.2 13.7 -0.9 27 0.9 35.5 4.8 l6.7 3.1 6.8 -6.5 c14.9 -14.3 34.4 -25.9 52.7 -31.3 12 -3.6 33.6 -4.6 43.5 -2.1 8.9 2.2 21.3 8.5 28.8 14.6 3.4 2.8 8.1 5.9 10.3 7 l4.2 1.8 4.7 -3.4 c10.4 -7.5 24.2 -11.7 38 -11.6 20.2 0 44.6 5.9 64 15.4 11.1 5.4 13.4 7 20.6 14.2 6.7 6.7 8.9 9.7 12.7 17.6 2.5 5.2 4.9 10.7 5.3 12.3 0.8 3.3 1.6 3.3 13.1 0.5 10.8 -2.7 28.1 -2.9 39.1 -0.5 8.8 1.9 24.1 9 32.6 15.1 17.4 12.4 29.5 32 36.8 59.6 2.5 9.5 3.1 14.2 3.5 26.8 0.3 8.4 0.9 14.9 1.3 14.5 0.4 -0.4 1.3 -2.4 1.9 -4.5 1.8 -5.5 8.2 -12.2 14.3 -14.8 8.5 -3.7 16.5 -3.2 25.7 1.5 9 4.5 15.3 10.7 25.2 24.7 29.6 42.1 47.5 63.3 81 96.4 34.3 33.8 47.9 43.5 67.4 48 7.6 1.7 20.1 1.2 24.9 -1.1z m-372.9 -41.5 c9.1 -7.1 24.9 -25.8 35.4 -42 11.2 -17.3 21.5 -39.4 26.1 -56 3.6 -12.7 3.3 -28.4 -0.5 -39.9 -5.1 -15 -12.1 -21.2 -23.7 -21.2 -5.4 0 -17.3 1.9 -22.9 3.7 -1.2 0.3 -2.3 3.4 -3.9 10 -5.5 24 -14.7 45.2 -29.3 68.1 -10.5 16.3 -20.3 29.4 -29.6 39.5 -3.9 4.2 -7.1 8.2 -7.1 8.8 0 1.6 4.6 14.2 6.5 17.9 4.4 8.5 23.5 16.6 37.3 15.7 5.5 -0.3 6.9 -0.9 11.7 -4.6z m-112.9 -68 c6.1 -3 23.6 -21.6 32 -34 13.4 -19.9 19.2 -31.6 25 -50.5 2.5 -8 2.8 -10.5 2.7 -22 0 -13.9 -1.9 -25.4 -5 -30.9 -2.4 -4 -8 -6.7 -21.3 -10 -11.9 -3 -24.8 -4.3 -30 -2.9 l-3.5 0.9 0.2 6.5 c0.3 11.8 -1.6 30.3 -4 38.9 -6.5 23.4 -18.8 44.9 -35.5 62.2 l-5.6 5.7 1.8 7.8 c3.5 15.1 7.9 22.2 16.3 26 9.7 4.4 20.5 5.4 26.9 2.3z m256.4 -1.6 c0 -0.3 -1.8 -3.6 -3.9 -7.2 -2.2 -3.7 -4.7 -9.4 -5.6 -12.7 -1 -3.3 -2.1 -6.9 -2.5 -8 -0.7 -1.9 -0.8 -1.8 -1.3 0.5 -0.8 3.8 -4.6 20.2 -5.3 22.6 -0.5 1.9 0 2.2 5.6 2.8 3.4 0.4 7.1 1.1 8.3 1.6 2.6 1 4.7 1.2 4.7 0.4z m-365 -71.4 c10 -3.9 23.1 -14.3 30.6 -24.3 9.7 -12.8 16.1 -31.2 15.2 -43.7 -0.5 -7 -4.5 -17.6 -7.8 -20.5 -4.7 -4.2 -20.3 -2.4 -32.8 3.9 -23.6 11.9 -40.5 40 -38.9 64.7 0.7 10.9 5.9 20 12.4 21.4 1.5 0.4 3.3 0.9 3.8 1.1 2.2 0.8 12.6 -0.7 17.5 -2.6z m932.8 -91 c17 -4.1 38.2 -12.5 38.2 -15.2 0 -0.6 -3.7 -7.4 -8.1 -15.1 -18.5 -32.1 -38.2 -73.4 -50.9 -106.6 -2.7 -6.9 -9.1 -23.2 -14.3 -36.1 -10.5 -26.1 -38.2 -99.7 -45.2 -120.2 -4.5 -12.9 -14.3 -45 -26.1 -84.8 -3.1 -10.7 -6.1 -20 -6.5 -20.6 -0.6 -0.7 -3.5 -0.6 -9.6 0.3 -12.9 1.9 -45 3.1 -58.9 2.2 -20.1 -1.3 -41.3 -5.7 -87.4 -18.4 -94.3 -25.8 -122.5 -30.7 -177 -30.9 -28.9 -0.1 -36.2 0.6 -55.5 5.5 -23.1 5.8 -46 15.6 -63 26.7 -9.7 6.4 -29.6 26.7 -37.1 37.7 -11.6 17.2 -31.3 53.2 -40.9 74.8 -2.7 6 -11.3 22.2 -19.2 36 -15.9 28 -20.3 37.9 -21 47.7 -0.7 9.3 0.8 14.1 6.2 18.8 17.4 15.3 39.7 16 61.3 2 10.4 -6.8 16.7 -13.7 30.5 -33 12.1 -16.9 20.7 -32.3 30.8 -55.3 7.2 -16.1 11.8 -22.4 19.6 -26.4 9.7 -4.8 14.8 -5.4 42.7 -4.6 34.3 0.9 40.2 1.6 50.2 6.4 11.2 5.3 39.1 22.5 82.9 51.1 44.6 29 58.7 38.1 68.5 44 16.9 10.2 71.4 47.7 95.6 65.9 12.3 9.2 72.1 56.5 73.4 58 0.3 0.4 3.4 3.1 7 6.2 24.4 21 42.8 37.5 58 52 22 21.1 34.4 31.7 38.4 32.8 4.9 1.4 8.5 1.2 17.4 -0.9z m158.8 -30.5 c6.9 -1.4 18.8 -3.4 26.6 -4.6 22.7 -3.2 43.6 -8.1 44.4 -10.4 0.3 -0.6 -2.6 -9.9 -6.4 -20.6 -7.2 -20.2 -19.8 -50.1 -35.7 -84.4 -5.1 -11 -14.8 -32.8 -21.5 -48.5 -6.7 -15.7 -15.4 -35.9 -19.5 -45 -4 -9.1 -10 -22.8 -13.3 -30.5 -3.3 -7.7 -8.7 -19.8 -12 -27 -13.4 -28.9 -40.2 -99.2 -53.7 -140.5 -5.1 -15.7 -13.9 -47 -14.9 -53.5 -1.2 -6.9 -1.5 -7.1 -9.3 -5 -13 3.4 -42.9 14.4 -60.8 22.3 -9.9 4.3 -23.4 10.1 -30 12.7 -6.6 2.7 -12.4 5.2 -12.9 5.6 -0.5 0.4 0.1 5.6 1.3 11.6 8.9 44.4 27.4 104.4 53.1 172.8 13.4 35.7 19 49.9 42.3 107.5 19.6 48.5 36.8 84.1 56.5 116.8 11 18.3 13.2 20.8 19 22.7 7 2.3 30.7 1.3 46.8 -2z m-1275 -13.5 c3.3 -8 9.1 -23.5 12.8 -34.5 6.7 -19.8 10.1 -28.6 42.2 -109.5 19.4 -48.7 22.3 -55.9 42.2 -103.5 8.2 -19.8 18.2 -45 22.2 -56 11.3 -31 25.5 -63 39.6 -88.8 2 -3.7 3.5 -6.9 3.3 -7.1 -1.1 -0.8 -45.2 -24 -77.4 -40.6 -19.3 -10 -54.7 -27 -56.3 -27 -1.1 0 -3.2 4.3 -19.4 41 -42.9 96.5 -66.6 159.6 -92.3 246 -5.3 17.9 -14.3 47.8 -20 66.5 -17.2 56.4 -29.2 100.3 -27.7 101.6 1.5 1.4 39.5 10 52.7 11.9 14.2 2.1 23.3 4 52 10.9 8.8 2.2 16.9 3.8 18 3.7 1.5 -0.1 3.3 -3.2 8.1 -14.6z"/>
 </g>
 <g fill="#ffec0e">
  <path d="M886 1759.4 c-5.8 -5.4 -9.5 -13.6 -13.4 -29.4 -4.9 -20.2 -6.6 -33.8 -8.7 -69.5 -1.8 -31.3 0 -54.5 5.1 -64.6 4.9 -9.4 13.2 -14.9 22.8 -14.9 6.5 0 10.8 1.7 15.9 6.3 5.3 4.9 8.8 12.4 11.4 24.8 2 9.6 2.1 12.3 1.5 36.4 -1.1 51 -3.4 86.5 -6.2 97.2 -2.9 11 -10.5 18.3 -19.2 18.3 -3.7 0 -4.9 -0.6 -9.2 -4.6z"/>
  <path d="M1313.4 1691.8 c-7.6 -5 -29.6 -27 -40 -40 -10 -12.4 -18 -23.9 -33.7 -48.8 -22.9 -36.2 -28.5 -46.7 -31.8 -60 -4.2 -17.1 -1.5 -27.6 8.8 -33.7 3.9 -2.3 6 -2.8 11.3 -2.8 5.5 0 7.5 0.6 12.8 3.4 9.1 4.9 19.2 14.8 26.7 26 3.5 5.3 11.9 20.4 18.7 33.6 6.9 13.2 14.5 27.7 17.1 32.1 7.9 13.6 24.5 44.3 29.7 55 7.6 15.3 8.5 24.8 3.3 32.5 -3 4.5 -6 5.9 -12.7 5.9 -4.3 0 -6.2 -0.6 -10.2 -3.2z"/>
  <path d="M620.3 1645.5 c-6 -5.3 -8.5 -11.8 -10.3 -26.9 -2.6 -20.2 1.5 -47.4 12.6 -85 6.9 -23.5 18.3 -40 31.4 -45.8 13.8 -6.1 30.7 0.6 36.5 14.6 1.9 4.6 1.9 18.1 0 26.4 -0.8 3.4 -3.7 11.9 -6.4 19 -2.7 7 -8.8 24.4 -13.6 38.7 -11.2 33.3 -17.5 46 -28.5 57.3 -4.8 4.9 -7.5 6.2 -13 6.2 -3.1 0 -4.7 -0.8 -8.7 -4.5z"/>
  <path d="M311.8 1636.1 c-3.3 -3.9 -4.4 -10.5 -2.9 -17.7 3.4 -16.9 23.4 -53.1 54.1 -97.9 6.4 -9.3 18.3 -27.8 26.5 -41 19.2 -30.9 32.6 -50.8 48.5 -72 15.2 -20.2 23.2 -28.3 32.7 -32.7 16.5 -7.8 34.9 -1.7 42.1 14 2.2 4.8 2.4 6.4 2 15 -0.6 15.4 -1.1 16.2 -38.7 62.8 -7.9 9.9 -21.5 27.4 -30.1 38.9 -18.9 25.3 -22.7 30 -42.4 51.9 -8.4 9.4 -21.5 24.3 -29.1 33.1 -7.6 8.8 -19.9 22.2 -27.4 29.8 -14.5 14.7 -18.6 17.4 -27.7 18.4 -4.7 0.5 -5.2 0.3 -7.6 -2.6z"/>
  <path d="M1614.5 1565.2 c-21.8 -8.9 -53.2 -29.8 -77.2 -51.4 -5.1 -4.6 -16.2 -14.4 -24.5 -21.9 -18 -16 -23.9 -22.1 -41.2 -42.9 -30.7 -36.8 -36.2 -46.7 -35.4 -64.4 0.3 -7.5 0.6 -8.6 3.9 -13.1 1.9 -2.8 5.7 -6.3 8.4 -8 4.5 -2.8 5.5 -3 14.4 -3 8.8 0 10.2 0.3 16.1 3.2 11 5.4 20.5 14.9 47.2 47.1 6.7 8.1 19.2 21.9 27.7 30.7 17.4 17.8 47.2 50.5 55.2 60.5 6.3 7.9 16.2 22.7 19.7 29.5 4.1 8.1 8.2 20.7 8.2 25.2 0 3.2 -0.7 5 -2.7 7.3 -4.1 4.5 -10.6 4.9 -19.8 1.2z"/>
  <path d="M666.5 641 c-7.5 -0.7 -13.7 -3.9 -19.5 -10 -4.5 -4.7 -5.8 -6.8 -16 -25 -3 -5.2 -10.5 -17.5 -16.7 -27.3 -6.3 -9.9 -15.5 -25.2 -20.5 -34 -5 -8.9 -13.6 -23.6 -19.1 -32.7 -62.2 -102.7 -69.8 -117.1 -72.7 -138.2 -2.6 -18.5 5.6 -30.8 21.1 -31.6 8.9 -0.5 15.6 2.5 24.6 11 12 11.5 33.2 39.7 51.6 68.8 28.8 45.3 38.2 60.6 50.6 82.5 7.5 13.2 18.9 32.1 25.3 42 11.3 17.5 20.8 34.4 25.8 45.5 2.1 4.7 2.5 7 2.5 16 0 12.5 -1.6 16.4 -10.1 24.7 -8 7.9 -13.5 9.6 -26.9 8.3z"/>
  <path d="M1223.9 640 c-8.5 -1.5 -16.6 -8.3 -21 -17.7 -2 -4 -2.3 -6.5 -2.4 -15.3 0 -10.1 0.2 -10.8 3.6 -18.1 2 -4.2 9.7 -17.7 17.1 -30 7.4 -12.3 16.3 -27.8 19.8 -34.4 9.1 -17.2 27.3 -49.4 34.4 -60.8 5.3 -8.6 38.5 -53.8 59.7 -81.4 11.7 -15.3 26.8 -28.6 39.9 -35.3 6.5 -3.3 17.3 -3.9 21.8 -1.1 5.3 3.4 7.2 7.5 7.2 15.7 0 9.3 -1.3 12.8 -15.8 42.4 -13.8 28.3 -18.6 36.8 -34.9 62.1 -14.5 22.4 -19.4 30.7 -35.8 60.9 -7 12.9 -15.8 29.1 -19.5 36 -6.8 12.5 -25 43.4 -33.4 56.5 -5.8 9.2 -12 15.5 -17.8 18.3 -5.4 2.5 -15.9 3.5 -22.9 2.2z"/>
  <path d="M1045.5 616 c-4.4 -0.3 -9.1 -1.2 -10.5 -2 -5.8 -3.1 -11.2 -8.8 -14.1 -14.5 -4.7 -9.5 -5.4 -16.2 -3.4 -31.2 4.4 -33.7 5.6 -43.8 8.5 -69.8 6.8 -62.4 10.4 -85.8 23.6 -156.5 10.1 -54 17.3 -85.4 24.6 -107.3 8.5 -25.7 23.6 -55.5 31.3 -61.5 8.3 -6.6 14.9 -1.5 17.6 13.6 2 11 1.7 56.3 -0.4 81.2 -4.8 54.2 -6.2 66.3 -14.2 122.5 -7.5 52.8 -9.9 71.1 -14 108.5 -4.5 41.6 -9 76.5 -11 85.9 -1.8 8.4 -5.2 15.3 -10.8 21.7 -6.9 7.8 -14.1 10.3 -27.2 9.4z"/>
  <path d="M867.4 611.1 c-8 -1.4 -18.4 -10.4 -22.4 -19.3 -4.8 -10.8 -13.9 -50.9 -19 -83.8 -4 -25.8 -19.8 -110.1 -25.6 -136.5 -2.5 -11.5 -7.2 -34.1 -10.4 -50 -3.2 -16 -7.9 -38.3 -10.4 -49.5 -2.4 -11.3 -5.1 -23.9 -6 -28.1 -4.6 -22.4 -6.9 -49.5 -5.5 -63.6 1.5 -15 8.5 -24.9 18.2 -26 15.6 -1.8 25.6 12.7 40.2 58.2 4.2 13.2 9.6 30.1 12 37.5 7.8 24.3 19.8 70.1 29.4 112 4.4 19.5 19.8 100 23.1 121 4.6 29 8.2 47.7 12.2 63.3 3.9 14.8 4.2 17.3 4.3 28.7 0 11.2 -0.3 13 -2.4 17.3 -3.2 6.6 -11.3 15.2 -16.1 17.1 -4.7 1.9 -15.8 2.8 -21.6 1.7z"/>
 </g>
</svg>