<?xml version="1.0" encoding="utf-8"?>
<!DOCTYPE svg PUBLIC "-//W3C//DTD SVG 1.0//EN" "http://www.w3.org/TR/2001/REC-SVG-20010904/DTD/svg10.dtd">
<svg version="1.0" xmlns="http://www.w3.org/2000/svg" width="1924px" height="1924px" viewBox="0 0 1924 1924" preserveAspectRatio="xMidYMid meet">
 <g fill="#2c4045">
  <path d="M938.2 1804 c-27.8 -6 -43.2 -14.3 -58 -31.4 -15 -17.1 -22.7 -29.6 -30.2 -48.7 -5.1 -13.1 -7 -20.3 -7 -26.8 l0 -5 -6.2 -4.2 c-5.6 -3.9 -6.9 -4.3 -15.2 -5.1 -53.4 -5.1 -69.5 -9.9 -75.1 -22.1 -4.1 -8.6 -2.7 -16.4 4 -23.3 6 -6.2 13.4 -8.6 26.8 -8.8 7.4 0 10.7 -0.4 10.7 -1.2 0 -1.8 -4.9 -12.1 -6.4 -13.3 -0.7 -0.6 -9.1 -1.5 -18.7 -2.1 -31.5 -1.7 -39.9 -3.1 -50.6 -8.1 -19.2 -9.1 -25.2 -29.1 -12.1 -40.4 7.8 -6.6 17.9 -8.4 35.3 -6.1 6.6 0.9 15.7 1.9 20.3 2.2 7.9 0.7 8.2 0.6 8.2 -1.4 0 -2.7 -8 -37.2 -9.1 -39.3 -0.4 -0.9 -4.2 -2.4 -9.1 -3.6 -19.2 -4.8 -34.3 -12 -38.5 -18.2 -4.3 -6.3 -1.9 -14.2 4.8 -15.6 1.7 -0.4 10.2 -0.1 19 0.6 8.7 0.7 16.2 1 16.5 0.6 0.8 -0.8 -4.3 -25.3 -11.6 -55.7 -22.2 -92.6 -25.6 -105.6 -35.2 -135 -16.2 -49.8 -35 -94.2 -52.4 -124 -3.6 -6.3 -10.2 -18 -14.6 -26 -4.4 -8 -9.2 -15.8 -10.6 -17.3 -1.5 -1.6 -9.7 -8.6 -18.2 -15.5 -19 -15.5 -59.2 -55.4 -74.5 -74 -49.3 -59.9 -85 -127.3 -106 -200.2 -26.3 -91.1 -29.2 -181.1 -9 -275.5 15.9 -74.2 50.3 -149.6 96.2 -211 31 -41.5 64.5 -75.7 103.5 -105.7 6.7 -5.1 14.9 -11.7 18.2 -14.6 15.6 -13.5 56.7 -37.9 89.6 -53.2 63.1 -29.2 128.4 -45.7 202.5 -51.1 28.3 -2.1 75.5 0 109 4.6 95.8 13.5 186.6 51.6 263 110.3 87.5 67.2 153.9 160.5 188.4 265 38.6 116.5 37.9 240.2 -1.7 356.2 -27.8 81.1 -72.1 151.9 -133.2 213 -20.1 20.2 -35 33.2 -57.2 50.1 l-15.7 11.9 -7.4 14.7 c-13.8 27.3 -27.3 66.6 -35.6 103.3 -2.8 12.4 -7.1 31.4 -9.6 42.3 -2.4 10.8 -6.3 29.7 -8.5 42 -2.3 12.2 -5.9 30.5 -8.1 40.7 -7 32.3 -14.2 67.4 -14.3 70 -0.1 2.3 0.2 2.5 3.4 2 1.9 -0.3 7.6 -0.5 12.5 -0.5 7.2 0.1 9.8 0.5 13 2.2 5.2 2.8 11 8.8 13 13.5 2.4 6 2 15.5 -1.1 21.6 -4.5 9 -10.7 12.9 -25.9 16.1 -16.6 3.6 -28.9 7.2 -30.6 8.9 -1.4 1.4 -8.9 29.4 -8.9 33.1 0 1.6 4.7 1.4 24.5 -1.5 11.4 -1.6 21.1 -2.4 26.3 -2.2 8 0.3 8.5 0.4 11.3 3.6 2.3 2.5 2.9 4.2 2.9 7.6 0 5 -2.5 8.3 -8.6 11.4 -6.2 3.1 -39.8 13.7 -52.9 16.7 -6.6 1.5 -12.9 3 -13.9 3.4 -1.3 0.5 -3.8 5.7 -8.2 17.5 -3.5 9.3 -7.7 19.8 -9.4 23.3 -1.6 3.6 -2.8 6.9 -2.5 7.3 0.2 0.4 4.2 0.9 8.8 1.2 10.2 0.5 15.2 2.8 18 8.2 1.7 3.2 1.8 4.3 0.8 7.6 -2.3 7.9 -10.2 11.7 -37.1 17.9 l-13.6 3.2 -10.4 10.2 c-5.8 5.6 -14.3 13 -19 16.3 l-8.5 6 -1.1 9.9 c-1.5 12.6 -3.8 18.5 -12.6 33.2 -17.9 29.7 -30 41 -55 51.3 -17.1 7.1 -23.1 8.2 -43.8 8.6 -15.7 0.3 -19.9 0.1 -27.8 -1.6z m133.2 -181.7 c3.5 -5.4 7.8 -12.5 9.6 -15.7 l3.4 -5.9 -3.5 0.7 c-8.7 1.6 -40.1 5.7 -53.9 7 -8.4 0.8 -15.6 1.9 -16 2.3 -0.4 0.4 -2.1 5.4 -3.8 11.1 l-3 10.2 30.4 0 30.5 0 6.3 -9.7z m-162 1.1 c0.4 -4.2 0.5 -7.8 0.3 -8 -0.5 -0.5 -51.8 1.3 -52.4 1.9 -0.9 0.9 6.1 9.7 8.2 10.2 1.8 0.5 32.4 3 40.1 3.4 l3.1 0.1 0.7 -7.6z m0.3 -62.6 c-0.3 -1.3 -1.1 -6.4 -1.7 -11.4 -0.7 -5.1 -1.5 -9.7 -1.9 -10.2 -0.4 -0.6 -13.7 -2 -31.1 -3.2 -16.8 -1.1 -35 -2.4 -40.5 -2.9 -5.5 -0.4 -10.1 -0.7 -10.3 -0.5 -0.7 0.4 6.1 24.9 7.2 26.1 1 1.1 31 2.8 63.1 3.6 5.5 0.2 11.3 0.4 12.9 0.5 2.5 0.2 2.7 -0.1 2.3 -2z m67 -9.3 c1.7 -4.9 3.2 -9.3 3.2 -9.7 0.1 -0.3 -1.8 -0.9 -4 -1.3 -2.9 -0.5 -4.4 -0.3 -4.9 0.6 -0.9 1.3 -5 17.1 -5 18.9 0 0.7 1.5 1 3.8 0.8 l3.7 -0.3 3.2 -9z m70.4 4.5 c19.9 -2.5 51.8 -6.9 54.1 -7.6 1.6 -0.5 3.3 -4.7 5.7 -13.8 l1 -3.9 -4.7 0.7 c-12.8 1.8 -59 6.6 -63 6.6 -2.6 0 -5.3 0.4 -5.9 0.8 -1 0.6 -7.3 17 -7.3 18.9 0 0.6 3.8 0.3 20.1 -1.7z m-175.5 -73.8 l26 -0.7 -5.7 -39 c-3.2 -21.4 -7.4 -51.6 -9.4 -67 -2 -15.4 -6.5 -47.3 -10 -71 -3.5 -23.6 -7.5 -52.2 -8.9 -63.5 -1.4 -11.3 -4.6 -37 -7.1 -57.2 -7.4 -60.5 -10 -91.6 -16 -190.8 -3 -50.7 -3.7 -75.5 -3.7 -132 -0.1 -110.1 4.8 -172.4 17.9 -224.5 7.1 -28.6 15.9 -42.6 31.1 -49.8 5.7 -2.7 8.1 -3.3 15.7 -3.5 7.4 -0.3 10.1 0 14.8 1.8 20.1 7.5 44 40.6 59.6 82.2 16.8 44.9 25.7 101.6 31.2 199.3 0.6 10.5 1.3 47.6 1.6 82.6 0.7 81.5 -0.7 122.6 -7.2 217.4 -3.2 45.2 -5.2 66.2 -12 125.3 -3 26.1 -5.5 47.7 -5.4 48 0.1 1 3.7 -14.7 19.3 -83.8 15.5 -68.4 21 -94 33.6 -156.5 11 -54.5 15.3 -73.8 23 -104.5 19 -75.7 39.3 -135.2 62.5 -183.7 14.6 -30.5 30.4 -51.7 43.3 -58 7.8 -3.8 18.2 -4.3 25.6 -1.3 15.3 6.2 26 29.4 32.1 69.7 5.3 35.8 4.1 81.1 -3.6 126.1 -11.3 66.8 -32.6 138.6 -92.9 313.2 -22.8 66.1 -71.9 210.4 -71.7 210.7 0.5 0.4 31 -3 41.2 -4.7 12.6 -2.1 27.2 -5.4 28.1 -6.3 1.4 -1.4 8.5 -32.1 16.4 -71.2 3.2 -15.9 6.8 -33 7.9 -38 1.1 -4.9 3.8 -19.6 6.1 -32.5 4.8 -27.6 9.5 -47.6 18.5 -78.7 6.2 -21.6 9 -28.9 24.3 -63.3 3 -6.9 8.1 -19.4 11.4 -27.9 8.3 -22 10.6 -25.6 24.8 -39.6 16.8 -16.6 25.4 -27.1 42.5 -52 9.4 -13.8 15.7 -22.1 17.5 -23 3.4 -1.8 25.6 -25.1 38 -40 57.5 -68.9 94.7 -149.5 109.5 -236.8 5 -29.7 6 -42.1 5.9 -77.2 0 -33.3 -0.6 -43.1 -4.5 -70 -12 -83.8 -47.7 -166.7 -100.2 -232.8 -54.9 -69.2 -124.6 -121.1 -206.2 -153.7 -105.5 -42 -224.1 -45.1 -331.5 -8.5 -48.5 16.5 -82 33.7 -138.5 71.1 -21.8 14.5 -58.2 49 -83 78.9 -63.2 75.9 -102.9 170.1 -113 267.5 -9.9 97.1 12.8 201.7 62.5 288 19.2 33.2 39.2 60.5 66.5 90.6 16.9 18.7 20.8 23.4 25 29.9 2 3.3 7.9 10.3 13 15.5 20.5 21.2 31.3 34.2 47.7 57.5 19.2 27.2 28.6 43 35.8 60.5 1.1 2.5 3.3 7.7 4.9 11.6 1.7 3.8 4.1 11.7 5.5 17.5 2.4 10 11.7 36.5 19 53.8 1.9 4.6 4 10 4.7 12 0.6 2 4 9.9 7.4 17.6 8.6 19.1 8.7 19.5 23.5 78.2 13.8 54.7 20.1 81.2 24.5 103.3 1.5 7.4 3.1 13.7 3.5 14 0.8 0.5 13.9 0.3 57.6 -0.8z m50.9 -2.4 c0.3 -0.7 2.5 -22.4 5 -48.3 5.5 -57.2 8.4 -82.9 13.5 -122 8.4 -63.8 15.4 -137.6 19 -199.5 3.2 -56.4 4.7 -231.7 2.2 -265 -6.5 -89.1 -13 -137.4 -22.4 -166 -5 -15.6 -15.9 -34.3 -33.2 -57.4 -6.6 -8.7 -7.3 -8.8 -13.1 -0.8 -13.4 18.5 -23.8 97.6 -27.6 209.5 -1.6 49.6 -0.7 142.3 2 186.2 2.9 49 3.5 56.5 9.2 114.5 8.8 90.6 12.9 127.2 21.9 195 2.1 16.2 5.8 45 8 64 2.3 19 5.9 46.6 8.1 61.5 2.1 14.8 3.9 27.5 3.9 28.2 0 1.7 2.9 1.7 3.5 0.1z m80 -3.9 c0.7 -0.8 2.2 -4.1 3.3 -7.4 14.8 -43.9 56.3 -160.1 84.4 -236.5 34.1 -92.8 48 -134.5 66.2 -199.7 25.8 -92.3 34.3 -141.5 30.7 -177.8 -1.1 -11.4 -7.6 -46 -10.4 -55.5 l-1.3 -4.4 -4.3 6.9 c-14.9 23.6 -36.3 75.2 -51.5 124.4 -20.8 67 -32.5 115.7 -57 237.6 -27.6 137 -49.2 229.5 -70.5 301.4 l-4 13.4 6.6 -0.6 c3.6 -0.3 7.1 -1.1 7.8 -1.8z"/>
 </g>
 <g fill="#ffec0d">
  <path d="M908.9 1634.6 c-0.2 -0.2 -10.5 -1.1 -22.9 -2 -12.4 -1 -23.2 -1.9 -24 -2.2 -1.4 -0.4 -8.6 -9.7 -10.8 -14 -1.1 -2.2 -1 -2.2 10.6 -2.8 6.4 -0.3 20.6 -0.8 31.5 -1.2 l19.7 -0.6 -0.1 5.8 c-0.2 12.3 -1.8 19.1 -4 17z"/>
  <path d="M1000 1634.2 c0 -1.6 7.2 -25.7 8 -26.5 0.4 -0.4 7.6 -1.5 16.1 -2.3 8.5 -0.8 26.2 -3 39.5 -4.9 13.2 -1.9 24.4 -3.5 24.7 -3.5 2.6 0 -3.3 12 -13.6 27.8 l-6.6 10.2 -34.1 0 c-18.7 0 -34 -0.4 -34 -0.8z"/>
  <path d="M956.9 1622.6 c-0.9 -4.2 0.3 -12.5 1.9 -13.1 2.9 -1.1 3.2 1.1 0.8 8.1 -1.4 4.1 -2.5 6.2 -2.7 5z"/>
  <path d="M891.5 1565.3 c-26.3 -0.6 -62.1 -2.5 -63 -3.3 -1.4 -1.2 -9.2 -31.7 -8.3 -32.5 0.4 -0.4 6.9 -0.2 14.5 0.4 7.6 0.6 27.3 2 43.8 3.2 16.5 1.1 30.2 2.3 30.4 2.5 0.7 0.7 4.9 28.8 4.4 29.7 -0.2 0.4 -3 0.6 -6.1 0.5 -3.1 -0.1 -10.2 -0.3 -15.7 -0.5z"/>
  <path d="M961.4 1562.3 c0.3 -1 1.4 -5.6 2.6 -10.3 1.1 -4.7 2.6 -10 3.2 -11.9 l1 -3.4 8.1 0.6 c4.4 0.4 8.2 0.8 8.3 1 0.2 0.2 -1.5 6 -3.8 12.8 l-4.3 12.4 -7.8 0.3 c-7.2 0.3 -7.8 0.1 -7.3 -1.5z"/>
  <path d="M1022.6 1561.2 c-0.8 -1.3 7.1 -24.4 8.6 -25.4 0.7 -0.4 3.3 -0.8 5.8 -0.8 5.4 0 45.5 -4.3 62.3 -6.6 6.4 -0.9 12 -1.4 12.3 -1.1 0.7 0.7 -0.9 8.1 -3.8 17.4 -1.1 3.9 -2.5 6.4 -3.6 6.7 -2.5 0.8 -42.3 6.2 -58.7 8.1 -7.7 0.8 -15.9 1.8 -18.2 2.1 -2.3 0.3 -4.4 0.1 -4.7 -0.4z"/>
  <path d="M811.4 1486.3 c-0.7 -0.4 -2.4 -6.9 -3.9 -14.3 -4.4 -22.1 -10.7 -48.6 -24.5 -103.3 -14.8 -58.7 -14.9 -59.1 -23.5 -78.2 -3.4 -7.7 -6.8 -15.6 -7.4 -17.6 -0.7 -2 -2.8 -7.4 -4.7 -12 -7.3 -17.3 -16.6 -43.8 -19 -53.8 -1.4 -5.8 -3.8 -13.7 -5.5 -17.5 -1.6 -3.9 -3.8 -9.1 -4.9 -11.6 -7.2 -17.5 -16.6 -33.3 -35.8 -60.5 -16.4 -23.3 -27.2 -36.3 -47.7 -57.5 -5.1 -5.2 -11 -12.2 -13 -15.5 -4.2 -6.5 -8.1 -11.2 -25 -29.9 -6.1 -6.6 -14.2 -15.9 -18.1 -20.6 -90.6 -109.2 -130 -254.4 -106.8 -394 19.7 -118.5 81.4 -225.5 175.4 -304 9 -7.5 14.7 -11.4 41 -28.2 39.5 -25.2 72.2 -41.1 114 -55.3 108.3 -36.9 231.4 -33.8 337.5 8.5 81.6 32.6 151.3 84.5 206.2 153.7 52.5 66.1 88.2 149 100.2 232.8 4 27.4 4.5 36.6 4.5 73 0.1 38.4 -0.8 49.8 -5.9 80.2 -14.8 87.3 -52 167.9 -109.5 236.8 -12.4 14.9 -34.6 38.2 -38 40 -1.8 0.9 -8.1 9.2 -17.5 23 -17.1 24.9 -25.7 35.4 -42.5 52 -14.2 14 -16.5 17.6 -24.8 39.6 -3.3 8.5 -8.4 21 -11.4 27.9 -15.3 34.4 -18.1 41.7 -24.3 63.3 -9 31.1 -13.7 51.1 -18.5 78.7 -2.3 12.9 -5 27.6 -6.1 32.5 -1.1 5 -4.7 22.1 -7.9 38 -9.4 46.8 -15.1 70.3 -17.1 71.6 -1.9 1.1 -20.3 4.9 -33.9 6.9 -13.5 2 -41.8 4.6 -42.4 3.9 -0.5 -0.5 41.7 -125.2 73.4 -216.9 51.7 -149.7 72.6 -217.3 86 -277.7 13.6 -61.5 17 -112 10.4 -155.6 -6 -40.3 -16.7 -63.5 -32 -69.7 -25.8 -10.5 -55.1 29.6 -88.8 121.3 -12.8 34.8 -24.9 75.1 -36.6 121.7 -7.7 30.7 -12 50 -23 104.5 -12.3 60.6 -18.2 88.2 -31.1 145.5 -6.1 26.7 -13.5 59.5 -16.5 73 -16.3 72.5 -19.9 87.5 -18 74 0.3 -2.5 2.4 -20.5 4.6 -40 2.1 -19.5 6 -53 8.4 -74.5 5.9 -50.7 8 -73.2 11.1 -117 6.5 -94.2 7.9 -136.4 7.2 -214.5 -0.3 -33.3 -1 -69 -1.6 -79.5 -5.5 -97.5 -14.4 -154.4 -31.2 -199.3 -15.6 -41.6 -39.5 -74.6 -59.6 -82.2 -15.7 -5.9 -34.5 3 -44.6 21.2 -11.7 20.9 -21.3 69.9 -25.6 130.8 -4.8 66.9 -4.6 165.5 0.4 250 6 99.2 8.6 130.3 16 190.8 2.5 20.2 5.7 45.9 7.1 57.2 1.4 11.3 5.4 39.9 8.9 63.5 3.5 23.7 7.8 53.8 9.5 67 1.6 13.3 5.9 44 9.5 68.3 3.6 24.3 6.5 45 6.5 46.1 0 1.8 -1.7 1.9 -37.2 2.5 -20.5 0.4 -40.4 0.9 -44.3 1.2 -3.8 0.2 -7.5 0.1 -8.1 -0.3z"/>
  <path d="M916.5 1483.8 c-1 -2.9 -8.7 -59.5 -13 -95.3 -2.6 -20.9 -6.1 -49.5 -8 -63.5 -8.3 -61.7 -12.7 -101.4 -21.4 -191 -5.7 -57.9 -6.3 -65.4 -9.2 -114.5 -2.7 -43.8 -3.7 -141.9 -2 -192.3 3.8 -111.8 14.2 -191 27.6 -209.4 3.8 -5.2 8.6 -8.2 11.5 -7.3 4 1.3 28.1 36.2 34.5 50 7.1 15.1 11.3 30.4 15.9 57.7 4.2 24.5 9.3 74.4 12.8 124.3 1.8 27.1 1.7 150.8 -0.3 222 -2 72.3 -9.6 162.6 -20.9 248 -5.1 39.1 -8 64.7 -13.5 122.5 -2.6 26.1 -4.9 47.8 -5.3 48.1 -0.4 0.4 -2.4 1 -4.5 1.3 -2.6 0.5 -3.9 0.3 -4.2 -0.6z"/>
  <path d="M984 1480.6 c0 -0.7 2.3 -9.1 5.1 -18.6 22.3 -76.3 42.7 -163.7 70.5 -301.5 20.9 -104 28.9 -138.9 44.1 -193.5 17.9 -64.5 33.7 -108.4 52.9 -147 8.4 -17 18.3 -33 20.3 -33 0.9 0 5.9 21.1 9.6 40 9.9 51.6 3.9 97.3 -27.1 208.3 -18.2 65.2 -32.1 106.9 -66.2 199.7 -28 76.2 -67.5 186.8 -84.4 236.5 -2.7 7.8 -3.2 8.3 -8.1 8.9 -12.5 1.5 -16.7 1.6 -16.7 0.2z"/>
 </g>
</svg>