<?xml version="1.0" encoding="utf-8"?>
<!DOCTYPE svg PUBLIC "-//W3C//DTD SVG 1.0//EN" "http://www.w3.org/TR/2001/REC-SVG-20010904/DTD/svg10.dtd">
<svg version="1.0" xmlns="http://www.w3.org/2000/svg" width="1924px" height="1924px" viewBox="0 0 1924 1924" preserveAspectRatio="xMidYMid meet">
 <g fill="#2b3f45">
  <path d="M957.9 1790.7 c-5.9 -2.5 -7 -3.2 -20.2 -13 -4.6 -3.4 -15.8 -11.4 -25.1 -17.7 -9.2 -6.3 -25.6 -17.7 -36.4 -25.2 -10.8 -7.5 -35.2 -24.1 -54.2 -36.9 -49.3 -33.3 -112.6 -76.5 -133 -90.9 -24.2 -17 -25.9 -18.3 -39.5 -27.9 -35.6 -25.2 -88.2 -66.3 -114 -89 -57 -50.2 -85.5 -80.7 -122.9 -131.4 -8 -10.9 -39.6 -58.2 -42.5 -63.7 -7.3 -13.8 -14 -27.2 -16 -32 -1.3 -3 -3.1 -7.3 -4.1 -9.5 -14.3 -33.1 -27.5 -86.8 -32.6 -133 -2 -18.1 -2.2 -56.1 -0.5 -75.5 4.3 -48.4 17.1 -98.4 35.6 -139 6.6 -14.5 6.7 -14.8 4.8 -17.7 -1.3 -2 -1.1 -2.8 2.3 -9 6.9 -12.2 27 -41.6 36.2 -52.9 11.3 -13.9 38.8 -43 51.8 -55 18.9 -17.3 38 -31.5 55.4 -41.1 15.9 -8.8 48.8 -21.2 70.5 -26.7 27 -6.7 43.8 -8.6 77.4 -8.6 47.4 0 79 3.8 111.9 13.2 21.9 6.2 56 21.4 72.7 32.3 6.4 4.2 7 4.8 7 8 0.1 2.6 0.7 4 2.5 5.2 4.7 3.3 18.6 15.8 27.2 24.6 20.6 20.7 38 43.9 54.4 72.2 3.8 6.6 7.4 12.9 8.1 14 0.7 1.1 1.6 2.7 2 3.5 0.4 0.8 2.6 4.8 5 8.8 6 10.1 11.6 21.5 14.3 29 1.2 3.4 2.6 6.2 3 6.2 0.4 0 1.5 -2.1 2.5 -4.8 3.3 -8.8 22.9 -46.4 35 -67.2 11.4 -19.5 32.8 -47.6 48.3 -63.4 13.9 -14.2 30.3 -27.6 44.4 -36.3 15.3 -9.4 44.8 -22.7 62.8 -28.2 1.9 -0.6 5.5 -1.7 8 -2.5 2.5 -0.7 7.1 -1.9 10.2 -2.6 3.9 -0.9 7.1 -2.5 10.2 -5 4 -3.3 5.5 -3.9 14.8 -5.3 30.2 -4.9 78.1 -7 104.8 -4.7 36.1 3.2 80.9 16.1 111 32.2 23.7 12.7 44.3 28.3 68.7 52.1 15.8 15.5 16.2 15.9 15.8 19.5 -0.4 3.3 0.1 4.2 4.8 9.2 31.3 32.9 59.9 77 74.2 114.6 14.1 36.9 22.6 70.4 27.4 108.4 2.3 18.5 2.6 24.3 2.6 53 -0.1 33.1 -3 58.4 -11.1 95.6 -10.8 49.8 -24.3 85 -47.1 122.9 -8.7 14.4 -28.2 44.1 -38.1 58 -37.8 52.9 -78.8 96.2 -147.2 155.1 -4.8 4.1 -28 22.8 -35.9 29 -3.5 2.7 -8.7 6.7 -11.6 8.9 -27.9 21.6 -71.3 54 -101.4 75.4 -3.5 2.5 -9.9 7.2 -14.2 10.4 -4.4 3.1 -11 7.8 -14.7 10.4 -3.7 2.6 -9.5 6.7 -12.9 9.2 -3.5 2.5 -13.9 10 -23.3 16.6 -9.4 6.6 -20.9 14.7 -25.5 18 -4.7 3.3 -11.4 8 -15 10.5 -8 5.6 -44.9 31.9 -65 46.5 -8.2 6 -18.6 13.4 -23 16.6 -4.4 3.1 -13.4 9.8 -20 14.8 -14.8 11.2 -18.9 13.3 -28 13.8 -5.7 0.3 -8 -0.1 -12.6 -2z"/>
 </g>
 <g fill="#ffec0e">
  <path d="M345.8 876.1 c-28.2 -30.1 -43.6 -51.6 -58.8 -82 -19 -38.1 -26.2 -73.3 -24.7 -120.6 0.6 -19.9 2.1 -30.9 7.3 -55.4 6.9 -32.4 15.7 -56.5 33.8 -93.6 20.3 -41.4 30.9 -58.7 62.1 -101.6 20.3 -27.8 24.2 -33 37.6 -48.9 17 -20.4 46.3 -57.2 53.6 -67.5 13.6 -19.1 24.4 -38.8 29.4 -53.6 3.4 -10.3 8.7 -39.9 9.6 -53.9 0.5 -8.3 -0.5 -30.6 -2.3 -51.2 -0.6 -6.2 -0.4 -6.9 2 -9.2 2.8 -2.9 8.5 -3.5 12.2 -1.3 1.2 0.6 3.9 2.2 6.1 3.4 2.5 1.3 5.4 4.3 7.5 7.5 4.6 7.1 33.6 66.7 38.6 79.3 9.2 23.2 15.6 47.1 18.9 70.5 2.5 18.1 2.5 71.1 0 85.5 -4.8 27.5 -11.6 51.8 -24.7 89 -12 33.8 -25.4 80.5 -23.7 82.2 0.3 0.3 4.3 -2.6 8.9 -6.5 13.7 -11.4 39.3 -30.1 66.6 -48.3 14.1 -9.5 30 -20.5 35.3 -24.6 20.5 -15.6 42.2 -42 49.6 -60.3 4.4 -11 5.4 -18.8 6 -46 0.4 -22.1 0.2 -27.6 -1.6 -41.6 -1.2 -8.9 -2.1 -17.5 -2.1 -19.2 0 -1.7 -1.8 -8.8 -4 -15.7 -5.5 -17.2 -7.1 -31.4 -6 -50.5 1.7 -27.8 10.4 -52.4 17.6 -49.6 1.1 0.4 1.2 1.1 0.3 3.3 -1.9 5.1 -3.2 33.9 -2 43.1 1.6 11.3 6.6 24.7 14.2 37.8 5.7 10 7.6 12.2 22.8 26.9 41.6 40.2 54.6 54.6 75.7 84.1 26.8 37.5 46.1 94.6 55.1 162.9 1.4 11.2 1.8 20.6 1.8 47 -0.1 56.4 -4.1 82.9 -20 131.4 -3.5 10.7 -6.1 19.9 -5.8 20.5 0.7 1 -3.9 -1.6 -12.2 -7.2 -2.7 -1.8 -11.7 -6.7 -19.9 -10.7 -48.5 -24.2 -92.5 -33.4 -159.7 -33.5 -38.6 0 -63.1 4 -99.4 16.2 -40.9 13.7 -67.5 29.6 -100.9 60.2 -13 11.9 -40.5 41.1 -51.8 54.9 -9.2 11.3 -28.4 39.4 -36 52.8 l-4.3 7.5 -12.7 -13.5z m185.7 -614.3 c-1.6 -11.2 -2.4 -11.9 -3.9 -3.4 -0.6 2.9 -0.3 4.2 1 5.7 2.7 3 3.6 2.3 2.9 -2.3z"/>
  <path d="M1477.7 780.3 c-38.5 -37.5 -66.3 -55.1 -110.2 -70 -25.5 -8.6 -49.5 -13.6 -74.4 -15.5 -26 -2 -75.6 1 -102.1 6.2 -5.8 1.1 -10.6 2 -10.8 2 -0.2 0 1 -1.7 2.7 -3.7 3.3 -4.2 35.4 -54.8 49.1 -77.4 20.4 -33.5 25.2 -47 26.9 -75.7 1.3 -21.5 -0.5 -40.1 -6.5 -67.2 -5.4 -23.9 -8.9 -33.7 -24.9 -69 -11 -24.2 -17.6 -43 -20 -57 -2.3 -12.8 -3.3 -64.1 -1.5 -76.1 2.6 -18.4 12.9 -51.1 20.6 -65.9 6 -11.6 12.6 -20.1 24.3 -31.2 11.7 -11.1 19.4 -16.6 24.3 -17.4 5.7 -1 5.4 1.5 -1.3 8.5 -3.2 3.5 -5.9 7 -5.9 7.9 0 0.9 -2.2 6.2 -5 11.7 -6 12.3 -7.5 20.1 -9 46.3 -1.1 19.8 -0.5 29.3 3 49.2 6 33.6 12.1 49 31.1 78.8 14.2 22.3 18.1 27 63 77.3 33.8 37.8 47.7 55.6 63.5 81.4 7.9 13 19 35.1 23.6 47.1 1.8 4.8 3.8 8.8 4.5 9.1 0.7 0.3 6.6 -2.7 13.1 -6.6 20.2 -12 42.6 -21.3 76.8 -31.6 30 -9.1 33.2 -10.2 38.6 -13.6 8.3 -5.3 16.9 -15.5 22.8 -27 7.4 -14.5 12.9 -28.2 14.6 -36.4 1.8 -8.5 4.2 -11.5 9.5 -11.5 3.2 0 4.4 0.8 9.5 6.3 10 10.6 15.5 23.6 22.9 53.7 6 24.7 7 34.1 7 67 -0.1 32.5 -0.8 38 -7.5 58.3 -7.8 23.2 -19.2 42 -34.9 57.7 -12.8 12.8 -24.6 21.7 -39.5 30 -38.7 21.6 -60.2 37.9 -72.1 54.5 -5.2 7.4 -8.8 14.2 -8 15.5 1.9 3 -2.3 -0.7 -17.8 -15.7z"/>
  <path d="M1021.8 692.6 c-11.2 -3.1 -21.2 -14.2 -24.8 -27.5 -1.9 -7.2 -1.3 -22.3 1.5 -35.4 2.3 -11 4 -16.7 12.4 -39.7 3 -8.2 3.1 -9.1 3.1 -24.7 0 -8.9 -0.5 -18.6 -1.1 -21.5 -1.9 -8.8 -7.3 -18 -21.8 -37.1 -23.9 -31.6 -30.1 -42.4 -37.5 -65.5 -8.1 -25.3 -10.4 -54.8 -5.7 -74.2 10.1 -41.4 33.9 -79.2 60.9 -96.8 3.2 -2 7.9 -5.6 10.6 -7.9 7.7 -6.9 13 -7.1 17.9 -1 l3.1 3.7 -2.2 7.6 c-2.7 9.2 -6.2 28.9 -6.2 35.1 0 6.9 2.8 24.7 5.5 35 4.3 16.4 14.8 34.6 29.8 51.5 4.7 5.3 10.4 12.2 12.8 15.5 2.3 3.2 11.3 13 19.9 21.8 8.6 8.9 17.8 19.4 20.7 23.7 5.8 8.7 15.8 28.8 20.8 41.7 8.2 21.3 8.6 45.4 1 71.6 -5 17.3 -18.4 41.7 -31.6 57.5 -8.6 10.4 -27.5 29.5 -39.4 39.8 -6 5.3 -14 12.4 -17.7 15.9 -10.6 10 -21.7 13.8 -32 10.9z"/>
 </g>
</svg>