<?xml version="1.0" encoding="utf-8"?>
<!DOCTYPE svg PUBLIC "-//W3C//DTD SVG 1.0//EN" "http://www.w3.org/TR/2001/REC-SVG-20010904/DTD/svg10.dtd">
<svg version="1.0" xmlns="http://www.w3.org/2000/svg" width="1924px" height="1924px" viewBox="0 0 1924 1924" preserveAspectRatio="xMidYMid meet">
 <g fill="#2b3f45">
  <path d="M835.2 1765.4 c-6.3 -3.1 -10.2 -7.9 -13.7 -16.6 -1.8 -4.6 -4 -7.8 -7 -10.6 -7.6 -6.9 -11.9 -18.4 -16.1 -42.6 -5 -28.8 -5.5 -62.3 -1.5 -93.6 2 -15.5 9.9 -51.9 14.7 -68 11.1 -37.3 33.2 -87.7 52.9 -121 23.3 -39.3 57.1 -83.7 93.7 -123 13.8 -14.9 47.7 -47 62.8 -59.6 14.2 -11.9 51.1 -39.8 76.9 -58.2 65.5 -46.7 109 -71.9 170.1 -98.7 8.5 -3.8 16.1 -7.3 16.9 -7.9 0.7 -0.5 2.8 -3.3 4.5 -6.1 1.8 -2.7 10.3 -14.4 18.9 -26 8.7 -11.5 15.7 -21.3 15.7 -21.7 0 -1 11.6 -6 -171 73.7 -91.6 40 -203.2 88.7 -248 108.2 -142.8 62.2 -305.1 133.3 -317.5 139 -6.5 3.1 -14.7 6.6 -18.1 7.9 -3.4 1.2 -7.7 3.4 -9.7 4.7 -4.7 3.2 -25.5 10 -38.5 12.7 -68.5 13.9 -137.4 -14.1 -175.7 -71.5 -30.3 -45.3 -37.7 -103.2 -20 -156.1 16.5 -49.5 53.6 -91.2 99.5 -112.1 5.2 -2.3 9.6 -4.7 9.8 -5.2 0.2 -0.5 -2 -6 -4.9 -12.3 -6 -13 -31.8 -70.4 -47.2 -104.8 -5.7 -12.9 -10.8 -24.4 -11.1 -25.6 -0.4 -1.4 -2.8 -2.9 -7.9 -4.8 -27.5 -10.6 -79.3 -47.8 -115.6 -83.1 -40.1 -39 -62.6 -70 -86.1 -118.7 -7.6 -15.8 -18 -45.5 -20.5 -58.8 -2.7 -14.3 -3.7 -33.5 -2.5 -47.1 3.4 -39.5 16.5 -69.8 44.7 -103.4 18.1 -21.6 30.3 -32 55.2 -47 23.3 -13.9 31.4 -17.6 49.5 -22.1 8.3 -2.1 13.4 -2.7 28.3 -3.1 34 -1 57.7 4.4 77.2 17.6 24.1 16.4 49.2 48.8 65.1 84 11.9 26.4 19.7 51.4 26 82.9 9.4 47.7 11.3 69.9 11.4 135.7 0.1 43.9 -0.2 55.7 -2.2 84.5 -2.1 28.7 -2.2 34 -1 36.6 2.3 5.4 56.1 103.4 56.7 103.4 0.3 0 4.6 -6.7 9.5 -14.8 4.9 -8.1 13.9 -22.3 19.9 -31.7 31.5 -49.1 180.3 -266.9 337.7 -494.5 35.5 -51.4 82.8 -119.8 104.9 -152 22.2 -32.2 42.4 -60.7 45 -63.3 5.8 -6 13.2 -9.7 20.8 -10.4 14.1 -1.3 26.9 7.6 30.9 21.4 0.9 3.2 4 8.7 7.9 14.1 16.9 23.2 38.7 54.9 46.8 68.1 4.9 8 10.8 17.2 13 20.3 4.7 6.7 6 13.9 3.4 19.8 -2.3 5.4 -10.8 14.2 -22.1 23 -9.6 7.4 -16 11.1 -43.4 25.8 -5.7 3 -10.6 6.1 -10.9 6.9 -0.3 0.8 0.6 5.5 2 10.6 5.8 20.4 7.6 41.5 4.3 49.2 -0.9 2.2 -3.1 5.5 -4.9 7.4 -4 4.3 -19 11.5 -36.7 17.6 -7.4 2.6 -18.1 7.1 -23.6 10 -5.6 3 -16.8 8.4 -25 12 -14.7 6.5 -27.8 13.9 -30.5 17.1 -1.1 1.4 -1.5 10.5 -2 46.3 -0.6 48.9 -0.8 50.5 -6.8 58.8 -4.8 6.7 -11.2 9.1 -26.8 10.3 -7.2 0.6 -16.7 1.7 -21 2.5 -4.3 0.8 -12.9 2.1 -19 2.9 -6.2 0.8 -13.4 2.4 -15.9 3.5 l-4.6 2.1 0.6 12.2 c2.4 48.5 1.6 79.5 -2.2 88.1 -5 11.2 -11.4 14.7 -28.6 15.8 -8.9 0.5 -14.9 1.5 -22.6 3.7 -5.8 1.7 -15.9 4 -22.5 5.2 -10.6 1.8 -22.5 5.8 -22.5 7.5 0 0.3 1.1 6.1 2.5 12.8 8.4 42.2 4.3 67.2 -12.9 77.2 -2.2 1.3 -15.3 6 -29.1 10.6 -13.7 4.5 -30.4 10.3 -37 12.9 -6.6 2.6 -15.7 5.9 -20.2 7.4 -4.6 1.5 -9.1 3.5 -10.2 4.4 -1 0.9 -9.8 11.6 -19.4 23.7 -9.6 12.1 -19.5 24.2 -21.8 26.9 -3.2 3.6 -3.8 4.8 -2.4 4.4 2.6 -0.7 242.8 -105.6 385 -168.1 31.9 -14 85.9 -37.6 120 -52.5 34.1 -14.8 100.9 -44 148.5 -64.7 122.8 -53.5 189.8 -82.6 210 -91 9.6 -4 20.8 -9.4 24.9 -11.9 28.7 -17.7 70.2 -23.7 107.6 -15.5 58.7 12.7 106.3 56.3 125.4 114.6 14.1 43.1 12.6 87.9 -4.4 129.5 -12.4 30.3 -34.4 59 -58.4 76.3 -4.6 3.3 -9.5 6.9 -10.8 8 l-2.5 2.1 3.6 20.3 c10 56.3 17 119.7 20.5 184.6 3.6 66.2 3.7 96.3 0.6 139.5 -2.1 27.8 -2.9 34.2 -7.6 58 -8.7 44.6 -14.8 70.9 -17.9 76.9 -4.3 8.6 -8.7 10.4 -11.6 4.9 -1.9 -3.7 -2 -5.2 -0.9 -44.3 0.7 -27 0.5 -32.2 -1.4 -51.5 -7.9 -79.6 -8.3 -85 -10.1 -132 -1.4 -35.6 -5.8 -71 -16.5 -132 -2.5 -14 -5.6 -33.1 -7 -42.4 -2.9 -19.4 -8.1 -49.3 -9.6 -54.8 -1.1 -4.2 -2.2 -4.5 -7.4 -2.4 -2.1 0.9 -3.6 2.4 -4 3.8 -2.5 11 -3.2 43 -1.5 72.8 0.5 9.1 1.4 26 2 37.5 0.6 11.6 1.7 27.3 2.5 35 0.8 7.7 1.9 20.1 2.5 27.5 0.6 7.4 1.7 18.2 2.5 24 0.8 5.8 1.9 20.9 2.5 33.5 2.2 46.4 6.3 91.6 11 118.7 4 23.3 8.8 58.3 9.5 69.3 0.4 5 1.3 12.8 2 17.5 0.8 4.7 2.1 15.8 3.1 24.8 1.5 15 1.5 16.4 0 18.7 -2.1 3.2 -5.9 4.2 -9 2.2 -3.5 -2.4 -18.8 -30.3 -25.5 -46.8 -3.2 -7.9 -7.8 -18.9 -10.1 -24.4 -5.3 -12.7 -13.3 -40.1 -16.4 -56.4 -4 -20.3 -12.5 -86.9 -16.1 -125.1 -0.4 -3.6 -1.7 -13.2 -3 -21.5 -1.3 -8.2 -3.1 -22 -4 -30.5 -0.9 -8.5 -2 -18.7 -2.5 -22.7 -0.5 -3.9 -1.4 -18.3 -2 -32 -0.6 -13.6 -1.5 -30.1 -2 -36.5 -0.6 -6.4 -1 -22.9 -1 -36.7 0 -17.9 -0.3 -25.1 -1.1 -25.1 -1.4 0 -80.6 34.6 -83.5 36.5 -1.3 0.8 -2.5 3 -2.9 5.1 -1 5.5 -5.1 13.2 -15.5 28.8 -14.5 21.9 -25 36.3 -96.6 131.6 -70 93.3 -103.7 137.4 -181.4 237 -69.7 89.4 -242.4 311.6 -267.4 344 -39.5 51.2 -53.8 69.4 -57.5 73.3 -9 9.5 -23.2 12.4 -33.9 7.1z m-316.2 -500.1 c2.5 -1.2 5.5 -2.4 6.7 -2.7 7.2 -2.2 25.3 -17.8 31.8 -27.6 1.6 -2.5 3.3 -4.7 3.7 -5 1.7 -1.3 8.9 -18.2 11 -26 1.9 -7 2.3 -10.8 2.2 -21.5 -0.1 -11.2 -0.5 -14.1 -2.8 -21.2 -2.4 -7.5 -6.2 -15.2 -11.1 -22.7 -6.5 -9.8 -36.3 -26.3 -57.3 -31.7 -13.5 -3.4 -26.5 -1.8 -40.5 5.2 -7.2 3.6 -19.7 12.8 -19.7 14.4 0 0.6 -1.1 2.2 -2.5 3.5 -2.5 2.4 -8.3 11.7 -12.8 20.6 -3.4 6.7 -7.3 19.2 -8.8 27.9 -1.4 8.4 -0.6 26.7 1.5 34.7 6.5 24.1 27.6 42.8 59 52.4 7.2 2.2 9.6 2.4 21.6 2.1 11.3 -0.3 14.4 -0.7 18 -2.4z m-48.7 -402.3 c-0.7 -2.7 -1.8 -3.3 -3.3 -1.5 -1.5 1.8 -0.5 3.5 2 3.5 1.3 0 1.7 -0.5 1.3 -2z m1164.7 -104.4 c15.4 -2.7 26.5 -8.3 37 -18.9 7.5 -7.4 8.5 -8.8 13.6 -19.3 5.8 -11.9 7.7 -21 7.1 -33.9 -0.5 -10.4 -3.7 -21.8 -7.8 -27.7 -1.1 -1.4 -1.9 -2.9 -1.9 -3.2 0 -1.3 -6.9 -9.4 -12 -14.1 -8.4 -7.7 -9.4 -8.3 -25.5 -15.5 -17.3 -7.8 -35.8 -9.5 -49.7 -4.6 -10.6 3.6 -25.5 12.8 -28.1 17.2 -0.7 1.2 -3.3 5.2 -5.9 9 -2.9 4.3 -5.9 10.5 -7.9 16.4 -2.8 8.3 -3.2 10.9 -3.3 20.5 -0.1 12.6 1.6 19.2 8.1 31.5 5.1 9.7 5 9.6 11.1 17.2 5.1 6.4 13.4 14.2 19.7 18.4 10.8 7.3 28.5 10 45.5 7z m-1392.5 -88.9 c3.9 -1.4 12.9 -4.2 20 -6.2 24 -6.6 60.1 -22.4 76.7 -33.5 20.5 -13.8 32.7 -23.8 52.3 -42.9 11 -10.8 22.4 -21.1 25.3 -23 6.1 -3.9 6.2 -4.3 2.6 -16 -6.7 -22.1 -19.2 -49 -31.3 -67.2 -13.5 -20.4 -25.8 -32.4 -37.8 -36.9 -13.9 -5.2 -40.6 -5 -56.8 0.4 -9.5 3.2 -33 16.7 -42.9 24.7 -13.1 10.4 -29.8 29.3 -39.3 44.4 -5.2 8.1 -11 21.4 -13.5 30.5 -2 7.4 -2.3 10.8 -2.2 26.5 0 17 0.2 18.6 3.2 29.7 5.5 20.3 16.2 45.8 27.5 65.6 4.7 8.4 4.1 8.2 16.2 3.9z"/>
  <path d="M487.5 1256.4 c-14.1 -2.2 -25.5 -8.3 -37 -19.9 -9.8 -9.7 -14.2 -17.1 -17 -28 -2.8 -11.1 -1.5 -33.6 2.7 -44 5.4 -13.6 23.9 -32.1 39.1 -39 6.8 -3.2 18.7 -5.5 27.5 -5.5 25.3 0.1 45.3 16.1 49.2 39.2 0.7 4 2.4 10.2 3.8 13.8 5.1 13.2 4 35.1 -2.4 47.9 -6.7 13.4 -24.7 28.9 -38.7 33.3 -6.1 1.9 -21.1 3.1 -27.2 2.2z"/>
  <path d="M1604.1 746 c-7.4 -2.7 -13.9 -7.1 -20.3 -13.8 -10.9 -11.4 -15.8 -22.8 -16.5 -38.7 -0.6 -12 0.6 -18.8 5.1 -28.1 6.1 -12.7 16.7 -21.8 30.8 -26.1 7 -2.2 23.8 -2.2 29.3 0 21.5 8.4 26.4 11.8 31.2 21.2 4.8 9.3 6.4 15.6 7 26.7 1 18.3 -2.3 32.4 -9.9 41.9 -5 6.3 -17 14.3 -25.5 16.9 -8.8 2.7 -23.6 2.7 -31.2 0z"/>
 </g>
 <g fill="#aaeafb">
  <path d="M489 1270.9 c-19.7 -1.8 -44.6 -14.3 -57.5 -28.9 -11.4 -12.9 -15.5 -24.4 -16.2 -45.6 -0.6 -15.7 0.3 -23.4 4.3 -35.8 3.8 -11.8 12.9 -28.9 17.9 -33.6 1.4 -1.3 2.5 -2.9 2.5 -3.5 0 -1.6 12.5 -10.8 19.7 -14.4 18.6 -9.3 39 -9.5 60.4 -0.6 13.7 5.7 29.3 14.1 35.2 19 6.5 5.4 7.9 7.1 13.3 16.6 9.6 17 12.1 41.4 6.5 62.9 -2 7.7 -9.1 24.6 -10.9 26 -0.4 0.3 -2.1 2.5 -3.7 5 -3.8 5.7 -15.7 17.7 -21.6 21.7 -5 3.5 -12.9 7.6 -12.9 6.8 0 -0.3 -1 0.1 -2.3 1 -5 3.2 -20.1 4.7 -34.7 3.4z m23 -19.8 c13.7 -4.3 31.7 -19.9 38.4 -33.2 6.3 -12.5 7.2 -29.3 2.3 -42 -1.3 -3.5 -3 -9.7 -3.7 -13.7 -4.2 -25.3 -28.3 -42.3 -54.2 -38.3 -10.2 1.6 -16.8 4 -24.9 9.3 -12.4 8 -26.6 23.9 -30.7 34.3 -2.2 5.6 -4.2 17 -4.2 24.5 0 16.3 5.3 28.4 18.5 41.5 11.5 11.6 23 17.7 37 19.9 5 0.7 15.2 -0.4 21.5 -2.3z"/>
  <path d="M1603.5 761.6 c-11.2 -3 -16 -5.6 -25.7 -13.9 -5.1 -4.3 -14.4 -15 -17.3 -19.8 -7.4 -12.3 -12.2 -24.8 -13.3 -35.3 -1.7 -15.2 3.2 -35.7 11.6 -48 2.6 -3.8 5.2 -7.8 5.9 -9 2.5 -4.3 17.5 -13.6 28.1 -17.3 6.8 -2.4 9.1 -2.7 20.2 -2.7 17 0.1 24.1 2 45.9 12.1 5 2.4 8.8 5 15.1 10.8 5.1 4.7 12 12.8 12 14.1 0 0.3 0.8 1.8 1.9 3.2 2.9 4.2 6.9 16.2 7.8 23.8 1.1 8.7 0.7 18.6 -1.2 27.7 -1.4 6.8 -8.4 22.7 -12.2 27.6 -3.7 4.8 -13 13.4 -18.3 17 -5.7 3.8 -17.8 8.7 -24 9.7 -8 1.3 -31.6 1.3 -36.5 0z m28.8 -18.6 c8.5 -2.6 20.5 -10.6 25.5 -16.9 14.7 -18.5 12.8 -55.6 -3.5 -71.4 -3.5 -3.3 -11 -7.1 -24.8 -12.4 -5.2 -2 -16.6 -2 -23.3 0 -17.7 5.4 -30.1 18.5 -34.9 37 -2.1 8.4 -1.3 19 2.2 28.7 3.4 9.2 6.3 13.9 13.3 21.2 13.5 14.2 29 18.9 45.5 13.8z"/>
 </g>
</svg>